<svg xmlns="http://www.w3.org/2000/svg" xmlns:xlink="http://www.w3.org/1999/xlink" version="1.1" id="source"> 
	<g id="arrow-icon" transform="translate (33,0) rotate(90, 0, 0)"><path class="arrow" d="M16.5 0.694C7.77 0.7 0.7 7.8 0.7 16.5c0 8.7 7.1 15.8 15.8 15.8 c8.73 0 15.806-7.077 15.806-15.806C32.306 7.8 25.2 0.7 16.5 0.694z M16.5 29.098c-6.958 0-12.598-5.64-12.598-12.598 c0-6.958 5.64-12.598 12.598-12.598c6.958 0 12.6 5.6 12.6 12.598C29.098 23.5 23.5 29.1 16.5 29.098z"/><path class="arrow" d="M25.778 11.302c-0.632-0.632-1.676-0.623-2.319 0.021l-6.942 6.942l-6.942-6.942 c-0.644-0.644-1.687-0.653-2.319-0.021s-0.623 1.7 0 2.319l8.056 8.056c0.171 0.2 0.4 0.3 0.6 0.4 c0.046 0 0.1 0 0.1 0.029c0.151 0 0.3 0.1 0.5 0.085c0.155 0 0.306-0.042 0.457-0.085 c0.048-0.014 0.098-0.011 0.145-0.029c0.212-0.081 0.412-0.201 0.583-0.371l8.056-8.056C26.401 13 26.4 11.9 25.8 11.302z "/></g>
	<g id="arrow-icon2" transform="translate (0,33) rotate(-90, 0, 0)"><path class="arrow" d="M16.5 0.694C7.77 0.7 0.7 7.8 0.7 16.5c0 8.7 7.1 15.8 15.8 15.8 c8.73 0 15.806-7.077 15.806-15.806C32.306 7.8 25.2 0.7 16.5 0.694z M16.5 29.098c-6.958 0-12.598-5.64-12.598-12.598 c0-6.958 5.64-12.598 12.598-12.598c6.958 0 12.6 5.6 12.6 12.598C29.098 23.5 23.5 29.1 16.5 29.098z"/><path class="arrow" d="M25.778 11.302c-0.632-0.632-1.676-0.623-2.319 0.021l-6.942 6.942l-6.942-6.942 c-0.644-0.644-1.687-0.653-2.319-0.021s-0.623 1.7 0 2.319l8.056 8.056c0.171 0.2 0.4 0.3 0.6 0.4 c0.046 0 0.1 0 0.1 0.029c0.151 0 0.3 0.1 0.5 0.085c0.155 0 0.306-0.042 0.457-0.085 c0.048-0.014 0.098-0.011 0.145-0.029c0.212-0.081 0.412-0.201 0.583-0.371l8.056-8.056C26.401 13 26.4 11.9 25.8 11.302z "/></g>
</svg>