<?xml version="1.0" encoding="utf-8"?>
<!-- Generator: Adobe Illustrator 18.0.0, SVG Export Plug-In . SVG Version: 6.00 Build 0)  -->
<!DOCTYPE svg PUBLIC "-//W3C//DTD SVG 1.1//EN" "http://www.w3.org/Graphics/SVG/1.1/DTD/svg11.dtd">
<svg version="1.1" xmlns="http://www.w3.org/2000/svg" xmlns:xlink="http://www.w3.org/1999/xlink" x="0px" y="0px"
	 viewBox="0 0 263.4 31.5" enable-background="new 0 0 263.4 31.5" xml:space="preserve">
<g id="Guides" display="none">
</g>
<g id="_x36_40_Grid_-_12_Col_MOBILE_Retina" display="none">
</g>
<g id="_x31_200_Grid_-_12_Col_DESKTOP" display="none">
</g>
<g id="Footer">
	<g>
		<g>
			<polygon fill="#FFFFFF" points="247.6,31.5 263.4,0 244.1,0 238,12.2 			"/>
			<polygon fill="#FFFFFF" points="238,12.2 231.9,0 212.5,0 228.3,31.5 			"/>
		</g>
		<g id="Logo__x7C__Artwork_5_">
			<g>
				<path fill="#FFFFFF" d="M136.7,28h1.5l-6.1-15.4h-0.1L126,28h1.5l1.6-4.1h6L136.7,28z M132.1,15.9l2.5,6.7h-4.9L132.1,15.9z"/>
				<path fill="#FFFFFF" d="M97.2,12.8h3.1V28h-3.1V12.8z"/>
				<path fill="#FFFFFF" d="M145.8,12.8h4.4c3.2-0.1,4.7,1.9,4.7,3.8c0,1.1-0.1,2.3-1.9,3.4c2.2,0.7,2.9,2,2.9,3.8
					c0,2.4-1.6,4.1-4.8,4.1h-5.4V12.8z M150.8,19.6c1.9,0,2.9-1.3,2.9-2.9c0-1.5-0.8-2.7-3.5-2.7h-3v5.5H150.8z M151,26.7
					c2.4,0,3.6-1.1,3.6-2.9c0-1.8-1.3-3-3.7-3h-3.7v5.9H151z"/>
				<path fill="#FFFFFF" d="M164,12.8h4.4c3.2-0.1,4.7,1.9,4.7,3.8c0,1.1-0.1,2.3-1.9,3.4c2.2,0.7,2.9,2,2.9,3.8
					c-0.1,2.4-1.6,4.1-4.8,4.1H164L164,12.8L164,12.8z M169.1,19.6c1.9,0,2.9-1.3,2.9-2.9c0-1.5-0.8-2.7-3.5-2.7h-3v5.5H169.1z
					 M169.3,26.7c2.4,0,3.6-1.1,3.6-2.9c0-1.8-1.3-3-3.6-3h-3.7v5.9H169.3z"/>
				<path fill="#FFFFFF" d="M182.8,12.8h1.5V28h-1.5V12.8z"/>
				<path fill="#FFFFFF" d="M196.6,14.1h-4.7v-1.3h10.8v1.3h-4.7V28h-1.4V14.1z"/>
				<path fill="#FFFFFF" d="M115.6,21.4c2.7-0.4,4.1-2.3,4.1-4.2c0-2.3-1.5-4.4-5.2-4.4h-4V28h1.4V14.1h2.5c2.7,0,4,1.2,4,3
					c0,2.3-1.9,3.5-4.7,3.3h-0.5l5.5,7.6h1.7L115.6,21.4z"/>
				<path fill="#FFFFFF" d="M48.2,28.1c-1.6,0-3.9-0.5-5.3-1.8l1.2-2.5c1.1,0.9,2.6,1.6,4,1.6c0.1,0,0.1,0,0.1,0
					c1,0,1.9-0.7,1.9-1.5c0-1-0.8-1.7-2.7-2.5c-1.8-0.7-4.1-2-4.1-4.7c0-2,1.5-4.2,4.9-4.2c1.8,0,3.2,0.7,3.8,1.2
					c0.2,0.1,0.4,0.3,0.6,0.4l-1.1,2.5c-0.2-0.2-0.4-0.3-0.7-0.5c-1-0.7-1.9-0.9-2.8-0.9c-0.9,0-1.8,0.5-1.8,1.4
					c0,0.9,0.7,1.6,2.5,2.3c2.2,0.9,4.5,2.2,4.5,4.9c0,1.2-0.5,2.2-1.4,3C50.9,27.6,49.5,28.1,48.2,28.1z"/>
				<path fill="#FFFFFF" d="M10.5,18.8l-4.4,9.3H5.8L0,12.8h3.3l3,8.6l4-8.7h0.3l4,8.7l3-8.6h3.1l-5.7,15.3h-0.3L10.5,18.8z"/>
				<path fill="#FFFFFF" d="M34.3,28h3.1l-6.7-15.3h-0.3L23.6,28h3.1l1-2.7h5.3L34.3,28z M28.9,22.6l1.6-4.3l1.6,4.3H28.9z"/>
				<path fill="#FFFFFF" d="M69,28h3.1l-6.7-15.3h-0.3L58.4,28h3.1l1-2.7h5.3L69,28z M63.6,22.6l1.6-4.3l1.6,4.3H63.6z"/>
				<path fill="#FFFFFF" d="M86.9,20.2c1-0.5,2.1-1.7,2.1-3.4c0-2.2-2-4-4.6-4h-5.7V28H85c2.6,0,4.7-1.8,4.7-4.2
					C89.7,21.8,88,20.6,86.9,20.2z M81.6,19.1v-3.6h2.5c1.1,0,2,0.7,2,1.8s-0.7,1.8-1.8,1.8H81.6z M81.6,25.3v-3.8h2.7
					c1.2,0,2.2,0.8,2.2,1.9c0,1.2-0.8,1.9-1.9,1.9H81.6z"/>
			</g>
		</g>
	</g>
</g>
<g id="Layer_11">
</g>
<g id="HOME_PAGE">
</g>
<g id="Navigation">
</g>
<g id="The_Fold" display="none">
</g>
<g id="Browser_Mockups">
	<g id="Layer_7">
		<g id="Layer_8">
		</g>
	</g>
</g>
</svg>
