<?xml version="1.0" encoding="utf-8"?>
<!-- Generator: Adobe Illustrator 18.0.0, SVG Export Plug-In . SVG Version: 6.00 Build 0)  -->
<!DOCTYPE svg PUBLIC "-//W3C//DTD SVG 1.1//EN" "http://www.w3.org/Graphics/SVG/1.1/DTD/svg11.dtd">
<svg version="1.1" xmlns="http://www.w3.org/2000/svg" xmlns:xlink="http://www.w3.org/1999/xlink" x="0px" y="0px"
	 viewBox="0 0 283 38.1" enable-background="new 0 0 283 38.1" xml:space="preserve">
<g id="Guides" display="none">
</g>
<g id="_x36_40_Grid_-_12_Col_MOBILE_Retina" display="none">
</g>
<g id="_x31_200_Grid_-_12_Col_DESKTOP" display="none">
</g>
<g id="Footer">
</g>
<g id="Layer_11">
	<g>
		<g>
			<polygon fill="#680F0D" points="263.9,6.7 266.6,15.4 275.6,15.4 268.3,20.7 271.1,29.5 263.9,24.1 256.6,29.5 259.4,20.7 
				252.1,15.4 261.1,15.4 			"/>
			<path fill="#11112F" d="M245.3,23.5c-0.3-1.4-0.5-2.9-0.5-4.5c0-5.9,2.7-11.2,7-14.7l2.8,4c-3,2.6-4.9,6.5-4.9,10.8
				c0,1,0.1,2.1,0.3,3L245.3,23.5z M273.2,8.2c3.1,2.6,5,6.5,5,10.8c0,1-0.1,2-0.3,3l4.6,1.5c0.3-1.4,0.5-3,0.5-4.5
				c0-5.9-2.7-11.3-7-14.8L273.2,8.2z M256.7,6.8c2.1-1.3,4.6-2,7.2-2c2.6,0,5,0.7,7.1,1.9l2.8-3.9C271,1,267.6,0,263.9,0
				c-3.7,0-7.1,1-10,2.8L256.7,6.8z M277.1,24.6c-2,4.7-6.4,8.2-11.8,8.7v4.8c7.5-0.5,13.7-5.4,16.4-12L277.1,24.6z M262.7,33.3
				c-5.4-0.4-9.9-3.9-12-8.7l-4.6,1.4c2.6,6.7,9,11.6,16.6,12.1V33.3z"/>
			<path fill="#010101" d="M275.3,37.2c0,0.1,0,0.2-0.1,0.3c0,0.1-0.1,0.2-0.2,0.3c-0.1,0.1-0.2,0.1-0.3,0.2c-0.1,0-0.2,0.1-0.4,0.1
				c-0.1,0-0.2,0-0.4-0.1c-0.1,0-0.2-0.1-0.3-0.2c-0.1-0.1-0.1-0.2-0.2-0.3c0-0.1-0.1-0.2-0.1-0.4c0-0.1,0-0.2,0.1-0.3
				c0-0.1,0.1-0.2,0.2-0.3c0.1-0.1,0.2-0.1,0.3-0.2c0.1,0,0.2-0.1,0.4-0.1c0.1,0,0.2,0,0.4,0.1c0.1,0,0.2,0.1,0.3,0.2
				c0.1,0.1,0.1,0.2,0.2,0.3C275.3,36.9,275.3,37.1,275.3,37.2z M275.1,37.2c0-0.1,0-0.2-0.1-0.3c0-0.1-0.1-0.2-0.1-0.2
				c-0.1-0.1-0.1-0.1-0.2-0.1c-0.1,0-0.2-0.1-0.3-0.1c-0.1,0-0.2,0-0.3,0.1c-0.1,0-0.2,0.1-0.2,0.2c-0.1,0.1-0.1,0.1-0.1,0.2
				c0,0.1,0,0.2,0,0.3c0,0.1,0,0.2,0.1,0.3c0,0.1,0.1,0.2,0.1,0.2c0.1,0.1,0.1,0.1,0.2,0.1c0.1,0,0.2,0.1,0.3,0.1
				c0.1,0,0.2,0,0.3-0.1c0.1,0,0.2-0.1,0.2-0.2c0.1-0.1,0.1-0.1,0.1-0.2C275.1,37.4,275.1,37.3,275.1,37.2z M274.9,37.6
				C274.9,37.6,274.9,37.6,274.9,37.6C274.8,37.6,274.8,37.6,274.9,37.6C274.8,37.6,274.8,37.6,274.9,37.6c-0.1,0-0.1,0-0.1,0
				c0,0,0,0-0.1,0c0,0,0,0,0,0c0,0,0,0,0,0c0,0,0,0,0,0l0-0.2c0-0.1,0-0.1-0.1-0.1c0,0-0.1,0-0.1,0h-0.1v0.3c0,0,0,0,0,0
				c0,0,0,0-0.1,0c0,0-0.1,0-0.1,0c0,0,0,0,0,0v-0.8c0,0,0-0.1,0-0.1c0,0,0,0,0.1,0h0.3c0.1,0,0.1,0,0.2,0c0,0,0.1,0,0.1,0.1
				c0,0,0.1,0.1,0.1,0.1c0,0,0,0.1,0,0.1c0,0.1,0,0.1-0.1,0.2c0,0-0.1,0.1-0.2,0.1c0,0,0.1,0,0.1,0.1c0,0,0.1,0.1,0.1,0.1
				L274.9,37.6C274.8,37.6,274.9,37.6,274.9,37.6z M274.6,37C274.6,37,274.6,36.9,274.6,37C274.6,36.9,274.5,36.9,274.6,37
				c0-0.1-0.1-0.1-0.1-0.1c0,0,0,0-0.1,0h-0.1v0.3h0.1C274.5,37.1,274.5,37.1,274.6,37C274.6,37.1,274.6,37,274.6,37z"/>
		</g>
		<g>
			<path fill="#655C52" d="M42.4,10.3c0.1-0.3,0.2-0.5,0.2-0.7c0-0.5-0.5-0.7-1.8-0.8V8.3h4v0.5c-0.5,0.1-0.9,0.2-1.1,0.7L38.8,21
				h-0.4L33.2,9.5C33,9,32.6,8.9,32.1,8.8V8.3h4.5v0.5c-1.3,0-1.8,0.2-1.8,0.8c0,0.2,0.1,0.4,0.2,0.7l3.9,8.6L42.4,10.3z"/>
			<path fill="#655C52" d="M51.7,15.6V16h-6.5c-0.2,2.4,1.2,3.9,3.3,3.9c1.4,0,2.1-0.5,2.8-1.4l0.4,0.1c-0.4,1.2-1.5,2.3-3.5,2.3
				c-2.7,0-4.1-1.9-4.1-4.1c0-2.7,1.6-4.6,4.1-4.6C50.5,12.3,51.7,13.7,51.7,15.6z M45.3,15.3h5c0-1.3-0.9-2.2-2.5-2.2
				C46.6,13.1,45.6,14,45.3,15.3z"/>
			<path fill="#655C52" d="M55,12.4h2.6v0.7H55v5.3c0,1.1,0.5,1.7,1.6,1.7c0.4,0,0.8-0.1,1.2-0.3l0.1,0.3c-0.4,0.4-1,0.8-2,0.8
				c-1.2,0-2.2-0.6-2.2-2.1v-5.7h-1.2v-0.4c0.8-0.6,1.3-1,2.1-2.1H55V12.4z"/>
			<path fill="#655C52" d="M66.3,15.6V16h-6.5c-0.2,2.4,1.2,3.9,3.3,3.9c1.4,0,2.1-0.5,2.8-1.4l0.4,0.1c-0.4,1.2-1.5,2.3-3.5,2.3
				c-2.7,0-4.1-1.9-4.1-4.1c0-2.7,1.6-4.6,4.1-4.6C65.1,12.3,66.3,13.7,66.3,15.6z M59.9,15.3h5c0-1.3-0.9-2.2-2.5-2.2
				C61.2,13.1,60.2,14,59.9,15.3z"/>
			<path fill="#655C52" d="M70,14.6c0.6-1,1.4-2.3,2.6-2.3c0.4,0,0.6,0.1,0.7,0.2v1h-0.5c-1.2,0-1.7,0.4-2.8,1.7v4.1
				c0,0.8,0.4,0.9,1.7,1v0.5h-4.3v-0.5c0.7-0.1,1.4-0.2,1.4-0.9v-5.6l-1.3-0.4v-0.3l2-0.8h0.5L70,14.6z"/>
			<path fill="#655C52" d="M81.1,19c0,0.7,0.3,1.1,0.8,1.1c0.2,0,0.5,0,0.7-0.1l0.2,0.3c-0.5,0.4-0.9,0.7-1.5,0.7
				c-0.8,0-1.3-0.6-1.4-1.6C79.3,20,78.4,21,76.8,21c-1.6,0-2.5-1-2.5-2.2c0-1.5,1.1-1.8,2.3-2.2l3.2-0.9v-0.4
				c0-1.2-0.7-2.3-2.2-2.3c-1,0-1.5,0.4-1.5,1.3c0,0.2,0,0.4,0.1,0.6L75.2,15c-0.2-0.1-0.3-0.5-0.3-0.8c0-1.2,1.4-2,3.1-2
				c1.9,0,3.1,0.9,3.1,2.9V19z M79.9,18.8v-2.4l-3.1,1c-0.6,0.2-1,0.6-1,1.3c0,1,0.6,1.5,1.5,1.5C78.3,20.1,79,19.5,79.9,18.8z"/>
			<path fill="#655C52" d="M91.4,15.1c0-1.3-0.7-1.8-1.9-1.8c-1,0-2.2,0.6-2.9,1.3v4.9c0,0.7,0.6,0.8,1.4,0.9v0.5h-3.9v-0.5
				c0.7-0.1,1.4-0.2,1.4-0.9v-5.6l-1.3-0.4v-0.3l2-0.8h0.5l-0.1,1.6c0.7-0.8,1.9-1.6,3.3-1.6c1.6,0,2.7,0.7,2.7,2.6v4.5
				c0,0.7,0.6,0.8,1.4,0.9v0.5H90v-0.5c0.7-0.1,1.4-0.2,1.4-0.9V15.1z"/>
		</g>
		<g>
			<path fill="#655C52" d="M99.6,14.8c0-4.1,2.9-6.6,6.5-6.6c3.8,0,6.2,2.9,6.2,6.2c0,4.1-2.9,6.6-6.5,6.6C102,21,99.6,18,99.6,14.8
				z M111,15c0-3.2-1.8-5.9-5.4-5.9c-2.9,0-4.6,2.3-4.6,5c0,3.2,1.8,5.9,5.4,5.9C109.3,20,111,17.7,111,15z"/>
			<path fill="#655C52" d="M124.9,14c0.1-0.4,0.2-0.4,0.2-0.6c0-0.4-0.4-0.5-1.2-0.6v-0.5h3.1v0.5c-0.8,0.3-0.9,0.3-1,0.6l-3,7.5
				h-0.2l-2.5-5.8L118,21h-0.2l-3.2-7.5c-0.1-0.4-0.2-0.4-1-0.6v-0.5h3.6v0.5c-0.9,0.1-1.3,0.2-1.3,0.6c0,0.1,0,0.3,0.2,0.6l2,4.9
				l1.8-4.5l-0.3-0.9c-0.1-0.4-0.2-0.4-1-0.6v-0.5h3.6v0.5c-0.9,0.1-1.2,0.2-1.2,0.6c0,0.1,0,0.2,0.1,0.6l2,4.9L124.9,14z"/>
			<path fill="#655C52" d="M135.5,15.1c0-1.3-0.7-1.8-1.9-1.8c-1,0-2.2,0.6-2.9,1.3v4.9c0,0.7,0.6,0.8,1.4,0.9v0.5h-3.9v-0.5
				c0.7-0.1,1.4-0.2,1.4-0.9v-5.6l-1.3-0.4v-0.3l2-0.8h0.5l-0.1,1.6c0.7-0.8,1.9-1.6,3.3-1.6c1.6,0,2.7,0.7,2.7,2.6v4.5
				c0,0.7,0.6,0.8,1.4,0.9v0.5h-3.9v-0.5c0.7-0.1,1.4-0.2,1.4-0.9V15.1z"/>
			<path fill="#655C52" d="M146.4,15.6V16H140c-0.2,2.4,1.2,3.9,3.3,3.9c1.4,0,2.1-0.5,2.8-1.4l0.4,0.1c-0.4,1.2-1.5,2.3-3.5,2.3
				c-2.7,0-4.1-1.9-4.1-4.1c0-2.7,1.6-4.6,4.1-4.6C145.3,12.3,146.4,13.7,146.4,15.6z M140.1,15.3h5c0-1.3-0.9-2.2-2.5-2.2
				C141.3,13.1,140.4,14,140.1,15.3z"/>
			<path fill="#655C52" d="M154.6,21h-0.1l0.1-1.5c-0.8,0.9-1.8,1.5-3,1.5c-2.5,0-3.9-1.9-3.9-3.9c0-2.9,2-4.8,4.4-4.8
				c1.1,0,1.9,0.3,2.4,0.8V9.3L153.3,9V8.7l2-0.9h0.5l-0.1,1.4v9.9c0,0.5,0.2,0.6,1,0.7l0.4,0.1v0.5L154.6,21z M149,16.6
				c0,1.9,1,3.4,3,3.4c1.1,0,2-0.5,2.6-1.2v-3.4c0-1.6-1-2.4-2.6-2.4C150.2,13,149,14.3,149,16.6z"/>
		</g>
		<g>
			<path fill="#655C52" d="M162.7,20.3c1.2,0,2-0.2,2-1.3v-8.8c0-1.1-0.8-1.3-2-1.3V8.3h5.7c2.9,0,4.4,1,4.4,3.1
				c0,1.8-1.4,2.7-3.1,2.9c2.5,0.1,3.7,1.4,3.7,3.1c0,2-1.6,3.4-4.5,3.4h-6.2V20.3z M166,9v5h2.1c2.2,0,3.2-0.8,3.2-2.5
				c0-1.6-0.9-2.5-3.2-2.5H166z M166,14.8v4.2c0,1,0.5,1.2,1.9,1.2h0.9c2.3,0,3.3-0.7,3.3-2.7c0-1.6-1-2.7-3.4-2.7H166z"/>
			<path fill="#655C52" d="M181.7,19.3c-0.7,0.8-1.6,1.6-3,1.6c-1.5,0-2.6-0.7-2.6-2.7v-4.5c0-0.6-0.3-0.7-1.2-0.8l-0.3,0v-0.5
				l2.4-0.2h0.4l-0.1,1.7v4.2c0,1.3,0.8,1.9,1.8,1.9s1.9-0.7,2.7-1.4v-4.9c0-0.6-0.3-0.7-1.2-0.8l-0.3,0v-0.5l2.4-0.2h0.4l-0.1,1.7
				v5.2c0,0.5,0.2,0.6,1,0.7l0.4,0.1v0.5l-2.6,0.6h-0.1L181.7,19.3z"/>
			<path fill="#655C52" d="M185.8,20.1l-0.1-2.2h0.5c0.4,1.5,1.2,2.3,2.6,2.3c1.1,0,2-0.4,2-1.5c0-0.9-0.7-1.3-1.7-1.6l-1.1-0.3
				c-1.3-0.4-2.1-0.9-2.1-2.3c0-1.3,1.1-2.2,2.8-2.2c1.1,0,2,0.3,2.7,0.7V15h-0.5c-0.2-1.4-1-2-2.3-2c-0.9,0-1.6,0.4-1.6,1.4
				c0,0.8,0.5,1.1,1.4,1.4l1.2,0.4c1.5,0.4,2.3,1.1,2.3,2.5c0,1.4-1.2,2.3-3.1,2.3C187.5,21,186.4,20.6,185.8,20.1z"/>
			<path fill="#655C52" d="M195.7,19.4c0,0.7,0.6,0.8,1.4,0.9v0.5h-3.9v-0.5c0.7-0.1,1.4-0.2,1.4-0.9v-5.6l-1.3-0.4v-0.3l2-0.8h0.5
				l-0.1,1.7V19.4z M195,8.8c0.5,0,0.9,0.4,0.9,0.9s-0.4,0.9-0.9,0.9s-0.9-0.4-0.9-0.9S194.4,8.8,195,8.8z"/>
			<path fill="#655C52" d="M205.9,15.1c0-1.3-0.7-1.8-1.9-1.8c-1,0-2.2,0.6-2.9,1.3v4.9c0,0.7,0.6,0.8,1.4,0.9v0.5h-3.9v-0.5
				c0.7-0.1,1.4-0.2,1.4-0.9v-5.6l-1.3-0.4v-0.3l2-0.8h0.5l-0.1,1.6c0.7-0.8,1.9-1.6,3.3-1.6c1.6,0,2.7,0.7,2.7,2.6v4.5
				c0,0.7,0.6,0.8,1.4,0.9v0.5h-3.9v-0.5c0.7-0.1,1.4-0.2,1.4-0.9V15.1z"/>
			<path fill="#655C52" d="M216.8,15.6V16h-6.5c-0.2,2.4,1.2,3.9,3.3,3.9c1.4,0,2.1-0.5,2.8-1.4l0.4,0.1c-0.4,1.2-1.5,2.3-3.5,2.3
				c-2.7,0-4.1-1.9-4.1-4.1c0-2.7,1.6-4.6,4.1-4.6C215.7,12.3,216.8,13.7,216.8,15.6z M210.5,15.3h5c0-1.3-0.9-2.2-2.5-2.2
				C211.7,13.1,210.8,14,210.5,15.3z"/>
			<path fill="#655C52" d="M218.5,20.1l-0.1-2.2h0.5c0.4,1.5,1.2,2.3,2.6,2.3c1.1,0,2-0.4,2-1.5c0-0.9-0.7-1.3-1.7-1.6l-1.1-0.3
				c-1.3-0.4-2.1-0.9-2.1-2.3c0-1.3,1.1-2.2,2.8-2.2c1.1,0,2,0.3,2.7,0.7V15h-0.5c-0.2-1.4-1-2-2.3-2c-0.9,0-1.6,0.4-1.6,1.4
				c0,0.8,0.5,1.1,1.4,1.4l1.2,0.4c1.5,0.4,2.3,1.1,2.3,2.5c0,1.4-1.2,2.3-3.1,2.3C220.1,21,219.1,20.6,218.5,20.1z"/>
			<path fill="#655C52" d="M226.2,20.1l-0.1-2.2h0.5c0.4,1.5,1.2,2.3,2.6,2.3c1.1,0,2-0.4,2-1.5c0-0.9-0.7-1.3-1.7-1.6l-1.1-0.3
				c-1.3-0.4-2.1-0.9-2.1-2.3c0-1.3,1.1-2.2,2.8-2.2c1.1,0,2,0.3,2.7,0.7V15h-0.5c-0.2-1.4-1-2-2.3-2c-0.9,0-1.6,0.4-1.6,1.4
				c0,0.8,0.5,1.1,1.4,1.4l1.2,0.4c1.5,0.4,2.3,1.1,2.3,2.5c0,1.4-1.2,2.3-3.1,2.3C227.9,21,226.9,20.6,226.2,20.1z"/>
		</g>
		<path fill="#655C52" d="M3.9,34.1H1.4l-0.8,2.2H0.1l2.3-6.5h0.5l2.3,6.5H4.7L3.9,34.1z M3.8,33.7l-0.4-1.2
			c-0.3-0.8-0.5-1.4-0.7-2.2h0c-0.2,0.8-0.5,1.5-0.7,2.2l-0.4,1.2H3.8z"/>
		<g>
			<path fill="#655C52" d="M13,36.3l-1.7-3H9.9v3H9.5v-6.5h1.8c1.3,0,2.1,0.5,2.1,1.7c0,1-0.6,1.6-1.7,1.8l1.8,3H13z M11.2,33
				c1.1,0,1.8-0.5,1.8-1.4c0-1-0.6-1.3-1.8-1.3H9.9V33H11.2z"/>
			<path fill="#655C52" d="M15.1,29.8h3.5v0.4h-3.1v2.4h2.6v0.4h-2.6v2.8h3.2v0.4h-3.6V29.8z"/>
			<path fill="#655C52" d="M22.6,29.7c0.9,0,1.4,0.4,1.8,0.8l-0.3,0.3c-0.3-0.4-0.8-0.7-1.5-0.7c-1.5,0-2.4,1.1-2.4,2.9
				c0,1.8,0.9,2.9,2.3,2.9c0.6,0,1.1-0.2,1.4-0.5v-2h-1.5v-0.4h2v2.6c-0.4,0.4-1.1,0.7-1.9,0.7c-1.7,0-2.8-1.3-2.8-3.4
				C19.8,31,20.9,29.7,22.6,29.7z"/>
			<path fill="#655C52" d="M26.3,29.8h0.5v6.5h-0.5V29.8z"/>
			<path fill="#655C52" d="M28.6,35.1c0.5,0.5,1.1,0.9,1.9,0.9c1,0,1.6-0.5,1.6-1.3c0-0.8-0.5-1.1-1.2-1.4l-1-0.4
				c-0.6-0.2-1.3-0.6-1.3-1.6c0-0.9,0.8-1.6,1.9-1.6c0.8,0,1.4,0.4,1.8,0.8L32,30.8c-0.4-0.4-0.9-0.7-1.5-0.7
				c-0.9,0-1.4,0.5-1.4,1.2c0,0.7,0.6,1,1.1,1.2l1,0.4c0.7,0.3,1.4,0.7,1.4,1.7s-0.8,1.7-2.1,1.7c-0.9,0-1.7-0.4-2.2-1L28.6,35.1z"
				/>
			<path fill="#655C52" d="M35.5,30.2h-2.1v-0.4H38v0.4h-2v6.1h-0.5V30.2z"/>
			<path fill="#655C52" d="M39.5,29.8H43v0.4h-3.1v2.4h2.6v0.4h-2.6v2.8h3.2v0.4h-3.6V29.8z"/>
			<path fill="#655C52" d="M48.2,36.3l-1.7-3H45v3h-0.5v-6.5h1.8c1.3,0,2.1,0.5,2.1,1.7c0,1-0.6,1.6-1.7,1.8l1.8,3H48.2z M46.3,33
				c1.1,0,1.8-0.5,1.8-1.4c0-1-0.6-1.3-1.8-1.3H45V33H46.3z"/>
			<path fill="#655C52" d="M50.3,29.8h3.5v0.4h-3.1v2.4h2.6v0.4h-2.6v2.8h3.2v0.4h-3.6V29.8z"/>
			<path fill="#655C52" d="M55.4,29.8h1.5c2,0,2.9,1.3,2.9,3.2c0,2-1,3.3-2.9,3.3h-1.5V29.8z M56.8,35.9c1.8,0,2.5-1.2,2.5-2.9
				c0-1.7-0.8-2.8-2.5-2.8h-1v5.7H56.8z"/>
		</g>
		<g>
			<path fill="#655C52" d="M63.7,29.8h0.5l1.2,3.8c0.2,0.8,0.4,1.4,0.7,2.2h0c0.3-0.8,0.4-1.4,0.7-2.2l1.2-3.8h0.5l-2.1,6.5h-0.5
				L63.7,29.8z"/>
			<path fill="#655C52" d="M69.8,29.8h3.5v0.4h-3.1v2.4h2.6v0.4h-2.6v2.8h3.2v0.4h-3.6V29.8z"/>
			<path fill="#655C52" d="M76.6,30.2h-2.1v-0.4h4.6v0.4h-2v6.1h-0.5V30.2z"/>
			<path fill="#655C52" d="M84.1,36.3l-1.7-3h-1.4v3h-0.5v-6.5h1.8c1.3,0,2.1,0.5,2.1,1.7c0,1-0.6,1.6-1.7,1.8l1.8,3H84.1z M82.2,33
				c1.1,0,1.8-0.5,1.8-1.4c0-1-0.6-1.3-1.8-1.3h-1.3V33H82.2z"/>
			<path fill="#655C52" d="M86.2,29.8h3.5v0.4h-3.1v2.4h2.6v0.4h-2.6v2.8h3.2v0.4h-3.6V29.8z"/>
			<path fill="#655C52" d="M91.3,29.8h1.8c1.4,0,2.3,0.5,2.3,1.8c0,1.3-0.9,1.9-2.3,1.9h-1.3v2.8h-0.5V29.8z M92.9,33.1
				c1.3,0,2-0.4,2-1.5c0-1.1-0.6-1.4-2-1.4h-1.2v2.9H92.9z"/>
			<path fill="#655C52" d="M100.4,36.3l-1.7-3h-1.4v3h-0.5v-6.5h1.8c1.3,0,2.1,0.5,2.1,1.7c0,1-0.6,1.6-1.7,1.8l1.8,3H100.4z
				 M98.6,33c1.1,0,1.8-0.5,1.8-1.4c0-1-0.6-1.3-1.8-1.3h-1.3V33H98.6z"/>
			<path fill="#655C52" d="M102.5,29.8h3.5v0.4H103v2.4h2.6v0.4H103v2.8h3.2v0.4h-3.6V29.8z"/>
			<path fill="#655C52" d="M107.7,29.8h0.5l2.7,4.6l0.7,1.3h0c0-0.6-0.1-1.3-0.1-1.9v-4h0.4v6.5h-0.5l-2.7-4.6l-0.7-1.3h0
				c0,0.6,0.1,1.2,0.1,1.8v4h-0.4V29.8z"/>
			<path fill="#655C52" d="M114,29.8h3.5v0.4h-3.1v2.4h2.6v0.4h-2.6v2.8h3.2v0.4H114V29.8z"/>
			<path fill="#655C52" d="M119.1,29.8h0.5v3.9c0,1.7,0.8,2.2,1.7,2.2c0.9,0,1.8-0.5,1.8-2.2v-3.9h0.4v4c0,2-1.1,2.6-2.2,2.6
				c-1.1,0-2.2-0.6-2.2-2.6V29.8z"/>
			<path fill="#655C52" d="M129.1,36.3l-1.7-3H126v3h-0.5v-6.5h1.8c1.3,0,2.1,0.5,2.1,1.7c0,1-0.6,1.6-1.7,1.8l1.8,3H129.1z
				 M127.2,33c1.1,0,1.8-0.5,1.8-1.4c0-1-0.6-1.3-1.8-1.3H126V33H127.2z"/>
			<path fill="#655C52" d="M131,29.5l0.8-1.2l-1.3-0.5l0.1-0.4l1.3,0.4l0.1-1.4h0.4l0.1,1.4l1.3-0.4l0.1,0.4l-1.3,0.5l0.8,1.2
				l-0.4,0.3l-0.9-1.2l-0.9,1.2L131,29.5z"/>
		</g>
		<g>
			<path fill="#655C52" d="M139,33c0-2,1.1-3.3,2.7-3.3c1.5,0,2.7,1.3,2.7,3.3c0,2-1.1,3.4-2.7,3.4C140.2,36.4,139,35.1,139,33z
				 M143.9,33c0-1.8-0.9-2.9-2.2-2.9c-1.3,0-2.2,1.1-2.2,2.9c0,1.8,0.9,3,2.2,3C143,36,143.9,34.8,143.9,33z"/>
			<path fill="#655C52" d="M146.1,29.8h0.5l2.7,4.6l0.7,1.3h0c0-0.6-0.1-1.3-0.1-1.9v-4h0.4v6.5h-0.5l-2.7-4.6l-0.7-1.3h0
				c0,0.6,0.1,1.2,0.1,1.8v4h-0.4V29.8z"/>
		</g>
		<g>
			<path fill="#655C52" d="M155.6,29.8h1.7c1.3,0,2.1,0.5,2.1,1.6c0,0.7-0.4,1.2-1.1,1.4v0c1,0.1,1.5,0.7,1.5,1.6
				c0,1.2-0.9,1.9-2.4,1.9h-1.9V29.8z M157.2,32.7c1.3,0,1.9-0.4,1.9-1.3c0-0.8-0.6-1.2-1.8-1.2h-1.2v2.5H157.2z M157.4,35.9
				c1.3,0,2.1-0.5,2.1-1.5c0-0.9-0.8-1.4-2.1-1.4h-1.3v2.9H157.4z"/>
			<path fill="#655C52" d="M161.5,29.8h0.5v3.9c0,1.7,0.8,2.2,1.7,2.2c0.9,0,1.8-0.5,1.8-2.2v-3.9h0.4v4c0,2-1.1,2.6-2.2,2.6
				c-1.1,0-2.2-0.6-2.2-2.6V29.8z"/>
			<path fill="#655C52" d="M169,33.7l-1.9-3.8h0.5l1,2c0.2,0.5,0.4,0.9,0.7,1.4h0c0.2-0.5,0.5-0.9,0.7-1.4l1-2h0.5l-1.9,3.8v2.6H169
				V33.7z"/>
			<path fill="#655C52" d="M172.2,29.8h0.5l1.2,3.8c0.2,0.8,0.4,1.4,0.7,2.2h0c0.3-0.8,0.4-1.4,0.7-2.2l1.2-3.8h0.5l-2.1,6.5h-0.5
				L172.2,29.8z"/>
			<path fill="#655C52" d="M178.3,29.8h3.5v0.4h-3.1v2.4h2.6v0.4h-2.6v2.8h3.2v0.4h-3.6V29.8z"/>
			<path fill="#655C52" d="M185.1,30.2H183v-0.4h4.6v0.4h-2v6.1h-0.5V30.2z"/>
			<path fill="#655C52" d="M189,29.8h3.5v0.4h-3.1v2.4h2.6v0.4h-2.6v2.8h3.2v0.4H189V29.8z"/>
			<path fill="#655C52" d="M197.7,36.3l-1.7-3h-1.4v3h-0.5v-6.5h1.8c1.3,0,2.1,0.5,2.1,1.7c0,1-0.6,1.6-1.7,1.8l1.8,3H197.7z
				 M195.9,33c1.1,0,1.8-0.5,1.8-1.4c0-1-0.6-1.3-1.8-1.3h-1.3V33H195.9z"/>
			<path fill="#655C52" d="M203,34.1h-2.6l-0.8,2.2h-0.5l2.3-6.5h0.5l2.3,6.5h-0.5L203,34.1z M202.9,33.7l-0.4-1.2
				c-0.3-0.8-0.5-1.4-0.7-2.2h0c-0.2,0.8-0.5,1.5-0.7,2.2l-0.4,1.2H202.9z"/>
			<path fill="#655C52" d="M205.6,29.8h0.5l2.7,4.6l0.7,1.3h0c0-0.6-0.1-1.3-0.1-1.9v-4h0.4v6.5h-0.5l-2.7-4.6l-0.7-1.3h0
				c0,0.6,0.1,1.2,0.1,1.8v4h-0.4V29.8z"/>
			<path fill="#655C52" d="M212.5,35.2c0.3,0,0.6,0.2,0.6,0.6c0,0.4-0.3,0.6-0.6,0.6c-0.3,0-0.6-0.2-0.6-0.6
				C211.9,35.4,212.2,35.2,212.5,35.2z"/>
			<path fill="#655C52" d="M217.4,29.7c0.8,0,1.3,0.4,1.7,0.8l-0.3,0.3c-0.4-0.4-0.8-0.7-1.4-0.7c-1.4,0-2.3,1.1-2.3,2.9
				c0,1.8,0.9,2.9,2.3,2.9c0.7,0,1.2-0.3,1.6-0.8l0.3,0.3c-0.5,0.6-1.1,0.9-1.9,0.9c-1.6,0-2.7-1.3-2.7-3.4
				C214.6,31,215.7,29.7,217.4,29.7z"/>
			<path fill="#655C52" d="M220.2,33c0-2,1.1-3.3,2.7-3.3c1.5,0,2.7,1.3,2.7,3.3c0,2-1.1,3.4-2.7,3.4
				C221.3,36.4,220.2,35.1,220.2,33z M225,33c0-1.8-0.9-2.9-2.2-2.9c-1.3,0-2.2,1.1-2.2,2.9c0,1.8,0.9,3,2.2,3
				C224.2,36,225,34.8,225,33z"/>
			<path fill="#655C52" d="M227.2,29.8h0.6l1.4,3.8l0.5,1.4h0l0.5-1.4l1.3-3.8h0.6v6.5h-0.4v-4.2c0-0.5,0-1.2,0.1-1.7h0l-0.5,1.4
				l-1.4,3.9h-0.4l-1.4-3.9l-0.5-1.4h0c0,0.5,0,1.2,0,1.7v4.2h-0.4V29.8z"/>
		</g>
	</g>
</g>
<g id="HOME_PAGE">
</g>
<g id="Navigation">
</g>
<g id="The_Fold" display="none">
</g>
<g id="Browser_Mockups">
	<g id="Layer_7">
		<g id="Layer_8">
		</g>
	</g>
</g>
</svg>
