<?xml version="1.0" standalone="no"?><!DOCTYPE svg PUBLIC "-//W3C//DTD SVG 1.1//EN" "http://www.w3.org/Graphics/SVG/1.1/DTD/svg11.dtd" ><svg version="1.1" xmlns="http://www.w3.org/2000/svg"><defs><font horiz-adv-x="0" id="font"><font-face ascent="750" bbox="-161 -307 1487 1051" cap-height="780" descent="-250" font-family="Copernicus" font-stretch="normal" font-style="normal" font-weight="750" units-per-em="1000" x-height="534" /><missing-glyph d="M800 115V665L525 390ZM160 665V115L435 390ZM480 435 759 714H201ZM201 66H759L480 345ZM90 780H870V0H90Z" horiz-adv-x="960" /><glyph d="M261 314H489L370 577ZM526 233H231L206 169Q201 156 197.5 145Q194 134 194 124Q194 111 196.5 102.5Q199 94 207.5 88.5Q216 83 231 80Q246 77 270 76V0H10V76Q33 80 49 87Q65 94 75 117L317 689L276 780H512L815 117Q826 94 841 87Q856 80 880 76V0H490V76Q515 77 530 80Q545 83 553 88.5Q561 94 564 102.5Q567 111 567 124Q567 143 555 169Z" glyph-name="A" horiz-adv-x="890" unicode="A" /><glyph d="M295 329H555L473 689H471ZM574 245H255L214 163Q211 158 206 146Q201 134 201 123Q201 99 218 88.5Q235 78 282 76V0H10V76Q30 77 44.5 90.5Q59 104 82 134L344 648Q338 676 319.5 688Q301 700 252 704V780H1160L1163 562H1068Q1054 596 1041 621Q1028 646 1010.5 662.5Q993 679 969 687.5Q945 696 911 696H708L764 444H884Q921 444 939 461.5Q957 479 966 529H1048V274H966Q957 324 939 342Q921 360 884 360H783L828 159Q833 137 839 122.5Q845 108 854.5 99.5Q864 91 878 87.5Q892 84 913 84H919Q948 84 970.5 92Q993 100 1014.5 118Q1036 136 1058 165Q1080 194 1107 236H1200L1165 0H510V76Q558 78 578.5 88Q599 98 599 124Q599 130 598.5 135.5Q598 141 597 146Z" glyph-name="AE" horiz-adv-x="1233" unicode="&#198;" /><glyph d="M665 1030 450 822H352L450 1030ZM261 314H489L370 577ZM526 233H231L206 169Q201 156 197.5 145Q194 134 194 124Q194 111 196.5 102.5Q199 94 207.5 88.5Q216 83 231 80Q246 77 270 76V0H10V76Q33 80 49 87Q65 94 75 117L317 689L276 780H512L815 117Q826 94 841 87Q856 80 880 76V0H490V76Q515 77 530 80Q545 83 553 88.5Q561 94 564 102.5Q567 111 567 124Q567 143 555 169Z" glyph-name="Aacute" horiz-adv-x="890" unicode="&#193;" /><glyph d="M402 828Q354 828 320 842Q286 856 264.5 882Q243 908 233.5 945.5Q224 983 224 1030H287Q291 1004 302 988Q313 972 328.5 963Q344 954 363 951Q382 948 402 948Q422 948 441 951Q460 954 475.5 963Q491 972 502 988Q513 1004 517 1030H580Q580 983 570.5 945.5Q561 908 539.5 882Q518 856 484 842Q450 828 402 828ZM261 314H489L370 577ZM526 233H231L206 169Q201 156 197.5 145Q194 134 194 124Q194 111 196.5 102.5Q199 94 207.5 88.5Q216 83 231 80Q246 77 270 76V0H10V76Q33 80 49 87Q65 94 75 117L317 689L276 780H512L815 117Q826 94 841 87Q856 80 880 76V0H490V76Q515 77 530 80Q545 83 553 88.5Q561 94 564 102.5Q567 111 567 124Q567 143 555 169Z" glyph-name="Abreve" horiz-adv-x="890" unicode="&#258;" /><glyph d="M622 822H521L402 914L283 822H182L341 1030H463ZM261 314H489L370 577ZM526 233H231L206 169Q201 156 197.5 145Q194 134 194 124Q194 111 196.5 102.5Q199 94 207.5 88.5Q216 83 231 80Q246 77 270 76V0H10V76Q33 80 49 87Q65 94 75 117L317 689L276 780H512L815 117Q826 94 841 87Q856 80 880 76V0H490V76Q515 77 530 80Q545 83 553 88.5Q561 94 564 102.5Q567 111 567 124Q567 143 555 169Z" glyph-name="Acircumflex" horiz-adv-x="890" unicode="&#194;" /><glyph d="M420 930Q420 952 428 971Q436 990 449.5 1004Q463 1018 481 1026.5Q499 1035 519 1035Q540 1035 559 1026.5Q578 1018 591.5 1004Q605 990 613 971Q621 952 621 930Q621 909 613 890.5Q605 872 591.5 858Q578 844 559 836Q540 828 519 828Q499 828 481 836Q463 844 449.5 858Q436 872 428 890.5Q420 909 420 930ZM183 930Q183 952 191 971Q199 990 212.5 1004Q226 1018 244 1026.5Q262 1035 282 1035Q303 1035 321.5 1026.5Q340 1018 354 1004Q368 990 376 971Q384 952 384 930Q384 909 376 890.5Q368 872 354 858Q340 844 321.5 836Q303 828 282 828Q262 828 244 836Q226 844 212.5 858Q199 872 191 890.5Q183 909 183 930ZM261 314H489L370 577ZM526 233H231L206 169Q201 156 197.5 145Q194 134 194 124Q194 111 196.5 102.5Q199 94 207.5 88.5Q216 83 231 80Q246 77 270 76V0H10V76Q33 80 49 87Q65 94 75 117L317 689L276 780H512L815 117Q826 94 841 87Q856 80 880 76V0H490V76Q515 77 530 80Q545 83 553 88.5Q561 94 564 102.5Q567 111 567 124Q567 143 555 169Z" glyph-name="Adieresis" horiz-adv-x="890" unicode="&#196;" /><glyph d="M365 1030 449 822H351L136 1030ZM261 314H489L370 577ZM526 233H231L206 169Q201 156 197.5 145Q194 134 194 124Q194 111 196.5 102.5Q199 94 207.5 88.5Q216 83 231 80Q246 77 270 76V0H10V76Q33 80 49 87Q65 94 75 117L317 689L276 780H512L815 117Q826 94 841 87Q856 80 880 76V0H490V76Q515 77 530 80Q545 83 553 88.5Q561 94 564 102.5Q567 111 567 124Q567 143 555 169Z" glyph-name="Agrave" horiz-adv-x="890" unicode="&#192;" /><glyph d="M246 944H558V842H246ZM261 314H489L370 577ZM526 233H231L206 169Q201 156 197.5 145Q194 134 194 124Q194 111 196.5 102.5Q199 94 207.5 88.5Q216 83 231 80Q246 77 270 76V0H10V76Q33 80 49 87Q65 94 75 117L317 689L276 780H512L815 117Q826 94 841 87Q856 80 880 76V0H490V76Q515 77 530 80Q545 83 553 88.5Q561 94 564 102.5Q567 111 567 124Q567 143 555 169Z" glyph-name="Amacron" horiz-adv-x="890" unicode="&#256;" /><glyph d="M206 169Q201 156 197.5 145Q194 134 194 124Q194 111 196.5 102.5Q199 94 207.5 88.5Q216 83 231 80Q246 77 270 76V0H10V76Q33 80 49 87Q65 94 75 117L317 689L276 780H512L815 117Q826 94 841 87Q856 80 880 76V0H490V76Q515 77 530 80Q545 83 553 88.5Q561 94 564 102.5Q567 111 567 124Q567 143 555 169L370 577Z" glyph-name="Anocross" horiz-adv-x="890" unicode="&#59185;" /><glyph d="M261 314H489L370 577ZM490 0V76Q515 77 530 80Q545 83 553 88.5Q561 94 564 102.5Q567 111 567 124Q567 143 555 169L526 233H231L206 169Q201 156 197.5 145Q194 134 194 124Q194 111 196.5 102.5Q199 94 207.5 88.5Q216 83 231 80Q246 77 270 76V0H10V76Q33 80 49 87Q65 94 75 117L317 689L276 780H512L815 117Q826 94 841 87Q856 80 880 76V0Q845 -16 824.5 -32.5Q804 -49 792.5 -64.5Q781 -80 777.5 -93.5Q774 -107 774 -116Q774 -142 784.5 -156.5Q795 -171 822 -171Q840 -171 854 -164.5Q868 -158 890 -141L902 -189Q884 -212 847 -231Q810 -250 768 -250Q708 -250 674 -221Q640 -192 640 -145Q640 -124 649 -102.5Q658 -81 673.5 -62Q689 -43 711.5 -27Q734 -11 761 0Z" glyph-name="Aogonek" horiz-adv-x="890" unicode="&#260;" /><glyph d="M451 923Q451 943 438.5 957Q426 971 402 971Q377 971 365 957Q353 943 353 923Q353 903 365 889Q377 875 402 875Q426 875 438.5 889Q451 903 451 923ZM278 923Q278 947 287 967.5Q296 988 312.5 1003.5Q329 1019 351.5 1028Q374 1037 402 1037Q430 1037 452.5 1028Q475 1019 491.5 1003.5Q508 988 517 967.5Q526 947 526 923Q526 899 517 878.5Q508 858 491.5 842.5Q475 827 452.5 818Q430 809 402 809Q374 809 351.5 818Q329 827 312.5 842.5Q296 858 287 878.5Q278 899 278 923ZM261 314H489L370 577ZM526 233H231L206 169Q201 156 197.5 145Q194 134 194 124Q194 111 196.5 102.5Q199 94 207.5 88.5Q216 83 231 80Q246 77 270 76V0H10V76Q33 80 49 87Q65 94 75 117L317 689L276 780H512L815 117Q826 94 841 87Q856 80 880 76V0H490V76Q515 77 530 80Q545 83 553 88.5Q561 94 564 102.5Q567 111 567 124Q567 143 555 169Z" glyph-name="Aring" horiz-adv-x="890" unicode="&#197;" /><glyph d="M473 838Q452 838 431.5 846.5Q411 855 391.5 865.5Q372 876 355 885Q338 894 324 894Q303 894 288 879.5Q273 865 259 839L195 850Q211 900 227 934.5Q243 969 262 990Q281 1011 302.5 1020.5Q324 1030 350 1030Q371 1030 391.5 1021Q412 1012 431.5 1001.5Q451 991 468 982.5Q485 974 499 974Q520 974 535 989Q550 1004 564 1030L628 1018Q612 968 596 933.5Q580 899 561 878Q542 857 520.5 847.5Q499 838 473 838ZM261 314H489L370 577ZM526 233H231L206 169Q201 156 197.5 145Q194 134 194 124Q194 111 196.5 102.5Q199 94 207.5 88.5Q216 83 231 80Q246 77 270 76V0H10V76Q33 80 49 87Q65 94 75 117L317 689L276 780H512L815 117Q826 94 841 87Q856 80 880 76V0H490V76Q515 77 530 80Q545 83 553 88.5Q561 94 564 102.5Q567 111 567 124Q567 143 555 169Z" glyph-name="Atilde" horiz-adv-x="890" unicode="&#195;" /><glyph d="M343 696V442H401Q467 442 500 474Q533 506 533 578Q533 643 497.5 669.5Q462 696 400 696ZM343 359V153Q343 108 367 93Q391 78 439 78H463Q517 78 546 113.5Q575 149 575 209Q575 243 568.5 271Q562 299 544.5 318.5Q527 338 497.5 348.5Q468 359 423 359ZM38 76Q66 77 83 80.5Q100 84 109 92.5Q118 101 120.5 115Q123 129 123 150V630Q123 651 120.5 665Q118 679 109 687Q100 695 83 699Q66 703 38 704V780H477Q608 780 680 731.5Q752 683 752 585Q752 543 736.5 510.5Q721 478 694 455.5Q667 433 630.5 420Q594 407 553 403Q609 401 655.5 388.5Q702 376 735.5 352Q769 328 787.5 293Q806 258 806 212Q806 101 730 50.5Q654 0 503 0H38Z" glyph-name="B" horiz-adv-x="831" unicode="B" /><glyph d="M478 81Q549 81 594.5 130.5Q640 180 671 282H780L762 66Q710 30 632.5 10Q555 -10 463 -10Q358 -10 278 18.5Q198 47 144.5 98.5Q91 150 63.5 220.5Q36 291 36 375Q36 471 69 547.5Q102 624 160 678Q218 732 295.5 761Q373 790 462 790Q549 790 622.5 768.5Q696 747 744 706L754 524H644Q633 564 616.5 597.5Q600 631 577 655Q554 679 524 692.5Q494 706 457 706Q405 706 370 680.5Q335 655 313.5 613Q292 571 282.5 517Q273 463 273 406Q273 333 285.5 273Q298 213 323 170.5Q348 128 386.5 104.5Q425 81 478 81Z" glyph-name="C" horiz-adv-x="814" unicode="C" /><glyph d="M715 1030 500 822H402L500 1030ZM478 81Q549 81 594.5 130.5Q640 180 671 282H780L762 66Q710 30 632.5 10Q555 -10 463 -10Q358 -10 278 18.5Q198 47 144.5 98.5Q91 150 63.5 220.5Q36 291 36 375Q36 471 69 547.5Q102 624 160 678Q218 732 295.5 761Q373 790 462 790Q549 790 622.5 768.5Q696 747 744 706L754 524H644Q633 564 616.5 597.5Q600 631 577 655Q554 679 524 692.5Q494 706 457 706Q405 706 370 680.5Q335 655 313.5 613Q292 571 282.5 517Q273 463 273 406Q273 333 285.5 273Q298 213 323 170.5Q348 128 386.5 104.5Q425 81 478 81Z" glyph-name="Cacute" horiz-adv-x="814" unicode="&#262;" /><glyph d="M232 1030H333L452 938L571 1030H672L513 822H391ZM478 81Q549 81 594.5 130.5Q640 180 671 282H780L762 66Q710 30 632.5 10Q555 -10 463 -10Q358 -10 278 18.5Q198 47 144.5 98.5Q91 150 63.5 220.5Q36 291 36 375Q36 471 69 547.5Q102 624 160 678Q218 732 295.5 761Q373 790 462 790Q549 790 622.5 768.5Q696 747 744 706L754 524H644Q633 564 616.5 597.5Q600 631 577 655Q554 679 524 692.5Q494 706 457 706Q405 706 370 680.5Q335 655 313.5 613Q292 571 282.5 517Q273 463 273 406Q273 333 285.5 273Q298 213 323 170.5Q348 128 386.5 104.5Q425 81 478 81Z" glyph-name="Ccaron" horiz-adv-x="814" unicode="&#268;" /><glyph d="M478 81Q549 81 594.5 130.5Q640 180 671 282H780L762 66Q710 30 632.5 10Q555 -10 463 -10L455 -46Q518 -48 550.5 -75Q583 -102 583 -150Q583 -176 572.5 -195Q562 -214 545 -226Q528 -238 507 -244Q486 -250 464 -250Q432 -250 408.5 -241Q385 -232 373 -222L390 -178Q403 -186 420 -192.5Q437 -199 454 -199Q470 -199 479 -195Q488 -191 488 -179Q488 -157 456.5 -150Q425 -143 380 -141L405 -7Q314 0 245 31.5Q176 63 129.5 113.5Q83 164 59.5 230.5Q36 297 36 375Q36 471 69 547.5Q102 624 160 678Q218 732 295.5 761Q373 790 462 790Q549 790 622.5 768.5Q696 747 744 706L754 524H644Q633 564 616.5 597.5Q600 631 577 655Q554 679 524 692.5Q494 706 457 706Q405 706 370 680.5Q335 655 313.5 613Q292 571 282.5 517Q273 463 273 406Q273 333 285.5 273Q298 213 323 170.5Q348 128 386.5 104.5Q425 81 478 81Z" glyph-name="Ccedilla" horiz-adv-x="814" unicode="&#199;" /><glyph d="M672 822H571L452 914L333 822H232L391 1030H513ZM478 81Q549 81 594.5 130.5Q640 180 671 282H780L762 66Q710 30 632.5 10Q555 -10 463 -10Q358 -10 278 18.5Q198 47 144.5 98.5Q91 150 63.5 220.5Q36 291 36 375Q36 471 69 547.5Q102 624 160 678Q218 732 295.5 761Q373 790 462 790Q549 790 622.5 768.5Q696 747 744 706L754 524H644Q633 564 616.5 597.5Q600 631 577 655Q554 679 524 692.5Q494 706 457 706Q405 706 370 680.5Q335 655 313.5 613Q292 571 282.5 517Q273 463 273 406Q273 333 285.5 273Q298 213 323 170.5Q348 128 386.5 104.5Q425 81 478 81Z" glyph-name="Ccircumflex" horiz-adv-x="814" unicode="&#264;" /><glyph d="M478 81Q549 81 594.5 130.5Q640 180 671 282H780L762 66Q710 30 632.5 10Q555 -10 463 -10Q358 -10 278 18.5Q198 47 144.5 98.5Q91 150 63.5 220.5Q36 291 36 375Q36 471 69 547.5Q102 624 160 678Q218 732 295.5 761Q373 790 462 790Q549 790 622.5 768.5Q696 747 744 706L754 524H644Q633 564 616.5 597.5Q600 631 577 655Q554 679 524 692.5Q494 706 457 706Q405 706 370 680.5Q335 655 313.5 613Q292 571 282.5 517Q273 463 273 406Q273 333 285.5 273Q298 213 323 170.5Q348 128 386.5 104.5Q425 81 478 81ZM336 939Q336 987 365.5 1019Q395 1051 451 1051Q508 1051 538 1019Q568 987 568 939Q568 892 538 860.5Q508 829 451 829Q395 829 365.5 860.5Q336 892 336 939Z" glyph-name="Cdotaccent" horiz-adv-x="814" unicode="&#266;" /><glyph d="M440 780Q561 780 647.5 751.5Q734 723 789.5 673.5Q845 624 871 556.5Q897 489 897 412Q897 308 866.5 230.5Q836 153 779 102Q722 51 641 25.5Q560 0 458 0H38V76Q66 77 83 80.5Q100 84 109 92.5Q118 101 120.5 115Q123 129 123 150V630Q123 651 120.5 665Q118 679 109 687Q100 695 83 699Q66 703 38 704V780ZM343 696V162Q343 138 348 122.5Q353 107 364 98.5Q375 90 392 87Q409 84 433 84H449Q494 84 533 98.5Q572 113 600 148Q628 183 644 243Q660 303 660 393Q660 543 589.5 619.5Q519 696 390 696Z" glyph-name="D" horiz-adv-x="933" unicode="D" /><glyph d="M440 780Q561 780 647.5 751.5Q734 723 789.5 673.5Q845 624 871 556.5Q897 489 897 412Q897 308 866.5 230.5Q836 153 779 102Q722 51 641 25.5Q560 0 458 0H38V76Q66 77 83 80.5Q100 84 109 92.5Q118 101 120.5 115Q123 129 123 150V630Q123 651 120.5 665Q118 679 109 687Q100 695 83 699Q66 703 38 704V780ZM343 696V162Q343 138 348 122.5Q353 107 364 98.5Q375 90 392 87Q409 84 433 84H449Q494 84 533 98.5Q572 113 600 148Q628 183 644 243Q660 303 660 393Q660 543 589.5 619.5Q519 696 390 696ZM218 1030H319L438 938L557 1030H658L499 822H377Z" glyph-name="Dcaron" horiz-adv-x="933" unicode="&#270;" /><glyph d="M343 696V437H493V366H343V162Q343 138 348 122.5Q353 107 364 98.5Q375 90 392 87Q409 84 433 84H449Q494 84 533 98.5Q572 113 600 148Q628 183 644 243Q660 303 660 393Q660 543 589.5 619.5Q519 696 390 696ZM38 437H123V630Q123 651 120.5 665Q118 679 109 687Q100 695 83 699Q66 703 38 704V780H440Q561 780 647.5 751.5Q734 723 789.5 673.5Q845 624 871 556.5Q897 489 897 412Q897 308 866.5 230.5Q836 153 779 102Q722 51 641 25.5Q560 0 458 0H38V76Q66 77 83 80.5Q100 84 109 92.5Q118 101 120.5 115Q123 129 123 150V366H38Z" glyph-name="Dcroat" horiz-adv-x="933" unicode="&#272;" /><glyph d="M354 461 184 87H535ZM55 37 408 780H452L805 37V0H55Z" glyph-name="Delta" horiz-adv-x="860" unicode="&#8710;" /><glyph d="M515 274Q506 324 488 342Q470 360 433 360H343V159Q343 114 366.5 99Q390 84 433 84H468Q497 84 519.5 92Q542 100 563.5 118Q585 136 607 165Q629 194 656 236H749L714 0H38V76Q66 77 83 80.5Q100 84 109 92.5Q118 101 120.5 115Q123 129 123 150V630Q123 651 120.5 665Q118 679 109 687Q100 695 83 699Q66 703 38 704V780H709L712 562H616Q603 596 589.5 621Q576 646 558.5 662.5Q541 679 517 687.5Q493 696 459 696H343V444H433Q470 444 488 461.5Q506 479 515 529H596V274Z" glyph-name="E" horiz-adv-x="782" unicode="E" /><glyph d="M515 274Q506 324 488 342Q470 360 433 360H343V159Q343 114 366.5 99Q390 84 433 84H468Q497 84 519.5 92Q542 100 563.5 118Q585 136 607 165Q629 194 656 236H749L714 0H38V76Q66 77 83 80.5Q100 84 109 92.5Q118 101 120.5 115Q123 129 123 150V630Q123 651 120.5 665Q118 679 109 687Q100 695 83 699Q66 703 38 704V780H709L712 562H616Q603 596 589.5 621Q576 646 558.5 662.5Q541 679 517 687.5Q493 696 459 696H343V444H433Q470 444 488 461.5Q506 479 515 529H596V274ZM676 1030 461 822H363L461 1030Z" glyph-name="Eacute" horiz-adv-x="782" unicode="&#201;" /><glyph d="M515 274Q506 324 488 342Q470 360 433 360H343V159Q343 114 366.5 99Q390 84 433 84H468Q497 84 519.5 92Q542 100 563.5 118Q585 136 607 165Q629 194 656 236H749L714 0H38V76Q66 77 83 80.5Q100 84 109 92.5Q118 101 120.5 115Q123 129 123 150V630Q123 651 120.5 665Q118 679 109 687Q100 695 83 699Q66 703 38 704V780H709L712 562H616Q603 596 589.5 621Q576 646 558.5 662.5Q541 679 517 687.5Q493 696 459 696H343V444H433Q470 444 488 461.5Q506 479 515 529H596V274ZM396 828Q348 828 314 842Q280 856 258.5 882Q237 908 227.5 945.5Q218 983 218 1030H281Q285 1004 296 988Q307 972 322.5 963Q338 954 357 951Q376 948 396 948Q416 948 435 951Q454 954 469.5 963Q485 972 496 988Q507 1004 511 1030H574Q574 983 564.5 945.5Q555 908 533.5 882Q512 856 478 842Q444 828 396 828Z" glyph-name="Ebreve" horiz-adv-x="782" unicode="&#276;" /><glyph d="M515 274Q506 324 488 342Q470 360 433 360H343V159Q343 114 366.5 99Q390 84 433 84H468Q497 84 519.5 92Q542 100 563.5 118Q585 136 607 165Q629 194 656 236H749L714 0H38V76Q66 77 83 80.5Q100 84 109 92.5Q118 101 120.5 115Q123 129 123 150V630Q123 651 120.5 665Q118 679 109 687Q100 695 83 699Q66 703 38 704V780H709L712 562H616Q603 596 589.5 621Q576 646 558.5 662.5Q541 679 517 687.5Q493 696 459 696H343V444H433Q470 444 488 461.5Q506 479 515 529H596V274ZM189 1030H290L409 938L528 1030H629L470 822H348Z" glyph-name="Ecaron" horiz-adv-x="782" unicode="&#282;" /><glyph d="M633 822H532L413 914L294 822H193L352 1030H474ZM515 274Q506 324 488 342Q470 360 433 360H343V159Q343 114 366.5 99Q390 84 433 84H468Q497 84 519.5 92Q542 100 563.5 118Q585 136 607 165Q629 194 656 236H749L714 0H38V76Q66 77 83 80.5Q100 84 109 92.5Q118 101 120.5 115Q123 129 123 150V630Q123 651 120.5 665Q118 679 109 687Q100 695 83 699Q66 703 38 704V780H709L712 562H616Q603 596 589.5 621Q576 646 558.5 662.5Q541 679 517 687.5Q493 696 459 696H343V444H433Q470 444 488 461.5Q506 479 515 529H596V274Z" glyph-name="Ecircumflex" horiz-adv-x="782" unicode="&#202;" /><glyph d="M515 274Q506 324 488 342Q470 360 433 360H343V159Q343 114 366.5 99Q390 84 433 84H468Q497 84 519.5 92Q542 100 563.5 118Q585 136 607 165Q629 194 656 236H749L714 0H38V76Q66 77 83 80.5Q100 84 109 92.5Q118 101 120.5 115Q123 129 123 150V630Q123 651 120.5 665Q118 679 109 687Q100 695 83 699Q66 703 38 704V780H709L712 562H616Q603 596 589.5 621Q576 646 558.5 662.5Q541 679 517 687.5Q493 696 459 696H343V444H433Q470 444 488 461.5Q506 479 515 529H596V274ZM406 930Q406 952 414 971Q422 990 435.5 1004Q449 1018 467 1026.5Q485 1035 505 1035Q526 1035 545 1026.5Q564 1018 577.5 1004Q591 990 599 971Q607 952 607 930Q607 909 599 890.5Q591 872 577.5 858Q564 844 545 836Q526 828 505 828Q485 828 467 836Q449 844 435.5 858Q422 872 414 890.5Q406 909 406 930ZM169 930Q169 952 177 971Q185 990 198.5 1004Q212 1018 230 1026.5Q248 1035 268 1035Q289 1035 307.5 1026.5Q326 1018 340 1004Q354 990 362 971Q370 952 370 930Q370 909 362 890.5Q354 872 340 858Q326 844 307.5 836Q289 828 268 828Q248 828 230 836Q212 844 198.5 858Q185 872 177 890.5Q169 909 169 930Z" glyph-name="Edieresis" horiz-adv-x="782" unicode="&#203;" /><glyph d="M515 274Q506 324 488 342Q470 360 433 360H343V159Q343 114 366.5 99Q390 84 433 84H468Q497 84 519.5 92Q542 100 563.5 118Q585 136 607 165Q629 194 656 236H749L714 0H38V76Q66 77 83 80.5Q100 84 109 92.5Q118 101 120.5 115Q123 129 123 150V630Q123 651 120.5 665Q118 679 109 687Q100 695 83 699Q66 703 38 704V780H709L712 562H616Q603 596 589.5 621Q576 646 558.5 662.5Q541 679 517 687.5Q493 696 459 696H343V444H433Q470 444 488 461.5Q506 479 515 529H596V274ZM284 939Q284 987 313.5 1019Q343 1051 399 1051Q456 1051 486 1019Q516 987 516 939Q516 892 486 860.5Q456 829 399 829Q343 829 313.5 860.5Q284 892 284 939Z" glyph-name="Edotaccent" horiz-adv-x="782" unicode="&#278;" /><glyph d="M515 274Q506 324 488 342Q470 360 433 360H343V159Q343 114 366.5 99Q390 84 433 84H468Q497 84 519.5 92Q542 100 563.5 118Q585 136 607 165Q629 194 656 236H749L714 0H38V76Q66 77 83 80.5Q100 84 109 92.5Q118 101 120.5 115Q123 129 123 150V630Q123 651 120.5 665Q118 679 109 687Q100 695 83 699Q66 703 38 704V780H709L712 562H616Q603 596 589.5 621Q576 646 558.5 662.5Q541 679 517 687.5Q493 696 459 696H343V444H433Q470 444 488 461.5Q506 479 515 529H596V274ZM356 1030 440 822H342L127 1030Z" glyph-name="Egrave" horiz-adv-x="782" unicode="&#200;" /><glyph d="M515 274Q506 324 488 342Q470 360 433 360H343V159Q343 114 366.5 99Q390 84 433 84H468Q497 84 519.5 92Q542 100 563.5 118Q585 136 607 165Q629 194 656 236H749L714 0H38V76Q66 77 83 80.5Q100 84 109 92.5Q118 101 120.5 115Q123 129 123 150V630Q123 651 120.5 665Q118 679 109 687Q100 695 83 699Q66 703 38 704V780H709L712 562H616Q603 596 589.5 621Q576 646 558.5 662.5Q541 679 517 687.5Q493 696 459 696H343V444H433Q470 444 488 461.5Q506 479 515 529H596V274ZM230 944H542V842H230Z" glyph-name="Emacron" horiz-adv-x="782" unicode="&#274;" /><glyph d="M231 557V150Q231 129 236 115Q241 101 252 92.5Q263 84 282 80.5Q301 77 329 76V0H38V76Q66 77 83 80.5Q100 84 109 92.5Q118 101 120.5 115Q123 129 123 150V639Q101 666 84 684Q67 702 38 704V780H337L700 377V630Q700 651 695 665Q690 679 679 687Q668 695 649 699Q630 703 602 704V780H893V704Q865 703 848 699Q831 695 822 687Q813 679 810.5 665Q808 651 808 630V-11Q808 -137 746 -193.5Q684 -250 566 -250Q453 -250 391 -210.5Q329 -171 329 -98Q329 -61 344.5 -38Q360 -15 381 -1H526V-46Q526 -82 531.5 -106.5Q537 -131 547.5 -145Q558 -159 573 -165Q588 -171 608 -171Q660 -171 680 -127Q700 -83 700 -5V38Z" glyph-name="Eng" horiz-adv-x="921" unicode="&#330;" /><glyph d="M38 0V76Q66 77 83 80.5Q100 84 109 92.5Q118 101 120.5 115Q123 129 123 150V630Q123 651 120.5 665Q118 679 109 687Q100 695 83 699Q66 703 38 704V780H709L712 562H616Q603 596 589.5 621Q576 646 558.5 662.5Q541 679 517 687.5Q493 696 459 696H343V444H433Q470 444 488 461.5Q506 479 515 529H596V274H515Q506 324 488 342Q470 360 433 360H343V159Q343 114 366.5 99Q390 84 433 84H468Q497 84 519.5 92Q542 100 563.5 118Q585 136 607 165Q629 194 656 236H749L714 0Q679 -16 658 -32.5Q637 -49 625.5 -64.5Q614 -80 610.5 -93.5Q607 -107 607 -116Q607 -142 617.5 -156.5Q628 -171 655 -171Q673 -171 687 -164.5Q701 -158 723 -141L736 -189Q717 -212 680 -231Q643 -250 601 -250Q541 -250 507.5 -221Q474 -192 474 -145Q474 -103 507 -62Q540 -21 594 0Z" glyph-name="Eogonek" horiz-adv-x="782" unicode="&#280;" /><glyph d="M724 -10Q636 -10 570.5 7Q505 24 468 48L453 251H556Q579 156 621 113Q663 70 730 70Q760 70 780.5 78Q801 86 813.5 98Q826 110 831.5 125Q837 140 837 154Q837 200 810 223Q783 246 728 257L628 277Q575 288 537.5 309.5Q500 331 472 366V423L629 669Q614 671 597.5 672Q581 673 563 673Q498 673 454 658Q410 643 383 616.5Q356 590 344.5 553.5Q333 517 333 475V150Q333 129 335.5 115Q338 101 347 92.5Q356 84 372.5 80.5Q389 77 417 76V0H28V76Q56 77 73 80.5Q90 84 99 92.5Q108 101 110.5 115Q113 129 113 150V493Q113 633 223.5 711.5Q334 790 557 790Q668 790 745 766.5Q822 743 866 703V645L740 452H744L783 445Q826 437 869.5 425.5Q913 414 947.5 390Q982 366 1003.5 325Q1025 284 1025 217Q1025 155 1003 112Q981 69 941 42Q901 15 846 2.5Q791 -10 724 -10Z" glyph-name="Eszett" horiz-adv-x="1051" unicode="&#7838;" /><glyph d="M343 696V437H493V366H343V162Q343 138 348 122.5Q353 107 364 98.5Q375 90 392 87Q409 84 433 84H449Q494 84 533 98.5Q572 113 600 148Q628 183 644 243Q660 303 660 393Q660 543 589.5 619.5Q519 696 390 696ZM38 437H123V630Q123 651 120.5 665Q118 679 109 687Q100 695 83 699Q66 703 38 704V780H440Q561 780 647.5 751.5Q734 723 789.5 673.5Q845 624 871 556.5Q897 489 897 412Q897 308 866.5 230.5Q836 153 779 102Q722 51 641 25.5Q560 0 458 0H38V76Q66 77 83 80.5Q100 84 109 92.5Q118 101 120.5 115Q123 129 123 150V366H38Z" glyph-name="Eth" horiz-adv-x="933" unicode="&#208;" /><glyph d="M28 479H130Q145 550 179 607.5Q213 665 262 705.5Q311 746 373 768Q435 790 505 790Q576 790 632.5 773Q689 756 731 714L734 533H627Q618 573 607.5 605Q597 637 582 659.5Q567 682 545 694Q523 706 492 706Q458 706 433.5 688Q409 670 392.5 639.5Q376 609 367 567.5Q358 526 354 479H568L560 413H351V406Q351 389 351 373.5Q351 358 352 342H554L546 275H359Q365 233 376.5 197Q388 161 405 135.5Q422 110 445.5 95.5Q469 81 500 81Q555 81 594 123.5Q633 166 658 268H761L748 51Q726 35 696 23.5Q666 12 632.5 4.5Q599 -3 563.5 -6.5Q528 -10 495 -10Q422 -10 360.5 9.5Q299 29 252 65.5Q205 102 173.5 155Q142 208 129 275H28V342H121Q120 350 120 358.5Q120 367 120 375Q120 385 120 394Q120 403 121 413H28Z" glyph-name="Euro" horiz-adv-x="795" unicode="&#8364;" /><glyph d="M28 479H130Q145 550 179 607.5Q213 665 262 705.5Q311 746 373 768Q435 790 505 790Q576 790 632.5 773Q689 756 731 714L734 533H627Q618 573 607.5 605Q597 637 582 659.5Q567 682 545 694Q523 706 492 706Q458 706 433.5 688Q409 670 392.5 639.5Q376 609 367 567.5Q358 526 354 479H568L560 413H351V406Q351 389 351 373.5Q351 358 352 342H554L546 275H359Q365 233 376.5 197Q388 161 405 135.5Q422 110 445.5 95.5Q469 81 500 81Q555 81 594 123.5Q633 166 658 268H761L748 51Q726 35 696 23.5Q666 12 632.5 4.5Q599 -3 563.5 -6.5Q528 -10 495 -10Q422 -10 360.5 9.5Q299 29 252 65.5Q205 102 173.5 155Q142 208 129 275H28V342H121Q120 350 120 358.5Q120 367 120 375Q120 385 120 394Q120 403 121 413H28Z" glyph-name="Euro.LP" horiz-adv-x="795" unicode="&#58657;" /><glyph d="M26 414H119Q134 470 163 515.5Q192 561 234 593Q276 625 329.5 642.5Q383 660 447 660Q505 660 558 651Q611 642 662 608L670 438H570Q559 476 548 502Q537 528 522.5 544.5Q508 561 489.5 568.5Q471 576 447 576Q398 576 370 532.5Q342 489 334 414H518L496 355H330V342Q330 328 330 315Q330 302 331 290H475L453 231H339Q353 158 385.5 116Q418 74 469 74Q515 74 544.5 114Q574 154 589 231H693L676 39Q622 10 563.5 0Q505 -10 445 -10Q368 -10 310 7Q252 24 210.5 55.5Q169 87 144 131.5Q119 176 110 231H26V290H105V300Q105 328 108 355H26Z" glyph-name="Euro.OP" horiz-adv-x="716" unicode="&#59805;" /><glyph d="M38 0V76Q66 77 83 80.5Q100 84 109 92.5Q118 101 120.5 115Q123 129 123 150V630Q123 651 120.5 665Q118 679 109 687Q100 695 83 699Q66 703 38 704V780H695L698 562H602Q589 596 575.5 621Q562 646 544.5 662.5Q527 679 503 687.5Q479 696 445 696H343V437H413Q450 437 468 454.5Q486 472 495 522H576V267H495Q486 317 468 335Q450 353 413 353H343V150Q343 129 349.5 115Q356 101 371 93Q386 85 410.5 81Q435 77 471 76V0Z" glyph-name="F" horiz-adv-x="723" unicode="F" /><glyph d="M36 375Q36 471 69 547.5Q102 624 160 678Q218 732 295.5 761Q373 790 462 790Q549 790 622.5 768.5Q696 747 744 706L754 524H644Q633 564 616.5 597.5Q600 631 577 655Q554 679 524 692.5Q494 706 457 706Q405 706 370 680.5Q335 655 313.5 613Q292 571 282.5 517Q273 463 273 406Q273 333 285.5 273Q298 213 323.5 170.5Q349 128 388 104.5Q427 81 480 81Q499 81 513.5 82Q528 83 546 87V223Q546 244 543.5 258Q541 272 532 280Q523 288 506 292Q489 296 461 297V374H850V297Q822 296 805.5 292Q789 288 780 280Q771 272 768.5 258Q766 244 766 223V70Q711 32 629 11Q547 -10 456 -10Q354 -10 275.5 18.5Q197 47 143.5 98.5Q90 150 63 220.5Q36 291 36 375Z" glyph-name="G" horiz-adv-x="879" unicode="G" /><glyph d="M36 375Q36 471 69 547.5Q102 624 160 678Q218 732 295.5 761Q373 790 462 790Q549 790 622.5 768.5Q696 747 744 706L754 524H644Q633 564 616.5 597.5Q600 631 577 655Q554 679 524 692.5Q494 706 457 706Q405 706 370 680.5Q335 655 313.5 613Q292 571 282.5 517Q273 463 273 406Q273 333 285.5 273Q298 213 323.5 170.5Q349 128 388 104.5Q427 81 480 81Q499 81 513.5 82Q528 83 546 87V223Q546 244 543.5 258Q541 272 532 280Q523 288 506 292Q489 296 461 297V374H850V297Q822 296 805.5 292Q789 288 780 280Q771 272 768.5 258Q766 244 766 223V70Q711 32 629 11Q547 -10 456 -10Q354 -10 275.5 18.5Q197 47 143.5 98.5Q90 150 63 220.5Q36 291 36 375ZM449 828Q401 828 367 842Q333 856 311.5 882Q290 908 280.5 945.5Q271 983 271 1030H334Q338 1004 349 988Q360 972 375.5 963Q391 954 410 951Q429 948 449 948Q469 948 488 951Q507 954 522.5 963Q538 972 549 988Q560 1004 564 1030H627Q627 983 617.5 945.5Q608 908 586.5 882Q565 856 531 842Q497 828 449 828Z" glyph-name="Gbreve" horiz-adv-x="879" unicode="&#286;" /><glyph d="M669 822H568L449 914L330 822H229L388 1030H510ZM36 375Q36 471 69 547.5Q102 624 160 678Q218 732 295.5 761Q373 790 462 790Q549 790 622.5 768.5Q696 747 744 706L754 524H644Q633 564 616.5 597.5Q600 631 577 655Q554 679 524 692.5Q494 706 457 706Q405 706 370 680.5Q335 655 313.5 613Q292 571 282.5 517Q273 463 273 406Q273 333 285.5 273Q298 213 323.5 170.5Q349 128 388 104.5Q427 81 480 81Q499 81 513.5 82Q528 83 546 87V223Q546 244 543.5 258Q541 272 532 280Q523 288 506 292Q489 296 461 297V374H850V297Q822 296 805.5 292Q789 288 780 280Q771 272 768.5 258Q766 244 766 223V70Q711 32 629 11Q547 -10 456 -10Q354 -10 275.5 18.5Q197 47 143.5 98.5Q90 150 63 220.5Q36 291 36 375Z" glyph-name="Gcircumflex" horiz-adv-x="879" unicode="&#284;" /><glyph d="M36 375Q36 471 69 547.5Q102 624 160 678Q218 732 295.5 761Q373 790 462 790Q549 790 622.5 768.5Q696 747 744 706L754 524H644Q633 564 616.5 597.5Q600 631 577 655Q554 679 524 692.5Q494 706 457 706Q405 706 370 680.5Q335 655 313.5 613Q292 571 282.5 517Q273 463 273 406Q273 333 285.5 273Q298 213 323.5 170.5Q349 128 388 104.5Q427 81 480 81Q499 81 513.5 82Q528 83 546 87V223Q546 244 543.5 258Q541 272 532 280Q523 288 506 292Q489 296 461 297V374H850V297Q822 296 805.5 292Q789 288 780 280Q771 272 768.5 258Q766 244 766 223V70Q711 32 629 11Q547 -10 456 -10Q354 -10 275.5 18.5Q197 47 143.5 98.5Q90 150 63 220.5Q36 291 36 375ZM417 -156Q388 -149 374 -135Q360 -121 360 -94Q360 -66 380 -48Q400 -30 439 -30Q483 -30 509.5 -56.5Q536 -83 536 -129Q536 -155 527.5 -176.5Q519 -198 500 -214Q481 -230 450.5 -239.5Q420 -249 376 -250V-204Q422 -200 442.5 -188.5Q463 -177 463 -156Z" glyph-name="Gcommaaccent" horiz-adv-x="879" unicode="&#290;" /><glyph d="M36 375Q36 471 69 547.5Q102 624 160 678Q218 732 295.5 761Q373 790 462 790Q549 790 622.5 768.5Q696 747 744 706L754 524H644Q633 564 616.5 597.5Q600 631 577 655Q554 679 524 692.5Q494 706 457 706Q405 706 370 680.5Q335 655 313.5 613Q292 571 282.5 517Q273 463 273 406Q273 333 285.5 273Q298 213 323.5 170.5Q349 128 388 104.5Q427 81 480 81Q499 81 513.5 82Q528 83 546 87V223Q546 244 543.5 258Q541 272 532 280Q523 288 506 292Q489 296 461 297V374H850V297Q822 296 805.5 292Q789 288 780 280Q771 272 768.5 258Q766 244 766 223V70Q711 32 629 11Q547 -10 456 -10Q354 -10 275.5 18.5Q197 47 143.5 98.5Q90 150 63 220.5Q36 291 36 375ZM333 939Q333 987 362.5 1019Q392 1051 448 1051Q505 1051 535 1019Q565 987 565 939Q565 892 535 860.5Q505 829 448 829Q392 829 362.5 860.5Q333 892 333 939Z" glyph-name="Gdotaccent" horiz-adv-x="879" unicode="&#288;" /><glyph d="M647 360H343V150Q343 129 345.5 115Q348 101 357 92.5Q366 84 382.5 80.5Q399 77 427 76V0H38V76Q66 77 83 80.5Q100 84 109 92.5Q118 101 120.5 115Q123 129 123 150V630Q123 651 120.5 665Q118 679 109 687Q100 695 83 699Q66 703 38 704V780H427V704Q399 703 382.5 699Q366 695 357 687Q348 679 345.5 665Q343 651 343 630V444H647V630Q647 651 644.5 665Q642 679 633 687Q624 695 607.5 699Q591 703 563 704V780H952V704Q924 703 907 699Q890 695 881 687Q872 679 869.5 665Q867 651 867 630V150Q867 129 869.5 115Q872 101 881 92.5Q890 84 907 80.5Q924 77 952 76V0H563V76Q591 77 607.5 80.5Q624 84 633 92.5Q642 101 644.5 115Q647 129 647 150Z" glyph-name="H" horiz-adv-x="990" unicode="H" /><glyph d="M647 444V524H343V444ZM942 524H867V150Q867 129 869.5 115Q872 101 881 92.5Q890 84 907 80.5Q924 77 952 76V0H563V76Q591 77 607.5 80.5Q624 84 633 92.5Q642 101 644.5 115Q647 129 647 150V360H343V150Q343 129 345.5 115Q348 101 357 92.5Q366 84 382.5 80.5Q399 77 427 76V0H38V76Q66 77 83 80.5Q100 84 109 92.5Q118 101 120.5 115Q123 129 123 150V524H48V602H123V630Q123 651 120.5 665Q118 679 109 687Q100 695 83 699Q66 703 38 704V780H427V704Q399 703 382.5 699Q366 695 357 687Q348 679 345.5 665Q343 651 343 630V602H647V630Q647 651 644.5 665Q642 679 633 687Q624 695 607.5 699Q591 703 563 704V780H952V704Q924 703 907 699Q890 695 881 687Q872 679 869.5 665Q867 651 867 630V602H942Z" glyph-name="Hbar" horiz-adv-x="990" unicode="&#294;" /><glyph d="M715 822H614L495 914L376 822H275L434 1030H556ZM647 360H343V150Q343 129 345.5 115Q348 101 357 92.5Q366 84 382.5 80.5Q399 77 427 76V0H38V76Q66 77 83 80.5Q100 84 109 92.5Q118 101 120.5 115Q123 129 123 150V630Q123 651 120.5 665Q118 679 109 687Q100 695 83 699Q66 703 38 704V780H427V704Q399 703 382.5 699Q366 695 357 687Q348 679 345.5 665Q343 651 343 630V444H647V630Q647 651 644.5 665Q642 679 633 687Q624 695 607.5 699Q591 703 563 704V780H952V704Q924 703 907 699Q890 695 881 687Q872 679 869.5 665Q867 651 867 630V150Q867 129 869.5 115Q872 101 881 92.5Q890 84 907 80.5Q924 77 952 76V0H563V76Q591 77 607.5 80.5Q624 84 633 92.5Q642 101 644.5 115Q647 129 647 150Z" glyph-name="Hcircumflex" horiz-adv-x="990" unicode="&#292;" /><glyph d="M123 630Q123 651 120.5 665Q118 679 109 687Q100 695 83 699Q66 703 38 704V780H427V704Q399 703 382.5 699Q366 695 357 687Q348 679 345.5 665Q343 651 343 630V150Q343 129 345.5 115Q348 101 357 92.5Q366 84 382.5 80.5Q399 77 427 76V0H38V76Q66 77 83 80.5Q100 84 109 92.5Q118 101 120.5 115Q123 129 123 150Z" glyph-name="I" horiz-adv-x="465" unicode="I" /><glyph d="M1037 238Q1037 120 955 55Q873 -10 722 -10Q588 -10 515.5 31.5Q443 73 443 157Q443 197 461 221Q479 245 505 262H654V205Q654 176 657.5 151.5Q661 127 669.5 109Q678 91 693.5 80.5Q709 70 733 70Q782 70 799.5 111.5Q817 153 817 221V630Q817 651 814.5 665Q812 679 803 687Q794 695 777.5 699Q761 703 733 704V780H1122V704Q1094 703 1077 699Q1060 695 1051 687Q1042 679 1039.5 665Q1037 651 1037 630ZM123 630Q123 651 120.5 665Q118 679 109 687Q100 695 83 699Q66 703 38 704V780H427V704Q399 703 382.5 699Q366 695 357 687Q348 679 345.5 665Q343 651 343 630V150Q343 129 345.5 115Q348 101 357 92.5Q366 84 382.5 80.5Q399 77 427 76V0H38V76Q66 77 83 80.5Q100 84 109 92.5Q118 101 120.5 115Q123 129 123 150Z" glyph-name="IJ" horiz-adv-x="1148" unicode="&#306;" /><glyph d="M495 1030 280 822H182L280 1030ZM123 630Q123 651 120.5 665Q118 679 109 687Q100 695 83 699Q66 703 38 704V780H427V704Q399 703 382.5 699Q366 695 357 687Q348 679 345.5 665Q343 651 343 630V150Q343 129 345.5 115Q348 101 357 92.5Q366 84 382.5 80.5Q399 77 427 76V0H38V76Q66 77 83 80.5Q100 84 109 92.5Q118 101 120.5 115Q123 129 123 150Z" glyph-name="Iacute" horiz-adv-x="465" unicode="&#205;" /><glyph d="M232 828Q184 828 150 842Q116 856 94.5 882Q73 908 63.5 945.5Q54 983 54 1030H117Q121 1004 132 988Q143 972 158.5 963Q174 954 193 951Q212 948 232 948Q252 948 271 951Q290 954 305.5 963Q321 972 332 988Q343 1004 347 1030H410Q410 983 400.5 945.5Q391 908 369.5 882Q348 856 314 842Q280 828 232 828ZM123 630Q123 651 120.5 665Q118 679 109 687Q100 695 83 699Q66 703 38 704V780H427V704Q399 703 382.5 699Q366 695 357 687Q348 679 345.5 665Q343 651 343 630V150Q343 129 345.5 115Q348 101 357 92.5Q366 84 382.5 80.5Q399 77 427 76V0H38V76Q66 77 83 80.5Q100 84 109 92.5Q118 101 120.5 115Q123 129 123 150Z" glyph-name="Ibreve" horiz-adv-x="465" unicode="&#300;" /><glyph d="M452 822H351L232 914L113 822H12L171 1030H293ZM123 630Q123 651 120.5 665Q118 679 109 687Q100 695 83 699Q66 703 38 704V780H427V704Q399 703 382.5 699Q366 695 357 687Q348 679 345.5 665Q343 651 343 630V150Q343 129 345.5 115Q348 101 357 92.5Q366 84 382.5 80.5Q399 77 427 76V0H38V76Q66 77 83 80.5Q100 84 109 92.5Q118 101 120.5 115Q123 129 123 150Z" glyph-name="Icircumflex" horiz-adv-x="465" unicode="&#206;" /><glyph d="M250 930Q250 952 258 971Q266 990 279.5 1004Q293 1018 311 1026.5Q329 1035 349 1035Q370 1035 389 1026.5Q408 1018 421.5 1004Q435 990 443 971Q451 952 451 930Q451 909 443 890.5Q435 872 421.5 858Q408 844 389 836Q370 828 349 828Q329 828 311 836Q293 844 279.5 858Q266 872 258 890.5Q250 909 250 930ZM13 930Q13 952 21 971Q29 990 42.5 1004Q56 1018 74 1026.5Q92 1035 112 1035Q133 1035 151.5 1026.5Q170 1018 184 1004Q198 990 206 971Q214 952 214 930Q214 909 206 890.5Q198 872 184 858Q170 844 151.5 836Q133 828 112 828Q92 828 74 836Q56 844 42.5 858Q29 872 21 890.5Q13 909 13 930ZM123 630Q123 651 120.5 665Q118 679 109 687Q100 695 83 699Q66 703 38 704V780H427V704Q399 703 382.5 699Q366 695 357 687Q348 679 345.5 665Q343 651 343 630V150Q343 129 345.5 115Q348 101 357 92.5Q366 84 382.5 80.5Q399 77 427 76V0H38V76Q66 77 83 80.5Q100 84 109 92.5Q118 101 120.5 115Q123 129 123 150Z" glyph-name="Idieresis" horiz-adv-x="465" unicode="&#207;" /><glyph d="M116 939Q116 987 145.5 1019Q175 1051 231 1051Q288 1051 318 1019Q348 987 348 939Q348 892 318 860.5Q288 829 231 829Q175 829 145.5 860.5Q116 892 116 939ZM123 630Q123 651 120.5 665Q118 679 109 687Q100 695 83 699Q66 703 38 704V780H427V704Q399 703 382.5 699Q366 695 357 687Q348 679 345.5 665Q343 651 343 630V150Q343 129 345.5 115Q348 101 357 92.5Q366 84 382.5 80.5Q399 77 427 76V0H38V76Q66 77 83 80.5Q100 84 109 92.5Q118 101 120.5 115Q123 129 123 150Z" glyph-name="Idotaccent" horiz-adv-x="465" unicode="&#304;" /><glyph d="M196 1030 280 822H182L-33 1030ZM123 630Q123 651 120.5 665Q118 679 109 687Q100 695 83 699Q66 703 38 704V780H427V704Q399 703 382.5 699Q366 695 357 687Q348 679 345.5 665Q343 651 343 630V150Q343 129 345.5 115Q348 101 357 92.5Q366 84 382.5 80.5Q399 77 427 76V0H38V76Q66 77 83 80.5Q100 84 109 92.5Q118 101 120.5 115Q123 129 123 150Z" glyph-name="Igrave" horiz-adv-x="465" unicode="&#204;" /><glyph d="M76 944H388V842H76ZM123 630Q123 651 120.5 665Q118 679 109 687Q100 695 83 699Q66 703 38 704V780H427V704Q399 703 382.5 699Q366 695 357 687Q348 679 345.5 665Q343 651 343 630V150Q343 129 345.5 115Q348 101 357 92.5Q366 84 382.5 80.5Q399 77 427 76V0H38V76Q66 77 83 80.5Q100 84 109 92.5Q118 101 120.5 115Q123 129 123 150Z" glyph-name="Imacron" horiz-adv-x="465" unicode="&#298;" /><glyph d="M38 0V76Q66 77 83 80.5Q100 84 109 92.5Q118 101 120.5 115Q123 129 123 150V630Q123 651 120.5 665Q118 679 109 687Q100 695 83 699Q66 703 38 704V780H427V704Q399 703 382.5 699Q366 695 357 687Q348 679 345.5 665Q343 651 343 630V150Q343 129 345.5 115Q348 101 357 92.5Q366 84 382.5 80.5Q399 77 427 76V0Q392 -16 371.5 -32.5Q351 -49 339.5 -64.5Q328 -80 324.5 -93.5Q321 -107 321 -116Q321 -142 331.5 -156.5Q342 -171 369 -171Q387 -171 401 -164.5Q415 -158 437 -141L449 -189Q431 -212 394 -231Q357 -250 315 -250Q255 -250 221 -221Q187 -192 187 -145Q187 -124 196 -102.5Q205 -81 220.5 -62Q236 -43 258.5 -27Q281 -11 308 0Z" glyph-name="Iogonek" horiz-adv-x="465" unicode="&#302;" /><glyph d="M294 838Q273 838 252.5 846.5Q232 855 212.5 865.5Q193 876 176 885Q159 894 145 894Q124 894 109 879.5Q94 865 80 839L16 850Q32 900 48 934.5Q64 969 83 990Q102 1011 123.5 1020.5Q145 1030 171 1030Q192 1030 212.5 1021Q233 1012 252.5 1001.5Q272 991 289 982.5Q306 974 320 974Q341 974 356 989Q371 1004 385 1030L449 1018Q433 968 417 933.5Q401 899 382 878Q363 857 341.5 847.5Q320 838 294 838ZM123 630Q123 651 120.5 665Q118 679 109 687Q100 695 83 699Q66 703 38 704V780H427V704Q399 703 382.5 699Q366 695 357 687Q348 679 345.5 665Q343 651 343 630V150Q343 129 345.5 115Q348 101 357 92.5Q366 84 382.5 80.5Q399 77 427 76V0H38V76Q66 77 83 80.5Q100 84 109 92.5Q118 101 120.5 115Q123 129 123 150Z" glyph-name="Itilde" horiz-adv-x="465" unicode="&#296;" /><glyph d="M607 238Q607 120 525 55Q443 -10 292 -10Q158 -10 85.5 31.5Q13 73 13 157Q13 197 31 221Q49 245 75 262H224V205Q224 176 227.5 151.5Q231 127 239.5 109Q248 91 263.5 80.5Q279 70 303 70Q352 70 369.5 111.5Q387 153 387 221V630Q387 651 384.5 665Q382 679 373 687Q364 695 347.5 699Q331 703 303 704V780H692V704Q664 703 647 699Q630 695 621 687Q612 679 609.5 665Q607 651 607 630Z" glyph-name="J" horiz-adv-x="718" unicode="J" /><glyph d="M715 822H614L495 914L376 822H275L434 1030H556ZM607 238Q607 120 525 55Q443 -10 292 -10Q158 -10 85.5 31.5Q13 73 13 157Q13 197 31 221Q49 245 75 262H224V205Q224 176 227.5 151.5Q231 127 239.5 109Q248 91 263.5 80.5Q279 70 303 70Q352 70 369.5 111.5Q387 153 387 221V630Q387 651 384.5 665Q382 679 373 687Q364 695 347.5 699Q331 703 303 704V780H692V704Q664 703 647 699Q630 695 621 687Q612 679 609.5 665Q607 651 607 630Z" glyph-name="Jcircumflex" horiz-adv-x="718" unicode="&#308;" /><glyph d="M123 630Q123 651 120.5 665Q118 679 109 687Q100 695 83 699Q66 703 38 704V780H427V704Q399 703 382.5 699Q366 695 357 687Q348 679 345.5 665Q343 651 343 630V150Q343 129 345.5 115Q348 101 357 92.5Q366 84 382.5 80.5Q399 77 427 76V0H38V76Q66 77 83 80.5Q100 84 109 92.5Q118 101 120.5 115Q123 129 123 150ZM821 138Q835 120 845 109Q855 98 865 91.5Q875 85 886.5 81.5Q898 78 916 76V0H674Q646 17 621.5 44.5Q597 72 571 107L348 397L588 619Q605 634 612.5 645Q620 656 620 670Q620 684 607.5 693Q595 702 554 704V780H863V704Q829 702 810.5 694.5Q792 687 770 666L556 467Z" glyph-name="K" horiz-adv-x="926" unicode="K" /><glyph d="M123 630Q123 651 120.5 665Q118 679 109 687Q100 695 83 699Q66 703 38 704V780H427V704Q399 703 382.5 699Q366 695 357 687Q348 679 345.5 665Q343 651 343 630V150Q343 129 345.5 115Q348 101 357 92.5Q366 84 382.5 80.5Q399 77 427 76V0H38V76Q66 77 83 80.5Q100 84 109 92.5Q118 101 120.5 115Q123 129 123 150ZM821 138Q835 120 845 109Q855 98 865 91.5Q875 85 886.5 81.5Q898 78 916 76V0H674Q646 17 621.5 44.5Q597 72 571 107L348 397L588 619Q605 634 612.5 645Q620 656 620 670Q620 684 607.5 693Q595 702 554 704V780H863V704Q829 702 810.5 694.5Q792 687 770 666L556 467ZM446 -156Q417 -149 403 -135Q389 -121 389 -94Q389 -66 409 -48Q429 -30 468 -30Q512 -30 538.5 -56.5Q565 -83 565 -129Q565 -155 556.5 -176.5Q548 -198 529 -214Q510 -230 479.5 -239.5Q449 -249 405 -250V-204Q451 -200 471.5 -188.5Q492 -177 492 -156Z" glyph-name="Kcommaaccent" horiz-adv-x="926" unicode="&#310;" /><glyph d="M343 159Q343 114 366.5 99Q390 84 433 84H470Q499 84 519 90.5Q539 97 559 117.5Q579 138 603 175Q627 212 663 274H763L720 0H38V76Q66 77 83 80.5Q100 84 109 92.5Q118 101 120.5 115Q123 129 123 150V630Q123 651 120.5 665Q118 679 109 687Q100 695 83 699Q66 703 38 704V780H427V704Q399 703 382.5 699Q366 695 357 687Q348 679 345.5 665Q343 651 343 630Z" glyph-name="L" horiz-adv-x="765" unicode="L" /><glyph d="M343 159Q343 114 366.5 99Q390 84 433 84H470Q499 84 519 90.5Q539 97 559 117.5Q579 138 603 175Q627 212 663 274H763L720 0H38V76Q66 77 83 80.5Q100 84 109 92.5Q118 101 120.5 115Q123 129 123 150V630Q123 651 120.5 665Q118 679 109 687Q100 695 83 699Q66 703 38 704V780H427V704Q399 703 382.5 699Q366 695 357 687Q348 679 345.5 665Q343 651 343 630ZM508 1030 293 822H195L293 1030Z" glyph-name="Lacute" horiz-adv-x="765" unicode="&#313;" /><glyph d="M343 159Q343 114 366.5 99Q390 84 433 84H470Q499 84 519 90.5Q539 97 559 117.5Q579 138 603 175Q627 212 663 274H763L720 0H38V76Q66 77 83 80.5Q100 84 109 92.5Q118 101 120.5 115Q123 129 123 150V630Q123 651 120.5 665Q118 679 109 687Q100 695 83 699Q66 703 38 704V780H427V704Q399 703 382.5 699Q366 695 357 687Q348 679 345.5 665Q343 651 343 630ZM692 780 591 572H495L502 780Z" glyph-name="Lcaron" horiz-adv-x="765" unicode="&#317;" /><glyph d="M343 159Q343 114 366.5 99Q390 84 433 84H470Q499 84 519 90.5Q539 97 559 117.5Q579 138 603 175Q627 212 663 274H763L720 0H38V76Q66 77 83 80.5Q100 84 109 92.5Q118 101 120.5 115Q123 129 123 150V630Q123 651 120.5 665Q118 679 109 687Q100 695 83 699Q66 703 38 704V780H427V704Q399 703 382.5 699Q366 695 357 687Q348 679 345.5 665Q343 651 343 630ZM369 -156Q340 -149 326 -135Q312 -121 312 -94Q312 -66 332 -48Q352 -30 391 -30Q435 -30 461.5 -56.5Q488 -83 488 -129Q488 -155 479.5 -176.5Q471 -198 452 -214Q433 -230 402.5 -239.5Q372 -249 328 -250V-204Q374 -200 394.5 -188.5Q415 -177 415 -156Z" glyph-name="Lcommaaccent" horiz-adv-x="765" unicode="&#315;" /><glyph d="M519 434Q519 455 527 473.5Q535 492 548 506Q561 520 578.5 528Q596 536 616 536Q637 536 655 528Q673 520 686.5 506Q700 492 708 473.5Q716 455 716 434Q716 414 708 396Q700 378 686.5 364.5Q673 351 655 343Q637 335 616 335Q596 335 578.5 343Q561 351 548 364.5Q535 378 527 396Q519 414 519 434ZM343 159Q343 114 366.5 99Q390 84 433 84H470Q499 84 519 90.5Q539 97 559 117.5Q579 138 603 175Q627 212 663 274H763L720 0H38V76Q66 77 83 80.5Q100 84 109 92.5Q118 101 120.5 115Q123 129 123 150V630Q123 651 120.5 665Q118 679 109 687Q100 695 83 699Q66 703 38 704V780H427V704Q399 703 382.5 699Q366 695 357 687Q348 679 345.5 665Q343 651 343 630Z" glyph-name="Ldot" horiz-adv-x="765" unicode="&#319;" /><glyph d="M38 358 123 389V630Q123 651 120.5 665Q118 679 109 687Q100 695 83 699Q66 703 38 704V780H427V704Q399 703 382.5 699Q366 695 357 687Q348 679 345.5 665Q343 651 343 630V471L531 545V462L343 389V159Q343 114 366.5 99Q390 84 433 84H470Q499 84 519 90.5Q539 97 559 117.5Q579 138 603 175Q627 212 663 274H763L720 0H38V76Q66 77 83 80.5Q100 84 109 92.5Q118 101 120.5 115Q123 129 123 150V306L38 275Z" glyph-name="Lslash" horiz-adv-x="765" unicode="&#321;" /><glyph d="M761 552 565 0H467L266 550L212 174Q211 168 210.5 159Q210 150 210 147Q210 127 215.5 114Q221 101 234 93Q247 85 267.5 81Q288 77 318 76V0H10V76Q58 78 78.5 91.5Q99 105 105 143L176 623Q176 667 156.5 684.5Q137 702 81 704V780H409Q411 761 415.5 746Q420 731 428 708L575 308L710 708Q718 731 722.5 746Q727 761 729 780H1065V704Q1009 702 989.5 684.5Q970 667 970 623L1041 143Q1044 123 1050 110.5Q1056 98 1067.5 90.5Q1079 83 1095.5 80Q1112 77 1136 76V0H714V76Q744 77 764.5 81Q785 85 798 93Q811 101 816.5 114Q822 127 822 147Q822 150 821.5 159Q821 168 820 174Z" glyph-name="M" horiz-adv-x="1146" unicode="M" /><glyph d="M123 639Q101 666 83.5 683Q66 700 38 704V780H334L700 370V630Q700 651 695 665Q690 679 679 687Q668 695 649 699Q630 703 602 704V780H893V704Q865 703 848 699Q831 695 822 687Q813 679 810.5 665Q808 651 808 630V0H723L231 557V150Q231 129 236 115Q241 101 252 92.5Q263 84 282 80.5Q301 77 329 76V0H38V76Q66 77 83 80.5Q100 84 109 92.5Q118 101 120.5 115Q123 129 123 150Z" glyph-name="N" horiz-adv-x="921" unicode="N" /><glyph d="M123 639Q101 666 83.5 683Q66 700 38 704V780H334L700 370V630Q700 651 695 665Q690 679 679 687Q668 695 649 699Q630 703 602 704V780H893V704Q865 703 848 699Q831 695 822 687Q813 679 810.5 665Q808 651 808 630V0H723L231 557V150Q231 129 236 115Q241 101 252 92.5Q263 84 282 80.5Q301 77 329 76V0H38V76Q66 77 83 80.5Q100 84 109 92.5Q118 101 120.5 115Q123 129 123 150ZM734 1030 519 822H421L519 1030Z" glyph-name="Nacute" horiz-adv-x="921" unicode="&#323;" /><glyph d="M123 639Q101 666 83.5 683Q66 700 38 704V780H334L700 370V630Q700 651 695 665Q690 679 679 687Q668 695 649 699Q630 703 602 704V780H893V704Q865 703 848 699Q831 695 822 687Q813 679 810.5 665Q808 651 808 630V0H723L231 557V150Q231 129 236 115Q241 101 252 92.5Q263 84 282 80.5Q301 77 329 76V0H38V76Q66 77 83 80.5Q100 84 109 92.5Q118 101 120.5 115Q123 129 123 150ZM251 1030H352L471 938L590 1030H691L532 822H410Z" glyph-name="Ncaron" horiz-adv-x="921" unicode="&#327;" /><glyph d="M123 639Q101 666 83.5 683Q66 700 38 704V780H334L700 370V630Q700 651 695 665Q690 679 679 687Q668 695 649 699Q630 703 602 704V780H893V704Q865 703 848 699Q831 695 822 687Q813 679 810.5 665Q808 651 808 630V0H723L231 557V150Q231 129 236 115Q241 101 252 92.5Q263 84 282 80.5Q301 77 329 76V0H38V76Q66 77 83 80.5Q100 84 109 92.5Q118 101 120.5 115Q123 129 123 150ZM439 -156Q410 -149 396 -135Q382 -121 382 -94Q382 -66 402 -48Q422 -30 461 -30Q505 -30 531.5 -56.5Q558 -83 558 -129Q558 -155 549.5 -176.5Q541 -198 522 -214Q503 -230 472.5 -239.5Q442 -249 398 -250V-204Q444 -200 464.5 -188.5Q485 -177 485 -156Z" glyph-name="Ncommaaccent" horiz-adv-x="921" unicode="&#325;" /><glyph d="M123 639Q101 666 83.5 683Q66 700 38 704V780H334L700 370V630Q700 651 695 665Q690 679 679 687Q668 695 649 699Q630 703 602 704V780H893V704Q865 703 848 699Q831 695 822 687Q813 679 810.5 665Q808 651 808 630V0H723L231 557V150Q231 129 236 115Q241 101 252 92.5Q263 84 282 80.5Q301 77 329 76V0H38V76Q66 77 83 80.5Q100 84 109 92.5Q118 101 120.5 115Q123 129 123 150ZM533 838Q512 838 491.5 846.5Q471 855 451.5 865.5Q432 876 415 885Q398 894 384 894Q363 894 348 879.5Q333 865 319 839L255 850Q271 900 287 934.5Q303 969 322 990Q341 1011 362.5 1020.5Q384 1030 410 1030Q431 1030 451.5 1021Q472 1012 491.5 1001.5Q511 991 528 982.5Q545 974 559 974Q580 974 595 989Q610 1004 624 1030L688 1018Q672 968 656 933.5Q640 899 621 878Q602 857 580.5 847.5Q559 838 533 838Z" glyph-name="Ntilde" horiz-adv-x="921" unicode="&#209;" /><glyph d="M429 -10Q334 -10 261 21Q188 52 138 104.5Q88 157 62 227Q36 297 36 375Q36 471 67.5 547.5Q99 624 155 678Q211 732 286.5 761Q362 790 451 790Q545 790 618.5 759Q692 728 742 675.5Q792 623 818 553Q844 483 844 405Q844 309 812.5 232.5Q781 156 725 102Q669 48 593 19Q517 -10 429 -10ZM453 76Q492 76 521 99Q550 122 569 162.5Q588 203 597.5 256.5Q607 310 607 372Q607 449 594.5 510.5Q582 572 558.5 615Q535 658 502 681Q469 704 427 704Q388 704 359 681Q330 658 311 617.5Q292 577 282.5 523Q273 469 273 408Q273 331 285.5 269.5Q298 208 321.5 165Q345 122 378 99Q411 76 453 76Z" glyph-name="O" horiz-adv-x="880" unicode="O" /><glyph d="M453 76Q492 76 521 99Q550 122 569 162.5Q588 203 597.5 256.5Q607 310 607 372Q607 449 594.5 510.5Q582 572 558.5 615Q535 658 502 681Q469 704 427 704Q388 704 359 681Q330 658 311 617.5Q292 577 282.5 523Q273 469 273 408Q273 331 285.5 269.5Q298 208 321.5 165Q345 122 378 99Q411 76 453 76ZM426 -10Q331 -10 258.5 21.5Q186 53 136.5 106.5Q87 160 61.5 229.5Q36 299 36 375Q36 471 67 547.5Q98 624 153.5 678Q209 732 284 761Q359 790 448 790Q474 790 497.5 787.5Q521 785 544 780H1175L1178 562H1083Q1069 596 1056 621Q1043 646 1025.5 662.5Q1008 679 984 687.5Q960 696 926 696H713Q767 646 798 581.5Q829 517 836 444H876Q913 444 931 461.5Q949 479 958 529H1039V274H958Q949 324 931 342Q913 360 876 360H836Q828 271 793 201.5Q758 132 699 84H934Q963 84 986 92Q1009 100 1030.5 118Q1052 136 1074 165Q1096 194 1123 236H1215L1180 0H525Q501 -5 476.5 -7.5Q452 -10 426 -10Z" glyph-name="OE" horiz-adv-x="1249" unicode="&#338;" /><glyph d="M429 -10Q334 -10 261 21Q188 52 138 104.5Q88 157 62 227Q36 297 36 375Q36 471 67.5 547.5Q99 624 155 678Q211 732 286.5 761Q362 790 451 790Q545 790 618.5 759Q692 728 742 675.5Q792 623 818 553Q844 483 844 405Q844 309 812.5 232.5Q781 156 725 102Q669 48 593 19Q517 -10 429 -10ZM453 76Q492 76 521 99Q550 122 569 162.5Q588 203 597.5 256.5Q607 310 607 372Q607 449 594.5 510.5Q582 572 558.5 615Q535 658 502 681Q469 704 427 704Q388 704 359 681Q330 658 311 617.5Q292 577 282.5 523Q273 469 273 408Q273 331 285.5 269.5Q298 208 321.5 165Q345 122 378 99Q411 76 453 76ZM700 1030 485 822H387L485 1030Z" glyph-name="Oacute" horiz-adv-x="880" unicode="&#211;" /><glyph d="M429 -10Q334 -10 261 21Q188 52 138 104.5Q88 157 62 227Q36 297 36 375Q36 471 67.5 547.5Q99 624 155 678Q211 732 286.5 761Q362 790 451 790Q545 790 618.5 759Q692 728 742 675.5Q792 623 818 553Q844 483 844 405Q844 309 812.5 232.5Q781 156 725 102Q669 48 593 19Q517 -10 429 -10ZM453 76Q492 76 521 99Q550 122 569 162.5Q588 203 597.5 256.5Q607 310 607 372Q607 449 594.5 510.5Q582 572 558.5 615Q535 658 502 681Q469 704 427 704Q388 704 359 681Q330 658 311 617.5Q292 577 282.5 523Q273 469 273 408Q273 331 285.5 269.5Q298 208 321.5 165Q345 122 378 99Q411 76 453 76ZM437 828Q389 828 355 842Q321 856 299.5 882Q278 908 268.5 945.5Q259 983 259 1030H322Q326 1004 337 988Q348 972 363.5 963Q379 954 398 951Q417 948 437 948Q457 948 476 951Q495 954 510.5 963Q526 972 537 988Q548 1004 552 1030H615Q615 983 605.5 945.5Q596 908 574.5 882Q553 856 519 842Q485 828 437 828Z" glyph-name="Obreve" horiz-adv-x="880" unicode="&#334;" /><glyph d="M657 822H556L437 914L318 822H217L376 1030H498ZM429 -10Q334 -10 261 21Q188 52 138 104.5Q88 157 62 227Q36 297 36 375Q36 471 67.5 547.5Q99 624 155 678Q211 732 286.5 761Q362 790 451 790Q545 790 618.5 759Q692 728 742 675.5Q792 623 818 553Q844 483 844 405Q844 309 812.5 232.5Q781 156 725 102Q669 48 593 19Q517 -10 429 -10ZM453 76Q492 76 521 99Q550 122 569 162.5Q588 203 597.5 256.5Q607 310 607 372Q607 449 594.5 510.5Q582 572 558.5 615Q535 658 502 681Q469 704 427 704Q388 704 359 681Q330 658 311 617.5Q292 577 282.5 523Q273 469 273 408Q273 331 285.5 269.5Q298 208 321.5 165Q345 122 378 99Q411 76 453 76Z" glyph-name="Ocircumflex" horiz-adv-x="880" unicode="&#212;" /><glyph d="M429 -10Q334 -10 261 21Q188 52 138 104.5Q88 157 62 227Q36 297 36 375Q36 471 67.5 547.5Q99 624 155 678Q211 732 286.5 761Q362 790 451 790Q545 790 618.5 759Q692 728 742 675.5Q792 623 818 553Q844 483 844 405Q844 309 812.5 232.5Q781 156 725 102Q669 48 593 19Q517 -10 429 -10ZM453 76Q492 76 521 99Q550 122 569 162.5Q588 203 597.5 256.5Q607 310 607 372Q607 449 594.5 510.5Q582 572 558.5 615Q535 658 502 681Q469 704 427 704Q388 704 359 681Q330 658 311 617.5Q292 577 282.5 523Q273 469 273 408Q273 331 285.5 269.5Q298 208 321.5 165Q345 122 378 99Q411 76 453 76ZM455 930Q455 952 463 971Q471 990 484.5 1004Q498 1018 516 1026.5Q534 1035 554 1035Q575 1035 594 1026.5Q613 1018 626.5 1004Q640 990 648 971Q656 952 656 930Q656 909 648 890.5Q640 872 626.5 858Q613 844 594 836Q575 828 554 828Q534 828 516 836Q498 844 484.5 858Q471 872 463 890.5Q455 909 455 930ZM218 930Q218 952 226 971Q234 990 247.5 1004Q261 1018 279 1026.5Q297 1035 317 1035Q338 1035 356.5 1026.5Q375 1018 389 1004Q403 990 411 971Q419 952 419 930Q419 909 411 890.5Q403 872 389 858Q375 844 356.5 836Q338 828 317 828Q297 828 279 836Q261 844 247.5 858Q234 872 226 890.5Q218 909 218 930Z" glyph-name="Odieresis" horiz-adv-x="880" unicode="&#214;" /><glyph d="M429 -10Q334 -10 261 21Q188 52 138 104.5Q88 157 62 227Q36 297 36 375Q36 471 67.5 547.5Q99 624 155 678Q211 732 286.5 761Q362 790 451 790Q545 790 618.5 759Q692 728 742 675.5Q792 623 818 553Q844 483 844 405Q844 309 812.5 232.5Q781 156 725 102Q669 48 593 19Q517 -10 429 -10ZM453 76Q492 76 521 99Q550 122 569 162.5Q588 203 597.5 256.5Q607 310 607 372Q607 449 594.5 510.5Q582 572 558.5 615Q535 658 502 681Q469 704 427 704Q388 704 359 681Q330 658 311 617.5Q292 577 282.5 523Q273 469 273 408Q273 331 285.5 269.5Q298 208 321.5 165Q345 122 378 99Q411 76 453 76ZM400 1030 484 822H386L171 1030Z" glyph-name="Ograve" horiz-adv-x="880" unicode="&#210;" /><glyph d="M700 1030 567 822H478L545 1030ZM500 1030 367 822H278L345 1030ZM429 -10Q334 -10 261 21Q188 52 138 104.5Q88 157 62 227Q36 297 36 375Q36 471 67.5 547.5Q99 624 155 678Q211 732 286.5 761Q362 790 451 790Q545 790 618.5 759Q692 728 742 675.5Q792 623 818 553Q844 483 844 405Q844 309 812.5 232.5Q781 156 725 102Q669 48 593 19Q517 -10 429 -10ZM453 76Q492 76 521 99Q550 122 569 162.5Q588 203 597.5 256.5Q607 310 607 372Q607 449 594.5 510.5Q582 572 558.5 615Q535 658 502 681Q469 704 427 704Q388 704 359 681Q330 658 311 617.5Q292 577 282.5 523Q273 469 273 408Q273 331 285.5 269.5Q298 208 321.5 165Q345 122 378 99Q411 76 453 76Z" glyph-name="Ohungarumlaut" horiz-adv-x="880" unicode="&#336;" /><glyph d="M429 -10Q334 -10 261 21Q188 52 138 104.5Q88 157 62 227Q36 297 36 375Q36 471 67.5 547.5Q99 624 155 678Q211 732 286.5 761Q362 790 451 790Q545 790 618.5 759Q692 728 742 675.5Q792 623 818 553Q844 483 844 405Q844 309 812.5 232.5Q781 156 725 102Q669 48 593 19Q517 -10 429 -10ZM453 76Q492 76 521 99Q550 122 569 162.5Q588 203 597.5 256.5Q607 310 607 372Q607 449 594.5 510.5Q582 572 558.5 615Q535 658 502 681Q469 704 427 704Q388 704 359 681Q330 658 311 617.5Q292 577 282.5 523Q273 469 273 408Q273 331 285.5 269.5Q298 208 321.5 165Q345 122 378 99Q411 76 453 76ZM281 944H593V842H281Z" glyph-name="Omacron" horiz-adv-x="880" unicode="&#332;" /><glyph d="M266 408Q266 376 268 346.5Q270 317 274 290L568 578Q545 639 507.5 671.5Q470 704 420 704Q381 704 352 681Q323 658 304 617.5Q285 577 275.5 523Q266 469 266 408ZM446 76Q485 76 514 99Q543 122 562 162.5Q581 203 590.5 256.5Q600 310 600 372Q600 436 591 489L297 202Q320 141 357.5 108.5Q395 76 446 76ZM422 -10Q342 -10 277.5 12Q213 34 165 73L80 -10L28 49L110 129Q70 180 49.5 242.5Q29 305 29 375Q29 471 60.5 547.5Q92 624 148 678Q204 732 279.5 761Q355 790 444 790Q523 790 587 768Q651 746 700 707L784 790L838 730L756 650Q796 599 816.5 536.5Q837 474 837 405Q837 309 805.5 232.5Q774 156 718 102Q662 48 586 19Q510 -10 422 -10Z" glyph-name="Oslash" horiz-adv-x="873" unicode="&#216;" /><glyph d="M429 -10Q334 -10 261 21Q188 52 138 104.5Q88 157 62 227Q36 297 36 375Q36 471 67.5 547.5Q99 624 155 678Q211 732 286.5 761Q362 790 451 790Q545 790 618.5 759Q692 728 742 675.5Q792 623 818 553Q844 483 844 405Q844 309 812.5 232.5Q781 156 725 102Q669 48 593 19Q517 -10 429 -10ZM453 76Q492 76 521 99Q550 122 569 162.5Q588 203 597.5 256.5Q607 310 607 372Q607 449 594.5 510.5Q582 572 558.5 615Q535 658 502 681Q469 704 427 704Q388 704 359 681Q330 658 311 617.5Q292 577 282.5 523Q273 469 273 408Q273 331 285.5 269.5Q298 208 321.5 165Q345 122 378 99Q411 76 453 76ZM511 838Q490 838 469.5 846.5Q449 855 429.5 865.5Q410 876 393 885Q376 894 362 894Q341 894 326 879.5Q311 865 297 839L233 850Q249 900 265 934.5Q281 969 300 990Q319 1011 340.5 1020.5Q362 1030 388 1030Q409 1030 429.5 1021Q450 1012 469.5 1001.5Q489 991 506 982.5Q523 974 537 974Q558 974 573 989Q588 1004 602 1030L666 1018Q650 968 634 933.5Q618 899 599 878Q580 857 558.5 847.5Q537 838 511 838Z" glyph-name="Otilde" horiz-adv-x="880" unicode="&#213;" /><glyph d="M343 371H400Q475 371 512.5 414.5Q550 458 550 539Q550 614 507.5 655Q465 696 391 696H343ZM343 294V150Q343 129 349.5 115Q356 101 371 93Q386 85 410.5 81Q435 77 471 76V0H38V76Q66 77 83 80.5Q100 84 109 92.5Q118 101 120.5 115Q123 129 123 150V630Q123 651 120.5 665Q118 679 109 687Q100 695 83 699Q66 703 38 704V780H451Q536 780 597 761.5Q658 743 697 711Q736 679 754 634.5Q772 590 772 539Q772 420 694.5 357Q617 294 455 294Z" glyph-name="P" horiz-adv-x="797" unicode="P" /><glyph d="M343 150Q343 129 349.5 115Q356 101 371 93Q386 85 410.5 81Q435 77 471 76V0H38V76Q66 77 83 80.5Q100 84 109 92.5Q118 101 120.5 115Q123 129 123 150V630Q123 651 120.5 665Q118 679 109 687Q100 695 83 699Q66 703 38 704V780H457Q608 780 690 717Q772 654 772 539Q772 477 752.5 432Q733 387 698 357.5Q663 328 614 313.5Q565 299 507 299Q466 299 437.5 306Q409 313 389 323V379H407Q486 379 518.5 418.5Q551 458 551 539Q551 614 509 655Q467 696 383 696H343Z" glyph-name="P.hist" horiz-adv-x="797" /><glyph d="M453 76Q492 76 521 99Q550 122 569 162.5Q588 203 597.5 256.5Q607 310 607 372Q607 449 594.5 510.5Q582 572 558.5 615Q535 658 502 681Q469 704 427 704Q388 704 359 681Q330 658 311 617.5Q292 577 282.5 523Q273 469 273 408Q273 331 285.5 269.5Q298 208 321.5 165Q345 122 378 99Q411 76 453 76ZM340 3Q266 17 209 52Q152 87 113.5 136.5Q75 186 55.5 247.5Q36 309 36 375Q36 471 67.5 547.5Q99 624 155 678Q211 732 286.5 761Q362 790 451 790Q545 790 618.5 759Q692 728 742 675.5Q792 623 818 553Q844 483 844 405Q844 330 821 265Q798 200 757 149Q716 98 659 63.5Q602 29 535 16L624 -28Q669 -51 710 -62Q751 -73 799 -73H827V-131Q815 -141 797.5 -152Q780 -163 757.5 -172.5Q735 -182 707.5 -188Q680 -194 649 -194Q614 -194 581 -188.5Q548 -183 516.5 -168.5Q485 -154 454.5 -130Q424 -106 396 -69Z" glyph-name="Q" horiz-adv-x="880" unicode="Q" /><glyph d="M467 780Q548 780 606.5 763.5Q665 747 703 718.5Q741 690 759.5 650.5Q778 611 778 565Q778 511 759.5 474Q741 437 709 412.5Q677 388 635 374.5Q593 361 545 356Q602 348 644 324.5Q686 301 724 248L785 162Q802 138 813.5 122.5Q825 107 836 97Q847 87 859.5 82.5Q872 78 890 76V0H657Q633 22 611.5 46.5Q590 71 573 94L445 274Q424 303 406.5 315Q389 327 356 327H343V150Q343 129 345.5 115Q348 101 357 92.5Q366 84 382.5 80.5Q399 77 427 76V0H38V76Q66 77 83 80.5Q100 84 109 92.5Q118 101 120.5 115Q123 129 123 150V630Q123 651 120.5 665Q118 679 109 687Q100 695 83 699Q66 703 38 704V780ZM343 696V415H392Q474 415 512 449Q550 483 550 565Q550 629 506 662.5Q462 696 392 696Z" glyph-name="R" horiz-adv-x="900" unicode="R" /><glyph d="M674 1030 459 822H361L459 1030ZM467 780Q548 780 606.5 763.5Q665 747 703 718.5Q741 690 759.5 650.5Q778 611 778 565Q778 511 759.5 474Q741 437 709 412.5Q677 388 635 374.5Q593 361 545 356Q602 348 644 324.5Q686 301 724 248L785 162Q802 138 813.5 122.5Q825 107 836 97Q847 87 859.5 82.5Q872 78 890 76V0H657Q633 22 611.5 46.5Q590 71 573 94L445 274Q424 303 406.5 315Q389 327 356 327H343V150Q343 129 345.5 115Q348 101 357 92.5Q366 84 382.5 80.5Q399 77 427 76V0H38V76Q66 77 83 80.5Q100 84 109 92.5Q118 101 120.5 115Q123 129 123 150V630Q123 651 120.5 665Q118 679 109 687Q100 695 83 699Q66 703 38 704V780ZM343 696V415H392Q474 415 512 449Q550 483 550 565Q550 629 506 662.5Q462 696 392 696Z" glyph-name="Racute" horiz-adv-x="900" unicode="&#340;" /><glyph d="M467 780Q548 780 606.5 763.5Q665 747 703 718.5Q741 690 759.5 650.5Q778 611 778 565Q778 511 759.5 474Q741 437 709 412.5Q677 388 635 374.5Q593 361 545 356Q602 348 644 324.5Q686 301 724 248L785 162Q802 138 813.5 122.5Q825 107 836 97Q847 87 859.5 82.5Q872 78 890 76V0H657Q633 22 611.5 46.5Q590 71 573 94L445 274Q424 303 406.5 315Q389 327 356 327H343V150Q343 129 345.5 115Q348 101 357 92.5Q366 84 382.5 80.5Q399 77 427 76V0H38V76Q66 77 83 80.5Q100 84 109 92.5Q118 101 120.5 115Q123 129 123 150V630Q123 651 120.5 665Q118 679 109 687Q100 695 83 699Q66 703 38 704V780ZM343 696V415H392Q474 415 512 449Q550 483 550 565Q550 629 506 662.5Q462 696 392 696ZM178 1030H279L398 938L517 1030H618L459 822H337Z" glyph-name="Rcaron" horiz-adv-x="900" unicode="&#344;" /><glyph d="M467 780Q548 780 606.5 763.5Q665 747 703 718.5Q741 690 759.5 650.5Q778 611 778 565Q778 511 759.5 474Q741 437 709 412.5Q677 388 635 374.5Q593 361 545 356Q602 348 644 324.5Q686 301 724 248L785 162Q802 138 813.5 122.5Q825 107 836 97Q847 87 859.5 82.5Q872 78 890 76V0H657Q633 22 611.5 46.5Q590 71 573 94L445 274Q424 303 406.5 315Q389 327 356 327H343V150Q343 129 345.5 115Q348 101 357 92.5Q366 84 382.5 80.5Q399 77 427 76V0H38V76Q66 77 83 80.5Q100 84 109 92.5Q118 101 120.5 115Q123 129 123 150V630Q123 651 120.5 665Q118 679 109 687Q100 695 83 699Q66 703 38 704V780ZM343 696V415H392Q474 415 512 449Q550 483 550 565Q550 629 506 662.5Q462 696 392 696ZM435 -156Q406 -149 392 -135Q378 -121 378 -94Q378 -66 398 -48Q418 -30 457 -30Q501 -30 527.5 -56.5Q554 -83 554 -129Q554 -155 545.5 -176.5Q537 -198 518 -214Q499 -230 468.5 -239.5Q438 -249 394 -250V-204Q440 -200 460.5 -188.5Q481 -177 481 -156Z" glyph-name="Rcommaaccent" horiz-adv-x="900" unicode="&#342;" /><glyph d="M334 -10Q290 -10 249.5 -4Q209 2 173 12Q137 22 107.5 35.5Q78 49 57 64L43 251H166Q189 156 232.5 113Q276 70 354 70Q403 70 435 93Q467 116 467 164Q467 207 442 230.5Q417 254 355 268L261 289Q160 312 105.5 369Q51 426 51 529Q51 592 73.5 640.5Q96 689 136 722.5Q176 756 230.5 773Q285 790 350 790Q437 790 501.5 772Q566 754 608 724L611 554H505Q493 587 479.5 616Q466 645 447 666Q428 687 401 699Q374 711 334 711Q282 711 255.5 683.5Q229 656 229 618Q229 570 257 546.5Q285 523 352 511L428 497Q476 488 517.5 470.5Q559 453 589.5 423.5Q620 394 637.5 350.5Q655 307 655 246Q655 179 630 130.5Q605 82 561.5 51Q518 20 459.5 5Q401 -10 334 -10Z" glyph-name="S" horiz-adv-x="696" unicode="S" /><glyph d="M607 1030 392 822H294L392 1030ZM334 -10Q290 -10 249.5 -4Q209 2 173 12Q137 22 107.5 35.5Q78 49 57 64L43 251H166Q189 156 232.5 113Q276 70 354 70Q403 70 435 93Q467 116 467 164Q467 207 442 230.5Q417 254 355 268L261 289Q160 312 105.5 369Q51 426 51 529Q51 592 73.5 640.5Q96 689 136 722.5Q176 756 230.5 773Q285 790 350 790Q437 790 501.5 772Q566 754 608 724L611 554H505Q493 587 479.5 616Q466 645 447 666Q428 687 401 699Q374 711 334 711Q282 711 255.5 683.5Q229 656 229 618Q229 570 257 546.5Q285 523 352 511L428 497Q476 488 517.5 470.5Q559 453 589.5 423.5Q620 394 637.5 350.5Q655 307 655 246Q655 179 630 130.5Q605 82 561.5 51Q518 20 459.5 5Q401 -10 334 -10Z" glyph-name="Sacute" horiz-adv-x="696" unicode="&#346;" /><glyph d="M124 1030H225L344 938L463 1030H564L405 822H283ZM334 -10Q290 -10 249.5 -4Q209 2 173 12Q137 22 107.5 35.5Q78 49 57 64L43 251H166Q189 156 232.5 113Q276 70 354 70Q403 70 435 93Q467 116 467 164Q467 207 442 230.5Q417 254 355 268L261 289Q160 312 105.5 369Q51 426 51 529Q51 592 73.5 640.5Q96 689 136 722.5Q176 756 230.5 773Q285 790 350 790Q437 790 501.5 772Q566 754 608 724L611 554H505Q493 587 479.5 616Q466 645 447 666Q428 687 401 699Q374 711 334 711Q282 711 255.5 683.5Q229 656 229 618Q229 570 257 546.5Q285 523 352 511L428 497Q476 488 517.5 470.5Q559 453 589.5 423.5Q620 394 637.5 350.5Q655 307 655 246Q655 179 630 130.5Q605 82 561.5 51Q518 20 459.5 5Q401 -10 334 -10Z" glyph-name="Scaron" horiz-adv-x="696" unicode="&#352;" /><glyph d="M329 -10 321 -46Q384 -48 416.5 -75Q449 -102 449 -150Q449 -176 438.5 -195Q428 -214 411 -226Q394 -238 373 -244Q352 -250 330 -250Q298 -250 274.5 -241Q251 -232 239 -222L256 -178Q269 -186 286 -192.5Q303 -199 320 -199Q336 -199 345 -195Q354 -191 354 -179Q354 -157 322.5 -150Q291 -143 246 -141L271 -7Q203 0 147 19Q91 38 57 64L43 251H166Q189 156 232.5 113Q276 70 354 70Q403 70 435 93Q467 116 467 164Q467 207 442 230.5Q417 254 355 268L261 289Q160 312 105.5 369Q51 426 51 529Q51 592 73.5 640.5Q96 689 136 722.5Q176 756 230.5 773Q285 790 350 790Q437 790 501.5 772Q566 754 608 724L611 554H505Q493 587 479.5 616Q466 645 447 666Q428 687 401 699Q374 711 334 711Q282 711 255.5 683.5Q229 656 229 618Q229 570 257 546.5Q285 523 352 511L428 497Q476 488 517.5 470.5Q559 453 589.5 423.5Q620 394 637.5 350.5Q655 307 655 246Q655 179 630 130.5Q605 82 561.5 51Q518 20 459.5 5Q401 -10 334 -10Z" glyph-name="Scedilla" horiz-adv-x="696" unicode="&#350;" /><glyph d="M564 822H463L344 914L225 822H124L283 1030H405ZM334 -10Q290 -10 249.5 -4Q209 2 173 12Q137 22 107.5 35.5Q78 49 57 64L43 251H166Q189 156 232.5 113Q276 70 354 70Q403 70 435 93Q467 116 467 164Q467 207 442 230.5Q417 254 355 268L261 289Q160 312 105.5 369Q51 426 51 529Q51 592 73.5 640.5Q96 689 136 722.5Q176 756 230.5 773Q285 790 350 790Q437 790 501.5 772Q566 754 608 724L611 554H505Q493 587 479.5 616Q466 645 447 666Q428 687 401 699Q374 711 334 711Q282 711 255.5 683.5Q229 656 229 618Q229 570 257 546.5Q285 523 352 511L428 497Q476 488 517.5 470.5Q559 453 589.5 423.5Q620 394 637.5 350.5Q655 307 655 246Q655 179 630 130.5Q605 82 561.5 51Q518 20 459.5 5Q401 -10 334 -10Z" glyph-name="Scircumflex" horiz-adv-x="696" unicode="&#348;" /><glyph d="M334 -10Q290 -10 249.5 -4Q209 2 173 12Q137 22 107.5 35.5Q78 49 57 64L43 251H166Q189 156 232.5 113Q276 70 354 70Q403 70 435 93Q467 116 467 164Q467 207 442 230.5Q417 254 355 268L261 289Q160 312 105.5 369Q51 426 51 529Q51 592 73.5 640.5Q96 689 136 722.5Q176 756 230.5 773Q285 790 350 790Q437 790 501.5 772Q566 754 608 724L611 554H505Q493 587 479.5 616Q466 645 447 666Q428 687 401 699Q374 711 334 711Q282 711 255.5 683.5Q229 656 229 618Q229 570 257 546.5Q285 523 352 511L428 497Q476 488 517.5 470.5Q559 453 589.5 423.5Q620 394 637.5 350.5Q655 307 655 246Q655 179 630 130.5Q605 82 561.5 51Q518 20 459.5 5Q401 -10 334 -10ZM313 -156Q284 -149 270 -135Q256 -121 256 -94Q256 -66 276 -48Q296 -30 335 -30Q379 -30 405.5 -56.5Q432 -83 432 -129Q432 -155 423.5 -176.5Q415 -198 396 -214Q377 -230 346.5 -239.5Q316 -249 272 -250V-204Q318 -200 338.5 -188.5Q359 -177 359 -156Z" glyph-name="Scommaaccent" horiz-adv-x="696" unicode="&#536;" /><glyph d="M798 780 814 512H718Q698 557 681.5 592.5Q665 628 646 652Q627 676 603.5 689Q580 702 547 702H521V150Q521 129 525 115Q529 101 539 92.5Q549 84 567 80.5Q585 77 613 76V0H208V76Q236 77 254 80.5Q272 84 282.5 92.5Q293 101 297 115Q301 129 301 150V702H275Q242 702 218.5 689Q195 676 176 652Q157 628 140.5 592.5Q124 557 104 512H8L24 780Z" glyph-name="T" horiz-adv-x="822" unicode="T" /><glyph d="M798 780 814 512H718Q698 557 681.5 592.5Q665 628 646 652Q627 676 603.5 689Q580 702 547 702H521V421H659V350H521V150Q521 129 525 115Q529 101 539 92.5Q549 84 567 80.5Q585 77 613 76V0H208V76Q236 77 254 80.5Q272 84 282.5 92.5Q293 101 297 115Q301 129 301 150V350H163V421H301V702H275Q242 702 218.5 689Q195 676 176 652Q157 628 140.5 592.5Q124 557 104 512H8L24 780Z" glyph-name="Tbar" horiz-adv-x="822" unicode="&#358;" /><glyph d="M798 780 814 512H718Q698 557 681.5 592.5Q665 628 646 652Q627 676 603.5 689Q580 702 547 702H521V150Q521 129 525 115Q529 101 539 92.5Q549 84 567 80.5Q585 77 613 76V0H208V76Q236 77 254 80.5Q272 84 282.5 92.5Q293 101 297 115Q301 129 301 150V702H275Q242 702 218.5 689Q195 676 176 652Q157 628 140.5 592.5Q124 557 104 512H8L24 780ZM190 1030H291L410 938L529 1030H630L471 822H349Z" glyph-name="Tcaron" horiz-adv-x="822" unicode="&#356;" /><glyph d="M798 780 814 512H718Q698 557 681.5 592.5Q665 628 646 652Q627 676 603.5 689Q580 702 547 702H521V150Q521 129 525 115Q529 101 539 92.5Q549 84 567 80.5Q585 77 613 76V0H208V76Q236 77 254 80.5Q272 84 282.5 92.5Q293 101 297 115Q301 129 301 150V702H275Q242 702 218.5 689Q195 676 176 652Q157 628 140.5 592.5Q124 557 104 512H8L24 780ZM379 -156Q350 -149 336 -135Q322 -121 322 -94Q322 -66 342 -48Q362 -30 401 -30Q445 -30 471.5 -56.5Q498 -83 498 -129Q498 -155 489.5 -176.5Q481 -198 462 -214Q443 -230 412.5 -239.5Q382 -249 338 -250V-204Q384 -200 404.5 -188.5Q425 -177 425 -156Z" glyph-name="Tcommaaccent" horiz-adv-x="822" unicode="&#354;" /><glyph d="M343 624H457Q540 624 599.5 608Q659 592 697.5 562Q736 532 754 490.5Q772 449 772 398Q772 281 694.5 224Q617 167 455 167H343V150Q343 129 349.5 115Q356 101 371 93Q386 85 410.5 81Q435 77 471 76V0H38V76Q66 77 83 80.5Q100 84 109 92.5Q118 101 120.5 115Q123 129 123 150V630Q123 651 120.5 665Q118 679 109 687Q100 695 83 699Q66 703 38 704V780H427V704Q399 703 382.5 699Q366 695 357 687Q348 679 345.5 665Q343 651 343 630ZM343 244H400Q475 244 512.5 280Q550 316 550 397Q550 466 507.5 503Q465 540 391 540H343Z" glyph-name="Thorn" horiz-adv-x="802" unicode="&#222;" /><glyph d="M343 150Q343 129 349.5 115Q356 101 371 93Q386 85 410.5 81Q435 77 471 76V0H38V76Q66 77 83 80.5Q100 84 109 92.5Q118 101 120.5 115Q123 129 123 150V630Q123 651 120.5 665Q118 679 109 687Q100 695 83 699Q66 703 38 704V780H427V704Q399 703 382.5 699Q366 695 357 687Q348 679 345.5 665Q343 651 343 630V624H454Q538 624 598 608Q658 592 697 562Q736 532 754 490.5Q772 449 772 398Q772 336 753.5 292.5Q735 249 700.5 221Q666 193 617.5 180Q569 167 510 167Q469 167 439 173.5Q409 180 389 190V246H409Q479 246 514.5 281Q550 316 550 397Q550 466 507.5 503Q465 540 391 540H343Z" glyph-name="Thorn.hist" horiz-adv-x="802" /><glyph d="M333 295Q333 253 341.5 218Q350 183 368.5 158.5Q387 134 416.5 120.5Q446 107 488 107Q523 107 555.5 115.5Q588 124 612.5 145.5Q637 167 652 205.5Q667 244 667 304V630Q667 651 662 665Q657 679 646 687Q635 695 616 699Q597 703 569 704V780H860V704Q832 703 815 699Q798 695 789 687Q780 679 777.5 665Q775 651 775 630V277Q775 203 749 149Q723 95 679.5 59.5Q636 24 579 7Q522 -10 459 -10Q291 -10 202 63Q113 136 113 277V630Q113 651 110.5 665Q108 679 99 687Q90 695 73 699Q56 703 28 704V780H417V704Q389 703 372.5 699Q356 695 347 687Q338 679 335.5 665Q333 651 333 630Z" glyph-name="U" horiz-adv-x="888" unicode="U" /><glyph d="M333 295Q333 253 341.5 218Q350 183 368.5 158.5Q387 134 416.5 120.5Q446 107 488 107Q523 107 555.5 115.5Q588 124 612.5 145.5Q637 167 652 205.5Q667 244 667 304V630Q667 651 662 665Q657 679 646 687Q635 695 616 699Q597 703 569 704V780H860V704Q832 703 815 699Q798 695 789 687Q780 679 777.5 665Q775 651 775 630V277Q775 203 749 149Q723 95 679.5 59.5Q636 24 579 7Q522 -10 459 -10Q291 -10 202 63Q113 136 113 277V630Q113 651 110.5 665Q108 679 99 687Q90 695 73 699Q56 703 28 704V780H417V704Q389 703 372.5 699Q356 695 347 687Q338 679 335.5 665Q333 651 333 630ZM748 1030 533 822H435L533 1030Z" glyph-name="Uacute" horiz-adv-x="888" unicode="&#218;" /><glyph d="M333 295Q333 253 341.5 218Q350 183 368.5 158.5Q387 134 416.5 120.5Q446 107 488 107Q523 107 555.5 115.5Q588 124 612.5 145.5Q637 167 652 205.5Q667 244 667 304V630Q667 651 662 665Q657 679 646 687Q635 695 616 699Q597 703 569 704V780H860V704Q832 703 815 699Q798 695 789 687Q780 679 777.5 665Q775 651 775 630V277Q775 203 749 149Q723 95 679.5 59.5Q636 24 579 7Q522 -10 459 -10Q291 -10 202 63Q113 136 113 277V630Q113 651 110.5 665Q108 679 99 687Q90 695 73 699Q56 703 28 704V780H417V704Q389 703 372.5 699Q356 695 347 687Q338 679 335.5 665Q333 651 333 630ZM485 828Q437 828 403 842Q369 856 347.5 882Q326 908 316.5 945.5Q307 983 307 1030H370Q374 1004 385 988Q396 972 411.5 963Q427 954 446 951Q465 948 485 948Q505 948 524 951Q543 954 558.5 963Q574 972 585 988Q596 1004 600 1030H663Q663 983 653.5 945.5Q644 908 622.5 882Q601 856 567 842Q533 828 485 828Z" glyph-name="Ubreve" horiz-adv-x="888" unicode="&#364;" /><glyph d="M705 822H604L485 914L366 822H265L424 1030H546ZM333 295Q333 253 341.5 218Q350 183 368.5 158.5Q387 134 416.5 120.5Q446 107 488 107Q523 107 555.5 115.5Q588 124 612.5 145.5Q637 167 652 205.5Q667 244 667 304V630Q667 651 662 665Q657 679 646 687Q635 695 616 699Q597 703 569 704V780H860V704Q832 703 815 699Q798 695 789 687Q780 679 777.5 665Q775 651 775 630V277Q775 203 749 149Q723 95 679.5 59.5Q636 24 579 7Q522 -10 459 -10Q291 -10 202 63Q113 136 113 277V630Q113 651 110.5 665Q108 679 99 687Q90 695 73 699Q56 703 28 704V780H417V704Q389 703 372.5 699Q356 695 347 687Q338 679 335.5 665Q333 651 333 630Z" glyph-name="Ucircumflex" horiz-adv-x="888" unicode="&#219;" /><glyph d="M333 295Q333 253 341.5 218Q350 183 368.5 158.5Q387 134 416.5 120.5Q446 107 488 107Q523 107 555.5 115.5Q588 124 612.5 145.5Q637 167 652 205.5Q667 244 667 304V630Q667 651 662 665Q657 679 646 687Q635 695 616 699Q597 703 569 704V780H860V704Q832 703 815 699Q798 695 789 687Q780 679 777.5 665Q775 651 775 630V277Q775 203 749 149Q723 95 679.5 59.5Q636 24 579 7Q522 -10 459 -10Q291 -10 202 63Q113 136 113 277V630Q113 651 110.5 665Q108 679 99 687Q90 695 73 699Q56 703 28 704V780H417V704Q389 703 372.5 699Q356 695 347 687Q338 679 335.5 665Q333 651 333 630ZM503 930Q503 952 511 971Q519 990 532.5 1004Q546 1018 564 1026.5Q582 1035 602 1035Q623 1035 642 1026.5Q661 1018 674.5 1004Q688 990 696 971Q704 952 704 930Q704 909 696 890.5Q688 872 674.5 858Q661 844 642 836Q623 828 602 828Q582 828 564 836Q546 844 532.5 858Q519 872 511 890.5Q503 909 503 930ZM266 930Q266 952 274 971Q282 990 295.5 1004Q309 1018 327 1026.5Q345 1035 365 1035Q386 1035 404.5 1026.5Q423 1018 437 1004Q451 990 459 971Q467 952 467 930Q467 909 459 890.5Q451 872 437 858Q423 844 404.5 836Q386 828 365 828Q345 828 327 836Q309 844 295.5 858Q282 872 274 890.5Q266 909 266 930Z" glyph-name="Udieresis" horiz-adv-x="888" unicode="&#220;" /><glyph d="M333 295Q333 253 341.5 218Q350 183 368.5 158.5Q387 134 416.5 120.5Q446 107 488 107Q523 107 555.5 115.5Q588 124 612.5 145.5Q637 167 652 205.5Q667 244 667 304V630Q667 651 662 665Q657 679 646 687Q635 695 616 699Q597 703 569 704V780H860V704Q832 703 815 699Q798 695 789 687Q780 679 777.5 665Q775 651 775 630V277Q775 203 749 149Q723 95 679.5 59.5Q636 24 579 7Q522 -10 459 -10Q291 -10 202 63Q113 136 113 277V630Q113 651 110.5 665Q108 679 99 687Q90 695 73 699Q56 703 28 704V780H417V704Q389 703 372.5 699Q356 695 347 687Q338 679 335.5 665Q333 651 333 630ZM448 1030 532 822H434L219 1030Z" glyph-name="Ugrave" horiz-adv-x="888" unicode="&#217;" /><glyph d="M748 1030 615 822H526L593 1030ZM548 1030 415 822H326L393 1030ZM333 295Q333 253 341.5 218Q350 183 368.5 158.5Q387 134 416.5 120.5Q446 107 488 107Q523 107 555.5 115.5Q588 124 612.5 145.5Q637 167 652 205.5Q667 244 667 304V630Q667 651 662 665Q657 679 646 687Q635 695 616 699Q597 703 569 704V780H860V704Q832 703 815 699Q798 695 789 687Q780 679 777.5 665Q775 651 775 630V277Q775 203 749 149Q723 95 679.5 59.5Q636 24 579 7Q522 -10 459 -10Q291 -10 202 63Q113 136 113 277V630Q113 651 110.5 665Q108 679 99 687Q90 695 73 699Q56 703 28 704V780H417V704Q389 703 372.5 699Q356 695 347 687Q338 679 335.5 665Q333 651 333 630Z" glyph-name="Uhungarumlaut" horiz-adv-x="888" unicode="&#368;" /><glyph d="M333 295Q333 253 341.5 218Q350 183 368.5 158.5Q387 134 416.5 120.5Q446 107 488 107Q523 107 555.5 115.5Q588 124 612.5 145.5Q637 167 652 205.5Q667 244 667 304V630Q667 651 662 665Q657 679 646 687Q635 695 616 699Q597 703 569 704V780H860V704Q832 703 815 699Q798 695 789 687Q780 679 777.5 665Q775 651 775 630V277Q775 203 749 149Q723 95 679.5 59.5Q636 24 579 7Q522 -10 459 -10Q291 -10 202 63Q113 136 113 277V630Q113 651 110.5 665Q108 679 99 687Q90 695 73 699Q56 703 28 704V780H417V704Q389 703 372.5 699Q356 695 347 687Q338 679 335.5 665Q333 651 333 630ZM329 944H641V842H329Z" glyph-name="Umacron" horiz-adv-x="888" unicode="&#362;" /><glyph d="M333 295Q333 253 341.5 218Q350 183 368.5 158.5Q387 134 416.5 120.5Q446 107 488 107Q523 107 555.5 115.5Q588 124 612.5 145.5Q637 167 652 205.5Q667 244 667 304V630Q667 651 662 665Q657 679 646 687Q635 695 616 699Q597 703 569 704V780H860V704Q832 703 815 699Q798 695 789 687Q780 679 777.5 665Q775 651 775 630V277Q775 226 762.5 185Q750 144 727.5 111.5Q705 79 673.5 55.5Q642 32 605 16Q575 1 557.5 -16Q540 -33 530 -50Q520 -67 517 -83.5Q514 -100 514 -116Q514 -142 524.5 -156.5Q535 -171 562 -171Q580 -171 594 -164.5Q608 -158 630 -141L643 -189Q624 -212 587 -231Q550 -250 508 -250Q448 -250 414.5 -221Q381 -192 381 -144Q381 -102 398 -71Q415 -40 443 -10Q282 -5 197.5 67.5Q113 140 113 277V630Q113 651 110.5 665Q108 679 99 687Q90 695 73 699Q56 703 28 704V780H417V704Q389 703 372.5 699Q356 695 347 687Q338 679 335.5 665Q333 651 333 630Z" glyph-name="Uogonek" horiz-adv-x="888" unicode="&#370;" /><glyph d="M534 926Q534 946 521.5 960Q509 974 485 974Q460 974 448 960Q436 946 436 926Q436 906 448 892Q460 878 485 878Q509 878 521.5 892Q534 906 534 926ZM361 926Q361 950 370 970.5Q379 991 395.5 1006.5Q412 1022 434.5 1031Q457 1040 485 1040Q513 1040 535.5 1031Q558 1022 574.5 1006.5Q591 991 600 970.5Q609 950 609 926Q609 902 600 881.5Q591 861 574.5 845.5Q558 830 535.5 821Q513 812 485 812Q457 812 434.5 821Q412 830 395.5 845.5Q379 861 370 881.5Q361 902 361 926ZM333 295Q333 253 341.5 218Q350 183 368.5 158.5Q387 134 416.5 120.5Q446 107 488 107Q523 107 555.5 115.5Q588 124 612.5 145.5Q637 167 652 205.5Q667 244 667 304V630Q667 651 662 665Q657 679 646 687Q635 695 616 699Q597 703 569 704V780H860V704Q832 703 815 699Q798 695 789 687Q780 679 777.5 665Q775 651 775 630V277Q775 203 749 149Q723 95 679.5 59.5Q636 24 579 7Q522 -10 459 -10Q291 -10 202 63Q113 136 113 277V630Q113 651 110.5 665Q108 679 99 687Q90 695 73 699Q56 703 28 704V780H417V704Q389 703 372.5 699Q356 695 347 687Q338 679 335.5 665Q333 651 333 630Z" glyph-name="Uring" horiz-adv-x="888" unicode="&#366;" /><glyph d="M333 295Q333 253 341.5 218Q350 183 368.5 158.5Q387 134 416.5 120.5Q446 107 488 107Q523 107 555.5 115.5Q588 124 612.5 145.5Q637 167 652 205.5Q667 244 667 304V630Q667 651 662 665Q657 679 646 687Q635 695 616 699Q597 703 569 704V780H860V704Q832 703 815 699Q798 695 789 687Q780 679 777.5 665Q775 651 775 630V277Q775 203 749 149Q723 95 679.5 59.5Q636 24 579 7Q522 -10 459 -10Q291 -10 202 63Q113 136 113 277V630Q113 651 110.5 665Q108 679 99 687Q90 695 73 699Q56 703 28 704V780H417V704Q389 703 372.5 699Q356 695 347 687Q338 679 335.5 665Q333 651 333 630ZM547 838Q526 838 505.5 846.5Q485 855 465.5 865.5Q446 876 429 885Q412 894 398 894Q377 894 362 879.5Q347 865 333 839L269 850Q285 900 301 934.5Q317 969 336 990Q355 1011 376.5 1020.5Q398 1030 424 1030Q445 1030 465.5 1021Q486 1012 505.5 1001.5Q525 991 542 982.5Q559 974 573 974Q594 974 609 989Q624 1004 638 1030L702 1018Q686 968 670 933.5Q654 899 635 878Q616 857 594.5 847.5Q573 838 547 838Z" glyph-name="Utilde" horiz-adv-x="888" unicode="&#360;" /><glyph d="M650 611Q655 624 658.5 635Q662 646 662 656Q662 668 659.5 676.5Q657 685 648.5 691Q640 697 625 700Q610 703 586 704V780H853V704Q829 700 813.5 693Q798 686 788 663L488 -3H417L75 663Q64 686 49 693Q34 700 10 704V780H410V704Q385 703 370 700Q355 697 346.5 691Q338 685 335.5 676.5Q333 668 333 656Q333 646 336.5 634Q340 622 345 611L505 293Z" glyph-name="V" horiz-adv-x="863" unicode="V" /><glyph d="M971 588Q982 617 985.5 631.5Q989 646 989 656Q989 668 986.5 676.5Q984 685 976 690.5Q968 696 953 699.5Q938 703 914 704V780H1174V704Q1150 700 1133.5 693.5Q1117 687 1108 663L852 -3H761L605 418L443 -3H353L75 663Q65 686 49 693Q33 700 10 704V780H397V704Q373 703 358 699.5Q343 696 335 690Q327 684 324.5 675.5Q322 667 322 656Q322 637 338 598L459 293L557 548L513 663Q504 686 487.5 693Q471 700 448 704V780H822V704Q797 703 782.5 699.5Q768 696 760 690.5Q752 685 749.5 676.5Q747 668 747 656Q747 646 750.5 631.5Q754 617 765 585L864 302Z" glyph-name="W" horiz-adv-x="1184" unicode="W" /><glyph d="M900 1030 685 822H587L685 1030ZM971 588Q982 617 985.5 631.5Q989 646 989 656Q989 668 986.5 676.5Q984 685 976 690.5Q968 696 953 699.5Q938 703 914 704V780H1174V704Q1150 700 1133.5 693.5Q1117 687 1108 663L852 -3H761L605 418L443 -3H353L75 663Q65 686 49 693Q33 700 10 704V780H397V704Q373 703 358 699.5Q343 696 335 690Q327 684 324.5 675.5Q322 667 322 656Q322 637 338 598L459 293L557 548L513 663Q504 686 487.5 693Q471 700 448 704V780H822V704Q797 703 782.5 699.5Q768 696 760 690.5Q752 685 749.5 676.5Q747 668 747 656Q747 646 750.5 631.5Q754 617 765 585L864 302Z" glyph-name="Wacute" horiz-adv-x="1184" unicode="&#7810;" /><glyph d="M847 822H746L627 914L508 822H407L566 1030H688ZM971 588Q982 617 985.5 631.5Q989 646 989 656Q989 668 986.5 676.5Q984 685 976 690.5Q968 696 953 699.5Q938 703 914 704V780H1174V704Q1150 700 1133.5 693.5Q1117 687 1108 663L852 -3H761L605 418L443 -3H353L75 663Q65 686 49 693Q33 700 10 704V780H397V704Q373 703 358 699.5Q343 696 335 690Q327 684 324.5 675.5Q322 667 322 656Q322 637 338 598L459 293L557 548L513 663Q504 686 487.5 693Q471 700 448 704V780H822V704Q797 703 782.5 699.5Q768 696 760 690.5Q752 685 749.5 676.5Q747 668 747 656Q747 646 750.5 631.5Q754 617 765 585L864 302Z" glyph-name="Wcircumflex" horiz-adv-x="1184" unicode="&#372;" /><glyph d="M645 930Q645 952 653 971Q661 990 674.5 1004Q688 1018 706 1026.5Q724 1035 744 1035Q765 1035 784 1026.5Q803 1018 816.5 1004Q830 990 838 971Q846 952 846 930Q846 909 838 890.5Q830 872 816.5 858Q803 844 784 836Q765 828 744 828Q724 828 706 836Q688 844 674.5 858Q661 872 653 890.5Q645 909 645 930ZM408 930Q408 952 416 971Q424 990 437.5 1004Q451 1018 469 1026.5Q487 1035 507 1035Q528 1035 546.5 1026.5Q565 1018 579 1004Q593 990 601 971Q609 952 609 930Q609 909 601 890.5Q593 872 579 858Q565 844 546.5 836Q528 828 507 828Q487 828 469 836Q451 844 437.5 858Q424 872 416 890.5Q408 909 408 930ZM971 588Q982 617 985.5 631.5Q989 646 989 656Q989 668 986.5 676.5Q984 685 976 690.5Q968 696 953 699.5Q938 703 914 704V780H1174V704Q1150 700 1133.5 693.5Q1117 687 1108 663L852 -3H761L605 418L443 -3H353L75 663Q65 686 49 693Q33 700 10 704V780H397V704Q373 703 358 699.5Q343 696 335 690Q327 684 324.5 675.5Q322 667 322 656Q322 637 338 598L459 293L557 548L513 663Q504 686 487.5 693Q471 700 448 704V780H822V704Q797 703 782.5 699.5Q768 696 760 690.5Q752 685 749.5 676.5Q747 668 747 656Q747 646 750.5 631.5Q754 617 765 585L864 302Z" glyph-name="Wdieresis" horiz-adv-x="1184" unicode="&#7812;" /><glyph d="M580 1030 664 822H566L351 1030ZM971 588Q982 617 985.5 631.5Q989 646 989 656Q989 668 986.5 676.5Q984 685 976 690.5Q968 696 953 699.5Q938 703 914 704V780H1174V704Q1150 700 1133.5 693.5Q1117 687 1108 663L852 -3H761L605 418L443 -3H353L75 663Q65 686 49 693Q33 700 10 704V780H397V704Q373 703 358 699.5Q343 696 335 690Q327 684 324.5 675.5Q322 667 322 656Q322 637 338 598L459 293L557 548L513 663Q504 686 487.5 693Q471 700 448 704V780H822V704Q797 703 782.5 699.5Q768 696 760 690.5Q752 685 749.5 676.5Q747 668 747 656Q747 646 750.5 631.5Q754 617 765 585L864 302Z" glyph-name="Wgrave" horiz-adv-x="1184" unicode="&#7808;" /><glyph d="M536 445 789 111Q806 89 850 76V0H472V76Q499 76 510 84Q521 92 521 112Q521 121 516 131.5Q511 142 498 159L383 302L264 159Q250 142 245 131Q240 120 240 112Q240 92 253.5 84Q267 76 298 76V0H10V76Q42 78 63.5 89Q85 100 94 111L322 383L103 669Q86 690 50 704V780H437V704Q380 704 380 669Q380 658 385.5 648Q391 638 404 621L478 529L556 621Q567 634 573 646.5Q579 659 579 668Q579 688 565 696Q551 704 522 704V780H807V704Q772 699 756.5 690.5Q741 682 730 669Z" glyph-name="X" horiz-adv-x="860" unicode="X" /><glyph d="M619 590Q636 616 641.5 632Q647 648 647 661Q647 683 629 692.5Q611 702 576 704V780H845V704Q821 700 807 692Q793 684 780 663L540 269V150Q540 129 544 115Q548 101 558.5 92.5Q569 84 587.5 80.5Q606 77 634 76V0H231V76Q259 77 277 80.5Q295 84 305.5 92.5Q316 101 320 115Q324 129 324 150V270L75 663Q61 685 47.5 692.5Q34 700 10 704V780H408V704Q365 702 351.5 692.5Q338 683 338 660Q338 645 344 629Q350 613 365 590L495 390Z" glyph-name="Y" horiz-adv-x="855" unicode="Y" /><glyph d="M732 1030 517 822H419L517 1030ZM619 590Q636 616 641.5 632Q647 648 647 661Q647 683 629 692.5Q611 702 576 704V780H845V704Q821 700 807 692Q793 684 780 663L540 269V150Q540 129 544 115Q548 101 558.5 92.5Q569 84 587.5 80.5Q606 77 634 76V0H231V76Q259 77 277 80.5Q295 84 305.5 92.5Q316 101 320 115Q324 129 324 150V270L75 663Q61 685 47.5 692.5Q34 700 10 704V780H408V704Q365 702 351.5 692.5Q338 683 338 660Q338 645 344 629Q350 613 365 590L495 390Z" glyph-name="Yacute" horiz-adv-x="855" unicode="&#221;" /><glyph d="M689 822H588L469 914L350 822H249L408 1030H530ZM619 590Q636 616 641.5 632Q647 648 647 661Q647 683 629 692.5Q611 702 576 704V780H845V704Q821 700 807 692Q793 684 780 663L540 269V150Q540 129 544 115Q548 101 558.5 92.5Q569 84 587.5 80.5Q606 77 634 76V0H231V76Q259 77 277 80.5Q295 84 305.5 92.5Q316 101 320 115Q324 129 324 150V270L75 663Q61 685 47.5 692.5Q34 700 10 704V780H408V704Q365 702 351.5 692.5Q338 683 338 660Q338 645 344 629Q350 613 365 590L495 390Z" glyph-name="Ycircumflex" horiz-adv-x="855" unicode="&#374;" /><glyph d="M487 930Q487 952 495 971Q503 990 516.5 1004Q530 1018 548 1026.5Q566 1035 586 1035Q607 1035 626 1026.5Q645 1018 658.5 1004Q672 990 680 971Q688 952 688 930Q688 909 680 890.5Q672 872 658.5 858Q645 844 626 836Q607 828 586 828Q566 828 548 836Q530 844 516.5 858Q503 872 495 890.5Q487 909 487 930ZM250 930Q250 952 258 971Q266 990 279.5 1004Q293 1018 311 1026.5Q329 1035 349 1035Q370 1035 388.5 1026.5Q407 1018 421 1004Q435 990 443 971Q451 952 451 930Q451 909 443 890.5Q435 872 421 858Q407 844 388.5 836Q370 828 349 828Q329 828 311 836Q293 844 279.5 858Q266 872 258 890.5Q250 909 250 930ZM619 590Q636 616 641.5 632Q647 648 647 661Q647 683 629 692.5Q611 702 576 704V780H845V704Q821 700 807 692Q793 684 780 663L540 269V150Q540 129 544 115Q548 101 558.5 92.5Q569 84 587.5 80.5Q606 77 634 76V0H231V76Q259 77 277 80.5Q295 84 305.5 92.5Q316 101 320 115Q324 129 324 150V270L75 663Q61 685 47.5 692.5Q34 700 10 704V780H408V704Q365 702 351.5 692.5Q338 683 338 660Q338 645 344 629Q350 613 365 590L495 390Z" glyph-name="Ydieresis" horiz-adv-x="855" unicode="&#376;" /><glyph d="M453 84Q482 84 503.5 89.5Q525 95 545 113.5Q565 132 588.5 168Q612 204 646 266H739L698 0H28V57L438 696H306Q272 696 250 684.5Q228 673 212 652.5Q196 632 182.5 604Q169 576 153 542H61L66 780H706V722L294 84Z" glyph-name="Z" horiz-adv-x="758" unicode="Z" /><glyph d="M657 1030 442 822H344L442 1030ZM453 84Q482 84 503.5 89.5Q525 95 545 113.5Q565 132 588.5 168Q612 204 646 266H739L698 0H28V57L438 696H306Q272 696 250 684.5Q228 673 212 652.5Q196 632 182.5 604Q169 576 153 542H61L66 780H706V722L294 84Z" glyph-name="Zacute" horiz-adv-x="758" unicode="&#377;" /><glyph d="M453 84Q482 84 503.5 89.5Q525 95 545 113.5Q565 132 588.5 168Q612 204 646 266H739L698 0H28V57L438 696H306Q272 696 250 684.5Q228 673 212 652.5Q196 632 182.5 604Q169 576 153 542H61L66 780H706V722L294 84ZM174 1030H275L394 938L513 1030H614L455 822H333Z" glyph-name="Zcaron" horiz-adv-x="758" unicode="&#381;" /><glyph d="M453 84Q482 84 503.5 89.5Q525 95 545 113.5Q565 132 588.5 168Q612 204 646 266H739L698 0H28V57L438 696H306Q272 696 250 684.5Q228 673 212 652.5Q196 632 182.5 604Q169 576 153 542H61L66 780H706V722L294 84ZM278 939Q278 987 307.5 1019Q337 1051 393 1051Q450 1051 480 1019Q510 987 510 939Q510 892 480 860.5Q450 829 393 829Q337 829 307.5 860.5Q278 892 278 939Z" glyph-name="Zdotaccent" horiz-adv-x="758" unicode="&#379;" /><glyph d="M545 150Q545 129 549.5 115Q554 101 574 101Q581 101 594 102.5Q607 104 618 107L628 52Q602 26 558 8Q514 -10 466 -10Q415 -10 386.5 13Q358 36 342 77Q314 41 275 17.5Q236 -6 173 -6Q107 -6 67.5 31Q28 68 28 136Q28 169 38.5 191.5Q49 214 67 230Q85 246 109.5 257Q134 268 163 277L339 333V396Q339 455 324 475Q309 495 282 495Q256 495 244 478Q232 461 232 435Q232 417 235 399.5Q238 382 243 363L109 344Q85 352 72 371Q59 390 59 416Q59 453 76.5 480.5Q94 508 126 526.5Q158 545 201.5 554Q245 563 298 563Q356 563 402 553.5Q448 544 479.5 519.5Q511 495 528 451Q545 407 545 338ZM292 114Q318 114 339 122V275L275 250Q250 239 241 223.5Q232 208 232 183Q232 114 292 114Z" glyph-name="a" horiz-adv-x="628" unicode="a" /><glyph d="M424 89Q400 45 358 17.5Q316 -10 256 -10Q204 -10 161.5 7Q119 24 89 57.5Q59 91 43 140Q27 189 27 252Q27 324 50 381.5Q73 439 113 479.5Q153 520 207 541.5Q261 563 322 563Q353 563 378.5 559Q404 555 426 547Q448 539 467.5 526.5Q487 514 507 498L554 560H635L630 436V150Q630 124 637 109.5Q644 95 666 95H688V22L466 -10H419ZM357 487Q302 487 271.5 436Q241 385 241 304Q241 217 276.5 170Q312 123 367 123Q381 123 394.5 124.5Q408 126 424 132V412Q424 443 410.5 465Q397 487 357 487Z" glyph-name="a.school" horiz-adv-x="718" unicode="&#57681;" /><glyph d="M215 217H386L303 391ZM421 144H181L178 138Q173 127 171.5 121.5Q170 116 170 110Q170 91 186.5 85.5Q203 80 243 75V0H10V75Q26 81 36 85.5Q46 90 52 95.5Q58 101 62 107Q66 113 70 121L253 481L203 587H433L662 121Q666 113 670 107Q674 101 681 95.5Q688 90 698 85.5Q708 81 724 75V0H359V75Q399 80 415.5 85.5Q432 91 432 110Q432 116 430.5 121.5Q429 127 424 138Z" glyph-name="a.smcp" horiz-adv-x="734" unicode="&#57857;" /><glyph d="M390 461Q390 428 410 428Q422 428 437 432L444 391Q426 373 394.5 359Q363 345 330 345Q292 345 266 361.5Q240 378 228 406Q211 374 178 361.5Q145 349 113 349Q69 349 41 374.5Q13 400 13 448Q13 472 20.5 488Q28 504 40.5 515.5Q53 527 70 535Q87 543 106 549L226 588V638Q226 675 217.5 688Q209 701 195 701Q181 701 175 690Q169 679 169 663Q169 648 171 635.5Q173 623 177 608L74 593Q56 597 45.5 613Q35 629 35 649Q35 701 83.5 726.5Q132 752 209 752Q252 752 285.5 745.5Q319 739 342 721Q365 703 377.5 671Q390 639 390 588ZM203 441Q217 441 226 446V547L203 536Q186 527 178.5 516.5Q171 506 171 485Q171 462 180 451.5Q189 441 203 441Z" glyph-name="a.superior" horiz-adv-x="454" unicode="&#58209;" /><glyph d="M294 418Q283 387 248.5 366Q214 345 171 345Q138 345 109.5 357Q81 369 60 392.5Q39 416 27 451Q15 486 15 532Q15 583 30.5 624Q46 665 73.5 693.5Q101 722 139.5 737Q178 752 223 752Q263 752 298.5 741Q334 730 362 704L395 747H460L458 658V463Q458 445 462 434Q466 423 477 423H492V368L330 345H290ZM250 693Q218 693 202 660.5Q186 628 186 576Q186 511 206 478.5Q226 446 256 446Q269 446 277 447.5Q285 449 294 453V634Q294 661 283 677Q272 693 250 693Z" glyph-name="a.superiorschool" horiz-adv-x="512" /><glyph d="M543 800 328 592H230L328 800ZM545 150Q545 129 549.5 115Q554 101 574 101Q581 101 594 102.5Q607 104 618 107L628 52Q602 26 558 8Q514 -10 466 -10Q415 -10 386.5 13Q358 36 342 77Q314 41 275 17.5Q236 -6 173 -6Q107 -6 67.5 31Q28 68 28 136Q28 169 38.5 191.5Q49 214 67 230Q85 246 109.5 257Q134 268 163 277L339 333V396Q339 455 324 475Q309 495 282 495Q256 495 244 478Q232 461 232 435Q232 417 235 399.5Q238 382 243 363L109 344Q85 352 72 371Q59 390 59 416Q59 453 76.5 480.5Q94 508 126 526.5Q158 545 201.5 554Q245 563 298 563Q356 563 402 553.5Q448 544 479.5 519.5Q511 495 528 451Q545 407 545 338ZM292 114Q318 114 339 122V275L275 250Q250 239 241 223.5Q232 208 232 183Q232 114 292 114Z" glyph-name="aacute" horiz-adv-x="628" unicode="&#225;" /><glyph d="M591 800 376 592H278L376 800ZM424 89Q400 45 358 17.5Q316 -10 256 -10Q204 -10 161.5 7Q119 24 89 57.5Q59 91 43 140Q27 189 27 252Q27 324 50 381.5Q73 439 113 479.5Q153 520 207 541.5Q261 563 322 563Q353 563 378.5 559Q404 555 426 547Q448 539 467.5 526.5Q487 514 507 498L554 560H635L630 436V150Q630 124 637 109.5Q644 95 666 95H688V22L466 -10H419ZM357 487Q302 487 271.5 436Q241 385 241 304Q241 217 276.5 170Q312 123 367 123Q381 123 394.5 124.5Q408 126 424 132V412Q424 443 410.5 465Q397 487 357 487Z" glyph-name="aacute.school" horiz-adv-x="718" unicode="&#57683;" /><glyph d="M215 217H386L303 391ZM421 144H181L178 138Q173 127 171.5 121.5Q170 116 170 110Q170 91 186.5 85.5Q203 80 243 75V0H10V75Q26 81 36 85.5Q46 90 52 95.5Q58 101 62 107Q66 113 70 121L253 481L203 587H433L662 121Q666 113 670 107Q674 101 681 95.5Q688 90 698 85.5Q708 81 724 75V0H359V75Q399 80 415.5 85.5Q432 91 432 110Q432 116 430.5 121.5Q429 127 424 138ZM574 833 359 625H261L359 833Z" glyph-name="aacute.smcp" horiz-adv-x="734" unicode="&#57889;" /><glyph d="M294 598Q246 598 212 612Q178 626 156.5 652Q135 678 125.5 715.5Q116 753 116 800H179Q183 774 194 758Q205 742 220.5 733Q236 724 255 721Q274 718 294 718Q314 718 333 721Q352 724 367.5 733Q383 742 394 758Q405 774 409 800H472Q472 753 462.5 715.5Q453 678 431.5 652Q410 626 376 612Q342 598 294 598ZM545 150Q545 129 549.5 115Q554 101 574 101Q581 101 594 102.5Q607 104 618 107L628 52Q602 26 558 8Q514 -10 466 -10Q415 -10 386.5 13Q358 36 342 77Q314 41 275 17.5Q236 -6 173 -6Q107 -6 67.5 31Q28 68 28 136Q28 169 38.5 191.5Q49 214 67 230Q85 246 109.5 257Q134 268 163 277L339 333V396Q339 455 324 475Q309 495 282 495Q256 495 244 478Q232 461 232 435Q232 417 235 399.5Q238 382 243 363L109 344Q85 352 72 371Q59 390 59 416Q59 453 76.5 480.5Q94 508 126 526.5Q158 545 201.5 554Q245 563 298 563Q356 563 402 553.5Q448 544 479.5 519.5Q511 495 528 451Q545 407 545 338ZM292 114Q318 114 339 122V275L275 250Q250 239 241 223.5Q232 208 232 183Q232 114 292 114Z" glyph-name="abreve" horiz-adv-x="628" unicode="&#259;" /><glyph d="M342 598Q294 598 260 612Q226 626 204.5 652Q183 678 173.5 715.5Q164 753 164 800H227Q231 774 242 758Q253 742 268.5 733Q284 724 303 721Q322 718 342 718Q362 718 381 721Q400 724 415.5 733Q431 742 442 758Q453 774 457 800H520Q520 753 510.5 715.5Q501 678 479.5 652Q458 626 424 612Q390 598 342 598ZM424 89Q400 45 358 17.5Q316 -10 256 -10Q204 -10 161.5 7Q119 24 89 57.5Q59 91 43 140Q27 189 27 252Q27 324 50 381.5Q73 439 113 479.5Q153 520 207 541.5Q261 563 322 563Q353 563 378.5 559Q404 555 426 547Q448 539 467.5 526.5Q487 514 507 498L554 560H635L630 436V150Q630 124 637 109.5Q644 95 666 95H688V22L466 -10H419ZM357 487Q302 487 271.5 436Q241 385 241 304Q241 217 276.5 170Q312 123 367 123Q381 123 394.5 124.5Q408 126 424 132V412Q424 443 410.5 465Q397 487 357 487Z" glyph-name="abreve.school" horiz-adv-x="718" unicode="&#57690;" /><glyph d="M332 631Q284 631 250 645Q216 659 194.5 685Q173 711 163.5 748.5Q154 786 154 833H217Q221 807 232 791Q243 775 258.5 766Q274 757 293 754Q312 751 332 751Q352 751 371 754Q390 757 405.5 766Q421 775 432 791Q443 807 447 833H510Q510 786 500.5 748.5Q491 711 469.5 685Q448 659 414 645Q380 631 332 631ZM215 217H386L303 391ZM421 144H181L178 138Q173 127 171.5 121.5Q170 116 170 110Q170 91 186.5 85.5Q203 80 243 75V0H10V75Q26 81 36 85.5Q46 90 52 95.5Q58 101 62 107Q66 113 70 121L253 481L203 587H433L662 121Q666 113 670 107Q674 101 681 95.5Q688 90 698 85.5Q708 81 724 75V0H359V75Q399 80 415.5 85.5Q432 91 432 110Q432 116 430.5 121.5Q429 127 424 138Z" glyph-name="abreve.smcp" horiz-adv-x="734" unicode="&#57897;" /><glyph d="M514 592H413L294 684L175 592H74L233 800H355ZM545 150Q545 129 549.5 115Q554 101 574 101Q581 101 594 102.5Q607 104 618 107L628 52Q602 26 558 8Q514 -10 466 -10Q415 -10 386.5 13Q358 36 342 77Q314 41 275 17.5Q236 -6 173 -6Q107 -6 67.5 31Q28 68 28 136Q28 169 38.5 191.5Q49 214 67 230Q85 246 109.5 257Q134 268 163 277L339 333V396Q339 455 324 475Q309 495 282 495Q256 495 244 478Q232 461 232 435Q232 417 235 399.5Q238 382 243 363L109 344Q85 352 72 371Q59 390 59 416Q59 453 76.5 480.5Q94 508 126 526.5Q158 545 201.5 554Q245 563 298 563Q356 563 402 553.5Q448 544 479.5 519.5Q511 495 528 451Q545 407 545 338ZM292 114Q318 114 339 122V275L275 250Q250 239 241 223.5Q232 208 232 183Q232 114 292 114Z" glyph-name="acircumflex" horiz-adv-x="628" unicode="&#226;" /><glyph d="M424 89Q400 45 358 17.5Q316 -10 256 -10Q204 -10 161.5 7Q119 24 89 57.5Q59 91 43 140Q27 189 27 252Q27 324 50 381.5Q73 439 113 479.5Q153 520 207 541.5Q261 563 322 563Q353 563 378.5 559Q404 555 426 547Q448 539 467.5 526.5Q487 514 507 498L554 560H635L630 436V150Q630 124 637 109.5Q644 95 666 95H688V22L466 -10H419ZM357 487Q302 487 271.5 436Q241 385 241 304Q241 217 276.5 170Q312 123 367 123Q381 123 394.5 124.5Q408 126 424 132V412Q424 443 410.5 465Q397 487 357 487ZM562 592H461L342 684L223 592H122L281 800H403Z" glyph-name="acircumflex.school" horiz-adv-x="718" unicode="&#57684;" /><glyph d="M215 217H386L303 391ZM421 144H181L178 138Q173 127 171.5 121.5Q170 116 170 110Q170 91 186.5 85.5Q203 80 243 75V0H10V75Q26 81 36 85.5Q46 90 52 95.5Q58 101 62 107Q66 113 70 121L253 481L203 587H433L662 121Q666 113 670 107Q674 101 681 95.5Q688 90 698 85.5Q708 81 724 75V0H359V75Q399 80 415.5 85.5Q432 91 432 110Q432 116 430.5 121.5Q429 127 424 138ZM548 625H447L328 717L209 625H108L267 833H389Z" glyph-name="acircumflex.smcp" horiz-adv-x="734" unicode="&#57891;" /><glyph d="M436 800 221 592H123L221 800Z" glyph-name="acute" horiz-adv-x="600" unicode="&#180;" /><glyph d="M436 1030 221 822H123L221 1030Z" glyph-name="acute.cap" horiz-adv-x="600" unicode="&#58402;" /><glyph d="M311 703Q311 725 319 744Q327 763 340.5 777Q354 791 372 799.5Q390 808 410 808Q431 808 450 799.5Q469 791 482.5 777Q496 763 504 744Q512 725 512 703Q512 682 504 663.5Q496 645 482.5 631Q469 617 450 609Q431 601 410 601Q390 601 372 609Q354 617 340.5 631Q327 645 319 663.5Q311 682 311 703ZM74 703Q74 725 82 744Q90 763 103.5 777Q117 791 135 799.5Q153 808 173 808Q194 808 212.5 799.5Q231 791 245 777Q259 763 267 744Q275 725 275 703Q275 682 267 663.5Q259 645 245 631Q231 617 212.5 609Q194 601 173 601Q153 601 135 609Q117 617 103.5 631Q90 645 82 663.5Q74 682 74 703ZM545 150Q545 129 549.5 115Q554 101 574 101Q581 101 594 102.5Q607 104 618 107L628 52Q602 26 558 8Q514 -10 466 -10Q415 -10 386.5 13Q358 36 342 77Q314 41 275 17.5Q236 -6 173 -6Q107 -6 67.5 31Q28 68 28 136Q28 169 38.5 191.5Q49 214 67 230Q85 246 109.5 257Q134 268 163 277L339 333V396Q339 455 324 475Q309 495 282 495Q256 495 244 478Q232 461 232 435Q232 417 235 399.5Q238 382 243 363L109 344Q85 352 72 371Q59 390 59 416Q59 453 76.5 480.5Q94 508 126 526.5Q158 545 201.5 554Q245 563 298 563Q356 563 402 553.5Q448 544 479.5 519.5Q511 495 528 451Q545 407 545 338ZM292 114Q318 114 339 122V275L275 250Q250 239 241 223.5Q232 208 232 183Q232 114 292 114Z" glyph-name="adieresis" horiz-adv-x="628" unicode="&#228;" /><glyph d="M424 89Q400 45 358 17.5Q316 -10 256 -10Q204 -10 161.5 7Q119 24 89 57.5Q59 91 43 140Q27 189 27 252Q27 324 50 381.5Q73 439 113 479.5Q153 520 207 541.5Q261 563 322 563Q353 563 378.5 559Q404 555 426 547Q448 539 467.5 526.5Q487 514 507 498L554 560H635L630 436V150Q630 124 637 109.5Q644 95 666 95H688V22L466 -10H419ZM357 487Q302 487 271.5 436Q241 385 241 304Q241 217 276.5 170Q312 123 367 123Q381 123 394.5 124.5Q408 126 424 132V412Q424 443 410.5 465Q397 487 357 487ZM360 703Q360 725 368 744Q376 763 389.5 777Q403 791 421 799.5Q439 808 459 808Q480 808 499 799.5Q518 791 531.5 777Q545 763 553 744Q561 725 561 703Q561 682 553 663.5Q545 645 531.5 631Q518 617 499 609Q480 601 459 601Q439 601 421 609Q403 617 389.5 631Q376 645 368 663.5Q360 682 360 703ZM123 703Q123 725 131 744Q139 763 152.5 777Q166 791 184 799.5Q202 808 222 808Q243 808 261.5 799.5Q280 791 294 777Q308 763 316 744Q324 725 324 703Q324 682 316 663.5Q308 645 294 631Q280 617 261.5 609Q243 601 222 601Q202 601 184 609Q166 617 152.5 631Q139 645 131 663.5Q123 682 123 703Z" glyph-name="adieresis.school" horiz-adv-x="718" unicode="&#57685;" /><glyph d="M215 217H386L303 391ZM421 144H181L178 138Q173 127 171.5 121.5Q170 116 170 110Q170 91 186.5 85.5Q203 80 243 75V0H10V75Q26 81 36 85.5Q46 90 52 95.5Q58 101 62 107Q66 113 70 121L253 481L203 587H433L662 121Q666 113 670 107Q674 101 681 95.5Q688 90 698 85.5Q708 81 724 75V0H359V75Q399 80 415.5 85.5Q432 91 432 110Q432 116 430.5 121.5Q429 127 424 138ZM351 736Q351 758 359 777Q367 796 380.5 810Q394 824 412 832.5Q430 841 450 841Q471 841 490 832.5Q509 824 522.5 810Q536 796 544 777Q552 758 552 736Q552 715 544 696.5Q536 678 522.5 664Q509 650 490 642Q471 634 450 634Q430 634 412 642Q394 650 380.5 664Q367 678 359 696.5Q351 715 351 736ZM114 736Q114 758 122 777Q130 796 143.5 810Q157 824 175 832.5Q193 841 213 841Q234 841 252.5 832.5Q271 824 285 810Q299 796 307 777Q315 758 315 736Q315 715 307 696.5Q299 678 285 664Q271 650 252.5 642Q234 634 213 634Q193 634 175 642Q157 650 143.5 664Q130 678 122 696.5Q114 715 114 736Z" glyph-name="adieresis.smcp" horiz-adv-x="734" unicode="&#57892;" /><glyph d="M296 114Q314 114 330.5 119Q347 124 363 135Q352 160 345.5 189.5Q339 219 339 253L286 248Q259 245 245.5 227.5Q232 210 232 183Q232 148 249 131Q266 114 296 114ZM615 491Q573 491 552.5 451.5Q532 412 530 328L687 345Q689 491 615 491ZM633 563Q691 563 735 545.5Q779 528 808.5 498Q838 468 853 427Q868 386 868 340V310L530 274Q538 213 580 178Q622 143 683 143Q733 143 766.5 160.5Q800 178 826 210L871 184Q859 146 838.5 111Q818 76 787 49Q756 22 714 6Q672 -10 617 -10Q548 -10 491 13Q434 36 396 82Q370 56 344.5 39Q319 22 293 12Q267 2 240 -2Q213 -6 184 -6Q109 -6 68.5 31Q28 68 28 136Q28 211 66.5 247Q105 283 168 290L339 308V396Q339 455 324 475Q309 495 282 495Q256 495 244 478Q232 461 232 435Q232 417 235 399.5Q238 382 243 363L109 344Q85 352 72 371Q59 390 59 416Q59 453 76.5 480.5Q94 508 126 526.5Q158 545 201.5 554Q245 563 298 563Q358 563 399.5 550Q441 537 467 506Q500 533 542 548Q584 563 633 563Z" glyph-name="ae" horiz-adv-x="898" unicode="&#230;" /><glyph d="M242 269H416L361 507H359ZM208 196 195 172Q184 151 179 137.5Q174 124 174 113Q174 92 186.5 84.5Q199 77 239 75V0H10V75Q40 86 50.5 96Q61 106 69 121L249 482Q235 500 210.5 505Q186 510 154 512V587H940L945 377H857Q849 404 841.5 428Q834 452 822 470Q810 488 791.5 498.5Q773 509 744 509H585L623 330H670Q700 330 711 349.5Q722 369 729 407H800V179H729Q722 218 711 237.5Q700 257 670 257H638L664 139Q668 121 671.5 109Q675 97 682.5 90.5Q690 84 703 81Q716 78 738 78Q765 78 784 84.5Q803 91 819.5 106.5Q836 122 852 149.5Q868 177 891 219H982L946 0H356V75Q404 77 424.5 88Q445 99 445 127Q445 138 443 148L432 196Z" glyph-name="ae.smcp" horiz-adv-x="1014" unicode="&#57905;" /><glyph d="M199 396Q210 412 222.5 434Q235 456 246 486Q257 516 264 553.5Q271 591 271 638Q271 667 261.5 678.5Q252 690 238 690Q220 690 209.5 660Q199 630 199 549ZM240 -14Q152 -14 107.5 23.5Q63 61 63 131V164L17 134V232Q27 239 38.5 247Q50 255 63 266V524Q61 582 72.5 629Q84 676 106 709Q128 742 159.5 760Q191 778 231 778Q302 778 334.5 736Q367 694 367 619Q367 559 351.5 506.5Q336 454 312 409.5Q288 365 258 327.5Q228 290 199 260V149Q199 110 212 96Q225 82 259 81Q285 81 305 87.5Q325 94 334 102L358 12Q351 7 337 2.5Q323 -2 306.5 -6Q290 -10 272.5 -12Q255 -14 240 -14Z" glyph-name="afii61289" horiz-adv-x="401" unicode="&#8467;" /><glyph d="M273 800 357 592H259L44 800ZM545 150Q545 129 549.5 115Q554 101 574 101Q581 101 594 102.5Q607 104 618 107L628 52Q602 26 558 8Q514 -10 466 -10Q415 -10 386.5 13Q358 36 342 77Q314 41 275 17.5Q236 -6 173 -6Q107 -6 67.5 31Q28 68 28 136Q28 169 38.5 191.5Q49 214 67 230Q85 246 109.5 257Q134 268 163 277L339 333V396Q339 455 324 475Q309 495 282 495Q256 495 244 478Q232 461 232 435Q232 417 235 399.5Q238 382 243 363L109 344Q85 352 72 371Q59 390 59 416Q59 453 76.5 480.5Q94 508 126 526.5Q158 545 201.5 554Q245 563 298 563Q356 563 402 553.5Q448 544 479.5 519.5Q511 495 528 451Q545 407 545 338ZM292 114Q318 114 339 122V275L275 250Q250 239 241 223.5Q232 208 232 183Q232 114 292 114Z" glyph-name="agrave" horiz-adv-x="628" unicode="&#224;" /><glyph d="M311 800 395 592H297L82 800ZM424 89Q400 45 358 17.5Q316 -10 256 -10Q204 -10 161.5 7Q119 24 89 57.5Q59 91 43 140Q27 189 27 252Q27 324 50 381.5Q73 439 113 479.5Q153 520 207 541.5Q261 563 322 563Q353 563 378.5 559Q404 555 426 547Q448 539 467.5 526.5Q487 514 507 498L554 560H635L630 436V150Q630 124 637 109.5Q644 95 666 95H688V22L466 -10H419ZM357 487Q302 487 271.5 436Q241 385 241 304Q241 217 276.5 170Q312 123 367 123Q381 123 394.5 124.5Q408 126 424 132V412Q424 443 410.5 465Q397 487 357 487Z" glyph-name="agrave.school" horiz-adv-x="718" unicode="&#57682;" /><glyph d="M294 833 378 625H280L65 833ZM215 217H386L303 391ZM421 144H181L178 138Q173 127 171.5 121.5Q170 116 170 110Q170 91 186.5 85.5Q203 80 243 75V0H10V75Q26 81 36 85.5Q46 90 52 95.5Q58 101 62 107Q66 113 70 121L253 481L203 587H433L662 121Q666 113 670 107Q674 101 681 95.5Q688 90 698 85.5Q708 81 724 75V0H359V75Q399 80 415.5 85.5Q432 91 432 110Q432 116 430.5 121.5Q429 127 424 138Z" glyph-name="agrave.smcp" horiz-adv-x="734" unicode="&#57890;" /><glyph d="M221 -30Q275 -33 310 -43Q345 -53 365.5 -68.5Q386 -84 394 -105Q402 -126 402 -150Q402 -176 391.5 -195Q381 -214 364 -226Q347 -238 326 -244Q305 -250 283 -250Q251 -250 227.5 -241Q204 -232 192 -222L209 -178Q222 -186 239 -192.5Q256 -199 273 -199Q289 -199 298 -195Q307 -191 307 -179Q307 -157 275.5 -150Q244 -143 199 -141Z" glyph-name="altcedilla" horiz-adv-x="600" unicode="&#58390;" /><glyph d="M138 720H450V618H138ZM545 150Q545 129 549.5 115Q554 101 574 101Q581 101 594 102.5Q607 104 618 107L628 52Q602 26 558 8Q514 -10 466 -10Q415 -10 386.5 13Q358 36 342 77Q314 41 275 17.5Q236 -6 173 -6Q107 -6 67.5 31Q28 68 28 136Q28 169 38.5 191.5Q49 214 67 230Q85 246 109.5 257Q134 268 163 277L339 333V396Q339 455 324 475Q309 495 282 495Q256 495 244 478Q232 461 232 435Q232 417 235 399.5Q238 382 243 363L109 344Q85 352 72 371Q59 390 59 416Q59 453 76.5 480.5Q94 508 126 526.5Q158 545 201.5 554Q245 563 298 563Q356 563 402 553.5Q448 544 479.5 519.5Q511 495 528 451Q545 407 545 338ZM292 114Q318 114 339 122V275L275 250Q250 239 241 223.5Q232 208 232 183Q232 114 292 114Z" glyph-name="amacron" horiz-adv-x="628" unicode="&#257;" /><glyph d="M186 720H498V618H186ZM424 89Q400 45 358 17.5Q316 -10 256 -10Q204 -10 161.5 7Q119 24 89 57.5Q59 91 43 140Q27 189 27 252Q27 324 50 381.5Q73 439 113 479.5Q153 520 207 541.5Q261 563 322 563Q353 563 378.5 559Q404 555 426 547Q448 539 467.5 526.5Q487 514 507 498L554 560H635L630 436V150Q630 124 637 109.5Q644 95 666 95H688V22L466 -10H419ZM357 487Q302 487 271.5 436Q241 385 241 304Q241 217 276.5 170Q312 123 367 123Q381 123 394.5 124.5Q408 126 424 132V412Q424 443 410.5 465Q397 487 357 487Z" glyph-name="amacron.school" horiz-adv-x="718" unicode="&#57689;" /><glyph d="M215 217H386L303 391ZM421 144H181L178 138Q173 127 171.5 121.5Q170 116 170 110Q170 91 186.5 85.5Q203 80 243 75V0H10V75Q26 81 36 85.5Q46 90 52 95.5Q58 101 62 107Q66 113 70 121L253 481L203 587H433L662 121Q666 113 670 107Q674 101 681 95.5Q688 90 698 85.5Q708 81 724 75V0H359V75Q399 80 415.5 85.5Q432 91 432 110Q432 116 430.5 121.5Q429 127 424 138ZM169 753H481V651H169Z" glyph-name="amacron.smcp" horiz-adv-x="734" unicode="&#57896;" /><glyph d="M335 637Q335 614 340.5 595Q346 576 356 559Q366 542 380 526Q394 510 410 494Q439 517 453.5 545Q468 573 468 620Q468 660 450.5 686.5Q433 713 397 713Q371 713 353 694.5Q335 676 335 637ZM405 82Q430 82 458 87Q486 92 510 103L261 353Q250 338 242 314Q234 290 234 251Q234 171 279.5 126.5Q325 82 405 82ZM771 297Q766 260 752 230.5Q738 201 721 184L766 139Q795 110 819 95Q843 80 881 76V0H635Q617 8 599 20Q581 32 569 43Q529 17 461.5 3.5Q394 -10 320 -10Q258 -10 204 2.5Q150 15 109.5 41Q69 67 45.5 106Q22 145 22 199Q22 273 68 327.5Q114 382 215 406Q203 419 190.5 436Q178 453 168 474Q158 495 151.5 521Q145 547 145 579Q145 627 163 666Q181 705 214 732.5Q247 760 295 775Q343 790 403 790Q517 790 577 746.5Q637 703 637 623Q637 589 623.5 560.5Q610 532 586 509Q562 486 530 469.5Q498 453 461 444L661 243Q670 258 675 275Q680 292 680 314Q680 332 677 344.5Q674 357 665.5 364.5Q657 372 641 375.5Q625 379 599 380V456H856V380Q829 379 814 375Q799 371 790.5 362Q782 353 778 337.5Q774 322 771 297Z" glyph-name="ampersand" horiz-adv-x="893" unicode="&amp;" /><glyph d="M318 480Q318 450 338 426Q358 402 389 374Q405 385 413 409Q421 433 421 462Q421 491 407 510.5Q393 530 365 530Q341 530 329.5 514.5Q318 499 318 480ZM358 75Q373 75 391 76Q409 77 426 81L233 252Q225 238 222 222.5Q219 207 219 194Q219 139 254 107Q289 75 358 75ZM695 262Q678 203 644 155L685 121Q699 109 710 100Q721 91 732.5 85Q744 79 756.5 75.5Q769 72 786 71V0H539Q531 3 517 11.5Q503 20 486 31Q393 -10 280 -10Q229 -10 184 0Q139 10 105.5 30Q72 50 52.5 80Q33 110 33 151Q33 208 72.5 243Q112 278 189 294Q163 321 148 352Q133 383 133 424Q133 465 149.5 497Q166 529 196 551.5Q226 574 268.5 585.5Q311 597 363 597Q410 597 448.5 589Q487 581 514.5 565Q542 549 557 525Q572 501 572 469Q572 416 538 384.5Q504 353 435 336L590 202Q604 232 604 261Q604 285 594.5 295.5Q585 306 548 306V371H762V306Q707 306 695 262Z" glyph-name="ampersand.smcp" horiz-adv-x="823" unicode="&#58369;" /><glyph d="M68 350 247 830H353L178 350L353 -130H247Z" glyph-name="anglebracketleft" horiz-adv-x="413" unicode="&#12296;" /><glyph d="M68 381 247 861H353L178 381L353 -99H247Z" glyph-name="anglebracketleft.cap" horiz-adv-x="413" unicode="&#58519;" /><glyph d="M70 282 245 680H347L178 282L347 -116H245Z" glyph-name="anglebracketleft.smcp" horiz-adv-x="410" unicode="&#58527;" /><glyph d="M165 -130H60L235 350L60 830H165L344 350Z" glyph-name="anglebracketright" horiz-adv-x="413" unicode="&#12297;" /><glyph d="M165 -99H60L235 381L60 861H165L344 381Z" glyph-name="anglebracketright.cap" horiz-adv-x="413" unicode="&#58520;" /><glyph d="M165 -116H63L232 282L63 680H165L340 282Z" glyph-name="anglebracketright.smcp" horiz-adv-x="410" unicode="&#58512;" /><glyph d="M178 138Q173 127 171.5 121.5Q170 116 170 110Q170 91 186.5 85.5Q203 80 243 75V0H10V75Q26 81 36 85.5Q46 90 52 95.5Q58 101 62 107Q66 113 70 121L253 481L203 587H433L662 121Q666 113 670 107Q674 101 681 95.5Q688 90 698 85.5Q708 81 724 75V0H359V75Q399 80 415.5 85.5Q432 91 432 110Q432 116 430.5 121.5Q429 127 424 138L303 391Z" glyph-name="anocross.smcp" horiz-adv-x="734" unicode="&#57888;" /><glyph d="M437 -7Q399 -2 377.5 20Q356 42 342 77Q314 41 275 17.5Q236 -6 173 -6Q107 -6 67.5 31Q28 68 28 136Q28 169 38.5 191.5Q49 214 67 230Q85 246 109.5 257Q134 268 163 277L339 333V396Q339 455 323 475Q307 495 280 495Q254 495 242 478Q230 461 230 435Q230 417 233 399.5Q236 382 241 363L107 344Q83 352 70 371Q57 390 57 416Q57 453 74.5 480.5Q92 508 124 526.5Q156 545 199.5 554Q243 563 296 563Q354 563 400 553.5Q446 544 478.5 519.5Q511 495 528 451Q545 407 545 338V150Q545 129 549.5 115Q554 101 574 101Q581 101 594 102.5Q607 104 618 107L628 52Q600 35 575 18Q550 1 531 -18.5Q512 -38 500.5 -60.5Q489 -83 489 -110Q489 -140 499.5 -155.5Q510 -171 537 -171Q555 -171 568.5 -164.5Q582 -158 605 -141L617 -189Q599 -212 561.5 -231Q524 -250 483 -250Q423 -250 389 -220Q355 -190 355 -138Q355 -102 373.5 -68.5Q392 -35 437 -7ZM292 114Q318 114 339 122V275L275 250Q250 239 241 223.5Q232 208 232 183Q232 114 292 114Z" glyph-name="aogonek" horiz-adv-x="628" unicode="&#261;" /><glyph d="M689 22Q650 4 628 -16.5Q606 -37 595.5 -55.5Q585 -74 582.5 -90Q580 -106 580 -116Q580 -142 590.5 -156.5Q601 -171 628 -171Q646 -171 660 -164.5Q674 -158 696 -141L709 -189Q690 -212 653 -231Q616 -250 574 -250Q514 -250 480 -220Q446 -190 446 -138Q446 -99 467.5 -62.5Q489 -26 546 2L466 -10H419L424 89Q400 45 358 17.5Q316 -10 256 -10Q204 -10 161.5 7Q119 24 89 57.5Q59 91 43 140Q27 189 27 252Q27 324 50 381.5Q73 439 113 479.5Q153 520 207 541.5Q261 563 322 563Q353 563 378.5 559Q404 555 426 547Q448 539 467.5 526.5Q487 514 507 498L554 560H635L630 436V150Q630 124 637 109.5Q644 95 666 95H689ZM357 487Q302 487 271.5 436Q241 385 241 304Q241 217 276.5 170Q312 123 367 123Q381 123 394.5 124.5Q408 126 424 132V412Q424 443 410.5 465Q397 487 357 487Z" glyph-name="aogonek.school" horiz-adv-x="718" unicode="&#57680;" /><glyph d="M215 217H386L303 391ZM359 0V75Q399 80 415.5 85.5Q432 91 432 110Q432 116 430.5 121.5Q429 127 424 138L421 144H181L178 138Q173 127 171.5 121.5Q170 116 170 110Q170 91 186.5 85.5Q203 80 243 75V0H10V75Q26 81 36 85.5Q46 90 52 95.5Q58 101 62 107Q66 113 70 121L253 481L203 587H433L662 121Q666 113 670 107Q674 101 681 95.5Q688 90 698 85.5Q708 81 724 75V0Q689 -16 668 -32.5Q647 -49 636 -64.5Q625 -80 621 -93.5Q617 -107 617 -116Q617 -142 627.5 -156.5Q638 -171 666 -171Q684 -171 697.5 -164.5Q711 -158 733 -141L746 -189Q727 -212 690 -231Q653 -250 612 -250Q551 -250 517.5 -221Q484 -192 484 -145Q484 -124 493 -102.5Q502 -81 517.5 -62Q533 -43 555.5 -27Q578 -11 605 0Z" glyph-name="aogonek.smcp" horiz-adv-x="734" unicode="&#57903;" /><glyph d="M486 238Q507 238 526.5 247Q546 256 560 267.5Q574 279 583 288.5Q592 298 592 299L641 208Q625 187 601 170Q581 156 550.5 144.5Q520 133 480 133Q436 133 403 143.5Q370 154 341 167Q312 180 282 190.5Q252 201 214 201Q193 201 173.5 192Q154 183 140 171.5Q126 160 117 150.5Q108 141 108 140L59 230Q75 251 99 268Q119 282 149 294Q179 306 220 306Q264 306 297 295.5Q330 285 359 272Q388 259 418 248.5Q448 238 486 238ZM486 411Q507 411 526.5 420Q546 429 560 440.5Q574 452 583 461.5Q592 471 592 472L641 381Q625 360 601 343Q581 329 550.5 317.5Q520 306 480 306Q436 306 403 316.5Q370 327 341 340Q312 353 282 363.5Q252 374 214 374Q193 374 173.5 365Q154 356 140 344.5Q126 333 117 323.5Q108 314 108 313L59 404Q75 424 99 441Q119 455 149 467Q179 479 220 479Q264 479 297 468.5Q330 458 359 445Q388 432 418 421.5Q448 411 486 411Z" glyph-name="approxequal" horiz-adv-x="700" unicode="&#8776;" /><glyph d="M486 332Q507 332 526.5 341Q546 350 560 361.5Q574 373 583 382.5Q592 392 592 393L641 302Q625 281 601 264Q581 250 550.5 238.5Q520 227 480 227Q436 227 403 237.5Q370 248 341 261Q312 274 282 284.5Q252 295 214 295Q193 295 173.5 286Q154 277 140 265.5Q126 254 117 244.5Q108 235 108 234L59 324Q75 345 99 362Q119 376 149 388Q179 400 220 400Q264 400 297 389.5Q330 379 359 366Q388 353 418 342.5Q448 332 486 332ZM486 505Q507 505 526.5 514Q546 523 560 534.5Q574 546 583 555.5Q592 565 592 566L641 475Q625 454 601 437Q581 423 550.5 411.5Q520 400 480 400Q436 400 403 410.5Q370 421 341 434Q312 447 282 457.5Q252 468 214 468Q193 468 173.5 459Q154 450 140 438.5Q126 427 117 417.5Q108 408 108 407L59 498Q75 518 99 535Q119 549 149 561Q179 573 220 573Q264 573 297 562.5Q330 552 359 539Q388 526 418 515.5Q448 505 486 505Z" glyph-name="approxequal.cap" horiz-adv-x="700" unicode="&#61990;" /><glyph d="M343 705Q343 725 330.5 738.5Q318 752 294 752Q269 752 257 738.5Q245 725 245 705Q245 685 257 671Q269 657 294 657Q318 657 330.5 671Q343 685 343 705ZM170 705Q170 729 179 749.5Q188 770 204.5 785.5Q221 801 243.5 810Q266 819 294 819Q322 819 344.5 810Q367 801 383.5 785.5Q400 770 409 749.5Q418 729 418 705Q418 681 409 660.5Q400 640 383.5 624.5Q367 609 344.5 600Q322 591 294 591Q266 591 243.5 600Q221 609 204.5 624.5Q188 640 179 660.5Q170 681 170 705ZM545 150Q545 129 549.5 115Q554 101 574 101Q581 101 594 102.5Q607 104 618 107L628 52Q602 26 558 8Q514 -10 466 -10Q415 -10 386.5 13Q358 36 342 77Q314 41 275 17.5Q236 -6 173 -6Q107 -6 67.5 31Q28 68 28 136Q28 169 38.5 191.5Q49 214 67 230Q85 246 109.5 257Q134 268 163 277L339 333V396Q339 455 324 475Q309 495 282 495Q256 495 244 478Q232 461 232 435Q232 417 235 399.5Q238 382 243 363L109 344Q85 352 72 371Q59 390 59 416Q59 453 76.5 480.5Q94 508 126 526.5Q158 545 201.5 554Q245 563 298 563Q356 563 402 553.5Q448 544 479.5 519.5Q511 495 528 451Q545 407 545 338ZM292 114Q318 114 339 122V275L275 250Q250 239 241 223.5Q232 208 232 183Q232 114 292 114Z" glyph-name="aring" horiz-adv-x="628" unicode="&#229;" /><glyph d="M391 705Q391 725 378.5 738.5Q366 752 342 752Q317 752 305 738.5Q293 725 293 705Q293 685 305 671Q317 657 342 657Q366 657 378.5 671Q391 685 391 705ZM218 705Q218 729 227 749.5Q236 770 252.5 785.5Q269 801 291.5 810Q314 819 342 819Q370 819 392.5 810Q415 801 431.5 785.5Q448 770 457 749.5Q466 729 466 705Q466 681 457 660.5Q448 640 431.5 624.5Q415 609 392.5 600Q370 591 342 591Q314 591 291.5 600Q269 609 252.5 624.5Q236 640 227 660.5Q218 681 218 705ZM424 89Q400 45 358 17.5Q316 -10 256 -10Q204 -10 161.5 7Q119 24 89 57.5Q59 91 43 140Q27 189 27 252Q27 324 50 381.5Q73 439 113 479.5Q153 520 207 541.5Q261 563 322 563Q353 563 378.5 559Q404 555 426 547Q448 539 467.5 526.5Q487 514 507 498L554 560H635L630 436V150Q630 124 637 109.5Q644 95 666 95H688V22L466 -10H419ZM357 487Q302 487 271.5 436Q241 385 241 304Q241 217 276.5 170Q312 123 367 123Q381 123 394.5 124.5Q408 126 424 132V412Q424 443 410.5 465Q397 487 357 487Z" glyph-name="aring.school" horiz-adv-x="718" unicode="&#57687;" /><glyph d="M215 217H386L303 391ZM421 144H181L178 138Q173 127 171.5 121.5Q170 116 170 110Q170 91 186.5 85.5Q203 80 243 75V0H10V75Q26 81 36 85.5Q46 90 52 95.5Q58 101 62 107Q66 113 70 121L253 481L203 587H433L662 121Q666 113 670 107Q674 101 681 95.5Q688 90 698 85.5Q708 81 724 75V0H359V75Q399 80 415.5 85.5Q432 91 432 110Q432 116 430.5 121.5Q429 127 424 138ZM374 738Q374 758 361.5 771.5Q349 785 325 785Q300 785 288 771.5Q276 758 276 738Q276 718 288 704Q300 690 325 690Q349 690 361.5 704Q374 718 374 738ZM201 738Q201 762 210 782.5Q219 803 235.5 818.5Q252 834 274.5 843Q297 852 325 852Q353 852 375.5 843Q398 834 414.5 818.5Q431 803 440 782.5Q449 762 449 738Q449 714 440 693.5Q431 673 414.5 657.5Q398 642 375.5 633Q353 624 325 624Q297 624 274.5 633Q252 642 235.5 657.5Q219 673 210 693.5Q201 714 201 738Z" glyph-name="aring.smcp" horiz-adv-x="734" unicode="&#57894;" /><glyph d="M141 401H193L409 240V780H451V240L667 401H719L436 -10H424Z" glyph-name="arrowdown" horiz-adv-x="860" unicode="&#8595;" /><glyph d="M41 384V396L452 679V627L284 411H831V369H284L452 153V101Z" glyph-name="arrowleft" horiz-adv-x="860" unicode="&#8592;" /><glyph d="M420 101V153L588 369H41V411H588L420 627V679L831 396V384Z" glyph-name="arrowright" horiz-adv-x="860" unicode="&#8594;" /><glyph d="M424 790H436L719 379H667L451 540V0H409V540L193 379H141Z" glyph-name="arrowup" horiz-adv-x="860" unicode="&#8593;" /><glyph d="M515 400H401L268 683L134 400H20L205 790H330Z" glyph-name="asciicircum" horiz-adv-x="535" unicode="^" /><glyph d="M52 270Q81 381 132 433Q183 485 247 485Q270 485 292.5 475Q315 465 336 453.5Q357 442 376 432Q395 422 410 422Q435 422 453 438.5Q471 455 490 485L572 488Q543 376 492.5 324Q442 272 377 272Q354 272 331.5 282Q309 292 288 303.5Q267 315 248.5 325Q230 335 215 335Q190 335 171.5 319Q153 303 135 272Z" glyph-name="asciitilde" horiz-adv-x="625" unicode="~" /><glyph d="M72 698 187 679 203 790H289L305 678L416 697L443 612L339 560L393 463L324 410L242 490L164 411L96 463L149 563L47 615Z" glyph-name="asterisk" horiz-adv-x="490" unicode="*" /><glyph d="M806 91Q836 91 865 107.5Q894 124 917 159Q940 194 954.5 247Q969 300 969 374Q969 440 943.5 500.5Q918 561 871 608Q824 655 757 683Q690 711 607 711Q505 711 423.5 677.5Q342 644 285 582.5Q228 521 198 434Q168 347 168 240Q168 142 203.5 65.5Q239 -11 299 -64Q359 -117 439.5 -144.5Q520 -172 610 -172Q660 -172 701 -168.5Q742 -165 779.5 -157Q817 -149 853 -136Q889 -123 930 -104L959 -143Q892 -200 803.5 -230.5Q715 -261 598 -261Q486 -261 388 -226.5Q290 -192 217 -127.5Q144 -63 102 29Q60 121 60 236Q60 355 100.5 455Q141 555 213.5 627Q286 699 386.5 739Q487 779 607 779Q718 779 806 745Q894 711 955 654.5Q1016 598 1048 525Q1080 452 1080 374Q1080 271 1049 200.5Q1018 130 967 86Q916 42 851.5 22.5Q787 3 721 3Q649 3 622.5 32Q596 61 596 109Q596 138 604.5 175Q613 212 626 253H622Q612 226 597.5 194.5Q583 163 560 124Q546 100 529 78.5Q512 57 491 40Q470 23 445 13Q420 3 390 3Q333 3 296 45Q259 87 259 165Q259 241 282.5 305.5Q306 370 349.5 417Q393 464 454.5 490Q516 516 593 516Q635 516 675.5 505Q716 494 742 470L799 520H870L838 415Q827 373 816.5 327.5Q806 282 798.5 240.5Q791 199 786.5 166Q782 133 782 115Q782 91 806 91ZM481 132Q510 132 535.5 168Q561 204 585 258Q596 283 607 308.5Q618 334 627.5 358.5Q637 383 644.5 405Q652 427 656 445Q649 449 637.5 452Q626 455 609 455Q578 455 548.5 429.5Q519 404 495.5 364.5Q472 325 458 276Q444 227 444 179Q444 132 481 132Z" glyph-name="at" horiz-adv-x="1136" unicode="@" /><glyph d="M809 194Q839 194 868 210.5Q897 227 920 262Q943 297 957.5 350Q972 403 972 477Q972 543 946.5 603.5Q921 664 874 711Q827 758 760 786Q693 814 610 814Q508 814 426.5 780.5Q345 747 288 685.5Q231 624 201 537Q171 450 171 343Q171 245 206.5 168.5Q242 92 302 39Q362 -14 442.5 -41.5Q523 -69 613 -69Q663 -69 704 -65.5Q745 -62 782.5 -54Q820 -46 856 -33Q892 -20 933 -1L962 -40Q895 -97 806.5 -127.5Q718 -158 601 -158Q489 -158 391 -123.5Q293 -89 220 -24.5Q147 40 105 132Q63 224 63 339Q63 458 103.5 558Q144 658 216.5 730Q289 802 389.5 842Q490 882 610 882Q721 882 809 848Q897 814 958 757.5Q1019 701 1051 628Q1083 555 1083 477Q1083 374 1052 303.5Q1021 233 970 189Q919 145 854.5 125.5Q790 106 724 106Q652 106 625.5 135Q599 164 599 212Q599 241 607.5 278Q616 315 629 356H625Q615 329 600.5 297.5Q586 266 563 227Q549 203 532 181.5Q515 160 494 143Q473 126 448 116Q423 106 393 106Q336 106 299 148Q262 190 262 268Q262 344 285.5 408.5Q309 473 352.5 520Q396 567 457.5 593Q519 619 596 619Q638 619 678.5 608Q719 597 745 573L802 623H873L841 518Q830 476 819.5 430.5Q809 385 801.5 343.5Q794 302 789.5 269Q785 236 785 218Q785 194 809 194ZM484 235Q513 235 538.5 271Q564 307 588 361Q599 386 610 411.5Q621 437 630.5 461.5Q640 486 647.5 508Q655 530 659 548Q652 552 640.5 555Q629 558 612 558Q581 558 551.5 532.5Q522 507 498.5 467.5Q475 428 461 379Q447 330 447 282Q447 235 484 235Z" glyph-name="at.cap" horiz-adv-x="1136" unicode="&#58643;" /><glyph d="M809 91Q839 91 868 107.5Q897 124 920 159Q943 194 957.5 247Q972 300 972 374Q972 440 946.5 500.5Q921 561 874 608Q827 655 760 683Q693 711 610 711Q508 711 426.5 677.5Q345 644 288 582.5Q231 521 201 434Q171 347 171 240Q171 142 206.5 65.5Q242 -11 302 -64Q362 -117 442.5 -144.5Q523 -172 613 -172Q663 -172 704 -168.5Q745 -165 782.5 -157Q820 -149 856 -136Q892 -123 933 -104L962 -143Q895 -200 806.5 -230.5Q718 -261 601 -261Q489 -261 391 -226.5Q293 -192 220 -127.5Q147 -63 105 29Q63 121 63 236Q63 355 103.5 455Q144 555 216.5 627Q289 699 389.5 739Q490 779 610 779Q721 779 809 745Q897 711 958 654.5Q1019 598 1051 525Q1083 452 1083 374Q1083 271 1052 200.5Q1021 130 970 86Q919 42 854.5 22.5Q790 3 724 3Q652 3 625.5 32Q599 61 599 109Q599 138 607.5 175Q616 212 629 253H625Q615 226 600.5 194.5Q586 163 563 124Q549 100 532 78.5Q515 57 494 40Q473 23 448 13Q423 3 393 3Q336 3 299 45Q262 87 262 165Q262 241 285.5 305.5Q309 370 352.5 417Q396 464 457.5 490Q519 516 596 516Q638 516 678.5 505Q719 494 745 470L802 520H873L841 415Q830 373 819.5 327.5Q809 282 801.5 240.5Q794 199 789.5 166Q785 133 785 115Q785 91 809 91ZM484 132Q513 132 538.5 168Q564 204 588 258Q599 283 610 308.5Q621 334 630.5 358.5Q640 383 647.5 405Q655 427 659 445Q652 449 640.5 452Q629 455 612 455Q581 455 551.5 429.5Q522 404 498.5 364.5Q475 325 461 276Q447 227 447 179Q447 132 484 132Z" glyph-name="at.smcp" horiz-adv-x="1136" unicode="&#62987;" /><glyph d="M373 611Q352 611 331.5 620Q311 629 291.5 639.5Q272 650 255 659Q238 668 224 668Q203 668 188 653Q173 638 159 612L95 623Q111 674 127 708.5Q143 743 162 764Q181 785 202.5 794Q224 803 250 803Q271 803 291.5 794Q312 785 331.5 774.5Q351 764 368 755.5Q385 747 399 747Q420 747 435 762Q450 777 464 803L528 791Q512 741 496 706.5Q480 672 461 651Q442 630 420.5 620.5Q399 611 373 611ZM545 150Q545 129 549.5 115Q554 101 574 101Q581 101 594 102.5Q607 104 618 107L628 52Q602 26 558 8Q514 -10 466 -10Q415 -10 386.5 13Q358 36 342 77Q314 41 275 17.5Q236 -6 173 -6Q107 -6 67.5 31Q28 68 28 136Q28 169 38.5 191.5Q49 214 67 230Q85 246 109.5 257Q134 268 163 277L339 333V396Q339 455 324 475Q309 495 282 495Q256 495 244 478Q232 461 232 435Q232 417 235 399.5Q238 382 243 363L109 344Q85 352 72 371Q59 390 59 416Q59 453 76.5 480.5Q94 508 126 526.5Q158 545 201.5 554Q245 563 298 563Q356 563 402 553.5Q448 544 479.5 519.5Q511 495 528 451Q545 407 545 338ZM292 114Q318 114 339 122V275L275 250Q250 239 241 223.5Q232 208 232 183Q232 114 292 114Z" glyph-name="atilde" horiz-adv-x="622" unicode="&#227;" /><glyph d="M404 611Q383 611 362.5 620Q342 629 322.5 639.5Q303 650 286 659Q269 668 255 668Q234 668 219 653Q204 638 190 612L126 623Q142 674 158 708.5Q174 743 193 764Q212 785 233.5 794Q255 803 281 803Q302 803 322.5 794Q343 785 362.5 774.5Q382 764 399 755.5Q416 747 430 747Q451 747 466 762Q481 777 495 803L559 791Q543 741 527 706.5Q511 672 492 651Q473 630 451.5 620.5Q430 611 404 611ZM424 89Q400 45 358 17.5Q316 -10 256 -10Q204 -10 161.5 7Q119 24 89 57.5Q59 91 43 140Q27 189 27 252Q27 324 50 381.5Q73 439 113 479.5Q153 520 207 541.5Q261 563 322 563Q353 563 378.5 559Q404 555 426 547Q448 539 467.5 526.5Q487 514 507 498L554 560H635L630 436V150Q630 124 637 109.5Q644 95 666 95H688V22L466 -10H419ZM357 487Q302 487 271.5 436Q241 385 241 304Q241 217 276.5 170Q312 123 367 123Q381 123 394.5 124.5Q408 126 424 132V412Q424 443 410.5 465Q397 487 357 487Z" glyph-name="atilde.school" horiz-adv-x="718" unicode="&#57686;" /><glyph d="M400 644Q379 644 358.5 653Q338 662 318.5 672.5Q299 683 282 692Q265 701 251 701Q230 701 215 686Q200 671 186 645L122 656Q138 707 154 741.5Q170 776 189 797Q208 818 229.5 827Q251 836 277 836Q298 836 318.5 827Q339 818 358.5 807.5Q378 797 395 788.5Q412 780 426 780Q447 780 462 795Q477 810 491 836L555 824Q539 774 523 739.5Q507 705 488 684Q469 663 447.5 653.5Q426 644 400 644ZM215 217H386L303 391ZM421 144H181L178 138Q173 127 171.5 121.5Q170 116 170 110Q170 91 186.5 85.5Q203 80 243 75V0H10V75Q26 81 36 85.5Q46 90 52 95.5Q58 101 62 107Q66 113 70 121L253 481L203 587H433L662 121Q666 113 670 107Q674 101 681 95.5Q688 90 698 85.5Q708 81 724 75V0H359V75Q399 80 415.5 85.5Q432 91 432 110Q432 116 430.5 121.5Q429 127 424 138Z" glyph-name="atilde.smcp" horiz-adv-x="734" unicode="&#57893;" /><glyph d="M350 66Q405 66 433.5 117.5Q462 169 462 250Q462 298 452.5 332Q443 366 426 387.5Q409 409 386.5 419.5Q364 430 337 430Q323 430 310 428.5Q297 427 283 422V159Q283 118 296 92Q309 66 350 66ZM23 733V772L248 810H288L283 723V464Q306 508 348.5 535.5Q391 563 454 563Q505 563 546 546Q587 529 616 495.5Q645 462 660.5 413.5Q676 365 676 302Q676 228 651.5 170Q627 112 583.5 72Q540 32 480 11Q420 -10 350 -10Q312 -10 274 -6.5Q236 -3 201 4.5Q166 12 134 25Q102 38 77 58V671Z" glyph-name="b" horiz-adv-x="703" unicode="b" /><glyph d="M418 74Q501 74 501 170Q501 215 469 237Q437 259 391 259H335V131Q335 98 352.5 86Q370 74 405 74ZM484 587Q529 587 567 578Q605 569 632 551Q659 533 674.5 505Q690 477 690 439Q690 373 644 338.5Q598 304 523 303Q569 301 607 292Q645 283 672 265Q699 247 714 219.5Q729 192 729 154Q729 73 667.5 36.5Q606 0 504 0H35V75Q66 76 83 80.5Q100 85 108 94Q116 103 117.5 118.5Q119 134 119 159V428Q119 453 117.5 468.5Q116 484 108 493.5Q100 503 83 507Q66 511 35 512V587ZM335 509V327H380Q430 327 453 348.5Q476 370 476 419Q476 509 371 509Z" glyph-name="b.smcp" horiz-adv-x="760" unicode="&#57858;" /><glyph d="M258 404Q290 404 306 436.5Q322 469 322 521Q322 586 302 618.5Q282 651 252 651Q239 651 231 649.5Q223 648 214 644V463Q214 436 225 420Q236 404 258 404ZM16 868V897L188 922H218L214 860V679Q225 710 259.5 731Q294 752 337 752Q370 752 398.5 740Q427 728 448 704.5Q469 681 481 646Q493 611 493 565Q493 514 475.5 473Q458 432 426.5 403.5Q395 375 352 360Q309 345 258 345Q204 345 148.5 355.5Q93 366 51 393V819Z" glyph-name="b.superior" horiz-adv-x="508" unicode="&#58210;" /><glyph d="M32 830H136L426 -120H322Z" glyph-name="backslash" horiz-adv-x="431" unicode="\" /><glyph d="M22 860H126L416 -90H312Z" glyph-name="backslash.cap" horiz-adv-x="438" unicode="&#58466;" /><glyph d="M18 748H123L420 -133H315Z" glyph-name="backslash.smcp" horiz-adv-x="438" unicode="&#58472;" /><glyph d="M310 265 180 394 226 440 355 310 484 440 530 394 400 265 530 136 484 90 355 220 226 90 180 136ZM160 464V66H550V464ZM90 530H620V0H90Z" glyph-name="ballotboxwithx" horiz-adv-x="710" unicode="&#9746;" /><glyph d="M199 -120H100V830H199Z" glyph-name="bar" horiz-adv-x="299" unicode="|" /><glyph d="M199 -90H100V860H199Z" glyph-name="bar.cap" horiz-adv-x="299" unicode="&#58467;" /><glyph d="M195 -133H100V748H195Z" glyph-name="bar.smcp" horiz-adv-x="295" unicode="&#58473;" /><glyph d="M88 390Q88 473 119.5 546Q151 619 205 673Q259 727 332 758.5Q405 790 488 790Q571 790 644 758.5Q717 727 771 673Q825 619 856.5 546Q888 473 888 390Q888 307 856.5 234Q825 161 771 107Q717 53 644 21.5Q571 -10 488 -10Q405 -10 332 21.5Q259 53 205 107Q151 161 119.5 234Q88 307 88 390Z" glyph-name="blackcircle" horiz-adv-x="976" unicode="&#9679;" /><glyph d="M628 0H98V530H628Z" glyph-name="blacksmallsquare" horiz-adv-x="726" unicode="&#9642;" /><glyph d="M878 0H98V780H878Z" glyph-name="blacksquare" horiz-adv-x="976" unicode="&#9632;" /><glyph d="M187 350Q243 333 272 294Q301 255 301 207Q301 187 297 166.5Q293 146 288.5 124Q284 102 280 79Q276 56 276 31Q276 -15 300 -32.5Q324 -50 372 -50V-130Q261 -130 213 -86Q165 -42 165 31Q165 56 168.5 79Q172 102 176.5 124Q181 146 184.5 166.5Q188 187 188 207Q188 231 181.5 250.5Q175 270 158.5 284.5Q142 299 114 306.5Q86 314 43 314V386Q86 386 114 393.5Q142 401 158.5 415.5Q175 430 181.5 449.5Q188 469 188 493Q188 513 184.5 533.5Q181 554 176.5 575.5Q172 597 168.5 620.5Q165 644 165 669Q165 742 213 786Q261 830 372 830V750Q324 750 300 732.5Q276 715 276 669Q276 644 280 621Q284 598 288.5 576Q293 554 297 533.5Q301 513 301 493Q301 445 272 406Q243 367 187 350Z" glyph-name="braceleft" horiz-adv-x="442" unicode="{" /><glyph d="M187 381Q243 364 272 325Q301 286 301 238Q301 218 297 197.5Q293 177 288.5 155Q284 133 280 110Q276 87 276 62Q276 16 300 -1.5Q324 -19 372 -19V-99Q316 -99 277 -87.5Q238 -76 213 -54.5Q188 -33 176.5 -3.5Q165 26 165 62Q165 87 168.5 110Q172 133 176.5 155Q181 177 184.5 197.5Q188 218 188 238Q188 262 181.5 281.5Q175 301 158.5 315.5Q142 330 114 337.5Q86 345 43 345V418Q86 418 114 425.5Q142 433 158.5 447Q175 461 181.5 480.5Q188 500 188 524Q188 544 184.5 564.5Q181 585 176.5 606.5Q172 628 168.5 651.5Q165 675 165 700Q165 773 213 817Q261 861 372 861V781Q324 781 300 763.5Q276 746 276 700Q276 675 280 652Q284 629 288.5 607Q293 585 297 564.5Q301 544 301 524Q301 476 272 437Q243 398 187 381Z" glyph-name="braceleft.cap" horiz-adv-x="442" unicode="&#58517;" /><glyph d="M40 322Q83 322 110 327Q137 332 152 341.5Q167 351 172.5 366Q178 381 178 401Q178 417 174 433.5Q170 450 165 467Q160 484 156 502.5Q152 521 152 543Q152 607 194 643.5Q236 680 334 680V601Q289 601 270 583Q251 565 251 533Q251 512 255.5 494.5Q260 477 265 460.5Q270 444 274.5 427Q279 410 279 389Q279 347 256.5 319Q234 291 178 282Q234 273 256.5 245Q279 217 279 175Q279 154 274.5 136.5Q270 119 265 102.5Q260 86 255.5 69Q251 52 251 31Q251 -1 270 -19Q289 -37 334 -37V-116Q236 -116 194 -80Q152 -44 152 21Q152 43 156 61.5Q160 80 165 97Q170 114 174 130Q178 146 178 163Q178 183 172.5 198Q167 213 152 222.5Q137 232 110 237Q83 242 40 242Z" glyph-name="braceleft.smcp" horiz-adv-x="410" unicode="&#58525;" /><glyph d="M254 350Q198 367 169.5 406Q141 445 141 493Q141 513 145 533.5Q149 554 153.5 576Q158 598 162 621Q166 644 166 669Q166 715 142 732.5Q118 750 70 750V830Q125 830 164.5 818.5Q204 807 228.5 786Q253 765 264.5 735Q276 705 276 669Q276 644 272.5 620.5Q269 597 264.5 575.5Q260 554 256.5 533.5Q253 513 253 493Q253 469 259.5 449.5Q266 430 282.5 415.5Q299 401 327 393.5Q355 386 398 386V314Q355 314 327 306.5Q299 299 282.5 284.5Q266 270 259.5 250.5Q253 231 253 207Q253 187 256.5 166.5Q260 146 264.5 124Q269 102 272.5 79Q276 56 276 31Q276 -5 264.5 -35Q253 -65 228.5 -86Q204 -107 164.5 -118.5Q125 -130 70 -130V-50Q118 -50 142 -32.5Q166 -15 166 31Q166 56 162 79Q158 102 153.5 124Q149 146 145 166.5Q141 187 141 207Q141 255 169.5 294Q198 333 254 350Z" glyph-name="braceright" horiz-adv-x="442" unicode="}" /><glyph d="M254 381Q198 398 169.5 437Q141 476 141 524Q141 544 145 564.5Q149 585 153.5 607Q158 629 162 652Q166 675 166 700Q166 746 142 763.5Q118 781 70 781V861Q125 861 164.5 849.5Q204 838 228.5 817Q253 796 264.5 766Q276 736 276 700Q276 675 272.5 651.5Q269 628 264.5 606.5Q260 585 256.5 564.5Q253 544 253 524Q253 500 259.5 480.5Q266 461 282.5 447Q299 433 327 425.5Q355 418 398 418V345Q355 345 327 337.5Q299 330 282.5 315.5Q266 301 259.5 281.5Q253 262 253 238Q253 218 256.5 197.5Q260 177 264.5 155Q269 133 272.5 110Q276 87 276 62Q276 26 264.5 -3.5Q253 -33 228.5 -54.5Q204 -76 164.5 -87.5Q125 -99 70 -99V-19Q118 -19 142 -1.5Q166 16 166 62Q166 87 162 110Q158 133 153.5 155Q149 177 145 197.5Q141 218 141 238Q141 286 169.5 325Q198 364 254 381Z" glyph-name="braceright.cap" horiz-adv-x="442" unicode="&#58518;" /><glyph d="M370 242Q327 242 299.5 237Q272 232 256 222.5Q240 213 234 198Q228 183 228 163Q228 146 232 130Q236 114 241 97Q246 80 250 61.5Q254 43 254 21Q254 -44 214 -80Q174 -116 77 -116V-37Q122 -37 140.5 -19Q159 -1 159 31Q159 52 154.5 69Q150 86 145 102.5Q140 119 135.5 136.5Q131 154 131 175Q131 217 153.5 245Q176 273 232 282Q176 291 153.5 319Q131 347 131 389Q131 410 135.5 427Q140 444 145 460.5Q150 477 154.5 494.5Q159 512 159 533Q159 565 140.5 583Q122 601 77 601V680Q126 680 159.5 670.5Q193 661 214 643.5Q235 626 244.5 600.5Q254 575 254 543Q254 521 250 502.5Q246 484 241 467Q236 450 232 433.5Q228 417 228 401Q228 381 234 366Q240 351 256 341.5Q272 332 299.5 327Q327 322 370 322Z" glyph-name="braceright.smcp" horiz-adv-x="410" unicode="&#58526;" /><glyph d="M206 -37H364V-130H100V830H364V737H206Z" glyph-name="bracketleft" horiz-adv-x="434" unicode="[" /><glyph d="M206 -6H364V-99H100V861H364V769H206Z" glyph-name="bracketleft.cap" horiz-adv-x="434" unicode="&#58515;" /><glyph d="M198 -28H360V-116H100V680H360V592H198Z" glyph-name="bracketleft.smcp" horiz-adv-x="436" unicode="&#58523;" /><glyph d="M227 737H70V830H334V-130H70V-37H227Z" glyph-name="bracketright" horiz-adv-x="434" unicode="]" /><glyph d="M227 769H70V861H334V-99H70V-6H227Z" glyph-name="bracketright.cap" horiz-adv-x="434" unicode="&#58516;" /><glyph d="M238 592H77V680H336V-116H77V-28H238Z" glyph-name="bracketright.smcp" horiz-adv-x="436" unicode="&#58524;" /><glyph d="M300 598Q252 598 218 612Q184 626 162.5 652Q141 678 131.5 715.5Q122 753 122 800H185Q189 774 200 758Q211 742 226.5 733Q242 724 261 721Q280 718 300 718Q320 718 339 721Q358 724 373.5 733Q389 742 400 758Q411 774 415 800H478Q478 753 468.5 715.5Q459 678 437.5 652Q416 626 382 612Q348 598 300 598Z" glyph-name="breve" horiz-adv-x="600" unicode="&#728;" /><glyph d="M300 828Q252 828 218 842Q184 856 162.5 882Q141 908 131.5 945.5Q122 983 122 1030H185Q189 1004 200 988Q211 972 226.5 963Q242 954 261 951Q280 948 300 948Q320 948 339 951Q358 954 373.5 963Q389 972 400 988Q411 1004 415 1030H478Q478 983 468.5 945.5Q459 908 437.5 882Q416 856 382 842Q348 828 300 828Z" glyph-name="breve.cap" horiz-adv-x="600" unicode="&#58406;" /><glyph d="M199 -121H100V285H199ZM199 424H100V830H199Z" glyph-name="brokenbar" horiz-adv-x="299" unicode="&#166;" /><glyph d="M199 -91H100V315H199ZM199 454H100V860H199Z" glyph-name="brokenbar.cap" horiz-adv-x="299" unicode="&#58469;" /><glyph d="M195 -135H100V244H195ZM195 371H100V750H195Z" glyph-name="brokenbar.smcp" horiz-adv-x="295" unicode="&#58475;" /><glyph d="M65 362Q65 397 78 428Q91 459 113.5 482.5Q136 506 166.5 519.5Q197 533 231 533Q265 533 295.5 519.5Q326 506 349 482.5Q372 459 385 428Q398 397 398 362Q398 327 385 296Q372 265 349 242Q326 219 295.5 205.5Q265 192 231 192Q197 192 166.5 205.5Q136 219 113.5 242Q91 265 78 296Q65 327 65 362Z" glyph-name="bullet" horiz-adv-x="463" unicode="&#8226;" /><glyph d="M65 400Q65 436 78 467Q91 498 113.5 521Q136 544 166.5 557.5Q197 571 231 571Q265 571 295.5 557.5Q326 544 349 521Q372 498 385 467Q398 436 398 400Q398 365 385 334Q372 303 349 280Q326 257 295.5 243.5Q265 230 231 230Q197 230 166.5 243.5Q136 257 113.5 280Q91 303 78 334Q65 365 65 400Z" glyph-name="bullet.cap" horiz-adv-x="463" unicode="&#58470;" /><glyph d="M65 301Q65 336 78 367Q91 398 113.5 421.5Q136 445 166.5 458.5Q197 472 231 472Q265 472 295.5 458.5Q326 445 349 421.5Q372 398 385 367Q398 336 398 301Q398 266 385 235Q372 204 349 181Q326 158 295.5 144.5Q265 131 231 131Q197 131 166.5 144.5Q136 158 113.5 181Q91 204 78 235Q65 266 65 301Z" glyph-name="bullet.smcp" horiz-adv-x="463" unicode="&#58476;" /><glyph d="M157 339Q157 282 178.5 232.5Q200 183 236.5 146.5Q273 110 322.5 88.5Q372 67 429 67Q486 67 535.5 88.5Q585 110 622 146.5Q659 183 680.5 232.5Q702 282 702 339Q702 396 680.5 445.5Q659 495 622 532Q585 569 535.5 590.5Q486 612 429 612Q372 612 322.5 590.5Q273 569 236.5 532Q200 495 178.5 445.5Q157 396 157 339ZM330 390Q330 421 342 448.5Q354 476 374 496Q394 516 421.5 528Q449 540 480 540Q511 540 538.5 528Q566 516 586 496Q606 476 618 448.5Q630 421 630 390Q630 359 618 331.5Q606 304 586 284Q566 264 538.5 252Q511 240 480 240Q449 240 421.5 252Q394 264 374 284Q354 304 342 331.5Q330 359 330 390ZM80 390Q80 473 111.5 546Q143 619 197 673Q251 727 324 758.5Q397 790 480 790Q563 790 636 758.5Q709 727 763 673Q817 619 848.5 546Q880 473 880 390Q880 307 848.5 234Q817 161 763 107Q709 53 636 21.5Q563 -10 480 -10Q397 -10 324 21.5Q251 53 197 107Q143 161 111.5 234Q80 307 80 390Z" glyph-name="bullseye" horiz-adv-x="960" unicode="&#9678;" /><glyph d="M214 341Q214 251 253.5 195.5Q293 140 373 140Q418 140 452.5 158.5Q487 177 513 211L558 185Q529 83 461.5 36.5Q394 -10 296 -10Q237 -10 187.5 7.5Q138 25 102.5 59Q67 93 47 143.5Q27 194 27 260Q27 329 49 385Q71 441 110.5 480.5Q150 520 205.5 541.5Q261 563 328 563Q373 563 413 553.5Q453 544 483 525.5Q513 507 530.5 479Q548 451 548 414Q548 382 535 362Q522 342 501 334H371V377Q371 399 369 419.5Q367 440 360 455.5Q353 471 340 480Q327 489 305 489Q266 489 240 452Q214 415 214 341Z" glyph-name="c" horiz-adv-x="577" unicode="c" /><glyph d="M395 70Q440 70 468 107Q496 144 515 211H616L599 40Q549 14 489 2Q429 -10 372 -10Q289 -10 226.5 12Q164 34 121.5 73Q79 112 57.5 166Q36 220 36 283Q36 355 61 413Q86 471 130.5 512Q175 553 236.5 575Q298 597 372 597Q437 597 490 584.5Q543 572 588 543L595 392H498Q474 458 447 488Q420 518 375 518Q315 518 286 463.5Q257 409 257 309Q257 256 265 212Q273 168 289.5 136.5Q306 105 332 87.5Q358 70 395 70Z" glyph-name="c.smcp" horiz-adv-x="655" unicode="&#57859;" /><glyph d="M161 601Q161 538 188 499.5Q215 461 269 461Q298 461 318.5 473.5Q339 486 359 509L396 488Q370 410 322 377.5Q274 345 206 345Q165 345 130.5 356.5Q96 368 70 391Q44 414 29.5 450Q15 486 15 536Q15 585 31 625Q47 665 75.5 693Q104 721 143 736.5Q182 752 229 752Q261 752 290 745.5Q319 739 341 725.5Q363 712 376 692Q389 672 389 644Q389 621 379 606Q369 591 353 586H252V615Q252 631 251 645.5Q250 660 246.5 671.5Q243 683 234.5 690Q226 697 211 697Q190 697 175.5 673Q161 649 161 601Z" glyph-name="c.superior" horiz-adv-x="404" unicode="&#58211;" /><glyph d="M214 341Q214 251 253.5 195.5Q293 140 373 140Q418 140 452.5 158.5Q487 177 513 211L558 185Q529 83 461.5 36.5Q394 -10 296 -10Q237 -10 187.5 7.5Q138 25 102.5 59Q67 93 47 143.5Q27 194 27 260Q27 329 49 385Q71 441 110.5 480.5Q150 520 205.5 541.5Q261 563 328 563Q373 563 413 553.5Q453 544 483 525.5Q513 507 530.5 479Q548 451 548 414Q548 382 535 362Q522 342 501 334H371V377Q371 399 369 419.5Q367 440 360 455.5Q353 471 340 480Q327 489 305 489Q266 489 240 452Q214 415 214 341ZM561 800 346 592H248L346 800Z" glyph-name="cacute" horiz-adv-x="577" unicode="&#263;" /><glyph d="M395 70Q440 70 468 107Q496 144 515 211H616L599 40Q549 14 489 2Q429 -10 372 -10Q289 -10 226.5 12Q164 34 121.5 73Q79 112 57.5 166Q36 220 36 283Q36 355 61 413Q86 471 130.5 512Q175 553 236.5 575Q298 597 372 597Q437 597 490 584.5Q543 572 588 543L595 392H498Q474 458 447 488Q420 518 375 518Q315 518 286 463.5Q257 409 257 309Q257 256 265 212Q273 168 289.5 136.5Q306 105 332 87.5Q358 70 395 70ZM613 833 398 625H300L398 833Z" glyph-name="cacute.smcp" horiz-adv-x="655" unicode="&#57908;" /><glyph d="M80 800H181L300 708L419 800H520L361 592H239Z" glyph-name="caron" horiz-adv-x="600" unicode="&#711;" /><glyph d="M80 1030H181L300 938L419 1030H520L361 822H239Z" glyph-name="caron.cap" horiz-adv-x="600" unicode="&#58413;" /><glyph d="M382 800 281 592H185L192 800Z" glyph-name="caronSlovak" horiz-adv-x="600" unicode="&#58387;" /><glyph d="M214 341Q214 251 253.5 195.5Q293 140 373 140Q418 140 452.5 158.5Q487 177 513 211L558 185Q529 83 461.5 36.5Q394 -10 296 -10Q237 -10 187.5 7.5Q138 25 102.5 59Q67 93 47 143.5Q27 194 27 260Q27 329 49 385Q71 441 110.5 480.5Q150 520 205.5 541.5Q261 563 328 563Q373 563 413 553.5Q453 544 483 525.5Q513 507 530.5 479Q548 451 548 414Q548 382 535 362Q522 342 501 334H371V377Q371 399 369 419.5Q367 440 360 455.5Q353 471 340 480Q327 489 305 489Q266 489 240 452Q214 415 214 341ZM92 800H193L312 708L431 800H532L373 592H251Z" glyph-name="ccaron" horiz-adv-x="577" unicode="&#269;" /><glyph d="M395 70Q440 70 468 107Q496 144 515 211H616L599 40Q549 14 489 2Q429 -10 372 -10Q289 -10 226.5 12Q164 34 121.5 73Q79 112 57.5 166Q36 220 36 283Q36 355 61 413Q86 471 130.5 512Q175 553 236.5 575Q298 597 372 597Q437 597 490 584.5Q543 572 588 543L595 392H498Q474 458 447 488Q420 518 375 518Q315 518 286 463.5Q257 409 257 309Q257 256 265 212Q273 168 289.5 136.5Q306 105 332 87.5Q358 70 395 70ZM144 833H245L364 741L483 833H584L425 625H303Z" glyph-name="ccaron.smcp" horiz-adv-x="655" unicode="&#57910;" /><glyph d="M214 341Q214 251 253.5 195.5Q293 140 373 140Q418 140 452.5 158.5Q487 177 513 211L558 185Q529 83 461.5 36.5Q394 -10 296 -10H288L280 -46Q343 -48 375.5 -75Q408 -102 408 -150Q408 -176 397.5 -195Q387 -214 370 -226Q353 -238 332 -244Q311 -250 289 -250Q257 -250 233.5 -241Q210 -232 198 -222L215 -178Q228 -186 245 -192.5Q262 -199 279 -199Q295 -199 304 -195Q313 -191 313 -179Q313 -157 281.5 -150Q250 -143 205 -141L230 -4Q138 13 82.5 80Q27 147 27 260Q27 329 49 385Q71 441 110.5 480.5Q150 520 205.5 541.5Q261 563 328 563Q373 563 413 553.5Q453 544 483 525.5Q513 507 530.5 479Q548 451 548 414Q548 382 535 362Q522 342 501 334H371V377Q371 399 369 419.5Q367 440 360 455.5Q353 471 340 480Q327 489 305 489Q266 489 240 452Q214 415 214 341Z" glyph-name="ccedilla" horiz-adv-x="577" unicode="&#231;" /><glyph d="M395 70Q440 70 468 107Q496 144 515 211H616L599 40Q551 14 494 3Q437 -8 383 -10L375 -46Q438 -48 470.5 -75Q503 -102 503 -150Q503 -176 492.5 -195Q482 -214 465 -226Q448 -238 427 -244Q406 -250 384 -250Q352 -250 328.5 -241Q305 -232 293 -222L310 -178Q323 -186 340 -192.5Q357 -199 374 -199Q390 -199 399 -195Q408 -191 408 -179Q408 -157 376.5 -150Q345 -143 300 -141L325 -8Q254 -2 200 22Q146 46 109.5 84.5Q73 123 54.5 173.5Q36 224 36 283Q36 355 61 413Q86 471 130.5 512Q175 553 236.5 575Q298 597 372 597Q437 597 490 584.5Q543 572 588 543L595 392H498Q474 458 447 488Q420 518 375 518Q315 518 286 463.5Q257 409 257 309Q257 256 265 212Q273 168 289.5 136.5Q306 105 332 87.5Q358 70 395 70Z" glyph-name="ccedilla.smcp" horiz-adv-x="655" unicode="&#57912;" /><glyph d="M214 341Q214 251 253.5 195.5Q293 140 373 140Q418 140 452.5 158.5Q487 177 513 211L558 185Q529 83 461.5 36.5Q394 -10 296 -10Q237 -10 187.5 7.5Q138 25 102.5 59Q67 93 47 143.5Q27 194 27 260Q27 329 49 385Q71 441 110.5 480.5Q150 520 205.5 541.5Q261 563 328 563Q373 563 413 553.5Q453 544 483 525.5Q513 507 530.5 479Q548 451 548 414Q548 382 535 362Q522 342 501 334H371V377Q371 399 369 419.5Q367 440 360 455.5Q353 471 340 480Q327 489 305 489Q266 489 240 452Q214 415 214 341ZM532 592H431L312 684L193 592H92L251 800H373Z" glyph-name="ccircumflex" horiz-adv-x="577" unicode="&#265;" /><glyph d="M395 70Q440 70 468 107Q496 144 515 211H616L599 40Q549 14 489 2Q429 -10 372 -10Q289 -10 226.5 12Q164 34 121.5 73Q79 112 57.5 166Q36 220 36 283Q36 355 61 413Q86 471 130.5 512Q175 553 236.5 575Q298 597 372 597Q437 597 490 584.5Q543 572 588 543L595 392H498Q474 458 447 488Q420 518 375 518Q315 518 286 463.5Q257 409 257 309Q257 256 265 212Q273 168 289.5 136.5Q306 105 332 87.5Q358 70 395 70ZM584 625H483L364 717L245 625H144L303 833H425Z" glyph-name="ccircumflex.smcp" horiz-adv-x="655" unicode="&#57909;" /><glyph d="M196 711Q196 759 225.5 791Q255 823 311 823Q368 823 398 791Q428 759 428 711Q428 664 398 632.5Q368 601 311 601Q255 601 225.5 632.5Q196 664 196 711ZM214 341Q214 251 253.5 195.5Q293 140 373 140Q418 140 452.5 158.5Q487 177 513 211L558 185Q529 83 461.5 36.5Q394 -10 296 -10Q237 -10 187.5 7.5Q138 25 102.5 59Q67 93 47 143.5Q27 194 27 260Q27 329 49 385Q71 441 110.5 480.5Q150 520 205.5 541.5Q261 563 328 563Q373 563 413 553.5Q453 544 483 525.5Q513 507 530.5 479Q548 451 548 414Q548 382 535 362Q522 342 501 334H371V377Q371 399 369 419.5Q367 440 360 455.5Q353 471 340 480Q327 489 305 489Q266 489 240 452Q214 415 214 341Z" glyph-name="cdotaccent" horiz-adv-x="577" unicode="&#267;" /><glyph d="M248 744Q248 792 277.5 824Q307 856 363 856Q420 856 450 824Q480 792 480 744Q480 697 450 665.5Q420 634 363 634Q307 634 277.5 665.5Q248 697 248 744ZM395 70Q440 70 468 107Q496 144 515 211H616L599 40Q549 14 489 2Q429 -10 372 -10Q289 -10 226.5 12Q164 34 121.5 73Q79 112 57.5 166Q36 220 36 283Q36 355 61 413Q86 471 130.5 512Q175 553 236.5 575Q298 597 372 597Q437 597 490 584.5Q543 572 588 543L595 392H498Q474 458 447 488Q420 518 375 518Q315 518 286 463.5Q257 409 257 309Q257 256 265 212Q273 168 289.5 136.5Q306 105 332 87.5Q358 70 395 70Z" glyph-name="cdotaccent.smcp" horiz-adv-x="655" unicode="&#57911;" /><glyph d="M288 14 274 -46Q337 -48 369.5 -75Q402 -102 402 -150Q402 -176 391.5 -195Q381 -214 364 -226Q347 -238 326 -244Q305 -250 283 -250Q251 -250 227.5 -241Q204 -232 192 -222L209 -178Q222 -186 239 -192.5Q256 -199 273 -199Q289 -199 298 -195Q307 -191 307 -179Q307 -157 275.5 -150Q244 -143 199 -141L228 14Z" glyph-name="cedilla" horiz-adv-x="600" unicode="&#184;" /><glyph d="M223 457Q223 348 277 294L338 640Q315 640 294 628.5Q273 617 257 594Q241 571 232 537Q223 503 223 457ZM244 108Q199 118 161 141Q123 164 95.5 199Q68 234 52.5 280.5Q37 327 37 385Q37 457 61.5 515.5Q86 574 128.5 616Q171 658 228 681.5Q285 705 350 707L366 798H426L409 704Q446 700 477.5 689.5Q509 679 532.5 661.5Q556 644 569 618.5Q582 593 582 559Q582 526 567 504.5Q552 483 529 475H427V533Q427 564 419.5 587Q412 610 395 624L330 260Q360 249 393 249Q447 249 481.5 272Q516 295 545 332L595 306Q564 198 495.5 148.5Q427 99 326 99H302L283 -9H224Z" glyph-name="cent" horiz-adv-x="611" unicode="&#162;" /><glyph d="M223 457Q223 348 277 294L338 640Q315 640 294 628.5Q273 617 257 594Q241 571 232 537Q223 503 223 457ZM244 108Q199 118 161 141Q123 164 95.5 199Q68 234 52.5 280.5Q37 327 37 385Q37 457 61.5 515.5Q86 574 128.5 616Q171 658 228 681.5Q285 705 350 707L366 798H426L409 704Q446 700 477.5 689.5Q509 679 532.5 661.5Q556 644 569 618.5Q582 593 582 559Q582 526 567 504.5Q552 483 529 475H427V533Q427 564 419.5 587Q412 610 395 624L330 260Q360 249 393 249Q447 249 481.5 272Q516 295 545 332L595 306Q564 198 495.5 148.5Q427 99 326 99H302L283 -9H224Z" glyph-name="cent.LP" horiz-adv-x="611" unicode="&#58659;" /><glyph d="M223 348Q223 239 277 185L338 531Q315 531 294 519.5Q273 508 257 485Q241 462 232 428Q223 394 223 348ZM244 -1Q199 9 161 32Q123 55 95.5 90Q68 125 52.5 171.5Q37 218 37 276Q37 348 61.5 406.5Q86 465 128.5 507Q171 549 228 572.5Q285 596 350 598L366 689H426L409 595Q446 591 477.5 580.5Q509 570 532.5 552.5Q556 535 569 509.5Q582 484 582 450Q582 417 567 395.5Q552 374 529 366H427V424Q427 455 419.5 478Q412 501 395 515L330 151Q360 140 393 140Q447 140 481.5 163Q516 186 545 223L595 197Q564 89 495.5 39.5Q427 -10 326 -10Q320 -10 314 -10Q308 -10 302 -9L283 -118H224Z" glyph-name="cent.OP" horiz-adv-x="611" unicode="&#59807;" /><glyph d="M520 592H419L300 684L181 592H80L239 800H361Z" glyph-name="circumflex" horiz-adv-x="600" unicode="&#710;" /><glyph d="M520 822H419L300 914L181 822H80L239 1030H361Z" glyph-name="circumflex.cap" horiz-adv-x="600" unicode="&#58403;" /><glyph d="M349 0Q368 37 381.5 73Q395 109 404.5 147Q414 185 420.5 227Q427 269 431 320L428 321Q415 290 396 261Q377 232 352 209.5Q327 187 296 173.5Q265 160 228 160Q191 160 159 173.5Q127 187 103 210.5Q79 234 65.5 265.5Q52 297 52 334Q52 373 64.5 406Q77 439 100 463Q123 487 155 500.5Q187 514 226 514Q252 514 272.5 507Q293 500 310 491L312 493Q295 518 284.5 547.5Q274 577 274 610Q274 647 287.5 680Q301 713 324.5 737.5Q348 762 380 776Q412 790 450 790Q488 790 520 776Q552 762 575.5 737.5Q599 713 612.5 680Q626 647 626 610Q626 577 615.5 547.5Q605 518 588 493L590 491Q607 500 627.5 507Q648 514 674 514Q713 514 745 500.5Q777 487 800 463Q823 439 835.5 406Q848 373 848 334Q848 297 834.5 265.5Q821 234 797 210.5Q773 187 741 173.5Q709 160 672 160Q635 160 604 173.5Q573 187 548 209.5Q523 232 504 261Q485 290 472 321L469 320Q473 269 479.5 227Q486 185 495.5 147Q505 109 518.5 73Q532 37 551 0Z" glyph-name="club" horiz-adv-x="900" unicode="&#9827;" /><glyph d="M65 390Q65 417 74.5 439Q84 461 100 477Q116 493 138 502Q160 511 185 511Q210 511 232 502Q254 493 270 477Q286 461 295.5 439Q305 417 305 390Q305 363 295.5 341Q286 319 270 303.5Q254 288 232 279Q210 270 185 270Q160 270 138 279Q116 288 100 303.5Q84 319 74.5 341Q65 363 65 390ZM65 110Q65 137 74.5 159Q84 181 100 197Q116 213 138 222Q160 231 185 231Q210 231 232 222Q254 213 270 197Q286 181 295.5 159Q305 137 305 110Q305 83 295.5 61Q286 39 270 23.5Q254 8 232 -1Q210 -10 185 -10Q160 -10 138 -1Q116 8 100 23.5Q84 39 74.5 61Q65 83 65 110Z" glyph-name="colon" horiz-adv-x="370" unicode=":" /><glyph d="M58 389Q58 414 67.5 436.5Q77 459 92.5 475.5Q108 492 129 501.5Q150 511 174 511Q198 511 219.5 501.5Q241 492 257 475.5Q273 459 282.5 436.5Q292 414 292 389Q292 365 282.5 343Q273 321 257 305Q241 289 219.5 279.5Q198 270 174 270Q150 270 129 279.5Q108 289 92.5 305Q77 321 67.5 343Q58 365 58 389ZM58 109Q58 134 67.5 156.5Q77 179 92.5 195.5Q108 212 129 221.5Q150 231 174 231Q198 231 219.5 221.5Q241 212 257 195.5Q273 179 282.5 156.5Q292 134 292 109Q292 85 282.5 63Q273 41 257 25Q241 9 219.5 -0.5Q198 -10 174 -10Q150 -10 129 -0.5Q108 9 92.5 25Q77 41 67.5 63Q58 85 58 109Z" glyph-name="colon.T" horiz-adv-x="350" unicode="&#61828;" /><glyph d="M152 12Q114 21 91 49Q68 77 68 122Q68 172 100 201.5Q132 231 178 231Q238 231 273 190.5Q308 150 308 80Q308 -154 54 -171V-99Q83 -95 109 -88Q135 -81 155 -68.5Q175 -56 187.5 -36.5Q200 -17 202 12Z" glyph-name="comma" horiz-adv-x="370" unicode="," /><glyph d="M144 12Q66 30 66 122Q66 167 93.5 199Q121 231 172 231Q232 231 267 194Q302 157 302 80Q302 -40 239 -101.5Q176 -163 49 -171V-99Q77 -95 103 -88Q129 -81 149 -68.5Q169 -56 182 -36.5Q195 -17 197 12Z" glyph-name="comma.T" horiz-adv-x="350" unicode="&#61827;" /><glyph d="M268 -156Q239 -149 225 -135Q211 -121 211 -94Q211 -66 231 -48Q251 -30 290 -30Q334 -30 360.5 -56.5Q387 -83 387 -129Q387 -155 378.5 -176.5Q370 -198 351 -214Q332 -230 301.5 -239.5Q271 -249 227 -250V-204Q273 -200 293.5 -188.5Q314 -177 314 -156Z" glyph-name="commaaccent" horiz-adv-x="600" unicode="&#58388;" /><glyph d="M470 201Q514 201 538 229.5Q562 258 583 323H663L650 187Q618 164 568.5 152Q519 140 461 140Q395 140 344 158Q293 176 259 208.5Q225 241 207.5 286Q190 331 190 384Q190 445 211 493.5Q232 542 268.5 576Q305 610 354.5 628Q404 646 460 646Q573 646 638 590L640 477H557Q550 503 542 523.5Q534 544 522 558.5Q510 573 491.5 581Q473 589 445 589Q414 589 395 573.5Q376 558 365.5 532.5Q355 507 351.5 473.5Q348 440 348 404Q348 357 354 319.5Q360 282 374 256Q388 230 411.5 215.5Q435 201 470 201ZM75 390Q75 313 104 246Q133 179 183.5 128.5Q234 78 301 49Q368 20 445 20Q521 20 588.5 49Q656 78 706.5 128.5Q757 179 786 246Q815 313 815 390Q815 466 786 533.5Q757 601 706.5 651.5Q656 702 588.5 731Q521 760 445 760Q368 760 301 731Q234 702 183.5 651.5Q133 601 104 533.5Q75 466 75 390ZM45 390Q45 473 76.5 546Q108 619 162 673Q216 727 289 758.5Q362 790 445 790Q528 790 601 758.5Q674 727 728 673Q782 619 813.5 546Q845 473 845 390Q845 307 813.5 234Q782 161 728 107Q674 53 601 21.5Q528 -10 445 -10Q362 -10 289 21.5Q216 53 162 107Q108 161 76.5 234Q45 307 45 390Z" glyph-name="copyright" horiz-adv-x="890" unicode="&#169;" /><glyph d="M161 601Q161 538 188 499.5Q215 461 269 461Q298 461 318.5 473.5Q339 486 359 509L396 488Q370 410 322 377.5Q274 345 206 345Q165 345 130.5 356.5Q96 368 70 391Q44 414 29.5 450Q15 486 15 536Q15 585 31 625Q47 665 75.5 693Q104 721 143 736.5Q182 752 229 752Q261 752 290 745.5Q319 739 341 725.5Q363 712 376 692Q389 672 389 644Q389 621 379 606Q369 591 353 586H252V615Q252 631 251 645.5Q250 660 246.5 671.5Q243 683 234.5 690Q226 697 211 697Q190 697 175.5 673Q161 649 161 601Z" glyph-name="cordinal" horiz-adv-x="404" unicode="&#57729;" /><glyph d="M306 403Q340 403 357 429.5Q374 456 388 507H469L456 381Q420 362 376 353.5Q332 345 290 345Q230 345 183.5 361Q137 377 105.5 405.5Q74 434 58 473.5Q42 513 42 559Q42 612 60.5 655Q79 698 111.5 728Q144 758 188 774.5Q232 791 284 791Q331 791 371.5 782.5Q412 774 447 751L453 640H375Q357 689 341 711Q325 733 290 733Q244 733 227 692.5Q210 652 210 579Q210 540 214.5 508Q219 476 230 452.5Q241 429 259.5 416Q278 403 306 403Z" glyph-name="cordinal.smcp" horiz-adv-x="502" unicode="&#58195;" /><glyph d="M86 312Q86 361 99.5 402Q113 443 137 476L70 545L113 588L180 519Q213 544 260.5 558Q308 572 356 572Q404 572 451 558Q498 544 532 519L599 588L642 545L574 475Q625 409 625 312Q625 214 574 148L642 79L599 36L532 106Q498 81 451 67Q404 53 356 53Q308 53 260.5 67Q213 81 180 106L113 36L70 79L137 148Q113 180 99.5 221.5Q86 263 86 312ZM275 312Q275 220 296.5 168.5Q318 117 356 117Q394 117 415 168.5Q436 220 436 312Q436 405 415 456Q394 507 356 507Q318 507 296.5 456Q275 405 275 312Z" glyph-name="currency" horiz-adv-x="712" unicode="&#164;" /><glyph d="M466 -10H419L424 89Q400 45 358 17.5Q316 -10 256 -10Q204 -10 161.5 7Q119 24 89 57.5Q59 91 43 140Q27 189 27 252Q27 324 50 381.5Q73 439 113 479.5Q153 520 207 541.5Q261 563 322 563Q348 563 375.5 558.5Q403 554 424 542V671L370 733V772L595 810H635L630 723V150Q630 124 637 109.5Q644 95 666 95H689V22ZM357 487Q302 487 271.5 436Q241 385 241 304Q241 217 276.5 170Q312 123 367 123Q381 123 394.5 124.5Q408 126 424 132V412Q424 443 410.5 465Q397 487 357 487Z" glyph-name="d" horiz-adv-x="717" unicode="d" /><glyph d="M35 75Q66 76 83 80.5Q100 85 108 94Q116 103 117.5 118.5Q119 134 119 159V428Q119 453 117.5 468.5Q116 484 108 493.5Q100 503 83 507Q66 511 35 512V587H433Q512 587 576 569Q640 551 684.5 515.5Q729 480 753 426.5Q777 373 777 302Q777 224 749.5 167.5Q722 111 675.5 73.5Q629 36 568 18Q507 0 440 0H35ZM334 509V137Q334 100 352 89Q370 78 405 78H412Q478 78 515 127Q552 176 552 280Q552 393 508.5 451Q465 509 378 509Z" glyph-name="d.smcp" horiz-adv-x="813" unicode="&#57860;" /><glyph d="M330 345H290L294 418Q283 387 248.5 366Q214 345 171 345Q138 345 109.5 357Q81 369 60 392.5Q39 416 27 451Q15 486 15 532Q15 583 29.5 624Q44 665 71 693.5Q98 722 135.5 737Q173 752 218 752Q244 752 260.5 748Q277 744 294 736V819L260 868V897L432 922H460L458 860V463Q458 445 460.5 434Q463 423 477 423H492V368ZM250 693Q218 693 202 660.5Q186 628 186 576Q186 511 206 478.5Q226 446 256 446Q269 446 277 447.5Q285 449 294 453V634Q294 661 283 677Q272 693 250 693Z" glyph-name="d.superior" horiz-adv-x="512" unicode="&#58212;" /><glyph d="M436 780 446 738 402 492 648 537 689 527V391L648 381L402 425L446 196L387 -250H352L293 196L337 425L91 381L50 391V527L91 537L337 492L293 738L303 780Z" glyph-name="dagger" horiz-adv-x="739" unicode="&#8224;" /><glyph d="M337 425 91 381 50 391V527L91 537L337 492L293 738L303 780H436L446 738L402 492L648 537L689 527V391L648 381L402 425L449 261L402 113L648 158L689 148V12L648 2L402 46L446 -199L436 -241H303L293 -199L337 46L91 2L50 12V148L91 158L337 113L290 261Z" glyph-name="daggerdbl" horiz-adv-x="739" unicode="&#8225;" /><glyph d="M466 -10H419L424 89Q400 45 358 17.5Q316 -10 256 -10Q204 -10 161.5 7Q119 24 89 57.5Q59 91 43 140Q27 189 27 252Q27 324 50 381.5Q73 439 113 479.5Q153 520 207 541.5Q261 563 322 563Q348 563 375.5 558.5Q403 554 424 542V671L370 733V772L595 810H635L630 723V150Q630 124 637 109.5Q644 95 666 95H689V22ZM357 487Q302 487 271.5 436Q241 385 241 304Q241 217 276.5 170Q312 123 367 123Q381 123 394.5 124.5Q408 126 424 132V412Q424 443 410.5 465Q397 487 357 487ZM864 800 763 592H667L674 800Z" glyph-name="dcaron" horiz-adv-x="717" unicode="&#271;" /><glyph d="M35 75Q66 76 83 80.5Q100 85 108 94Q116 103 117.5 118.5Q119 134 119 159V428Q119 453 117.5 468.5Q116 484 108 493.5Q100 503 83 507Q66 511 35 512V587H433Q512 587 576 569Q640 551 684.5 515.5Q729 480 753 426.5Q777 373 777 302Q777 224 749.5 167.5Q722 111 675.5 73.5Q629 36 568 18Q507 0 440 0H35ZM334 509V137Q334 100 352 89Q370 78 405 78H412Q478 78 515 127Q552 176 552 280Q552 393 508.5 451Q465 509 378 509ZM174 833H275L394 741L513 833H614L455 625H333Z" glyph-name="dcaron.smcp" horiz-adv-x="813" unicode="&#57913;" /><glyph d="M357 487Q302 487 271.5 436Q241 385 241 304Q241 217 276.5 170Q312 123 367 123Q381 123 394.5 124.5Q408 126 424 132V412Q424 443 410.5 465Q397 487 357 487ZM261 668H424V690L370 733V772L595 810H635L630 723V668H689V603H630V150Q630 124 637 109.5Q644 95 666 95H689V22L466 -10H419L424 89Q400 45 358 17.5Q316 -10 256 -10Q204 -10 161.5 7Q119 24 89 57.5Q59 91 43 140Q27 189 27 252Q27 324 50 381.5Q73 439 113 479.5Q153 520 207 541.5Q261 563 322 563Q348 563 375.5 558.5Q403 554 424 542V603H261Z" glyph-name="dcroat" horiz-adv-x="717" unicode="&#273;" /><glyph d="M334 509V333H457V262H334V137Q334 100 352 89Q370 78 405 78H412Q478 78 515 127Q552 176 552 280Q552 393 508.5 451Q465 509 378 509ZM35 333H119V428Q119 453 117.5 468.5Q116 484 108 493.5Q100 503 83 507Q66 511 35 512V587H433Q512 587 576 569Q640 551 684.5 515.5Q729 480 753 426.5Q777 373 777 302Q777 224 749.5 167.5Q722 111 675.5 73.5Q629 36 568 18Q507 0 440 0H35V75Q66 76 83 80.5Q100 85 108 94Q116 103 117.5 118.5Q119 134 119 159V262H35Z" glyph-name="dcroat.smcp" horiz-adv-x="813" unicode="&#57916;" /><glyph d="M353 593Q353 641 326 673.5Q299 706 253 706Q206 706 180 673.5Q154 641 154 593Q154 547 180 515Q206 483 253 483Q299 483 326 515Q353 547 353 593ZM60 593Q60 634 73 670Q86 706 111 732.5Q136 759 171.5 774.5Q207 790 251 790Q296 790 331.5 774.5Q367 759 391.5 732.5Q416 706 429.5 670Q443 634 443 593Q443 552 429.5 516.5Q416 481 391.5 455Q367 429 331.5 413.5Q296 398 251 398Q207 398 171.5 413.5Q136 429 111 455Q86 481 73 516.5Q60 552 60 593Z" glyph-name="degree" horiz-adv-x="503" unicode="&#176;" /><glyph d="M817 390Q764 348 712.5 300.5Q661 253 614 201.5Q567 150 525.5 96.5Q484 43 451 -10H449Q416 43 374.5 96.5Q333 150 286 201.5Q239 253 187.5 300.5Q136 348 83 390Q136 432 187.5 479.5Q239 527 286 578.5Q333 630 374.5 683.5Q416 737 449 790H451Q484 737 525.5 683.5Q567 630 614 578.5Q661 527 712.5 479.5Q764 432 817 390Z" glyph-name="diamond" horiz-adv-x="900" unicode="&#9830;" /><glyph d="M318 703Q318 725 326 744Q334 763 347.5 777Q361 791 379 799.5Q397 808 417 808Q438 808 457 799.5Q476 791 489.5 777Q503 763 511 744Q519 725 519 703Q519 682 511 663.5Q503 645 489.5 631Q476 617 457 609Q438 601 417 601Q397 601 379 609Q361 617 347.5 631Q334 645 326 663.5Q318 682 318 703ZM81 703Q81 725 89 744Q97 763 110.5 777Q124 791 142 799.5Q160 808 180 808Q201 808 219.5 799.5Q238 791 252 777Q266 763 274 744Q282 725 282 703Q282 682 274 663.5Q266 645 252 631Q238 617 219.5 609Q201 601 180 601Q160 601 142 609Q124 617 110.5 631Q97 645 89 663.5Q81 682 81 703Z" glyph-name="dieresis" horiz-adv-x="600" unicode="&#168;" /><glyph d="M318 930Q318 952 326 971Q334 990 347.5 1004Q361 1018 379 1026.5Q397 1035 417 1035Q438 1035 457 1026.5Q476 1018 489.5 1004Q503 990 511 971Q519 952 519 930Q519 909 511 890.5Q503 872 489.5 858Q476 844 457 836Q438 828 417 828Q397 828 379 836Q361 844 347.5 858Q334 872 326 890.5Q318 909 318 930ZM81 930Q81 952 89 971Q97 990 110.5 1004Q124 1018 142 1026.5Q160 1035 180 1035Q201 1035 219.5 1026.5Q238 1018 252 1004Q266 990 274 971Q282 952 282 930Q282 909 274 890.5Q266 872 252 858Q238 844 219.5 836Q201 828 180 828Q160 828 142 836Q124 844 110.5 858Q97 872 89 890.5Q81 909 81 930Z" glyph-name="dieresis.cap" horiz-adv-x="600" unicode="&#58409;" /><glyph d="M262 94Q262 132 287.5 158Q313 184 350 184Q368 184 384 177Q400 170 412 158Q424 146 431 129.5Q438 113 438 94Q438 76 431 59.5Q424 43 412 30.5Q400 18 384 11Q368 4 350 4Q313 4 287.5 30.5Q262 57 262 94ZM262 515Q262 552 287.5 578.5Q313 605 350 605Q368 605 384 598Q400 591 412 578.5Q424 566 431 549.5Q438 533 438 515Q438 496 431 479.5Q424 463 412 451Q400 439 384 432Q368 425 350 425Q313 425 287.5 451Q262 477 262 515ZM80 251V358H620V251Z" glyph-name="divide" horiz-adv-x="700" unicode="&#247;" /><glyph d="M262 180Q262 217 287.5 243.5Q313 270 350 270Q368 270 384 263Q400 256 412 243.5Q424 231 431 214.5Q438 198 438 180Q438 161 431 144.5Q424 128 412 116Q400 104 384 97Q368 90 350 90Q313 90 287.5 116Q262 142 262 180ZM262 600Q262 638 287.5 664Q313 690 350 690Q368 690 384 683Q400 676 412 664Q424 652 431 635.5Q438 619 438 600Q438 582 431 565.5Q424 549 412 536.5Q400 524 384 517Q368 510 350 510Q313 510 287.5 536.5Q262 563 262 600ZM80 336V444H620V336Z" glyph-name="divide.cap" horiz-adv-x="700" unicode="&#58772;" /><glyph d="M219 618Q219 574 242 548.5Q265 523 319 510L355 708Q340 711 324 711Q272 711 245.5 683.5Q219 656 219 618ZM339 273 303 73Q322 70 344 70Q393 70 425 93Q457 116 457 164Q457 207 432 232.5Q407 258 345 272ZM226 -2Q169 6 122.5 24Q76 42 47 64L33 251H156Q170 193 191 154.5Q212 116 244 96L279 286L251 293Q150 316 95.5 371Q41 426 41 529Q41 592 63.5 640.5Q86 689 126 722.5Q166 756 220.5 773Q275 790 340 790Q348 790 355 790Q362 790 370 789L391 905H455L433 784Q486 776 527 760.5Q568 745 598 724L601 554H495Q480 596 462 630.5Q444 665 415 686L380 498L418 491Q466 482 507.5 465.5Q549 449 579.5 420.5Q610 392 627.5 349.5Q645 307 645 246Q645 179 620 130.5Q595 82 551.5 51Q508 20 449.5 5Q391 -10 324 -10Q315 -10 306 -9.5Q297 -9 288 -9L267 -125H204Z" glyph-name="dollar" horiz-adv-x="681" unicode="$" /><glyph d="M219 618Q219 574 242 548.5Q265 523 319 510L355 708Q340 711 324 711Q272 711 245.5 683.5Q219 656 219 618ZM339 273 303 73Q322 70 344 70Q393 70 425 93Q457 116 457 164Q457 207 432 232.5Q407 258 345 272ZM226 -2Q169 6 122.5 24Q76 42 47 64L33 251H156Q170 193 191 154.5Q212 116 244 96L279 286L251 293Q150 316 95.5 371Q41 426 41 529Q41 592 63.5 640.5Q86 689 126 722.5Q166 756 220.5 773Q275 790 340 790Q348 790 355 790Q362 790 370 789L391 905H455L433 784Q486 776 527 760.5Q568 745 598 724L601 554H495Q480 596 462 630.5Q444 665 415 686L380 498L418 491Q466 482 507.5 465.5Q549 449 579.5 420.5Q610 392 627.5 349.5Q645 307 645 246Q645 179 620 130.5Q595 82 551.5 51Q508 20 449.5 5Q391 -10 324 -10Q315 -10 306 -9.5Q297 -9 288 -9L267 -125H204Z" glyph-name="dollar.LP" horiz-adv-x="681" unicode="&#58658;" /><glyph d="M210 522Q210 489 231 472.5Q252 456 287 450L294 448L320 594H310Q262 594 236 576.5Q210 559 210 522ZM318 229 288 59Q296 58 304.5 58Q313 58 322 58Q373 58 404.5 80.5Q436 103 436 143Q436 177 412.5 197Q389 217 335 226ZM215 -3Q161 5 117.5 20Q74 35 41 55L35 206H153Q160 161 177 128Q194 95 229 77L257 239L244 241Q197 248 159 263Q121 278 94 302Q67 326 52.5 360Q38 394 38 440Q38 497 58 538.5Q78 580 114.5 607.5Q151 635 203 648.5Q255 662 320 662H332L351 769H413L393 658Q442 653 486 642Q530 631 564 612V483H458Q447 519 431 545Q415 571 380 584L355 438L390 432Q438 423 478.5 409Q519 395 548.5 371Q578 347 594.5 311Q611 275 611 223Q611 166 589 122Q567 78 528 49Q489 20 434.5 5Q380 -10 316 -10Q305 -10 295.5 -9.5Q286 -9 276 -8L257 -118H195Z" glyph-name="dollar.OP" horiz-adv-x="648" unicode="&#59806;" /><glyph d="M184 711Q184 759 213.5 791Q243 823 299 823Q356 823 386 791Q416 759 416 711Q416 664 386 632.5Q356 601 299 601Q243 601 213.5 632.5Q184 664 184 711Z" glyph-name="dotaccent" horiz-adv-x="600" unicode="&#729;" /><glyph d="M184 939Q184 987 213.5 1019Q243 1051 299 1051Q356 1051 386 1019Q416 987 416 939Q416 892 386 860.5Q356 829 299 829Q243 829 213.5 860.5Q184 892 184 939Z" glyph-name="dotaccent.cap" horiz-adv-x="600" unicode="&#58408;" /><glyph d="M205 -162Q205 -142 212.5 -124.5Q220 -107 233 -93.5Q246 -80 263 -72Q280 -64 299 -64Q318 -64 335.5 -72Q353 -80 366 -93.5Q379 -107 386.5 -124.5Q394 -142 394 -162Q394 -182 386.5 -199Q379 -216 366 -229.5Q353 -243 335.5 -250.5Q318 -258 299 -258Q280 -258 263 -250.5Q246 -243 233 -229.5Q220 -216 212.5 -199Q205 -182 205 -162Z" glyph-name="dotbelow" horiz-adv-x="600" unicode="&#58389;" /><glyph d="M300 128Q300 111 302.5 100.5Q305 90 312 84.5Q319 79 330.5 76Q342 73 359 71V0H35V71Q52 73 63.5 76Q75 79 81.5 84.5Q88 90 91 100.5Q94 111 94 128V412L40 475V513L265 569H305L300 474Z" glyph-name="dotlessi" horiz-adv-x="386" unicode="&#305;" /><glyph d="M20 475V513L245 569H285L280 474V104Q280 59 274 25Q268 -9 257.5 -35.5Q247 -62 232.5 -83Q218 -104 200 -123Q158 -167 119.5 -195Q81 -223 38 -241L-5 -201L36 -132Q61 -91 67.5 -45.5Q74 0 74 59V412Z" glyph-name="dotlessj" horiz-adv-x="343" unicode="&#567;" /><glyph d="M379 -120H280V830H379ZM199 -120H100V830H199Z" glyph-name="doublebar" horiz-adv-x="479" unicode="&#8214;" /><glyph d="M379 -90H280V860H379ZM199 -90H100V860H199Z" glyph-name="doublebar.cap" horiz-adv-x="479" unicode="&#58468;" /><glyph d="M375 -133H280V748H375ZM195 -133H100V748H195Z" glyph-name="doublebar.smcp" horiz-adv-x="475" unicode="&#58474;" /><glyph d="M259 800 326 592H237L104 800ZM458 800 525 592H437L303 800Z" glyph-name="doublegrave" horiz-adv-x="600" unicode="&#58386;" /><glyph d="M259 1030 326 822H237L104 1030ZM458 1030 525 822H437L303 1030Z" glyph-name="doublegrave.cap" horiz-adv-x="600" unicode="&#58412;" /><glyph d="M303 491Q282 491 267 481Q252 471 242 454Q232 437 226.5 413Q221 389 218 362H375Q373 422 357 456.5Q341 491 303 491ZM321 563Q379 563 423 545.5Q467 528 496.5 498Q526 468 541 427Q556 386 556 340V300H216Q216 264 227.5 235Q239 206 260 185.5Q281 165 309.5 154Q338 143 371 143Q421 143 454.5 160.5Q488 178 514 210L559 184Q547 146 526.5 111Q506 76 475 49Q444 22 402 6Q360 -10 305 -10Q246 -10 195.5 7Q145 24 107.5 57.5Q70 91 48.5 141Q27 191 27 258Q27 327 50.5 383.5Q74 440 114 479.5Q154 519 207.5 541Q261 563 321 563Z" glyph-name="e" horiz-adv-x="586" unicode="e" /><glyph d="M655 587 660 377H572Q564 404 556.5 428Q549 452 537 470Q525 488 506.5 498.5Q488 509 459 509H335V330H385Q415 330 426 349.5Q437 369 444 407H516V179H444Q437 218 426 237.5Q415 257 385 257H335V135Q335 102 353.5 90Q372 78 414 78H453Q480 78 499 84.5Q518 91 534.5 106.5Q551 122 567 149.5Q583 177 606 219H697L661 0H35V75Q66 76 83 80.5Q100 85 108 94Q116 103 117.5 118.5Q119 134 119 159V428Q119 453 117.5 468.5Q116 484 108 493.5Q100 503 83 507Q66 511 35 512V587Z" glyph-name="e.smcp" horiz-adv-x="729" unicode="&#57861;" /><glyph d="M215 699Q192 699 179.5 673Q167 647 165 609H264Q264 651 253.5 675Q243 699 215 699ZM234 752Q277 752 309 739Q341 726 363 704.5Q385 683 396 654Q407 625 407 592V563H164Q164 510 193.5 484.5Q223 459 267 459Q302 459 326.5 472.5Q351 486 371 509L404 488Q396 458 380.5 432Q365 406 341.5 386.5Q318 367 285.5 356Q253 345 213 345Q172 345 136 356.5Q100 368 73 391.5Q46 415 30.5 451Q15 487 15 536Q15 584 31 624Q47 664 76 692.5Q105 721 145.5 736.5Q186 752 234 752Z" glyph-name="e.superior" horiz-adv-x="422" unicode="&#58213;" /><glyph d="M303 491Q282 491 267 481Q252 471 242 454Q232 437 226.5 413Q221 389 218 362H375Q373 422 357 456.5Q341 491 303 491ZM321 563Q379 563 423 545.5Q467 528 496.5 498Q526 468 541 427Q556 386 556 340V300H216Q216 264 227.5 235Q239 206 260 185.5Q281 165 309.5 154Q338 143 371 143Q421 143 454.5 160.5Q488 178 514 210L559 184Q547 146 526.5 111Q506 76 475 49Q444 22 402 6Q360 -10 305 -10Q246 -10 195.5 7Q145 24 107.5 57.5Q70 91 48.5 141Q27 191 27 258Q27 327 50.5 383.5Q74 440 114 479.5Q154 519 207.5 541Q261 563 321 563ZM551 800 336 592H238L336 800Z" glyph-name="eacute" horiz-adv-x="586" unicode="&#233;" /><glyph d="M655 587 660 377H572Q564 404 556.5 428Q549 452 537 470Q525 488 506.5 498.5Q488 509 459 509H335V330H385Q415 330 426 349.5Q437 369 444 407H516V179H444Q437 218 426 237.5Q415 257 385 257H335V135Q335 102 353.5 90Q372 78 414 78H453Q480 78 499 84.5Q518 91 534.5 106.5Q551 122 567 149.5Q583 177 606 219H697L661 0H35V75Q66 76 83 80.5Q100 85 108 94Q116 103 117.5 118.5Q119 134 119 159V428Q119 453 117.5 468.5Q116 484 108 493.5Q100 503 83 507Q66 511 35 512V587ZM629 833 414 625H316L414 833Z" glyph-name="eacute.smcp" horiz-adv-x="729" unicode="&#57917;" /><glyph d="M302 598Q254 598 220 612Q186 626 164.5 652Q143 678 133.5 715.5Q124 753 124 800H187Q191 774 202 758Q213 742 228.5 733Q244 724 263 721Q282 718 302 718Q322 718 341 721Q360 724 375.5 733Q391 742 402 758Q413 774 417 800H480Q480 753 470.5 715.5Q461 678 439.5 652Q418 626 384 612Q350 598 302 598ZM303 491Q282 491 267 481Q252 471 242 454Q232 437 226.5 413Q221 389 218 362H375Q373 422 357 456.5Q341 491 303 491ZM321 563Q379 563 423 545.5Q467 528 496.5 498Q526 468 541 427Q556 386 556 340V300H216Q216 264 227.5 235Q239 206 260 185.5Q281 165 309.5 154Q338 143 371 143Q421 143 454.5 160.5Q488 178 514 210L559 184Q547 146 526.5 111Q506 76 475 49Q444 22 402 6Q360 -10 305 -10Q246 -10 195.5 7Q145 24 107.5 57.5Q70 91 48.5 141Q27 191 27 258Q27 327 50.5 383.5Q74 440 114 479.5Q154 519 207.5 541Q261 563 321 563Z" glyph-name="ebreve" horiz-adv-x="586" unicode="&#277;" /><glyph d="M376 631Q328 631 294 645Q260 659 238.5 685Q217 711 207.5 748.5Q198 786 198 833H261Q265 807 276 791Q287 775 302.5 766Q318 757 337 754Q356 751 376 751Q396 751 415 754Q434 757 449.5 766Q465 775 476 791Q487 807 491 833H554Q554 786 544.5 748.5Q535 711 513.5 685Q492 659 458 645Q424 631 376 631ZM655 587 660 377H572Q564 404 556.5 428Q549 452 537 470Q525 488 506.5 498.5Q488 509 459 509H335V330H385Q415 330 426 349.5Q437 369 444 407H516V179H444Q437 218 426 237.5Q415 257 385 257H335V135Q335 102 353.5 90Q372 78 414 78H453Q480 78 499 84.5Q518 91 534.5 106.5Q551 122 567 149.5Q583 177 606 219H697L661 0H35V75Q66 76 83 80.5Q100 85 108 94Q116 103 117.5 118.5Q119 134 119 159V428Q119 453 117.5 468.5Q116 484 108 493.5Q100 503 83 507Q66 511 35 512V587Z" glyph-name="ebreve.smcp" horiz-adv-x="729" unicode="&#57923;" /><glyph d="M303 491Q282 491 267 481Q252 471 242 454Q232 437 226.5 413Q221 389 218 362H375Q373 422 357 456.5Q341 491 303 491ZM321 563Q379 563 423 545.5Q467 528 496.5 498Q526 468 541 427Q556 386 556 340V300H216Q216 264 227.5 235Q239 206 260 185.5Q281 165 309.5 154Q338 143 371 143Q421 143 454.5 160.5Q488 178 514 210L559 184Q547 146 526.5 111Q506 76 475 49Q444 22 402 6Q360 -10 305 -10Q246 -10 195.5 7Q145 24 107.5 57.5Q70 91 48.5 141Q27 191 27 258Q27 327 50.5 383.5Q74 440 114 479.5Q154 519 207.5 541Q261 563 321 563ZM82 800H183L302 708L421 800H522L363 592H241Z" glyph-name="ecaron" horiz-adv-x="586" unicode="&#283;" /><glyph d="M655 587 660 377H572Q564 404 556.5 428Q549 452 537 470Q525 488 506.5 498.5Q488 509 459 509H335V330H385Q415 330 426 349.5Q437 369 444 407H516V179H444Q437 218 426 237.5Q415 257 385 257H335V135Q335 102 353.5 90Q372 78 414 78H453Q480 78 499 84.5Q518 91 534.5 106.5Q551 122 567 149.5Q583 177 606 219H697L661 0H35V75Q66 76 83 80.5Q100 85 108 94Q116 103 117.5 118.5Q119 134 119 159V428Q119 453 117.5 468.5Q116 484 108 493.5Q100 503 83 507Q66 511 35 512V587ZM156 833H257L376 741L495 833H596L437 625H315Z" glyph-name="ecaron.smcp" horiz-adv-x="729" unicode="&#57921;" /><glyph d="M303 491Q282 491 267 481Q252 471 242 454Q232 437 226.5 413Q221 389 218 362H375Q373 422 357 456.5Q341 491 303 491ZM321 563Q379 563 423 545.5Q467 528 496.5 498Q526 468 541 427Q556 386 556 340V300H216Q216 264 227.5 235Q239 206 260 185.5Q281 165 309.5 154Q338 143 371 143Q421 143 454.5 160.5Q488 178 514 210L559 184Q547 146 526.5 111Q506 76 475 49Q444 22 402 6Q360 -10 305 -10Q246 -10 195.5 7Q145 24 107.5 57.5Q70 91 48.5 141Q27 191 27 258Q27 327 50.5 383.5Q74 440 114 479.5Q154 519 207.5 541Q261 563 321 563ZM522 592H421L302 684L183 592H82L241 800H363Z" glyph-name="ecircumflex" horiz-adv-x="586" unicode="&#234;" /><glyph d="M655 587 660 377H572Q564 404 556.5 428Q549 452 537 470Q525 488 506.5 498.5Q488 509 459 509H335V330H385Q415 330 426 349.5Q437 369 444 407H516V179H444Q437 218 426 237.5Q415 257 385 257H335V135Q335 102 353.5 90Q372 78 414 78H453Q480 78 499 84.5Q518 91 534.5 106.5Q551 122 567 149.5Q583 177 606 219H697L661 0H35V75Q66 76 83 80.5Q100 85 108 94Q116 103 117.5 118.5Q119 134 119 159V428Q119 453 117.5 468.5Q116 484 108 493.5Q100 503 83 507Q66 511 35 512V587ZM599 625H498L379 717L260 625H159L318 833H440Z" glyph-name="ecircumflex.smcp" horiz-adv-x="729" unicode="&#57919;" /><glyph d="M303 491Q282 491 267 481Q252 471 242 454Q232 437 226.5 413Q221 389 218 362H375Q373 422 357 456.5Q341 491 303 491ZM321 563Q379 563 423 545.5Q467 528 496.5 498Q526 468 541 427Q556 386 556 340V300H216Q216 264 227.5 235Q239 206 260 185.5Q281 165 309.5 154Q338 143 371 143Q421 143 454.5 160.5Q488 178 514 210L559 184Q547 146 526.5 111Q506 76 475 49Q444 22 402 6Q360 -10 305 -10Q246 -10 195.5 7Q145 24 107.5 57.5Q70 91 48.5 141Q27 191 27 258Q27 327 50.5 383.5Q74 440 114 479.5Q154 519 207.5 541Q261 563 321 563ZM320 703Q320 725 328 744Q336 763 349.5 777Q363 791 381 799.5Q399 808 419 808Q440 808 459 799.5Q478 791 491.5 777Q505 763 513 744Q521 725 521 703Q521 682 513 663.5Q505 645 491.5 631Q478 617 459 609Q440 601 419 601Q399 601 381 609Q363 617 349.5 631Q336 645 328 663.5Q320 682 320 703ZM83 703Q83 725 91 744Q99 763 112.5 777Q126 791 144 799.5Q162 808 182 808Q203 808 221.5 799.5Q240 791 254 777Q268 763 276 744Q284 725 284 703Q284 682 276 663.5Q268 645 254 631Q240 617 221.5 609Q203 601 182 601Q162 601 144 609Q126 617 112.5 631Q99 645 91 663.5Q83 682 83 703Z" glyph-name="edieresis" horiz-adv-x="586" unicode="&#235;" /><glyph d="M655 587 660 377H572Q564 404 556.5 428Q549 452 537 470Q525 488 506.5 498.5Q488 509 459 509H335V330H385Q415 330 426 349.5Q437 369 444 407H516V179H444Q437 218 426 237.5Q415 257 385 257H335V135Q335 102 353.5 90Q372 78 414 78H453Q480 78 499 84.5Q518 91 534.5 106.5Q551 122 567 149.5Q583 177 606 219H697L661 0H35V75Q66 76 83 80.5Q100 85 108 94Q116 103 117.5 118.5Q119 134 119 159V428Q119 453 117.5 468.5Q116 484 108 493.5Q100 503 83 507Q66 511 35 512V587ZM394 736Q394 758 402 777Q410 796 423.5 810Q437 824 455 832.5Q473 841 493 841Q514 841 533 832.5Q552 824 565.5 810Q579 796 587 777Q595 758 595 736Q595 715 587 696.5Q579 678 565.5 664Q552 650 533 642Q514 634 493 634Q473 634 455 642Q437 650 423.5 664Q410 678 402 696.5Q394 715 394 736ZM157 736Q157 758 165 777Q173 796 186.5 810Q200 824 218 832.5Q236 841 256 841Q277 841 295.5 832.5Q314 824 328 810Q342 796 350 777Q358 758 358 736Q358 715 350 696.5Q342 678 328 664Q314 650 295.5 642Q277 634 256 634Q236 634 218 642Q200 650 186.5 664Q173 678 165 696.5Q157 715 157 736Z" glyph-name="edieresis.smcp" horiz-adv-x="729" unicode="&#57904;" /><glyph d="M186 711Q186 759 215.5 791Q245 823 301 823Q358 823 388 791Q418 759 418 711Q418 664 388 632.5Q358 601 301 601Q245 601 215.5 632.5Q186 664 186 711ZM303 491Q282 491 267 481Q252 471 242 454Q232 437 226.5 413Q221 389 218 362H375Q373 422 357 456.5Q341 491 303 491ZM321 563Q379 563 423 545.5Q467 528 496.5 498Q526 468 541 427Q556 386 556 340V300H216Q216 264 227.5 235Q239 206 260 185.5Q281 165 309.5 154Q338 143 371 143Q421 143 454.5 160.5Q488 178 514 210L559 184Q547 146 526.5 111Q506 76 475 49Q444 22 402 6Q360 -10 305 -10Q246 -10 195.5 7Q145 24 107.5 57.5Q70 91 48.5 141Q27 191 27 258Q27 327 50.5 383.5Q74 440 114 479.5Q154 519 207.5 541Q261 563 321 563Z" glyph-name="edotaccent" horiz-adv-x="586" unicode="&#279;" /><glyph d="M260 744Q260 792 289.5 824Q319 856 375 856Q432 856 462 824Q492 792 492 744Q492 697 462 665.5Q432 634 375 634Q319 634 289.5 665.5Q260 697 260 744ZM655 587 660 377H572Q564 404 556.5 428Q549 452 537 470Q525 488 506.5 498.5Q488 509 459 509H335V330H385Q415 330 426 349.5Q437 369 444 407H516V179H444Q437 218 426 237.5Q415 257 385 257H335V135Q335 102 353.5 90Q372 78 414 78H453Q480 78 499 84.5Q518 91 534.5 106.5Q551 122 567 149.5Q583 177 606 219H697L661 0H35V75Q66 76 83 80.5Q100 85 108 94Q116 103 117.5 118.5Q119 134 119 159V428Q119 453 117.5 468.5Q116 484 108 493.5Q100 503 83 507Q66 511 35 512V587Z" glyph-name="edotaccent.smcp" horiz-adv-x="729" unicode="&#57926;" /><glyph d="M271 800 355 592H257L42 800ZM303 491Q282 491 267 481Q252 471 242 454Q232 437 226.5 413Q221 389 218 362H375Q373 422 357 456.5Q341 491 303 491ZM321 563Q379 563 423 545.5Q467 528 496.5 498Q526 468 541 427Q556 386 556 340V300H216Q216 264 227.5 235Q239 206 260 185.5Q281 165 309.5 154Q338 143 371 143Q421 143 454.5 160.5Q488 178 514 210L559 184Q547 146 526.5 111Q506 76 475 49Q444 22 402 6Q360 -10 305 -10Q246 -10 195.5 7Q145 24 107.5 57.5Q70 91 48.5 141Q27 191 27 258Q27 327 50.5 383.5Q74 440 114 479.5Q154 519 207.5 541Q261 563 321 563Z" glyph-name="egrave" horiz-adv-x="586" unicode="&#232;" /><glyph d="M348 833 432 625H334L119 833ZM655 587 660 377H572Q564 404 556.5 428Q549 452 537 470Q525 488 506.5 498.5Q488 509 459 509H335V330H385Q415 330 426 349.5Q437 369 444 407H516V179H444Q437 218 426 237.5Q415 257 385 257H335V135Q335 102 353.5 90Q372 78 414 78H453Q480 78 499 84.5Q518 91 534.5 106.5Q551 122 567 149.5Q583 177 606 219H697L661 0H35V75Q66 76 83 80.5Q100 85 108 94Q116 103 117.5 118.5Q119 134 119 159V428Q119 453 117.5 468.5Q116 484 108 493.5Q100 503 83 507Q66 511 35 512V587Z" glyph-name="egrave.smcp" horiz-adv-x="729" unicode="&#57918;" /><glyph d="M416 486Q435 501 450.5 530.5Q466 560 466 599Q466 649 435 678Q404 707 350 707Q297 707 269.5 682Q242 657 242 620Q242 586 262.5 563Q283 540 325 523ZM243 313Q227 299 216.5 272.5Q206 246 206 209Q206 146 247 110Q288 74 352 74Q405 74 440.5 95Q476 116 476 160Q476 195 454 217Q432 239 392 255ZM624 611Q624 578 612.5 552.5Q601 527 580.5 508.5Q560 490 532.5 478.5Q505 467 472 461L484 456Q528 438 560.5 417Q593 396 615 369.5Q637 343 647.5 310.5Q658 278 658 237Q658 177 635 131Q612 85 571.5 53.5Q531 22 475 6Q419 -10 352 -10Q280 -10 222.5 2.5Q165 15 124.5 39Q84 63 62.5 98.5Q41 134 41 180Q41 215 53 241.5Q65 268 86 287Q107 306 136 318.5Q165 331 199 337L190 341Q133 366 99 417.5Q65 469 65 541Q65 601 86 647.5Q107 694 144.5 725.5Q182 757 234.5 773.5Q287 790 350 790Q478 790 551 743Q624 696 624 611Z" glyph-name="eight" horiz-adv-x="700" unicode="8" /><glyph d="M413 486Q432 501 447.5 530.5Q463 560 463 599Q463 649 432 678Q401 707 347 707Q294 707 266.5 682Q239 657 239 620Q239 586 259.5 563Q280 540 322 523ZM240 313Q224 299 213.5 272.5Q203 246 203 209Q203 146 244 110Q285 74 349 74Q402 74 437.5 95Q473 116 473 160Q473 195 451 217Q429 239 389 255ZM621 611Q621 578 609.5 552.5Q598 527 577.5 508.5Q557 490 529.5 478.5Q502 467 469 461L481 456Q525 438 557.5 417Q590 396 612 369.5Q634 343 644.5 310.5Q655 278 655 237Q655 177 632 131Q609 85 568.5 53.5Q528 22 472 6Q416 -10 349 -10Q277 -10 219.5 2.5Q162 15 121.5 39Q81 63 59.5 98.5Q38 134 38 180Q38 215 50 241.5Q62 268 83 287Q104 306 133 318.5Q162 331 196 337L187 341Q130 366 96 417.5Q62 469 62 541Q62 601 83 647.5Q104 694 141.5 725.5Q179 757 231.5 773.5Q284 790 347 790Q475 790 548 743Q621 696 621 611Z" glyph-name="eight.LP" horiz-adv-x="694" unicode="&#58685;" /><glyph d="M416 486Q435 501 450.5 530.5Q466 560 466 599Q466 649 435 678Q404 707 350 707Q297 707 269.5 682Q242 657 242 620Q242 586 262.5 563Q283 540 325 523ZM243 313Q227 299 216.5 272.5Q206 246 206 209Q206 146 247 110Q288 74 352 74Q405 74 440.5 95Q476 116 476 160Q476 195 454 217Q432 239 392 255ZM624 611Q624 578 612.5 552.5Q601 527 580.5 508.5Q560 490 532.5 478.5Q505 467 472 461L484 456Q528 438 560.5 417Q593 396 615 369.5Q637 343 647.5 310.5Q658 278 658 237Q658 177 635 131Q612 85 571.5 53.5Q531 22 475 6Q419 -10 352 -10Q280 -10 222.5 2.5Q165 15 124.5 39Q84 63 62.5 98.5Q41 134 41 180Q41 215 53 241.5Q65 268 86 287Q107 306 136 318.5Q165 331 199 337L190 341Q133 366 99 417.5Q65 469 65 541Q65 601 86 647.5Q107 694 144.5 725.5Q182 757 234.5 773.5Q287 790 350 790Q478 790 551 743Q624 696 624 611Z" glyph-name="eight.LT" horiz-adv-x="700" unicode="&#58696;" /><glyph d="M234 633Q234 594 255.5 573Q277 552 312 532L398 483Q417 507 427.5 539Q438 571 438 613Q438 659 410.5 690Q383 721 329 721Q282 721 258 696Q234 671 234 633ZM255 327Q231 304 216 269Q201 234 201 184Q201 155 210.5 132Q220 109 237.5 93Q255 77 278.5 68Q302 59 330 59Q390 59 420.5 88Q451 117 451 159Q451 195 430 217.5Q409 240 374 259ZM592 604Q592 574 580.5 549Q569 524 549.5 505Q530 486 504 472.5Q478 459 450 452L480 438Q508 423 534.5 403Q561 383 582 356.5Q603 330 615.5 297Q628 264 628 222Q628 166 604.5 123Q581 80 540.5 50.5Q500 21 446 5.5Q392 -10 330 -10Q262 -10 208 3.5Q154 17 116 42Q78 67 57.5 103Q37 139 37 183Q37 246 80.5 290.5Q124 335 206 356L186 367Q162 380 140.5 399Q119 418 102.5 443.5Q86 469 76 501Q66 533 66 571Q66 622 85.5 662.5Q105 703 140 731.5Q175 760 223.5 775Q272 790 329 790Q390 790 439 777Q488 764 522 739.5Q556 715 574 680.5Q592 646 592 604Z" glyph-name="eight.OP" horiz-adv-x="665" unicode="&#58707;" /><glyph d="M254 633Q254 594 275.5 573Q297 552 332 532L418 483Q437 507 447.5 539Q458 571 458 613Q458 659 430.5 690Q403 721 349 721Q302 721 278 696Q254 671 254 633ZM275 327Q251 304 236 269Q221 234 221 184Q221 155 230.5 132Q240 109 257.5 93Q275 77 298.5 68Q322 59 350 59Q410 59 440.5 88Q471 117 471 159Q471 195 450 217.5Q429 240 394 259ZM612 604Q612 574 600.5 549Q589 524 569.5 505Q550 486 524 472.5Q498 459 470 452L500 438Q528 423 554.5 403Q581 383 602 356.5Q623 330 635.5 297Q648 264 648 222Q648 166 624.5 123Q601 80 560.5 50.5Q520 21 466 5.5Q412 -10 350 -10Q282 -10 228 3.5Q174 17 136 42Q98 67 77.5 103Q57 139 57 183Q57 246 100.5 290.5Q144 335 226 356L206 367Q182 380 160.5 399Q139 418 122.5 443.5Q106 469 96 501Q86 533 86 571Q86 622 105.5 662.5Q125 703 160 731.5Q195 760 243.5 775Q292 790 349 790Q410 790 459 777Q508 764 542 739.5Q576 715 594 680.5Q612 646 612 604Z" glyph-name="eight.OT" horiz-adv-x="700" unicode="&#58718;" /><glyph d="M281 69Q289 80 295 95Q301 110 301 130Q301 159 284 175.5Q267 192 235 192Q205 192 189.5 179Q174 166 174 144Q174 107 219 91ZM160 -55Q152 -68 148.5 -81Q145 -94 145 -111Q145 -151 171.5 -169.5Q198 -188 236 -188Q269 -188 287.5 -176.5Q306 -165 306 -142Q306 -124 294 -113.5Q282 -103 255 -92ZM420 142Q420 99 392.5 79.5Q365 60 321 53L335 48Q381 31 411.5 -1Q442 -33 442 -86Q442 -130 426 -160Q410 -190 382 -209.5Q354 -229 316.5 -237.5Q279 -246 236 -246Q189 -246 150.5 -239Q112 -232 84.5 -218Q57 -204 42 -182Q27 -160 27 -131Q27 -90 55.5 -68Q84 -46 127 -39L113 -32Q100 -25 87 -14.5Q74 -4 63.5 12Q53 28 46.5 48.5Q40 69 40 95Q40 135 55 164.5Q70 194 96 213Q122 232 157.5 241Q193 250 235 250Q322 250 371 221.5Q420 193 420 142Z" glyph-name="eight.inf" horiz-adv-x="469" unicode="&#58745;" /><glyph d="M705 110Q705 137 714.5 159Q724 181 740 197Q756 213 778 222Q800 231 825 231Q850 231 872 222Q894 213 910 197Q926 181 935.5 159Q945 137 945 110Q945 83 935.5 61Q926 39 910 23.5Q894 8 872 -1Q850 -10 825 -10Q800 -10 778 -1Q756 8 740 23.5Q724 39 714.5 61Q705 83 705 110ZM380 110Q380 137 389.5 159Q399 181 415 197Q431 213 453 222Q475 231 500 231Q525 231 547 222Q569 213 585 197Q601 181 610.5 159Q620 137 620 110Q620 83 610.5 61Q601 39 585 23.5Q569 8 547 -1Q525 -10 500 -10Q475 -10 453 -1Q431 8 415 23.5Q399 39 389.5 61Q380 83 380 110ZM55 110Q55 137 64.5 159Q74 181 90 197Q106 213 128 222Q150 231 175 231Q200 231 222 222Q244 213 260 197Q276 181 285.5 159Q295 137 295 110Q295 83 285.5 61Q276 39 260 23.5Q244 8 222 -1Q200 -10 175 -10Q150 -10 128 -1Q106 8 90 23.5Q74 39 64.5 61Q55 83 55 110Z" glyph-name="ellipsis" horiz-adv-x="1000" unicode="&#8230;" /><glyph d="M146 720H458V618H146ZM303 491Q282 491 267 481Q252 471 242 454Q232 437 226.5 413Q221 389 218 362H375Q373 422 357 456.5Q341 491 303 491ZM321 563Q379 563 423 545.5Q467 528 496.5 498Q526 468 541 427Q556 386 556 340V300H216Q216 264 227.5 235Q239 206 260 185.5Q281 165 309.5 154Q338 143 371 143Q421 143 454.5 160.5Q488 178 514 210L559 184Q547 146 526.5 111Q506 76 475 49Q444 22 402 6Q360 -10 305 -10Q246 -10 195.5 7Q145 24 107.5 57.5Q70 91 48.5 141Q27 191 27 258Q27 327 50.5 383.5Q74 440 114 479.5Q154 519 207.5 541Q261 563 321 563Z" glyph-name="emacron" horiz-adv-x="586" unicode="&#275;" /><glyph d="M223 753H535V651H223ZM655 587 660 377H572Q564 404 556.5 428Q549 452 537 470Q525 488 506.5 498.5Q488 509 459 509H335V330H385Q415 330 426 349.5Q437 369 444 407H516V179H444Q437 218 426 237.5Q415 257 385 257H335V135Q335 102 353.5 90Q372 78 414 78H453Q480 78 499 84.5Q518 91 534.5 106.5Q551 122 567 149.5Q583 177 606 219H697L661 0H35V75Q66 76 83 80.5Q100 85 108 94Q116 103 117.5 118.5Q119 134 119 159V428Q119 453 117.5 468.5Q116 484 108 493.5Q100 503 83 507Q66 511 35 512V587Z" glyph-name="emacron.smcp" horiz-adv-x="729" unicode="&#57922;" /><glyph d="M50 268V373H950V268Z" glyph-name="emdash" horiz-adv-x="1000" unicode="&#8212;" /><glyph d="M50 330V435H950V330Z" glyph-name="emdash.cap" horiz-adv-x="1000" unicode="&#58502;" /><glyph d="M50 248V353H950V248Z" glyph-name="emdash.smcp" horiz-adv-x="1000" unicode="&#60324;" /><glyph glyph-name="emspace" horiz-adv-x="1000" unicode="&#8195;" /><glyph d="M50 268V373H450V268Z" glyph-name="endash" horiz-adv-x="500" unicode="&#8211;" /><glyph d="M50 330V435H450V330Z" glyph-name="endash.cap" horiz-adv-x="500" unicode="&#58500;" /><glyph d="M50 248V353H450V248Z" glyph-name="endash.smcp" horiz-adv-x="500" unicode="&#60323;" /><glyph d="M451 374Q451 402 440.5 417.5Q430 433 395 433Q367 433 343 429Q319 425 300 420V128Q300 111 302.5 100.5Q305 90 312 84.5Q319 79 330.5 76Q342 73 359 71V0H35V71Q52 73 63.5 76Q75 79 81.5 84.5Q88 90 91 100.5Q94 111 94 128V412L40 475V513L265 569H305L300 465Q316 483 336 500.5Q356 518 380 532Q404 546 431.5 554.5Q459 563 492 563Q568 563 612.5 522.5Q657 482 657 399V-36Q657 -140 599.5 -195Q542 -250 411 -250Q358 -250 319.5 -241Q281 -232 256 -217Q231 -202 219 -181.5Q207 -161 207 -137Q207 -99 225.5 -79Q244 -59 270 -51H364V-100Q364 -137 373 -163Q382 -189 408 -189Q434 -189 442.5 -161.5Q451 -134 451 -85Z" glyph-name="eng" horiz-adv-x="694" unicode="&#331;" /><glyph d="M219 362V159Q219 134 220.5 118.5Q222 103 230 94Q238 85 255 80.5Q272 76 303 75V0H36V75Q67 76 84 80.5Q101 85 109 94Q117 103 118.5 118.5Q120 134 120 159V451Q101 475 82 493.5Q63 512 35 512V587H298L564 317V428Q564 453 562.5 468.5Q561 484 553 493.5Q545 503 528 507Q511 511 480 512V587H747V512Q716 511 699 507Q682 503 674 493.5Q666 484 664.5 468.5Q663 453 663 428V-38Q663 -139 612.5 -194.5Q562 -250 457 -250Q415 -250 379.5 -242.5Q344 -235 317.5 -219.5Q291 -204 276 -180Q261 -156 261 -122Q261 -87 277.5 -62.5Q294 -38 318 -24H425V-73Q425 -128 436.5 -153.5Q448 -179 490 -179Q529 -179 546.5 -147.5Q564 -116 564 -50V14Z" glyph-name="eng.smcp" horiz-adv-x="772" unicode="&#58155;" /><glyph glyph-name="enspace" horiz-adv-x="500" unicode="&#8194;" /><glyph d="M303 491Q282 491 267 481Q252 471 242 454Q232 437 226.5 413Q221 389 218 362H375Q373 422 357 456.5Q341 491 303 491ZM457 36Q427 9 408.5 -8.5Q390 -26 380.5 -41Q371 -56 368 -70.5Q365 -85 365 -104Q365 -130 377.5 -150.5Q390 -171 417 -171Q436 -171 449.5 -164.5Q463 -158 485 -141L498 -189Q479 -212 442 -231Q405 -250 364 -250Q303 -250 269.5 -220Q236 -190 236 -138Q236 -105 254.5 -71.5Q273 -38 312 -10H305Q246 -10 195.5 7Q145 24 107.5 57.5Q70 91 48.5 141Q27 191 27 258Q27 327 50.5 383.5Q74 440 114 479.5Q154 519 207.5 541Q261 563 321 563Q379 563 423 545.5Q467 528 496.5 498Q526 468 541 427Q556 386 556 340V300H216Q216 264 227.5 235Q239 206 260 185.5Q281 165 309.5 154Q338 143 371 143Q421 143 454.5 160.5Q488 178 514 210L560 184Q546 141 521 105.5Q496 70 457 36Z" glyph-name="eogonek" horiz-adv-x="586" unicode="&#281;" /><glyph d="M35 0V75Q66 76 83 80.5Q100 85 108 94Q116 103 117.5 118.5Q119 134 119 159V428Q119 453 117.5 468.5Q116 484 108 493.5Q100 503 83 507Q66 511 35 512V587H655L660 377H572Q563 404 555.5 428Q548 452 536 470Q524 488 506 498.5Q488 509 459 509H335V330H385Q415 330 426 349.5Q437 369 444 407H516V179H444Q437 218 426 237.5Q415 257 385 257H335V135Q335 102 353.5 90Q372 78 414 78H453Q480 78 499 84.5Q518 91 534.5 106.5Q551 122 567 149.5Q583 177 606 219H697L661 0Q626 -16 605 -32.5Q584 -49 572.5 -64.5Q561 -80 557.5 -93.5Q554 -107 554 -116Q554 -142 564.5 -156.5Q575 -171 602 -171Q620 -171 634 -164.5Q648 -158 670 -141L683 -189Q664 -212 627 -231Q590 -250 548 -250Q488 -250 454 -221Q420 -192 420 -145Q420 -124 429 -102.5Q438 -81 453.5 -62Q469 -43 491.5 -27Q514 -11 541 0Z" glyph-name="eogonek.smcp" horiz-adv-x="729" unicode="&#57929;" /><glyph d="M80 147V254H620V147ZM80 350V457H620V350Z" glyph-name="equal" horiz-adv-x="700" unicode="=" /><glyph d="M80 235V342H620V235ZM80 438V545H620V438Z" glyph-name="equal.cap" horiz-adv-x="700" unicode="&#58773;" /><glyph d="M50 10V87H388V10ZM50 -117V-39H388V-117Z" glyph-name="equal.inf" horiz-adv-x="438" unicode="&#58749;" /><glyph d="M80 335V443H620V335ZM80 553V660H620V553ZM80 120V227H620V120Z" glyph-name="equivalence" horiz-adv-x="700" unicode="&#8801;" /><glyph d="M80 429V537H620V429ZM80 647V754H620V647ZM80 214V321H620V214Z" glyph-name="equivalence.cap" horiz-adv-x="700" unicode="&#62000;" /><glyph d="M404 719Q329 719 285 692.5Q241 666 217 623Q193 580 184.5 526.5Q176 473 173 418H633Q630 473 621.5 526.5Q613 580 589 623Q565 666 521.5 692.5Q478 719 404 719ZM778 260Q767 188 736 136.5Q705 85 656.5 51.5Q608 18 544 2Q480 -14 403 -14Q317 -14 245 14Q173 42 121.5 94Q70 146 41.5 219.5Q13 293 13 385Q13 476 41.5 550Q70 624 121.5 676Q173 728 245 756Q317 784 403 784Q489 784 561 756Q633 728 684.5 676Q736 624 764.5 550Q793 476 793 385V352H173Q176 297 185 243Q194 189 220.5 146.5Q247 104 296.5 77.5Q346 51 432 51Q552 51 620 107.5Q688 164 707 260Z" glyph-name="estimated" horiz-adv-x="806" unicode="&#8494;" /><glyph d="M248 308Q248 255 253 210Q258 165 269 132.5Q280 100 297 81.5Q314 63 338 63Q359 63 372.5 76Q386 89 393.5 113Q401 137 404 170.5Q407 204 407 245Q407 298 402 343Q397 388 386 420.5Q375 453 358 471.5Q341 490 317 490Q296 490 282.5 477Q269 464 261.5 440Q254 416 251 382.5Q248 349 248 308ZM154 646 271 692Q240 716 209 733.5Q178 751 152 760V778L276 809Q345 784 406 749L516 793L542 743L455 708Q533 640 577.5 546Q622 452 622 337Q622 251 599.5 186Q577 121 537 77.5Q497 34 440.5 12Q384 -10 317 -10Q251 -10 197.5 10.5Q144 31 106 68Q68 105 47.5 156.5Q27 208 27 269Q27 346 50 401.5Q73 457 113.5 493Q154 529 208.5 546Q263 563 327 563Q341 563 357.5 562.5Q374 562 390 557Q379 580 360 603Q341 626 317 648L180 594Z" glyph-name="eth" horiz-adv-x="649" unicode="&#240;" /><glyph d="M334 509V333H457V262H334V137Q334 100 352 89Q370 78 405 78H412Q478 78 515 127Q552 176 552 280Q552 393 508.5 451Q465 509 378 509ZM35 333H119V428Q119 453 117.5 468.5Q116 484 108 493.5Q100 503 83 507Q66 511 35 512V587H433Q512 587 576 569Q640 551 684.5 515.5Q729 480 753 426.5Q777 373 777 302Q777 224 749.5 167.5Q722 111 675.5 73.5Q629 36 568 18Q507 0 440 0H35V75Q66 76 83 80.5Q100 85 108 94Q116 103 117.5 118.5Q119 134 119 159V262H35Z" glyph-name="eth.smcp" horiz-adv-x="813" unicode="&#58156;" /><glyph d="M304 734 284 624Q276 581 268 529.5Q260 478 253 429Q246 380 241.5 338.5Q237 297 236 273H133Q132 297 127 338.5Q122 380 115.5 429Q109 478 101 529.5Q93 581 85 624L65 734V780H304ZM68 109Q68 134 77.5 156.5Q87 179 102.5 195.5Q118 212 139 221.5Q160 231 184 231Q208 231 229.5 221.5Q251 212 267 195.5Q283 179 292.5 156.5Q302 134 302 109Q302 85 292.5 63Q283 41 267 25Q251 9 229.5 -0.5Q208 -10 184 -10Q160 -10 139 -0.5Q118 9 102.5 25Q87 41 77.5 63Q68 85 68 109Z" glyph-name="exclam" horiz-adv-x="370" unicode="!" /><glyph d="M76 96Q76 118 84.5 138Q93 158 108 173Q123 188 142.5 196.5Q162 205 184 205Q207 205 227 196.5Q247 188 262 173Q277 158 285.5 138Q294 118 294 96Q294 74 285.5 55Q277 36 262 21.5Q247 7 227 -1.5Q207 -10 184 -10Q162 -10 142.5 -1.5Q123 7 108 21.5Q93 36 84.5 55Q76 74 76 96ZM304 523 287 473Q277 443 269 411.5Q261 380 255 349Q249 318 244 289.5Q239 261 236 238H133Q130 261 125 289.5Q120 318 114 349Q108 380 100 411.5Q92 443 82 473L65 523V587H304Z" glyph-name="exclam.smcp" horiz-adv-x="370" unicode="&#58434;" /><glyph d="M304 -227H65V-181L85 -71Q93 -28 101 23.5Q109 75 115.5 124Q122 173 127 214.5Q132 256 133 280H236Q237 256 241.5 214.5Q246 173 253 124Q260 75 268 23.5Q276 -28 284 -71L304 -181ZM68 444Q68 468 77.5 490Q87 512 102.5 528Q118 544 139 553.5Q160 563 184 563Q208 563 229.5 553.5Q251 544 267 528Q283 512 292.5 490Q302 468 302 444Q302 418 292.5 396Q283 374 267 357.5Q251 341 229.5 331.5Q208 322 184 322Q160 322 139 331.5Q118 341 102.5 357.5Q87 374 77.5 396Q68 418 68 444Z" glyph-name="exclamdown" horiz-adv-x="370" unicode="&#161;" /><glyph d="M304 0H65V46L85 156Q93 199 101 250.5Q109 302 115.5 351Q122 400 127 441.5Q132 483 133 507H236Q237 483 241.5 441.5Q246 400 253 351Q260 302 268 250.5Q276 199 284 156L304 46ZM68 671Q68 695 77.5 717Q87 739 102.5 755Q118 771 139 780.5Q160 790 184 790Q208 790 229.5 780.5Q251 771 267 755Q283 739 292.5 717Q302 695 302 671Q302 645 292.5 623Q283 601 267 584.5Q251 568 229.5 558.5Q208 549 184 549Q160 549 139 558.5Q118 568 102.5 584.5Q87 601 77.5 623Q68 645 68 671Z" glyph-name="exclamdown.cap" horiz-adv-x="370" unicode="&#58433;" /><glyph d="M76 491Q76 513 84.5 532Q93 551 108 565.5Q123 580 142.5 588.5Q162 597 184 597Q207 597 227 588.5Q247 580 262 565.5Q277 551 285.5 532Q294 513 294 491Q294 468 285.5 448.5Q277 429 262 414Q247 399 227 390.5Q207 382 184 382Q162 382 142.5 390.5Q123 399 108 414Q93 429 84.5 448.5Q76 468 76 491ZM304 0H65V64L82 114Q92 144 100 175.5Q108 207 114 238Q120 269 125 297.5Q130 326 133 349H236Q239 326 244 297.5Q249 269 255 238Q261 207 269 175.5Q277 144 287 114L304 64Z" glyph-name="exclamdown.smcp" horiz-adv-x="370" unicode="&#58435;" /><glyph d="M307 126Q307 109 311.5 99.5Q316 90 325 85Q334 80 349 77Q364 74 385 71V0H42V71Q59 73 70.5 76Q82 79 88.5 84.5Q95 90 97.5 100.5Q100 111 100 128V475H23V533L100 570V573Q100 636 119.5 680.5Q139 725 174.5 754Q210 783 260.5 796.5Q311 810 374 810Q467 810 510 778Q553 746 553 698Q553 674 543.5 655.5Q534 637 512 623H386V683Q386 709 378.5 726.5Q371 744 350 744Q324 744 315.5 720Q307 696 307 657V553H420V475H307Z" glyph-name="f" horiz-adv-x="439" unicode="f" /><glyph d="M335 159Q335 134 338.5 118Q342 102 354 92.5Q366 83 389 79Q412 75 451 75V0H35V75Q66 76 83 80.5Q100 85 108 94Q116 103 117.5 118.5Q119 134 119 159V428Q119 453 117.5 468.5Q116 484 108 493.5Q100 503 83 507Q66 511 35 512V587H661L665 378H578Q571 405 563.5 429Q556 453 544 470.5Q532 488 513.5 498.5Q495 509 466 509H335V328H385Q415 328 426 347.5Q437 367 444 405H516V177H444Q437 216 426 235.5Q415 255 385 255H335Z" glyph-name="f.smcp" horiz-adv-x="688" unicode="&#57862;" /><glyph d="M225 446Q225 422 237 416Q249 410 278 408V352H25V408Q50 411 56.5 417Q63 423 63 449V685H7V731L63 760V767Q63 810 78 840Q93 870 119 888Q145 906 181.5 914Q218 922 262 922Q337 922 367 899Q397 876 397 840Q397 806 373 791H268V837Q268 854 264 864Q260 874 247 874Q232 874 228.5 857Q225 840 225 811V745H303V685H225Z" glyph-name="f.superior" horiz-adv-x="310" unicode="&#58214;" /><glyph d="M778 67Q837 67 863 117Q889 167 889 258Q889 343 857 389.5Q825 436 758 436Q733 436 714.5 432Q696 428 677 421V232Q677 192 682 161.5Q687 131 698.5 110Q710 89 729.5 78Q749 67 778 67ZM471 689Q452 718 430 728Q408 738 382 738Q346 738 326.5 716.5Q307 695 307 647V553H420V475H307V126Q307 93 319 84Q331 75 359 71V0H42V71Q59 73 70.5 76Q82 79 88.5 84.5Q95 90 97.5 100.5Q100 111 100 128V475H23V533L100 570V573Q100 633 119 677.5Q138 722 173 751.5Q208 781 257.5 795.5Q307 810 368 810Q412 810 446 802Q480 794 510 777L632 810H682L677 723V463Q706 505 755 534Q804 563 875 563Q984 563 1042.5 495.5Q1101 428 1101 300Q1101 228 1079.5 171Q1058 114 1015 73.5Q972 33 908 11.5Q844 -10 759 -10Q680 -10 606.5 3.5Q533 17 471 58Z" glyph-name="f_b" horiz-adv-x="1127" unicode="&#58241;" /><glyph d="M471 573Q471 596 474 617H391V673Q391 705 381.5 719.5Q372 734 354 734Q328 734 317.5 710.5Q307 687 307 648V553H471ZM1149 67Q1208 67 1234 117Q1260 167 1260 258Q1260 343 1228 389.5Q1196 436 1129 436Q1104 436 1085.5 432Q1067 428 1048 421V232Q1048 192 1053 161.5Q1058 131 1069.5 110Q1081 89 1100.5 78Q1120 67 1149 67ZM359 800Q418 800 462.5 782Q507 764 527 735Q562 773 616 791.5Q670 810 739 810Q783 810 817 802Q851 794 881 777L1003 810H1053L1048 723V463Q1077 505 1126 534Q1175 563 1246 563Q1355 563 1413.5 495.5Q1472 428 1472 300Q1472 228 1450.5 171Q1429 114 1386 73.5Q1343 33 1279 11.5Q1215 -10 1130 -10Q1051 -10 977.5 3.5Q904 17 842 58V689Q823 718 801 728Q779 738 753 738Q717 738 697 716.5Q677 695 677 647V553H790V475H677V126Q677 93 689.5 84Q702 75 730 71V0H412V71Q429 73 440.5 76Q452 79 458.5 84.5Q465 90 468 100.5Q471 111 471 128V475H307V126Q307 93 319 84Q331 75 359 71V0H42V71Q59 73 70.5 76Q82 79 88.5 84.5Q95 90 97.5 100.5Q100 111 100 128V475H23V533L100 570V573Q100 688 162.5 744Q225 800 359 800Z" glyph-name="f_f_b" horiz-adv-x="1498" unicode="&#58242;" /><glyph d="M471 573Q471 596 474 617H391V673Q391 705 381.5 719.5Q372 734 354 734Q328 734 317.5 710.5Q307 687 307 648V553H471ZM842 689Q823 718 801 728Q779 738 753 738Q717 738 697 716.5Q677 695 677 647V553H790V475H677V126Q677 93 689.5 84Q702 75 730 71V0H412V71Q429 73 440.5 76Q452 79 458.5 84.5Q465 90 468 100.5Q471 111 471 128V475H307V126Q307 93 319 84Q331 75 359 71V0H42V71Q59 73 70.5 76Q82 79 88.5 84.5Q95 90 97.5 100.5Q100 111 100 128V475H23V533L100 570V573Q100 688 162.5 744Q225 800 359 800Q418 800 462.5 782Q507 764 527 735Q562 773 616 791.5Q670 810 739 810Q783 810 817 802Q851 794 881 777L1003 810H1053L1048 723V465Q1064 483 1084 500.5Q1104 518 1128 532Q1152 546 1179.5 554.5Q1207 563 1240 563Q1316 563 1360.5 522.5Q1405 482 1405 399V128Q1405 111 1407.5 100.5Q1410 90 1416.5 84.5Q1423 79 1434.5 76Q1446 73 1463 71V0H1140V71Q1157 73 1168.5 76Q1180 79 1186.5 84.5Q1193 90 1196 100.5Q1199 111 1199 128V374Q1199 402 1188.5 417.5Q1178 433 1143 433Q1115 433 1091 429Q1067 425 1048 420V128Q1048 111 1050.5 100.5Q1053 90 1060 84.5Q1067 79 1078.5 76Q1090 73 1107 71V0H783V71Q800 73 811.5 76Q823 79 829.5 84.5Q836 90 839 100.5Q842 111 842 128Z" glyph-name="f_f_h" horiz-adv-x="1485" unicode="&#58243;" /><glyph d="M471 577Q471 597 474 617H391V673Q391 705 381.5 719.5Q372 734 354 734Q328 734 317.5 710.5Q307 687 307 648V553H471ZM763 -201 805 -132Q830 -91 836 -45.5Q842 0 842 59V475H678V126Q678 93 690 84Q702 75 730 71V0H413V71Q430 73 441.5 76Q453 79 459.5 84.5Q466 90 468.5 100.5Q471 111 471 128V475H307V126Q307 93 319 84Q331 75 359 71V0H42V71Q59 73 70.5 76Q82 79 88.5 84.5Q95 90 97.5 100.5Q100 111 100 128V475H23V533L100 570V573Q100 688 162.5 744Q225 800 359 800Q421 800 466.5 780.5Q512 761 531 729Q572 769 635 789.5Q698 810 779 810Q886 810 943 778Q1000 746 1000 689Q1000 630 948 606H805V660Q805 698 794.5 721Q784 744 749 744Q678 744 678 617V553H1053L1048 453V104Q1048 59 1042.5 25Q1037 -9 1026.5 -36Q1016 -63 1001.5 -84Q987 -105 969 -123Q927 -168 888 -195.5Q849 -223 806 -241Z" glyph-name="f_f_j" horiz-adv-x="1111" unicode="&#57898;" /><glyph d="M471 573Q471 596 474 617H391V673Q391 705 381.5 719.5Q372 734 354 734Q328 734 317.5 710.5Q307 687 307 648V553H471ZM1198 412Q1215 425 1221.5 433.5Q1228 442 1228 451Q1228 467 1214 472.5Q1200 478 1165 482V553H1449V482Q1418 473 1398.5 463.5Q1379 454 1361 441L1252 362L1476 58V0H1258L1051 305ZM842 689Q823 718 801 728Q779 738 753 738Q717 738 697 716.5Q677 695 677 647V553H790V475H677V126Q677 93 689.5 84Q702 75 730 71V0H412V71Q429 73 440.5 76Q452 79 458.5 84.5Q465 90 468 100.5Q471 111 471 128V475H307V126Q307 93 319 84Q331 75 359 71V0H42V71Q59 73 70.5 76Q82 79 88.5 84.5Q95 90 97.5 100.5Q100 111 100 128V475H23V533L100 570V573Q100 688 162.5 744Q225 800 359 800Q418 800 462.5 782Q507 764 527 735Q562 773 616 791.5Q670 810 739 810Q783 810 817 802Q851 794 881 777L1003 810H1053L1048 723V128Q1048 111 1050.5 100.5Q1053 90 1060 84.5Q1067 79 1078.5 76Q1090 73 1107 71V0H783V71Q800 73 811.5 76Q823 79 829.5 84.5Q836 90 839 100.5Q842 111 842 128Z" glyph-name="f_f_k" horiz-adv-x="1486" unicode="&#58245;" /><glyph d="M471 689Q452 718 430 728Q408 738 382 738Q346 738 326.5 716.5Q307 695 307 647V553H420V475H307V126Q307 93 319 84Q331 75 359 71V0H42V71Q59 73 70.5 76Q82 79 88.5 84.5Q95 90 97.5 100.5Q100 111 100 128V475H23V533L100 570V573Q100 633 119 677.5Q138 722 173 751.5Q208 781 257.5 795.5Q307 810 368 810Q412 810 446 802Q480 794 510 777L632 810H682L677 723V465Q693 483 713 500.5Q733 518 757 532Q781 546 808.5 554.5Q836 563 869 563Q945 563 989.5 522.5Q1034 482 1034 399V128Q1034 111 1036.5 100.5Q1039 90 1045.5 84.5Q1052 79 1063.5 76Q1075 73 1092 71V0H769V71Q786 73 797.5 76Q809 79 815.5 84.5Q822 90 825 100.5Q828 111 828 128V374Q828 402 817.5 417.5Q807 433 772 433Q744 433 720 429Q696 425 677 420V128Q677 111 679.5 100.5Q682 90 689 84.5Q696 79 707.5 76Q719 73 736 71V0H412V71Q429 73 440.5 76Q452 79 458.5 84.5Q465 90 468 100.5Q471 111 471 128Z" glyph-name="f_h" horiz-adv-x="1114" unicode="&#58246;" /><glyph d="M677 453V104Q677 59 671 25Q665 -9 654.5 -35.5Q644 -62 629.5 -83Q615 -104 598 -123Q556 -167 517 -195Q478 -223 435 -241L392 -201L434 -132Q459 -91 465 -45.5Q471 0 471 59V475H307V126Q307 93 319 84Q331 75 359 71V0H42V71Q59 73 70.5 76Q82 79 88.5 84.5Q95 90 97.5 100.5Q100 111 100 128V475H23V533L100 575V577Q100 633 122 676.5Q144 720 184.5 749.5Q225 779 281.5 794.5Q338 810 408 810Q515 810 572 778Q629 746 629 689Q629 630 577 606H434V660Q434 698 423.5 721Q413 744 378 744Q307 744 307 617V553H682Z" glyph-name="f_j" horiz-adv-x="740" unicode="&#58247;" /><glyph d="M471 689Q452 718 430 728Q408 738 382 738Q346 738 326.5 716.5Q307 695 307 647V553H420V475H307V126Q307 93 319 84Q331 75 359 71V0H42V71Q59 73 70.5 76Q82 79 88.5 84.5Q95 90 97.5 100.5Q100 111 100 128V475H23V533L100 570V573Q100 633 119 677.5Q138 722 173 751.5Q208 781 257.5 795.5Q307 810 368 810Q412 810 446 802Q480 794 510 777L632 810H682L677 723V128Q677 111 679.5 100.5Q682 90 689 84.5Q696 79 707.5 76Q719 73 736 71V0H412V71Q429 73 440.5 76Q452 79 458.5 84.5Q465 90 468 100.5Q471 111 471 128ZM827 412Q844 425 850.5 433.5Q857 442 857 451Q857 467 843 472.5Q829 478 794 482V553H1078V482Q1047 473 1027.5 463.5Q1008 454 990 441L881 362L1105 58V0H887L680 305Z" glyph-name="f_k" horiz-adv-x="1115" unicode="&#58248;" /><glyph d="M471 573Q471 584 471 595Q471 606 473 617H391V673Q391 705 381.5 719.5Q372 734 354 734Q328 734 317.5 710.5Q307 687 307 648V553H471ZM307 126Q307 93 319 84Q331 75 359 71V0H42V71Q59 73 70.5 76Q82 79 88.5 84.5Q95 90 97.5 100.5Q100 111 100 128V475H23V533L100 570V573Q100 688 162.5 744Q225 800 359 800Q417 800 461 783Q505 766 526 737Q561 775 616.5 792.5Q672 810 744 810Q837 810 880 778Q923 746 923 698Q923 674 913.5 655.5Q904 637 882 623H756V683Q756 709 748.5 726.5Q741 744 720 744Q694 744 685.5 720Q677 696 677 657V553H790V475H677V126Q677 109 681.5 99.5Q686 90 695.5 85Q705 80 720 77Q735 74 756 71V0H412V71Q429 73 440.5 76Q452 79 458.5 84.5Q465 90 468 100.5Q471 111 471 128V475H307Z" glyph-name="ff" horiz-adv-x="809" unicode="&#64256;" /><glyph d="M471 577Q471 597 474 617H391V673Q391 705 381.5 719.5Q372 734 354 734Q328 734 317.5 710.5Q307 687 307 648V553H471ZM359 800Q421 800 466.5 780.5Q512 761 531 729Q572 769 635 789.5Q698 810 779 810Q886 810 943 778Q1000 746 1000 689Q1000 630 948 606H805V660Q805 698 794.5 721Q784 744 749 744Q678 744 678 617V553H1053L1048 453V128Q1048 111 1050.5 100.5Q1053 90 1060 84.5Q1067 79 1078.5 76Q1090 73 1107 71V0H783V71Q800 73 811.5 76Q823 79 829.5 84.5Q836 90 839 100.5Q842 111 842 128V475H678V126Q678 93 690 84Q702 75 730 71V0H413V71Q430 73 441.5 76Q453 79 459.5 84.5Q466 90 468.5 100.5Q471 111 471 128V475H307V126Q307 93 319 84Q331 75 359 71V0H42V71Q59 73 70.5 76Q82 79 88.5 84.5Q95 90 97.5 100.5Q100 111 100 128V475H23V533L100 570V573Q100 688 162.5 744Q225 800 359 800Z" glyph-name="ffi" horiz-adv-x="1134" unicode="&#64259;" /><glyph d="M471 573Q471 596 474 617H391V673Q391 705 381.5 719.5Q372 734 354 734Q328 734 317.5 710.5Q307 687 307 648V553H471ZM359 800Q418 800 462.5 782Q507 764 527 735Q562 773 616 791.5Q670 810 739 810Q783 810 817 802Q851 794 881 777L1003 810H1053L1048 723V128Q1048 111 1050.5 100.5Q1053 90 1060 84.5Q1067 79 1078.5 76Q1090 73 1107 71V0H783V71Q800 73 811.5 76Q823 79 829.5 84.5Q836 90 839 100.5Q842 111 842 128V689Q823 718 801 728Q779 738 753 738Q717 738 697 716.5Q677 695 677 647V553H790V475H677V126Q677 93 689.5 84Q702 75 730 71V0H412V71Q429 73 440.5 76Q452 79 458.5 84.5Q465 90 468 100.5Q471 111 471 128V475H307V126Q307 93 319 84Q331 75 359 71V0H42V71Q59 73 70.5 76Q82 79 88.5 84.5Q95 90 97.5 100.5Q100 111 100 128V475H23V533L100 570V573Q100 688 162.5 744Q225 800 359 800Z" glyph-name="ffl" horiz-adv-x="1134" unicode="&#64260;" /><glyph d="M677 453V128Q677 111 679.5 100.5Q682 90 689 84.5Q696 79 707.5 76Q719 73 736 71V0H412V71Q429 73 440.5 76Q452 79 458.5 84.5Q465 90 468 100.5Q471 111 471 128V475H307V126Q307 93 319 84Q331 75 359 71V0H42V71Q59 73 70.5 76Q82 79 88.5 84.5Q95 90 97.5 100.5Q100 111 100 128V475H23V533L100 575V577Q100 633 122 676.5Q144 720 184.5 749.5Q225 779 281.5 794.5Q338 810 408 810Q515 810 572 778Q629 746 629 689Q629 630 577 606H434V660Q434 698 423.5 721Q413 744 378 744Q307 744 307 617V553H682Z" glyph-name="fi" horiz-adv-x="763" unicode="&#64257;" /><glyph d="M650 268H50V373H650Z" glyph-name="figuredash" horiz-adv-x="700" unicode="&#8210;" /><glyph d="M650 330H50V435H650Z" glyph-name="figuredash.cap" horiz-adv-x="700" unicode="&#58503;" /><glyph d="M650 248H50V353H650Z" glyph-name="figuredash.smcp" horiz-adv-x="700" unicode="&#60325;" /><glyph glyph-name="figurespace" horiz-adv-x="700" unicode="&#8199;" /></font>
</defs>
</svg>
