<?xml version="1.0" standalone="no"?><!DOCTYPE svg PUBLIC "-//W3C//DTD SVG 1.1//EN" "http://www.w3.org/Graphics/SVG/1.1/DTD/svg11.dtd" ><svg version="1.1" xmlns="http://www.w3.org/2000/svg"><defs><font horiz-adv-x="0" id="font"><font-face ascent="750" bbox="-193 -307 1406 1248" cap-height="780" descent="-250" font-family="Copernicus" font-stretch="normal" font-style="normal" font-weight="625" units-per-em="1000" x-height="534" /><missing-glyph d="M800 115V665L525 390ZM160 665V115L435 390ZM480 435 759 714H201ZM201 66H759L480 345ZM90 780H870V0H90Z" horiz-adv-x="960" /><glyph d="M247 308H513L421 640ZM530 249H215L161 146Q152 129 147 116.5Q142 104 142 90Q142 80 145.5 72.5Q149 65 159 60.5Q169 56 186.5 53Q204 50 233 49L227 0H-24L-18 49Q5 53 24.5 60Q44 67 56 90L391 714L368 788H510L713 90Q719 67 735.5 60Q752 53 775 49L769 0H457L462 49Q521 50 544 60.5Q567 71 567 97Q567 109 565 121Q563 133 558 147Z" glyph-name="A" horiz-adv-x="805" unicode="A" /><glyph d="M516 681 275 311H548L518 681ZM167 142Q149 116 149 93Q149 83 152.5 75Q156 67 166 62Q176 57 194 53.5Q212 50 241 49L235 0H-24L-18 49Q5 53 24.5 60Q44 67 56 90L457 706Q444 718 422 724.5Q400 731 362 731L367 780H1138L1118 589H1074Q1063 625 1052 649.5Q1041 674 1024.5 690Q1008 706 985 713Q962 720 928 720H647L670 428H865Q903 428 923.5 451.5Q944 475 959 526H1005L974 271H928Q925 322 910.5 345Q896 368 858 368H675L694 135Q696 112 703 97.5Q710 83 723.5 74.5Q737 66 757.5 63Q778 60 807 60H852Q888 60 913 66.5Q938 73 959.5 89.5Q981 106 1004 134.5Q1027 163 1060 206H1108L1048 0H442L447 49Q472 50 493.5 52.5Q515 55 530.5 61.5Q546 68 555 78.5Q564 89 564 107Q564 112 564 119Q564 126 563 136L553 251H237Z" glyph-name="AE" horiz-adv-x="1157" unicode="&#198;" /><glyph d="M703 1030 474 822H415L542 1030ZM247 308H513L421 640ZM530 249H215L161 146Q152 129 147 116.5Q142 104 142 90Q142 80 145.5 72.5Q149 65 159 60.5Q169 56 186.5 53Q204 50 233 49L227 0H-24L-18 49Q5 53 24.5 60Q44 67 56 90L391 714L368 788H510L713 90Q719 67 735.5 60Q752 53 775 49L769 0H457L462 49Q521 50 544 60.5Q567 71 567 97Q567 109 565 121Q563 133 558 147Z" glyph-name="Aacute" horiz-adv-x="805" unicode="&#193;" /><glyph d="M460 831Q378 831 341 870.5Q304 910 304 983Q304 1006 307 1030H354Q354 995 362.5 972Q371 949 386.5 934.5Q402 920 423 914Q444 908 469 908Q519 908 559 934.5Q599 961 616 1030H663Q651 935 603 883Q555 831 460 831ZM247 308H513L421 640ZM530 249H215L161 146Q152 129 147 116.5Q142 104 142 90Q142 80 145.5 72.5Q149 65 159 60.5Q169 56 186.5 53Q204 50 233 49L227 0H-24L-18 49Q5 53 24.5 60Q44 67 56 90L391 714L368 788H510L713 90Q719 67 735.5 60Q752 53 775 49L769 0H457L462 49Q521 50 544 60.5Q567 71 567 97Q567 109 565 121Q563 133 558 147Z" glyph-name="Abreve" horiz-adv-x="805" unicode="&#258;" /><glyph d="M641 822H585L465 941L316 822H259L435 1030H517ZM247 308H513L421 640ZM530 249H215L161 146Q152 129 147 116.5Q142 104 142 90Q142 80 145.5 72.5Q149 65 159 60.5Q169 56 186.5 53Q204 50 233 49L227 0H-24L-18 49Q5 53 24.5 60Q44 67 56 90L391 714L368 788H510L713 90Q719 67 735.5 60Q752 53 775 49L769 0H457L462 49Q521 50 544 60.5Q567 71 567 97Q567 109 565 121Q563 133 558 147Z" glyph-name="Acircumflex" horiz-adv-x="805" unicode="&#194;" /><glyph d="M564 851Q532 851 512.5 871.5Q493 892 493 922Q493 955 516 978.5Q539 1002 574 1002Q606 1002 625.5 981.5Q645 961 645 931Q645 898 622 874.5Q599 851 564 851ZM357 851Q325 851 305.5 871.5Q286 892 286 922Q286 955 309 978.5Q332 1002 367 1002Q399 1002 418.5 981.5Q438 961 438 931Q438 898 415 874.5Q392 851 357 851ZM247 308H513L421 640ZM530 249H215L161 146Q152 129 147 116.5Q142 104 142 90Q142 80 145.5 72.5Q149 65 159 60.5Q169 56 186.5 53Q204 50 233 49L227 0H-24L-18 49Q5 53 24.5 60Q44 67 56 90L391 714L368 788H510L713 90Q719 67 735.5 60Q752 53 775 49L769 0H457L462 49Q521 50 544 60.5Q567 71 567 97Q567 109 565 121Q563 133 558 147Z" glyph-name="Adieresis" horiz-adv-x="805" unicode="&#196;" /><glyph d="M411 1030 487 822H431L261 1030ZM247 308H513L421 640ZM530 249H215L161 146Q152 129 147 116.5Q142 104 142 90Q142 80 145.5 72.5Q149 65 159 60.5Q169 56 186.5 53Q204 50 233 49L227 0H-24L-18 49Q5 53 24.5 60Q44 67 56 90L391 714L368 788H510L713 90Q719 67 735.5 60Q752 53 775 49L769 0H457L462 49Q521 50 544 60.5Q567 71 567 97Q567 109 565 121Q563 133 558 147Z" glyph-name="Agrave" horiz-adv-x="805" unicode="&#192;" /><glyph d="M330 936H607L598 866H321ZM247 308H513L421 640ZM530 249H215L161 146Q152 129 147 116.5Q142 104 142 90Q142 80 145.5 72.5Q149 65 159 60.5Q169 56 186.5 53Q204 50 233 49L227 0H-24L-18 49Q5 53 24.5 60Q44 67 56 90L391 714L368 788H510L713 90Q719 67 735.5 60Q752 53 775 49L769 0H457L462 49Q521 50 544 60.5Q567 71 567 97Q567 109 565 121Q563 133 558 147Z" glyph-name="Amacron" horiz-adv-x="805" unicode="&#256;" /><glyph d="M161 146Q152 129 147 116.5Q142 104 142 90Q142 80 145.5 72.5Q149 65 159 60.5Q169 56 186.5 53Q204 50 233 49L227 0H-24L-18 49Q5 53 24.5 60Q44 67 56 90L391 714L368 788H510L713 90Q719 67 735.5 60Q752 53 775 49L769 0H457L462 49Q521 50 544 60.5Q567 71 567 97Q567 109 565 121Q563 133 558 147L421 640Z" glyph-name="Anocross" horiz-adv-x="805" unicode="&#59185;" /><glyph d="M247 308H513L421 640ZM530 249H215L161 146Q152 129 147 116.5Q142 104 142 90Q142 80 145.5 72.5Q149 65 159 60.5Q169 56 186.5 53Q204 50 233 49L227 0H-24L-18 49Q5 53 24.5 60Q44 67 56 90L391 714L368 788H510L713 90Q719 67 735.5 60Q752 53 775 49L769 0Q706 -23 669 -57.5Q632 -92 632 -135Q632 -160 648.5 -173.5Q665 -187 694 -187Q715 -187 730.5 -183Q746 -179 763 -171L769 -205Q746 -226 717 -238Q688 -250 652 -250Q607 -250 575.5 -228.5Q544 -207 544 -158Q544 -104 577.5 -66Q611 -28 669 0H457L462 49Q521 50 544 60.5Q567 71 567 97Q567 109 565 121Q563 133 558 147Z" glyph-name="Aogonek" horiz-adv-x="805" unicode="&#260;" /><glyph d="M582 942Q582 915 572 891Q562 867 544.5 849.5Q527 832 503 822Q479 812 451 812Q403 812 375.5 840Q348 868 348 910Q348 937 358 961Q368 985 385.5 1002.5Q403 1020 427 1030Q451 1040 479 1040Q527 1040 554.5 1012Q582 984 582 942ZM525 938Q525 961 512 975.5Q499 990 473 990Q441 990 423 968Q405 946 405 914Q405 891 418 876.5Q431 862 457 862Q489 862 507 884Q525 906 525 938ZM247 308H513L421 640ZM530 249H215L161 146Q152 129 147 116.5Q142 104 142 90Q142 80 145.5 72.5Q149 65 159 60.5Q169 56 186.5 53Q204 50 233 49L227 0H-24L-18 49Q5 53 24.5 60Q44 67 56 90L391 714L368 788H510L713 90Q719 67 735.5 60Q752 53 775 49L769 0H457L462 49Q521 50 544 60.5Q567 71 567 97Q567 109 565 121Q563 133 558 147Z" glyph-name="Aring" horiz-adv-x="805" unicode="&#197;" /><glyph d="M678 990Q646 921 610.5 888Q575 855 527 855Q504 855 485 864.5Q466 874 449.5 885Q433 896 418 905.5Q403 915 387 915Q363 915 346.5 901Q330 887 310 857L263 865Q295 934 330.5 967.5Q366 1001 414 1001Q437 1001 456 991.5Q475 982 491.5 971Q508 960 523 950.5Q538 941 554 941Q578 941 594.5 954.5Q611 968 631 999ZM247 308H513L421 640ZM530 249H215L161 146Q152 129 147 116.5Q142 104 142 90Q142 80 145.5 72.5Q149 65 159 60.5Q169 56 186.5 53Q204 50 233 49L227 0H-24L-18 49Q5 53 24.5 60Q44 67 56 90L391 714L368 788H510L713 90Q719 67 735.5 60Q752 53 775 49L769 0H457L462 49Q521 50 544 60.5Q567 71 567 97Q567 109 565 121Q563 133 558 147Z" glyph-name="Atilde" horiz-adv-x="805" unicode="&#195;" /><glyph d="M484 780Q599 780 664.5 735.5Q730 691 730 606Q730 556 711 520Q692 484 660.5 459.5Q629 435 588.5 421.5Q548 408 505 403Q619 395 674.5 347.5Q730 300 730 225Q730 169 707 127Q684 85 641 57Q598 29 538 14.5Q478 0 405 0H16L22 49Q50 50 71 53.5Q92 57 106.5 65.5Q121 74 129.5 89Q138 104 141 128L203 640Q205 649 205.5 657Q206 665 206 670Q206 707 181 718Q156 729 105 731L111 780ZM345 720 309 430H394Q488 430 538 466.5Q588 503 588 593Q588 659 550.5 689.5Q513 720 438 720ZM301 371 276 163Q274 144 273 134Q272 124 272 115Q272 83 296 71.5Q320 60 374 60H398Q487 60 536 100Q585 140 585 227Q585 258 576 284.5Q567 311 546.5 330Q526 349 492.5 360Q459 371 411 371Z" glyph-name="B" horiz-adv-x="784" unicode="B" /><glyph d="M423 55Q472 55 509 67.5Q546 80 576 104Q606 128 630.5 164Q655 200 678 247H735L689 55Q634 23 562.5 6.5Q491 -10 410 -10Q331 -10 266.5 13.5Q202 37 156.5 81Q111 125 86 187.5Q61 250 61 327Q61 419 90 503Q119 587 174 650.5Q229 714 308 752Q387 790 487 790Q572 790 641 767.5Q710 745 756 714L740 542H689Q672 638 618 682.5Q564 727 479 727Q407 727 355 690.5Q303 654 269 596.5Q235 539 219 468.5Q203 398 203 330Q203 194 262 124.5Q321 55 423 55Z" glyph-name="C" horiz-adv-x="791" unicode="C" /><glyph d="M731 1030 502 822H443L570 1030ZM423 55Q472 55 509 67.5Q546 80 576 104Q606 128 630.5 164Q655 200 678 247H735L689 55Q634 23 562.5 6.5Q491 -10 410 -10Q331 -10 266.5 13.5Q202 37 156.5 81Q111 125 86 187.5Q61 250 61 327Q61 419 90 503Q119 587 174 650.5Q229 714 308 752Q387 790 487 790Q572 790 641 767.5Q710 745 756 714L740 542H689Q672 638 618 682.5Q564 727 479 727Q407 727 355 690.5Q303 654 269 596.5Q235 539 219 468.5Q203 398 203 330Q203 194 262 124.5Q321 55 423 55Z" glyph-name="Cacute" horiz-adv-x="791" unicode="&#262;" /><glyph d="M332 1030H388L508 911L657 1030H714L538 822H456ZM423 55Q472 55 509 67.5Q546 80 576 104Q606 128 630.5 164Q655 200 678 247H735L689 55Q634 23 562.5 6.5Q491 -10 410 -10Q331 -10 266.5 13.5Q202 37 156.5 81Q111 125 86 187.5Q61 250 61 327Q61 419 90 503Q119 587 174 650.5Q229 714 308 752Q387 790 487 790Q572 790 641 767.5Q710 745 756 714L740 542H689Q672 638 618 682.5Q564 727 479 727Q407 727 355 690.5Q303 654 269 596.5Q235 539 219 468.5Q203 398 203 330Q203 194 262 124.5Q321 55 423 55Z" glyph-name="Ccaron" horiz-adv-x="791" unicode="&#268;" /><glyph d="M423 55Q472 55 509 67.5Q546 80 576 104Q606 128 630.5 164Q655 200 678 247H735L689 55Q634 23 562.5 6.5Q491 -10 410 -10L393 -43Q441 -50 474.5 -74.5Q508 -99 508 -147Q508 -173 498.5 -192.5Q489 -212 473.5 -224.5Q458 -237 437 -243.5Q416 -250 394 -250Q362 -250 335 -239.5Q308 -229 293 -217L310 -186Q324 -194 345 -200.5Q366 -207 388 -207Q408 -207 423 -198.5Q438 -190 438 -167Q438 -151 428 -140.5Q418 -130 402 -123Q386 -116 366 -112Q346 -108 325 -106L375 -9Q304 -4 246 21.5Q188 47 147 90.5Q106 134 83.5 194Q61 254 61 327Q61 419 90 503Q119 587 174 650.5Q229 714 308 752Q387 790 487 790Q572 790 641 767.5Q710 745 756 714L740 542H689Q672 638 618 682.5Q564 727 479 727Q407 727 355 690.5Q303 654 269 596.5Q235 539 219 468.5Q203 398 203 330Q203 194 262 124.5Q321 55 423 55Z" glyph-name="Ccedilla" horiz-adv-x="791" unicode="&#199;" /><glyph d="M685 822H629L509 941L360 822H303L479 1030H561ZM423 55Q472 55 509 67.5Q546 80 576 104Q606 128 630.5 164Q655 200 678 247H735L689 55Q634 23 562.5 6.5Q491 -10 410 -10Q331 -10 266.5 13.5Q202 37 156.5 81Q111 125 86 187.5Q61 250 61 327Q61 419 90 503Q119 587 174 650.5Q229 714 308 752Q387 790 487 790Q572 790 641 767.5Q710 745 756 714L740 542H689Q672 638 618 682.5Q564 727 479 727Q407 727 355 690.5Q303 654 269 596.5Q235 539 219 468.5Q203 398 203 330Q203 194 262 124.5Q321 55 423 55Z" glyph-name="Ccircumflex" horiz-adv-x="791" unicode="&#264;" /><glyph d="M423 55Q472 55 509 67.5Q546 80 576 104Q606 128 630.5 164Q655 200 678 247H735L689 55Q634 23 562.5 6.5Q491 -10 410 -10Q331 -10 266.5 13.5Q202 37 156.5 81Q111 125 86 187.5Q61 250 61 327Q61 419 90 503Q119 587 174 650.5Q229 714 308 752Q387 790 487 790Q572 790 641 767.5Q710 745 756 714L740 542H689Q672 638 618 682.5Q564 727 479 727Q407 727 355 690.5Q303 654 269 596.5Q235 539 219 468.5Q203 398 203 330Q203 194 262 124.5Q321 55 423 55ZM506 851Q474 851 454.5 871.5Q435 892 435 922Q435 955 458 978.5Q481 1002 515 1002Q547 1002 566.5 981.5Q586 961 586 931Q586 898 563.5 874.5Q541 851 506 851Z" glyph-name="Cdotaccent" horiz-adv-x="791" unicode="&#266;" /><glyph d="M400 60Q470 60 527 86.5Q584 113 623.5 163.5Q663 214 684.5 285.5Q706 357 706 447Q706 511 690.5 561.5Q675 612 643 647Q611 682 560 701Q509 720 439 720H345L276 163Q274 144 273 134Q272 124 272 115Q272 83 296 71.5Q320 60 374 60ZM16 0 22 49Q50 50 71 53.5Q92 57 106.5 65.5Q121 74 129.5 89Q138 104 141 128L203 640Q205 649 205.5 657Q206 665 206 670Q206 707 181 718Q156 729 105 731L111 780H460Q556 780 629.5 756.5Q703 733 752.5 690Q802 647 827 587.5Q852 528 852 455Q852 351 819 267Q786 183 727.5 123.5Q669 64 587.5 32Q506 0 410 0Z" glyph-name="D" horiz-adv-x="876" unicode="D" /><glyph d="M400 60Q470 60 527 86.5Q584 113 623.5 163.5Q663 214 684.5 285.5Q706 357 706 447Q706 511 690.5 561.5Q675 612 643 647Q611 682 560 701Q509 720 439 720H345L276 163Q274 144 273 134Q272 124 272 115Q272 83 296 71.5Q320 60 374 60ZM16 0 22 49Q50 50 71 53.5Q92 57 106.5 65.5Q121 74 129.5 89Q138 104 141 128L203 640Q205 649 205.5 657Q206 665 206 670Q206 707 181 718Q156 729 105 731L111 780H460Q556 780 629.5 756.5Q703 733 752.5 690Q802 647 827 587.5Q852 528 852 455Q852 351 819 267Q786 183 727.5 123.5Q669 64 587.5 32Q506 0 410 0ZM320 1030H376L496 911L645 1030H702L526 822H444Z" glyph-name="Dcaron" horiz-adv-x="876" unicode="&#270;" /><glyph d="M400 60Q470 60 527 86.5Q584 113 623.5 163.5Q663 214 684.5 285.5Q706 357 706 447Q706 511 690.5 561.5Q675 612 643 647Q611 682 560 701Q509 720 439 720H345L308 427H510L502 369H301L276 163Q274 144 273 134Q272 124 272 115Q272 83 296 71.5Q320 60 374 60ZM73 427H177L203 640Q205 649 205.5 657Q206 665 206 670Q206 707 181 718Q156 729 105 731L111 780H460Q556 780 629.5 756.5Q703 733 752.5 690Q802 647 827 587.5Q852 528 852 455Q852 351 819 267Q786 183 727.5 123.5Q669 64 587.5 32Q506 0 410 0H16L22 49Q50 50 71 53.5Q92 57 106.5 65.5Q121 74 129.5 89Q138 104 141 128L170 369H66Z" glyph-name="Dcroat" horiz-adv-x="876" unicode="&#272;" /><glyph d="M438 596 122 60H626ZM34 37 478 780H522L784 37L780 0H30Z" glyph-name="Delta" horiz-adv-x="860" unicode="&#8710;" /><glyph d="M16 0 22 49Q50 50 71 53.5Q92 57 106.5 65.5Q121 74 129.5 89Q138 104 141 128L203 640Q205 649 205.5 657Q206 665 206 670Q206 707 181 718Q156 729 105 731L111 780H752L731 589H688Q677 625 665.5 649.5Q654 674 637.5 690Q621 706 598 713Q575 720 541 720H345L309 428H478Q516 428 536.5 451.5Q557 475 572 526H618L587 271H541Q538 322 523.5 345Q509 368 471 368H301L276 163Q274 144 273 134Q272 124 272 115Q272 83 296 71.5Q320 60 374 60H465Q501 60 526 66.5Q551 73 572.5 89.5Q594 106 617 134.5Q640 163 673 206H721L662 0Z" glyph-name="E" horiz-adv-x="770" unicode="E" /><glyph d="M16 0 22 49Q50 50 71 53.5Q92 57 106.5 65.5Q121 74 129.5 89Q138 104 141 128L203 640Q205 649 205.5 657Q206 665 206 670Q206 707 181 718Q156 729 105 731L111 780H752L731 589H688Q677 625 665.5 649.5Q654 674 637.5 690Q621 706 598 713Q575 720 541 720H345L309 428H478Q516 428 536.5 451.5Q557 475 572 526H618L587 271H541Q538 322 523.5 345Q509 368 471 368H301L276 163Q274 144 273 134Q272 124 272 115Q272 83 296 71.5Q320 60 374 60H465Q501 60 526 66.5Q551 73 572.5 89.5Q594 106 617 134.5Q640 163 673 206H721L662 0ZM709 1030 480 822H421L548 1030Z" glyph-name="Eacute" horiz-adv-x="770" unicode="&#201;" /><glyph d="M16 0 22 49Q50 50 71 53.5Q92 57 106.5 65.5Q121 74 129.5 89Q138 104 141 128L203 640Q205 649 205.5 657Q206 665 206 670Q206 707 181 718Q156 729 105 731L111 780H752L731 589H688Q677 625 665.5 649.5Q654 674 637.5 690Q621 706 598 713Q575 720 541 720H345L309 428H478Q516 428 536.5 451.5Q557 475 572 526H618L587 271H541Q538 322 523.5 345Q509 368 471 368H301L276 163Q274 144 273 134Q272 124 272 115Q272 83 296 71.5Q320 60 374 60H465Q501 60 526 66.5Q551 73 572.5 89.5Q594 106 617 134.5Q640 163 673 206H721L662 0ZM472 831Q390 831 353 870.5Q316 910 316 983Q316 1006 319 1030H366Q366 995 374.5 972Q383 949 398.5 934.5Q414 920 435 914Q456 908 481 908Q531 908 571 934.5Q611 961 628 1030H675Q663 935 615 883Q567 831 472 831Z" glyph-name="Ebreve" horiz-adv-x="770" unicode="&#276;" /><glyph d="M16 0 22 49Q50 50 71 53.5Q92 57 106.5 65.5Q121 74 129.5 89Q138 104 141 128L203 640Q205 649 205.5 657Q206 665 206 670Q206 707 181 718Q156 729 105 731L111 780H752L731 589H688Q677 625 665.5 649.5Q654 674 637.5 690Q621 706 598 713Q575 720 541 720H345L309 428H478Q516 428 536.5 451.5Q557 475 572 526H618L587 271H541Q538 322 523.5 345Q509 368 471 368H301L276 163Q274 144 273 134Q272 124 272 115Q272 83 296 71.5Q320 60 374 60H465Q501 60 526 66.5Q551 73 572.5 89.5Q594 106 617 134.5Q640 163 673 206H721L662 0ZM297 1030H353L473 911L622 1030H679L503 822H421Z" glyph-name="Ecaron" horiz-adv-x="770" unicode="&#282;" /><glyph d="M653 822H597L477 941L328 822H271L447 1030H529ZM16 0 22 49Q50 50 71 53.5Q92 57 106.5 65.5Q121 74 129.5 89Q138 104 141 128L203 640Q205 649 205.5 657Q206 665 206 670Q206 707 181 718Q156 729 105 731L111 780H752L731 589H688Q677 625 665.5 649.5Q654 674 637.5 690Q621 706 598 713Q575 720 541 720H345L309 428H478Q516 428 536.5 451.5Q557 475 572 526H618L587 271H541Q538 322 523.5 345Q509 368 471 368H301L276 163Q274 144 273 134Q272 124 272 115Q272 83 296 71.5Q320 60 374 60H465Q501 60 526 66.5Q551 73 572.5 89.5Q594 106 617 134.5Q640 163 673 206H721L662 0Z" glyph-name="Ecircumflex" horiz-adv-x="770" unicode="&#202;" /><glyph d="M16 0 22 49Q50 50 71 53.5Q92 57 106.5 65.5Q121 74 129.5 89Q138 104 141 128L203 640Q205 649 205.5 657Q206 665 206 670Q206 707 181 718Q156 729 105 731L111 780H752L731 589H688Q677 625 665.5 649.5Q654 674 637.5 690Q621 706 598 713Q575 720 541 720H345L309 428H478Q516 428 536.5 451.5Q557 475 572 526H618L587 271H541Q538 322 523.5 345Q509 368 471 368H301L276 163Q274 144 273 134Q272 124 272 115Q272 83 296 71.5Q320 60 374 60H465Q501 60 526 66.5Q551 73 572.5 89.5Q594 106 617 134.5Q640 163 673 206H721L662 0ZM575 851Q543 851 523.5 871.5Q504 892 504 922Q504 955 527 978.5Q550 1002 585 1002Q617 1002 636.5 981.5Q656 961 656 931Q656 898 633 874.5Q610 851 575 851ZM368 851Q336 851 316.5 871.5Q297 892 297 922Q297 955 320 978.5Q343 1002 378 1002Q410 1002 429.5 981.5Q449 961 449 931Q449 898 426 874.5Q403 851 368 851Z" glyph-name="Edieresis" horiz-adv-x="770" unicode="&#203;" /><glyph d="M16 0 22 49Q50 50 71 53.5Q92 57 106.5 65.5Q121 74 129.5 89Q138 104 141 128L203 640Q205 649 205.5 657Q206 665 206 670Q206 707 181 718Q156 729 105 731L111 780H752L731 589H688Q677 625 665.5 649.5Q654 674 637.5 690Q621 706 598 713Q575 720 541 720H345L309 428H478Q516 428 536.5 451.5Q557 475 572 526H618L587 271H541Q538 322 523.5 345Q509 368 471 368H301L276 163Q274 144 273 134Q272 124 272 115Q272 83 296 71.5Q320 60 374 60H465Q501 60 526 66.5Q551 73 572.5 89.5Q594 106 617 134.5Q640 163 673 206H721L662 0ZM472 851Q440 851 420.5 871.5Q401 892 401 922Q401 955 424 978.5Q447 1002 481 1002Q513 1002 532.5 981.5Q552 961 552 931Q552 898 529.5 874.5Q507 851 472 851Z" glyph-name="Edotaccent" horiz-adv-x="770" unicode="&#278;" /><glyph d="M16 0 22 49Q50 50 71 53.5Q92 57 106.5 65.5Q121 74 129.5 89Q138 104 141 128L203 640Q205 649 205.5 657Q206 665 206 670Q206 707 181 718Q156 729 105 731L111 780H752L731 589H688Q677 625 665.5 649.5Q654 674 637.5 690Q621 706 598 713Q575 720 541 720H345L309 428H478Q516 428 536.5 451.5Q557 475 572 526H618L587 271H541Q538 322 523.5 345Q509 368 471 368H301L276 163Q274 144 273 134Q272 124 272 115Q272 83 296 71.5Q320 60 374 60H465Q501 60 526 66.5Q551 73 572.5 89.5Q594 106 617 134.5Q640 163 673 206H721L662 0ZM431 1030 507 822H451L281 1030Z" glyph-name="Egrave" horiz-adv-x="770" unicode="&#200;" /><glyph d="M16 0 22 49Q50 50 71 53.5Q92 57 106.5 65.5Q121 74 129.5 89Q138 104 141 128L203 640Q205 649 205.5 657Q206 665 206 670Q206 707 181 718Q156 729 105 731L111 780H752L731 589H688Q677 625 665.5 649.5Q654 674 637.5 690Q621 706 598 713Q575 720 541 720H345L309 428H478Q516 428 536.5 451.5Q557 475 572 526H618L587 271H541Q538 322 523.5 345Q509 368 471 368H301L276 163Q274 144 273 134Q272 124 272 115Q272 83 296 71.5Q320 60 374 60H465Q501 60 526 66.5Q551 73 572.5 89.5Q594 106 617 134.5Q640 163 673 206H721L662 0ZM339 936H616L607 866H330Z" glyph-name="Emacron" horiz-adv-x="770" unicode="&#274;" /><glyph d="M674 31 275 610 218 148Q216 131 215 120.5Q214 110 214 105Q214 88 220.5 77.5Q227 67 239.5 61Q252 55 271 52.5Q290 50 315 49L309 0H16L22 49Q50 50 71 53.5Q92 57 106.5 65.5Q121 74 129.5 89Q138 104 141 128L207 666Q193 684 182.5 696.5Q172 709 161.5 716.5Q151 724 137.5 727.5Q124 731 105 731L111 780H317L700 223L751 640Q752 649 752.5 657Q753 665 753 670Q753 707 728.5 718Q704 729 653 731L658 780H952L946 731Q918 730 897 726.5Q876 723 861.5 714.5Q847 706 838.5 691Q830 676 827 652L744 -25Q731 -135 676.5 -192.5Q622 -250 511 -250Q458 -250 421 -238.5Q384 -227 360.5 -208.5Q337 -190 326 -165.5Q315 -141 315 -114Q315 -81 329 -58.5Q343 -36 364 -25H452Q447 -41 444.5 -58.5Q442 -76 442 -95Q442 -145 461.5 -171.5Q481 -198 523 -198Q587 -198 619.5 -158.5Q652 -119 664 -32Z" glyph-name="Eng" horiz-adv-x="924" unicode="&#330;" /><glyph d="M752 780 731 589H688Q677 625 665.5 649.5Q654 674 637.5 690Q621 706 598 713Q575 720 541 720H345L309 428H478Q516 428 536.5 451.5Q557 475 572 526H618L587 271H541Q538 322 523.5 345Q509 368 471 368H301L276 163Q274 144 273 134Q272 124 272 115Q272 83 296 71.5Q320 60 374 60H465Q501 60 526 66.5Q551 73 572.5 89.5Q594 106 617 134.5Q640 163 673 206H721L662 0Q598 -23 561 -57.5Q524 -92 524 -135Q524 -160 540.5 -173.5Q557 -187 587 -187Q607 -187 622.5 -183Q638 -179 655 -171L661 -205Q638 -226 609 -238Q580 -250 544 -250Q499 -250 467.5 -228.5Q436 -207 436 -158Q436 -104 469.5 -66Q503 -28 561 0H16L22 49Q50 50 71 53.5Q92 57 106.5 65.5Q121 74 129.5 89Q138 104 141 128L203 640Q205 649 205.5 657Q206 665 206 670Q206 707 181 718Q156 729 105 731L111 780Z" glyph-name="Eogonek" horiz-adv-x="770" unicode="&#280;" /><glyph d="M258 147Q256 130 255 120Q254 110 254 105Q254 88 260.5 77Q267 66 279.5 60Q292 54 311 51.5Q330 49 355 48L349 0H1L7 48Q35 49 55.5 52.5Q76 56 90.5 64.5Q105 73 114 88.5Q123 104 126 128L172 506Q189 647 293 718.5Q397 790 574 790Q661 790 725 769Q789 748 824 716L820 682L647 472L696 449Q740 428 775.5 405Q811 382 836.5 353.5Q862 325 876 290Q890 255 890 209Q890 155 870.5 114.5Q851 74 816.5 46Q782 18 735 4Q688 -10 633 -10Q566 -10 507.5 12Q449 34 411 66L425 251H477Q490 146 531 99.5Q572 53 639 53Q699 53 735 88Q771 123 771 180Q771 235 732.5 273Q694 311 619 347L567 372Q545 383 520.5 397.5Q496 412 483 429L487 462L679 696Q629 711 566 711Q445 711 379 652.5Q313 594 300 488Z" glyph-name="Eszett" horiz-adv-x="928" unicode="&#7838;" /><glyph d="M400 60Q470 60 527 86.5Q584 113 623.5 163.5Q663 214 684.5 285.5Q706 357 706 447Q706 511 690.5 561.5Q675 612 643 647Q611 682 560 701Q509 720 439 720H345L308 427H510L502 369H301L276 163Q274 144 273 134Q272 124 272 115Q272 83 296 71.5Q320 60 374 60ZM73 427H177L203 640Q205 649 205.5 657Q206 665 206 670Q206 707 181 718Q156 729 105 731L111 780H460Q556 780 629.5 756.5Q703 733 752.5 690Q802 647 827 587.5Q852 528 852 455Q852 351 819 267Q786 183 727.5 123.5Q669 64 587.5 32Q506 0 410 0H16L22 49Q50 50 71 53.5Q92 57 106.5 65.5Q121 74 129.5 89Q138 104 141 128L170 369H66Z" glyph-name="Eth" horiz-adv-x="873" unicode="&#208;" /><glyph d="M66 476H165Q183 544 216 601.5Q249 659 294 701Q339 743 395 766.5Q451 790 514 790Q554 790 586 784.5Q618 779 644.5 768.5Q671 758 692.5 744Q714 730 734 714L716 542H663Q653 635 615.5 680.5Q578 726 508 726Q467 726 433.5 705.5Q400 685 374.5 650.5Q349 616 330.5 570.5Q312 525 301 476H578L558 424H291Q289 404 287 385.5Q285 367 285 348H536L516 296H286Q291 179 327 116.5Q363 54 444 54Q519 54 568.5 103.5Q618 153 657 248H714L677 55Q632 23 570 6.5Q508 -10 441 -10Q374 -10 321 12Q268 34 230.5 74Q193 114 171.5 170.5Q150 227 147 296H43L50 348H146Q147 368 149 386.5Q151 405 154 424H59Z" glyph-name="Euro" horiz-adv-x="775" unicode="&#8364;" /><glyph d="M66 476H165Q183 544 216 601.5Q249 659 294 701Q339 743 395 766.5Q451 790 514 790Q554 790 586 784.5Q618 779 644.5 768.5Q671 758 692.5 744Q714 730 734 714L716 542H663Q653 635 615.5 680.5Q578 726 508 726Q467 726 433.5 705.5Q400 685 374.5 650.5Q349 616 330.5 570.5Q312 525 301 476H578L558 424H291Q289 404 287 385.5Q285 367 285 348H536L516 296H286Q291 179 327 116.5Q363 54 444 54Q519 54 568.5 103.5Q618 153 657 248H714L677 55Q632 23 570 6.5Q508 -10 441 -10Q374 -10 321 12Q268 34 230.5 74Q193 114 171.5 170.5Q150 227 147 296H43L50 348H146Q147 368 149 386.5Q151 405 154 424H59Z" glyph-name="Euro.LP" horiz-adv-x="775" unicode="&#58657;" /><glyph d="M58 397H141Q157 451 186 496Q215 541 256 573Q297 605 348.5 623Q400 641 460 641Q528 641 581 622Q634 603 670 575L653 435H605Q592 512 558 546.5Q524 581 456 581Q418 581 387 567.5Q356 554 333 530Q310 506 293.5 472Q277 438 268 397H516L497 347H260Q258 330 256.5 312Q255 294 255 276H476L457 226H256Q264 139 304 94.5Q344 50 413 50Q479 50 522 90Q565 130 600 208H655L616 44Q571 18 516.5 4Q462 -10 398 -10Q338 -10 290.5 7Q243 24 208 55Q173 86 152 129.5Q131 173 125 226H36L42 276H123Q123 312 129 347H51Z" glyph-name="Euro.OP" horiz-adv-x="705" unicode="&#59805;" /><glyph d="M733 780 713 589H669Q658 625 647 649.5Q636 674 619.5 690Q603 706 579.5 713Q556 720 522 720H345L306 410H457Q495 410 515.5 433.5Q536 457 551 508H597L566 253H520Q517 304 502.5 327Q488 350 450 350H299L276 163Q274 144 273 134Q272 124 272 115Q272 98 277.5 86.5Q283 75 297 67.5Q311 60 335 55.5Q359 51 396 49L390 0H16L22 49Q50 50 71 53.5Q92 57 106.5 65.5Q121 74 129.5 89Q138 104 141 128L203 640Q205 649 205.5 657Q206 665 206 670Q206 707 181 718Q156 729 105 731L111 780Z" glyph-name="F" horiz-adv-x="706" unicode="F" /><glyph d="M581 229Q584 247 584 260Q584 297 559 308Q534 319 483 321L489 369H839L833 321Q805 320 784 316.5Q763 313 748.5 304.5Q734 296 725.5 280.5Q717 265 714 241L692 65Q635 29 565 9.5Q495 -10 408 -10Q329 -10 265 13.5Q201 37 155.5 81Q110 125 85.5 187.5Q61 250 61 327Q61 419 90 503Q119 587 174 650.5Q229 714 308 752Q387 790 487 790Q572 790 641 767.5Q710 745 756 714L740 542H689Q672 638 618 682.5Q564 727 479 727Q407 727 355 690.5Q303 654 269 596.5Q235 539 219 468.5Q203 398 203 330Q203 193 260 124Q317 55 420 55Q464 55 500.5 64Q537 73 563 97Z" glyph-name="G" horiz-adv-x="831" unicode="G" /><glyph d="M581 229Q584 247 584 260Q584 297 559 308Q534 319 483 321L489 369H839L833 321Q805 320 784 316.5Q763 313 748.5 304.5Q734 296 725.5 280.5Q717 265 714 241L692 65Q635 29 565 9.5Q495 -10 408 -10Q329 -10 265 13.5Q201 37 155.5 81Q110 125 85.5 187.5Q61 250 61 327Q61 419 90 503Q119 587 174 650.5Q229 714 308 752Q387 790 487 790Q572 790 641 767.5Q710 745 756 714L740 542H689Q672 638 618 682.5Q564 727 479 727Q407 727 355 690.5Q303 654 269 596.5Q235 539 219 468.5Q203 398 203 330Q203 193 260 124Q317 55 420 55Q464 55 500.5 64Q537 73 563 97ZM495 831Q413 831 376 870.5Q339 910 339 983Q339 1006 342 1030H389Q389 995 397.5 972Q406 949 421.5 934.5Q437 920 458 914Q479 908 504 908Q554 908 594 934.5Q634 961 651 1030H698Q686 935 638 883Q590 831 495 831Z" glyph-name="Gbreve" horiz-adv-x="831" unicode="&#286;" /><glyph d="M676 822H620L500 941L351 822H294L470 1030H552ZM581 229Q584 247 584 260Q584 297 559 308Q534 319 483 321L489 369H839L833 321Q805 320 784 316.5Q763 313 748.5 304.5Q734 296 725.5 280.5Q717 265 714 241L692 65Q635 29 565 9.5Q495 -10 408 -10Q329 -10 265 13.5Q201 37 155.5 81Q110 125 85.5 187.5Q61 250 61 327Q61 419 90 503Q119 587 174 650.5Q229 714 308 752Q387 790 487 790Q572 790 641 767.5Q710 745 756 714L740 542H689Q672 638 618 682.5Q564 727 479 727Q407 727 355 690.5Q303 654 269 596.5Q235 539 219 468.5Q203 398 203 330Q203 193 260 124Q317 55 420 55Q464 55 500.5 64Q537 73 563 97Z" glyph-name="Gcircumflex" horiz-adv-x="831" unicode="&#284;" /><glyph d="M581 229Q584 247 584 260Q584 297 559 308Q534 319 483 321L489 369H839L833 321Q805 320 784 316.5Q763 313 748.5 304.5Q734 296 725.5 280.5Q717 265 714 241L692 65Q635 29 565 9.5Q495 -10 408 -10Q329 -10 265 13.5Q201 37 155.5 81Q110 125 85.5 187.5Q61 250 61 327Q61 419 90 503Q119 587 174 650.5Q229 714 308 752Q387 790 487 790Q572 790 641 767.5Q710 745 756 714L740 542H689Q672 638 618 682.5Q564 727 479 727Q407 727 355 690.5Q303 654 269 596.5Q235 539 219 468.5Q203 398 203 330Q203 193 260 124Q317 55 420 55Q464 55 500.5 64Q537 73 563 97ZM341 -163Q317 -158 304.5 -144.5Q292 -131 292 -106Q292 -80 309.5 -62.5Q327 -45 361 -45Q399 -45 421.5 -70Q444 -95 444 -136Q444 -186 408 -216.5Q372 -247 295 -249L301 -208Q381 -200 381 -163Z" glyph-name="Gcommaaccent" horiz-adv-x="831" unicode="&#290;" /><glyph d="M581 229Q584 247 584 260Q584 297 559 308Q534 319 483 321L489 369H839L833 321Q805 320 784 316.5Q763 313 748.5 304.5Q734 296 725.5 280.5Q717 265 714 241L692 65Q635 29 565 9.5Q495 -10 408 -10Q329 -10 265 13.5Q201 37 155.5 81Q110 125 85.5 187.5Q61 250 61 327Q61 419 90 503Q119 587 174 650.5Q229 714 308 752Q387 790 487 790Q572 790 641 767.5Q710 745 756 714L740 542H689Q672 638 618 682.5Q564 727 479 727Q407 727 355 690.5Q303 654 269 596.5Q235 539 219 468.5Q203 398 203 330Q203 193 260 124Q317 55 420 55Q464 55 500.5 64Q537 73 563 97ZM495 851Q463 851 443.5 871.5Q424 892 424 922Q424 955 447 978.5Q470 1002 504 1002Q536 1002 555.5 981.5Q575 961 575 931Q575 898 552.5 874.5Q530 851 495 851Z" glyph-name="Gdotaccent" horiz-adv-x="831" unicode="&#288;" /><glyph d="M984 780 978 731Q950 730 929 726.5Q908 723 893.5 714.5Q879 706 870.5 691Q862 676 859 652L797 148Q795 131 794.5 120.5Q794 110 794 105Q794 88 800.5 77.5Q807 67 819.5 61Q832 55 851 52.5Q870 50 895 49L889 0H539L545 49Q573 50 594 53.5Q615 57 629.5 65.5Q644 74 652.5 89Q661 104 664 128L693 368H301L274 148Q272 131 271.5 120.5Q271 110 271 105Q271 88 277.5 77.5Q284 67 296.5 61Q309 55 328 52.5Q347 50 372 49L366 0H16L22 49Q50 50 71 53.5Q92 57 106.5 65.5Q121 74 129.5 89Q138 104 141 128L203 640Q205 649 205.5 657Q206 665 206 670Q206 707 181 718Q156 729 105 731L111 780H461L455 731Q427 730 406 726.5Q385 723 370.5 714.5Q356 706 347.5 691Q339 676 336 652L308 428H700L726 640Q728 649 728.5 657Q729 665 729 670Q729 707 704 718Q679 729 628 731L634 780Z" glyph-name="H" horiz-adv-x="962" unicode="H" /><glyph d="M700 428 714 546H322L308 428ZM984 780 978 731Q950 730 929 726.5Q908 723 893.5 714.5Q879 706 870.5 691Q862 676 859 652L853 603H957L950 546H846L797 148Q795 131 794.5 120.5Q794 110 794 105Q794 88 800.5 77.5Q807 67 819.5 61Q832 55 851 52.5Q870 50 895 49L889 0H539L545 49Q573 50 594 53.5Q615 57 629.5 65.5Q644 74 652.5 89Q661 104 664 128L693 368H301L274 148Q272 131 271.5 120.5Q271 110 271 105Q271 88 277.5 77.5Q284 67 296.5 61Q309 55 328 52.5Q347 50 372 49L366 0H16L22 49Q50 50 71 53.5Q92 57 106.5 65.5Q121 74 129.5 89Q138 104 141 128L191 546H87L94 603H198L203 640Q205 649 205.5 657Q206 665 206 670Q206 707 181 718Q156 729 105 731L111 780H461L455 731Q427 730 406 726.5Q385 723 370.5 714.5Q356 706 347.5 691Q339 676 336 652L330 603H721L726 640Q728 649 728.5 657Q729 665 729 670Q729 707 704 718Q679 729 628 731L634 780Z" glyph-name="Hbar" horiz-adv-x="962" unicode="&#294;" /><glyph d="M743 822H687L567 941L418 822H361L537 1030H619ZM984 780 978 731Q950 730 929 726.5Q908 723 893.5 714.5Q879 706 870.5 691Q862 676 859 652L797 148Q795 131 794.5 120.5Q794 110 794 105Q794 88 800.5 77.5Q807 67 819.5 61Q832 55 851 52.5Q870 50 895 49L889 0H539L545 49Q573 50 594 53.5Q615 57 629.5 65.5Q644 74 652.5 89Q661 104 664 128L693 368H301L274 148Q272 131 271.5 120.5Q271 110 271 105Q271 88 277.5 77.5Q284 67 296.5 61Q309 55 328 52.5Q347 50 372 49L366 0H16L22 49Q50 50 71 53.5Q92 57 106.5 65.5Q121 74 129.5 89Q138 104 141 128L203 640Q205 649 205.5 657Q206 665 206 670Q206 707 181 718Q156 729 105 731L111 780H461L455 731Q427 730 406 726.5Q385 723 370.5 714.5Q356 706 347.5 691Q339 676 336 652L308 428H700L726 640Q728 649 728.5 657Q729 665 729 670Q729 707 704 718Q679 729 628 731L634 780Z" glyph-name="Hcircumflex" horiz-adv-x="962" unicode="&#292;" /><glyph d="M461 780 455 731Q427 730 406 726.5Q385 723 370.5 714.5Q356 706 347.5 691Q339 676 336 652L274 148Q272 131 271.5 120.5Q271 110 271 105Q271 88 277.5 77.5Q284 67 296.5 61Q309 55 328 52.5Q347 50 372 49L366 0H16L22 49Q50 50 71 53.5Q92 57 106.5 65.5Q121 74 129.5 89Q138 104 141 128L203 640Q205 649 205.5 657Q206 665 206 670Q206 707 181 718Q156 729 105 731L111 780Z" glyph-name="I" horiz-adv-x="439" unicode="I" /><glyph d="M786 640Q787 649 788 657Q789 665 789 670Q789 707 764 718Q739 729 688 731L694 780H1044L1038 731Q1010 730 989 726.5Q968 723 953.5 714.5Q939 706 930.5 691Q922 676 919 652L867 224Q853 106 787.5 48Q722 -10 601 -10Q545 -10 505 2Q465 14 439.5 34.5Q414 55 402 81.5Q390 108 390 138Q390 169 404.5 190.5Q419 212 441 223H532Q527 207 524.5 188.5Q522 170 522 151Q522 100 541 71.5Q560 43 609 43Q637 43 658 52Q679 61 694 80.5Q709 100 718.5 131.5Q728 163 733 207ZM461 780 455 731Q427 730 406 726.5Q385 723 370.5 714.5Q356 706 347.5 691Q339 676 336 652L274 148Q272 131 271.5 120.5Q271 110 271 105Q271 88 277.5 77.5Q284 67 296.5 61Q309 55 328 52.5Q347 50 372 49L366 0H16L22 49Q50 50 71 53.5Q92 57 106.5 65.5Q121 74 129.5 89Q138 104 141 128L203 640Q205 649 205.5 657Q206 665 206 670Q206 707 181 718Q156 729 105 731L111 780Z" glyph-name="IJ" horiz-adv-x="982" unicode="&#306;" /><glyph d="M461 780 455 731Q427 730 406 726.5Q385 723 370.5 714.5Q356 706 347.5 691Q339 676 336 652L274 148Q272 131 271.5 120.5Q271 110 271 105Q271 88 277.5 77.5Q284 67 296.5 61Q309 55 328 52.5Q347 50 372 49L366 0H16L22 49Q50 50 71 53.5Q92 57 106.5 65.5Q121 74 129.5 89Q138 104 141 128L203 640Q205 649 205.5 657Q206 665 206 670Q206 707 181 718Q156 729 105 731L111 780ZM934 790Q954 790 966.5 778.5Q979 767 979 744Q979 723 971.5 705Q964 687 951.5 673.5Q939 660 923.5 650.5Q908 641 892 637L866 429H949L943 374H860L823 66Q805 -80 720.5 -153Q636 -226 504 -226Q433 -226 393.5 -197.5Q354 -169 354 -131Q354 -102 372.5 -83Q391 -64 425 -59Q434 -79 445.5 -97.5Q457 -116 472.5 -130Q488 -144 507 -152.5Q526 -161 550 -161Q610 -161 642.5 -120.5Q675 -80 686 5L723 300Q725 316 727.5 335Q730 354 734 374H593L599 429H744Q754 480 767.5 533Q781 586 799 634Q767 635 740 644.5Q713 654 687.5 665.5Q662 677 637.5 686.5Q613 696 586 696Q563 696 551.5 686.5Q540 677 532 663L605 627L600 606Q593 579 577 569.5Q561 560 539 560Q511 560 494 577.5Q477 595 477 628Q477 659 487 688.5Q497 718 517.5 740.5Q538 763 567.5 776.5Q597 790 636 790Q667 790 693 778.5Q719 767 741 751Q763 735 783 718Q803 701 823 689Q846 734 873.5 762Q901 790 934 790Z" glyph-name="IJ.alt" horiz-adv-x="989" unicode="&#59530;" /><glyph d="M543 1030 314 822H255L382 1030ZM461 780 455 731Q427 730 406 726.5Q385 723 370.5 714.5Q356 706 347.5 691Q339 676 336 652L274 148Q272 131 271.5 120.5Q271 110 271 105Q271 88 277.5 77.5Q284 67 296.5 61Q309 55 328 52.5Q347 50 372 49L366 0H16L22 49Q50 50 71 53.5Q92 57 106.5 65.5Q121 74 129.5 89Q138 104 141 128L203 640Q205 649 205.5 657Q206 665 206 670Q206 707 181 718Q156 729 105 731L111 780Z" glyph-name="Iacute" horiz-adv-x="439" unicode="&#205;" /><glyph d="M301 831Q219 831 182 870.5Q145 910 145 983Q145 1006 148 1030H195Q195 995 203.5 972Q212 949 227.5 934.5Q243 920 264 914Q285 908 310 908Q360 908 400 934.5Q440 961 457 1030H504Q492 935 444 883Q396 831 301 831ZM461 780 455 731Q427 730 406 726.5Q385 723 370.5 714.5Q356 706 347.5 691Q339 676 336 652L274 148Q272 131 271.5 120.5Q271 110 271 105Q271 88 277.5 77.5Q284 67 296.5 61Q309 55 328 52.5Q347 50 372 49L366 0H16L22 49Q50 50 71 53.5Q92 57 106.5 65.5Q121 74 129.5 89Q138 104 141 128L203 640Q205 649 205.5 657Q206 665 206 670Q206 707 181 718Q156 729 105 731L111 780Z" glyph-name="Ibreve" horiz-adv-x="439" unicode="&#300;" /><glyph d="M481 822H425L305 941L156 822H99L275 1030H357ZM461 780 455 731Q427 730 406 726.5Q385 723 370.5 714.5Q356 706 347.5 691Q339 676 336 652L274 148Q272 131 271.5 120.5Q271 110 271 105Q271 88 277.5 77.5Q284 67 296.5 61Q309 55 328 52.5Q347 50 372 49L366 0H16L22 49Q50 50 71 53.5Q92 57 106.5 65.5Q121 74 129.5 89Q138 104 141 128L203 640Q205 649 205.5 657Q206 665 206 670Q206 707 181 718Q156 729 105 731L111 780Z" glyph-name="Icircumflex" horiz-adv-x="439" unicode="&#206;" /><glyph d="M405 851Q373 851 353.5 871.5Q334 892 334 922Q334 955 357 978.5Q380 1002 415 1002Q447 1002 466.5 981.5Q486 961 486 931Q486 898 463 874.5Q440 851 405 851ZM198 851Q166 851 146.5 871.5Q127 892 127 922Q127 955 150 978.5Q173 1002 208 1002Q240 1002 259.5 981.5Q279 961 279 931Q279 898 256 874.5Q233 851 198 851ZM461 780 455 731Q427 730 406 726.5Q385 723 370.5 714.5Q356 706 347.5 691Q339 676 336 652L274 148Q272 131 271.5 120.5Q271 110 271 105Q271 88 277.5 77.5Q284 67 296.5 61Q309 55 328 52.5Q347 50 372 49L366 0H16L22 49Q50 50 71 53.5Q92 57 106.5 65.5Q121 74 129.5 89Q138 104 141 128L203 640Q205 649 205.5 657Q206 665 206 670Q206 707 181 718Q156 729 105 731L111 780Z" glyph-name="Idieresis" horiz-adv-x="439" unicode="&#207;" /><glyph d="M300 851Q268 851 248.5 871.5Q229 892 229 922Q229 955 252 978.5Q275 1002 309 1002Q341 1002 360.5 981.5Q380 961 380 931Q380 898 357.5 874.5Q335 851 300 851ZM461 780 455 731Q427 730 406 726.5Q385 723 370.5 714.5Q356 706 347.5 691Q339 676 336 652L274 148Q272 131 271.5 120.5Q271 110 271 105Q271 88 277.5 77.5Q284 67 296.5 61Q309 55 328 52.5Q347 50 372 49L366 0H16L22 49Q50 50 71 53.5Q92 57 106.5 65.5Q121 74 129.5 89Q138 104 141 128L203 640Q205 649 205.5 657Q206 665 206 670Q206 707 181 718Q156 729 105 731L111 780Z" glyph-name="Idotaccent" horiz-adv-x="439" unicode="&#304;" /><glyph d="M251 1030 327 822H271L101 1030ZM461 780 455 731Q427 730 406 726.5Q385 723 370.5 714.5Q356 706 347.5 691Q339 676 336 652L274 148Q272 131 271.5 120.5Q271 110 271 105Q271 88 277.5 77.5Q284 67 296.5 61Q309 55 328 52.5Q347 50 372 49L366 0H16L22 49Q50 50 71 53.5Q92 57 106.5 65.5Q121 74 129.5 89Q138 104 141 128L203 640Q205 649 205.5 657Q206 665 206 670Q206 707 181 718Q156 729 105 731L111 780Z" glyph-name="Igrave" horiz-adv-x="439" unicode="&#204;" /><glyph d="M171 936H448L439 866H162ZM461 780 455 731Q427 730 406 726.5Q385 723 370.5 714.5Q356 706 347.5 691Q339 676 336 652L274 148Q272 131 271.5 120.5Q271 110 271 105Q271 88 277.5 77.5Q284 67 296.5 61Q309 55 328 52.5Q347 50 372 49L366 0H16L22 49Q50 50 71 53.5Q92 57 106.5 65.5Q121 74 129.5 89Q138 104 141 128L203 640Q205 649 205.5 657Q206 665 206 670Q206 707 181 718Q156 729 105 731L111 780Z" glyph-name="Imacron" horiz-adv-x="439" unicode="&#298;" /><glyph d="M461 780 455 731Q427 730 406 726.5Q385 723 370.5 714.5Q356 706 347.5 691Q339 676 336 652L274 148Q272 131 271.5 120.5Q271 110 271 105Q271 88 277.5 77.5Q284 67 296.5 61Q309 55 328 52.5Q347 50 372 49L366 0Q302 -23 265 -57.5Q228 -92 228 -135Q228 -160 244.5 -173.5Q261 -187 291 -187Q311 -187 326.5 -183Q342 -179 359 -171L366 -205Q343 -226 314 -238Q285 -250 248 -250Q203 -250 172 -228.5Q141 -207 141 -158Q141 -104 174.5 -66Q208 -28 265 0H16L22 49Q50 50 71 53.5Q92 57 106.5 65.5Q121 74 129.5 89Q138 104 141 128L203 640Q205 649 205.5 657Q206 665 206 670Q206 707 181 718Q156 729 105 731L111 780Z" glyph-name="Iogonek" horiz-adv-x="439" unicode="&#302;" /><glyph d="M518 990Q486 921 450.5 888Q415 855 367 855Q344 855 325 864.5Q306 874 289.5 885Q273 896 258 905.5Q243 915 227 915Q203 915 186.5 901Q170 887 150 857L103 865Q135 934 170.5 967.5Q206 1001 254 1001Q277 1001 296 991.5Q315 982 331.5 971Q348 960 363 950.5Q378 941 394 941Q418 941 434.5 954.5Q451 968 471 999ZM461 780 455 731Q427 730 406 726.5Q385 723 370.5 714.5Q356 706 347.5 691Q339 676 336 652L274 148Q272 131 271.5 120.5Q271 110 271 105Q271 88 277.5 77.5Q284 67 296.5 61Q309 55 328 52.5Q347 50 372 49L366 0H16L22 49Q50 50 71 53.5Q92 57 106.5 65.5Q121 74 129.5 89Q138 104 141 128L203 640Q205 649 205.5 657Q206 665 206 670Q206 707 181 718Q156 729 105 731L111 780Z" glyph-name="Itilde" horiz-adv-x="439" unicode="&#296;" /><glyph d="M399 640Q400 649 401 657Q402 665 402 670Q402 707 377 718Q352 729 301 731L307 780H657L651 731Q623 730 602 726.5Q581 723 566.5 714.5Q552 706 543.5 691Q535 676 532 652L480 224Q466 106 400.5 48Q335 -10 214 -10Q158 -10 118 2Q78 14 52.5 34.5Q27 55 15 81.5Q3 108 3 138Q3 169 17.5 190.5Q32 212 54 223H145Q140 207 137.5 188.5Q135 170 135 151Q135 100 154 71.5Q173 43 222 43Q250 43 271 52Q292 61 307 80.5Q322 100 331.5 131.5Q341 163 346 207Z" glyph-name="J" horiz-adv-x="602" unicode="J" /><glyph d="M534 790Q554 790 566.5 778.5Q579 767 579 744Q579 723 571.5 705Q564 687 551.5 673.5Q539 660 523.5 650.5Q508 641 492 637L466 429H549L543 374H460L423 66Q405 -80 320.5 -153Q236 -226 104 -226Q33 -226 -6.5 -197.5Q-46 -169 -46 -131Q-46 -102 -27.5 -83Q-9 -64 25 -59Q34 -79 45.5 -97.5Q57 -116 72.5 -130Q88 -144 107 -152.5Q126 -161 150 -161Q210 -161 242.5 -120.5Q275 -80 286 5L323 300Q325 316 327.5 335Q330 354 334 374H193L199 429H344Q354 480 367.5 533Q381 586 399 634Q367 635 340 644.5Q313 654 287.5 665.5Q262 677 237.5 686.5Q213 696 186 696Q163 696 151.5 686.5Q140 677 132 663L205 627L200 606Q193 579 177 569.5Q161 560 139 560Q111 560 94 577.5Q77 595 77 628Q77 659 87 688.5Q97 718 117.5 740.5Q138 763 167.5 776.5Q197 790 236 790Q267 790 293 778.5Q319 767 341 751Q363 735 383 718Q403 701 423 689Q446 734 473.5 762Q501 790 534 790Z" glyph-name="J.hist" horiz-adv-x="590" /><glyph d="M673 822H617L497 941L348 822H291L467 1030H549ZM399 640Q400 649 401 657Q402 665 402 670Q402 707 377 718Q352 729 301 731L307 780H657L651 731Q623 730 602 726.5Q581 723 566.5 714.5Q552 706 543.5 691Q535 676 532 652L480 224Q466 106 400.5 48Q335 -10 214 -10Q158 -10 118 2Q78 14 52.5 34.5Q27 55 15 81.5Q3 108 3 138Q3 169 17.5 190.5Q32 212 54 223H145Q140 207 137.5 188.5Q135 170 135 151Q135 100 154 71.5Q173 43 222 43Q250 43 271 52Q292 61 307 80.5Q322 100 331.5 131.5Q341 163 346 207Z" glyph-name="Jcircumflex" horiz-adv-x="602" unicode="&#308;" /><glyph d="M561 822H505L385 941L236 822H179L355 1030H437ZM534 790Q554 790 566.5 778.5Q579 767 579 744Q579 723 571.5 705Q564 687 551.5 673.5Q539 660 523.5 650.5Q508 641 492 637L466 429H549L543 374H460L423 66Q405 -80 320.5 -153Q236 -226 104 -226Q33 -226 -6.5 -197.5Q-46 -169 -46 -131Q-46 -102 -27.5 -83Q-9 -64 25 -59Q34 -79 45.5 -97.5Q57 -116 72.5 -130Q88 -144 107 -152.5Q126 -161 150 -161Q210 -161 242.5 -120.5Q275 -80 286 5L323 300Q325 316 327.5 335Q330 354 334 374H193L199 429H344Q354 480 367.5 533Q381 586 399 634Q367 635 340 644.5Q313 654 287.5 665.5Q262 677 237.5 686.5Q213 696 186 696Q163 696 151.5 686.5Q140 677 132 663L205 627L200 606Q193 579 177 569.5Q161 560 139 560Q111 560 94 577.5Q77 595 77 628Q77 659 87 688.5Q97 718 117.5 740.5Q138 763 167.5 776.5Q197 790 236 790Q267 790 293 778.5Q319 767 341 751Q363 735 383 718Q403 701 423 689Q446 734 473.5 762Q501 790 534 790Z" glyph-name="Jcircumflex.hist" horiz-adv-x="590" /><glyph d="M461 780 455 731Q427 730 406 726.5Q385 723 370.5 714.5Q356 706 347.5 691Q339 676 336 652L274 148Q272 131 271.5 120.5Q271 110 271 105Q271 88 277.5 77.5Q284 67 296.5 61Q309 55 328 52.5Q347 50 372 49L366 0H16L22 49Q50 50 71 53.5Q92 57 106.5 65.5Q121 74 129.5 89Q138 104 141 128L203 640Q205 649 205.5 657Q206 665 206 670Q206 707 181 718Q156 729 105 731L111 780ZM644 166Q668 134 687.5 112Q707 90 727 76Q747 62 769 55.5Q791 49 820 49L814 0H622Q591 26 564 58.5Q537 91 501 142L316 398L606 656Q619 667 628.5 677.5Q638 688 638 700Q638 707 635.5 712.5Q633 718 624.5 721.5Q616 725 601 727Q586 729 562 731L567 780H854L848 731Q811 729 784.5 718Q758 707 727 679L448 433Z" glyph-name="K" horiz-adv-x="845" unicode="K" /><glyph d="M461 780 455 731Q427 730 406 726.5Q385 723 370.5 714.5Q356 706 347.5 691Q339 676 336 652L274 148Q272 131 271.5 120.5Q271 110 271 105Q271 88 277.5 77.5Q284 67 296.5 61Q309 55 328 52.5Q347 50 372 49L366 0H16L22 49Q50 50 71 53.5Q92 57 106.5 65.5Q121 74 129.5 89Q138 104 141 128L203 640Q205 649 205.5 657Q206 665 206 670Q206 707 181 718Q156 729 105 731L111 780ZM644 166Q668 134 687.5 112Q707 90 727 76Q747 62 769 55.5Q791 49 820 49L814 0H622Q591 26 564 58.5Q537 91 501 142L316 398L606 656Q619 667 628.5 677.5Q638 688 638 700Q638 707 635.5 712.5Q633 718 624.5 721.5Q616 725 601 727Q586 729 562 731L567 780H854L848 731Q811 729 784.5 718Q758 707 727 679L448 433ZM376 -163Q352 -158 339.5 -144.5Q327 -131 327 -106Q327 -80 344.5 -62.5Q362 -45 396 -45Q434 -45 456.5 -70Q479 -95 479 -136Q479 -186 443 -216.5Q407 -247 330 -249L336 -208Q416 -200 416 -163Z" glyph-name="Kcommaaccent" horiz-adv-x="845" unicode="&#310;" /><glyph d="M276 163Q274 144 273 134Q272 124 272 115Q272 83 296 71.5Q320 60 374 60H450Q483 60 508 69Q533 78 556 98Q579 118 603.5 150Q628 182 662 229H711L645 0H16L22 49Q50 50 71 53.5Q92 57 106.5 65.5Q121 74 129.5 89Q138 104 141 128L203 640Q205 649 205.5 657Q206 665 206 670Q206 707 181 718Q156 729 105 731L111 780H461L455 731Q427 730 406 726.5Q385 723 370.5 714.5Q356 706 347.5 691Q339 676 336 652Z" glyph-name="L" horiz-adv-x="731" unicode="L" /><glyph d="M276 163Q274 144 273 134Q272 124 272 115Q272 83 296 71.5Q320 60 374 60H450Q483 60 508 69Q533 78 556 98Q579 118 603.5 150Q628 182 662 229H711L645 0H16L22 49Q50 50 71 53.5Q92 57 106.5 65.5Q121 74 129.5 89Q138 104 141 128L203 640Q205 649 205.5 657Q206 665 206 670Q206 707 181 718Q156 729 105 731L111 780H461L455 731Q427 730 406 726.5Q385 723 370.5 714.5Q356 706 347.5 691Q339 676 336 652ZM557 1030 328 822H269L396 1030Z" glyph-name="Lacute" horiz-adv-x="731" unicode="&#313;" /><glyph d="M276 163Q274 144 273 134Q272 124 272 115Q272 83 296 71.5Q320 60 374 60H450Q483 60 508 69Q533 78 556 98Q579 118 603.5 150Q628 182 662 229H711L645 0H16L22 49Q50 50 71 53.5Q92 57 106.5 65.5Q121 74 129.5 89Q138 104 141 128L203 640Q205 649 205.5 657Q206 665 206 670Q206 707 181 718Q156 729 105 731L111 780H461L455 731Q427 730 406 726.5Q385 723 370.5 714.5Q356 706 347.5 691Q339 676 336 652ZM684 780 566 572H509L569 780Z" glyph-name="Lcaron" horiz-adv-x="731" unicode="&#317;" /><glyph d="M276 163Q274 144 273 134Q272 124 272 115Q272 83 296 71.5Q320 60 374 60H450Q483 60 508 69Q533 78 556 98Q579 118 603.5 150Q628 182 662 229H711L645 0H16L22 49Q50 50 71 53.5Q92 57 106.5 65.5Q121 74 129.5 89Q138 104 141 128L203 640Q205 649 205.5 657Q206 665 206 670Q206 707 181 718Q156 729 105 731L111 780H461L455 731Q427 730 406 726.5Q385 723 370.5 714.5Q356 706 347.5 691Q339 676 336 652ZM336 -163Q312 -158 299.5 -144.5Q287 -131 287 -106Q287 -80 304.5 -62.5Q322 -45 356 -45Q394 -45 416.5 -70Q439 -95 439 -136Q439 -186 403 -216.5Q367 -247 290 -249L296 -208Q376 -200 376 -163Z" glyph-name="Lcommaaccent" horiz-adv-x="731" unicode="&#315;" /><glyph d="M524 399Q524 434 547.5 457.5Q571 481 605 481Q639 481 662.5 457.5Q686 434 686 399Q686 366 662.5 342.5Q639 319 605 319Q571 319 547.5 342.5Q524 366 524 399ZM276 163Q274 144 273 134Q272 124 272 115Q272 83 296 71.5Q320 60 374 60H450Q483 60 508 69Q533 78 556 98Q579 118 603.5 150Q628 182 662 229H711L645 0H16L22 49Q50 50 71 53.5Q92 57 106.5 65.5Q121 74 129.5 89Q138 104 141 128L203 640Q205 649 205.5 657Q206 665 206 670Q206 707 181 718Q156 729 105 731L111 780H461L455 731Q427 730 406 726.5Q385 723 370.5 714.5Q356 706 347.5 691Q339 676 336 652Z" glyph-name="Ldot" horiz-adv-x="731" unicode="&#319;" /><glyph d="M308 429 515 515 505 448 300 361 276 163Q274 144 273 134Q272 124 272 115Q272 83 296 71.5Q320 60 374 60H450Q483 60 508 69Q533 78 556 98Q579 118 603.5 150Q628 182 662 229H711L645 0H16L22 49Q50 50 71 53.5Q92 57 106.5 65.5Q121 74 129.5 89Q138 104 141 128L163 308L55 263L63 330L171 376L203 640Q205 649 205.5 657Q206 665 206 670Q206 707 181 718Q156 729 105 731L111 780H461L455 731Q427 730 406 726.5Q385 723 370.5 714.5Q356 706 347.5 691Q339 676 336 652Z" glyph-name="Lslash" horiz-adv-x="731" unicode="&#321;" /><glyph d="M794 716Q803 735 808.5 748Q814 761 818 780H1049L1043 731Q987 729 965 711.5Q943 694 938 650L944 116Q944 78 963.5 64.5Q983 51 1031 49L1025 0H688L693 49Q720 50 742 54Q764 58 779 68Q794 78 802.5 96.5Q811 115 811 147L807 601L497 0H448L298 601L177 148Q175 137 172.5 125.5Q170 114 170 103Q170 72 193 62Q216 52 271 49L265 0H-10L-5 49Q19 50 36 53.5Q53 57 65 64.5Q77 72 85 84Q93 96 98 116L240 650Q240 672 237 687Q234 702 225 711.5Q216 721 199.5 725.5Q183 730 155 731L161 780H392Q392 761 395 747Q398 733 403 713L530 200Z" glyph-name="M" horiz-adv-x="1075" unicode="M" /><glyph d="M751 640Q752 649 752.5 657Q753 665 753 670Q753 707 728.5 718Q704 729 653 731L658 780H952L946 731Q918 730 897 726.5Q876 723 861.5 714.5Q847 706 838.5 691Q830 676 827 652L747 0H695L275 610L218 148Q216 131 215 120.5Q214 110 214 105Q214 88 220.5 77.5Q227 67 239.5 61Q252 55 271 52.5Q290 50 315 49L309 0H16L22 49Q50 50 71 53.5Q92 57 106.5 65.5Q121 74 129.5 89Q138 104 141 128L207 666Q193 684 182.5 696.5Q172 709 161.5 716.5Q151 724 137.5 727.5Q124 731 105 731L111 780H317L700 223Z" glyph-name="N" horiz-adv-x="924" unicode="N" /><glyph d="M752 640Q753 649 753.5 657Q754 665 754 670Q754 707 729.5 718Q705 729 654 731L659 780H953L947 731Q919 730 898 726.5Q877 723 862.5 714.5Q848 706 839.5 691Q831 676 828 652L762 112L820 22L819 0H681L274 610L218 148Q216 131 215 120.5Q214 110 214 105Q214 88 220.5 77.5Q227 67 239.5 61Q252 55 271 52.5Q290 50 315 49L309 0H16L22 49Q50 50 71 53.5Q92 57 106.5 65.5Q121 74 129.5 89Q138 104 141 128L207 666Q193 684 182.5 696.5Q172 709 161.5 716.5Q151 724 137.5 727.5Q124 731 105 731L111 780H317L699 203Z" glyph-name="N.hist" horiz-adv-x="926" /><glyph d="M751 640Q752 649 752.5 657Q753 665 753 670Q753 707 728.5 718Q704 729 653 731L658 780H952L946 731Q918 730 897 726.5Q876 723 861.5 714.5Q847 706 838.5 691Q830 676 827 652L747 0H695L275 610L218 148Q216 131 215 120.5Q214 110 214 105Q214 88 220.5 77.5Q227 67 239.5 61Q252 55 271 52.5Q290 50 315 49L309 0H16L22 49Q50 50 71 53.5Q92 57 106.5 65.5Q121 74 129.5 89Q138 104 141 128L207 666Q193 684 182.5 696.5Q172 709 161.5 716.5Q151 724 137.5 727.5Q124 731 105 731L111 780H317L700 223ZM770 1030 541 822H482L609 1030Z" glyph-name="Nacute" horiz-adv-x="924" unicode="&#323;" /><glyph d="M752 640Q753 649 753.5 657Q754 665 754 670Q754 707 729.5 718Q705 729 654 731L659 780H953L947 731Q919 730 898 726.5Q877 723 862.5 714.5Q848 706 839.5 691Q831 676 828 652L762 112L820 22L819 0H681L274 610L218 148Q216 131 215 120.5Q214 110 214 105Q214 88 220.5 77.5Q227 67 239.5 61Q252 55 271 52.5Q290 50 315 49L309 0H16L22 49Q50 50 71 53.5Q92 57 106.5 65.5Q121 74 129.5 89Q138 104 141 128L207 666Q193 684 182.5 696.5Q172 709 161.5 716.5Q151 724 137.5 727.5Q124 731 105 731L111 780H317L699 203ZM771 1030 542 822H483L610 1030Z" glyph-name="Nacute.hist" horiz-adv-x="926" /><glyph d="M751 640Q752 649 752.5 657Q753 665 753 670Q753 707 728.5 718Q704 729 653 731L658 780H952L946 731Q918 730 897 726.5Q876 723 861.5 714.5Q847 706 838.5 691Q830 676 827 652L747 0H695L275 610L218 148Q216 131 215 120.5Q214 110 214 105Q214 88 220.5 77.5Q227 67 239.5 61Q252 55 271 52.5Q290 50 315 49L309 0H16L22 49Q50 50 71 53.5Q92 57 106.5 65.5Q121 74 129.5 89Q138 104 141 128L207 666Q193 684 182.5 696.5Q172 709 161.5 716.5Q151 724 137.5 727.5Q124 731 105 731L111 780H317L700 223ZM371 1030H427L547 911L696 1030H753L577 822H495Z" glyph-name="Ncaron" horiz-adv-x="924" unicode="&#327;" /><glyph d="M752 640Q753 649 753.5 657Q754 665 754 670Q754 707 729.5 718Q705 729 654 731L659 780H953L947 731Q919 730 898 726.5Q877 723 862.5 714.5Q848 706 839.5 691Q831 676 828 652L762 112L820 22L819 0H681L274 610L218 148Q216 131 215 120.5Q214 110 214 105Q214 88 220.5 77.5Q227 67 239.5 61Q252 55 271 52.5Q290 50 315 49L309 0H16L22 49Q50 50 71 53.5Q92 57 106.5 65.5Q121 74 129.5 89Q138 104 141 128L207 666Q193 684 182.5 696.5Q172 709 161.5 716.5Q151 724 137.5 727.5Q124 731 105 731L111 780H317L699 203ZM371 1030H427L547 911L696 1030H753L577 822H495Z" glyph-name="Ncaron.hist" horiz-adv-x="926" /><glyph d="M751 640Q752 649 752.5 657Q753 665 753 670Q753 707 728.5 718Q704 729 653 731L658 780H952L946 731Q918 730 897 726.5Q876 723 861.5 714.5Q847 706 838.5 691Q830 676 827 652L747 0H695L275 610L218 148Q216 131 215 120.5Q214 110 214 105Q214 88 220.5 77.5Q227 67 239.5 61Q252 55 271 52.5Q290 50 315 49L309 0H16L22 49Q50 50 71 53.5Q92 57 106.5 65.5Q121 74 129.5 89Q138 104 141 128L207 666Q193 684 182.5 696.5Q172 709 161.5 716.5Q151 724 137.5 727.5Q124 731 105 731L111 780H317L700 223ZM392 -163Q368 -158 355.5 -144.5Q343 -131 343 -106Q343 -80 360.5 -62.5Q378 -45 412 -45Q450 -45 472.5 -70Q495 -95 495 -136Q495 -186 459 -216.5Q423 -247 346 -249L352 -208Q432 -200 432 -163Z" glyph-name="Ncommaaccent" horiz-adv-x="924" unicode="&#325;" /><glyph d="M752 640Q753 649 753.5 657Q754 665 754 670Q754 707 729.5 718Q705 729 654 731L659 780H953L947 731Q919 730 898 726.5Q877 723 862.5 714.5Q848 706 839.5 691Q831 676 828 652L762 112L820 22L819 0H681L274 610L218 148Q216 131 215 120.5Q214 110 214 105Q214 88 220.5 77.5Q227 67 239.5 61Q252 55 271 52.5Q290 50 315 49L309 0H16L22 49Q50 50 71 53.5Q92 57 106.5 65.5Q121 74 129.5 89Q138 104 141 128L207 666Q193 684 182.5 696.5Q172 709 161.5 716.5Q151 724 137.5 727.5Q124 731 105 731L111 780H317L699 203ZM392 -163Q368 -158 355.5 -144.5Q343 -131 343 -106Q343 -80 360.5 -62.5Q378 -45 412 -45Q450 -45 472.5 -70Q495 -95 495 -136Q495 -186 459 -216.5Q423 -247 346 -249L352 -208Q432 -200 432 -163Z" glyph-name="Ncommaaccent.hist" horiz-adv-x="926" /><glyph d="M751 640Q752 649 752.5 657Q753 665 753 670Q753 707 728.5 718Q704 729 653 731L658 780H952L946 731Q918 730 897 726.5Q876 723 861.5 714.5Q847 706 838.5 691Q830 676 827 652L747 0H695L275 610L218 148Q216 131 215 120.5Q214 110 214 105Q214 88 220.5 77.5Q227 67 239.5 61Q252 55 271 52.5Q290 50 315 49L309 0H16L22 49Q50 50 71 53.5Q92 57 106.5 65.5Q121 74 129.5 89Q138 104 141 128L207 666Q193 684 182.5 696.5Q172 709 161.5 716.5Q151 724 137.5 727.5Q124 731 105 731L111 780H317L700 223ZM764 990Q732 921 696.5 888Q661 855 613 855Q590 855 571 864.5Q552 874 535.5 885Q519 896 504 905.5Q489 915 473 915Q449 915 432.5 901Q416 887 396 857L349 865Q381 934 416.5 967.5Q452 1001 500 1001Q523 1001 542 991.5Q561 982 577.5 971Q594 960 609 950.5Q624 941 640 941Q664 941 680.5 954.5Q697 968 717 999Z" glyph-name="Ntilde" horiz-adv-x="924" unicode="&#209;" /><glyph d="M752 640Q753 649 753.5 657Q754 665 754 670Q754 707 729.5 718Q705 729 654 731L659 780H953L947 731Q919 730 898 726.5Q877 723 862.5 714.5Q848 706 839.5 691Q831 676 828 652L762 112L820 22L819 0H681L274 610L218 148Q216 131 215 120.5Q214 110 214 105Q214 88 220.5 77.5Q227 67 239.5 61Q252 55 271 52.5Q290 50 315 49L309 0H16L22 49Q50 50 71 53.5Q92 57 106.5 65.5Q121 74 129.5 89Q138 104 141 128L207 666Q193 684 182.5 696.5Q172 709 161.5 716.5Q151 724 137.5 727.5Q124 731 105 731L111 780H317L699 203ZM764 990Q732 921 696.5 888Q661 855 613 855Q590 855 571 864.5Q552 874 535.5 885Q519 896 504 905.5Q489 915 473 915Q449 915 432.5 901Q416 887 396 857L349 865Q381 934 416.5 967.5Q452 1001 500 1001Q523 1001 542 991.5Q561 982 577.5 971Q594 960 609 950.5Q624 941 640 941Q664 941 680.5 954.5Q697 968 717 999Z" glyph-name="Ntilde.hist" horiz-adv-x="926" /><glyph d="M383 -10Q309 -10 249.5 13.5Q190 37 148 81Q106 125 83.5 188Q61 251 61 330Q61 418 88 500.5Q115 583 167.5 647.5Q220 712 297 751Q374 790 475 790Q549 790 608.5 766.5Q668 743 710 699Q752 655 774.5 592Q797 529 797 450Q797 362 770 279.5Q743 197 690.5 132.5Q638 68 560.5 29Q483 -10 383 -10ZM391 54Q461 54 511.5 91.5Q562 129 593.5 186.5Q625 244 640 314.5Q655 385 655 451Q655 581 606 653.5Q557 726 467 726Q396 726 346 688.5Q296 651 264.5 593.5Q233 536 218 465.5Q203 395 203 329Q203 199 252 126.5Q301 54 391 54Z" glyph-name="O" horiz-adv-x="821" unicode="O" /><glyph d="M391 54Q461 54 511.5 91.5Q562 129 593.5 186.5Q625 244 640 314.5Q655 385 655 451Q655 581 606 653.5Q557 726 467 726Q396 726 346 688.5Q296 651 264.5 593.5Q233 536 218 465.5Q203 395 203 329Q203 199 252 126.5Q301 54 391 54ZM383 -10Q309 -10 249.5 13.5Q190 37 148 81Q106 125 83.5 188Q61 251 61 330Q61 418 88 500.5Q115 583 167.5 647.5Q220 712 297 751Q374 790 475 790Q499 790 521.5 787.5Q544 785 565 780H1170L1150 589H1107Q1096 625 1084.5 649.5Q1073 674 1056.5 690Q1040 706 1017 713Q994 720 960 720H687Q740 676 768.5 608Q797 540 797 450V428H897Q935 428 955.5 451.5Q976 475 991 526H1037L1006 271H960Q957 322 942.5 345Q928 368 890 368H791Q777 274 732.5 193.5Q688 113 613 60H884Q920 60 945 66.5Q970 73 991.5 89.5Q1013 106 1036 134.5Q1059 163 1092 206H1140L1080 0H478Q455 -5 432 -7.5Q409 -10 383 -10Z" glyph-name="OE" horiz-adv-x="1189" unicode="&#338;" /><glyph d="M383 -10Q309 -10 249.5 13.5Q190 37 148 81Q106 125 83.5 188Q61 251 61 330Q61 418 88 500.5Q115 583 167.5 647.5Q220 712 297 751Q374 790 475 790Q549 790 608.5 766.5Q668 743 710 699Q752 655 774.5 592Q797 529 797 450Q797 362 770 279.5Q743 197 690.5 132.5Q638 68 560.5 29Q483 -10 383 -10ZM391 54Q461 54 511.5 91.5Q562 129 593.5 186.5Q625 244 640 314.5Q655 385 655 451Q655 581 606 653.5Q557 726 467 726Q396 726 346 688.5Q296 651 264.5 593.5Q233 536 218 465.5Q203 395 203 329Q203 199 252 126.5Q301 54 391 54ZM734 1030 505 822H446L573 1030Z" glyph-name="Oacute" horiz-adv-x="821" unicode="&#211;" /><glyph d="M383 -10Q309 -10 249.5 13.5Q190 37 148 81Q106 125 83.5 188Q61 251 61 330Q61 418 88 500.5Q115 583 167.5 647.5Q220 712 297 751Q374 790 475 790Q549 790 608.5 766.5Q668 743 710 699Q752 655 774.5 592Q797 529 797 450Q797 362 770 279.5Q743 197 690.5 132.5Q638 68 560.5 29Q483 -10 383 -10ZM391 54Q461 54 511.5 91.5Q562 129 593.5 186.5Q625 244 640 314.5Q655 385 655 451Q655 581 606 653.5Q557 726 467 726Q396 726 346 688.5Q296 651 264.5 593.5Q233 536 218 465.5Q203 395 203 329Q203 199 252 126.5Q301 54 391 54ZM494 831Q412 831 375 870.5Q338 910 338 983Q338 1006 341 1030H388Q388 995 396.5 972Q405 949 420.5 934.5Q436 920 457 914Q478 908 503 908Q553 908 593 934.5Q633 961 650 1030H697Q685 935 637 883Q589 831 494 831Z" glyph-name="Obreve" horiz-adv-x="821" unicode="&#334;" /><glyph d="M682 822H626L506 941L357 822H300L476 1030H558ZM383 -10Q309 -10 249.5 13.5Q190 37 148 81Q106 125 83.5 188Q61 251 61 330Q61 418 88 500.5Q115 583 167.5 647.5Q220 712 297 751Q374 790 475 790Q549 790 608.5 766.5Q668 743 710 699Q752 655 774.5 592Q797 529 797 450Q797 362 770 279.5Q743 197 690.5 132.5Q638 68 560.5 29Q483 -10 383 -10ZM391 54Q461 54 511.5 91.5Q562 129 593.5 186.5Q625 244 640 314.5Q655 385 655 451Q655 581 606 653.5Q557 726 467 726Q396 726 346 688.5Q296 651 264.5 593.5Q233 536 218 465.5Q203 395 203 329Q203 199 252 126.5Q301 54 391 54Z" glyph-name="Ocircumflex" horiz-adv-x="821" unicode="&#212;" /><glyph d="M383 -10Q309 -10 249.5 13.5Q190 37 148 81Q106 125 83.5 188Q61 251 61 330Q61 418 88 500.5Q115 583 167.5 647.5Q220 712 297 751Q374 790 475 790Q549 790 608.5 766.5Q668 743 710 699Q752 655 774.5 592Q797 529 797 450Q797 362 770 279.5Q743 197 690.5 132.5Q638 68 560.5 29Q483 -10 383 -10ZM391 54Q461 54 511.5 91.5Q562 129 593.5 186.5Q625 244 640 314.5Q655 385 655 451Q655 581 606 653.5Q557 726 467 726Q396 726 346 688.5Q296 651 264.5 593.5Q233 536 218 465.5Q203 395 203 329Q203 199 252 126.5Q301 54 391 54ZM597 851Q565 851 545.5 871.5Q526 892 526 922Q526 955 549 978.5Q572 1002 607 1002Q639 1002 658.5 981.5Q678 961 678 931Q678 898 655 874.5Q632 851 597 851ZM390 851Q358 851 338.5 871.5Q319 892 319 922Q319 955 342 978.5Q365 1002 400 1002Q432 1002 451.5 981.5Q471 961 471 931Q471 898 448 874.5Q425 851 390 851Z" glyph-name="Odieresis" horiz-adv-x="821" unicode="&#214;" /><glyph d="M383 -10Q309 -10 249.5 13.5Q190 37 148 81Q106 125 83.5 188Q61 251 61 330Q61 418 88 500.5Q115 583 167.5 647.5Q220 712 297 751Q374 790 475 790Q549 790 608.5 766.5Q668 743 710 699Q752 655 774.5 592Q797 529 797 450Q797 362 770 279.5Q743 197 690.5 132.5Q638 68 560.5 29Q483 -10 383 -10ZM391 54Q461 54 511.5 91.5Q562 129 593.5 186.5Q625 244 640 314.5Q655 385 655 451Q655 581 606 653.5Q557 726 467 726Q396 726 346 688.5Q296 651 264.5 593.5Q233 536 218 465.5Q203 395 203 329Q203 199 252 126.5Q301 54 391 54ZM445 1030 521 822H465L295 1030Z" glyph-name="Ograve" horiz-adv-x="821" unicode="&#210;" /><glyph d="M741 1030 591 822H536L629 1030ZM573 1030 424 822H368L461 1030ZM383 -10Q309 -10 249.5 13.5Q190 37 148 81Q106 125 83.5 188Q61 251 61 330Q61 418 88 500.5Q115 583 167.5 647.5Q220 712 297 751Q374 790 475 790Q549 790 608.5 766.5Q668 743 710 699Q752 655 774.5 592Q797 529 797 450Q797 362 770 279.5Q743 197 690.5 132.5Q638 68 560.5 29Q483 -10 383 -10ZM391 54Q461 54 511.5 91.5Q562 129 593.5 186.5Q625 244 640 314.5Q655 385 655 451Q655 581 606 653.5Q557 726 467 726Q396 726 346 688.5Q296 651 264.5 593.5Q233 536 218 465.5Q203 395 203 329Q203 199 252 126.5Q301 54 391 54Z" glyph-name="Ohungarumlaut" horiz-adv-x="821" unicode="&#336;" /><glyph d="M383 -10Q309 -10 249.5 13.5Q190 37 148 81Q106 125 83.5 188Q61 251 61 330Q61 418 88 500.5Q115 583 167.5 647.5Q220 712 297 751Q374 790 475 790Q549 790 608.5 766.5Q668 743 710 699Q752 655 774.5 592Q797 529 797 450Q797 362 770 279.5Q743 197 690.5 132.5Q638 68 560.5 29Q483 -10 383 -10ZM391 54Q461 54 511.5 91.5Q562 129 593.5 186.5Q625 244 640 314.5Q655 385 655 451Q655 581 606 653.5Q557 726 467 726Q396 726 346 688.5Q296 651 264.5 593.5Q233 536 218 465.5Q203 395 203 329Q203 199 252 126.5Q301 54 391 54ZM363 936H640L631 866H354Z" glyph-name="Omacron" horiz-adv-x="821" unicode="&#332;" /><glyph d="M197 329Q197 262 211 206L614 628Q590 676 551.5 701Q513 726 461 726Q390 726 340 688.5Q290 651 258.5 593.5Q227 536 212 465.5Q197 395 197 329ZM385 54Q455 54 505.5 91.5Q556 129 587.5 186.5Q619 244 634 314.5Q649 385 649 451Q649 519 634 573L231 152Q255 104 293.5 79Q332 54 385 54ZM377 -10Q307 -10 251 10.5Q195 31 153 70L75 -11L37 24L118 109Q55 195 55 330Q55 418 82 500.5Q109 583 161.5 647.5Q214 712 291 751Q368 790 469 790Q538 790 594.5 769.5Q651 749 693 710L769 790L809 755L728 670Q758 628 774.5 572.5Q791 517 791 450Q791 362 764 279.5Q737 197 684.5 132.5Q632 68 554.5 29Q477 -10 377 -10Z" glyph-name="Oslash" horiz-adv-x="817" unicode="&#216;" /><glyph d="M383 -10Q309 -10 249.5 13.5Q190 37 148 81Q106 125 83.5 188Q61 251 61 330Q61 418 88 500.5Q115 583 167.5 647.5Q220 712 297 751Q374 790 475 790Q549 790 608.5 766.5Q668 743 710 699Q752 655 774.5 592Q797 529 797 450Q797 362 770 279.5Q743 197 690.5 132.5Q638 68 560.5 29Q483 -10 383 -10ZM391 54Q461 54 511.5 91.5Q562 129 593.5 186.5Q625 244 640 314.5Q655 385 655 451Q655 581 606 653.5Q557 726 467 726Q396 726 346 688.5Q296 651 264.5 593.5Q233 536 218 465.5Q203 395 203 329Q203 199 252 126.5Q301 54 391 54ZM712 990Q680 921 644.5 888Q609 855 561 855Q538 855 519 864.5Q500 874 483.5 885Q467 896 452 905.5Q437 915 421 915Q397 915 380.5 901Q364 887 344 857L297 865Q329 934 364.5 967.5Q400 1001 448 1001Q471 1001 490 991.5Q509 982 525.5 971Q542 960 557 950.5Q572 941 588 941Q612 941 628.5 954.5Q645 968 665 999Z" glyph-name="Otilde" horiz-adv-x="821" unicode="&#213;" /><glyph d="M302 379H409Q499 379 553.5 424Q608 469 608 566Q608 641 567.5 680.5Q527 720 435 720H344ZM276 163Q274 144 273 134Q272 124 272 115Q272 98 277.5 86.5Q283 75 297 67.5Q311 60 335 55.5Q359 51 396 49L390 0H16L22 49Q50 50 71 53.5Q92 57 106.5 65.5Q121 74 129.5 89Q138 104 141 128L203 640Q205 649 205.5 657Q206 665 206 670Q206 707 181 718Q156 729 105 731L111 780H460Q607 780 677.5 725Q748 670 748 572Q748 515 727.5 468.5Q707 422 669 389Q631 356 578 338Q525 320 459 320H295Z" glyph-name="P" horiz-adv-x="738" unicode="P" /><glyph d="M460 780Q607 780 677.5 725Q748 670 748 572Q748 515 727.5 469Q707 423 669.5 390Q632 357 579 339Q526 321 461 321Q421 321 394 327.5Q367 334 348 344L353 379H409Q499 379 553.5 424Q608 469 608 566Q608 641 567.5 680.5Q527 720 435 720H344L276 163Q274 144 273 134Q272 124 272 115Q272 98 277.5 86.5Q283 75 297 67.5Q311 60 335 55.5Q359 51 396 49L390 0H16L22 49Q50 50 71 53.5Q92 57 106.5 65.5Q121 74 129.5 89Q138 104 141 128L203 640Q205 649 205.5 657Q206 665 206 670Q206 707 181 718Q156 729 105 731L111 780Z" glyph-name="P.hist" horiz-adv-x="738" /><glyph d="M391 54Q461 54 511.5 91.5Q562 129 593.5 186.5Q625 244 640 314.5Q655 385 655 451Q655 581 606 653.5Q557 726 467 726Q396 726 346 688.5Q296 651 264.5 593.5Q233 536 218 465.5Q203 395 203 329Q203 199 252 126.5Q301 54 391 54ZM797 450Q797 372 775.5 298Q754 224 712.5 162.5Q671 101 609.5 58Q548 15 468 -1L630 -98Q665 -119 693 -131Q721 -143 756 -143H774V-181Q758 -192 725 -202.5Q692 -213 650 -213Q593 -213 548.5 -192.5Q504 -172 467 -136L329 -5Q267 2 217.5 28.5Q168 55 133 98Q98 141 79.5 199.5Q61 258 61 330Q61 418 88 500.5Q115 583 167.5 647.5Q220 712 297 751Q374 790 475 790Q549 790 608.5 766.5Q668 743 710 699Q752 655 774.5 592Q797 529 797 450Z" glyph-name="Q" horiz-adv-x="821" unicode="Q" /><glyph d="M391 54Q461 54 511.5 91.5Q562 129 593.5 186.5Q625 244 640 314.5Q655 385 655 451Q655 581 606 653.5Q557 726 467 726Q396 726 346 688.5Q296 651 264.5 593.5Q233 536 218 465.5Q203 395 203 329Q203 199 252 126.5Q301 54 391 54ZM377 -10Q368 -19 356 -28.5Q344 -38 330.5 -47Q317 -56 304 -63.5Q291 -71 281 -76Q314 -76 345 -85Q376 -94 407.5 -104.5Q439 -115 472 -123.5Q505 -132 544 -132Q594 -132 637.5 -120.5Q681 -109 730 -74L747 -107Q693 -173 634 -208Q575 -243 495 -243Q451 -243 411.5 -227.5Q372 -212 337 -193.5Q302 -175 271 -159.5Q240 -144 214 -144Q191 -144 172 -147.5Q153 -151 135 -158L116 -111Q140 -103 166.5 -90.5Q193 -78 219 -63.5Q245 -49 267.5 -33.5Q290 -18 306 -3Q249 8 203.5 35.5Q158 63 126.5 106Q95 149 78 205.5Q61 262 61 330Q61 418 88 500.5Q115 583 167.5 647.5Q220 712 297 751Q374 790 475 790Q549 790 608.5 766.5Q668 743 710 699Q752 655 774.5 592Q797 529 797 450Q797 363 770.5 280Q744 197 691.5 133Q639 69 560.5 29.5Q482 -10 377 -10Z" glyph-name="Q.hist" horiz-adv-x="821" /><glyph d="M274 148Q272 131 271.5 120.5Q271 110 271 105Q271 88 277.5 77.5Q284 67 296.5 61Q309 55 328 52.5Q347 50 372 49L366 0H16L22 49Q50 50 71 53.5Q92 57 106.5 65.5Q121 74 129.5 89Q138 104 141 128L203 640Q205 649 205.5 657Q206 665 206 670Q206 707 181 718Q156 729 105 731L111 780H465Q536 780 588 766.5Q640 753 673.5 728.5Q707 704 723.5 669Q740 634 740 592Q740 535 717 494Q694 453 658 425Q622 397 579 381.5Q536 366 496 362L645 155Q667 124 685.5 103.5Q704 83 722.5 71Q741 59 762 54Q783 49 811 49L805 0H613Q599 12 585.5 26.5Q572 41 558.5 58Q545 75 530 95.5Q515 116 498 141L357 348H298ZM345 720 306 405H398Q444 405 480.5 414.5Q517 424 542.5 445.5Q568 467 582 501Q596 535 596 583Q596 720 436 720Z" glyph-name="R" horiz-adv-x="835" unicode="R" /><glyph d="M702 1030 473 822H414L541 1030ZM274 148Q272 131 271.5 120.5Q271 110 271 105Q271 88 277.5 77.5Q284 67 296.5 61Q309 55 328 52.5Q347 50 372 49L366 0H16L22 49Q50 50 71 53.5Q92 57 106.5 65.5Q121 74 129.5 89Q138 104 141 128L203 640Q205 649 205.5 657Q206 665 206 670Q206 707 181 718Q156 729 105 731L111 780H465Q536 780 588 766.5Q640 753 673.5 728.5Q707 704 723.5 669Q740 634 740 592Q740 535 717 494Q694 453 658 425Q622 397 579 381.5Q536 366 496 362L645 155Q667 124 685.5 103.5Q704 83 722.5 71Q741 59 762 54Q783 49 811 49L805 0H613Q599 12 585.5 26.5Q572 41 558.5 58Q545 75 530 95.5Q515 116 498 141L357 348H298ZM345 720 306 405H398Q444 405 480.5 414.5Q517 424 542.5 445.5Q568 467 582 501Q596 535 596 583Q596 720 436 720Z" glyph-name="Racute" horiz-adv-x="835" unicode="&#340;" /><glyph d="M274 148Q272 131 271.5 120.5Q271 110 271 105Q271 88 277.5 77.5Q284 67 296.5 61Q309 55 328 52.5Q347 50 372 49L366 0H16L22 49Q50 50 71 53.5Q92 57 106.5 65.5Q121 74 129.5 89Q138 104 141 128L203 640Q205 649 205.5 657Q206 665 206 670Q206 707 181 718Q156 729 105 731L111 780H465Q536 780 588 766.5Q640 753 673.5 728.5Q707 704 723.5 669Q740 634 740 592Q740 535 717 494Q694 453 658 425Q622 397 579 381.5Q536 366 496 362L645 155Q667 124 685.5 103.5Q704 83 722.5 71Q741 59 762 54Q783 49 811 49L805 0H613Q599 12 585.5 26.5Q572 41 558.5 58Q545 75 530 95.5Q515 116 498 141L357 348H298ZM345 720 306 405H398Q444 405 480.5 414.5Q517 424 542.5 445.5Q568 467 582 501Q596 535 596 583Q596 720 436 720ZM300 1030H356L476 911L625 1030H682L506 822H424Z" glyph-name="Rcaron" horiz-adv-x="835" unicode="&#344;" /><glyph d="M274 148Q272 131 271.5 120.5Q271 110 271 105Q271 88 277.5 77.5Q284 67 296.5 61Q309 55 328 52.5Q347 50 372 49L366 0H16L22 49Q50 50 71 53.5Q92 57 106.5 65.5Q121 74 129.5 89Q138 104 141 128L203 640Q205 649 205.5 657Q206 665 206 670Q206 707 181 718Q156 729 105 731L111 780H465Q536 780 588 766.5Q640 753 673.5 728.5Q707 704 723.5 669Q740 634 740 592Q740 535 717 494Q694 453 658 425Q622 397 579 381.5Q536 366 496 362L645 155Q667 124 685.5 103.5Q704 83 722.5 71Q741 59 762 54Q783 49 811 49L805 0H613Q599 12 585.5 26.5Q572 41 558.5 58Q545 75 530 95.5Q515 116 498 141L357 348H298ZM345 720 306 405H398Q444 405 480.5 414.5Q517 424 542.5 445.5Q568 467 582 501Q596 535 596 583Q596 720 436 720ZM353 -163Q329 -158 316.5 -144.5Q304 -131 304 -106Q304 -80 321.5 -62.5Q339 -45 373 -45Q411 -45 433.5 -70Q456 -95 456 -136Q456 -186 420 -216.5Q384 -247 307 -249L313 -208Q393 -200 393 -163Z" glyph-name="Rcommaaccent" horiz-adv-x="835" unicode="&#342;" /><glyph d="M294 -10Q255 -10 217.5 -4Q180 2 147 12.5Q114 23 88 37Q62 51 45 66L59 251H111Q130 147 176 100Q222 53 308 53Q375 53 414.5 83Q454 113 454 177Q454 208 443.5 231.5Q433 255 412 275Q391 295 360 313Q329 331 288 352Q202 395 157 446Q112 497 112 574Q112 628 130.5 668.5Q149 709 182.5 736Q216 763 263 776.5Q310 790 366 790Q437 790 497 771.5Q557 753 597 722L578 558H529Q515 637 473.5 682.5Q432 728 348 728Q291 728 257.5 696.5Q224 665 224 612Q224 564 255.5 532Q287 500 359 465Q406 441 445.5 416.5Q485 392 513.5 363Q542 334 557.5 298Q573 262 573 216Q573 160 551 117.5Q529 75 491 46.5Q453 18 402 4Q351 -10 294 -10Z" glyph-name="S" horiz-adv-x="639" unicode="S" /><glyph d="M626 1030 397 822H338L465 1030ZM294 -10Q255 -10 217.5 -4Q180 2 147 12.5Q114 23 88 37Q62 51 45 66L59 251H111Q130 147 176 100Q222 53 308 53Q375 53 414.5 83Q454 113 454 177Q454 208 443.5 231.5Q433 255 412 275Q391 295 360 313Q329 331 288 352Q202 395 157 446Q112 497 112 574Q112 628 130.5 668.5Q149 709 182.5 736Q216 763 263 776.5Q310 790 366 790Q437 790 497 771.5Q557 753 597 722L578 558H529Q515 637 473.5 682.5Q432 728 348 728Q291 728 257.5 696.5Q224 665 224 612Q224 564 255.5 532Q287 500 359 465Q406 441 445.5 416.5Q485 392 513.5 363Q542 334 557.5 298Q573 262 573 216Q573 160 551 117.5Q529 75 491 46.5Q453 18 402 4Q351 -10 294 -10Z" glyph-name="Sacute" horiz-adv-x="639" unicode="&#346;" /><glyph d="M209 1030H265L385 911L534 1030H591L415 822H333ZM294 -10Q255 -10 217.5 -4Q180 2 147 12.5Q114 23 88 37Q62 51 45 66L59 251H111Q130 147 176 100Q222 53 308 53Q375 53 414.5 83Q454 113 454 177Q454 208 443.5 231.5Q433 255 412 275Q391 295 360 313Q329 331 288 352Q202 395 157 446Q112 497 112 574Q112 628 130.5 668.5Q149 709 182.5 736Q216 763 263 776.5Q310 790 366 790Q437 790 497 771.5Q557 753 597 722L578 558H529Q515 637 473.5 682.5Q432 728 348 728Q291 728 257.5 696.5Q224 665 224 612Q224 564 255.5 532Q287 500 359 465Q406 441 445.5 416.5Q485 392 513.5 363Q542 334 557.5 298Q573 262 573 216Q573 160 551 117.5Q529 75 491 46.5Q453 18 402 4Q351 -10 294 -10Z" glyph-name="Scaron" horiz-adv-x="639" unicode="&#352;" /><glyph d="M294 -10Q288 -10 282 -10Q276 -10 270 -9L253 -43Q301 -50 334.5 -74.5Q368 -99 368 -147Q368 -173 358.5 -192.5Q349 -212 333.5 -224.5Q318 -237 297 -243.5Q276 -250 254 -250Q222 -250 195 -239.5Q168 -229 153 -217L170 -186Q184 -194 205 -200.5Q226 -207 248 -207Q268 -207 283 -198.5Q298 -190 298 -167Q298 -151 288 -140.5Q278 -130 262 -123Q246 -116 226 -112Q206 -108 185 -106L236 -6Q174 1 123 20.5Q72 40 45 66L59 251H111Q130 147 176 100Q222 53 308 53Q375 53 414.5 83Q454 113 454 177Q454 208 443.5 231.5Q433 255 412 275Q391 295 360 313Q329 331 288 352Q202 395 157 446Q112 497 112 574Q112 628 130.5 668.5Q149 709 182.5 736Q216 763 263 776.5Q310 790 366 790Q437 790 497 771.5Q557 753 597 722L578 558H529Q515 637 473.5 682.5Q432 728 348 728Q291 728 257.5 696.5Q224 665 224 612Q224 564 255.5 532Q287 500 359 465Q406 441 445.5 416.5Q485 392 513.5 363Q542 334 557.5 298Q573 262 573 216Q573 160 551 117.5Q529 75 491 46.5Q453 18 402 4Q351 -10 294 -10Z" glyph-name="Scedilla" horiz-adv-x="639" unicode="&#350;" /><glyph d="M572 822H516L396 941L247 822H190L366 1030H448ZM294 -10Q255 -10 217.5 -4Q180 2 147 12.5Q114 23 88 37Q62 51 45 66L59 251H111Q130 147 176 100Q222 53 308 53Q375 53 414.5 83Q454 113 454 177Q454 208 443.5 231.5Q433 255 412 275Q391 295 360 313Q329 331 288 352Q202 395 157 446Q112 497 112 574Q112 628 130.5 668.5Q149 709 182.5 736Q216 763 263 776.5Q310 790 366 790Q437 790 497 771.5Q557 753 597 722L578 558H529Q515 637 473.5 682.5Q432 728 348 728Q291 728 257.5 696.5Q224 665 224 612Q224 564 255.5 532Q287 500 359 465Q406 441 445.5 416.5Q485 392 513.5 363Q542 334 557.5 298Q573 262 573 216Q573 160 551 117.5Q529 75 491 46.5Q453 18 402 4Q351 -10 294 -10Z" glyph-name="Scircumflex" horiz-adv-x="639" unicode="&#348;" /><glyph d="M294 -10Q255 -10 217.5 -4Q180 2 147 12.5Q114 23 88 37Q62 51 45 66L59 251H111Q130 147 176 100Q222 53 308 53Q375 53 414.5 83Q454 113 454 177Q454 208 443.5 231.5Q433 255 412 275Q391 295 360 313Q329 331 288 352Q202 395 157 446Q112 497 112 574Q112 628 130.5 668.5Q149 709 182.5 736Q216 763 263 776.5Q310 790 366 790Q437 790 497 771.5Q557 753 597 722L578 558H529Q515 637 473.5 682.5Q432 728 348 728Q291 728 257.5 696.5Q224 665 224 612Q224 564 255.5 532Q287 500 359 465Q406 441 445.5 416.5Q485 392 513.5 363Q542 334 557.5 298Q573 262 573 216Q573 160 551 117.5Q529 75 491 46.5Q453 18 402 4Q351 -10 294 -10ZM230 -163Q206 -158 193.5 -144.5Q181 -131 181 -106Q181 -80 198.5 -62.5Q216 -45 250 -45Q288 -45 310.5 -70Q333 -95 333 -136Q333 -186 297 -216.5Q261 -247 184 -249L190 -208Q270 -200 270 -163Z" glyph-name="Scommaaccent" horiz-adv-x="639" unicode="&#536;" /><glyph d="M324 723Q280 723 251.5 714Q223 705 200.5 685.5Q178 666 158 634.5Q138 603 112 558H61L105 780H797L786 558H739Q724 603 711.5 634.5Q699 666 682.5 685.5Q666 705 642 714Q618 723 578 723H510L439 146Q436 120 436 111Q436 92 442 80.5Q448 69 460.5 62.5Q473 56 493 53Q513 50 541 49L535 0H177L183 49Q211 50 233 53.5Q255 57 270 65.5Q285 74 294 89Q303 104 306 128L379 723Z" glyph-name="T" horiz-adv-x="771" unicode="T" /><glyph d="M324 723Q280 723 251.5 714Q223 705 200.5 685.5Q178 666 158 634.5Q138 603 112 558H61L105 780H797L786 558H739Q724 603 711.5 634.5Q699 666 682.5 685.5Q666 705 642 714Q618 723 578 723H510L472 414H632L625 356H465L439 146Q436 120 436 111Q436 92 442 80.5Q448 69 460.5 62.5Q473 56 493 53Q513 50 541 49L535 0H177L183 49Q211 50 233 53.5Q255 57 270 65.5Q285 74 294 89Q303 104 306 128L334 356H174L181 414H341L379 723Z" glyph-name="Tbar" horiz-adv-x="771" unicode="&#358;" /><glyph d="M324 723Q280 723 251.5 714Q223 705 200.5 685.5Q178 666 158 634.5Q138 603 112 558H61L105 780H797L786 558H739Q724 603 711.5 634.5Q699 666 682.5 685.5Q666 705 642 714Q618 723 578 723H510L439 146Q436 120 436 111Q436 92 442 80.5Q448 69 460.5 62.5Q473 56 493 53Q513 50 541 49L535 0H177L183 49Q211 50 233 53.5Q255 57 270 65.5Q285 74 294 89Q303 104 306 128L379 723ZM297 1030H353L473 911L622 1030H679L503 822H421Z" glyph-name="Tcaron" horiz-adv-x="771" unicode="&#356;" /><glyph d="M324 723Q280 723 251.5 714Q223 705 200.5 685.5Q178 666 158 634.5Q138 603 112 558H61L105 780H797L786 558H739Q724 603 711.5 634.5Q699 666 682.5 685.5Q666 705 642 714Q618 723 578 723H510L439 146Q436 120 436 111Q436 92 442 80.5Q448 69 460.5 62.5Q473 56 493 53Q513 50 541 49L535 0H177L183 49Q211 50 233 53.5Q255 57 270 65.5Q285 74 294 89Q303 104 306 128L379 723ZM318 -163Q294 -158 281.5 -144.5Q269 -131 269 -106Q269 -80 286.5 -62.5Q304 -45 338 -45Q376 -45 398.5 -70Q421 -95 421 -136Q421 -186 385 -216.5Q349 -247 272 -249L278 -208Q358 -200 358 -163Z" glyph-name="Tcommaaccent" horiz-adv-x="771" unicode="&#354;" /><glyph d="M277 170Q274 147 273 135.5Q272 124 272 115Q272 98 277.5 86.5Q283 75 297 67.5Q311 60 335 55.5Q359 51 396 49L390 0H16L22 49Q50 50 71 53.5Q92 57 106.5 65.5Q121 74 129.5 89Q138 104 141 128L203 640Q205 649 205.5 657Q206 665 206 670Q206 707 181 718Q156 729 105 731L111 780H461L455 731Q427 730 406 726.5Q385 723 370.5 714.5Q356 706 347.5 691Q339 676 336 652L333 624H441Q588 624 658.5 568.5Q729 513 729 416Q729 359 708.5 313.5Q688 268 650.5 236Q613 204 560 187Q507 170 441 170ZM284 228H391Q436 228 473 238.5Q510 249 536 271Q562 293 576 327.5Q590 362 590 410Q590 485 549.5 524.5Q509 564 417 564H325Z" glyph-name="Thorn" horiz-adv-x="738" unicode="&#222;" /><glyph d="M445 170Q407 170 378.5 176.5Q350 183 331 193L336 227H395Q439 227 474.5 237.5Q510 248 535.5 270Q561 292 575 327Q589 362 589 410Q589 485 547.5 524.5Q506 564 415 564H325L278 175Q274 141 273 130.5Q272 120 272 115Q272 98 277.5 86.5Q283 75 297 67.5Q311 60 335 55.5Q359 51 396 49L390 0H16L22 49Q50 50 71 53.5Q92 57 106.5 65.5Q121 74 129.5 89Q138 104 141 128L203 640Q205 649 205.5 657Q206 665 206 670Q206 707 181 718Q156 729 105 731L111 780H461L455 731Q427 730 406 726.5Q385 723 370.5 714.5Q356 706 347.5 691Q339 676 336 652L333 624H437Q587 624 658 569.5Q729 515 729 416Q729 360 709 314.5Q689 269 652.5 237Q616 205 563.5 187.5Q511 170 445 170Z" glyph-name="Thorn.hist" horiz-adv-x="738" /><glyph d="M171 640Q173 649 173.5 657Q174 665 174 670Q174 707 149 718Q124 729 73 731L79 780H429L423 731Q395 730 374 726.5Q353 723 338.5 714.5Q324 706 315.5 691Q307 676 304 652L263 315Q260 293 258.5 275.5Q257 258 257 240Q257 160 303.5 114Q350 68 435 68Q545 68 600.5 124Q656 180 670 296L712 640Q713 649 713.5 657Q714 665 714 670Q714 707 689.5 718Q665 729 614 731L619 780H913L907 731Q879 730 858 726.5Q837 723 822.5 714.5Q808 706 799.5 691Q791 676 788 652L742 274Q733 204 706 151Q679 98 636.5 62Q594 26 538.5 8Q483 -10 418 -10Q350 -10 296 5.5Q242 21 204 52Q166 83 145.5 128Q125 173 125 232Q125 249 126.5 267.5Q128 286 132 318Z" glyph-name="U" horiz-adv-x="854" unicode="U" /><glyph d="M171 640Q173 649 173.5 657Q174 665 174 670Q174 707 149 718Q124 729 73 731L79 780H429L423 731Q395 730 374 726.5Q353 723 338.5 714.5Q324 706 315.5 691Q307 676 304 652L263 315Q260 293 258.5 275.5Q257 258 257 240Q257 160 303.5 114Q350 68 435 68Q545 68 600.5 124Q656 180 670 296L712 640Q713 649 713.5 657Q714 665 714 670Q714 707 689.5 718Q665 729 614 731L619 780H913L907 731Q879 730 858 726.5Q837 723 822.5 714.5Q808 706 799.5 691Q791 676 788 652L742 274Q733 204 706 151Q679 98 636.5 62Q594 26 538.5 8Q483 -10 418 -10Q350 -10 296 5.5Q242 21 204 52Q166 83 145.5 128Q125 173 125 232Q125 249 126.5 267.5Q128 286 132 318ZM775 1030 546 822H487L614 1030Z" glyph-name="Uacute" horiz-adv-x="854" unicode="&#218;" /><glyph d="M171 640Q173 649 173.5 657Q174 665 174 670Q174 707 149 718Q124 729 73 731L79 780H429L423 731Q395 730 374 726.5Q353 723 338.5 714.5Q324 706 315.5 691Q307 676 304 652L263 315Q260 293 258.5 275.5Q257 258 257 240Q257 160 303.5 114Q350 68 435 68Q545 68 600.5 124Q656 180 670 296L712 640Q713 649 713.5 657Q714 665 714 670Q714 707 689.5 718Q665 729 614 731L619 780H913L907 731Q879 730 858 726.5Q837 723 822.5 714.5Q808 706 799.5 691Q791 676 788 652L742 274Q733 204 706 151Q679 98 636.5 62Q594 26 538.5 8Q483 -10 418 -10Q350 -10 296 5.5Q242 21 204 52Q166 83 145.5 128Q125 173 125 232Q125 249 126.5 267.5Q128 286 132 318ZM535 831Q453 831 416 870.5Q379 910 379 983Q379 1006 382 1030H429Q429 995 437.5 972Q446 949 461.5 934.5Q477 920 498 914Q519 908 544 908Q594 908 634 934.5Q674 961 691 1030H738Q726 935 678 883Q630 831 535 831Z" glyph-name="Ubreve" horiz-adv-x="854" unicode="&#364;" /><glyph d="M716 822H660L540 941L391 822H334L510 1030H592ZM171 640Q173 649 173.5 657Q174 665 174 670Q174 707 149 718Q124 729 73 731L79 780H429L423 731Q395 730 374 726.5Q353 723 338.5 714.5Q324 706 315.5 691Q307 676 304 652L263 315Q260 293 258.5 275.5Q257 258 257 240Q257 160 303.5 114Q350 68 435 68Q545 68 600.5 124Q656 180 670 296L712 640Q713 649 713.5 657Q714 665 714 670Q714 707 689.5 718Q665 729 614 731L619 780H913L907 731Q879 730 858 726.5Q837 723 822.5 714.5Q808 706 799.5 691Q791 676 788 652L742 274Q733 204 706 151Q679 98 636.5 62Q594 26 538.5 8Q483 -10 418 -10Q350 -10 296 5.5Q242 21 204 52Q166 83 145.5 128Q125 173 125 232Q125 249 126.5 267.5Q128 286 132 318Z" glyph-name="Ucircumflex" horiz-adv-x="854" unicode="&#219;" /><glyph d="M171 640Q173 649 173.5 657Q174 665 174 670Q174 707 149 718Q124 729 73 731L79 780H429L423 731Q395 730 374 726.5Q353 723 338.5 714.5Q324 706 315.5 691Q307 676 304 652L263 315Q260 293 258.5 275.5Q257 258 257 240Q257 160 303.5 114Q350 68 435 68Q545 68 600.5 124Q656 180 670 296L712 640Q713 649 713.5 657Q714 665 714 670Q714 707 689.5 718Q665 729 614 731L619 780H913L907 731Q879 730 858 726.5Q837 723 822.5 714.5Q808 706 799.5 691Q791 676 788 652L742 274Q733 204 706 151Q679 98 636.5 62Q594 26 538.5 8Q483 -10 418 -10Q350 -10 296 5.5Q242 21 204 52Q166 83 145.5 128Q125 173 125 232Q125 249 126.5 267.5Q128 286 132 318ZM638 851Q606 851 586.5 871.5Q567 892 567 922Q567 955 590 978.5Q613 1002 648 1002Q680 1002 699.5 981.5Q719 961 719 931Q719 898 696 874.5Q673 851 638 851ZM431 851Q399 851 379.5 871.5Q360 892 360 922Q360 955 383 978.5Q406 1002 441 1002Q473 1002 492.5 981.5Q512 961 512 931Q512 898 489 874.5Q466 851 431 851Z" glyph-name="Udieresis" horiz-adv-x="854" unicode="&#220;" /><glyph d="M171 640Q173 649 173.5 657Q174 665 174 670Q174 707 149 718Q124 729 73 731L79 780H429L423 731Q395 730 374 726.5Q353 723 338.5 714.5Q324 706 315.5 691Q307 676 304 652L263 315Q260 293 258.5 275.5Q257 258 257 240Q257 160 303.5 114Q350 68 435 68Q545 68 600.5 124Q656 180 670 296L712 640Q713 649 713.5 657Q714 665 714 670Q714 707 689.5 718Q665 729 614 731L619 780H913L907 731Q879 730 858 726.5Q837 723 822.5 714.5Q808 706 799.5 691Q791 676 788 652L742 274Q733 204 706 151Q679 98 636.5 62Q594 26 538.5 8Q483 -10 418 -10Q350 -10 296 5.5Q242 21 204 52Q166 83 145.5 128Q125 173 125 232Q125 249 126.5 267.5Q128 286 132 318ZM486 1030 562 822H506L336 1030Z" glyph-name="Ugrave" horiz-adv-x="854" unicode="&#217;" /><glyph d="M781 1030 631 822H576L669 1030ZM613 1030 464 822H408L501 1030ZM171 640Q173 649 173.5 657Q174 665 174 670Q174 707 149 718Q124 729 73 731L79 780H429L423 731Q395 730 374 726.5Q353 723 338.5 714.5Q324 706 315.5 691Q307 676 304 652L263 315Q260 293 258.5 275.5Q257 258 257 240Q257 160 303.5 114Q350 68 435 68Q545 68 600.5 124Q656 180 670 296L712 640Q713 649 713.5 657Q714 665 714 670Q714 707 689.5 718Q665 729 614 731L619 780H913L907 731Q879 730 858 726.5Q837 723 822.5 714.5Q808 706 799.5 691Q791 676 788 652L742 274Q733 204 706 151Q679 98 636.5 62Q594 26 538.5 8Q483 -10 418 -10Q350 -10 296 5.5Q242 21 204 52Q166 83 145.5 128Q125 173 125 232Q125 249 126.5 267.5Q128 286 132 318Z" glyph-name="Uhungarumlaut" horiz-adv-x="854" unicode="&#368;" /><glyph d="M171 640Q173 649 173.5 657Q174 665 174 670Q174 707 149 718Q124 729 73 731L79 780H429L423 731Q395 730 374 726.5Q353 723 338.5 714.5Q324 706 315.5 691Q307 676 304 652L263 315Q260 293 258.5 275.5Q257 258 257 240Q257 160 303.5 114Q350 68 435 68Q545 68 600.5 124Q656 180 670 296L712 640Q713 649 713.5 657Q714 665 714 670Q714 707 689.5 718Q665 729 614 731L619 780H913L907 731Q879 730 858 726.5Q837 723 822.5 714.5Q808 706 799.5 691Q791 676 788 652L742 274Q733 204 706 151Q679 98 636.5 62Q594 26 538.5 8Q483 -10 418 -10Q350 -10 296 5.5Q242 21 204 52Q166 83 145.5 128Q125 173 125 232Q125 249 126.5 267.5Q128 286 132 318ZM404 936H681L672 866H395Z" glyph-name="Umacron" horiz-adv-x="854" unicode="&#362;" /><glyph d="M712 640Q713 649 713.5 657Q714 665 714 670Q714 707 689.5 718Q665 729 614 731L619 780H913L907 731Q879 730 858 726.5Q837 723 822.5 714.5Q808 706 799.5 691Q791 676 788 652L742 274Q728 163 670 95Q612 27 522 3Q465 -18 429 -53Q393 -88 393 -133Q393 -159 409.5 -173Q426 -187 456 -187Q476 -187 491.5 -183Q507 -179 524 -171L531 -205Q508 -226 479 -238Q450 -250 413 -250Q368 -250 337 -228.5Q306 -207 306 -158Q306 -109 332 -73.5Q358 -38 407 -10Q275 -7 200 54.5Q125 116 125 232Q125 249 126.5 267.5Q128 286 132 318L171 640Q173 649 173.5 657Q174 665 174 670Q174 707 149 718Q124 729 73 731L79 780H429L423 731Q395 730 374 726.5Q353 723 338.5 714.5Q324 706 315.5 691Q307 676 304 652L263 315Q260 293 258.5 275.5Q257 258 257 240Q257 160 303.5 114Q350 68 435 68Q545 68 600.5 124Q656 180 670 296Z" glyph-name="Uogonek" horiz-adv-x="854" unicode="&#370;" /><glyph d="M656 942Q656 915 646 891Q636 867 618.5 849.5Q601 832 577 822Q553 812 525 812Q477 812 449.5 840Q422 868 422 910Q422 937 432 961Q442 985 459.5 1002.5Q477 1020 501 1030Q525 1040 553 1040Q601 1040 628.5 1012Q656 984 656 942ZM599 938Q599 961 586 975.5Q573 990 547 990Q515 990 497 968Q479 946 479 914Q479 891 492 876.5Q505 862 531 862Q563 862 581 884Q599 906 599 938ZM171 640Q173 649 173.5 657Q174 665 174 670Q174 707 149 718Q124 729 73 731L79 780H429L423 731Q395 730 374 726.5Q353 723 338.5 714.5Q324 706 315.5 691Q307 676 304 652L263 315Q260 293 258.5 275.5Q257 258 257 240Q257 160 303.5 114Q350 68 435 68Q545 68 600.5 124Q656 180 670 296L712 640Q713 649 713.5 657Q714 665 714 670Q714 707 689.5 718Q665 729 614 731L619 780H913L907 731Q879 730 858 726.5Q837 723 822.5 714.5Q808 706 799.5 691Q791 676 788 652L742 274Q733 204 706 151Q679 98 636.5 62Q594 26 538.5 8Q483 -10 418 -10Q350 -10 296 5.5Q242 21 204 52Q166 83 145.5 128Q125 173 125 232Q125 249 126.5 267.5Q128 286 132 318Z" glyph-name="Uring" horiz-adv-x="854" unicode="&#366;" /><glyph d="M171 640Q173 649 173.5 657Q174 665 174 670Q174 707 149 718Q124 729 73 731L79 780H429L423 731Q395 730 374 726.5Q353 723 338.5 714.5Q324 706 315.5 691Q307 676 304 652L263 315Q260 293 258.5 275.5Q257 258 257 240Q257 160 303.5 114Q350 68 435 68Q545 68 600.5 124Q656 180 670 296L712 640Q713 649 713.5 657Q714 665 714 670Q714 707 689.5 718Q665 729 614 731L619 780H913L907 731Q879 730 858 726.5Q837 723 822.5 714.5Q808 706 799.5 691Q791 676 788 652L742 274Q733 204 706 151Q679 98 636.5 62Q594 26 538.5 8Q483 -10 418 -10Q350 -10 296 5.5Q242 21 204 52Q166 83 145.5 128Q125 173 125 232Q125 249 126.5 267.5Q128 286 132 318ZM753 990Q721 921 685.5 888Q650 855 602 855Q579 855 560 864.5Q541 874 524.5 885Q508 896 493 905.5Q478 915 462 915Q438 915 421.5 901Q405 887 385 857L338 865Q370 934 405.5 967.5Q441 1001 489 1001Q512 1001 531 991.5Q550 982 566.5 971Q583 960 598 950.5Q613 941 629 941Q653 941 669.5 954.5Q686 968 706 999Z" glyph-name="Utilde" horiz-adv-x="854" unicode="&#360;" /><glyph d="M650 628Q660 648 665.5 662Q671 676 671 688Q671 711 651.5 720Q632 729 576 731L581 780H842L836 731Q812 727 793.5 720Q775 713 763 690L373 -9H332L135 690Q128 713 111.5 720Q95 727 71 731L77 780H391L385 731Q327 729 303 718.5Q279 708 279 682Q279 672 280.5 661.5Q282 651 287 636L407 184Z" glyph-name="V" horiz-adv-x="786" unicode="V" /><glyph d="M605 477 356 -9H311L135 690Q129 713 112 720Q95 727 71 731L77 780H389L383 731Q325 729 301 718.5Q277 708 277 682Q277 672 279 661Q281 650 284 636L393 191L583 566L551 690Q545 713 528 720Q511 727 488 731L493 780H803L797 731Q739 729 715 719Q691 709 691 682Q691 672 693 660.5Q695 649 699 634L806 191L1023 638Q1030 652 1034.5 663.5Q1039 675 1039 687Q1039 710 1020 719.5Q1001 729 945 731L951 780H1206L1200 731Q1175 727 1156.5 720Q1138 713 1127 690L776 -9H731Z" glyph-name="W" horiz-adv-x="1150" unicode="W" /><glyph d="M605 477 356 -9H311L135 690Q129 713 112 720Q95 727 71 731L77 780H389L383 731Q325 729 301 718.5Q277 708 277 682Q277 672 279 661Q281 650 284 636L393 191L583 566L551 690Q545 713 528 720Q511 727 488 731L493 780H803L797 731Q739 729 715 719Q691 709 691 682Q691 672 693 660.5Q695 649 699 634L806 191L1023 638Q1030 652 1034.5 663.5Q1039 675 1039 687Q1039 710 1020 719.5Q1001 729 945 731L951 780H1206L1200 731Q1175 727 1156.5 720Q1138 713 1127 690L776 -9H731ZM902 1030 673 822H614L741 1030Z" glyph-name="Wacute" horiz-adv-x="1150" unicode="&#7810;" /><glyph d="M840 822H784L664 941L515 822H458L634 1030H716ZM605 477 356 -9H311L135 690Q129 713 112 720Q95 727 71 731L77 780H389L383 731Q325 729 301 718.5Q277 708 277 682Q277 672 279 661Q281 650 284 636L393 191L583 566L551 690Q545 713 528 720Q511 727 488 731L493 780H803L797 731Q739 729 715 719Q691 709 691 682Q691 672 693 660.5Q695 649 699 634L806 191L1023 638Q1030 652 1034.5 663.5Q1039 675 1039 687Q1039 710 1020 719.5Q1001 729 945 731L951 780H1206L1200 731Q1175 727 1156.5 720Q1138 713 1127 690L776 -9H731Z" glyph-name="Wcircumflex" horiz-adv-x="1150" unicode="&#372;" /><glyph d="M755 851Q723 851 703.5 871.5Q684 892 684 922Q684 955 707 978.5Q730 1002 765 1002Q797 1002 816.5 981.5Q836 961 836 931Q836 898 813 874.5Q790 851 755 851ZM548 851Q516 851 496.5 871.5Q477 892 477 922Q477 955 500 978.5Q523 1002 558 1002Q590 1002 609.5 981.5Q629 961 629 931Q629 898 606 874.5Q583 851 548 851ZM673 1097Q641 1097 621.5 1117.5Q602 1138 602 1168Q602 1201 625 1224.5Q648 1248 683 1248Q715 1248 734.5 1227.5Q754 1207 754 1177Q754 1144 731 1120.5Q708 1097 673 1097ZM466 1097Q434 1097 414.5 1117.5Q395 1138 395 1168Q395 1201 418 1224.5Q441 1248 476 1248Q508 1248 527.5 1227.5Q547 1207 547 1177Q547 1144 524 1120.5Q501 1097 466 1097ZM605 477 356 -9H311L135 690Q129 713 112 720Q95 727 71 731L77 780H389L383 731Q325 729 301 718.5Q277 708 277 682Q277 672 279 661Q281 650 284 636L393 191L583 566L551 690Q545 713 528 720Q511 727 488 731L493 780H803L797 731Q739 729 715 719Q691 709 691 682Q691 672 693 660.5Q695 649 699 634L806 191L1023 638Q1030 652 1034.5 663.5Q1039 675 1039 687Q1039 710 1020 719.5Q1001 729 945 731L951 780H1206L1200 731Q1175 727 1156.5 720Q1138 713 1127 690L776 -9H731Z" glyph-name="Wdieresis" horiz-adv-x="1150" unicode="&#7812;" /><glyph d="M593 1030 669 822H613L443 1030ZM605 477 356 -9H311L135 690Q129 713 112 720Q95 727 71 731L77 780H389L383 731Q325 729 301 718.5Q277 708 277 682Q277 672 279 661Q281 650 284 636L393 191L583 566L551 690Q545 713 528 720Q511 727 488 731L493 780H803L797 731Q739 729 715 719Q691 709 691 682Q691 672 693 660.5Q695 649 699 634L806 191L1023 638Q1030 652 1034.5 663.5Q1039 675 1039 687Q1039 710 1020 719.5Q1001 729 945 731L951 780H1206L1200 731Q1175 727 1156.5 720Q1138 713 1127 690L776 -9H731Z" glyph-name="Wgrave" horiz-adv-x="1150" unicode="&#7808;" /><glyph d="M394 348 210 141Q196 125 185.5 110Q175 95 175 80Q175 72 178 66Q181 60 189.5 56.5Q198 53 214 51Q230 49 256 49L251 0H-23L-18 49Q44 49 90 101L359 403L182 679Q165 707 146 718.5Q127 730 97 731L103 780H436L430 731Q374 731 356 722.5Q338 714 338 695Q338 681 343.5 669Q349 657 360 640L466 472L610 637Q626 655 636 668.5Q646 682 646 697Q646 706 643.5 712Q641 718 632 722.5Q623 727 606 729Q589 731 561 731L568 780H842L835 731Q818 731 805.5 728.5Q793 726 781.5 720Q770 714 759 704Q748 694 735 679L501 417L702 101Q721 72 739 61Q757 50 787 49L782 0H453L459 49Q488 49 506 51Q524 53 533.5 57.5Q543 62 546.5 69Q550 76 550 85Q550 100 544 112Q538 124 528 140Z" glyph-name="X" horiz-adv-x="818" unicode="X" /><glyph d="M328 306 135 690Q124 712 109.5 719.5Q95 727 71 731L77 780H396L390 731Q331 729 309 719Q287 709 287 684Q287 663 300 635L430 376L630 638Q639 651 645.5 663.5Q652 676 652 690Q652 700 648.5 707.5Q645 715 635 720Q625 725 607 727.5Q589 730 561 731L567 780H828L822 731Q797 727 781 719.5Q765 712 749 690L456 307L436 146Q433 120 433 111Q433 92 439 80.5Q445 69 457.5 62.5Q470 56 490 53Q510 50 538 49L532 0H177L183 49Q211 50 232.5 53.5Q254 57 269.5 65.5Q285 74 294 89Q303 104 306 128Z" glyph-name="Y" horiz-adv-x="771" unicode="Y" /><glyph d="M747 1030 518 822H459L586 1030ZM328 306 135 690Q124 712 109.5 719.5Q95 727 71 731L77 780H396L390 731Q331 729 309 719Q287 709 287 684Q287 663 300 635L430 376L630 638Q639 651 645.5 663.5Q652 676 652 690Q652 700 648.5 707.5Q645 715 635 720Q625 725 607 727.5Q589 730 561 731L567 780H828L822 731Q797 727 781 719.5Q765 712 749 690L456 307L436 146Q433 120 433 111Q433 92 439 80.5Q445 69 457.5 62.5Q470 56 490 53Q510 50 538 49L532 0H177L183 49Q211 50 232.5 53.5Q254 57 269.5 65.5Q285 74 294 89Q303 104 306 128Z" glyph-name="Yacute" horiz-adv-x="771" unicode="&#221;" /><glyph d="M685 822H629L509 941L360 822H303L479 1030H561ZM328 306 135 690Q124 712 109.5 719.5Q95 727 71 731L77 780H396L390 731Q331 729 309 719Q287 709 287 684Q287 663 300 635L430 376L630 638Q639 651 645.5 663.5Q652 676 652 690Q652 700 648.5 707.5Q645 715 635 720Q625 725 607 727.5Q589 730 561 731L567 780H828L822 731Q797 727 781 719.5Q765 712 749 690L456 307L436 146Q433 120 433 111Q433 92 439 80.5Q445 69 457.5 62.5Q470 56 490 53Q510 50 538 49L532 0H177L183 49Q211 50 232.5 53.5Q254 57 269.5 65.5Q285 74 294 89Q303 104 306 128Z" glyph-name="Ycircumflex" horiz-adv-x="771" unicode="&#374;" /><glyph d="M600 851Q568 851 548.5 871.5Q529 892 529 922Q529 955 552 978.5Q575 1002 610 1002Q642 1002 661.5 981.5Q681 961 681 931Q681 898 658 874.5Q635 851 600 851ZM393 851Q361 851 341.5 871.5Q322 892 322 922Q322 955 345 978.5Q368 1002 403 1002Q435 1002 454.5 981.5Q474 961 474 931Q474 898 451 874.5Q428 851 393 851ZM328 306 135 690Q124 712 109.5 719.5Q95 727 71 731L77 780H396L390 731Q331 729 309 719Q287 709 287 684Q287 663 300 635L430 376L630 638Q639 651 645.5 663.5Q652 676 652 690Q652 700 648.5 707.5Q645 715 635 720Q625 725 607 727.5Q589 730 561 731L567 780H828L822 731Q797 727 781 719.5Q765 712 749 690L456 307L436 146Q433 120 433 111Q433 92 439 80.5Q445 69 457.5 62.5Q470 56 490 53Q510 50 538 49L532 0H177L183 49Q211 50 232.5 53.5Q254 57 269.5 65.5Q285 74 294 89Q303 104 306 128Z" glyph-name="Ydieresis" horiz-adv-x="771" unicode="&#376;" /><glyph d="M425 60Q459 60 483.5 66Q508 72 530.5 88.5Q553 105 578 134.5Q603 164 639 210H687L627 0H14L18 33L556 720H342Q309 720 284.5 712.5Q260 705 240 689Q220 673 202.5 647.5Q185 622 164 585H118L145 780H738L734 746L190 60Z" glyph-name="Z" horiz-adv-x="735" unicode="Z" /><glyph d="M680 1030 451 822H392L519 1030ZM425 60Q459 60 483.5 66Q508 72 530.5 88.5Q553 105 578 134.5Q603 164 639 210H687L627 0H14L18 33L556 720H342Q309 720 284.5 712.5Q260 705 240 689Q220 673 202.5 647.5Q185 622 164 585H118L145 780H738L734 746L190 60Z" glyph-name="Zacute" horiz-adv-x="735" unicode="&#377;" /><glyph d="M425 60Q459 60 483.5 66Q508 72 530.5 88.5Q553 105 578 134.5Q603 164 639 210H687L627 0H14L18 33L556 720H342Q309 720 284.5 712.5Q260 705 240 689Q220 673 202.5 647.5Q185 622 164 585H118L145 780H738L734 746L190 60ZM263 1030H319L439 911L588 1030H645L469 822H387Z" glyph-name="Zcaron" horiz-adv-x="735" unicode="&#381;" /><glyph d="M425 60Q459 60 483.5 66Q508 72 530.5 88.5Q553 105 578 134.5Q603 164 639 210H687L627 0H14L18 33L556 720H342Q309 720 284.5 712.5Q260 705 240 689Q220 673 202.5 647.5Q185 622 164 585H118L145 780H738L734 746L190 60ZM443 851Q411 851 391.5 871.5Q372 892 372 922Q372 955 395 978.5Q418 1002 452 1002Q484 1002 503.5 981.5Q523 961 523 931Q523 898 500.5 874.5Q478 851 443 851Z" glyph-name="Zdotaccent" horiz-adv-x="735" unicode="&#379;" /><glyph d="M380 72Q380 87 384 110Q388 133 394 159Q400 185 406.5 211.5Q413 238 418 261H414Q402 231 388 201.5Q374 172 346 129Q298 56 252 23Q206 -10 159 -10Q97 -10 67.5 35.5Q38 81 38 152Q38 230 65.5 301Q93 372 138.5 426Q184 480 244 512Q304 544 370 544Q414 544 442 529Q470 514 486 490L551 552H594L559 439Q547 392 536.5 340Q526 288 517.5 240Q509 192 504 153Q499 114 499 93Q499 65 521 65Q538 65 556.5 81.5Q575 98 601 129L634 103Q596 47 554.5 18.5Q513 -10 462 -10Q420 -10 400 12Q380 34 380 72ZM205 70Q234 70 264 98.5Q294 127 333 187Q354 219 372.5 256.5Q391 294 405 330.5Q419 367 428 400Q437 433 439 456Q419 491 371 491Q323 491 283 462Q243 433 215 387Q187 341 171 284.5Q155 228 155 173Q155 127 165.5 98.5Q176 70 205 70Z" glyph-name="a" horiz-adv-x="653" unicode="a" /><glyph d="M207 220H412L343 441ZM428 168H175L146 120Q138 106 134 96.5Q130 87 130 79Q130 62 146.5 54.5Q163 47 205 45L200 0H-15L-10 45Q13 47 26.5 54Q40 61 51 78L314 506L290 572H425L583 78Q588 61 601.5 54Q615 47 635 45L629 0H357L363 45Q407 46 428.5 55Q450 64 450 85Q450 98 442 124Z" glyph-name="a.smcp" horiz-adv-x="672" unicode="&#57857;" /><glyph d="M297 408Q297 420 299.5 435.5Q302 451 306 468Q310 485 314.5 502.5Q319 520 323 536H321Q312 515 302 494Q292 473 272 442Q211 345 141 345Q97 345 74.5 377Q52 409 52 462Q52 517 70.5 566.5Q89 616 121.5 653.5Q154 691 198 713.5Q242 736 293 736Q351 736 382 699L427 741H465L440 662Q431 629 423.5 593Q416 557 410.5 524Q405 491 401.5 464.5Q398 438 398 423Q398 404 412 404Q432 404 464 442L488 421Q458 383 427.5 364Q397 345 359 345Q327 345 312 362Q297 379 297 408ZM183 412Q204 412 224.5 433.5Q245 455 271 498Q284 520 296 545Q308 570 317 594Q326 618 332.5 639.5Q339 661 341 677Q327 696 295 696Q263 696 236 675Q209 654 190 622Q171 590 160.5 551Q150 512 150 475Q150 447 157 429.5Q164 412 183 412Z" glyph-name="a.superior" horiz-adv-x="473" unicode="&#58209;" /><glyph d="M297 408Q297 420 299.5 435.5Q302 451 306 468Q310 485 314.5 502.5Q319 520 323 536H321Q312 515 302 494Q292 473 272 442Q211 345 141 345Q97 345 74.5 377Q52 409 52 462Q52 517 70.5 566.5Q89 616 121.5 653.5Q154 691 198 713.5Q242 736 293 736Q351 736 382 699L427 741H465L440 662Q431 629 423.5 593Q416 557 410.5 524Q405 491 401.5 464.5Q398 438 398 423Q398 404 412 404Q432 404 464 442L488 421Q458 383 427.5 364Q397 345 359 345Q327 345 312 362Q297 379 297 408ZM183 412Q204 412 224.5 433.5Q245 455 271 498Q284 520 296 545Q308 570 317 594Q326 618 332.5 639.5Q339 661 341 677Q327 696 295 696Q263 696 236 675Q209 654 190 622Q171 590 160.5 551Q150 512 150 475Q150 447 157 429.5Q164 412 183 412Z" glyph-name="a.superiorschool" horiz-adv-x="473" /><glyph d="M621 800 392 592H333L460 800ZM380 72Q380 87 384 110Q388 133 394 159Q400 185 406.5 211.5Q413 238 418 261H414Q402 231 388 201.5Q374 172 346 129Q298 56 252 23Q206 -10 159 -10Q97 -10 67.5 35.5Q38 81 38 152Q38 230 65.5 301Q93 372 138.5 426Q184 480 244 512Q304 544 370 544Q414 544 442 529Q470 514 486 490L551 552H594L559 439Q547 392 536.5 340Q526 288 517.5 240Q509 192 504 153Q499 114 499 93Q499 65 521 65Q538 65 556.5 81.5Q575 98 601 129L634 103Q596 47 554.5 18.5Q513 -10 462 -10Q420 -10 400 12Q380 34 380 72ZM205 70Q234 70 264 98.5Q294 127 333 187Q354 219 372.5 256.5Q391 294 405 330.5Q419 367 428 400Q437 433 439 456Q419 491 371 491Q323 491 283 462Q243 433 215 387Q187 341 171 284.5Q155 228 155 173Q155 127 165.5 98.5Q176 70 205 70Z" glyph-name="aacute" horiz-adv-x="653" unicode="&#225;" /><glyph d="M207 220H412L343 441ZM625 822 396 614H337L464 822ZM428 168H175L146 120Q138 106 134 96.5Q130 87 130 79Q130 62 146.5 54.5Q163 47 205 45L200 0H-15L-10 45Q13 47 26.5 54Q40 61 51 78L314 506L290 572H425L583 78Q588 61 601.5 54Q615 47 635 45L629 0H357L363 45Q407 46 428.5 55Q450 64 450 85Q450 98 442 124Z" glyph-name="aacute.smcp" horiz-adv-x="672" unicode="&#57889;" /><glyph d="M376 601Q294 601 257 640.5Q220 680 220 753Q220 776 223 800H270Q270 765 278.5 742Q287 719 302.5 704.5Q318 690 339 684Q360 678 385 678Q435 678 475 704.5Q515 731 532 800H579Q567 705 519 653Q471 601 376 601ZM380 72Q380 87 384 110Q388 133 394 159Q400 185 406.5 211.5Q413 238 418 261H414Q402 231 388 201.5Q374 172 346 129Q298 56 252 23Q206 -10 159 -10Q97 -10 67.5 35.5Q38 81 38 152Q38 230 65.5 301Q93 372 138.5 426Q184 480 244 512Q304 544 370 544Q414 544 442 529Q470 514 486 490L551 552H594L559 439Q547 392 536.5 340Q526 288 517.5 240Q509 192 504 153Q499 114 499 93Q499 65 521 65Q538 65 556.5 81.5Q575 98 601 129L634 103Q596 47 554.5 18.5Q513 -10 462 -10Q420 -10 400 12Q380 34 380 72ZM205 70Q234 70 264 98.5Q294 127 333 187Q354 219 372.5 256.5Q391 294 405 330.5Q419 367 428 400Q437 433 439 456Q419 491 371 491Q323 491 283 462Q243 433 215 387Q187 341 171 284.5Q155 228 155 173Q155 127 165.5 98.5Q176 70 205 70Z" glyph-name="abreve" horiz-adv-x="653" unicode="&#259;" /><glyph d="M207 220H412L343 441ZM377 623Q295 623 258 662.5Q221 702 221 775Q221 798 224 822H271Q271 787 279.5 764Q288 741 303.5 726.5Q319 712 340 706Q361 700 386 700Q436 700 476 726.5Q516 753 533 822H580Q568 727 520 675Q472 623 377 623ZM428 168H175L146 120Q138 106 134 96.5Q130 87 130 79Q130 62 146.5 54.5Q163 47 205 45L200 0H-15L-10 45Q13 47 26.5 54Q40 61 51 78L314 506L290 572H425L583 78Q588 61 601.5 54Q615 47 635 45L629 0H357L363 45Q407 46 428.5 55Q450 64 450 85Q450 98 442 124Z" glyph-name="abreve.smcp" horiz-adv-x="672" unicode="&#57897;" /><glyph d="M558 592H502L382 711L233 592H176L352 800H434ZM380 72Q380 87 384 110Q388 133 394 159Q400 185 406.5 211.5Q413 238 418 261H414Q402 231 388 201.5Q374 172 346 129Q298 56 252 23Q206 -10 159 -10Q97 -10 67.5 35.5Q38 81 38 152Q38 230 65.5 301Q93 372 138.5 426Q184 480 244 512Q304 544 370 544Q414 544 442 529Q470 514 486 490L551 552H594L559 439Q547 392 536.5 340Q526 288 517.5 240Q509 192 504 153Q499 114 499 93Q499 65 521 65Q538 65 556.5 81.5Q575 98 601 129L634 103Q596 47 554.5 18.5Q513 -10 462 -10Q420 -10 400 12Q380 34 380 72ZM205 70Q234 70 264 98.5Q294 127 333 187Q354 219 372.5 256.5Q391 294 405 330.5Q419 367 428 400Q437 433 439 456Q419 491 371 491Q323 491 283 462Q243 433 215 387Q187 341 171 284.5Q155 228 155 173Q155 127 165.5 98.5Q176 70 205 70Z" glyph-name="acircumflex" horiz-adv-x="653" unicode="&#226;" /><glyph d="M207 220H412L343 441ZM562 614H506L386 733L237 614H180L356 822H438ZM428 168H175L146 120Q138 106 134 96.5Q130 87 130 79Q130 62 146.5 54.5Q163 47 205 45L200 0H-15L-10 45Q13 47 26.5 54Q40 61 51 78L314 506L290 572H425L583 78Q588 61 601.5 54Q615 47 635 45L629 0H357L363 45Q407 46 428.5 55Q450 64 450 85Q450 98 442 124Z" glyph-name="acircumflex.smcp" horiz-adv-x="672" unicode="&#57891;" /><glyph d="M444 800 215 592H156L283 800Z" glyph-name="acute" horiz-adv-x="600" unicode="&#180;" /><glyph d="M444 1030 215 822H156L283 1030Z" glyph-name="acute.cap" horiz-adv-x="600" unicode="&#58402;" /><glyph d="M483 622Q451 622 431.5 642.5Q412 663 412 693Q412 726 435 749.5Q458 773 493 773Q525 773 544.5 752.5Q564 732 564 702Q564 669 541 645.5Q518 622 483 622ZM276 622Q244 622 224.5 642.5Q205 663 205 693Q205 726 228 749.5Q251 773 286 773Q318 773 337.5 752.5Q357 732 357 702Q357 669 334 645.5Q311 622 276 622ZM380 72Q380 87 384 110Q388 133 394 159Q400 185 406.5 211.5Q413 238 418 261H414Q402 231 388 201.5Q374 172 346 129Q298 56 252 23Q206 -10 159 -10Q97 -10 67.5 35.5Q38 81 38 152Q38 230 65.5 301Q93 372 138.5 426Q184 480 244 512Q304 544 370 544Q414 544 442 529Q470 514 486 490L551 552H594L559 439Q547 392 536.5 340Q526 288 517.5 240Q509 192 504 153Q499 114 499 93Q499 65 521 65Q538 65 556.5 81.5Q575 98 601 129L634 103Q596 47 554.5 18.5Q513 -10 462 -10Q420 -10 400 12Q380 34 380 72ZM205 70Q234 70 264 98.5Q294 127 333 187Q354 219 372.5 256.5Q391 294 405 330.5Q419 367 428 400Q437 433 439 456Q419 491 371 491Q323 491 283 462Q243 433 215 387Q187 341 171 284.5Q155 228 155 173Q155 127 165.5 98.5Q176 70 205 70Z" glyph-name="adieresis" horiz-adv-x="653" unicode="&#228;" /><glyph d="M278 644Q246 644 226.5 664.5Q207 685 207 715Q207 748 230 771.5Q253 795 288 795Q320 795 339.5 774.5Q359 754 359 724Q359 691 336 667.5Q313 644 278 644ZM485 644Q453 644 433.5 664.5Q414 685 414 715Q414 748 437 771.5Q460 795 495 795Q527 795 546.5 774.5Q566 754 566 724Q566 691 543 667.5Q520 644 485 644ZM207 220H412L343 441ZM428 168H175L146 120Q138 106 134 96.5Q130 87 130 79Q130 62 146.5 54.5Q163 47 205 45L200 0H-15L-10 45Q13 47 26.5 54Q40 61 51 78L314 506L290 572H425L583 78Q588 61 601.5 54Q615 47 635 45L629 0H357L363 45Q407 46 428.5 55Q450 64 450 85Q450 98 442 124Z" glyph-name="adieresis.smcp" horiz-adv-x="672" unicode="&#57892;" /><glyph d="M644 489Q612 489 585 469.5Q558 450 537.5 417.5Q517 385 503.5 343.5Q490 302 485 258Q539 275 579 293Q619 311 646 331.5Q673 352 686 376Q699 400 699 429Q699 458 685.5 473.5Q672 489 644 489ZM205 70Q227 70 249 86Q271 102 292 126.5Q313 151 331.5 179.5Q350 208 365 233Q371 292 394.5 347.5Q418 403 458 447Q430 491 371 491Q323 491 283 462Q243 433 215 387Q187 341 171 284.5Q155 228 155 173Q155 127 165.5 98.5Q176 70 205 70ZM795 144Q757 69 697.5 29.5Q638 -10 557 -10Q469 -10 422 33.5Q375 77 365 154Q348 127 326.5 98Q305 69 279 45Q253 21 222.5 5.5Q192 -10 159 -10Q97 -10 67.5 35.5Q38 81 38 152Q38 230 65 301Q92 372 138 426Q184 480 244 512Q304 544 369 544Q420 544 451 526Q482 508 498 485Q533 513 574.5 528.5Q616 544 665 544Q731 544 768.5 516Q806 488 806 433Q806 383 774 348Q742 313 693.5 287.5Q645 262 588 244.5Q531 227 482 214V201Q482 131 510 97Q538 63 586 63Q643 63 682.5 92Q722 121 757 169Z" glyph-name="ae" horiz-adv-x="834" unicode="&#230;" /><glyph d="M387 495 216 229H411L389 495ZM129 79Q129 62 145.5 54.5Q162 47 204 45L198 0H-15L-10 45Q13 47 26.5 54.5Q40 62 51 78L324 504Q309 515 289.5 518Q270 521 241 523L246 568H884L868 414H826Q819 440 811 459Q803 478 791.5 490.5Q780 503 763 509Q746 515 721 515H512L527 317H659Q688 317 701 335.5Q714 354 725 391H768L743 190H700Q698 227 689.5 246Q681 265 653 265H531L543 101Q545 76 556.5 64.5Q568 53 597 53H665Q691 53 709.5 59Q728 65 745 79.5Q762 94 780 116.5Q798 139 822 172H868L819 0H318L322 45Q367 46 393.5 55Q420 64 420 93Q420 98 419.5 106.5Q419 115 418 128L414 177H183L142 113Q137 104 133 95.5Q129 87 129 79Z" glyph-name="ae.smcp" horiz-adv-x="928" unicode="&#57905;" /><glyph d="M156 368Q175 390 193.5 420.5Q212 451 226 486Q240 521 248.5 559Q257 597 257 636Q257 666 247.5 685.5Q238 705 215 705Q189 705 172.5 670Q156 635 156 549ZM225 -10Q155 -10 115.5 19Q76 48 76 111V205Q65 197 52.5 187.5Q40 178 27 170V251Q38 259 50 267.5Q62 276 75 287V508Q75 581 83.5 632Q92 683 109 715Q126 747 152 762Q178 777 214 777Q273 777 300 736Q327 695 327 627Q327 571 311 517.5Q295 464 270.5 416.5Q246 369 215.5 329.5Q185 290 156 262V144Q156 99 171 82Q186 65 225 65Q246 65 262 68.5Q278 72 289 77L299 1Q288 -4 267.5 -7Q247 -10 225 -10Z" glyph-name="afii61289" horiz-adv-x="364" unicode="&#8467;" /><glyph d="M327 800 403 592H347L177 800ZM380 72Q380 87 384 110Q388 133 394 159Q400 185 406.5 211.5Q413 238 418 261H414Q402 231 388 201.5Q374 172 346 129Q298 56 252 23Q206 -10 159 -10Q97 -10 67.5 35.5Q38 81 38 152Q38 230 65.5 301Q93 372 138.5 426Q184 480 244 512Q304 544 370 544Q414 544 442 529Q470 514 486 490L551 552H594L559 439Q547 392 536.5 340Q526 288 517.5 240Q509 192 504 153Q499 114 499 93Q499 65 521 65Q538 65 556.5 81.5Q575 98 601 129L634 103Q596 47 554.5 18.5Q513 -10 462 -10Q420 -10 400 12Q380 34 380 72ZM205 70Q234 70 264 98.5Q294 127 333 187Q354 219 372.5 256.5Q391 294 405 330.5Q419 367 428 400Q437 433 439 456Q419 491 371 491Q323 491 283 462Q243 433 215 387Q187 341 171 284.5Q155 228 155 173Q155 127 165.5 98.5Q176 70 205 70Z" glyph-name="agrave" horiz-adv-x="653" unicode="&#224;" /><glyph d="M331 822 407 614H351L181 822ZM207 220H412L343 441ZM428 168H175L146 120Q138 106 134 96.5Q130 87 130 79Q130 62 146.5 54.5Q163 47 205 45L200 0H-15L-10 45Q13 47 26.5 54Q40 61 51 78L314 506L290 572H425L583 78Q588 61 601.5 54Q615 47 635 45L629 0H357L363 45Q407 46 428.5 55Q450 64 450 85Q450 98 442 124Z" glyph-name="agrave.smcp" horiz-adv-x="672" unicode="&#57890;" /><glyph d="M258 -39Q328 -41 367.5 -70Q407 -99 407 -147Q407 -173 397.5 -192.5Q388 -212 372.5 -224.5Q357 -237 336 -243.5Q315 -250 293 -250Q261 -250 234 -239.5Q207 -229 192 -217L209 -186Q223 -194 244 -200.5Q265 -207 287 -207Q307 -207 322 -198.5Q337 -190 337 -167Q337 -151 327 -140.5Q317 -130 301 -123Q285 -116 265 -112Q245 -108 224 -106Z" glyph-name="altcedilla" horiz-adv-x="600" unicode="&#58390;" /><glyph d="M246 710H523L514 640H237ZM380 72Q380 87 384 110Q388 133 394 159Q400 185 406.5 211.5Q413 238 418 261H414Q402 231 388 201.5Q374 172 346 129Q298 56 252 23Q206 -10 159 -10Q97 -10 67.5 35.5Q38 81 38 152Q38 230 65.5 301Q93 372 138.5 426Q184 480 244 512Q304 544 370 544Q414 544 442 529Q470 514 486 490L551 552H594L559 439Q547 392 536.5 340Q526 288 517.5 240Q509 192 504 153Q499 114 499 93Q499 65 521 65Q538 65 556.5 81.5Q575 98 601 129L634 103Q596 47 554.5 18.5Q513 -10 462 -10Q420 -10 400 12Q380 34 380 72ZM205 70Q234 70 264 98.5Q294 127 333 187Q354 219 372.5 256.5Q391 294 405 330.5Q419 367 428 400Q437 433 439 456Q419 491 371 491Q323 491 283 462Q243 433 215 387Q187 341 171 284.5Q155 228 155 173Q155 127 165.5 98.5Q176 70 205 70Z" glyph-name="amacron" horiz-adv-x="653" unicode="&#257;" /><glyph d="M250 732H527L518 662H241ZM207 220H412L343 441ZM428 168H175L146 120Q138 106 134 96.5Q130 87 130 79Q130 62 146.5 54.5Q163 47 205 45L200 0H-15L-10 45Q13 47 26.5 54Q40 61 51 78L314 506L290 572H425L583 78Q588 61 601.5 54Q615 47 635 45L629 0H357L363 45Q407 46 428.5 55Q450 64 450 85Q450 98 442 124Z" glyph-name="amacron.smcp" horiz-adv-x="672" unicode="&#57896;" /><glyph d="M821 340Q794 340 770 348.5Q746 357 723 372Q738 353 744.5 331.5Q751 310 751 282Q751 234 732 182.5Q713 131 669.5 88.5Q626 46 554 18Q482 -10 376 -10Q292 -10 228 8Q164 26 120.5 58.5Q77 91 55 137Q33 183 33 239Q33 284 49.5 320.5Q66 357 93.5 385Q121 413 157.5 432.5Q194 452 235 464Q200 481 182 515Q164 549 164 590Q164 631 183.5 667.5Q203 704 237 731Q271 758 317.5 774Q364 790 418 790Q506 790 555 758.5Q604 727 604 671Q604 642 587 624.5Q570 607 547 600H482Q484 612 485 623Q486 634 486 645Q486 687 466.5 712.5Q447 738 399 738Q343 738 309.5 703Q276 668 276 616Q276 571 300.5 544Q325 517 377 510L368 473Q265 456 216.5 399.5Q168 343 168 264Q168 216 186.5 178.5Q205 141 237.5 115.5Q270 90 314.5 76.5Q359 63 412 63Q485 63 538 80.5Q591 98 625.5 128.5Q660 159 677 199Q694 239 694 284Q694 354 651 395Q608 436 537 436Q500 436 478.5 420.5Q457 405 457 379Q457 356 478 344Q499 332 558 331V303Q558 277 540 262Q522 247 493 247Q452 247 429.5 276Q407 305 407 353Q407 382 416.5 412.5Q426 443 446 468Q466 493 498 509Q530 525 574 525Q616 525 652.5 509.5Q689 494 722 475.5Q755 457 786 441.5Q817 426 847 426Q872 426 890 436.5Q908 447 908 473Q908 535 795 536V564Q795 590 812.5 605Q830 620 860 620Q901 620 930 588.5Q959 557 959 499Q959 429 924.5 384.5Q890 340 821 340Z" glyph-name="ampersand" horiz-adv-x="951" unicode="&amp;" /><glyph d="M652 318Q672 318 685.5 325Q699 332 699 350Q699 373 677.5 381Q656 389 607 390V411Q607 433 621.5 446Q636 459 662 459Q697 459 719 436.5Q741 414 741 369Q741 343 734 320Q727 297 713.5 279Q700 261 679.5 250.5Q659 240 632 240Q610 240 591.5 246.5Q573 253 554 264Q577 236 577 198Q577 156 560.5 118Q544 80 510 51.5Q476 23 423 6.5Q370 -10 297 -10Q231 -10 180.5 4Q130 18 96.5 43.5Q63 69 46 103Q29 137 29 178Q29 244 69.5 283Q110 322 179 336Q151 347 134 372Q117 397 117 432Q117 465 133 491.5Q149 518 176.5 537.5Q204 557 241.5 567.5Q279 578 322 578Q394 578 435 554.5Q476 531 476 487Q476 465 463.5 451.5Q451 438 433 432H372Q375 442 376 451Q377 460 377 469Q377 497 360.5 516Q344 535 304 535Q267 535 244 511.5Q221 488 221 450Q221 419 236.5 399.5Q252 380 293 375L284 343Q212 332 182.5 294.5Q153 257 153 203Q153 168 166 140Q179 112 202 92.5Q225 73 257 62Q289 51 327 51Q427 51 478 93.5Q529 136 529 203Q529 251 503 280.5Q477 310 420 310Q391 310 374.5 300.5Q358 291 358 272Q358 255 374.5 246Q391 237 439 237V214Q439 194 426 182.5Q413 171 389 171Q354 171 336 197.5Q318 224 318 260Q318 282 325.5 305Q333 328 349 347Q365 366 390 378Q415 390 450 390Q483 390 509.5 378.5Q536 367 560 353.5Q584 340 606 329Q628 318 652 318Z" glyph-name="ampersand.smcp" horiz-adv-x="739" unicode="&#58369;" /><glyph d="M89 355 324 831H398L164 351L281 -121H210Z" glyph-name="anglebracketleft" horiz-adv-x="373" unicode="&#12296;" /><glyph d="M93 385 328 861H401L167 381L284 -91H214Z" glyph-name="anglebracketleft.cap" horiz-adv-x="373" unicode="&#58519;" /><glyph d="M97 278 317 676H391L174 276L294 -120H223Z" glyph-name="anglebracketleft.smcp" horiz-adv-x="383" unicode="&#58527;" /><glyph d="M322 355 87 -121H13L247 359L130 831H201Z" glyph-name="anglebracketright" horiz-adv-x="373" unicode="&#12297;" /><glyph d="M318 385 83 -91H9L243 389L126 861H197Z" glyph-name="anglebracketright.cap" horiz-adv-x="373" unicode="&#58520;" /><glyph d="M305 278 84 -120H11L228 281L108 676H179Z" glyph-name="anglebracketright.smcp" horiz-adv-x="383" unicode="&#58512;" /><glyph d="M146 120Q138 106 134 96.5Q130 87 130 79Q130 62 146.5 54.5Q163 47 205 45L200 0H-15L-10 45Q13 47 26.5 54Q40 61 51 78L314 506L290 572H425L583 78Q588 61 601.5 54Q615 47 635 45L629 0H357L363 45Q407 46 428.5 55Q450 64 450 85Q450 98 442 124L343 441Z" glyph-name="anocross.smcp" horiz-adv-x="672" unicode="&#57888;" /><glyph d="M205 70Q234 70 264 98.5Q294 127 333 187Q354 219 372.5 256.5Q391 294 405 330.5Q419 367 428 400Q437 433 439 456Q419 491 371 491Q323 491 283 462Q243 433 215 387Q187 341 171 284.5Q155 228 155 173Q155 127 165.5 98.5Q176 70 205 70ZM380 72Q380 87 384 110Q388 133 394 159Q400 185 406.5 211.5Q413 238 418 261H414Q402 231 388 201.5Q374 172 346 129Q298 56 252 23Q206 -10 159 -10Q97 -10 67.5 35.5Q38 81 38 152Q38 230 65.5 301Q93 372 138.5 426Q184 480 244 512Q304 544 370 544Q414 544 442 529Q470 514 486 490L551 552H594L559 439Q547 392 536.5 340Q526 288 517.5 240Q509 192 504 153Q499 114 499 93Q499 79 502.5 74Q506 69 514 69Q528 69 547.5 83Q567 97 594 123L626 93Q594 65 559.5 35.5Q525 6 495.5 -23Q466 -52 447 -81Q428 -110 428 -137Q428 -187 490 -187Q510 -187 525.5 -183Q541 -179 558 -171L565 -205Q542 -226 513 -238Q484 -250 447 -250Q402 -250 370.5 -228.5Q339 -207 339 -158Q339 -135 348 -113Q357 -91 372 -71Q387 -51 405.5 -33.5Q424 -16 442 -2Q412 3 396 22.5Q380 42 380 72Z" glyph-name="aogonek" horiz-adv-x="653" unicode="&#261;" /><glyph d="M207 220H412L343 441ZM428 168H175L146 120Q138 106 134 96.5Q130 87 130 79Q130 62 146.5 54.5Q163 47 205 45L200 0H-15L-10 45Q13 47 26.5 54Q40 61 51 78L314 506L290 572H425L583 78Q588 61 601.5 54Q615 47 635 45L629 0Q566 -23 529 -57.5Q492 -92 492 -135Q492 -160 508.5 -173.5Q525 -187 554 -187Q575 -187 590.5 -183Q606 -179 623 -171L629 -205Q606 -226 577 -238Q548 -250 512 -250Q466 -250 435 -228.5Q404 -207 404 -158Q404 -104 437.5 -66Q471 -28 529 0H357L363 45Q407 46 428.5 55Q450 64 450 85Q450 98 442 124Z" glyph-name="aogonek.smcp" horiz-adv-x="672" unicode="&#57903;" /><glyph d="M60 218Q76 236 100 250Q120 262 149.5 272Q179 282 220 282Q263 282 294.5 271Q326 260 353.5 246.5Q381 233 409.5 222Q438 211 476 211Q505 211 527 219Q549 227 564.5 236.5Q580 246 588 254Q596 262 596 262L622 205Q606 187 582 173Q562 161 532 151Q502 141 462 141Q418 141 387.5 152Q357 163 329.5 176.5Q302 190 273.5 201Q245 212 206 212Q177 212 155 204Q133 196 117.5 187Q102 178 94 170Q86 162 86 162ZM80 381Q96 398 119 412Q139 424 168.5 434Q198 444 239 444Q283 444 314 433Q345 422 372.5 409Q400 396 428.5 385Q457 374 496 374Q525 374 547.5 381.5Q570 389 585 398.5Q600 408 608 416Q616 424 616 424L642 367Q626 349 602 335Q582 323 552 313Q522 303 482 303Q438 303 407.5 314Q377 325 349.5 338.5Q322 352 293.5 363Q265 374 226 374Q197 374 175 366Q153 358 137.5 349Q122 340 114 332Q106 324 106 324Z" glyph-name="approxequal" horiz-adv-x="700" unicode="&#8776;" /><glyph d="M67 316Q83 334 107 348Q127 360 156.5 370Q186 380 227 380Q270 380 301.5 369Q333 358 360.5 344.5Q388 331 416.5 320Q445 309 483 309Q512 309 534 317Q556 325 571.5 334.5Q587 344 595 352Q603 360 603 360L629 303Q613 285 589 271Q569 259 539 249Q509 239 469 239Q425 239 394.5 250Q364 261 336.5 274.5Q309 288 280.5 299Q252 310 213 310Q184 310 162 302Q140 294 124.5 285Q109 276 101 268Q93 260 93 260ZM87 479Q103 496 126 510Q146 522 175.5 532Q205 542 246 542Q290 542 321 531Q352 520 379.5 507Q407 494 435.5 483Q464 472 503 472Q532 472 554.5 479.5Q577 487 592 496.5Q607 506 615 514Q623 522 623 522L649 465Q633 447 609 433Q589 421 559 411Q529 401 489 401Q445 401 414.5 412Q384 423 356.5 436.5Q329 450 300.5 461Q272 472 233 472Q204 472 182 464Q160 456 144.5 447Q129 438 121 430Q113 422 113 422Z" glyph-name="approxequal.cap" horiz-adv-x="700" unicode="&#61990;" /><glyph d="M499 713Q499 686 489 662Q479 638 461.5 620.5Q444 603 420 593Q396 583 368 583Q320 583 292.5 611.5Q265 640 265 682Q265 709 275 732.5Q285 756 302.5 773.5Q320 791 344 801Q368 811 396 811Q444 811 471.5 783Q499 755 499 713ZM442 709Q442 732 429 747Q416 762 390 762Q358 762 340 739.5Q322 717 322 685Q322 662 335 647.5Q348 633 374 633Q406 633 424 655Q442 677 442 709ZM380 72Q380 87 384 110Q388 133 394 159Q400 185 406.5 211.5Q413 238 418 261H414Q402 231 388 201.5Q374 172 346 129Q298 56 252 23Q206 -10 159 -10Q97 -10 67.5 35.5Q38 81 38 152Q38 230 65.5 301Q93 372 138.5 426Q184 480 244 512Q304 544 370 544Q414 544 442 529Q470 514 486 490L551 552H594L559 439Q547 392 536.5 340Q526 288 517.5 240Q509 192 504 153Q499 114 499 93Q499 65 521 65Q538 65 556.5 81.5Q575 98 601 129L634 103Q596 47 554.5 18.5Q513 -10 462 -10Q420 -10 400 12Q380 34 380 72ZM205 70Q234 70 264 98.5Q294 127 333 187Q354 219 372.5 256.5Q391 294 405 330.5Q419 367 428 400Q437 433 439 456Q419 491 371 491Q323 491 283 462Q243 433 215 387Q187 341 171 284.5Q155 228 155 173Q155 127 165.5 98.5Q176 70 205 70Z" glyph-name="aring" horiz-adv-x="653" unicode="&#229;" /><glyph d="M446 731Q446 754 433 769Q420 784 394 784Q362 784 344 761.5Q326 739 326 707Q326 684 339 669.5Q352 655 378 655Q410 655 428 677Q446 699 446 731ZM207 220H412L343 441ZM503 735Q503 708 493 684Q483 660 465.5 642.5Q448 625 424 615Q400 605 372 605Q324 605 296.5 633.5Q269 662 269 704Q269 731 279 754.5Q289 778 306.5 795.5Q324 813 348 823Q372 833 400 833Q448 833 475.5 805Q503 777 503 735ZM428 168H175L146 120Q138 106 134 96.5Q130 87 130 79Q130 62 146.5 54.5Q163 47 205 45L200 0H-15L-10 45Q13 47 26.5 54Q40 61 51 78L314 506L290 572H425L583 78Q588 61 601.5 54Q615 47 635 45L629 0H357L363 45Q407 46 428.5 55Q450 64 450 85Q450 98 442 124Z" glyph-name="aring.smcp" horiz-adv-x="672" unicode="&#57894;" /><glyph d="M141 401H193L409 168V780H451V168L667 401H719L436 -10H424Z" glyph-name="arrowdown" horiz-adv-x="860" unicode="&#8595;" /><glyph d="M41 384V396L452 679V627L219 411H831V369H219L452 153V101Z" glyph-name="arrowleft" horiz-adv-x="860" unicode="&#8592;" /><glyph d="M420 101V153L653 369H41V411H653L420 627V679L831 396V384Z" glyph-name="arrowright" horiz-adv-x="860" unicode="&#8594;" /><glyph d="M424 790H436L719 379H667L451 612V0H409V612L193 379H141Z" glyph-name="arrowup" horiz-adv-x="860" unicode="&#8593;" /><glyph d="M108 400H30L262 790H344L482 400H405L294 718Z" glyph-name="asciicircum" horiz-adv-x="489" unicode="^" /><glyph d="M42 275Q65 345 100 384Q135 423 186 423Q216 423 243.5 413.5Q271 404 296.5 392.5Q322 381 345 371.5Q368 362 390 362Q415 362 429.5 375.5Q444 389 461 421H510Q487 350 452 311.5Q417 273 366 273Q336 273 308.5 282.5Q281 292 255.5 303.5Q230 315 207 324.5Q184 334 162 334Q137 334 123 320.5Q109 307 91 275Z" glyph-name="asciitilde" horiz-adv-x="553" unicode="~" /><glyph d="M132 468 96 508 189 603 79 678 106 723 225 664 263 792 315 781 296 649 428 653 433 600 302 578 347 453 298 432 236 550Z" glyph-name="asterisk" horiz-adv-x="412" unicode="*" /><glyph d="M759 73Q804 73 844 93.5Q884 114 914 153Q944 192 961.5 247.5Q979 303 979 373Q979 451 954 517.5Q929 584 881 632Q833 680 762.5 707.5Q692 735 601 735Q503 735 420.5 696Q338 657 277 589.5Q216 522 182 430.5Q148 339 148 234Q148 142 181.5 65Q215 -12 274 -68.5Q333 -125 414 -156.5Q495 -188 590 -188Q683 -188 760 -167Q837 -146 917 -100L937 -137Q874 -188 780.5 -219Q687 -250 578 -250Q466 -250 371 -215.5Q276 -181 207 -117.5Q138 -54 99 35.5Q60 125 60 235Q60 350 101 451.5Q142 553 215 628Q288 703 386.5 746.5Q485 790 601 790Q707 790 792.5 758.5Q878 727 937 671Q996 615 1028 538.5Q1060 462 1060 373Q1060 287 1034 221Q1008 155 962 109Q916 63 853.5 39.5Q791 16 718 16Q670 16 649.5 36Q629 56 629 91Q629 105 633 126Q637 147 642.5 171Q648 195 654 219.5Q660 244 665 264H661Q650 237 636.5 209.5Q623 182 597 143Q551 76 507.5 46Q464 16 419 16Q362 16 333 57Q304 98 304 164Q304 236 330 301Q356 366 399.5 415.5Q443 465 500.5 494.5Q558 524 620 524Q661 524 688 510.5Q715 497 729 474L790 531H831L797 428Q786 385 775.5 335Q765 285 756.5 238.5Q748 192 743 154.5Q738 117 738 98Q738 73 759 73ZM462 89Q490 89 518 114.5Q546 140 584 196Q604 226 621.5 260Q639 294 652.5 328Q666 362 674.5 392.5Q683 423 685 444Q666 475 620 475Q574 475 536 448Q498 421 471 379Q444 337 429.5 285Q415 233 415 183Q415 141 425 115Q435 89 462 89Z" glyph-name="at" horiz-adv-x="1120" unicode="@" /><glyph d="M779 182Q824 182 864 202.5Q904 223 934 262Q964 301 981.5 357Q999 413 999 483Q999 561 974.5 627Q950 693 902 741.5Q854 790 783.5 817.5Q713 845 622 845Q524 845 441.5 806Q359 767 298 699.5Q237 632 203 540.5Q169 449 169 344Q169 252 202.5 174.5Q236 97 295 41Q354 -15 434.5 -46.5Q515 -78 610 -78Q703 -78 780 -57.5Q857 -37 937 10L957 -28Q895 -79 801 -110Q707 -141 598 -141Q486 -141 391 -106.5Q296 -72 227 -8.5Q158 55 119 144.5Q80 234 80 345Q80 422 99 493Q118 564 152.5 625.5Q187 687 235.5 737.5Q284 788 344.5 824Q405 860 475 879.5Q545 899 622 899Q728 899 813 867.5Q898 836 957.5 780.5Q1017 725 1049 648.5Q1081 572 1081 483Q1081 397 1054.5 330.5Q1028 264 982 218Q936 172 873.5 148.5Q811 125 738 125Q690 125 670 145Q650 165 650 200Q650 214 653.5 235Q657 256 662.5 280Q668 304 674 328.5Q680 353 685 373H681Q670 346 657 319Q644 292 617 252Q571 186 527.5 155.5Q484 125 440 125Q382 125 353.5 166.5Q325 208 325 274Q325 346 351 411Q377 476 420.5 525.5Q464 575 521 604Q578 633 640 633Q682 633 708.5 619.5Q735 606 749 584L810 640H851L818 537Q807 494 796 444Q785 394 776.5 347.5Q768 301 763 263.5Q758 226 758 207Q758 182 779 182ZM482 198Q511 198 539 224Q567 250 605 305Q625 335 642.5 369.5Q660 404 673 437.5Q686 471 694.5 501.5Q703 532 705 553Q686 584 640 584Q594 584 556.5 557Q519 530 492 488Q465 446 450 394.5Q435 343 435 293Q435 250 445 224Q455 198 482 198Z" glyph-name="at.cap" horiz-adv-x="1120" unicode="&#58643;" /><glyph d="M757 77Q802 77 842 97.5Q882 118 912 157Q942 196 959.5 252Q977 308 977 378Q977 456 952.5 522Q928 588 880 636.5Q832 685 761.5 712.5Q691 740 600 740Q502 740 419.5 701Q337 662 276 594.5Q215 527 181 435.5Q147 344 147 239Q147 147 180.5 69.5Q214 -8 273 -64Q332 -120 412.5 -151.5Q493 -183 588 -183Q681 -183 758 -162.5Q835 -142 915 -95L935 -133Q873 -184 779 -215Q685 -246 576 -246Q464 -246 369 -211.5Q274 -177 205 -113.5Q136 -50 97 39.5Q58 129 58 240Q58 317 77 388Q96 459 130.5 520.5Q165 582 213.5 632.5Q262 683 322.5 719Q383 755 453 774.5Q523 794 600 794Q706 794 791 762.5Q876 731 935.5 675.5Q995 620 1027 543.5Q1059 467 1059 378Q1059 292 1032.5 225.5Q1006 159 960 113Q914 67 851.5 43.5Q789 20 716 20Q668 20 648 40Q628 60 628 95Q628 109 631.5 130Q635 151 640.5 175Q646 199 652 223.5Q658 248 663 268H659Q648 241 635 214Q622 187 595 147Q549 81 505.5 50.5Q462 20 418 20Q360 20 331.5 61.5Q303 103 303 169Q303 241 329 306Q355 371 398.5 420.5Q442 470 499 499Q556 528 618 528Q660 528 686.5 514.5Q713 501 727 479L788 535H829L796 432Q785 389 774 339Q763 289 754.5 242.5Q746 196 741 158.5Q736 121 736 102Q736 77 757 77ZM460 93Q489 93 517 119Q545 145 583 200Q603 230 620.5 264.5Q638 299 651 332.5Q664 366 672.5 396.5Q681 427 683 448Q664 479 618 479Q572 479 534.5 452Q497 425 470 383Q443 341 428 289.5Q413 238 413 188Q413 145 423 119Q433 93 460 93Z" glyph-name="at.smcp" horiz-adv-x="1120" unicode="&#62987;" /><glyph d="M590 746Q558 677 522.5 643.5Q487 610 439 610Q416 610 397 619.5Q378 629 361.5 640Q345 651 330 660.5Q315 670 299 670Q275 670 258.5 656.5Q242 643 222 612L175 621Q207 690 242.5 723Q278 756 326 756Q349 756 368 746.5Q387 737 403.5 726Q420 715 435 705.5Q450 696 466 696Q490 696 506.5 710Q523 724 543 754ZM380 72Q380 87 384 110Q388 133 394 159Q400 185 406.5 211.5Q413 238 418 261H414Q402 231 388 201.5Q374 172 346 129Q298 56 252 23Q206 -10 159 -10Q97 -10 67.5 35.5Q38 81 38 152Q38 230 65.5 301Q93 372 138.5 426Q184 480 244 512Q304 544 370 544Q414 544 442 529Q470 514 486 490L551 552H594L559 439Q547 392 536.5 340Q526 288 517.5 240Q509 192 504 153Q499 114 499 93Q499 65 521 65Q538 65 556.5 81.5Q575 98 601 129L634 103Q596 47 554.5 18.5Q513 -10 462 -10Q420 -10 400 12Q380 34 380 72ZM205 70Q234 70 264 98.5Q294 127 333 187Q354 219 372.5 256.5Q391 294 405 330.5Q419 367 428 400Q437 433 439 456Q419 491 371 491Q323 491 283 462Q243 433 215 387Q187 341 171 284.5Q155 228 155 173Q155 127 165.5 98.5Q176 70 205 70Z" glyph-name="atilde" horiz-adv-x="653" unicode="&#227;" /><glyph d="M207 220H412L343 441ZM593 768Q561 699 525.5 665.5Q490 632 442 632Q419 632 400 641.5Q381 651 364.5 662Q348 673 333 682.5Q318 692 302 692Q278 692 261.5 678.5Q245 665 225 634L178 643Q210 712 245.5 745Q281 778 329 778Q352 778 371 768.5Q390 759 406.5 748Q423 737 438 727.5Q453 718 469 718Q493 718 509.5 732Q526 746 546 776ZM428 168H175L146 120Q138 106 134 96.5Q130 87 130 79Q130 62 146.5 54.5Q163 47 205 45L200 0H-15L-10 45Q13 47 26.5 54Q40 61 51 78L314 506L290 572H425L583 78Q588 61 601.5 54Q615 47 635 45L629 0H357L363 45Q407 46 428.5 55Q450 64 450 85Q450 98 442 124Z" glyph-name="atilde.smcp" horiz-adv-x="672" unicode="&#57893;" /><glyph d="M82 740 87 764 253 810H290Q281 741 267 664Q253 587 237.5 512Q222 437 205.5 370Q189 303 175 255H179Q208 318 242 371Q276 424 313.5 462.5Q351 501 392.5 522.5Q434 544 478 544Q509 544 531 532.5Q553 521 566.5 500.5Q580 480 586 453Q592 426 592 396Q592 321 565 248Q538 175 490.5 117.5Q443 60 379.5 25Q316 -10 243 -10Q168 -10 115.5 19Q63 48 45 96Q60 173 77 261Q94 349 109 432Q124 515 135.5 585.5Q147 656 152 698ZM418 465Q397 465 370.5 446Q344 427 316.5 396Q289 365 262.5 327Q236 289 215 250.5Q194 212 181.5 177.5Q169 143 169 120Q169 85 187 64.5Q205 44 249 44Q301 44 341 78.5Q381 113 408.5 164Q436 215 450.5 272.5Q465 330 465 377Q465 421 455 443Q445 465 418 465Z" glyph-name="b" horiz-adv-x="626" unicode="b" /><glyph d="M419 568Q510 568 561 534.5Q612 501 612 435Q612 400 598 374.5Q584 349 559.5 331.5Q535 314 502.5 304.5Q470 295 433 292Q522 288 567.5 254Q613 220 613 162Q613 120 594 89.5Q575 59 542.5 39Q510 19 466.5 9.5Q423 0 373 0H21L27 45Q75 47 99 60Q123 73 128 113L168 429Q169 441 170.5 453Q172 465 172 473Q172 500 149.5 510.5Q127 521 85 523L91 568ZM300 515 275 316H339Q406 316 443.5 341.5Q481 367 481 430Q481 515 374 515ZM254 141Q252 125 250.5 112Q249 99 249 93Q249 70 265.5 61Q282 52 311 52H350Q407 52 442.5 79.5Q478 107 478 166Q478 216 448.5 240.5Q419 265 352 265H269Z" glyph-name="b.smcp" horiz-adv-x="676" unicode="&#57858;" /><glyph d="M248 919Q230 795 208.5 697Q187 599 165 536H168Q216 633 266 684.5Q316 736 374 736Q419 736 440 704.5Q461 673 461 627Q461 573 441.5 522.5Q422 472 388.5 432.5Q355 393 309 369Q263 345 210 345Q153 345 114.5 365Q76 385 59 419Q69 473 81 533.5Q93 594 103.5 651Q114 708 122.5 757Q131 806 134 836L87 867L90 888L219 919ZM324 671Q303 671 275 643Q247 615 221.5 576.5Q196 538 178 498Q160 458 160 434Q160 411 171.5 397.5Q183 384 210 384Q242 384 268.5 407.5Q295 431 314 465.5Q333 500 343.5 540Q354 580 354 614Q354 643 347.5 657Q341 671 324 671Z" glyph-name="b.superior" horiz-adv-x="456" unicode="&#58210;" /><glyph d="M107 830H175L347 -121H279Z" glyph-name="backslash" horiz-adv-x="394" unicode="\" /><glyph d="M102 861H170L343 -90H275Z" glyph-name="backslash.cap" horiz-adv-x="394" unicode="&#58466;" /><glyph d="M78 686H146L329 -121H261Z" glyph-name="backslash.smcp" horiz-adv-x="394" unicode="&#58472;" /><glyph d="M310 265 180 394 226 440 355 310 484 440 530 394 400 265 530 136 484 90 355 220 226 90 180 136ZM160 464V66H550V464ZM90 530H620V0H90Z" glyph-name="ballotboxwithx" horiz-adv-x="710" unicode="&#9746;" /><glyph d="M124 -121H56L172 830H240Z" glyph-name="bar" horiz-adv-x="268" unicode="|" /><glyph d="M129 -90H61L177 861H245Z" glyph-name="bar.cap" horiz-adv-x="268" unicode="&#58467;" /><glyph d="M125 -121H57L155 686H223Z" glyph-name="bar.smcp" horiz-adv-x="268" unicode="&#58473;" /><glyph d="M88 390Q88 473 119.5 546Q151 619 205 673Q259 727 332 758.5Q405 790 488 790Q571 790 644 758.5Q717 727 771 673Q825 619 856.5 546Q888 473 888 390Q888 307 856.5 234Q825 161 771 107Q717 53 644 21.5Q571 -10 488 -10Q405 -10 332 21.5Q259 53 205 107Q151 161 119.5 234Q88 307 88 390Z" glyph-name="blackcircle" horiz-adv-x="976" unicode="&#9679;" /><glyph d="M628 0H98V530H628Z" glyph-name="blacksmallsquare" horiz-adv-x="726" unicode="&#9642;" /><glyph d="M878 0H98V780H878Z" glyph-name="blacksquare" horiz-adv-x="976" unicode="&#9632;" /><glyph d="M150 350Q198 335 220.5 302.5Q243 270 243 228Q243 204 235 178.5Q227 153 218 126Q209 99 201 70Q193 41 193 10Q193 -33 221 -53.5Q249 -74 315 -74L308 -130Q256 -130 220.5 -119.5Q185 -109 163.5 -91Q142 -73 132.5 -47.5Q123 -22 123 8Q123 40 130.5 69Q138 98 147.5 125Q157 152 164.5 177.5Q172 203 172 228Q172 248 165.5 265Q159 282 143.5 294Q128 306 102.5 313Q77 320 39 320L47 380Q96 380 127 391Q158 402 176 421.5Q194 441 201 466Q208 491 208 520Q208 546 204.5 572Q201 598 201 626Q201 666 210.5 703Q220 740 245 768.5Q270 797 313.5 813.5Q357 830 425 830L419 774Q338 774 304 739.5Q270 705 270 630Q270 600 274 572.5Q278 545 278 519Q278 463 247 416Q216 369 150 350Z" glyph-name="braceleft" horiz-adv-x="410" unicode="{" /><glyph d="M162 380Q210 365 232.5 332.5Q255 300 255 258Q255 234 247 208.5Q239 183 230 156Q221 129 213 100Q205 71 205 40Q205 -3 233 -23.5Q261 -44 327 -44L321 -100Q268 -100 233 -89.5Q198 -79 176 -61Q154 -43 145 -17.5Q136 8 136 38Q136 70 143.5 99Q151 128 160 155Q169 182 176.5 207.5Q184 233 184 258Q184 278 177.5 295Q171 312 155.5 324Q140 336 114.5 343Q89 350 51 350L59 410Q108 410 139.5 421Q171 432 189 451.5Q207 471 213.5 496Q220 521 220 550Q220 576 217 602Q214 628 214 656Q214 697 223.5 734Q233 771 257.5 799Q282 827 325.5 843.5Q369 860 438 860L431 804Q350 804 316 769.5Q282 735 282 660Q282 630 286 602.5Q290 575 290 549Q290 493 259 446Q228 399 162 380Z" glyph-name="braceleft.cap" horiz-adv-x="410" unicode="&#58517;" /><glyph d="M60 307Q107 307 137 315Q167 323 184.5 337Q202 351 208.5 370.5Q215 390 215 413Q215 438 209.5 464Q204 490 204 522Q204 557 214 585.5Q224 614 248 634Q272 654 311.5 665Q351 676 410 676L403 621Q338 621 306.5 598.5Q275 576 275 522Q275 490 281.5 463.5Q288 437 288 411Q288 389 280 367.5Q272 346 256.5 327.5Q241 309 217.5 296Q194 283 163 278Q212 270 232.5 241Q253 212 253 175Q253 155 245.5 134.5Q238 114 229.5 93Q221 72 213.5 49.5Q206 27 206 2Q206 -34 233.5 -49Q261 -64 314 -64L307 -120Q258 -120 225 -112.5Q192 -105 171.5 -91Q151 -77 142.5 -56.5Q134 -36 134 -10Q134 18 141.5 42.5Q149 67 157.5 89.5Q166 112 173.5 132.5Q181 153 181 174Q181 191 175.5 205Q170 219 155.5 229Q141 239 116.5 244.5Q92 250 53 250Z" glyph-name="braceleft.smcp" horiz-adv-x="402" unicode="&#58525;" /><glyph d="M287 350Q239 365 216.5 397.5Q194 430 194 472Q194 496 202 521.5Q210 547 219 574Q228 601 236 629.5Q244 658 244 690Q244 733 216 753.5Q188 774 122 774L129 830Q181 830 216.5 819.5Q252 809 273.5 791Q295 773 304.5 747.5Q314 722 314 692Q314 660 306.5 631Q299 602 289.5 575Q280 548 272.5 522.5Q265 497 265 472Q265 452 271.5 435Q278 418 293.5 406Q309 394 334.5 387Q360 380 398 380L390 320Q341 320 310 309Q279 298 261 278.5Q243 259 236 233.5Q229 208 229 180Q229 154 232.5 128Q236 102 236 74Q236 33 226.5 -3.5Q217 -40 192 -68.5Q167 -97 123.5 -113.5Q80 -130 12 -130L18 -74Q99 -74 133 -39.5Q167 -5 167 70Q167 100 163 127.5Q159 155 159 181Q159 237 190 284Q221 331 287 350Z" glyph-name="braceright" horiz-adv-x="410" unicode="}" /><glyph d="M288 380Q240 395 217.5 428Q195 461 195 503Q195 527 203 552Q211 577 220 604Q229 631 237 659.5Q245 688 245 720Q245 764 217 784Q189 804 123 804L130 860Q182 860 217.5 849.5Q253 839 274.5 821Q296 803 305.5 777.5Q315 752 315 722Q315 690 307.5 661Q300 632 290.5 605Q281 578 273.5 552.5Q266 527 266 502Q266 482 272.5 465Q279 448 294.5 436Q310 424 335.5 417Q361 410 399 410L391 350Q342 350 311 339Q280 328 262 308.5Q244 289 237 263.5Q230 238 230 210Q230 184 233.5 158Q237 132 237 104Q237 63 227.5 26.5Q218 -10 193 -38.5Q168 -67 124.5 -83.5Q81 -100 13 -100L19 -44Q100 -44 134 -9Q168 26 168 100Q168 130 164 157.5Q160 185 160 211Q160 267 191 314Q222 361 288 380Z" glyph-name="braceright.cap" horiz-adv-x="410" unicode="&#58518;" /><glyph d="M356 250Q309 250 279 242Q249 234 231.5 219.5Q214 205 207 185.5Q200 166 200 143Q200 119 206 92.5Q212 66 212 34Q212 -1 201.5 -29.5Q191 -58 167 -78Q143 -98 103.5 -109Q64 -120 6 -120L12 -64Q77 -64 108.5 -41.5Q140 -19 140 35Q140 67 134 93Q128 119 128 145Q128 167 136 189Q144 211 159.5 229Q175 247 198.5 260Q222 273 253 278Q203 286 182.5 315.5Q162 345 162 381Q162 401 169.5 421.5Q177 442 186 463Q195 484 202.5 506.5Q210 529 210 555Q210 590 182.5 605.5Q155 621 102 621L108 676Q157 676 190.5 668.5Q224 661 244 647Q264 633 273 612.5Q282 592 282 566Q282 538 274.5 513.5Q267 489 258.5 466.5Q250 444 242.5 423.5Q235 403 235 382Q235 365 240.5 351Q246 337 260 327.5Q274 318 299 312.5Q324 307 363 307Z" glyph-name="braceright.smcp" horiz-adv-x="402" unicode="&#58526;" /><glyph d="M129 -71H249L242 -130H54L171 830H359L352 771H232Z" glyph-name="bracketleft" horiz-adv-x="346" unicode="[" /><glyph d="M134 -41H254L248 -100H60L177 860H365L358 801H238Z" glyph-name="bracketleft.cap" horiz-adv-x="346" unicode="&#58515;" /><glyph d="M128 -62H255L248 -120H53L151 676H345L339 618H211Z" glyph-name="bracketleft.smcp" horiz-adv-x="338" unicode="&#58523;" /><glyph d="M244 771H124L131 830H319L202 -130H14L20 -71H140Z" glyph-name="bracketright" horiz-adv-x="346" unicode="]" /><glyph d="M253 801H133L140 860H328L211 -100H23L29 -41H149Z" glyph-name="bracketright.cap" horiz-adv-x="346" unicode="&#58516;" /><glyph d="M222 618H94L101 676H296L199 -120H4L11 -62H138Z" glyph-name="bracketright.smcp" horiz-adv-x="338" unicode="&#58524;" /><glyph d="M276 601Q194 601 157 640.5Q120 680 120 753Q120 776 123 800H170Q170 765 178.5 742Q187 719 202.5 704.5Q218 690 239 684Q260 678 285 678Q335 678 375 704.5Q415 731 432 800H479Q467 705 419 653Q371 601 276 601Z" glyph-name="breve" horiz-adv-x="600" unicode="&#728;" /><glyph d="M276 831Q194 831 157 870.5Q120 910 120 983Q120 1006 123 1030H170Q170 995 178.5 972Q187 949 202.5 934.5Q218 920 239 914Q260 908 285 908Q335 908 375 934.5Q415 961 432 1030H479Q467 935 419 883Q371 831 276 831Z" glyph-name="breve.cap" horiz-adv-x="600" unicode="&#58406;" /><glyph d="M190 424H122L172 830H240ZM124 -121H56L106 285H174Z" glyph-name="brokenbar" horiz-adv-x="268" unicode="&#166;" /><glyph d="M195 455H127L177 861H245ZM129 -90H61L111 316H179Z" glyph-name="brokenbar.cap" horiz-adv-x="268" unicode="&#58469;" /><glyph d="M180 328H112L155 686H223ZM125 -121H57L101 237H169Z" glyph-name="brokenbar.smcp" horiz-adv-x="268" unicode="&#58475;" /><glyph d="M85 322Q85 349 95.5 373Q106 397 123.5 414.5Q141 432 164.5 442.5Q188 453 215 453Q242 453 266 442.5Q290 432 307.5 414.5Q325 397 335.5 373Q346 349 346 322Q346 295 335.5 271.5Q325 248 307.5 230.5Q290 213 266 202.5Q242 192 215 192Q188 192 164.5 202.5Q141 213 123.5 230.5Q106 248 95.5 271.5Q85 295 85 322Z" glyph-name="bullet" horiz-adv-x="423" unicode="&#8226;" /><glyph d="M97 395Q97 422 107.5 446Q118 470 135.5 487.5Q153 505 176.5 515.5Q200 526 227 526Q254 526 277.5 515.5Q301 505 319 487.5Q337 470 347 446Q357 422 357 395Q357 368 347 344.5Q337 321 319 303.5Q301 286 277.5 275.5Q254 265 227 265Q200 265 176.5 275.5Q153 286 135.5 303.5Q118 321 107.5 344.5Q97 368 97 395Z" glyph-name="bullet.cap" horiz-adv-x="423" unicode="&#58470;" /><glyph d="M79 290Q79 317 89.5 340.5Q100 364 117.5 381.5Q135 399 158.5 409.5Q182 420 209 420Q236 420 260 409.5Q284 399 301.5 381.5Q319 364 329.5 340.5Q340 317 340 290Q340 263 329.5 239.5Q319 216 301.5 198Q284 180 260 170Q236 160 209 160Q182 160 158.5 170Q135 180 117.5 198Q100 216 89.5 239.5Q79 263 79 290Z" glyph-name="bullet.smcp" horiz-adv-x="423" unicode="&#58476;" /><glyph d="M157 339Q157 282 178.5 232.5Q200 183 236.5 146.5Q273 110 322.5 88.5Q372 67 429 67Q486 67 535.5 88.5Q585 110 622 146.5Q659 183 680.5 232.5Q702 282 702 339Q702 396 680.5 445.5Q659 495 622 532Q585 569 535.5 590.5Q486 612 429 612Q372 612 322.5 590.5Q273 569 236.5 532Q200 495 178.5 445.5Q157 396 157 339ZM330 390Q330 421 342 448.5Q354 476 374 496Q394 516 421.5 528Q449 540 480 540Q511 540 538.5 528Q566 516 586 496Q606 476 618 448.5Q630 421 630 390Q630 359 618 331.5Q606 304 586 284Q566 264 538.5 252Q511 240 480 240Q449 240 421.5 252Q394 264 374 284Q354 304 342 331.5Q330 359 330 390ZM80 390Q80 473 111.5 546Q143 619 197 673Q251 727 324 758.5Q397 790 480 790Q563 790 636 758.5Q709 727 763 673Q817 619 848.5 546Q880 473 880 390Q880 307 848.5 234Q817 161 763 107Q709 53 636 21.5Q563 -10 480 -10Q397 -10 324 21.5Q251 53 197 107Q143 161 111.5 234Q80 307 80 390Z" glyph-name="bullseye" horiz-adv-x="960" unicode="&#9678;" /><glyph d="M311 488Q274 488 245 462.5Q216 437 196.5 397Q177 357 166.5 308.5Q156 260 156 215Q156 143 179 103Q202 63 256 63Q299 63 336 91Q373 119 406 161L441 136Q426 108 404 82Q382 56 354 35.5Q326 15 293 2.5Q260 -10 223 -10Q176 -10 141.5 5.5Q107 21 84 47.5Q61 74 49.5 110.5Q38 147 38 189Q38 259 61 323.5Q84 388 124.5 437Q165 486 221 515Q277 544 344 544Q406 544 438.5 517.5Q471 491 471 451Q471 428 459 411Q447 394 432 386H379Q376 429 362.5 458.5Q349 488 311 488Z" glyph-name="c" horiz-adv-x="486" unicode="c" /><glyph d="M323 -10Q258 -10 207 8.5Q156 27 121 60Q86 93 67 139.5Q48 186 48 242Q48 314 72 375.5Q96 437 140.5 482Q185 527 246.5 552.5Q308 578 383 578Q450 578 502 560.5Q554 543 590 518L573 387H528Q515 456 478.5 488Q442 520 379 520Q328 520 290 498Q252 476 227.5 438Q203 400 190.5 349Q178 298 178 240Q178 145 220 96.5Q262 48 337 48Q401 48 444.5 83.5Q488 119 523 189H575L537 39Q492 16 439 3Q386 -10 323 -10Z" glyph-name="c.smcp" horiz-adv-x="629" unicode="&#57859;" /><glyph d="M253 695Q229 695 210 676.5Q191 658 178.5 629.5Q166 601 159.5 568Q153 535 153 505Q153 457 167 430.5Q181 404 217 404Q246 404 272 421.5Q298 439 321 467L348 448Q325 406 284 375.5Q243 345 189 345Q122 345 87 385Q52 425 52 489Q52 538 69 582.5Q86 627 115.5 661Q145 695 186 715.5Q227 736 275 736Q318 736 343.5 718.5Q369 701 369 669Q369 652 360.5 639Q352 626 339 620H294Q292 655 284 675Q276 695 253 695Z" glyph-name="c.superior" horiz-adv-x="350" unicode="&#58211;" /><glyph d="M311 488Q274 488 245 462.5Q216 437 196.5 397Q177 357 166.5 308.5Q156 260 156 215Q156 143 179 103Q202 63 256 63Q299 63 336 91Q373 119 406 161L441 136Q426 108 404 82Q382 56 354 35.5Q326 15 293 2.5Q260 -10 223 -10Q176 -10 141.5 5.5Q107 21 84 47.5Q61 74 49.5 110.5Q38 147 38 189Q38 259 61 323.5Q84 388 124.5 437Q165 486 221 515Q277 544 344 544Q406 544 438.5 517.5Q471 491 471 451Q471 428 459 411Q447 394 432 386H379Q376 429 362.5 458.5Q349 488 311 488ZM575 800 346 592H287L414 800Z" glyph-name="cacute" horiz-adv-x="486" unicode="&#263;" /><glyph d="M323 -10Q258 -10 207 8.5Q156 27 121 60Q86 93 67 139.5Q48 186 48 242Q48 314 72 375.5Q96 437 140.5 482Q185 527 246.5 552.5Q308 578 383 578Q450 578 502 560.5Q554 543 590 518L573 387H528Q515 456 478.5 488Q442 520 379 520Q328 520 290 498Q252 476 227.5 438Q203 400 190.5 349Q178 298 178 240Q178 145 220 96.5Q262 48 337 48Q401 48 444.5 83.5Q488 119 523 189H575L537 39Q492 16 439 3Q386 -10 323 -10ZM622 822 393 614H334L461 822Z" glyph-name="cacute.smcp" horiz-adv-x="629" unicode="&#57908;" /><glyph d="M109 800H165L285 681L434 800H491L315 592H233Z" glyph-name="caron" horiz-adv-x="600" unicode="&#711;" /><glyph d="M109 1030H165L285 911L434 1030H491L315 822H233Z" glyph-name="caron.cap" horiz-adv-x="600" unicode="&#58413;" /><glyph d="M387 800 269 592H212L272 800Z" glyph-name="caronSlovak" horiz-adv-x="600" unicode="&#58387;" /><glyph d="M311 488Q274 488 245 462.5Q216 437 196.5 397Q177 357 166.5 308.5Q156 260 156 215Q156 143 179 103Q202 63 256 63Q299 63 336 91Q373 119 406 161L441 136Q426 108 404 82Q382 56 354 35.5Q326 15 293 2.5Q260 -10 223 -10Q176 -10 141.5 5.5Q107 21 84 47.5Q61 74 49.5 110.5Q38 147 38 189Q38 259 61 323.5Q84 388 124.5 437Q165 486 221 515Q277 544 344 544Q406 544 438.5 517.5Q471 491 471 451Q471 428 459 411Q447 394 432 386H379Q376 429 362.5 458.5Q349 488 311 488ZM167 800H223L343 681L492 800H549L373 592H291Z" glyph-name="ccaron" horiz-adv-x="486" unicode="&#269;" /><glyph d="M323 -10Q258 -10 207 8.5Q156 27 121 60Q86 93 67 139.5Q48 186 48 242Q48 314 72 375.5Q96 437 140.5 482Q185 527 246.5 552.5Q308 578 383 578Q450 578 502 560.5Q554 543 590 518L573 387H528Q515 456 478.5 488Q442 520 379 520Q328 520 290 498Q252 476 227.5 438Q203 400 190.5 349Q178 298 178 240Q178 145 220 96.5Q262 48 337 48Q401 48 444.5 83.5Q488 119 523 189H575L537 39Q492 16 439 3Q386 -10 323 -10ZM213 822H269L389 703L538 822H595L419 614H337Z" glyph-name="ccaron.smcp" horiz-adv-x="629" unicode="&#57910;" /><glyph d="M311 488Q274 488 245 462.5Q216 437 196.5 397Q177 357 166.5 308.5Q156 260 156 215Q156 143 179 103Q202 63 256 63Q299 63 336 91Q373 119 406 161L441 136Q426 108 404 82Q382 56 354 35.5Q326 15 293 2.5Q260 -10 223 -10Q217 -10 211 -9.5Q205 -9 200 -9L182 -43Q230 -50 263.5 -74.5Q297 -99 297 -147Q297 -173 287.5 -192.5Q278 -212 262.5 -224.5Q247 -237 226 -243.5Q205 -250 183 -250Q151 -250 124 -239.5Q97 -229 82 -217L99 -186Q113 -194 134 -200.5Q155 -207 177 -207Q197 -207 212 -198.5Q227 -190 227 -167Q227 -151 217 -140.5Q207 -130 191 -123Q175 -116 155 -112Q135 -108 114 -106L167 -3Q101 14 69.5 66Q38 118 38 189Q38 259 61 323.5Q84 388 124.5 437Q165 486 221 515Q277 544 344 544Q406 544 438.5 517.5Q471 491 471 451Q471 428 459 411Q447 394 432 386H379Q376 429 362.5 458.5Q349 488 311 488Z" glyph-name="ccedilla" horiz-adv-x="486" unicode="&#231;" /><glyph d="M537 39Q492 16 439 3Q386 -10 323 -10L306 -43Q354 -50 387.5 -74.5Q421 -99 421 -147Q421 -173 411.5 -192.5Q402 -212 386.5 -224.5Q371 -237 350 -243.5Q329 -250 307 -250Q275 -250 248 -239.5Q221 -229 206 -217L223 -186Q237 -194 258 -200.5Q279 -207 301 -207Q321 -207 336 -198.5Q351 -190 351 -167Q351 -151 341 -140.5Q331 -130 315 -123Q299 -116 279 -112Q259 -108 238 -106L288 -8Q231 -4 186.5 16Q142 36 111.5 69Q81 102 64.5 145.5Q48 189 48 242Q48 314 72 375.5Q96 437 140.5 482Q185 527 246.5 552.5Q308 578 383 578Q450 578 502 560.5Q554 543 590 518L573 387H528Q515 456 478.5 488Q442 520 379 520Q328 520 290 498Q252 476 227.5 438Q203 400 190.5 349Q178 298 178 240Q178 145 220 96.5Q262 48 337 48Q401 48 444.5 83.5Q488 119 523 189H575Z" glyph-name="ccedilla.smcp" horiz-adv-x="629" unicode="&#57912;" /><glyph d="M311 488Q274 488 245 462.5Q216 437 196.5 397Q177 357 166.5 308.5Q156 260 156 215Q156 143 179 103Q202 63 256 63Q299 63 336 91Q373 119 406 161L441 136Q426 108 404 82Q382 56 354 35.5Q326 15 293 2.5Q260 -10 223 -10Q176 -10 141.5 5.5Q107 21 84 47.5Q61 74 49.5 110.5Q38 147 38 189Q38 259 61 323.5Q84 388 124.5 437Q165 486 221 515Q277 544 344 544Q406 544 438.5 517.5Q471 491 471 451Q471 428 459 411Q447 394 432 386H379Q376 429 362.5 458.5Q349 488 311 488ZM523 592H467L347 711L198 592H141L317 800H399Z" glyph-name="ccircumflex" horiz-adv-x="486" unicode="&#265;" /><glyph d="M323 -10Q258 -10 207 8.5Q156 27 121 60Q86 93 67 139.5Q48 186 48 242Q48 314 72 375.5Q96 437 140.5 482Q185 527 246.5 552.5Q308 578 383 578Q450 578 502 560.5Q554 543 590 518L573 387H528Q515 456 478.5 488Q442 520 379 520Q328 520 290 498Q252 476 227.5 438Q203 400 190.5 349Q178 298 178 240Q178 145 220 96.5Q262 48 337 48Q401 48 444.5 83.5Q488 119 523 189H575L537 39Q492 16 439 3Q386 -10 323 -10ZM567 614H511L391 733L242 614H185L361 822H443Z" glyph-name="ccircumflex.smcp" horiz-adv-x="629" unicode="&#57909;" /><glyph d="M342 622Q310 622 290.5 642.5Q271 663 271 693Q271 726 294 749.5Q317 773 351 773Q383 773 402.5 752.5Q422 732 422 702Q422 669 399.5 645.5Q377 622 342 622ZM311 488Q274 488 245 462.5Q216 437 196.5 397Q177 357 166.5 308.5Q156 260 156 215Q156 143 179 103Q202 63 256 63Q299 63 336 91Q373 119 406 161L441 136Q426 108 404 82Q382 56 354 35.5Q326 15 293 2.5Q260 -10 223 -10Q176 -10 141.5 5.5Q107 21 84 47.5Q61 74 49.5 110.5Q38 147 38 189Q38 259 61 323.5Q84 388 124.5 437Q165 486 221 515Q277 544 344 544Q406 544 438.5 517.5Q471 491 471 451Q471 428 459 411Q447 394 432 386H379Q376 429 362.5 458.5Q349 488 311 488Z" glyph-name="cdotaccent" horiz-adv-x="486" unicode="&#267;" /><glyph d="M388 644Q356 644 336.5 664.5Q317 685 317 715Q317 748 340 771.5Q363 795 397 795Q429 795 448.5 774.5Q468 754 468 724Q468 691 445.5 667.5Q423 644 388 644ZM323 -10Q258 -10 207 8.5Q156 27 121 60Q86 93 67 139.5Q48 186 48 242Q48 314 72 375.5Q96 437 140.5 482Q185 527 246.5 552.5Q308 578 383 578Q450 578 502 560.5Q554 543 590 518L573 387H528Q515 456 478.5 488Q442 520 379 520Q328 520 290 498Q252 476 227.5 438Q203 400 190.5 349Q178 298 178 240Q178 145 220 96.5Q262 48 337 48Q401 48 444.5 83.5Q488 119 523 189H575L537 39Q492 16 439 3Q386 -10 323 -10Z" glyph-name="cdotaccent.smcp" horiz-adv-x="629" unicode="&#57911;" /><glyph d="M321 12 292 -43Q340 -50 373.5 -74.5Q407 -99 407 -147Q407 -173 397.5 -192.5Q388 -212 372.5 -224.5Q357 -237 336 -243.5Q315 -250 293 -250Q261 -250 234 -239.5Q207 -229 192 -217L209 -186Q223 -194 244 -200.5Q265 -207 287 -207Q307 -207 322 -198.5Q337 -190 337 -167Q337 -151 327 -140.5Q317 -130 301 -123Q285 -116 265 -112Q245 -108 224 -106L285 12Z" glyph-name="cedilla" horiz-adv-x="600" unicode="&#184;" /><glyph d="M191 337Q191 287 207 250.5Q223 214 252 194L377 626Q335 623 300.5 598.5Q266 574 241.5 534.5Q217 495 204 443.5Q191 392 191 337ZM226 104Q147 121 105 179Q63 237 63 317Q63 386 86.5 450.5Q110 515 153 565Q196 615 257 647Q318 679 393 684L422 782H475L446 683Q508 677 544 647.5Q580 618 580 576Q580 549 566.5 528.5Q553 508 536 500H477Q477 595 428 619L299 176Q305 174 311 174Q317 174 323 174Q376 174 419 206Q462 238 501 285L537 260Q519 227 493.5 198Q468 169 436.5 146.5Q405 124 368 111Q331 98 290 98H277L248 -2H196Z" glyph-name="cent" horiz-adv-x="586" unicode="&#162;" /><glyph d="M191 337Q191 287 207 250.5Q223 214 252 194L377 626Q335 623 300.5 598.5Q266 574 241.5 534.5Q217 495 204 443.5Q191 392 191 337ZM226 104Q147 121 105 179Q63 237 63 317Q63 386 86.5 450.5Q110 515 153 565Q196 615 257 647Q318 679 393 684L422 782H475L446 683Q508 677 544 647.5Q580 618 580 576Q580 549 566.5 528.5Q553 508 536 500H477Q477 595 428 619L299 176Q305 174 311 174Q317 174 323 174Q376 174 419 206Q462 238 501 285L537 260Q519 227 493.5 198Q468 169 436.5 146.5Q405 124 368 111Q331 98 290 98H277L248 -2H196Z" glyph-name="cent.LP" horiz-adv-x="586" unicode="&#58659;" /><glyph d="M174 230Q174 180 190.5 143Q207 106 236 86L361 518Q319 516 284.5 491.5Q250 467 225.5 427.5Q201 388 187.5 336.5Q174 285 174 230ZM210 -3Q131 14 89 71Q47 128 47 209Q47 278 70.5 342.5Q94 407 137 457.5Q180 508 241 540Q302 572 378 577L406 675H458L429 576Q492 570 527.5 540Q563 510 563 468Q563 442 550 421.5Q537 401 520 393H461Q461 489 411 511L283 68Q288 67 294 66.5Q300 66 306 66Q359 66 402 98Q445 130 485 177L521 153Q503 120 477 90.5Q451 61 419.5 38.5Q388 16 351 3Q314 -10 273 -10H261L232 -110H180Z" glyph-name="cent.OP" horiz-adv-x="571" unicode="&#59807;" /><glyph d="M491 592H435L315 711L166 592H109L285 800H367Z" glyph-name="circumflex" horiz-adv-x="600" unicode="&#710;" /><glyph d="M491 822H435L315 941L166 822H109L285 1030H367Z" glyph-name="circumflex.cap" horiz-adv-x="600" unicode="&#58403;" /><glyph d="M349 0Q368 37 381.5 73Q395 109 404.5 147Q414 185 420.5 227Q427 269 431 320L428 321Q415 290 396 261Q377 232 352 209.5Q327 187 296 173.5Q265 160 228 160Q191 160 159 173.5Q127 187 103 210.5Q79 234 65.5 265.5Q52 297 52 334Q52 373 64.5 406Q77 439 100 463Q123 487 155 500.5Q187 514 226 514Q252 514 272.5 507Q293 500 310 491L312 493Q295 518 284.5 547.5Q274 577 274 610Q274 647 287.5 680Q301 713 324.5 737.5Q348 762 380 776Q412 790 450 790Q488 790 520 776Q552 762 575.5 737.5Q599 713 612.5 680Q626 647 626 610Q626 577 615.5 547.5Q605 518 588 493L590 491Q607 500 627.5 507Q648 514 674 514Q713 514 745 500.5Q777 487 800 463Q823 439 835.5 406Q848 373 848 334Q848 297 834.5 265.5Q821 234 797 210.5Q773 187 741 173.5Q709 160 672 160Q635 160 604 173.5Q573 187 548 209.5Q523 232 504 261Q485 290 472 321L469 320Q473 269 479.5 227Q486 185 495.5 147Q505 109 518.5 73Q532 37 551 0Z" glyph-name="club" horiz-adv-x="900" unicode="&#9827;" /><glyph d="M100 381Q100 416 124.5 440.5Q149 465 184 465Q219 465 244 440.5Q269 416 269 381Q269 346 244 321.5Q219 297 184 297Q149 297 124.5 321.5Q100 346 100 381ZM59 74Q59 109 83.5 134Q108 159 143 159Q178 159 203 134Q228 109 228 74Q228 39 203 14.5Q178 -10 143 -10Q108 -10 83.5 14.5Q59 39 59 74Z" glyph-name="colon" horiz-adv-x="331" unicode=":" /><glyph d="M95 381Q95 416 119.5 440.5Q144 465 179 465Q214 465 238.5 440.5Q263 416 263 381Q263 346 238.5 321.5Q214 297 179 297Q144 297 119.5 321.5Q95 346 95 381ZM54 74Q54 109 78.5 134Q103 159 138 159Q173 159 197.5 134Q222 109 222 74Q222 39 197.5 14.5Q173 -10 138 -10Q103 -10 78.5 14.5Q54 39 54 74Z" glyph-name="colon.T" horiz-adv-x="344" unicode="&#61828;" /><glyph d="M119 4Q91 11 75 29Q59 47 59 77Q59 109 80.5 134Q102 159 140 159Q185 159 210.5 128Q236 97 236 46Q236 7 219 -30Q202 -67 171 -96Q140 -125 97 -143.5Q54 -162 2 -165L10 -114Q41 -110 68 -99Q95 -88 115.5 -72.5Q136 -57 148 -37.5Q160 -18 160 4Z" glyph-name="comma" horiz-adv-x="331" unicode="," /><glyph d="M116 4Q88 11 72.5 26Q57 41 57 71Q57 103 78.5 124.5Q100 146 138 146Q183 146 208.5 117Q234 88 234 37Q234 -2 216.5 -37.5Q199 -73 168 -100.5Q137 -128 94 -145Q51 -162 0 -165L8 -114Q39 -110 66 -99Q93 -88 113 -72.5Q133 -57 145 -37.5Q157 -18 157 4Z" glyph-name="comma.T" horiz-adv-x="346" unicode="&#61827;" /><glyph d="M273 -163Q249 -158 236.5 -144.5Q224 -131 224 -106Q224 -80 241.5 -62.5Q259 -45 293 -45Q331 -45 353.5 -70Q376 -95 376 -136Q376 -186 340 -216.5Q304 -247 227 -249L233 -208Q313 -200 313 -163Z" glyph-name="commaaccent" horiz-adv-x="600" unicode="&#58388;" /><glyph d="M458 189Q513 189 551 220Q589 251 618 312H661L629 182Q590 162 545 151Q500 140 447 140Q391 140 348 156Q305 172 275 200.5Q245 229 229.5 269Q214 309 214 357Q214 418 234 470.5Q254 523 291 562Q328 601 380.5 623Q433 645 497 645Q554 645 598.5 630Q643 615 673 594L659 483H622Q611 543 579.5 570Q548 597 494 597Q450 597 418 578Q386 559 364.5 526.5Q343 494 332.5 450Q322 406 322 355Q322 273 358 231Q394 189 458 189ZM90 390Q90 313 119 246Q148 179 198.5 128.5Q249 78 316 49Q383 20 460 20Q536 20 603.5 49Q671 78 721.5 128.5Q772 179 801 246Q830 313 830 390Q830 466 801 533.5Q772 601 721.5 651.5Q671 702 603.5 731Q536 760 460 760Q383 760 316 731Q249 702 198.5 651.5Q148 601 119 533.5Q90 466 90 390ZM60 390Q60 473 91.5 546Q123 619 177 673Q231 727 304 758.5Q377 790 460 790Q543 790 616 758.5Q689 727 743 673Q797 619 828.5 546Q860 473 860 390Q860 307 828.5 234Q797 161 743 107Q689 53 616 21.5Q543 -10 460 -10Q377 -10 304 21.5Q231 53 177 107Q123 161 91.5 234Q60 307 60 390Z" glyph-name="copyright" horiz-adv-x="890" unicode="&#169;" /><glyph d="M253 695Q229 695 210 676.5Q191 658 178.5 629.5Q166 601 159.5 568Q153 535 153 505Q153 457 167 430.5Q181 404 217 404Q246 404 272 421.5Q298 439 321 467L348 448Q325 406 284 375.5Q243 345 189 345Q122 345 87 385Q52 425 52 489Q52 538 69 582.5Q86 627 115.5 661Q145 695 186 715.5Q227 736 275 736Q318 736 343.5 718.5Q369 701 369 669Q369 652 360.5 639Q352 626 339 620H294Q292 655 284 675Q276 695 253 695Z" glyph-name="cordinal" horiz-adv-x="350" unicode="&#57729;" /><glyph d="M287 345Q189 345 133.5 396Q78 447 78 534Q78 588 96.5 634.5Q115 681 148.5 715Q182 749 228.5 768.5Q275 788 332 788Q382 788 421 775Q460 762 487 742L475 644H437Q428 696 401.5 719.5Q375 743 328 743Q294 743 267.5 726.5Q241 710 222.5 682Q204 654 194.5 615.5Q185 577 185 534Q185 466 214 427.5Q243 389 300 389Q348 389 378 417.5Q408 446 433 497H476L447 382Q379 345 287 345Z" glyph-name="cordinal.smcp" horiz-adv-x="490" unicode="&#58195;" /><glyph d="M307 124Q341 124 368 141Q395 158 414 188Q433 218 443 258Q453 298 453 344Q453 410 425 452.5Q397 495 337 495Q303 495 276 478Q249 461 230 431.5Q211 402 201 362Q191 322 191 276Q191 210 219 167Q247 124 307 124ZM305 71Q257 71 218 84.5Q179 98 150 123L74 55L39 96L114 163Q78 216 78 286Q78 340 95.5 385Q113 430 145 465L92 526L136 564L188 503Q220 525 258 537Q296 549 339 549Q387 549 426 535Q465 521 494 496L570 564L604 524L529 457Q566 403 566 333Q566 280 548.5 235Q531 190 500 155L552 96L508 57L456 117Q424 95 386 83Q348 71 305 71Z" glyph-name="currency" horiz-adv-x="653" unicode="&#164;" /><glyph d="M424 740 430 764 596 810H633Q626 774 613.5 711Q601 648 587 573.5Q573 499 558.5 420Q544 341 532.5 273.5Q521 206 513.5 157Q506 108 506 93Q506 65 528 65Q545 65 564 81.5Q583 98 608 129L642 103Q604 47 562 18.5Q520 -10 470 -10Q427 -10 406.5 12Q386 34 386 72Q386 87 390 110Q394 133 400 159Q406 185 412.5 211.5Q419 238 424 261H420Q414 246 407.5 231.5Q401 217 393.5 201.5Q386 186 376 168Q366 150 352 129Q303 56 256 23Q209 -10 161 -10Q99 -10 68.5 35.5Q38 81 38 152Q38 230 65 301Q92 372 138 426Q184 480 244 512Q304 544 369 544Q406 544 429.5 533Q453 522 465 505Q475 561 483 610.5Q491 660 494 698ZM205 70Q234 70 266.5 98.5Q299 127 339 187Q360 219 378 255.5Q396 292 409 327Q422 362 430.5 394Q439 426 442 449Q435 469 417 480Q399 491 371 491Q323 491 283 462Q243 433 215 387.5Q187 342 171 285Q155 228 155 173Q155 127 165.5 98.5Q176 70 205 70Z" glyph-name="d" horiz-adv-x="661" unicode="d" /><glyph d="M27 45Q75 47 99 60Q123 73 128 113L168 429Q169 441 170.5 453Q172 465 172 473Q172 500 149.5 510.5Q127 521 85 523L91 568H365Q515 568 597.5 506.5Q680 445 680 324Q680 250 656 190.5Q632 131 587.5 88.5Q543 46 480.5 23Q418 0 340 0H21ZM254 140Q252 124 251 112.5Q250 101 250 94Q250 70 266.5 61.5Q283 53 312 53H337Q436 53 492 124.5Q548 196 548 327Q548 419 499 467Q450 515 356 515H300Z" glyph-name="d.smcp" horiz-adv-x="715" unicode="&#57860;" /><glyph d="M354 715Q361 746 367 779Q373 812 375 836L328 867L332 888L461 919H490Q485 895 476.5 852Q468 809 458 757.5Q448 706 438 651.5Q428 597 419.5 550Q411 503 405.5 468.5Q400 434 400 423Q400 404 414 404Q425 404 437 413Q449 422 466 442L490 421Q460 383 430 364Q400 345 362 345Q330 345 314.5 362Q299 379 299 408Q299 420 301.5 435.5Q304 451 308 468Q312 485 316.5 502.5Q321 520 325 536H322Q313 515 303.5 494Q294 473 274 442Q213 345 141 345Q97 345 74.5 377Q52 409 52 462Q52 517 70.5 566.5Q89 616 121.5 653.5Q154 691 198 713.5Q242 736 293 736Q314 736 329 730Q344 724 354 715ZM183 412Q204 412 225.5 433.5Q247 455 272 498Q285 520 296.5 544.5Q308 569 317 592.5Q326 616 332 637.5Q338 659 341 675Q336 684 324 690Q312 696 295 696Q263 696 236 675Q209 654 190 622Q171 590 160.5 551Q150 512 150 475Q150 447 157 429.5Q164 412 183 412Z" glyph-name="d.superior" horiz-adv-x="476" unicode="&#58212;" /><glyph d="M458 780 465 750 394 497 650 537 680 527 668 427 636 417 388 457 401 232 299 -250H264L281 232L348 457L91 417L62 427L74 527L105 537L353 497L344 750L358 780Z" glyph-name="dagger" horiz-adv-x="694" unicode="&#8224;" /><glyph d="M341 457 84 417 55 427 67 527 98 537 346 497 337 750 351 780H451L458 750L387 497L644 537L673 527L661 427L630 417L381 457L391 267L336 83L593 123L623 113L610 13L579 3L331 43L340 -210L326 -240H226L219 -210L291 43L33 3L4 13L16 113L48 123L295 83L285 267Z" glyph-name="daggerdbl" horiz-adv-x="676" unicode="&#8225;" /><glyph d="M424 740 430 764 596 810H633Q626 774 613.5 711Q601 648 587 573.5Q573 499 558.5 420Q544 341 532.5 273.5Q521 206 513.5 157Q506 108 506 93Q506 65 528 65Q545 65 564 81.5Q583 98 608 129L642 103Q604 47 562 18.5Q520 -10 470 -10Q427 -10 406.5 12Q386 34 386 72Q386 87 390 110Q394 133 400 159Q406 185 412.5 211.5Q419 238 424 261H420Q414 246 407.5 231.5Q401 217 393.5 201.5Q386 186 376 168Q366 150 352 129Q303 56 256 23Q209 -10 161 -10Q99 -10 68.5 35.5Q38 81 38 152Q38 230 65 301Q92 372 138 426Q184 480 244 512Q304 544 369 544Q406 544 429.5 533Q453 522 465 505Q475 561 483 610.5Q491 660 494 698ZM205 70Q234 70 266.5 98.5Q299 127 339 187Q360 219 378 255.5Q396 292 409 327Q422 362 430.5 394Q439 426 442 449Q435 469 417 480Q399 491 371 491Q323 491 283 462Q243 433 215 387.5Q187 342 171 285Q155 228 155 173Q155 127 165.5 98.5Q176 70 205 70ZM815 800 697 592H640L700 800Z" glyph-name="dcaron" horiz-adv-x="661" unicode="&#271;" /><glyph d="M27 45Q75 47 99 60Q123 73 128 113L168 429Q169 441 170.5 453Q172 465 172 473Q172 500 149.5 510.5Q127 521 85 523L91 568H365Q515 568 597.5 506.5Q680 445 680 324Q680 250 656 190.5Q632 131 587.5 88.5Q543 46 480.5 23Q418 0 340 0H21ZM254 140Q252 124 251 112.5Q250 101 250 94Q250 70 266.5 61.5Q283 53 312 53H337Q436 53 492 124.5Q548 196 548 327Q548 419 499 467Q450 515 356 515H300ZM224 822H280L400 703L549 822H606L430 614H348Z" glyph-name="dcaron.smcp" horiz-adv-x="715" unicode="&#57913;" /><glyph d="M205 70Q234 70 266.5 98.5Q299 127 339 187Q360 219 378 255.5Q396 292 409 327Q422 362 430.5 394Q439 426 442 449Q435 469 417 480Q399 491 371 491Q323 491 283 462Q243 433 215 387.5Q187 342 171 285Q155 228 155 173Q155 127 165.5 98.5Q176 70 205 70ZM424 740 430 764 596 810H633L602 650H690L681 601H592Q582 550 572 495.5Q562 441 552.5 388Q543 335 534.5 286Q526 237 519.5 198Q513 159 509.5 131Q506 103 506 93Q506 65 528 65Q545 65 564 81.5Q583 98 608 129L642 103Q604 47 562 18.5Q520 -10 470 -10Q427 -10 406.5 12Q386 34 386 72Q386 87 390 110Q394 133 400 159Q406 185 412.5 211.5Q419 238 424 261H420Q414 246 407.5 231.5Q401 217 393.5 201.5Q386 186 376 168Q366 150 352 129Q303 56 256 23Q209 -10 161 -10Q99 -10 68.5 35.5Q38 81 38 152Q38 230 65 301Q92 372 138 426Q184 480 244 512Q304 544 369 544Q406 544 429.5 533Q453 522 465 505L481 601H308L316 650H488Q492 675 494 698Z" glyph-name="dcroat" horiz-adv-x="661" unicode="&#273;" /><glyph d="M275 313H420L414 262H269L254 140Q252 124 251 112.5Q250 101 250 94Q250 70 266.5 61.5Q283 53 312 53H337Q436 53 492 124.5Q548 196 548 327Q548 419 499 467Q450 515 356 515H300ZM63 313H153L168 429Q169 441 170.5 453Q172 465 172 473Q172 500 149.5 510.5Q127 521 85 523L91 568H365Q515 568 597.5 506.5Q680 445 680 324Q680 250 656 190.5Q632 131 587.5 88.5Q543 46 480.5 23Q418 0 340 0H21L27 45Q75 47 99 60Q123 73 128 113L147 262H57Z" glyph-name="dcroat.smcp" horiz-adv-x="715" unicode="&#57916;" /><glyph d="M251 413Q210 413 178 426Q146 439 124 462Q102 485 90.5 515.5Q79 546 79 581Q79 624 93.5 662Q108 700 134.5 728.5Q161 757 198.5 773.5Q236 790 281 790Q322 790 354 777Q386 764 408 741Q430 718 441.5 687.5Q453 657 453 622Q453 579 438.5 541Q424 503 397.5 474.5Q371 446 333.5 429.5Q296 413 251 413ZM250 472Q278 472 302.5 483.5Q327 495 344 514.5Q361 534 371 561Q381 588 381 619Q381 665 355.5 697.5Q330 730 282 730Q253 730 229 719Q205 708 188 688.5Q171 669 161 642Q151 615 151 584Q151 538 176.5 505Q202 472 250 472Z" glyph-name="degree" horiz-adv-x="491" unicode="&#176;" /><glyph d="M817 390Q764 348 712.5 300.5Q661 253 614 201.5Q567 150 525.5 96.5Q484 43 451 -10H449Q416 43 374.5 96.5Q333 150 286 201.5Q239 253 187.5 300.5Q136 348 83 390Q136 432 187.5 479.5Q239 527 286 578.5Q333 630 374.5 683.5Q416 737 449 790H451Q484 737 525.5 683.5Q567 630 614 578.5Q661 527 712.5 479.5Q764 432 817 390Z" glyph-name="diamond" horiz-adv-x="900" unicode="&#9830;" /><glyph d="M398 622Q366 622 346.5 642.5Q327 663 327 693Q327 726 350 749.5Q373 773 408 773Q440 773 459.5 752.5Q479 732 479 702Q479 669 456 645.5Q433 622 398 622ZM191 622Q159 622 139.5 642.5Q120 663 120 693Q120 726 143 749.5Q166 773 201 773Q233 773 252.5 752.5Q272 732 272 702Q272 669 249 645.5Q226 622 191 622Z" glyph-name="dieresis" horiz-adv-x="600" unicode="&#168;" /><glyph d="M398 851Q366 851 346.5 871.5Q327 892 327 922Q327 955 350 978.5Q373 1002 408 1002Q440 1002 459.5 981.5Q479 961 479 931Q479 898 456 874.5Q433 851 398 851ZM191 851Q159 851 139.5 871.5Q120 892 120 922Q120 955 143 978.5Q166 1002 201 1002Q233 1002 252.5 981.5Q272 961 272 931Q272 898 249 874.5Q226 851 191 851Z" glyph-name="dieresis.cap" horiz-adv-x="600" unicode="&#58409;" /><glyph d="M255 75Q257 103 277 123Q297 143 326 143Q354 143 373.5 123Q393 103 392 75Q391 46 370 26.5Q349 7 321 7Q293 7 273.5 26.5Q254 46 255 75ZM308 510Q309 538 329.5 558Q350 578 379 578Q407 578 426.5 558Q446 538 445 510Q443 482 422.5 462Q402 442 374 442Q345 442 326 462Q307 482 308 510ZM75 257 84 328H624L615 257Z" glyph-name="divide" horiz-adv-x="700" unicode="&#247;" /><glyph d="M270 172Q272 201 292.5 221Q313 241 341 241Q369 241 388.5 221Q408 201 407 172Q406 144 385.5 124Q365 104 336 104Q308 104 288.5 124Q269 144 270 172ZM323 608Q324 636 345 656Q366 676 394 676Q422 676 441.5 656Q461 636 460 608Q459 579 438 559Q417 539 389 539Q360 539 341 559Q322 579 323 608ZM90 354 99 426H639L630 354Z" glyph-name="divide.cap" horiz-adv-x="700" unicode="&#58772;" /><glyph d="M229 612Q229 569 253 539Q277 509 332 479L383 726Q375 727 368 727.5Q361 728 353 728Q295 728 262 696.5Q229 665 229 612ZM459 178Q459 226 432 258Q405 290 352 320L297 53H313Q380 53 419.5 83Q459 113 459 178ZM284 -10 261 -125H208L232 -5Q173 3 124.5 22.5Q76 42 50 66L64 251H115Q130 169 161 123Q192 77 246 61L305 346L293 352Q250 373 217 396Q184 419 162 445.5Q140 472 128.5 503.5Q117 535 117 574Q117 628 135.5 668.5Q154 709 187.5 736Q221 763 267.5 776.5Q314 790 370 790Q377 790 383 790Q389 790 396 789L420 905H473L448 783Q495 775 534 759.5Q573 744 601 722L583 558H534Q523 615 499.5 655Q476 695 433 713L380 455Q424 433 460.5 409.5Q497 386 523 357.5Q549 329 563.5 294.5Q578 260 578 216Q578 160 556 117.5Q534 75 495.5 46.5Q457 18 406.5 4Q356 -10 299 -10Z" glyph-name="dollar" horiz-adv-x="650" unicode="$" /><glyph d="M229 612Q229 569 253 539Q277 509 332 479L383 726Q375 727 368 727.5Q361 728 353 728Q295 728 262 696.5Q229 665 229 612ZM459 178Q459 226 432 258Q405 290 352 320L297 53H313Q380 53 419.5 83Q459 113 459 178ZM284 -10 261 -125H208L232 -5Q173 3 124.5 22.5Q76 42 50 66L64 251H115Q130 169 161 123Q192 77 246 61L305 346L293 352Q250 373 217 396Q184 419 162 445.5Q140 472 128.5 503.5Q117 535 117 574Q117 628 135.5 668.5Q154 709 187.5 736Q221 763 267.5 776.5Q314 790 370 790Q377 790 383 790Q389 790 396 789L420 905H473L448 783Q495 775 534 759.5Q573 744 601 722L583 558H534Q523 615 499.5 655Q476 695 433 713L380 455Q424 433 460.5 409.5Q497 386 523 357.5Q549 329 563.5 294.5Q578 260 578 216Q578 160 556 117.5Q534 75 495.5 46.5Q457 18 406.5 4Q356 -10 299 -10Z" glyph-name="dollar.LP" horiz-adv-x="650" unicode="&#58658;" /><glyph d="M195 493Q195 457 218 435.5Q241 414 289 393L343 580Q326 583 308 583Q252 583 223.5 558.5Q195 534 195 493ZM400 147Q400 165 396 179Q392 193 381.5 206Q371 219 351.5 231Q332 243 302 257L242 48Q248 47 254 47Q260 47 267 47Q326 47 363 71.5Q400 96 400 147ZM175 -1Q130 8 93.5 25Q57 42 33 62L45 214H101Q111 157 132.5 118Q154 79 193 61L255 276Q172 306 129.5 347.5Q87 389 87 461Q87 548 148.5 594.5Q210 641 314 641Q337 641 360 638L389 740H441L409 630Q447 621 477 607Q507 593 530 577L513 441H462Q457 483 440.5 515Q424 547 391 565L336 374Q379 357 412.5 338.5Q446 320 468.5 297.5Q491 275 502.5 247Q514 219 514 182Q514 134 495 98Q476 62 442 38Q408 14 362 2Q316 -10 261 -10Q252 -10 243 -9.5Q234 -9 225 -8L196 -110H144Z" glyph-name="dollar.OP" horiz-adv-x="579" unicode="&#59806;" /><glyph d="M295 622Q263 622 243.5 642.5Q224 663 224 693Q224 726 247 749.5Q270 773 304 773Q336 773 355.5 752.5Q375 732 375 702Q375 669 352.5 645.5Q330 622 295 622Z" glyph-name="dotaccent" horiz-adv-x="600" unicode="&#729;" /><glyph d="M295 851Q263 851 243.5 871.5Q224 892 224 922Q224 955 247 978.5Q270 1002 304 1002Q336 1002 355.5 981.5Q375 961 375 931Q375 898 352.5 874.5Q330 851 295 851Z" glyph-name="dotaccent.cap" horiz-adv-x="600" unicode="&#58408;" /><glyph d="M295 -203Q263 -203 243.5 -182.5Q224 -162 224 -132Q224 -98 247 -74.5Q270 -51 304 -51Q336 -51 355.5 -71.5Q375 -92 375 -122Q375 -156 352.5 -179.5Q330 -203 295 -203Z" glyph-name="dotbelow" horiz-adv-x="600" unicode="&#58389;" /><glyph d="M283 467Q283 433 272.5 381Q262 329 250 274.5Q238 220 227.5 170.5Q217 121 217 93Q217 65 239 65Q256 65 275 81.5Q294 98 319 129L353 103Q315 47 273 18.5Q231 -10 181 -10Q138 -10 116 12Q94 34 94 72Q94 104 104.5 154Q115 204 127.5 257.5Q140 311 150.5 361Q161 411 161 442Q161 453 156.5 459Q152 465 138 465Q119 465 98 444.5Q77 424 55 395L21 421Q63 490 109.5 517Q156 544 202 544Q247 544 265 523Q283 502 283 467Z" glyph-name="dotlessi" horiz-adv-x="391" unicode="&#305;" /><glyph d="M12 421Q54 490 100.5 517Q147 544 193 544Q238 544 256.5 523.5Q275 503 275 465Q275 448 272.5 424Q270 400 265 373L219 96Q203 -2 180.5 -68.5Q158 -135 128 -175.5Q98 -216 60.5 -233Q23 -250 -23 -250Q-86 -250 -120.5 -224Q-155 -198 -155 -158Q-155 -133 -143 -115.5Q-131 -98 -116 -90H-64Q-60 -142 -47.5 -173Q-35 -204 -4 -204Q11 -204 23 -197Q35 -190 45 -169.5Q55 -149 64 -111.5Q73 -74 83 -14L145 352Q149 380 151.5 401Q154 422 154 435Q154 465 131 465Q112 465 90 444.5Q68 424 46 395Z" glyph-name="dotlessj" horiz-adv-x="331" unicode="&#567;" /><glyph d="M278 -121H210L326 830H394ZM129 -121H61L177 830H245Z" glyph-name="doublebar" horiz-adv-x="417" unicode="&#8214;" /><glyph d="M278 -90H210L326 861H394ZM129 -90H61L177 861H245Z" glyph-name="doublebar.cap" horiz-adv-x="417" unicode="&#58468;" /><glyph d="M274 -121H205L304 686H372ZM125 -121H57L156 686H224Z" glyph-name="doublebar.smcp" horiz-adv-x="417" unicode="&#58474;" /><glyph d="M253 800 294 592H242L140 800ZM419 800 461 592H409L308 800Z" glyph-name="doublegrave" horiz-adv-x="600" unicode="&#58386;" /><glyph d="M253 1030 294 822H242L140 1030ZM419 1030 461 822H409L308 1030Z" glyph-name="doublegrave.cap" horiz-adv-x="600" unicode="&#58412;" /><glyph d="M318 489Q286 489 259 469.5Q232 450 212 417.5Q192 385 178.5 343.5Q165 302 160 258Q214 275 254 293Q294 311 321 331.5Q348 352 361 376Q374 400 374 429Q374 458 360 473.5Q346 489 318 489ZM470 144Q432 69 372.5 29.5Q313 -10 232 -10Q132 -10 85 44.5Q38 99 38 195Q38 258 59 320.5Q80 383 119.5 432.5Q159 482 215 513Q271 544 340 544Q406 544 443.5 516Q481 488 481 433Q481 383 449 348Q417 313 368.5 287.5Q320 262 263 244.5Q206 227 157 214V201Q157 131 184.5 97Q212 63 261 63Q318 63 357.5 92Q397 121 431 169Z" glyph-name="e" horiz-adv-x="509" unicode="e" /><glyph d="M617 568 600 414H556Q550 442 542 461Q534 480 522 492Q510 504 491.5 509.5Q473 515 446 515H300L276 317H379Q408 317 424.5 335Q441 353 451 391H493L467 190H425Q425 227 413.5 246Q402 265 373 265H269L254 140Q252 124 251 112.5Q250 101 250 94Q250 70 267 61.5Q284 53 316 53H392Q419 53 439 58.5Q459 64 477 77.5Q495 91 513 114Q531 137 554 172H601L551 0H21L27 45Q75 47 99 60Q123 73 128 113L168 429Q169 441 170.5 453Q172 465 172 473Q172 500 149.5 510.5Q127 521 85 523L91 568Z" glyph-name="e.smcp" horiz-adv-x="661" unicode="&#57861;" /><glyph d="M259 695Q239 695 221.5 682Q204 669 190.5 647Q177 625 168 597Q159 569 156 539Q225 559 258.5 586.5Q292 614 292 657Q292 674 284.5 684.5Q277 695 259 695ZM373 457Q344 403 299.5 374Q255 345 195 345Q123 345 87.5 384.5Q52 424 52 492Q52 536 67.5 579.5Q83 623 112 658Q141 693 181.5 714.5Q222 736 272 736Q324 736 352.5 715Q381 694 381 652Q381 617 360.5 593Q340 569 307 552Q274 535 233.5 524Q193 513 154 504V496Q154 451 170.5 427.5Q187 404 222 404Q260 404 289.5 423.5Q319 443 344 476Z" glyph-name="e.superior" horiz-adv-x="371" unicode="&#58213;" /><glyph d="M318 489Q286 489 259 469.5Q232 450 212 417.5Q192 385 178.5 343.5Q165 302 160 258Q214 275 254 293Q294 311 321 331.5Q348 352 361 376Q374 400 374 429Q374 458 360 473.5Q346 489 318 489ZM470 144Q432 69 372.5 29.5Q313 -10 232 -10Q132 -10 85 44.5Q38 99 38 195Q38 258 59 320.5Q80 383 119.5 432.5Q159 482 215 513Q271 544 340 544Q406 544 443.5 516Q481 488 481 433Q481 383 449 348Q417 313 368.5 287.5Q320 262 263 244.5Q206 227 157 214V201Q157 131 184.5 97Q212 63 261 63Q318 63 357.5 92Q397 121 431 169ZM573 800 344 592H285L412 800Z" glyph-name="eacute" horiz-adv-x="509" unicode="&#233;" /><glyph d="M617 568 600 414H556Q550 442 542 461Q534 480 522 492Q510 504 491.5 509.5Q473 515 446 515H300L276 317H379Q408 317 424.5 335Q441 353 451 391H493L467 190H425Q425 227 413.5 246Q402 265 373 265H269L254 140Q252 124 251 112.5Q250 101 250 94Q250 70 267 61.5Q284 53 316 53H392Q419 53 439 58.5Q459 64 477 77.5Q495 91 513 114Q531 137 554 172H601L551 0H21L27 45Q75 47 99 60Q123 73 128 113L168 429Q169 441 170.5 453Q172 465 172 473Q172 500 149.5 510.5Q127 521 85 523L91 568ZM631 822 402 614H343L470 822Z" glyph-name="eacute.smcp" horiz-adv-x="661" unicode="&#57917;" /><glyph d="M336 601Q254 601 217 640.5Q180 680 180 753Q180 776 183 800H230Q230 765 238.5 742Q247 719 262.5 704.5Q278 690 299 684Q320 678 345 678Q395 678 435 704.5Q475 731 492 800H539Q527 705 479 653Q431 601 336 601ZM318 489Q286 489 259 469.5Q232 450 212 417.5Q192 385 178.5 343.5Q165 302 160 258Q214 275 254 293Q294 311 321 331.5Q348 352 361 376Q374 400 374 429Q374 458 360 473.5Q346 489 318 489ZM470 144Q432 69 372.5 29.5Q313 -10 232 -10Q132 -10 85 44.5Q38 99 38 195Q38 258 59 320.5Q80 383 119.5 432.5Q159 482 215 513Q271 544 340 544Q406 544 443.5 516Q481 488 481 433Q481 383 449 348Q417 313 368.5 287.5Q320 262 263 244.5Q206 227 157 214V201Q157 131 184.5 97Q212 63 261 63Q318 63 357.5 92Q397 121 431 169Z" glyph-name="ebreve" horiz-adv-x="509" unicode="&#277;" /><glyph d="M384 623Q302 623 265 662.5Q228 702 228 775Q228 798 231 822H278Q278 787 286.5 764Q295 741 310.5 726.5Q326 712 347 706Q368 700 393 700Q443 700 483 726.5Q523 753 540 822H587Q575 727 527 675Q479 623 384 623ZM617 568 600 414H556Q550 442 542 461Q534 480 522 492Q510 504 491.5 509.5Q473 515 446 515H300L276 317H379Q408 317 424.5 335Q441 353 451 391H493L467 190H425Q425 227 413.5 246Q402 265 373 265H269L254 140Q252 124 251 112.5Q250 101 250 94Q250 70 267 61.5Q284 53 316 53H392Q419 53 439 58.5Q459 64 477 77.5Q495 91 513 114Q531 137 554 172H601L551 0H21L27 45Q75 47 99 60Q123 73 128 113L168 429Q169 441 170.5 453Q172 465 172 473Q172 500 149.5 510.5Q127 521 85 523L91 568Z" glyph-name="ebreve.smcp" horiz-adv-x="661" unicode="&#57923;" /><glyph d="M318 489Q286 489 259 469.5Q232 450 212 417.5Q192 385 178.5 343.5Q165 302 160 258Q214 275 254 293Q294 311 321 331.5Q348 352 361 376Q374 400 374 429Q374 458 360 473.5Q346 489 318 489ZM470 144Q432 69 372.5 29.5Q313 -10 232 -10Q132 -10 85 44.5Q38 99 38 195Q38 258 59 320.5Q80 383 119.5 432.5Q159 482 215 513Q271 544 340 544Q406 544 443.5 516Q481 488 481 433Q481 383 449 348Q417 313 368.5 287.5Q320 262 263 244.5Q206 227 157 214V201Q157 131 184.5 97Q212 63 261 63Q318 63 357.5 92Q397 121 431 169ZM162 800H218L338 681L487 800H544L368 592H286Z" glyph-name="ecaron" horiz-adv-x="509" unicode="&#283;" /><glyph d="M617 568 600 414H556Q550 442 542 461Q534 480 522 492Q510 504 491.5 509.5Q473 515 446 515H300L276 317H379Q408 317 424.5 335Q441 353 451 391H493L467 190H425Q425 227 413.5 246Q402 265 373 265H269L254 140Q252 124 251 112.5Q250 101 250 94Q250 70 267 61.5Q284 53 316 53H392Q419 53 439 58.5Q459 64 477 77.5Q495 91 513 114Q531 137 554 172H601L551 0H21L27 45Q75 47 99 60Q123 73 128 113L168 429Q169 441 170.5 453Q172 465 172 473Q172 500 149.5 510.5Q127 521 85 523L91 568ZM212 822H268L388 703L537 822H594L418 614H336Z" glyph-name="ecaron.smcp" horiz-adv-x="661" unicode="&#57921;" /><glyph d="M318 489Q286 489 259 469.5Q232 450 212 417.5Q192 385 178.5 343.5Q165 302 160 258Q214 275 254 293Q294 311 321 331.5Q348 352 361 376Q374 400 374 429Q374 458 360 473.5Q346 489 318 489ZM470 144Q432 69 372.5 29.5Q313 -10 232 -10Q132 -10 85 44.5Q38 99 38 195Q38 258 59 320.5Q80 383 119.5 432.5Q159 482 215 513Q271 544 340 544Q406 544 443.5 516Q481 488 481 433Q481 383 449 348Q417 313 368.5 287.5Q320 262 263 244.5Q206 227 157 214V201Q157 131 184.5 97Q212 63 261 63Q318 63 357.5 92Q397 121 431 169ZM518 592H462L342 711L193 592H136L312 800H394Z" glyph-name="ecircumflex" horiz-adv-x="509" unicode="&#234;" /><glyph d="M617 568 600 414H556Q550 442 542 461Q534 480 522 492Q510 504 491.5 509.5Q473 515 446 515H300L276 317H379Q408 317 424.5 335Q441 353 451 391H493L467 190H425Q425 227 413.5 246Q402 265 373 265H269L254 140Q252 124 251 112.5Q250 101 250 94Q250 70 267 61.5Q284 53 316 53H392Q419 53 439 58.5Q459 64 477 77.5Q495 91 513 114Q531 137 554 172H601L551 0H21L27 45Q75 47 99 60Q123 73 128 113L168 429Q169 441 170.5 453Q172 465 172 473Q172 500 149.5 510.5Q127 521 85 523L91 568ZM568 614H512L392 733L243 614H186L362 822H444Z" glyph-name="ecircumflex.smcp" horiz-adv-x="661" unicode="&#57919;" /><glyph d="M318 489Q286 489 259 469.5Q232 450 212 417.5Q192 385 178.5 343.5Q165 302 160 258Q214 275 254 293Q294 311 321 331.5Q348 352 361 376Q374 400 374 429Q374 458 360 473.5Q346 489 318 489ZM470 144Q432 69 372.5 29.5Q313 -10 232 -10Q132 -10 85 44.5Q38 99 38 195Q38 258 59 320.5Q80 383 119.5 432.5Q159 482 215 513Q271 544 340 544Q406 544 443.5 516Q481 488 481 433Q481 383 449 348Q417 313 368.5 287.5Q320 262 263 244.5Q206 227 157 214V201Q157 131 184.5 97Q212 63 261 63Q318 63 357.5 92Q397 121 431 169ZM440 622Q408 622 388.5 642.5Q369 663 369 693Q369 726 392 749.5Q415 773 450 773Q482 773 501.5 752.5Q521 732 521 702Q521 669 498 645.5Q475 622 440 622ZM233 622Q201 622 181.5 642.5Q162 663 162 693Q162 726 185 749.5Q208 773 243 773Q275 773 294.5 752.5Q314 732 314 702Q314 669 291 645.5Q268 622 233 622Z" glyph-name="edieresis" horiz-adv-x="509" unicode="&#235;" /><glyph d="M617 568 600 414H556Q550 442 542 461Q534 480 522 492Q510 504 491.5 509.5Q473 515 446 515H300L276 317H379Q408 317 424.5 335Q441 353 451 391H493L467 190H425Q425 227 413.5 246Q402 265 373 265H269L254 140Q252 124 251 112.5Q250 101 250 94Q250 70 267 61.5Q284 53 316 53H392Q419 53 439 58.5Q459 64 477 77.5Q495 91 513 114Q531 137 554 172H601L551 0H21L27 45Q75 47 99 60Q123 73 128 113L168 429Q169 441 170.5 453Q172 465 172 473Q172 500 149.5 510.5Q127 521 85 523L91 568ZM490 644Q458 644 438.5 664.5Q419 685 419 715Q419 748 442 771.5Q465 795 500 795Q532 795 551.5 774.5Q571 754 571 724Q571 691 548 667.5Q525 644 490 644ZM283 644Q251 644 231.5 664.5Q212 685 212 715Q212 748 235 771.5Q258 795 293 795Q325 795 344.5 774.5Q364 754 364 724Q364 691 341 667.5Q318 644 283 644Z" glyph-name="edieresis.smcp" horiz-adv-x="661" unicode="&#57904;" /><glyph d="M337 622Q305 622 285.5 642.5Q266 663 266 693Q266 726 289 749.5Q312 773 346 773Q378 773 397.5 752.5Q417 732 417 702Q417 669 394.5 645.5Q372 622 337 622ZM318 489Q286 489 259 469.5Q232 450 212 417.5Q192 385 178.5 343.5Q165 302 160 258Q214 275 254 293Q294 311 321 331.5Q348 352 361 376Q374 400 374 429Q374 458 360 473.5Q346 489 318 489ZM470 144Q432 69 372.5 29.5Q313 -10 232 -10Q132 -10 85 44.5Q38 99 38 195Q38 258 59 320.5Q80 383 119.5 432.5Q159 482 215 513Q271 544 340 544Q406 544 443.5 516Q481 488 481 433Q481 383 449 348Q417 313 368.5 287.5Q320 262 263 244.5Q206 227 157 214V201Q157 131 184.5 97Q212 63 261 63Q318 63 357.5 92Q397 121 431 169Z" glyph-name="edotaccent" horiz-adv-x="509" unicode="&#279;" /><glyph d="M387 644Q355 644 335.5 664.5Q316 685 316 715Q316 748 339 771.5Q362 795 396 795Q428 795 447.5 774.5Q467 754 467 724Q467 691 444.5 667.5Q422 644 387 644ZM617 568 600 414H556Q550 442 542 461Q534 480 522 492Q510 504 491.5 509.5Q473 515 446 515H300L276 317H379Q408 317 424.5 335Q441 353 451 391H493L467 190H425Q425 227 413.5 246Q402 265 373 265H269L254 140Q252 124 251 112.5Q250 101 250 94Q250 70 267 61.5Q284 53 316 53H392Q419 53 439 58.5Q459 64 477 77.5Q495 91 513 114Q531 137 554 172H601L551 0H21L27 45Q75 47 99 60Q123 73 128 113L168 429Q169 441 170.5 453Q172 465 172 473Q172 500 149.5 510.5Q127 521 85 523L91 568Z" glyph-name="edotaccent.smcp" horiz-adv-x="661" unicode="&#57926;" /><glyph d="M286 800 362 592H306L136 800ZM318 489Q286 489 259 469.5Q232 450 212 417.5Q192 385 178.5 343.5Q165 302 160 258Q214 275 254 293Q294 311 321 331.5Q348 352 361 376Q374 400 374 429Q374 458 360 473.5Q346 489 318 489ZM470 144Q432 69 372.5 29.5Q313 -10 232 -10Q132 -10 85 44.5Q38 99 38 195Q38 258 59 320.5Q80 383 119.5 432.5Q159 482 215 513Q271 544 340 544Q406 544 443.5 516Q481 488 481 433Q481 383 449 348Q417 313 368.5 287.5Q320 262 263 244.5Q206 227 157 214V201Q157 131 184.5 97Q212 63 261 63Q318 63 357.5 92Q397 121 431 169Z" glyph-name="egrave" horiz-adv-x="509" unicode="&#232;" /><glyph d="M345 822 421 614H365L195 822ZM617 568 600 414H556Q550 442 542 461Q534 480 522 492Q510 504 491.5 509.5Q473 515 446 515H300L276 317H379Q408 317 424.5 335Q441 353 451 391H493L467 190H425Q425 227 413.5 246Q402 265 373 265H269L254 140Q252 124 251 112.5Q250 101 250 94Q250 70 267 61.5Q284 53 316 53H392Q419 53 439 58.5Q459 64 477 77.5Q495 91 513 114Q531 137 554 172H601L551 0H21L27 45Q75 47 99 60Q123 73 128 113L168 429Q169 441 170.5 453Q172 465 172 473Q172 500 149.5 510.5Q127 521 85 523L91 568Z" glyph-name="egrave.smcp" horiz-adv-x="661" unicode="&#57918;" /><glyph d="M406 448Q435 463 455 479.5Q475 496 488 515Q501 534 506.5 556.5Q512 579 512 607Q512 660 479.5 696Q447 732 382 732Q322 732 289.5 699.5Q257 667 257 612Q257 536 334 490ZM288 371Q254 356 231.5 337.5Q209 319 195.5 297.5Q182 276 176 252Q170 228 170 201Q170 132 211.5 90Q253 48 327 48Q394 48 436.5 83.5Q479 119 479 189Q479 229 454.5 259Q430 289 386 315ZM623 607Q623 569 608 539Q593 509 568.5 486.5Q544 464 511.5 449Q479 434 443 425L471 408Q531 373 565.5 329Q600 285 600 218Q600 171 582 130Q564 89 529 57.5Q494 26 443 8Q392 -10 325 -10Q263 -10 213 5.5Q163 21 127.5 49Q92 77 72.5 114.5Q53 152 53 196Q53 238 68.5 270Q84 302 111 326Q138 350 174 366.5Q210 383 251 393L237 401Q196 424 166.5 468.5Q137 513 137 574Q137 620 154 659.5Q171 699 202.5 728Q234 757 280 773.5Q326 790 383 790Q440 790 484.5 776Q529 762 559.5 737.5Q590 713 606.5 679.5Q623 646 623 607Z" glyph-name="eight" horiz-adv-x="700" unicode="8" /><glyph d="M402 448Q431 463 451 479.5Q471 496 484 515Q497 534 502.5 556.5Q508 579 508 607Q508 660 475.5 696Q443 732 378 732Q318 732 285.5 699.5Q253 667 253 612Q253 536 330 490ZM284 371Q250 356 227.5 337.5Q205 319 191.5 297.5Q178 276 172 252Q166 228 166 201Q166 132 207.5 90Q249 48 323 48Q390 48 432.5 83.5Q475 119 475 189Q475 229 450.5 259Q426 289 382 315ZM619 607Q619 569 604 539Q589 509 564.5 486.5Q540 464 507.5 449Q475 434 439 425L467 408Q527 373 561.5 329Q596 285 596 218Q596 171 578 130Q560 89 525 57.5Q490 26 439 8Q388 -10 321 -10Q259 -10 209 5.5Q159 21 123.5 49Q88 77 68.5 114.5Q49 152 49 196Q49 238 64.5 270Q80 302 107 326Q134 350 170 366.5Q206 383 247 393L233 401Q192 424 162.5 468.5Q133 513 133 574Q133 620 150 659.5Q167 699 198.5 728Q230 757 276 773.5Q322 790 379 790Q436 790 480.5 776Q525 762 555.5 737.5Q586 713 602.5 679.5Q619 646 619 607Z" glyph-name="eight.LP" horiz-adv-x="664" unicode="&#58685;" /><glyph d="M406 448Q435 463 455 479.5Q475 496 488 515Q501 534 506.5 556.5Q512 579 512 607Q512 660 479.5 696Q447 732 382 732Q322 732 289.5 699.5Q257 667 257 612Q257 536 334 490ZM288 371Q254 356 231.5 337.5Q209 319 195.5 297.5Q182 276 176 252Q170 228 170 201Q170 132 211.5 90Q253 48 327 48Q394 48 436.5 83.5Q479 119 479 189Q479 229 454.5 259Q430 289 386 315ZM623 607Q623 569 608 539Q593 509 568.5 486.5Q544 464 511.5 449Q479 434 443 425L471 408Q531 373 565.5 329Q600 285 600 218Q600 171 582 130Q564 89 529 57.5Q494 26 443 8Q392 -10 325 -10Q263 -10 213 5.5Q163 21 127.5 49Q92 77 72.5 114.5Q53 152 53 196Q53 238 68.5 270Q84 302 111 326Q138 350 174 366.5Q210 383 251 393L237 401Q196 424 166.5 468.5Q137 513 137 574Q137 620 154 659.5Q171 699 202.5 728Q234 757 280 773.5Q326 790 383 790Q440 790 484.5 776Q529 762 559.5 737.5Q590 713 606.5 679.5Q623 646 623 607Z" glyph-name="eight.LT" horiz-adv-x="700" unicode="&#58696;" /><glyph d="M225 631Q225 608 230 590.5Q235 573 244 557Q253 541 266.5 525.5Q280 510 298 492L347 443Q400 474 427 514.5Q454 555 454 610Q454 666 423.5 701.5Q393 737 336 737Q288 737 256.5 708Q225 679 225 631ZM260 366Q198 334 170.5 291Q143 248 143 191Q143 160 153 132.5Q163 105 182 85Q201 65 226.5 53Q252 41 284 41Q338 41 373.5 71.5Q409 102 409 157Q409 200 388 233Q367 266 332 299ZM32 190Q32 231 47 263Q62 295 88 319.5Q114 344 150.5 362.5Q187 381 229 395L216 408Q199 424 181.5 443.5Q164 463 149.5 486.5Q135 510 126 537Q117 564 117 594Q117 634 130.5 670Q144 706 171.5 732.5Q199 759 240.5 774.5Q282 790 338 790Q389 790 430 776Q471 762 499.5 738Q528 714 543 681.5Q558 649 558 612Q558 571 543.5 540Q529 509 504 485.5Q479 462 446.5 444Q414 426 377 413L427 364Q445 346 461.5 327Q478 308 491.5 286.5Q505 265 513 241Q521 217 521 190Q521 144 503.5 107Q486 70 454 44Q422 18 378 4Q334 -10 282 -10Q223 -10 176.5 7Q130 24 98 52Q66 80 49 116Q32 152 32 190Z" glyph-name="eight.OP" horiz-adv-x="591" unicode="&#58707;" /><glyph d="M284 631Q284 608 289 590.5Q294 573 303 557Q312 541 325.5 525.5Q339 510 357 492L406 443Q459 473 486 514Q513 555 513 610Q513 666 482.5 701.5Q452 737 395 737Q346 737 315 708Q284 679 284 631ZM319 367Q257 335 229.5 291.5Q202 248 202 191Q202 160 212 132.5Q222 105 241 85Q260 65 285.5 53Q311 41 343 41Q397 41 432.5 71.5Q468 102 468 157Q468 200 447 233Q426 266 391 299ZM91 190Q91 231 106 263Q121 295 147 320Q173 345 209.5 363Q246 381 288 395L275 408Q258 424 240.5 443.5Q223 463 208.5 486.5Q194 510 185 537Q176 564 176 594Q176 634 189.5 670Q203 706 230.5 732.5Q258 759 299.5 774.5Q341 790 397 790Q448 790 489 776Q530 762 558.5 738Q587 714 602 681.5Q617 649 617 612Q617 571 602.5 540Q588 509 563 485.5Q538 462 505.5 444Q473 426 436 413L485 364Q503 346 520 327Q537 308 550.5 286.5Q564 265 572 241Q580 217 580 190Q580 144 562.5 107Q545 70 513 44Q481 18 437 4Q393 -10 341 -10Q282 -10 235.5 7Q189 24 157 52Q125 80 108 116Q91 152 91 190Z" glyph-name="eight.OT" horiz-adv-x="700" unicode="&#58718;" /><glyph d="M236 42Q290 73 290 136Q290 168 270.5 188Q251 208 213 208Q178 208 158.5 189Q139 170 139 138Q139 95 186 70ZM142 -20Q111 -36 98 -60.5Q85 -85 85 -115Q85 -156 110 -180Q135 -204 180 -204Q218 -204 241.5 -184Q265 -164 265 -129Q265 -106 251 -89Q237 -72 208 -56ZM372 137Q372 113 363 94.5Q354 76 339 62.5Q324 49 304 40.5Q284 32 262 28L276 20Q316 -1 338.5 -29Q361 -57 361 -99Q361 -165 312.5 -205.5Q264 -246 179 -246Q138 -246 104.5 -236.5Q71 -227 47 -210.5Q23 -194 10 -171Q-3 -148 -3 -121Q-3 -96 7 -76Q17 -56 33.5 -42Q50 -28 71.5 -19Q93 -10 117 -6L108 -1Q82 13 64.5 40.5Q47 68 47 106Q47 171 91.5 210.5Q136 250 214 250Q291 250 331.5 218Q372 186 372 137Z" glyph-name="eight.inf" horiz-adv-x="429" unicode="&#58745;" /><glyph d="M747 74Q747 92 753.5 107.5Q760 123 771.5 134.5Q783 146 798.5 152.5Q814 159 831 159Q867 159 891.5 134Q916 109 916 74Q916 39 891.5 14.5Q867 -10 831 -10Q814 -10 798.5 -3.5Q783 3 771.5 14.5Q760 26 753.5 41Q747 56 747 74ZM416 74Q416 109 440.5 134Q465 159 500 159Q535 159 560 134Q585 109 585 74Q585 39 560 14.5Q535 -10 500 -10Q465 -10 440.5 14.5Q416 39 416 74ZM84 74Q84 92 90.5 107.5Q97 123 108.5 134.5Q120 146 135.5 152.5Q151 159 168 159Q204 159 228.5 134Q253 109 253 74Q253 39 228.5 14.5Q204 -10 168 -10Q151 -10 135.5 -3.5Q120 3 108.5 14.5Q97 26 90.5 41Q84 56 84 74Z" glyph-name="ellipsis" horiz-adv-x="1000" unicode="&#8230;" /><glyph d="M201 710H478L469 640H192ZM318 489Q286 489 259 469.5Q232 450 212 417.5Q192 385 178.5 343.5Q165 302 160 258Q214 275 254 293Q294 311 321 331.5Q348 352 361 376Q374 400 374 429Q374 458 360 473.5Q346 489 318 489ZM470 144Q432 69 372.5 29.5Q313 -10 232 -10Q132 -10 85 44.5Q38 99 38 195Q38 258 59 320.5Q80 383 119.5 432.5Q159 482 215 513Q271 544 340 544Q406 544 443.5 516Q481 488 481 433Q481 383 449 348Q417 313 368.5 287.5Q320 262 263 244.5Q206 227 157 214V201Q157 131 184.5 97Q212 63 261 63Q318 63 357.5 92Q397 121 431 169Z" glyph-name="emacron" horiz-adv-x="509" unicode="&#275;" /><glyph d="M256 732H533L524 662H247ZM617 568 600 414H556Q550 442 542 461Q534 480 522 492Q510 504 491.5 509.5Q473 515 446 515H300L276 317H379Q408 317 424.5 335Q441 353 451 391H493L467 190H425Q425 227 413.5 246Q402 265 373 265H269L254 140Q252 124 251 112.5Q250 101 250 94Q250 70 267 61.5Q284 53 316 53H392Q419 53 439 58.5Q459 64 477 77.5Q495 91 513 114Q531 137 554 172H601L551 0H21L27 45Q75 47 99 60Q123 73 128 113L168 429Q169 441 170.5 453Q172 465 172 473Q172 500 149.5 510.5Q127 521 85 523L91 568Z" glyph-name="emacron.smcp" horiz-adv-x="661" unicode="&#57922;" /><glyph d="M60 292 69 373H955L946 292Z" glyph-name="emdash" horiz-adv-x="1000" unicode="&#8212;" /><glyph d="M69 348 78 429H964L954 348Z" glyph-name="emdash.cap" horiz-adv-x="1000" unicode="&#58502;" /><glyph d="M57 245 67 326H953L943 245Z" glyph-name="emdash.smcp" horiz-adv-x="1000" unicode="&#60324;" /><glyph glyph-name="emspace" horiz-adv-x="1000" unicode="&#8195;" /><glyph d="M60 292 69 373H455L446 292Z" glyph-name="endash" horiz-adv-x="500" unicode="&#8211;" /><glyph d="M69 348 78 429H464L454 348Z" glyph-name="endash.cap" horiz-adv-x="500" unicode="&#58500;" /><glyph d="M57 245 67 326H453L443 245Z" glyph-name="endash.smcp" horiz-adv-x="500" unicode="&#60323;" /><glyph d="M485 329Q493 366 495.5 391Q498 416 498 430Q498 440 495 449.5Q492 459 478 459Q455 459 421.5 423.5Q388 388 350 326Q312 264 274 180.5Q236 97 205 0H88L160 405Q162 414 163 425.5Q164 437 164 442Q164 453 159.5 459Q155 465 141 465Q122 465 101 444.5Q80 424 58 395L24 421Q66 490 112.5 517Q159 544 205 544Q250 544 267 523Q284 502 284 467Q284 455 281 435.5Q278 416 270 386L215 162H219Q252 241 288 310.5Q324 380 364 432Q404 484 448 514Q492 544 541 544Q583 544 601.5 520.5Q620 497 620 454Q620 426 614.5 392.5Q609 359 601 322L537 35Q518 -49 494.5 -104.5Q471 -160 442.5 -192Q414 -224 380.5 -237Q347 -250 307 -250Q244 -250 209.5 -224Q175 -198 175 -158Q175 -133 187 -115.5Q199 -98 214 -90H265Q269 -142 282 -173Q295 -204 325 -204Q341 -204 353 -193Q365 -182 375.5 -155.5Q386 -129 397.5 -86Q409 -43 423 21Z" glyph-name="eng" horiz-adv-x="661" unicode="&#331;" /><glyph d="M233 427 199 139Q197 127 196 115Q195 103 195 95Q195 68 217.5 57.5Q240 47 282 45L276 0H21L27 45Q75 47 99 60Q123 73 128 113L172 468Q163 521 85 523L91 568H280L558 188L586 429Q588 441 589 453Q590 465 590 473Q590 500 567.5 510.5Q545 521 503 523L509 568H763L757 523Q710 521 685.5 508Q661 495 656 455L591 -81Q581 -162 532.5 -206Q484 -250 406 -250Q319 -250 278 -218.5Q237 -187 237 -139Q237 -112 249.5 -94Q262 -76 281 -68H363Q355 -98 355 -126Q355 -161 369 -180.5Q383 -200 419 -200Q457 -200 485 -170Q513 -140 522 -77L536 23Z" glyph-name="eng.smcp" horiz-adv-x="751" unicode="&#58155;" /><glyph glyph-name="enspace" horiz-adv-x="500" unicode="&#8194;" /><glyph d="M318 489Q286 489 259 469.5Q232 450 212 417.5Q192 385 178.5 343.5Q165 302 160 258Q214 275 254 293Q294 311 321 331.5Q348 352 361 376Q374 400 374 429Q374 458 360 473.5Q346 489 318 489ZM470 144Q447 99 414.5 68.5Q382 38 346 15Q301 -12 274 -44.5Q247 -77 247 -124Q247 -156 264 -171.5Q281 -187 310 -187Q330 -187 345.5 -183Q361 -179 378 -171L384 -205Q361 -226 332 -238Q303 -250 267 -250Q222 -250 190.5 -228Q159 -206 159 -156Q159 -112 181 -75.5Q203 -39 243 -10Q135 -10 86.5 45Q38 100 38 195Q38 258 59 320.5Q80 383 119.5 432.5Q159 482 215 513Q271 544 340 544Q406 544 443.5 516Q481 488 481 433Q481 383 449 348Q417 313 368.5 287.5Q320 262 263 244.5Q206 227 157 214V201Q157 131 184.5 97Q212 63 261 63Q318 63 357.5 92Q397 121 431 169Z" glyph-name="eogonek" horiz-adv-x="509" unicode="&#281;" /><glyph d="M617 568 600 414H556Q550 442 542 461Q534 480 522 492Q510 504 491.5 509.5Q473 515 446 515H300L276 317H379Q408 317 424.5 335Q441 353 451 391H493L467 190H425Q425 227 413.5 246Q402 265 373 265H269L254 140Q252 124 251 112.5Q250 101 250 94Q250 70 267 61.5Q284 53 316 53H392Q419 53 439 58.5Q459 64 477 77.5Q495 91 513 114Q531 137 554 172H601L551 0Q487 -23 450 -57.5Q413 -92 413 -135Q413 -160 429.5 -173.5Q446 -187 476 -187Q496 -187 511.5 -183Q527 -179 544 -171L551 -205Q528 -226 499 -238Q470 -250 433 -250Q388 -250 356.5 -228.5Q325 -207 325 -158Q325 -104 359 -66Q393 -28 450 0H21L27 45Q75 47 99 60Q123 73 128 113L168 429Q169 441 170.5 453Q172 465 172 473Q172 500 149.5 510.5Q127 521 85 523L91 568Z" glyph-name="eogonek.smcp" horiz-adv-x="661" unicode="&#57929;" /><glyph d="M62 173 70 244H610L602 173ZM82 340 91 412H631L622 340Z" glyph-name="equal" horiz-adv-x="700" unicode="=" /><glyph d="M100 438 109 509H649L640 438ZM80 271 88 342H628L620 271Z" glyph-name="equal.cap" horiz-adv-x="700" unicode="&#58773;" /><glyph d="M22 10 28 63H366L360 10ZM9 -93 16 -39H354L347 -93Z" glyph-name="equal.inf" horiz-adv-x="438" unicode="&#58749;" /><glyph d="M92 356 100 425H640L632 356ZM121 591 129 660H669L661 591ZM62 120 71 189H611L602 120Z" glyph-name="equivalence" horiz-adv-x="700" unicode="&#8801;" /><glyph d="M99 454 107 523H647L639 454ZM128 689 136 758H676L668 689ZM69 218 78 287H618L609 218Z" glyph-name="equivalence.cap" horiz-adv-x="700" unicode="&#62000;" /><glyph d="M401 726Q331 726 283 701Q235 676 205 634Q175 592 160.5 537Q146 482 143 422H660Q657 482 642.5 537Q628 592 597.5 634Q567 676 519 701Q471 726 401 726ZM142 358Q145 298 160.5 243Q176 188 209 146Q242 104 295 79.5Q348 55 425 55Q540 55 612 108Q684 161 698 265H776Q768 194 739.5 142.5Q711 91 665 57Q619 23 557 6.5Q495 -10 420 -10Q327 -10 251 18Q175 46 122 98.5Q69 151 40 224.5Q11 298 11 390Q11 481 39.5 555Q68 629 119.5 681Q171 733 243 761Q315 789 401 789Q487 789 559 761Q631 733 682.5 681Q734 629 762.5 555Q791 481 791 390V358Z" glyph-name="estimated" horiz-adv-x="802" unicode="&#8494;" /><glyph d="M244 41Q281 41 310 69.5Q339 98 358.5 143Q378 188 388.5 242.5Q399 297 399 348Q399 417 381 454.5Q363 492 318 492Q281 492 252 463.5Q223 435 203 390.5Q183 346 172.5 291.5Q162 237 162 186Q162 117 180 79Q198 41 244 41ZM178 647 305 696Q285 721 262 743.5Q239 766 212 786V793L264 815Q329 780 382 725L493 768L513 728L414 689Q465 624 494.5 541Q524 458 524 358Q524 286 504 219.5Q484 153 446.5 102Q409 51 355 20.5Q301 -10 234 -10Q184 -10 147 6Q110 22 86 50Q62 78 50 116.5Q38 155 38 200Q38 266 58 328Q78 390 115.5 438Q153 486 206.5 515Q260 544 326 544Q361 544 388 532Q380 561 366 593.5Q352 626 332 658L198 606Z" glyph-name="eth" horiz-adv-x="562" unicode="&#240;" /><glyph d="M275 313H420L414 262H269L254 140Q252 124 251 112.5Q250 101 250 94Q250 70 266.5 61.5Q283 53 312 53H337Q436 53 492 124.5Q548 196 548 327Q548 419 499 467Q450 515 356 515H300ZM63 313H153L168 429Q169 441 170.5 453Q172 465 172 473Q172 500 149.5 510.5Q127 521 85 523L91 568H365Q515 568 597.5 506.5Q680 445 680 324Q680 250 656 190.5Q632 131 587.5 88.5Q543 46 480.5 23Q418 0 340 0H21L27 45Q75 47 99 60Q123 73 128 113L147 262H57Z" glyph-name="eth.smcp" horiz-adv-x="715" unicode="&#58156;" /><glyph d="M59 74Q59 92 65.5 107.5Q72 123 83.5 134.5Q95 146 110.5 152.5Q126 159 143 159Q179 159 203.5 134Q228 109 228 74Q228 39 203.5 14.5Q179 -10 143 -10Q126 -10 110.5 -3.5Q95 3 83.5 14.5Q72 26 65.5 41Q59 56 59 74ZM316 734 257 496Q248 458 238 420Q228 382 219 346.5Q210 311 202.5 280Q195 249 191 225H130Q132 250 134 282.5Q136 315 137.5 350.5Q139 386 140.5 423.5Q142 461 143 497L151 734L157 780H322Z" glyph-name="exclam" horiz-adv-x="331" unicode="!" /><glyph d="M60 72Q60 107 83.5 130.5Q107 154 142 154Q177 154 201 130.5Q225 107 225 72Q225 37 201 13.5Q177 -10 142 -10Q107 -10 83.5 13.5Q60 37 60 72ZM279 526 231 372 187 202H129V375L124 526L130 568H284Z" glyph-name="exclam.smcp" horiz-adv-x="331" unicode="&#58434;" /><glyph d="M275 460Q275 442 268.5 426.5Q262 411 250.5 399.5Q239 388 223.5 381.5Q208 375 191 375Q155 375 130.5 400Q106 425 106 460Q106 495 130.5 519.5Q155 544 191 544Q208 544 223.5 537.5Q239 531 250.5 519.5Q262 508 268.5 493Q275 478 275 460ZM18 -200 77 38Q86 76 96 114Q106 152 115 187.5Q124 223 131 254Q138 285 143 309H204Q202 283 200 251Q198 219 196.5 183.5Q195 148 193.5 110.5Q192 73 191 37L183 -200L177 -246H12Z" glyph-name="exclamdown" horiz-adv-x="331" unicode="&#161;" /><glyph d="M307 706Q307 688 300.5 672.5Q294 657 282.5 645.5Q271 634 255.5 627.5Q240 621 223 621Q187 621 162.5 646Q138 671 138 706Q138 741 162.5 765.5Q187 790 223 790Q240 790 255.5 783.5Q271 777 282.5 765.5Q294 754 300.5 739Q307 724 307 706ZM50 46 109 284Q118 322 128 360Q138 398 147 433.5Q156 469 163 500Q170 531 175 555H236Q234 529 232 497Q230 465 228.5 429.5Q227 394 225.5 356.5Q224 319 223 283L215 46L209 0H44Z" glyph-name="exclamdown.cap" horiz-adv-x="331" unicode="&#58433;" /><glyph d="M279 496Q279 461 255.5 437.5Q232 414 197 414Q162 414 138 437.5Q114 461 114 496Q114 531 138 554.5Q162 578 197 578Q232 578 255.5 554.5Q279 531 279 496ZM60 42 108 196 152 366H210V193L215 42L209 0H55Z" glyph-name="exclamdown.smcp" horiz-adv-x="331" unicode="&#58435;" /><glyph d="M213 108Q184 -74 119 -162Q54 -250 -53 -250Q-122 -250 -157.5 -224Q-193 -198 -193 -158Q-193 -133 -181 -115.5Q-169 -98 -154 -90H-102Q-97 -141 -80 -170.5Q-63 -200 -33 -200Q10 -200 38 -156Q66 -112 80 -6L146 475H70L80 534H155L162 569Q172 622 192.5 666Q213 710 244.5 742Q276 774 319 792Q362 810 417 810Q476 810 508.5 787.5Q541 765 541 724Q541 701 530 682.5Q519 664 503 656H448Q445 703 429.5 730.5Q414 758 378 758Q347 758 327 733Q307 708 297 650L278 534H421L411 475H269Z" glyph-name="f" horiz-adv-x="396" unicode="f" /><glyph d="M611 568 594 412H550Q544 440 536 459.5Q528 479 516 491.5Q504 504 485.5 509.5Q467 515 440 515H300L274 304H372Q401 304 417.5 322Q434 340 444 378H486L460 177H418Q418 214 406.5 233Q395 252 366 252H268L254 138Q252 127 251 115Q250 103 250 95Q250 66 274.5 57Q299 48 360 45L353 0H21L27 45Q75 47 99 60Q123 73 128 113L168 429Q169 441 170.5 453Q172 465 172 473Q172 500 149.5 510.5Q127 521 85 523L91 568Z" glyph-name="f.smcp" horiz-adv-x="617" unicode="&#57862;" /><glyph d="M-38 295Q-33 257 -23.5 235.5Q-14 214 8 214Q34 214 49.5 240Q65 266 73 328L123 684H70L78 729H131L135 750Q150 827 195.5 873Q241 919 324 919Q369 919 396 902.5Q423 886 423 854Q423 837 414.5 824.5Q406 812 392 805H344Q342 840 333 861.5Q324 883 299 883Q279 883 267.5 867Q256 851 250 815L235 729H335L327 684H228L188 435Q166 301 120.5 239Q75 177 -8 177Q-58 177 -85 195Q-112 213 -112 244Q-112 261 -103.5 275Q-95 289 -82 295Z" glyph-name="f.superior" horiz-adv-x="288" unicode="&#58214;" /><glyph d="M522 688Q510 719 478.5 740Q447 761 410 761Q360 761 333 730.5Q306 700 293 625L278 534H408L398 475H269L213 108Q184 -74 119 -162Q54 -250 -53 -250Q-122 -250 -157.5 -224Q-193 -198 -193 -158Q-193 -133 -181 -115.5Q-169 -98 -154 -90H-102Q-97 -141 -80 -170.5Q-63 -200 -33 -200Q10 -200 38 -156Q66 -112 80 -6L146 475H70L80 534H155L162 569Q172 621 194.5 665Q217 709 250.5 741.5Q284 774 327.5 792Q371 810 423 810Q463 810 499.5 799.5Q536 789 555 775L624 810H661Q652 741 638.5 664Q625 587 609 512Q593 437 577 370Q561 303 546 255H550Q580 318 613.5 371Q647 424 684.5 462.5Q722 501 763.5 522.5Q805 544 849 544Q880 544 902 532.5Q924 521 937.5 500.5Q951 480 957 453Q963 426 963 396Q963 321 936 248Q909 175 861.5 117.5Q814 60 750.5 25Q687 -10 614 -10Q539 -10 486.5 19Q434 48 416 96Q431 173 448 259.5Q465 346 480 427Q495 508 506 577Q517 646 522 688ZM789 465Q768 465 741.5 446Q715 427 687.5 396Q660 365 633.5 327Q607 289 586 250.5Q565 212 552.5 177.5Q540 143 540 120Q540 85 558 64.5Q576 44 620 44Q672 44 712 78.5Q752 113 779.5 164Q807 215 821.5 272.5Q836 330 836 377Q836 421 826.5 443Q817 465 789 465Z" glyph-name="f_b" horiz-adv-x="997" unicode="&#58241;" /><glyph d="M544 118Q528 20 505 -47.5Q482 -115 451 -156.5Q420 -198 380 -216.5Q340 -235 290 -235Q242 -235 207.5 -214.5Q173 -194 173 -155Q173 -135 183 -119.5Q193 -104 210 -95H259Q262 -140 273.5 -161.5Q285 -183 313 -183Q331 -183 346.5 -173.5Q362 -164 374 -141.5Q386 -119 396 -81.5Q406 -44 414 13L477 475H269L213 108Q185 -74 119.5 -162Q54 -250 -53 -250Q-122 -250 -157.5 -224Q-193 -198 -193 -158Q-193 -133 -181 -115.5Q-169 -98 -154 -90H-102Q-97 -141 -80 -170.5Q-63 -200 -33 -200Q10 -200 38 -156Q66 -112 80 -6L146 475H70L80 534H155L160 557Q172 610 192.5 654Q213 698 243 730Q273 762 311.5 779.5Q350 797 397 797Q448 797 475 775.5Q502 754 502 718Q502 693 488 678Q474 663 456 656H410Q408 702 400.5 723Q393 744 367 744Q314 744 295 633L278 534H486L493 569Q503 621 525.5 665Q548 709 581.5 741.5Q615 774 658.5 792Q702 810 755 810Q795 810 831.5 799.5Q868 789 886 775L956 810H993Q984 741 970 664Q956 587 940.5 512Q925 437 908.5 370Q892 303 878 255H882Q911 318 945 371Q979 424 1016.5 462.5Q1054 501 1095.5 522.5Q1137 544 1181 544Q1212 544 1234 532.5Q1256 521 1269 500.5Q1282 480 1288 453Q1294 426 1294 396Q1294 321 1267 248Q1240 175 1193 117.5Q1146 60 1082 25Q1018 -10 945 -10Q870 -10 818 19Q766 48 748 96Q763 173 779.5 259.5Q796 346 811 427Q826 508 837.5 577Q849 646 853 688Q842 719 810 738.5Q778 758 741 758Q691 758 664.5 729Q638 700 625 625L609 534H740L730 475H601ZM1121 465Q1100 465 1073.5 446Q1047 427 1019.5 396Q992 365 965.5 327Q939 289 918 250.5Q897 212 884.5 177.5Q872 143 872 120Q872 85 889.5 64.5Q907 44 952 44Q1003 44 1043 78.5Q1083 113 1110.5 164Q1138 215 1152.5 272.5Q1167 330 1167 377Q1167 421 1157.5 443Q1148 465 1121 465Z" glyph-name="f_f_b" horiz-adv-x="1329" unicode="&#58242;" /><glyph d="M544 118Q528 20 505 -47.5Q482 -115 451 -156.5Q420 -198 380 -216.5Q340 -235 290 -235Q242 -235 207.5 -214.5Q173 -194 173 -155Q173 -135 183 -119.5Q193 -104 210 -95H259Q262 -140 273.5 -161.5Q285 -183 313 -183Q331 -183 346.5 -173.5Q362 -164 374 -141.5Q386 -119 396 -81.5Q406 -44 414 13L477 475H269L213 108Q185 -74 119.5 -162Q54 -250 -53 -250Q-122 -250 -157.5 -224Q-193 -198 -193 -158Q-193 -133 -181 -115.5Q-169 -98 -154 -90H-102Q-97 -141 -80 -170.5Q-63 -200 -33 -200Q10 -200 38 -156Q66 -112 80 -6L146 475H70L80 534H155L160 557Q172 610 192.5 654Q213 698 243 730Q273 762 311.5 779.5Q350 797 397 797Q448 797 475 775.5Q502 754 502 718Q502 693 488 678Q474 663 456 656H410Q408 702 400.5 723Q393 744 367 744Q314 744 295 633L278 534H486L493 569Q503 621 525.5 665Q548 709 581.5 741.5Q615 774 659 792Q703 810 755 810Q795 810 831.5 799.5Q868 789 886 775L956 810H993Q982 731 966 640.5Q950 550 931.5 462Q913 374 894 295.5Q875 217 859 162H863Q896 241 932 310.5Q968 380 1008 432Q1048 484 1092 514Q1136 544 1185 544Q1228 544 1247 520.5Q1266 497 1266 454Q1266 420 1254.5 368Q1243 316 1229.5 262Q1216 208 1204.5 161.5Q1193 115 1193 93Q1193 65 1215 65Q1232 65 1251 81.5Q1270 98 1296 129L1329 103Q1291 47 1249.5 18.5Q1208 -10 1157 -10Q1114 -10 1092 12Q1070 34 1070 72Q1070 98 1081 147Q1092 196 1105.5 249.5Q1119 303 1130.5 352.5Q1142 402 1142 430Q1142 440 1139 449.5Q1136 459 1122 459Q1099 459 1065.5 423.5Q1032 388 994.5 326Q957 264 919 180.5Q881 97 850 0H731Q749 91 768 191Q787 291 804.5 384Q822 477 835 556.5Q848 636 853 688Q842 719 810 738.5Q778 758 741 758Q692 758 665 729Q638 700 625 625L609 534H740L730 475H601Z" glyph-name="f_f_h" horiz-adv-x="1356" unicode="&#58243;" /><glyph d="M493 569Q503 622 526 666Q549 710 583.5 742Q618 774 663 792Q708 810 763 810Q829 810 862.5 787.5Q896 765 896 724Q896 701 885 682Q874 663 858 655H800Q797 701 781.5 729.5Q766 758 725 758Q687 758 661.5 725.5Q636 693 622 609L609 534H847Q889 534 908 516.5Q927 499 927 467Q927 449 925 427.5Q923 406 919 380L876 118Q847 -62 786.5 -148.5Q726 -235 622 -235Q598 -235 576.5 -230Q555 -225 538.5 -214.5Q522 -204 512.5 -188.5Q503 -173 503 -152Q503 -129 514 -112Q525 -95 543 -85H594Q595 -185 649 -185Q666 -185 680.5 -176.5Q695 -168 706.5 -146.5Q718 -125 727.5 -89Q737 -53 745 2L796 359Q800 387 802.5 411Q805 435 805 448Q805 462 798.5 468.5Q792 475 772 475H601L544 118Q528 20 505 -47.5Q482 -115 451 -156.5Q420 -198 380 -216.5Q340 -235 290 -235Q242 -235 207.5 -214.5Q173 -194 173 -155Q173 -135 183 -119.5Q193 -104 210 -95H259Q262 -140 273.5 -161.5Q285 -183 313 -183Q331 -183 346.5 -173.5Q362 -164 374 -141.5Q386 -119 396 -81.5Q406 -44 414 13L477 475H269L213 108Q185 -74 119.5 -162Q54 -250 -53 -250Q-122 -250 -157.5 -224Q-193 -198 -193 -158Q-193 -133 -181 -115.5Q-169 -98 -154 -90H-102Q-97 -141 -80 -170.5Q-63 -200 -33 -200Q10 -200 38 -156Q66 -112 80 -6L146 475H70L80 534H155L160 557Q172 610 192.5 654Q213 698 243 730Q273 762 311.5 779.5Q350 797 397 797Q448 797 475 775.5Q502 754 502 718Q502 693 488 678Q474 663 456 656H410Q408 702 400.5 723Q393 744 367 744Q314 744 295 633L278 534H486Z" glyph-name="f_f_j" horiz-adv-x="983" unicode="&#57898;" /><glyph d="M544 118Q528 20 505 -47.5Q482 -115 451 -156.5Q420 -198 380 -216.5Q340 -235 290 -235Q242 -235 207.5 -214.5Q173 -194 173 -155Q173 -135 183 -119.5Q193 -104 210 -95H259Q262 -140 273.5 -161.5Q285 -183 313 -183Q331 -183 346.5 -173.5Q362 -164 374 -141.5Q386 -119 396 -81.5Q406 -44 414 13L477 475H269L213 108Q185 -74 119.5 -162Q54 -250 -53 -250Q-122 -250 -157.5 -224Q-193 -198 -193 -158Q-193 -133 -181 -115.5Q-169 -98 -154 -90H-102Q-97 -141 -80 -170.5Q-63 -200 -33 -200Q10 -200 38 -156Q66 -112 80 -6L146 475H70L80 534H155L160 557Q172 610 192.5 654Q213 698 243 730Q273 762 311.5 779.5Q350 797 397 797Q448 797 475 775.5Q502 754 502 718Q502 693 488 678Q474 663 456 656H410Q408 702 400.5 723Q393 744 367 744Q314 744 295 633L278 534H486L493 569Q503 621 525.5 665Q548 709 581.5 741.5Q615 774 659 792Q703 810 755 810Q795 810 831.5 799.5Q868 789 886 775L956 810H993Q980 711 958.5 599Q937 487 916 384Q970 462 1031 503Q1092 544 1149 544Q1203 544 1228.5 515.5Q1254 487 1254 441Q1254 378 1204 330Q1154 282 1075 248L1126 137Q1145 96 1156.5 81Q1168 66 1183 66Q1201 66 1220 82Q1239 98 1265 129L1298 104Q1260 48 1220 19Q1180 -10 1132 -10Q1093 -10 1068.5 12Q1044 34 1024 83L973 210Q951 204 927.5 198.5Q904 193 880 189L845 0H732Q750 95 769.5 193Q789 291 805.5 382Q822 473 834.5 552Q847 631 853 688Q842 719 810 738.5Q778 758 741 758Q692 758 665 729Q638 700 625 625L609 534H740L730 475H601ZM887 230Q943 242 988.5 259.5Q1034 277 1066.5 299.5Q1099 322 1117 350Q1135 378 1135 410Q1135 462 1090 462Q1072 462 1053 454.5Q1034 447 1012 431Q990 415 964 388.5Q938 362 906 325Z" glyph-name="f_f_k" horiz-adv-x="1318" unicode="&#58245;" /><glyph d="M522 688Q510 719 478.5 738.5Q447 758 410 758Q360 758 333 729Q306 700 293 625L278 534H408L398 475H269L213 108Q184 -74 119 -162Q54 -250 -53 -250Q-122 -250 -157.5 -224Q-193 -198 -193 -158Q-193 -133 -181 -115.5Q-169 -98 -154 -90H-102Q-97 -141 -80 -170.5Q-63 -200 -33 -200Q10 -200 38 -156Q66 -112 80 -6L146 475H70L80 534H155L162 569Q172 621 194.5 665Q217 709 250.5 741.5Q284 774 327.5 792Q371 810 423 810Q463 810 499.5 799.5Q536 789 555 775L624 810H661Q650 731 634.5 640.5Q619 550 600.5 462Q582 374 563 295.5Q544 217 528 162H532Q565 241 601 310.5Q637 380 677 432Q717 484 761 514Q805 544 854 544Q896 544 915 520.5Q934 497 934 454Q934 420 922.5 368Q911 316 897.5 262Q884 208 873 161.5Q862 115 862 93Q862 65 884 65Q901 65 919.5 81.5Q938 98 964 129L997 103Q959 47 917.5 18.5Q876 -10 825 -10Q782 -10 760.5 12Q739 34 739 72Q739 98 750 147Q761 196 774.5 249.5Q788 303 799.5 352.5Q811 402 811 430Q811 440 808 449.5Q805 459 791 459Q768 459 734.5 423.5Q701 388 663 326Q625 264 587 180.5Q549 97 518 0H400Q418 91 437 191Q456 291 473.5 384Q491 477 504 556.5Q517 636 522 688Z" glyph-name="f_h" horiz-adv-x="1025" unicode="&#58246;" /><glyph d="M473 448Q473 462 466.5 468.5Q460 475 440 475H269L213 108Q184 -74 119 -162Q54 -250 -53 -250Q-122 -250 -157.5 -224Q-193 -198 -193 -158Q-193 -133 -181 -115.5Q-169 -98 -154 -90H-102Q-97 -141 -80 -170.5Q-63 -200 -33 -200Q10 -200 38 -156Q66 -112 80 -6L146 475H70L80 534H155L162 569Q172 622 195 666Q218 710 252.5 742Q287 774 332 792Q377 810 432 810Q497 810 530.5 787.5Q564 765 564 724Q564 701 553.5 682Q543 663 526 655H469Q466 701 450.5 729.5Q435 758 394 758Q356 758 330.5 725.5Q305 693 291 609L278 534H516Q557 534 576 516.5Q595 499 595 467Q595 449 593.5 427.5Q592 406 587 380L545 118Q516 -62 456.5 -148.5Q397 -235 293 -235Q269 -235 247 -230Q225 -225 209 -214.5Q193 -204 183.5 -188.5Q174 -173 174 -152Q174 -129 185 -112Q196 -95 213 -85H264Q265 -185 319 -185Q337 -185 351 -176Q365 -167 376.5 -145.5Q388 -124 397 -88Q406 -52 414 2L464 359Q468 387 470.5 411Q473 435 473 448Z" glyph-name="f_j" horiz-adv-x="652" unicode="&#58247;" /><glyph d="M555 230Q611 242 656.5 259.5Q702 277 734.5 299.5Q767 322 785 350Q803 378 803 410Q803 462 759 462Q741 462 722 454.5Q703 447 681 431Q659 415 633 388.5Q607 362 574 325ZM661 810Q648 711 627 599Q606 487 584 384Q638 462 699 503Q760 544 817 544Q871 544 897 515.5Q923 487 923 441Q923 409 909.5 381.5Q896 354 872.5 330Q849 306 816 285.5Q783 265 744 248L794 137Q813 94 825 80Q837 66 851 66Q869 66 888.5 82Q908 98 934 129L967 104Q929 48 888.5 19Q848 -10 800 -10Q761 -10 737 12Q713 34 693 83L642 210Q619 204 595.5 198.5Q572 193 548 189L513 0H401Q419 95 438.5 193Q458 291 474.5 382Q491 473 503.5 552Q516 631 522 688Q510 719 478.5 738.5Q447 758 410 758Q360 758 333 729Q306 700 293 625L278 534H408L398 475H269L213 108Q184 -77 119 -163.5Q54 -250 -53 -250Q-122 -250 -157.5 -224Q-193 -198 -193 -158Q-193 -133 -181 -115.5Q-169 -98 -154 -90H-102Q-97 -141 -80 -170.5Q-63 -200 -33 -200Q10 -200 38 -156Q66 -112 80 -6L146 475H70L80 534H155L162 569Q172 621 194.5 665Q217 709 250.5 741.5Q284 774 327.5 792Q371 810 423 810Q463 810 499.5 799.5Q536 789 555 775L624 810Z" glyph-name="f_k" horiz-adv-x="987" unicode="&#58248;" /></font>
</defs>
</svg>
