<?xml version="1.0" standalone="no"?><!DOCTYPE svg PUBLIC "-//W3C//DTD SVG 1.1//EN" "http://www.w3.org/Graphics/SVG/1.1/DTD/svg11.dtd" ><svg version="1.1" xmlns="http://www.w3.org/2000/svg"><defs><font horiz-adv-x="0" id="font"><font-face ascent="750" bbox="-158 -307 1480 1040" cap-height="780" descent="-250" font-family="Copernicus" font-stretch="normal" font-style="normal" font-weight="700" units-per-em="1000" x-height="534" /><missing-glyph d="M800 115V665L525 390ZM160 665V115L435 390ZM480 435 759 714H201ZM201 66H759L480 345ZM90 780H870V0H90Z" horiz-adv-x="960" /><glyph d="M256 312H499L372 595ZM532 239H228L197 159Q192 146 188.5 135Q185 124 185 114Q185 101 188.5 92.5Q192 84 201 78.5Q210 73 226.5 70Q243 67 269 66V0H10V66Q33 70 50 77Q67 84 76 107L321 690L284 780H496L800 107Q811 84 826.5 77Q842 70 866 66V0H496V66Q522 67 538.5 70Q555 73 564 78.5Q573 84 576.5 92.5Q580 101 580 114Q580 132 568 159Z" glyph-name="A" horiz-adv-x="876" unicode="A" /><glyph d="M294 322H558L478 686H476ZM575 247H257L213 159Q207 148 202 135.5Q197 123 197 111Q197 88 215 78Q233 68 285 66V0H10V66Q33 68 50 79Q67 90 88 118L369 670Q361 692 341.5 702Q322 712 275 714V780H1144L1147 572H1067Q1053 606 1039.5 631.5Q1026 657 1008 673Q990 689 966 697Q942 705 908 705H681L738 438H882Q920 438 937.5 457.5Q955 477 964 528H1035V273H964Q955 324 937.5 343.5Q920 363 882 363H755L801 150Q806 128 812.5 113.5Q819 99 830 90.5Q841 82 857 78.5Q873 75 897 75H916Q947 75 970 82.5Q993 90 1014 107.5Q1035 125 1056.5 154Q1078 183 1105 225H1184L1149 0H506V66Q554 68 577.5 78.5Q601 89 601 118Q601 128 598 142Z" glyph-name="AE" horiz-adv-x="1224" unicode="&#198;" /><glyph d="M640 1030 439 822H354L448 1030ZM256 312H499L372 595ZM532 239H228L197 159Q192 146 188.5 135Q185 124 185 114Q185 101 188.5 92.5Q192 84 201 78.5Q210 73 226.5 70Q243 67 269 66V0H10V66Q33 70 50 77Q67 84 76 107L321 690L284 780H496L800 107Q811 84 826.5 77Q842 70 866 66V0H496V66Q522 67 538.5 70Q555 73 564 78.5Q573 84 576.5 92.5Q580 101 580 114Q580 132 568 159Z" glyph-name="Aacute" horiz-adv-x="876" unicode="&#193;" /><glyph d="M398 829Q350 829 316 842.5Q282 856 260.5 882Q239 908 229.5 945.5Q220 983 220 1030H278Q282 1001 293.5 982Q305 963 321 952Q337 941 357 937Q377 933 398 933Q419 933 439 937Q459 941 475 952Q491 963 502.5 982Q514 1001 518 1030H576Q576 983 566.5 945.5Q557 908 535.5 882Q514 856 480 842.5Q446 829 398 829ZM256 312H499L372 595ZM532 239H228L197 159Q192 146 188.5 135Q185 124 185 114Q185 101 188.5 92.5Q192 84 201 78.5Q210 73 226.5 70Q243 67 269 66V0H10V66Q33 70 50 77Q67 84 76 107L321 690L284 780H496L800 107Q811 84 826.5 77Q842 70 866 66V0H496V66Q522 67 538.5 70Q555 73 564 78.5Q573 84 576.5 92.5Q580 101 580 114Q580 132 568 159Z" glyph-name="Abreve" horiz-adv-x="876" unicode="&#258;" /><glyph d="M609 822H522L398 924L274 822H187L344 1030H452ZM256 312H499L372 595ZM532 239H228L197 159Q192 146 188.5 135Q185 124 185 114Q185 101 188.5 92.5Q192 84 201 78.5Q210 73 226.5 70Q243 67 269 66V0H10V66Q33 70 50 77Q67 84 76 107L321 690L284 780H496L800 107Q811 84 826.5 77Q842 70 866 66V0H496V66Q522 67 538.5 70Q555 73 564 78.5Q573 84 576.5 92.5Q580 101 580 114Q580 132 568 159Z" glyph-name="Acircumflex" horiz-adv-x="876" unicode="&#194;" /><glyph d="M419 926Q419 945 426.5 962.5Q434 980 446.5 992.5Q459 1005 475.5 1012.5Q492 1020 511 1020Q550 1020 577.5 992.5Q605 965 605 926Q605 907 597.5 890.5Q590 874 577.5 861.5Q565 849 547.5 841.5Q530 834 511 834Q473 834 446 861Q419 888 419 926ZM191 926Q191 945 198.5 962.5Q206 980 218.5 992.5Q231 1005 247.5 1012.5Q264 1020 283 1020Q302 1020 319.5 1012.5Q337 1005 349.5 992.5Q362 980 369.5 962.5Q377 945 377 926Q377 907 369.5 890.5Q362 874 349.5 861.5Q337 849 319.5 841.5Q302 834 283 834Q245 834 218 861Q191 888 191 926ZM256 312H499L372 595ZM532 239H228L197 159Q192 146 188.5 135Q185 124 185 114Q185 101 188.5 92.5Q192 84 201 78.5Q210 73 226.5 70Q243 67 269 66V0H10V66Q33 70 50 77Q67 84 76 107L321 690L284 780H496L800 107Q811 84 826.5 77Q842 70 866 66V0H496V66Q522 67 538.5 70Q555 73 564 78.5Q573 84 576.5 92.5Q580 101 580 114Q580 132 568 159Z" glyph-name="Adieresis" horiz-adv-x="876" unicode="&#196;" /><glyph d="M356 1030 440 822H355L154 1030ZM256 312H499L372 595ZM532 239H228L197 159Q192 146 188.5 135Q185 124 185 114Q185 101 188.5 92.5Q192 84 201 78.5Q210 73 226.5 70Q243 67 269 66V0H10V66Q33 70 50 77Q67 84 76 107L321 690L284 780H496L800 107Q811 84 826.5 77Q842 70 866 66V0H496V66Q522 67 538.5 70Q555 73 564 78.5Q573 84 576.5 92.5Q580 101 580 114Q580 132 568 159Z" glyph-name="Agrave" horiz-adv-x="876" unicode="&#192;" /><glyph d="M247 941H549V851H247ZM256 312H499L372 595ZM532 239H228L197 159Q192 146 188.5 135Q185 124 185 114Q185 101 188.5 92.5Q192 84 201 78.5Q210 73 226.5 70Q243 67 269 66V0H10V66Q33 70 50 77Q67 84 76 107L321 690L284 780H496L800 107Q811 84 826.5 77Q842 70 866 66V0H496V66Q522 67 538.5 70Q555 73 564 78.5Q573 84 576.5 92.5Q580 101 580 114Q580 132 568 159Z" glyph-name="Amacron" horiz-adv-x="876" unicode="&#256;" /><glyph d="M197 159Q192 146 188.5 135Q185 124 185 114Q185 101 188.5 92.5Q192 84 201 78.5Q210 73 226.5 70Q243 67 269 66V0H10V66Q33 70 50 77Q67 84 76 107L321 690L284 781H496L800 107Q811 84 826.5 77Q842 70 866 66V0H496V66Q522 67 538.5 70Q555 73 564 78.5Q573 84 576.5 92.5Q580 101 580 114Q580 132 568 159L372 595Z" glyph-name="Anocross" horiz-adv-x="876" unicode="&#59185;" /><glyph d="M256 312H499L372 595ZM496 0V66Q522 67 538.5 70Q555 73 564 78.5Q573 84 576.5 92.5Q580 101 580 114Q580 132 568 159L532 239H228L197 159Q192 146 188.5 135Q185 124 185 114Q185 101 188.5 92.5Q192 84 201 78.5Q210 73 226.5 70Q243 67 269 66V0H10V66Q33 70 50 77Q67 84 76 107L321 690L284 780H496L800 107Q811 84 826.5 77Q842 70 866 66V0Q833 -14 812 -29.5Q791 -45 778 -60.5Q765 -76 760 -91Q755 -106 755 -119Q755 -146 768 -161.5Q781 -177 810 -177Q831 -177 845.5 -170Q860 -163 877 -152L889 -195Q870 -217 835.5 -233.5Q801 -250 762 -250Q705 -250 670.5 -222Q636 -194 636 -143Q636 -99 669 -60.5Q702 -22 755 0Z" glyph-name="Aogonek" horiz-adv-x="876" unicode="&#260;" /><glyph d="M450 926Q450 949 437 964.5Q424 980 398 980Q372 980 359 964.5Q346 949 346 926Q346 903 359 887.5Q372 872 398 872Q424 872 437 887.5Q450 903 450 926ZM277 926Q277 950 286 970.5Q295 991 310.5 1006.5Q326 1022 348.5 1031Q371 1040 398 1040Q425 1040 447.5 1031Q470 1022 486 1006.5Q502 991 511 970.5Q520 950 520 926Q520 902 511 881.5Q502 861 486 845.5Q470 830 447.5 821Q425 812 398 812Q371 812 348.5 821Q326 830 310.5 845.5Q295 861 286 881.5Q277 902 277 926ZM256 312H499L372 595ZM532 239H228L197 159Q192 146 188.5 135Q185 124 185 114Q185 101 188.5 92.5Q192 84 201 78.5Q210 73 226.5 70Q243 67 269 66V0H10V66Q33 70 50 77Q67 84 76 107L321 690L284 780H496L800 107Q811 84 826.5 77Q842 70 866 66V0H496V66Q522 67 538.5 70Q555 73 564 78.5Q573 84 576.5 92.5Q580 101 580 114Q580 132 568 159Z" glyph-name="Aring" horiz-adv-x="876" unicode="&#197;" /><glyph d="M470 841Q448 841 427.5 850Q407 859 388 869.5Q369 880 352 889Q335 898 320 898Q298 898 283.5 884.5Q269 871 254 843L196 853Q225 941 259.5 978Q294 1015 345 1015Q367 1015 387.5 1006Q408 997 427 986.5Q446 976 463 967Q480 958 495 958Q517 958 531.5 971.5Q546 985 561 1013L619 1003Q604 959 588.5 928Q573 897 555 877.5Q537 858 516 849.5Q495 841 470 841ZM256 312H499L372 595ZM532 239H228L197 159Q192 146 188.5 135Q185 124 185 114Q185 101 188.5 92.5Q192 84 201 78.5Q210 73 226.5 70Q243 67 269 66V0H10V66Q33 70 50 77Q67 84 76 107L321 690L284 780H496L800 107Q811 84 826.5 77Q842 70 866 66V0H496V66Q522 67 538.5 70Q555 73 564 78.5Q573 84 576.5 92.5Q580 101 580 114Q580 132 568 159Z" glyph-name="Atilde" horiz-adv-x="876" unicode="&#195;" /><glyph d="M325 705V438H398Q473 438 509 471Q545 504 545 578Q545 638 507 671.5Q469 705 397 705ZM325 363V145Q325 100 350 85Q375 70 426 70H455Q522 70 554 109Q586 148 586 209Q586 243 578 271.5Q570 300 551.5 320Q533 340 501 351.5Q469 363 421 363ZM40 66Q68 67 86 70.5Q104 74 114 82.5Q124 91 128 105Q132 119 132 142V638Q132 660 128 674.5Q124 689 114 697.5Q104 706 86 709.5Q68 713 40 714V780H462Q594 780 665.5 731.5Q737 683 737 585Q737 543 721 511Q705 479 678 456.5Q651 434 615 421Q579 408 538 403Q654 395 721 348Q788 301 788 213Q788 112 713 56Q638 0 495 0H40Z" glyph-name="B" horiz-adv-x="813" unicode="B" /><glyph d="M479 72Q561 72 610 120.5Q659 169 691 269H783L764 61Q710 28 633 9Q556 -10 462 -10Q359 -10 280 19.5Q201 49 148 101Q95 153 67.5 223.5Q40 294 40 375Q40 471 73 547.5Q106 624 163.5 678Q221 732 298 761Q375 790 464 790Q555 790 625.5 767.5Q696 745 744 707L747 529H653Q640 572 622.5 606Q605 640 580.5 664Q556 688 522.5 700.5Q489 713 445 713Q392 713 354.5 687.5Q317 662 293.5 620Q270 578 259.5 523Q249 468 249 409Q249 337 262.5 275.5Q276 214 304.5 169Q333 124 376.5 98Q420 72 479 72Z" glyph-name="C" horiz-adv-x="815" unicode="C" /><glyph d="M693 1030 492 822H407L501 1030ZM479 72Q561 72 610 120.5Q659 169 691 269H783L764 61Q710 28 633 9Q556 -10 462 -10Q359 -10 280 19.5Q201 49 148 101Q95 153 67.5 223.5Q40 294 40 375Q40 471 73 547.5Q106 624 163.5 678Q221 732 298 761Q375 790 464 790Q555 790 625.5 767.5Q696 745 744 707L747 529H653Q640 572 622.5 606Q605 640 580.5 664Q556 688 522.5 700.5Q489 713 445 713Q392 713 354.5 687.5Q317 662 293.5 620Q270 578 259.5 523Q249 468 249 409Q249 337 262.5 275.5Q276 214 304.5 169Q333 124 376.5 98Q420 72 479 72Z" glyph-name="Cacute" horiz-adv-x="815" unicode="&#262;" /><glyph d="M240 1030H327L451 928L575 1030H662L505 822H397ZM479 72Q561 72 610 120.5Q659 169 691 269H783L764 61Q710 28 633 9Q556 -10 462 -10Q359 -10 280 19.5Q201 49 148 101Q95 153 67.5 223.5Q40 294 40 375Q40 471 73 547.5Q106 624 163.5 678Q221 732 298 761Q375 790 464 790Q555 790 625.5 767.5Q696 745 744 707L747 529H653Q640 572 622.5 606Q605 640 580.5 664Q556 688 522.5 700.5Q489 713 445 713Q392 713 354.5 687.5Q317 662 293.5 620Q270 578 259.5 523Q249 468 249 409Q249 337 262.5 275.5Q276 214 304.5 169Q333 124 376.5 98Q420 72 479 72Z" glyph-name="Ccaron" horiz-adv-x="815" unicode="&#268;" /><glyph d="M479 72Q561 72 610 120.5Q659 169 691 269H783L764 61Q710 28 633 9Q556 -10 462 -10Q456 -10 450 -10Q444 -10 439 -9L431 -45Q491 -50 523.5 -76Q556 -102 556 -150Q556 -175 546 -194Q536 -213 519 -225.5Q502 -238 480.5 -244Q459 -250 436 -250Q404 -250 381.5 -241.5Q359 -233 346 -223L361 -183Q375 -191 392.5 -196.5Q410 -202 427 -202Q447 -202 458 -195.5Q469 -189 469 -174Q469 -150 438.5 -141.5Q408 -133 363 -129L387 -5Q302 5 237 38Q172 71 128.5 121Q85 171 62.5 236Q40 301 40 375Q40 471 73 547.5Q106 624 163.5 678Q221 732 298 761Q375 790 464 790Q555 790 625.5 767.5Q696 745 744 707L747 529H653Q640 572 622.5 606Q605 640 580.5 664Q556 688 522.5 700.5Q489 713 445 713Q392 713 354.5 687.5Q317 662 293.5 620Q270 578 259.5 523Q249 468 249 409Q249 337 262.5 275.5Q276 214 304.5 169Q333 124 376.5 98Q420 72 479 72Z" glyph-name="Ccedilla" horiz-adv-x="815" unicode="&#199;" /><glyph d="M662 822H575L451 924L327 822H240L397 1030H505ZM479 72Q561 72 610 120.5Q659 169 691 269H783L764 61Q710 28 633 9Q556 -10 462 -10Q359 -10 280 19.5Q201 49 148 101Q95 153 67.5 223.5Q40 294 40 375Q40 471 73 547.5Q106 624 163.5 678Q221 732 298 761Q375 790 464 790Q555 790 625.5 767.5Q696 745 744 707L747 529H653Q640 572 622.5 606Q605 640 580.5 664Q556 688 522.5 700.5Q489 713 445 713Q392 713 354.5 687.5Q317 662 293.5 620Q270 578 259.5 523Q249 468 249 409Q249 337 262.5 275.5Q276 214 304.5 169Q333 124 376.5 98Q420 72 479 72Z" glyph-name="Ccircumflex" horiz-adv-x="815" unicode="&#264;" /><glyph d="M342 935Q342 979 370.5 1008Q399 1037 450 1037Q502 1037 530.5 1008Q559 979 559 935Q559 892 530.5 863Q502 834 450 834Q399 834 370.5 863Q342 892 342 935ZM479 72Q561 72 610 120.5Q659 169 691 269H783L764 61Q710 28 633 9Q556 -10 462 -10Q359 -10 280 19.5Q201 49 148 101Q95 153 67.5 223.5Q40 294 40 375Q40 471 73 547.5Q106 624 163.5 678Q221 732 298 761Q375 790 464 790Q555 790 625.5 767.5Q696 745 744 707L747 529H653Q640 572 622.5 606Q605 640 580.5 664Q556 688 522.5 700.5Q489 713 445 713Q392 713 354.5 687.5Q317 662 293.5 620Q270 578 259.5 523Q249 468 249 409Q249 337 262.5 275.5Q276 214 304.5 169Q333 124 376.5 98Q420 72 479 72Z" glyph-name="Cdotaccent" horiz-adv-x="815" unicode="&#266;" /><glyph d="M467 780Q576 780 656 751Q736 722 788 672Q840 622 865 555Q890 488 890 412Q890 312 859.5 235Q829 158 774.5 106Q720 54 645 27Q570 0 481 0H40V66Q68 67 86 70.5Q104 74 114 82.5Q124 91 128 105Q132 119 132 142V638Q132 660 128 674.5Q124 689 114 697.5Q104 706 86 709.5Q68 713 40 714V780ZM325 705V153Q325 129 330.5 113.5Q336 98 347.5 89.5Q359 81 377 78Q395 75 421 75H457Q505 75 546.5 91Q588 107 618.5 143Q649 179 666 238Q683 297 683 384Q683 457 666.5 516.5Q650 576 616 618Q582 660 530 682.5Q478 705 406 705Z" glyph-name="D" horiz-adv-x="930" unicode="D" /><glyph d="M232 1030H319L443 928L567 1030H654L497 822H389ZM467 780Q576 780 656 751Q736 722 788 672Q840 622 865 555Q890 488 890 412Q890 312 859.5 235Q829 158 774.5 106Q720 54 645 27Q570 0 481 0H40V66Q68 67 86 70.5Q104 74 114 82.5Q124 91 128 105Q132 119 132 142V638Q132 660 128 674.5Q124 689 114 697.5Q104 706 86 709.5Q68 713 40 714V780ZM325 705V153Q325 129 330.5 113.5Q336 98 347.5 89.5Q359 81 377 78Q395 75 421 75H457Q505 75 546.5 91Q588 107 618.5 143Q649 179 666 238Q683 297 683 384Q683 457 666.5 516.5Q650 576 616 618Q582 660 530 682.5Q478 705 406 705Z" glyph-name="Dcaron" horiz-adv-x="930" unicode="&#270;" /><glyph d="M325 705V433H491V367H325V153Q325 129 330.5 113.5Q336 98 347.5 89.5Q359 81 377 78Q395 75 421 75H457Q505 75 546.5 91Q588 107 618.5 143Q649 179 666 238Q683 297 683 384Q683 457 666.5 516.5Q650 576 616 618Q582 660 530 682.5Q478 705 406 705ZM40 433H132V638Q132 660 128 674.5Q124 689 114 697.5Q104 706 86 709.5Q68 713 40 714V780H467Q576 780 656 751Q736 722 788 672Q840 622 865 555Q890 488 890 412Q890 312 859.5 235Q829 158 774.5 106Q720 54 645 27Q570 0 481 0H40V66Q68 67 86 70.5Q104 74 114 82.5Q124 91 128 105Q132 119 132 142V367H40Z" glyph-name="Dcroat" horiz-adv-x="930" unicode="&#272;" /><glyph d="M373 507 171 77H568ZM55 37 408 780H452L805 37V0H55Z" glyph-name="Delta" horiz-adv-x="860" unicode="&#8710;" /><glyph d="M528 273Q519 324 501.5 343.5Q484 363 446 363H325V150Q325 105 349 90Q373 75 421 75H480Q511 75 534 82.5Q557 90 578 107.5Q599 125 620.5 154Q642 183 669 225H748L713 0H40V66Q68 67 86 70.5Q104 74 114 82.5Q124 91 128 105Q132 119 132 142V638Q132 660 128 674.5Q124 689 114 697.5Q104 706 86 709.5Q68 713 40 714V780H708L711 572H631Q617 606 603.5 631.5Q590 657 572 673Q554 689 530 697Q506 705 472 705H325V438H446Q484 438 501.5 457.5Q519 477 528 528H599V273Z" glyph-name="E" horiz-adv-x="788" unicode="E" /><glyph d="M650 1030 449 822H364L458 1030ZM528 273Q519 324 501.5 343.5Q484 363 446 363H325V150Q325 105 349 90Q373 75 421 75H480Q511 75 534 82.5Q557 90 578 107.5Q599 125 620.5 154Q642 183 669 225H748L713 0H40V66Q68 67 86 70.5Q104 74 114 82.5Q124 91 128 105Q132 119 132 142V638Q132 660 128 674.5Q124 689 114 697.5Q104 706 86 709.5Q68 713 40 714V780H708L711 572H631Q617 606 603.5 631.5Q590 657 572 673Q554 689 530 697Q506 705 472 705H325V438H446Q484 438 501.5 457.5Q519 477 528 528H599V273Z" glyph-name="Eacute" horiz-adv-x="788" unicode="&#201;" /><glyph d="M398 829Q350 829 316 842.5Q282 856 260.5 882Q239 908 229.5 945.5Q220 983 220 1030H278Q282 1001 293.5 982Q305 963 321 952Q337 941 357 937Q377 933 398 933Q419 933 439 937Q459 941 475 952Q491 963 502.5 982Q514 1001 518 1030H576Q576 983 566.5 945.5Q557 908 535.5 882Q514 856 480 842.5Q446 829 398 829ZM528 273Q519 324 501.5 343.5Q484 363 446 363H325V150Q325 105 349 90Q373 75 421 75H480Q511 75 534 82.5Q557 90 578 107.5Q599 125 620.5 154Q642 183 669 225H748L713 0H40V66Q68 67 86 70.5Q104 74 114 82.5Q124 91 128 105Q132 119 132 142V638Q132 660 128 674.5Q124 689 114 697.5Q104 706 86 709.5Q68 713 40 714V780H708L711 572H631Q617 606 603.5 631.5Q590 657 572 673Q554 689 530 697Q506 705 472 705H325V438H446Q484 438 501.5 457.5Q519 477 528 528H599V273Z" glyph-name="Ebreve" horiz-adv-x="788" unicode="&#276;" /><glyph d="M197 1030H284L408 928L532 1030H619L462 822H354ZM528 273Q519 324 501.5 343.5Q484 363 446 363H325V150Q325 105 349 90Q373 75 421 75H480Q511 75 534 82.5Q557 90 578 107.5Q599 125 620.5 154Q642 183 669 225H748L713 0H40V66Q68 67 86 70.5Q104 74 114 82.5Q124 91 128 105Q132 119 132 142V638Q132 660 128 674.5Q124 689 114 697.5Q104 706 86 709.5Q68 713 40 714V780H708L711 572H631Q617 606 603.5 631.5Q590 657 572 673Q554 689 530 697Q506 705 472 705H325V438H446Q484 438 501.5 457.5Q519 477 528 528H599V273Z" glyph-name="Ecaron" horiz-adv-x="788" unicode="&#282;" /><glyph d="M619 822H532L408 924L284 822H197L354 1030H462ZM528 273Q519 324 501.5 343.5Q484 363 446 363H325V150Q325 105 349 90Q373 75 421 75H480Q511 75 534 82.5Q557 90 578 107.5Q599 125 620.5 154Q642 183 669 225H748L713 0H40V66Q68 67 86 70.5Q104 74 114 82.5Q124 91 128 105Q132 119 132 142V638Q132 660 128 674.5Q124 689 114 697.5Q104 706 86 709.5Q68 713 40 714V780H708L711 572H631Q617 606 603.5 631.5Q590 657 572 673Q554 689 530 697Q506 705 472 705H325V438H446Q484 438 501.5 457.5Q519 477 528 528H599V273Z" glyph-name="Ecircumflex" horiz-adv-x="788" unicode="&#202;" /><glyph d="M413 926Q413 945 420.5 962.5Q428 980 440.5 992.5Q453 1005 469.5 1012.5Q486 1020 505 1020Q544 1020 571.5 992.5Q599 965 599 926Q599 907 591.5 890.5Q584 874 571.5 861.5Q559 849 541.5 841.5Q524 834 505 834Q467 834 440 861Q413 888 413 926ZM185 926Q185 945 192.5 962.5Q200 980 212.5 992.5Q225 1005 241.5 1012.5Q258 1020 277 1020Q296 1020 313.5 1012.5Q331 1005 343.5 992.5Q356 980 363.5 962.5Q371 945 371 926Q371 907 363.5 890.5Q356 874 343.5 861.5Q331 849 313.5 841.5Q296 834 277 834Q239 834 212 861Q185 888 185 926ZM528 273Q519 324 501.5 343.5Q484 363 446 363H325V150Q325 105 349 90Q373 75 421 75H480Q511 75 534 82.5Q557 90 578 107.5Q599 125 620.5 154Q642 183 669 225H748L713 0H40V66Q68 67 86 70.5Q104 74 114 82.5Q124 91 128 105Q132 119 132 142V638Q132 660 128 674.5Q124 689 114 697.5Q104 706 86 709.5Q68 713 40 714V780H708L711 572H631Q617 606 603.5 631.5Q590 657 572 673Q554 689 530 697Q506 705 472 705H325V438H446Q484 438 501.5 457.5Q519 477 528 528H599V273Z" glyph-name="Edieresis" horiz-adv-x="788" unicode="&#203;" /><glyph d="M289 935Q289 979 317.5 1008Q346 1037 397 1037Q449 1037 477.5 1008Q506 979 506 935Q506 892 477.5 863Q449 834 397 834Q346 834 317.5 863Q289 892 289 935ZM528 273Q519 324 501.5 343.5Q484 363 446 363H325V150Q325 105 349 90Q373 75 421 75H480Q511 75 534 82.5Q557 90 578 107.5Q599 125 620.5 154Q642 183 669 225H748L713 0H40V66Q68 67 86 70.5Q104 74 114 82.5Q124 91 128 105Q132 119 132 142V638Q132 660 128 674.5Q124 689 114 697.5Q104 706 86 709.5Q68 713 40 714V780H708L711 572H631Q617 606 603.5 631.5Q590 657 572 673Q554 689 530 697Q506 705 472 705H325V438H446Q484 438 501.5 457.5Q519 477 528 528H599V273Z" glyph-name="Edotaccent" horiz-adv-x="788" unicode="&#278;" /><glyph d="M356 1030 440 822H355L154 1030ZM528 273Q519 324 501.5 343.5Q484 363 446 363H325V150Q325 105 349 90Q373 75 421 75H480Q511 75 534 82.5Q557 90 578 107.5Q599 125 620.5 154Q642 183 669 225H748L713 0H40V66Q68 67 86 70.5Q104 74 114 82.5Q124 91 128 105Q132 119 132 142V638Q132 660 128 674.5Q124 689 114 697.5Q104 706 86 709.5Q68 713 40 714V780H708L711 572H631Q617 606 603.5 631.5Q590 657 572 673Q554 689 530 697Q506 705 472 705H325V438H446Q484 438 501.5 457.5Q519 477 528 528H599V273Z" glyph-name="Egrave" horiz-adv-x="788" unicode="&#200;" /><glyph d="M237 941H539V851H237ZM528 273Q519 324 501.5 343.5Q484 363 446 363H325V150Q325 105 349 90Q373 75 421 75H480Q511 75 534 82.5Q557 90 578 107.5Q599 125 620.5 154Q642 183 669 225H748L713 0H40V66Q68 67 86 70.5Q104 74 114 82.5Q124 91 128 105Q132 119 132 142V638Q132 660 128 674.5Q124 689 114 697.5Q104 706 86 709.5Q68 713 40 714V780H708L711 572H631Q617 606 603.5 631.5Q590 657 572 673Q554 689 530 697Q506 705 472 705H325V438H446Q484 438 501.5 457.5Q519 477 528 528H599V273Z" glyph-name="Emacron" horiz-adv-x="788" unicode="&#274;" /><glyph d="M230 577V142Q230 119 235.5 105Q241 91 253 82.5Q265 74 284.5 70.5Q304 67 332 66V0H40V66Q68 67 86 70.5Q104 74 114 82.5Q124 91 128 105Q132 119 132 142V649Q120 664 110 676Q100 688 89.5 696Q79 704 67.5 708.5Q56 713 40 714V780H312L712 318V638Q712 660 706.5 674.5Q701 689 689 697.5Q677 706 657.5 709.5Q638 713 610 714V780H902V714Q874 713 856 709.5Q838 706 828 697.5Q818 689 814 674.5Q810 660 810 638V-23Q810 -250 592 -250Q483 -250 423.5 -214.5Q364 -179 364 -111Q364 -79 378.5 -58Q393 -37 412 -24H538V-64Q538 -128 558.5 -155.5Q579 -183 620 -183Q671 -183 691.5 -142Q712 -101 712 -27V33Z" glyph-name="Eng" horiz-adv-x="932" unicode="&#330;" /><glyph d="M40 0V66Q68 67 86 70.5Q104 74 114 82.5Q124 91 128 105Q132 119 132 142V638Q132 660 128 674.5Q124 689 114 697.5Q104 706 86 709.5Q68 713 40 714V780H708L711 572H631Q617 606 603.5 631.5Q590 657 572 673Q554 689 530 697Q506 705 472 705H325V438H446Q484 438 501.5 457.5Q519 477 528 528H599V273H528Q519 324 501.5 343.5Q484 363 446 363H325V150Q325 105 349 90Q373 75 421 75H480Q511 75 534 82.5Q557 90 578 107.5Q599 125 620.5 154Q642 183 669 225H748L713 0Q680 -14 659 -29.5Q638 -45 625 -60.5Q612 -76 607 -91Q602 -106 602 -119Q602 -146 615 -161.5Q628 -177 657 -177Q678 -177 692.5 -170Q707 -163 724 -152L736 -195Q717 -217 682.5 -233.5Q648 -250 609 -250Q552 -250 517.5 -222Q483 -194 483 -143Q483 -99 516 -60.5Q549 -22 602 0Z" glyph-name="Eogonek" horiz-adv-x="788" unicode="&#280;" /><glyph d="M699 -10Q661 -10 624.5 -4Q588 2 556 11.5Q524 21 497.5 33.5Q471 46 453 59L441 249H531Q557 152 600 107.5Q643 63 705 63Q736 63 758 71.5Q780 80 794 94Q808 108 814 125.5Q820 143 820 161Q820 211 790.5 236Q761 261 704 272L619 289Q567 300 527.5 321Q488 342 462 382V431L624 678Q588 684 543 684Q480 684 435.5 669Q391 654 363 627Q335 600 322.5 562Q310 524 310 479V143Q310 121 314 107Q318 93 328 84.5Q338 76 356 72.5Q374 69 402 68V0H25V68Q53 69 71 72.5Q89 76 99 84.5Q109 93 113 107Q117 121 117 143V497Q117 638 222.5 714Q328 790 538 790Q641 790 715.5 767.5Q790 745 832 707V656L694 450Q699 448 704.5 447Q710 446 716 445L754 438Q797 430 838.5 418Q880 406 913 381.5Q946 357 966.5 317Q987 277 987 214Q987 155 966 112.5Q945 70 906.5 43Q868 16 815 3Q762 -10 699 -10Z" glyph-name="Eszett" horiz-adv-x="1017" unicode="&#7838;" /><glyph d="M325 705V433H491V367H325V153Q325 129 330.5 113.5Q336 98 347.5 89.5Q359 81 377 78Q395 75 421 75H457Q505 75 546.5 91Q588 107 618.5 143Q649 179 666 238Q683 297 683 384Q683 457 666.5 516.5Q650 576 616 618Q582 660 530 682.5Q478 705 406 705ZM40 433H132V638Q132 660 128 674.5Q124 689 114 697.5Q104 706 86 709.5Q68 713 40 714V780H467Q576 780 656 751Q736 722 788 672Q840 622 865 555Q890 488 890 412Q890 312 859.5 235Q829 158 774.5 106Q720 54 645 27Q570 0 481 0H40V66Q68 67 86 70.5Q104 74 114 82.5Q124 91 128 105Q132 119 132 142V367H40Z" glyph-name="Eth" horiz-adv-x="930" unicode="&#208;" /><glyph d="M30 478H133Q146 551 178.5 608.5Q211 666 257.5 706.5Q304 747 363 768.5Q422 790 489 790Q564 790 620.5 771Q677 752 716 717L719 539H631Q621 582 608 614.5Q595 647 576.5 669Q558 691 532.5 702Q507 713 472 713Q436 713 411 694.5Q386 676 369 643.5Q352 611 342.5 568.5Q333 526 329 478H568L558 417H327V409Q327 392 327 376Q327 360 329 344H548L538 283H334Q340 240 351.5 201.5Q363 163 381 134.5Q399 106 425.5 89Q452 72 488 72Q548 72 591.5 116Q635 160 661 259H747L732 51Q686 21 618 5.5Q550 -10 479 -10Q407 -10 348 11.5Q289 33 245 72Q201 111 172.5 165Q144 219 132 283H30V344H125Q124 352 124 359.5Q124 367 124 375Q124 386 124 396Q124 406 125 417H30Z" glyph-name="Euro" horiz-adv-x="782" unicode="&#8364;" /><glyph d="M30 478H133Q146 551 178.5 608.5Q211 666 257.5 706.5Q304 747 363 768.5Q422 790 489 790Q564 790 620.5 771Q677 752 716 717L719 539H631Q621 582 608 614.5Q595 647 576.5 669Q558 691 532.5 702Q507 713 472 713Q436 713 411 694.5Q386 676 369 643.5Q352 611 342.5 568.5Q333 526 329 478H568L558 417H327V409Q327 392 327 376Q327 360 329 344H548L538 283H334Q340 240 351.5 201.5Q363 163 381 134.5Q399 106 425.5 89Q452 72 488 72Q548 72 591.5 116Q635 160 661 259H747L732 51Q686 21 618 5.5Q550 -10 479 -10Q407 -10 348 11.5Q289 33 245 72Q201 111 172.5 165Q144 219 132 283H30V344H125Q124 352 124 359.5Q124 367 124 375Q124 386 124 396Q124 406 125 417H30Z" glyph-name="Euro.LP" horiz-adv-x="782" unicode="&#58657;" /><glyph d="M30 401H118Q131 459 159 505.5Q187 552 227 585Q267 618 318.5 635.5Q370 653 431 653Q491 653 542 641.5Q593 630 638 599L645 438H562Q550 475 537.5 501.5Q525 528 509.5 545Q494 562 474.5 570Q455 578 429 578Q374 578 343 530Q312 482 304 401H488L468 345H301V339Q301 306 304 278H447L427 222H312Q327 151 361.5 108Q396 65 450 65Q503 65 532 105.5Q561 146 581 221H668L651 39Q601 12 545 1Q489 -10 428 -10Q359 -10 305 6.5Q251 23 212 53.5Q173 84 149 127Q125 170 115 222H30V278H108V301Q108 312 108 323Q108 334 110 345H30Z" glyph-name="Euro.OP" horiz-adv-x="695" unicode="&#59805;" /><glyph d="M40 0V66Q68 67 86 70.5Q104 74 114 82.5Q124 91 128 105Q132 119 132 142V638Q132 660 128 674.5Q124 689 114 697.5Q104 706 86 709.5Q68 713 40 714V780H695L698 572H618Q604 606 590.5 631.5Q577 657 559 673Q541 689 517 697Q493 705 459 705H325V427H426Q464 427 481.5 446.5Q499 466 508 517H579V262H508Q499 313 481.5 332.5Q464 352 426 352H325V142Q325 119 332.5 105Q340 91 356 83Q372 75 397 71Q422 67 457 66V0Z" glyph-name="F" horiz-adv-x="728" unicode="F" /><glyph d="M40 375Q40 471 73 547.5Q106 624 163.5 678Q221 732 298 761Q375 790 464 790Q555 790 625.5 767.5Q696 745 744 707L747 529H653Q640 572 622.5 606Q605 640 580.5 664Q556 688 522.5 700.5Q489 713 445 713Q392 713 354.5 687.5Q317 662 293.5 620Q270 578 259.5 523Q249 468 249 409Q249 337 262.5 275.5Q276 214 304.5 169Q333 124 376.5 98Q420 72 479 72Q508 72 529.5 76.5Q551 81 574 95V232Q574 254 570 268.5Q566 283 556 291.5Q546 300 528 303.5Q510 307 482 308V374H859V308Q831 307 813 303.5Q795 300 785 291.5Q775 283 771 268.5Q767 254 767 232V70Q710 35 630.5 12.5Q551 -10 457 -10Q356 -10 278 19.5Q200 49 147 101Q94 153 67 223.5Q40 294 40 375Z" glyph-name="G" horiz-adv-x="884" unicode="G" /><glyph d="M451 829Q403 829 369 842.5Q335 856 313.5 882Q292 908 282.5 945.5Q273 983 273 1030H331Q335 1001 346.5 982Q358 963 374 952Q390 941 410 937Q430 933 451 933Q472 933 492 937Q512 941 528 952Q544 963 555.5 982Q567 1001 571 1030H629Q629 983 619.5 945.5Q610 908 588.5 882Q567 856 533 842.5Q499 829 451 829ZM40 375Q40 471 73 547.5Q106 624 163.5 678Q221 732 298 761Q375 790 464 790Q555 790 625.5 767.5Q696 745 744 707L747 529H653Q640 572 622.5 606Q605 640 580.5 664Q556 688 522.5 700.5Q489 713 445 713Q392 713 354.5 687.5Q317 662 293.5 620Q270 578 259.5 523Q249 468 249 409Q249 337 262.5 275.5Q276 214 304.5 169Q333 124 376.5 98Q420 72 479 72Q508 72 529.5 76.5Q551 81 574 95V232Q574 254 570 268.5Q566 283 556 291.5Q546 300 528 303.5Q510 307 482 308V374H859V308Q831 307 813 303.5Q795 300 785 291.5Q775 283 771 268.5Q767 254 767 232V70Q710 35 630.5 12.5Q551 -10 457 -10Q356 -10 278 19.5Q200 49 147 101Q94 153 67 223.5Q40 294 40 375Z" glyph-name="Gbreve" horiz-adv-x="884" unicode="&#286;" /><glyph d="M662 822H575L451 924L327 822H240L397 1030H505ZM40 375Q40 471 73 547.5Q106 624 163.5 678Q221 732 298 761Q375 790 464 790Q555 790 625.5 767.5Q696 745 744 707L747 529H653Q640 572 622.5 606Q605 640 580.5 664Q556 688 522.5 700.5Q489 713 445 713Q392 713 354.5 687.5Q317 662 293.5 620Q270 578 259.5 523Q249 468 249 409Q249 337 262.5 275.5Q276 214 304.5 169Q333 124 376.5 98Q420 72 479 72Q508 72 529.5 76.5Q551 81 574 95V232Q574 254 570 268.5Q566 283 556 291.5Q546 300 528 303.5Q510 307 482 308V374H859V308Q831 307 813 303.5Q795 300 785 291.5Q775 283 771 268.5Q767 254 767 232V70Q710 35 630.5 12.5Q551 -10 457 -10Q356 -10 278 19.5Q200 49 147 101Q94 153 67 223.5Q40 294 40 375Z" glyph-name="Gcircumflex" horiz-adv-x="884" unicode="&#284;" /><glyph d="M422 -160Q395 -154 381 -139.5Q367 -125 367 -99Q367 -73 386.5 -54.5Q406 -36 443 -36Q485 -36 510 -62Q535 -88 535 -131Q535 -156 527 -177Q519 -198 501 -214Q483 -230 454 -239.5Q425 -249 383 -250V-206Q427 -202 446.5 -191Q466 -180 466 -160ZM40 375Q40 471 73 547.5Q106 624 163.5 678Q221 732 298 761Q375 790 464 790Q555 790 625.5 767.5Q696 745 744 707L747 529H653Q640 572 622.5 606Q605 640 580.5 664Q556 688 522.5 700.5Q489 713 445 713Q392 713 354.5 687.5Q317 662 293.5 620Q270 578 259.5 523Q249 468 249 409Q249 337 262.5 275.5Q276 214 304.5 169Q333 124 376.5 98Q420 72 479 72Q508 72 529.5 76.5Q551 81 574 95V232Q574 254 570 268.5Q566 283 556 291.5Q546 300 528 303.5Q510 307 482 308V374H859V308Q831 307 813 303.5Q795 300 785 291.5Q775 283 771 268.5Q767 254 767 232V70Q710 35 630.5 12.5Q551 -10 457 -10Q356 -10 278 19.5Q200 49 147 101Q94 153 67 223.5Q40 294 40 375Z" glyph-name="Gcommaaccent" horiz-adv-x="884" unicode="&#290;" /><glyph d="M342 935Q342 979 370.5 1008Q399 1037 450 1037Q502 1037 530.5 1008Q559 979 559 935Q559 892 530.5 863Q502 834 450 834Q399 834 370.5 863Q342 892 342 935ZM40 375Q40 471 73 547.5Q106 624 163.5 678Q221 732 298 761Q375 790 464 790Q555 790 625.5 767.5Q696 745 744 707L747 529H653Q640 572 622.5 606Q605 640 580.5 664Q556 688 522.5 700.5Q489 713 445 713Q392 713 354.5 687.5Q317 662 293.5 620Q270 578 259.5 523Q249 468 249 409Q249 337 262.5 275.5Q276 214 304.5 169Q333 124 376.5 98Q420 72 479 72Q508 72 529.5 76.5Q551 81 574 95V232Q574 254 570 268.5Q566 283 556 291.5Q546 300 528 303.5Q510 307 482 308V374H859V308Q831 307 813 303.5Q795 300 785 291.5Q775 283 771 268.5Q767 254 767 232V70Q710 35 630.5 12.5Q551 -10 457 -10Q356 -10 278 19.5Q200 49 147 101Q94 153 67 223.5Q40 294 40 375Z" glyph-name="Gdotaccent" horiz-adv-x="884" unicode="&#288;" /><glyph d="M664 363H325V142Q325 119 329 105Q333 91 343 82.5Q353 74 371 70.5Q389 67 417 66V0H40V66Q68 67 86 70.5Q104 74 114 82.5Q124 91 128 105Q132 119 132 142V638Q132 660 128 674.5Q124 689 114 697.5Q104 706 86 709.5Q68 713 40 714V780H417V714Q389 713 371 709.5Q353 706 343 697.5Q333 689 329 674.5Q325 660 325 638V438H664V638Q664 660 660 674.5Q656 689 646 697.5Q636 706 618 709.5Q600 713 572 714V780H949V714Q921 713 903 709.5Q885 706 875 697.5Q865 689 861 674.5Q857 660 857 638V142Q857 119 861 105Q865 91 875 82.5Q885 74 903 70.5Q921 67 949 66V0H572V66Q600 67 618 70.5Q636 74 646 82.5Q656 91 660 105Q664 119 664 142Z" glyph-name="H" horiz-adv-x="989" unicode="H" /><glyph d="M664 438V535H325V438ZM50 601H132V638Q132 660 128 674.5Q124 689 114 697.5Q104 706 86 709.5Q68 713 40 714V780H417V714Q389 713 371 709.5Q353 706 343 697.5Q333 689 329 674.5Q325 660 325 638V601H664V638Q664 660 660 674.5Q656 689 646 697.5Q636 706 618 709.5Q600 713 572 714V780H949V714Q921 713 903 709.5Q885 706 875 697.5Q865 689 861 674.5Q857 660 857 638V601H939V535H857V142Q857 119 861 105Q865 91 875 82.5Q885 74 903 70.5Q921 67 949 66V0H572V66Q600 67 618 70.5Q636 74 646 82.5Q656 91 660 105Q664 119 664 142V363H325V142Q325 119 329 105Q333 91 343 82.5Q353 74 371 70.5Q389 67 417 66V0H40V66Q68 67 86 70.5Q104 74 114 82.5Q124 91 128 105Q132 119 132 142V535H50Z" glyph-name="Hbar" horiz-adv-x="989" unicode="&#294;" /><glyph d="M705 822H618L494 924L370 822H283L440 1030H548ZM664 363H325V142Q325 119 329 105Q333 91 343 82.5Q353 74 371 70.5Q389 67 417 66V0H40V66Q68 67 86 70.5Q104 74 114 82.5Q124 91 128 105Q132 119 132 142V638Q132 660 128 674.5Q124 689 114 697.5Q104 706 86 709.5Q68 713 40 714V780H417V714Q389 713 371 709.5Q353 706 343 697.5Q333 689 329 674.5Q325 660 325 638V438H664V638Q664 660 660 674.5Q656 689 646 697.5Q636 706 618 709.5Q600 713 572 714V780H949V714Q921 713 903 709.5Q885 706 875 697.5Q865 689 861 674.5Q857 660 857 638V142Q857 119 861 105Q865 91 875 82.5Q885 74 903 70.5Q921 67 949 66V0H572V66Q600 67 618 70.5Q636 74 646 82.5Q656 91 660 105Q664 119 664 142Z" glyph-name="Hcircumflex" horiz-adv-x="989" unicode="&#292;" /><glyph d="M132 638Q132 660 128 674.5Q124 689 114 697.5Q104 706 86 709.5Q68 713 40 714V780H417V714Q389 713 371 709.5Q353 706 343 697.5Q333 689 329 674.5Q325 660 325 638V142Q325 119 329 105Q333 91 343 82.5Q353 74 371 70.5Q389 67 417 66V0H40V66Q68 67 86 70.5Q104 74 114 82.5Q124 91 128 105Q132 119 132 142Z" glyph-name="I" horiz-adv-x="457" unicode="I" /><glyph d="M985 233Q985 115 907 52.5Q829 -10 689 -10Q563 -10 495 30.5Q427 71 427 148Q427 185 443.5 209Q460 233 481 247H613V201Q613 129 632 94.5Q651 60 697 60Q749 60 770.5 100Q792 140 792 216V638Q792 660 788 674.5Q784 689 774 697.5Q764 706 746 709.5Q728 713 700 714V780H1077V714Q1049 713 1031 709.5Q1013 706 1003 697.5Q993 689 989 674.5Q985 660 985 638ZM132 638Q132 660 128 674.5Q124 689 114 697.5Q104 706 86 709.5Q68 713 40 714V780H417V714Q389 713 371 709.5Q353 706 343 697.5Q333 689 329 674.5Q325 660 325 638V142Q325 119 329 105Q333 91 343 82.5Q353 74 371 70.5Q389 67 417 66V0H40V66Q68 67 86 70.5Q104 74 114 82.5Q124 91 128 105Q132 119 132 142Z" glyph-name="IJ" horiz-adv-x="1102" unicode="&#306;" /><glyph d="M470 1030 269 822H184L278 1030ZM132 638Q132 660 128 674.5Q124 689 114 697.5Q104 706 86 709.5Q68 713 40 714V780H417V714Q389 713 371 709.5Q353 706 343 697.5Q333 689 329 674.5Q325 660 325 638V142Q325 119 329 105Q333 91 343 82.5Q353 74 371 70.5Q389 67 417 66V0H40V66Q68 67 86 70.5Q104 74 114 82.5Q124 91 128 105Q132 119 132 142Z" glyph-name="Iacute" horiz-adv-x="457" unicode="&#205;" /><glyph d="M228 829Q180 829 146 842.5Q112 856 90.5 882Q69 908 59.5 945.5Q50 983 50 1030H108Q112 1001 123.5 982Q135 963 151 952Q167 941 187 937Q207 933 228 933Q249 933 269 937Q289 941 305 952Q321 963 332.5 982Q344 1001 348 1030H406Q406 983 396.5 945.5Q387 908 365.5 882Q344 856 310 842.5Q276 829 228 829ZM132 638Q132 660 128 674.5Q124 689 114 697.5Q104 706 86 709.5Q68 713 40 714V780H417V714Q389 713 371 709.5Q353 706 343 697.5Q333 689 329 674.5Q325 660 325 638V142Q325 119 329 105Q333 91 343 82.5Q353 74 371 70.5Q389 67 417 66V0H40V66Q68 67 86 70.5Q104 74 114 82.5Q124 91 128 105Q132 119 132 142Z" glyph-name="Ibreve" horiz-adv-x="457" unicode="&#300;" /><glyph d="M439 822H352L228 924L104 822H17L174 1030H282ZM132 638Q132 660 128 674.5Q124 689 114 697.5Q104 706 86 709.5Q68 713 40 714V780H417V714Q389 713 371 709.5Q353 706 343 697.5Q333 689 329 674.5Q325 660 325 638V142Q325 119 329 105Q333 91 343 82.5Q353 74 371 70.5Q389 67 417 66V0H40V66Q68 67 86 70.5Q104 74 114 82.5Q124 91 128 105Q132 119 132 142Z" glyph-name="Icircumflex" horiz-adv-x="457" unicode="&#206;" /><glyph d="M249 926Q249 945 256.5 962.5Q264 980 276.5 992.5Q289 1005 305.5 1012.5Q322 1020 341 1020Q360 1020 377.5 1012.5Q395 1005 407.5 992.5Q420 980 427.5 962.5Q435 945 435 926Q435 907 427.5 890.5Q420 874 407.5 861.5Q395 849 377.5 841.5Q360 834 341 834Q303 834 276 861Q249 888 249 926ZM21 926Q21 945 28.5 962.5Q36 980 48.5 992.5Q61 1005 77.5 1012.5Q94 1020 113 1020Q132 1020 149.5 1012.5Q167 1005 179.5 992.5Q192 980 199.5 962.5Q207 945 207 926Q207 907 199.5 890.5Q192 874 179.5 861.5Q167 849 149.5 841.5Q132 834 113 834Q75 834 48 861Q21 888 21 926ZM132 638Q132 660 128 674.5Q124 689 114 697.5Q104 706 86 709.5Q68 713 40 714V780H417V714Q389 713 371 709.5Q353 706 343 697.5Q333 689 329 674.5Q325 660 325 638V142Q325 119 329 105Q333 91 343 82.5Q353 74 371 70.5Q389 67 417 66V0H40V66Q68 67 86 70.5Q104 74 114 82.5Q124 91 128 105Q132 119 132 142Z" glyph-name="Idieresis" horiz-adv-x="457" unicode="&#207;" /><glyph d="M119 935Q119 979 147.5 1008Q176 1037 227 1037Q279 1037 307.5 1008Q336 979 336 935Q336 892 307.5 863Q279 834 227 834Q176 834 147.5 863Q119 892 119 935ZM132 638Q132 660 128 674.5Q124 689 114 697.5Q104 706 86 709.5Q68 713 40 714V780H417V714Q389 713 371 709.5Q353 706 343 697.5Q333 689 329 674.5Q325 660 325 638V142Q325 119 329 105Q333 91 343 82.5Q353 74 371 70.5Q389 67 417 66V0H40V66Q68 67 86 70.5Q104 74 114 82.5Q124 91 128 105Q132 119 132 142Z" glyph-name="Idotaccent" horiz-adv-x="457" unicode="&#304;" /><glyph d="M186 1030 270 822H185L-16 1030ZM132 638Q132 660 128 674.5Q124 689 114 697.5Q104 706 86 709.5Q68 713 40 714V780H417V714Q389 713 371 709.5Q353 706 343 697.5Q333 689 329 674.5Q325 660 325 638V142Q325 119 329 105Q333 91 343 82.5Q353 74 371 70.5Q389 67 417 66V0H40V66Q68 67 86 70.5Q104 74 114 82.5Q124 91 128 105Q132 119 132 142Z" glyph-name="Igrave" horiz-adv-x="457" unicode="&#204;" /><glyph d="M77 941H379V851H77ZM132 638Q132 660 128 674.5Q124 689 114 697.5Q104 706 86 709.5Q68 713 40 714V780H417V714Q389 713 371 709.5Q353 706 343 697.5Q333 689 329 674.5Q325 660 325 638V142Q325 119 329 105Q333 91 343 82.5Q353 74 371 70.5Q389 67 417 66V0H40V66Q68 67 86 70.5Q104 74 114 82.5Q124 91 128 105Q132 119 132 142Z" glyph-name="Imacron" horiz-adv-x="457" unicode="&#298;" /><glyph d="M40 0V66Q68 67 86 70.5Q104 74 114 82.5Q124 91 128 105Q132 119 132 142V638Q132 660 128 674.5Q124 689 114 697.5Q104 706 86 709.5Q68 713 40 714V780H417V714Q389 713 371 709.5Q353 706 343 697.5Q333 689 329 674.5Q325 660 325 638V142Q325 119 329 105Q333 91 343 82.5Q353 74 371 70.5Q389 67 417 66V0Q384 -14 363 -29.5Q342 -45 329 -60.5Q316 -76 311 -91Q306 -106 306 -119Q306 -146 319 -161.5Q332 -177 361 -177Q382 -177 396.5 -170Q411 -163 428 -152L440 -195Q421 -217 386.5 -233.5Q352 -250 313 -250Q256 -250 221.5 -222Q187 -194 187 -143Q187 -99 220 -60.5Q253 -22 306 0Z" glyph-name="Iogonek" horiz-adv-x="457" unicode="&#302;" /><glyph d="M291 841Q269 841 248.5 850Q228 859 209 869.5Q190 880 173 889Q156 898 141 898Q119 898 104.5 884.5Q90 871 75 843L17 853Q46 941 80.5 978Q115 1015 166 1015Q188 1015 208.5 1006Q229 997 248 986.5Q267 976 284 967Q301 958 316 958Q338 958 352.5 971.5Q367 985 382 1013L440 1003Q425 959 409.5 928Q394 897 376 877.5Q358 858 337 849.5Q316 841 291 841ZM132 638Q132 660 128 674.5Q124 689 114 697.5Q104 706 86 709.5Q68 713 40 714V780H417V714Q389 713 371 709.5Q353 706 343 697.5Q333 689 329 674.5Q325 660 325 638V142Q325 119 329 105Q333 91 343 82.5Q353 74 371 70.5Q389 67 417 66V0H40V66Q68 67 86 70.5Q104 74 114 82.5Q124 91 128 105Q132 119 132 142Z" glyph-name="Itilde" horiz-adv-x="457" unicode="&#296;" /><glyph d="M568 233Q568 115 490 52.5Q412 -10 272 -10Q146 -10 78 30.5Q10 71 10 148Q10 185 26.5 209Q43 233 64 247H196V201Q196 129 215 94.5Q234 60 280 60Q332 60 353.5 100Q375 140 375 216V638Q375 660 371 674.5Q367 689 357 697.5Q347 706 329 709.5Q311 713 283 714V780H660V714Q632 713 614 709.5Q596 706 586 697.5Q576 689 572 674.5Q568 660 568 638Z" glyph-name="J" horiz-adv-x="685" unicode="J" /><glyph d="M680 822H593L469 924L345 822H258L415 1030H523ZM568 233Q568 115 490 52.5Q412 -10 272 -10Q146 -10 78 30.5Q10 71 10 148Q10 185 26.5 209Q43 233 64 247H196V201Q196 129 215 94.5Q234 60 280 60Q332 60 353.5 100Q375 140 375 216V638Q375 660 371 674.5Q367 689 357 697.5Q347 706 329 709.5Q311 713 283 714V780H660V714Q632 713 614 709.5Q596 706 586 697.5Q576 689 572 674.5Q568 660 568 638Z" glyph-name="Jcircumflex" horiz-adv-x="685" unicode="&#308;" /><glyph d="M132 638Q132 660 128 674.5Q124 689 114 697.5Q104 706 86 709.5Q68 713 40 714V780H417V714Q389 713 371 709.5Q353 706 343 697.5Q333 689 329 674.5Q325 660 325 638V142Q325 119 329 105Q333 91 343 82.5Q353 74 371 70.5Q389 67 417 66V0H40V66Q68 67 86 70.5Q104 74 114 82.5Q124 91 128 105Q132 119 132 142ZM796 128Q811 110 821.5 99Q832 88 842 81Q852 74 864.5 71Q877 68 896 66V0H676Q647 15 624 41Q601 67 571 103L330 397L587 633Q601 647 609.5 657Q618 667 618 681Q618 695 604 703.5Q590 712 545 714V780H851V714Q827 710 800.5 701Q774 692 756 676L517 455Z" glyph-name="K" horiz-adv-x="906" unicode="K" /><glyph d="M439 -160Q412 -154 398 -139.5Q384 -125 384 -99Q384 -73 403.5 -54.5Q423 -36 460 -36Q502 -36 527 -62Q552 -88 552 -131Q552 -156 544 -177Q536 -198 518 -214Q500 -230 471 -239.5Q442 -249 400 -250V-206Q444 -202 463.5 -191Q483 -180 483 -160ZM132 638Q132 660 128 674.5Q124 689 114 697.5Q104 706 86 709.5Q68 713 40 714V780H417V714Q389 713 371 709.5Q353 706 343 697.5Q333 689 329 674.5Q325 660 325 638V142Q325 119 329 105Q333 91 343 82.5Q353 74 371 70.5Q389 67 417 66V0H40V66Q68 67 86 70.5Q104 74 114 82.5Q124 91 128 105Q132 119 132 142ZM796 128Q811 110 821.5 99Q832 88 842 81Q852 74 864.5 71Q877 68 896 66V0H676Q647 15 624 41Q601 67 571 103L330 397L587 633Q601 647 609.5 657Q618 667 618 681Q618 695 604 703.5Q590 712 545 714V780H851V714Q827 710 800.5 701Q774 692 756 676L517 455Z" glyph-name="Kcommaaccent" horiz-adv-x="906" unicode="&#310;" /><glyph d="M325 150Q325 105 349 90Q373 75 421 75H478Q509 75 530.5 82.5Q552 90 572 110Q592 130 614.5 165.5Q637 201 670 257H754L713 0H40V66Q68 67 86 70.5Q104 74 114 82.5Q124 91 128 105Q132 119 132 142V638Q132 660 128 674.5Q124 689 114 697.5Q104 706 86 709.5Q68 713 40 714V780H417V714Q389 713 371 709.5Q353 706 343 697.5Q333 689 329 674.5Q325 660 325 638Z" glyph-name="L" horiz-adv-x="763" unicode="L" /><glyph d="M483 1030 282 822H197L291 1030ZM325 150Q325 105 349 90Q373 75 421 75H478Q509 75 530.5 82.5Q552 90 572 110Q592 130 614.5 165.5Q637 201 670 257H754L713 0H40V66Q68 67 86 70.5Q104 74 114 82.5Q124 91 128 105Q132 119 132 142V638Q132 660 128 674.5Q124 689 114 697.5Q104 706 86 709.5Q68 713 40 714V780H417V714Q389 713 371 709.5Q353 706 343 697.5Q333 689 329 674.5Q325 660 325 638Z" glyph-name="Lacute" horiz-adv-x="763" unicode="&#313;" /><glyph d="M665 780 573 572H490L498 780ZM325 150Q325 105 349 90Q373 75 421 75H478Q509 75 530.5 82.5Q552 90 572 110Q592 130 614.5 165.5Q637 201 670 257H754L713 0H40V66Q68 67 86 70.5Q104 74 114 82.5Q124 91 128 105Q132 119 132 142V638Q132 660 128 674.5Q124 689 114 697.5Q104 706 86 709.5Q68 713 40 714V780H417V714Q389 713 371 709.5Q353 706 343 697.5Q333 689 329 674.5Q325 660 325 638Z" glyph-name="Lcaron" horiz-adv-x="763" unicode="&#317;" /><glyph d="M368 -160Q341 -154 327 -139.5Q313 -125 313 -99Q313 -73 332.5 -54.5Q352 -36 389 -36Q431 -36 456 -62Q481 -88 481 -131Q481 -156 473 -177Q465 -198 447 -214Q429 -230 400 -239.5Q371 -249 329 -250V-206Q373 -202 392.5 -191Q412 -180 412 -160ZM325 150Q325 105 349 90Q373 75 421 75H478Q509 75 530.5 82.5Q552 90 572 110Q592 130 614.5 165.5Q637 201 670 257H754L713 0H40V66Q68 67 86 70.5Q104 74 114 82.5Q124 91 128 105Q132 119 132 142V638Q132 660 128 674.5Q124 689 114 697.5Q104 706 86 709.5Q68 713 40 714V780H417V714Q389 713 371 709.5Q353 706 343 697.5Q333 689 329 674.5Q325 660 325 638Z" glyph-name="Lcommaaccent" horiz-adv-x="763" unicode="&#315;" /><glyph d="M517 417Q517 436 524.5 453.5Q532 471 544.5 483.5Q557 496 573.5 503.5Q590 511 609 511Q628 511 645.5 503.5Q663 496 675.5 483.5Q688 471 695.5 453.5Q703 436 703 417Q703 398 695.5 381.5Q688 365 675.5 352.5Q663 340 645.5 332.5Q628 325 609 325Q571 325 544 352Q517 379 517 417ZM325 150Q325 105 349 90Q373 75 421 75H478Q509 75 530.5 82.5Q552 90 572 110Q592 130 614.5 165.5Q637 201 670 257H754L713 0H40V66Q68 67 86 70.5Q104 74 114 82.5Q124 91 128 105Q132 119 132 142V638Q132 660 128 674.5Q124 689 114 697.5Q104 706 86 709.5Q68 713 40 714V780H417V714Q389 713 371 709.5Q353 706 343 697.5Q333 689 329 674.5Q325 660 325 638Z" glyph-name="Ldot" horiz-adv-x="763" unicode="&#319;" /><glyph d="M40 348 132 385V638Q132 660 128 674.5Q124 689 114 697.5Q104 706 86 709.5Q68 713 40 714V780H417V714Q389 713 371 709.5Q353 706 343 697.5Q333 689 329 674.5Q325 660 325 638V455L515 532V457L325 380V150Q325 105 349 90Q373 75 421 75H478Q509 75 530.5 82.5Q552 90 572 110Q592 130 614.5 165.5Q637 201 670 257H754L713 0H40V66Q68 67 86 70.5Q104 74 114 82.5Q124 91 128 105Q132 119 132 142V310L40 273Z" glyph-name="Lslash" horiz-adv-x="763" unicode="&#321;" /><glyph d="M772 570 563 0H480L263 570L207 164Q206 158 205.5 149Q205 140 205 137Q205 117 210.5 104Q216 91 229 83Q242 75 262.5 71Q283 67 313 66V0H15V66Q63 68 84 81Q105 94 110 133L181 633Q181 677 161.5 694.5Q142 712 86 714V780H390Q392 761 396 747.5Q400 734 409 711L575 271L729 711Q737 734 741 747.5Q745 761 747 780H1053V714Q997 712 977.5 694.5Q958 677 958 633L1029 133Q1034 94 1055 81Q1076 68 1124 66V0H726V66Q756 67 776.5 71Q797 75 810 83Q823 91 828.5 104Q834 117 834 137Q834 140 833.5 149Q833 158 832 164Z" glyph-name="M" horiz-adv-x="1139" unicode="M" /><glyph d="M132 649Q120 664 110 676Q100 688 89.5 696Q79 704 67.5 708.5Q56 713 40 714V780H312L712 320V638Q712 660 706.5 674.5Q701 689 689 697.5Q677 706 657.5 709.5Q638 713 610 714V780H902V714Q874 713 856 709.5Q838 706 828 697.5Q818 689 814 674.5Q810 660 810 638V0H741L230 577V142Q230 119 235.5 105Q241 91 253 82.5Q265 74 284.5 70.5Q304 67 332 66V0H40V66Q68 67 86 70.5Q104 74 114 82.5Q124 91 128 105Q132 119 132 142Z" glyph-name="N" horiz-adv-x="932" unicode="N" /><glyph d="M718 1030 517 822H432L526 1030ZM132 649Q120 664 110 676Q100 688 89.5 696Q79 704 67.5 708.5Q56 713 40 714V780H312L712 320V638Q712 660 706.5 674.5Q701 689 689 697.5Q677 706 657.5 709.5Q638 713 610 714V780H902V714Q874 713 856 709.5Q838 706 828 697.5Q818 689 814 674.5Q810 660 810 638V0H741L230 577V142Q230 119 235.5 105Q241 91 253 82.5Q265 74 284.5 70.5Q304 67 332 66V0H40V66Q68 67 86 70.5Q104 74 114 82.5Q124 91 128 105Q132 119 132 142Z" glyph-name="Nacute" horiz-adv-x="932" unicode="&#323;" /><glyph d="M265 1030H352L476 928L600 1030H687L530 822H422ZM132 649Q120 664 110 676Q100 688 89.5 696Q79 704 67.5 708.5Q56 713 40 714V780H312L712 320V638Q712 660 706.5 674.5Q701 689 689 697.5Q677 706 657.5 709.5Q638 713 610 714V780H902V714Q874 713 856 709.5Q838 706 828 697.5Q818 689 814 674.5Q810 660 810 638V0H741L230 577V142Q230 119 235.5 105Q241 91 253 82.5Q265 74 284.5 70.5Q304 67 332 66V0H40V66Q68 67 86 70.5Q104 74 114 82.5Q124 91 128 105Q132 119 132 142Z" glyph-name="Ncaron" horiz-adv-x="932" unicode="&#327;" /><glyph d="M447 -160Q420 -154 406 -139.5Q392 -125 392 -99Q392 -73 411.5 -54.5Q431 -36 468 -36Q510 -36 535 -62Q560 -88 560 -131Q560 -156 552 -177Q544 -198 526 -214Q508 -230 479 -239.5Q450 -249 408 -250V-206Q452 -202 471.5 -191Q491 -180 491 -160ZM132 649Q120 664 110 676Q100 688 89.5 696Q79 704 67.5 708.5Q56 713 40 714V780H312L712 320V638Q712 660 706.5 674.5Q701 689 689 697.5Q677 706 657.5 709.5Q638 713 610 714V780H902V714Q874 713 856 709.5Q838 706 828 697.5Q818 689 814 674.5Q810 660 810 638V0H741L230 577V142Q230 119 235.5 105Q241 91 253 82.5Q265 74 284.5 70.5Q304 67 332 66V0H40V66Q68 67 86 70.5Q104 74 114 82.5Q124 91 128 105Q132 119 132 142Z" glyph-name="Ncommaaccent" horiz-adv-x="932" unicode="&#325;" /><glyph d="M539 841Q517 841 496.5 850Q476 859 457 869.5Q438 880 421 889Q404 898 389 898Q367 898 352.5 884.5Q338 871 323 843L265 853Q294 941 328.5 978Q363 1015 414 1015Q436 1015 456.5 1006Q477 997 496 986.5Q515 976 532 967Q549 958 564 958Q586 958 600.5 971.5Q615 985 630 1013L688 1003Q673 959 657.5 928Q642 897 624 877.5Q606 858 585 849.5Q564 841 539 841ZM132 649Q120 664 110 676Q100 688 89.5 696Q79 704 67.5 708.5Q56 713 40 714V780H312L712 320V638Q712 660 706.5 674.5Q701 689 689 697.5Q677 706 657.5 709.5Q638 713 610 714V780H902V714Q874 713 856 709.5Q838 706 828 697.5Q818 689 814 674.5Q810 660 810 638V0H741L230 577V142Q230 119 235.5 105Q241 91 253 82.5Q265 74 284.5 70.5Q304 67 332 66V0H40V66Q68 67 86 70.5Q104 74 114 82.5Q124 91 128 105Q132 119 132 142Z" glyph-name="Ntilde" horiz-adv-x="932" unicode="&#209;" /><glyph d="M429 -10Q336 -10 263.5 21.5Q191 53 141.5 106.5Q92 160 66 229.5Q40 299 40 375Q40 471 71.5 547.5Q103 624 158 678Q213 732 288.5 761Q364 790 451 790Q544 790 616.5 758Q689 726 738.5 673Q788 620 814 550.5Q840 481 840 405Q840 309 808.5 232.5Q777 156 722 102Q667 48 591.5 19Q516 -10 429 -10ZM455 70Q501 70 534 93.5Q567 117 588.5 158.5Q610 200 620.5 255.5Q631 311 631 376Q631 445 617.5 506Q604 567 578 612Q552 657 513.5 683.5Q475 710 425 710Q379 710 346 686.5Q313 663 291.5 621.5Q270 580 259.5 524Q249 468 249 404Q249 335 262.5 274Q276 213 302 168Q328 123 366.5 96.5Q405 70 455 70Z" glyph-name="O" horiz-adv-x="880" unicode="O" /><glyph d="M455 70Q501 70 534 93.5Q567 117 588.5 158.5Q610 200 620.5 255.5Q631 311 631 376Q631 445 617.5 506Q604 567 578 612Q552 657 513.5 683.5Q475 710 425 710Q379 710 346 686.5Q313 663 291.5 621.5Q270 580 259.5 524Q249 468 249 404Q249 335 262.5 274Q276 213 302 168Q328 123 366.5 96.5Q405 70 455 70ZM429 -10Q336 -10 263.5 21.5Q191 53 141.5 106.5Q92 160 66 229.5Q40 299 40 375Q40 471 71.5 547.5Q103 624 158 678Q213 732 288.5 761Q364 790 451 790Q477 790 500 787.5Q523 785 546 780H1183L1186 572H1106Q1092 606 1078.5 631.5Q1065 657 1047 673Q1029 689 1005 697Q981 705 947 705H705Q765 655 798.5 585.5Q832 516 838 438H903Q941 438 958.5 457.5Q976 477 985 528H1056V273H985Q976 324 958.5 343.5Q941 363 903 363H838Q830 269 792 196Q754 123 691 75H955Q986 75 1009 82.5Q1032 90 1053 107.5Q1074 125 1095.5 154Q1117 183 1144 225H1223L1188 0H527Q503 -5 479 -7.5Q455 -10 429 -10Z" glyph-name="OE" horiz-adv-x="1263" unicode="&#338;" /><glyph d="M682 1030 481 822H396L490 1030ZM429 -10Q336 -10 263.5 21.5Q191 53 141.5 106.5Q92 160 66 229.5Q40 299 40 375Q40 471 71.5 547.5Q103 624 158 678Q213 732 288.5 761Q364 790 451 790Q544 790 616.5 758Q689 726 738.5 673Q788 620 814 550.5Q840 481 840 405Q840 309 808.5 232.5Q777 156 722 102Q667 48 591.5 19Q516 -10 429 -10ZM455 70Q501 70 534 93.5Q567 117 588.5 158.5Q610 200 620.5 255.5Q631 311 631 376Q631 445 617.5 506Q604 567 578 612Q552 657 513.5 683.5Q475 710 425 710Q379 710 346 686.5Q313 663 291.5 621.5Q270 580 259.5 524Q249 468 249 404Q249 335 262.5 274Q276 213 302 168Q328 123 366.5 96.5Q405 70 455 70Z" glyph-name="Oacute" horiz-adv-x="880" unicode="&#211;" /><glyph d="M440 829Q392 829 358 842.5Q324 856 302.5 882Q281 908 271.5 945.5Q262 983 262 1030H320Q324 1001 335.5 982Q347 963 363 952Q379 941 399 937Q419 933 440 933Q461 933 481 937Q501 941 517 952Q533 963 544.5 982Q556 1001 560 1030H618Q618 983 608.5 945.5Q599 908 577.5 882Q556 856 522 842.5Q488 829 440 829ZM429 -10Q336 -10 263.5 21.5Q191 53 141.5 106.5Q92 160 66 229.5Q40 299 40 375Q40 471 71.5 547.5Q103 624 158 678Q213 732 288.5 761Q364 790 451 790Q544 790 616.5 758Q689 726 738.5 673Q788 620 814 550.5Q840 481 840 405Q840 309 808.5 232.5Q777 156 722 102Q667 48 591.5 19Q516 -10 429 -10ZM455 70Q501 70 534 93.5Q567 117 588.5 158.5Q610 200 620.5 255.5Q631 311 631 376Q631 445 617.5 506Q604 567 578 612Q552 657 513.5 683.5Q475 710 425 710Q379 710 346 686.5Q313 663 291.5 621.5Q270 580 259.5 524Q249 468 249 404Q249 335 262.5 274Q276 213 302 168Q328 123 366.5 96.5Q405 70 455 70Z" glyph-name="Obreve" horiz-adv-x="880" unicode="&#334;" /><glyph d="M651 822H564L440 924L316 822H229L386 1030H494ZM429 -10Q336 -10 263.5 21.5Q191 53 141.5 106.5Q92 160 66 229.5Q40 299 40 375Q40 471 71.5 547.5Q103 624 158 678Q213 732 288.5 761Q364 790 451 790Q544 790 616.5 758Q689 726 738.5 673Q788 620 814 550.5Q840 481 840 405Q840 309 808.5 232.5Q777 156 722 102Q667 48 591.5 19Q516 -10 429 -10ZM455 70Q501 70 534 93.5Q567 117 588.5 158.5Q610 200 620.5 255.5Q631 311 631 376Q631 445 617.5 506Q604 567 578 612Q552 657 513.5 683.5Q475 710 425 710Q379 710 346 686.5Q313 663 291.5 621.5Q270 580 259.5 524Q249 468 249 404Q249 335 262.5 274Q276 213 302 168Q328 123 366.5 96.5Q405 70 455 70Z" glyph-name="Ocircumflex" horiz-adv-x="880" unicode="&#212;" /><glyph d="M461 926Q461 945 468.5 962.5Q476 980 488.5 992.5Q501 1005 517.5 1012.5Q534 1020 553 1020Q592 1020 619.5 992.5Q647 965 647 926Q647 907 639.5 890.5Q632 874 619.5 861.5Q607 849 589.5 841.5Q572 834 553 834Q515 834 488 861Q461 888 461 926ZM233 926Q233 945 240.5 962.5Q248 980 260.5 992.5Q273 1005 289.5 1012.5Q306 1020 325 1020Q344 1020 361.5 1012.5Q379 1005 391.5 992.5Q404 980 411.5 962.5Q419 945 419 926Q419 907 411.5 890.5Q404 874 391.5 861.5Q379 849 361.5 841.5Q344 834 325 834Q287 834 260 861Q233 888 233 926ZM429 -10Q336 -10 263.5 21.5Q191 53 141.5 106.5Q92 160 66 229.5Q40 299 40 375Q40 471 71.5 547.5Q103 624 158 678Q213 732 288.5 761Q364 790 451 790Q544 790 616.5 758Q689 726 738.5 673Q788 620 814 550.5Q840 481 840 405Q840 309 808.5 232.5Q777 156 722 102Q667 48 591.5 19Q516 -10 429 -10ZM455 70Q501 70 534 93.5Q567 117 588.5 158.5Q610 200 620.5 255.5Q631 311 631 376Q631 445 617.5 506Q604 567 578 612Q552 657 513.5 683.5Q475 710 425 710Q379 710 346 686.5Q313 663 291.5 621.5Q270 580 259.5 524Q249 468 249 404Q249 335 262.5 274Q276 213 302 168Q328 123 366.5 96.5Q405 70 455 70Z" glyph-name="Odieresis" horiz-adv-x="880" unicode="&#214;" /><glyph d="M398 1030 482 822H397L196 1030ZM429 -10Q336 -10 263.5 21.5Q191 53 141.5 106.5Q92 160 66 229.5Q40 299 40 375Q40 471 71.5 547.5Q103 624 158 678Q213 732 288.5 761Q364 790 451 790Q544 790 616.5 758Q689 726 738.5 673Q788 620 814 550.5Q840 481 840 405Q840 309 808.5 232.5Q777 156 722 102Q667 48 591.5 19Q516 -10 429 -10ZM455 70Q501 70 534 93.5Q567 117 588.5 158.5Q610 200 620.5 255.5Q631 311 631 376Q631 445 617.5 506Q604 567 578 612Q552 657 513.5 683.5Q475 710 425 710Q379 710 346 686.5Q313 663 291.5 621.5Q270 580 259.5 524Q249 468 249 404Q249 335 262.5 274Q276 213 302 168Q328 123 366.5 96.5Q405 70 455 70Z" glyph-name="Ograve" horiz-adv-x="880" unicode="&#210;" /><glyph d="M694 1030 563 822H485L552 1030ZM504 1030 373 822H295L362 1030ZM429 -10Q336 -10 263.5 21.5Q191 53 141.5 106.5Q92 160 66 229.5Q40 299 40 375Q40 471 71.5 547.5Q103 624 158 678Q213 732 288.5 761Q364 790 451 790Q544 790 616.5 758Q689 726 738.5 673Q788 620 814 550.5Q840 481 840 405Q840 309 808.5 232.5Q777 156 722 102Q667 48 591.5 19Q516 -10 429 -10ZM455 70Q501 70 534 93.5Q567 117 588.5 158.5Q610 200 620.5 255.5Q631 311 631 376Q631 445 617.5 506Q604 567 578 612Q552 657 513.5 683.5Q475 710 425 710Q379 710 346 686.5Q313 663 291.5 621.5Q270 580 259.5 524Q249 468 249 404Q249 335 262.5 274Q276 213 302 168Q328 123 366.5 96.5Q405 70 455 70Z" glyph-name="Ohungarumlaut" horiz-adv-x="880" unicode="&#336;" /><glyph d="M289 941H591V851H289ZM429 -10Q336 -10 263.5 21.5Q191 53 141.5 106.5Q92 160 66 229.5Q40 299 40 375Q40 471 71.5 547.5Q103 624 158 678Q213 732 288.5 761Q364 790 451 790Q544 790 616.5 758Q689 726 738.5 673Q788 620 814 550.5Q840 481 840 405Q840 309 808.5 232.5Q777 156 722 102Q667 48 591.5 19Q516 -10 429 -10ZM455 70Q501 70 534 93.5Q567 117 588.5 158.5Q610 200 620.5 255.5Q631 311 631 376Q631 445 617.5 506Q604 567 578 612Q552 657 513.5 683.5Q475 710 425 710Q379 710 346 686.5Q313 663 291.5 621.5Q270 580 259.5 524Q249 468 249 404Q249 335 262.5 274Q276 213 302 168Q328 123 366.5 96.5Q405 70 455 70Z" glyph-name="Omacron" horiz-adv-x="880" unicode="&#332;" /><glyph d="M244 404Q244 327 260 264L585 588Q559 644 518 677Q477 710 420 710Q374 710 341 686.5Q308 663 286.5 621.5Q265 580 254.5 524Q244 468 244 404ZM450 70Q496 70 529 93.5Q562 117 583.5 158.5Q605 200 615.5 255.5Q626 311 626 376Q626 413 622 448Q618 483 610 515L284 193Q310 136 351.5 103Q393 70 450 70ZM424 -10Q343 -10 279 13Q215 36 167 77L79 -10L35 41L120 125Q78 177 56.5 241Q35 305 35 375Q35 471 66.5 547.5Q98 624 153 678Q208 732 283.5 761Q359 790 446 790Q526 790 590 767Q654 744 702 703L789 790L836 738L750 654Q792 602 813.5 538Q835 474 835 405Q835 309 803.5 232.5Q772 156 717 102Q662 48 586.5 19Q511 -10 424 -10Z" glyph-name="Oslash" horiz-adv-x="870" unicode="&#216;" /><glyph d="M512 841Q490 841 469.5 850Q449 859 430 869.5Q411 880 394 889Q377 898 362 898Q340 898 325.5 884.5Q311 871 296 843L238 853Q267 941 301.5 978Q336 1015 387 1015Q409 1015 429.5 1006Q450 997 469 986.5Q488 976 505 967Q522 958 537 958Q559 958 573.5 971.5Q588 985 603 1013L661 1003Q646 959 630.5 928Q615 897 597 877.5Q579 858 558 849.5Q537 841 512 841ZM429 -10Q336 -10 263.5 21.5Q191 53 141.5 106.5Q92 160 66 229.5Q40 299 40 375Q40 471 71.5 547.5Q103 624 158 678Q213 732 288.5 761Q364 790 451 790Q544 790 616.5 758Q689 726 738.5 673Q788 620 814 550.5Q840 481 840 405Q840 309 808.5 232.5Q777 156 722 102Q667 48 591.5 19Q516 -10 429 -10ZM455 70Q501 70 534 93.5Q567 117 588.5 158.5Q610 200 620.5 255.5Q631 311 631 376Q631 445 617.5 506Q604 567 578 612Q552 657 513.5 683.5Q475 710 425 710Q379 710 346 686.5Q313 663 291.5 621.5Q270 580 259.5 524Q249 468 249 404Q249 335 262.5 274Q276 213 302 168Q328 123 366.5 96.5Q405 70 455 70Z" glyph-name="Otilde" horiz-adv-x="880" unicode="&#213;" /><glyph d="M325 374H397Q480 374 519.5 416Q559 458 559 543Q559 615 515 660Q471 705 390 705H325ZM325 304V142Q325 119 332.5 105Q340 91 356 83Q372 75 397 71Q422 67 457 66V0H40V66Q68 67 86 70.5Q104 74 114 82.5Q124 91 128 105Q132 119 132 142V638Q132 660 128 674.5Q124 689 114 697.5Q104 706 86 709.5Q68 713 40 714V780H447Q529 780 588 761.5Q647 743 684.5 711Q722 679 739.5 636.5Q757 594 757 545Q757 490 738.5 445.5Q720 401 682 369.5Q644 338 586.5 321Q529 304 450 304Z" glyph-name="P" horiz-adv-x="787" unicode="P" /><glyph d="M325 142Q325 119 332.5 105Q340 91 356 83Q372 75 397 71Q422 67 457 66V0H40V66Q68 67 86 70.5Q104 74 114 82.5Q124 91 128 105Q132 119 132 142V638Q132 660 128 674.5Q124 689 114 697.5Q104 706 86 709.5Q68 713 40 714V780H447Q526 780 584.5 762Q643 744 681.5 712.5Q720 681 738.5 638Q757 595 757 545Q757 431 689.5 367.5Q622 304 494 304Q453 304 423 309.5Q393 315 373 325V374H407Q490 374 524.5 416Q559 458 559 543Q559 615 515 660Q471 705 390 705H325Z" glyph-name="P.hist" horiz-adv-x="787" /><glyph d="M456 68Q502 68 535 91.5Q568 115 589.5 156.5Q611 198 621 254Q631 310 631 375Q631 444 617.5 505Q604 566 578 611.5Q552 657 513.5 683.5Q475 710 425 710Q379 710 346 686.5Q313 663 291.5 621.5Q270 580 259.5 524Q249 468 249 403Q249 334 262.5 273Q276 212 302 166.5Q328 121 367 94.5Q406 68 456 68ZM357 -1Q280 11 221 45.5Q162 80 122 130.5Q82 181 61 244Q40 307 40 375Q40 471 71.5 547.5Q103 624 158 678Q213 732 288.5 761Q364 790 451 790Q544 790 616.5 758Q689 726 738.5 673Q788 620 814 550.5Q840 481 840 405Q840 328 817.5 262Q795 196 754.5 144.5Q714 93 657.5 58.5Q601 24 534 11L648 -51Q694 -76 730 -87Q766 -98 810 -98H836V-149Q815 -166 774.5 -183Q734 -200 685 -200Q612 -200 550.5 -172Q489 -144 441 -93Z" glyph-name="Q" horiz-adv-x="880" unicode="Q" /><glyph d="M453 780Q538 780 597 763Q656 746 692 716.5Q728 687 744 648Q760 609 760 565Q760 510 738.5 471Q717 432 683 407Q649 382 607.5 369.5Q566 357 526 354Q575 346 612.5 325.5Q650 305 686 259L775 145Q790 126 801 112.5Q812 99 823 89.5Q834 80 848 74.5Q862 69 882 66V0H664Q638 20 618.5 42.5Q599 65 578 94L437 279Q414 309 394 321.5Q374 334 339 334H325V142Q325 119 329 105Q333 91 343 82.5Q353 74 371 70.5Q389 67 417 66V0H40V66Q68 67 86 70.5Q104 74 114 82.5Q124 91 128 105Q132 119 132 142V638Q132 660 128 674.5Q124 689 114 697.5Q104 706 86 709.5Q68 713 40 714V780ZM325 705V412H388Q478 412 517.5 447.5Q557 483 557 565Q557 632 516 668.5Q475 705 388 705Z" glyph-name="R" horiz-adv-x="892" unicode="R" /><glyph d="M643 1030 442 822H357L451 1030ZM453 780Q538 780 597 763Q656 746 692 716.5Q728 687 744 648Q760 609 760 565Q760 510 738.5 471Q717 432 683 407Q649 382 607.5 369.5Q566 357 526 354Q575 346 612.5 325.5Q650 305 686 259L775 145Q790 126 801 112.5Q812 99 823 89.5Q834 80 848 74.5Q862 69 882 66V0H664Q638 20 618.5 42.5Q599 65 578 94L437 279Q414 309 394 321.5Q374 334 339 334H325V142Q325 119 329 105Q333 91 343 82.5Q353 74 371 70.5Q389 67 417 66V0H40V66Q68 67 86 70.5Q104 74 114 82.5Q124 91 128 105Q132 119 132 142V638Q132 660 128 674.5Q124 689 114 697.5Q104 706 86 709.5Q68 713 40 714V780ZM325 705V412H388Q478 412 517.5 447.5Q557 483 557 565Q557 632 516 668.5Q475 705 388 705Z" glyph-name="Racute" horiz-adv-x="892" unicode="&#340;" /><glyph d="M190 1030H277L401 928L525 1030H612L455 822H347ZM453 780Q538 780 597 763Q656 746 692 716.5Q728 687 744 648Q760 609 760 565Q760 510 738.5 471Q717 432 683 407Q649 382 607.5 369.5Q566 357 526 354Q575 346 612.5 325.5Q650 305 686 259L775 145Q790 126 801 112.5Q812 99 823 89.5Q834 80 848 74.5Q862 69 882 66V0H664Q638 20 618.5 42.5Q599 65 578 94L437 279Q414 309 394 321.5Q374 334 339 334H325V142Q325 119 329 105Q333 91 343 82.5Q353 74 371 70.5Q389 67 417 66V0H40V66Q68 67 86 70.5Q104 74 114 82.5Q124 91 128 105Q132 119 132 142V638Q132 660 128 674.5Q124 689 114 697.5Q104 706 86 709.5Q68 713 40 714V780ZM325 705V412H388Q478 412 517.5 447.5Q557 483 557 565Q557 632 516 668.5Q475 705 388 705Z" glyph-name="Rcaron" horiz-adv-x="892" unicode="&#344;" /><glyph d="M434 -160Q407 -154 393 -139.5Q379 -125 379 -99Q379 -73 398.5 -54.5Q418 -36 455 -36Q497 -36 522 -62Q547 -88 547 -131Q547 -156 539 -177Q531 -198 513 -214Q495 -230 466 -239.5Q437 -249 395 -250V-206Q439 -202 458.5 -191Q478 -180 478 -160ZM453 780Q538 780 597 763Q656 746 692 716.5Q728 687 744 648Q760 609 760 565Q760 510 738.5 471Q717 432 683 407Q649 382 607.5 369.5Q566 357 526 354Q575 346 612.5 325.5Q650 305 686 259L775 145Q790 126 801 112.5Q812 99 823 89.5Q834 80 848 74.5Q862 69 882 66V0H664Q638 20 618.5 42.5Q599 65 578 94L437 279Q414 309 394 321.5Q374 334 339 334H325V142Q325 119 329 105Q333 91 343 82.5Q353 74 371 70.5Q389 67 417 66V0H40V66Q68 67 86 70.5Q104 74 114 82.5Q124 91 128 105Q132 119 132 142V638Q132 660 128 674.5Q124 689 114 697.5Q104 706 86 709.5Q68 713 40 714V780ZM325 705V412H388Q478 412 517.5 447.5Q557 483 557 565Q557 632 516 668.5Q475 705 388 705Z" glyph-name="Rcommaaccent" horiz-adv-x="892" unicode="&#342;" /><glyph d="M320 -10Q239 -10 169 10.5Q99 31 57 62L45 249H145Q170 155 216 109Q262 63 343 63Q398 63 434 89Q470 115 470 168Q470 191 464 208.5Q458 226 444.5 240.5Q431 255 408.5 266Q386 277 353 287L255 315Q208 328 171 347Q134 366 107.5 393Q81 420 67 457.5Q53 495 53 545Q53 602 74 647.5Q95 693 132.5 724.5Q170 756 222 773Q274 790 335 790Q422 790 487 772Q552 754 594 724L596 554H510Q498 590 483 619.5Q468 649 446.5 671Q425 693 394 705Q363 717 320 717Q267 717 239.5 690Q212 663 212 621Q212 570 240.5 544Q269 518 333 500L419 476Q464 463 504 445.5Q544 428 573.5 400.5Q603 373 620 333Q637 293 637 236Q637 173 611.5 126.5Q586 80 543 50Q500 20 442 5Q384 -10 320 -10Z" glyph-name="S" horiz-adv-x="682" unicode="S" /><glyph d="M576 1030 375 822H290L384 1030ZM320 -10Q239 -10 169 10.5Q99 31 57 62L45 249H145Q170 155 216 109Q262 63 343 63Q398 63 434 89Q470 115 470 168Q470 191 464 208.5Q458 226 444.5 240.5Q431 255 408.5 266Q386 277 353 287L255 315Q208 328 171 347Q134 366 107.5 393Q81 420 67 457.5Q53 495 53 545Q53 602 74 647.5Q95 693 132.5 724.5Q170 756 222 773Q274 790 335 790Q422 790 487 772Q552 754 594 724L596 554H510Q498 590 483 619.5Q468 649 446.5 671Q425 693 394 705Q363 717 320 717Q267 717 239.5 690Q212 663 212 621Q212 570 240.5 544Q269 518 333 500L419 476Q464 463 504 445.5Q544 428 573.5 400.5Q603 373 620 333Q637 293 637 236Q637 173 611.5 126.5Q586 80 543 50Q500 20 442 5Q384 -10 320 -10Z" glyph-name="Sacute" horiz-adv-x="682" unicode="&#346;" /><glyph d="M123 1030H210L334 928L458 1030H545L388 822H280ZM320 -10Q239 -10 169 10.5Q99 31 57 62L45 249H145Q170 155 216 109Q262 63 343 63Q398 63 434 89Q470 115 470 168Q470 191 464 208.5Q458 226 444.5 240.5Q431 255 408.5 266Q386 277 353 287L255 315Q208 328 171 347Q134 366 107.5 393Q81 420 67 457.5Q53 495 53 545Q53 602 74 647.5Q95 693 132.5 724.5Q170 756 222 773Q274 790 335 790Q422 790 487 772Q552 754 594 724L596 554H510Q498 590 483 619.5Q468 649 446.5 671Q425 693 394 705Q363 717 320 717Q267 717 239.5 690Q212 663 212 621Q212 570 240.5 544Q269 518 333 500L419 476Q464 463 504 445.5Q544 428 573.5 400.5Q603 373 620 333Q637 293 637 236Q637 173 611.5 126.5Q586 80 543 50Q500 20 442 5Q384 -10 320 -10Z" glyph-name="Scaron" horiz-adv-x="682" unicode="&#352;" /><glyph d="M637 236Q637 173 612 127Q587 81 544 50.5Q501 20 443.5 5Q386 -10 322 -10L314 -45Q374 -50 406.5 -76Q439 -102 439 -150Q439 -175 429 -194Q419 -213 402 -225.5Q385 -238 363.5 -244Q342 -250 319 -250Q287 -250 264.5 -241.5Q242 -233 229 -223L244 -183Q258 -191 275.5 -196.5Q293 -202 310 -202Q330 -202 341 -195.5Q352 -189 352 -174Q352 -150 321.5 -141.5Q291 -133 246 -129L270 -8Q204 -2 148 17Q92 36 57 62L45 249H145Q170 155 216 109Q262 63 343 63Q398 63 434 89Q470 115 470 168Q470 191 464 208.5Q458 226 444.5 240.5Q431 255 408.5 266Q386 277 353 287L255 315Q208 328 171 347Q134 366 107.5 393Q81 420 67 457.5Q53 495 53 545Q53 602 74 647.5Q95 693 132.5 724.5Q170 756 222 773Q274 790 335 790Q422 790 487 772Q552 754 594 724L596 554H510Q498 590 483 619.5Q468 649 446.5 671Q425 693 394 705Q363 717 320 717Q267 717 239.5 690Q212 663 212 621Q212 570 240.5 544Q269 518 333 500L419 476Q464 463 504 445.5Q544 428 573.5 400.5Q603 373 620 333Q637 293 637 236Z" glyph-name="Scedilla" horiz-adv-x="682" unicode="&#350;" /><glyph d="M545 822H458L334 924L210 822H123L280 1030H388ZM320 -10Q239 -10 169 10.5Q99 31 57 62L45 249H145Q170 155 216 109Q262 63 343 63Q398 63 434 89Q470 115 470 168Q470 191 464 208.5Q458 226 444.5 240.5Q431 255 408.5 266Q386 277 353 287L255 315Q208 328 171 347Q134 366 107.5 393Q81 420 67 457.5Q53 495 53 545Q53 602 74 647.5Q95 693 132.5 724.5Q170 756 222 773Q274 790 335 790Q422 790 487 772Q552 754 594 724L596 554H510Q498 590 483 619.5Q468 649 446.5 671Q425 693 394 705Q363 717 320 717Q267 717 239.5 690Q212 663 212 621Q212 570 240.5 544Q269 518 333 500L419 476Q464 463 504 445.5Q544 428 573.5 400.5Q603 373 620 333Q637 293 637 236Q637 173 611.5 126.5Q586 80 543 50Q500 20 442 5Q384 -10 320 -10Z" glyph-name="Scircumflex" horiz-adv-x="682" unicode="&#348;" /><glyph d="M305 -160Q278 -154 264 -139.5Q250 -125 250 -99Q250 -73 269.5 -54.5Q289 -36 326 -36Q368 -36 393 -62Q418 -88 418 -131Q418 -156 410 -177Q402 -198 384 -214Q366 -230 337 -239.5Q308 -249 266 -250V-206Q310 -202 329.5 -191Q349 -180 349 -160ZM320 -10Q239 -10 169 10.5Q99 31 57 62L45 249H145Q170 155 216 109Q262 63 343 63Q398 63 434 89Q470 115 470 168Q470 191 464 208.5Q458 226 444.5 240.5Q431 255 408.5 266Q386 277 353 287L255 315Q208 328 171 347Q134 366 107.5 393Q81 420 67 457.5Q53 495 53 545Q53 602 74 647.5Q95 693 132.5 724.5Q170 756 222 773Q274 790 335 790Q422 790 487 772Q552 754 594 724L596 554H510Q498 590 483 619.5Q468 649 446.5 671Q425 693 394 705Q363 717 320 717Q267 717 239.5 690Q212 663 212 621Q212 570 240.5 544Q269 518 333 500L419 476Q464 463 504 445.5Q544 428 573.5 400.5Q603 373 620 333Q637 293 637 236Q637 173 611.5 126.5Q586 80 543 50Q500 20 442 5Q384 -10 320 -10Z" glyph-name="Scommaaccent" horiz-adv-x="682" unicode="&#536;" /><glyph d="M790 780 806 529H725Q705 574 688.5 608Q672 642 653 664.5Q634 687 610 698.5Q586 710 551 710H507V142Q507 119 512 105Q517 91 528.5 82.5Q540 74 559 70.5Q578 67 606 66V0H215V66Q243 67 262 70.5Q281 74 292.5 82.5Q304 91 309 105Q314 119 314 142V710H270Q235 710 211 698.5Q187 687 168 664.5Q149 642 132.5 608Q116 574 96 529H15L31 780Z" glyph-name="T" horiz-adv-x="821" unicode="T" /><glyph d="M790 780 806 529H725Q705 574 688.5 608Q672 642 653 664.5Q634 687 610 698.5Q586 710 551 710H507V418H651V352H507V142Q507 119 512 105Q517 91 528.5 82.5Q540 74 559 70.5Q578 67 606 66V0H215V66Q243 67 262 70.5Q281 74 292.5 82.5Q304 91 309 105Q314 119 314 142V352H170V418H314V710H270Q235 710 211 698.5Q187 687 168 664.5Q149 642 132.5 608Q116 574 96 529H15L31 780Z" glyph-name="Tbar" horiz-adv-x="821" unicode="&#358;" /><glyph d="M199 1030H286L410 928L534 1030H621L464 822H356ZM790 780 806 529H725Q705 574 688.5 608Q672 642 653 664.5Q634 687 610 698.5Q586 710 551 710H507V142Q507 119 512 105Q517 91 528.5 82.5Q540 74 559 70.5Q578 67 606 66V0H215V66Q243 67 262 70.5Q281 74 292.5 82.5Q304 91 309 105Q314 119 314 142V710H270Q235 710 211 698.5Q187 687 168 664.5Q149 642 132.5 608Q116 574 96 529H15L31 780Z" glyph-name="Tcaron" horiz-adv-x="821" unicode="&#356;" /><glyph d="M381 -160Q354 -154 340 -139.5Q326 -125 326 -99Q326 -73 345.5 -54.5Q365 -36 402 -36Q444 -36 469 -62Q494 -88 494 -131Q494 -156 486 -177Q478 -198 460 -214Q442 -230 413 -239.5Q384 -249 342 -250V-206Q386 -202 405.5 -191Q425 -180 425 -160ZM790 780 806 529H725Q705 574 688.5 608Q672 642 653 664.5Q634 687 610 698.5Q586 710 551 710H507V142Q507 119 512 105Q517 91 528.5 82.5Q540 74 559 70.5Q578 67 606 66V0H215V66Q243 67 262 70.5Q281 74 292.5 82.5Q304 91 309 105Q314 119 314 142V710H270Q235 710 211 698.5Q187 687 168 664.5Q149 642 132.5 608Q116 574 96 529H15L31 780Z" glyph-name="Tcommaaccent" horiz-adv-x="821" unicode="&#354;" /><glyph d="M325 624H447Q529 624 588 607Q647 590 684.5 560Q722 530 739.5 489Q757 448 757 399Q757 288 682.5 228Q608 168 450 168H325V142Q325 119 332.5 105Q340 91 356 83Q372 75 397 71Q422 67 457 66V0H40V66Q68 67 86 70.5Q104 74 114 82.5Q124 91 128 105Q132 119 132 142V638Q132 660 128 674.5Q124 689 114 697.5Q104 706 86 709.5Q68 713 40 714V780H417V714Q389 713 371 709.5Q353 706 343 697.5Q333 689 329 674.5Q325 660 325 638ZM325 238H397Q480 238 519.5 275Q559 312 559 397Q559 469 515 509Q471 549 390 549H325Z" glyph-name="Thorn" horiz-adv-x="787" unicode="&#222;" /><glyph d="M325 142Q325 119 332.5 105Q340 91 356 83Q372 75 397 71Q422 67 457 66V0H40V66Q68 67 86 70.5Q104 74 114 82.5Q124 91 128 105Q132 119 132 142V638Q132 660 128 674.5Q124 689 114 697.5Q104 706 86 709.5Q68 713 40 714V780H417V714Q389 713 371 709.5Q353 706 343 697.5Q333 689 329 674.5Q325 660 325 638V624H447Q529 624 588 607Q647 590 684.5 560Q722 530 739.5 489Q757 448 757 399Q757 277 689 222.5Q621 168 494 168Q453 168 423 173.5Q393 179 373 189V238H407Q483 238 521 275Q559 312 559 397Q559 469 515 509Q471 549 390 549H325Z" glyph-name="Thorn.hist" horiz-adv-x="787" /><glyph d="M310 288Q310 197 350 144.5Q390 92 478 92Q518 92 553.5 101.5Q589 111 615 134.5Q641 158 656 197.5Q671 237 671 297V638Q671 660 665.5 674.5Q660 689 648 697.5Q636 706 616.5 709.5Q597 713 569 714V780H861V714Q833 713 815 709.5Q797 706 787 697.5Q777 689 773 674.5Q769 660 769 638V272Q769 200 743.5 146.5Q718 93 675 58.5Q632 24 575 7Q518 -10 456 -10Q294 -10 205.5 61Q117 132 117 273V638Q117 660 113 674.5Q109 689 99 697.5Q89 706 71 709.5Q53 713 25 714V780H402V714Q374 713 356 709.5Q338 706 328 697.5Q318 689 314 674.5Q310 660 310 638Z" glyph-name="U" horiz-adv-x="886" unicode="U" /><glyph d="M721 1030 520 822H435L529 1030ZM310 288Q310 197 350 144.5Q390 92 478 92Q518 92 553.5 101.5Q589 111 615 134.5Q641 158 656 197.5Q671 237 671 297V638Q671 660 665.5 674.5Q660 689 648 697.5Q636 706 616.5 709.5Q597 713 569 714V780H861V714Q833 713 815 709.5Q797 706 787 697.5Q777 689 773 674.5Q769 660 769 638V272Q769 200 743.5 146.5Q718 93 675 58.5Q632 24 575 7Q518 -10 456 -10Q294 -10 205.5 61Q117 132 117 273V638Q117 660 113 674.5Q109 689 99 697.5Q89 706 71 709.5Q53 713 25 714V780H402V714Q374 713 356 709.5Q338 706 328 697.5Q318 689 314 674.5Q310 660 310 638Z" glyph-name="Uacute" horiz-adv-x="886" unicode="&#218;" /><glyph d="M479 829Q431 829 397 842.5Q363 856 341.5 882Q320 908 310.5 945.5Q301 983 301 1030H359Q363 1001 374.5 982Q386 963 402 952Q418 941 438 937Q458 933 479 933Q500 933 520 937Q540 941 556 952Q572 963 583.5 982Q595 1001 599 1030H657Q657 983 647.5 945.5Q638 908 616.5 882Q595 856 561 842.5Q527 829 479 829ZM310 288Q310 197 350 144.5Q390 92 478 92Q518 92 553.5 101.5Q589 111 615 134.5Q641 158 656 197.5Q671 237 671 297V638Q671 660 665.5 674.5Q660 689 648 697.5Q636 706 616.5 709.5Q597 713 569 714V780H861V714Q833 713 815 709.5Q797 706 787 697.5Q777 689 773 674.5Q769 660 769 638V272Q769 200 743.5 146.5Q718 93 675 58.5Q632 24 575 7Q518 -10 456 -10Q294 -10 205.5 61Q117 132 117 273V638Q117 660 113 674.5Q109 689 99 697.5Q89 706 71 709.5Q53 713 25 714V780H402V714Q374 713 356 709.5Q338 706 328 697.5Q318 689 314 674.5Q310 660 310 638Z" glyph-name="Ubreve" horiz-adv-x="886" unicode="&#364;" /><glyph d="M690 822H603L479 924L355 822H268L425 1030H533ZM310 288Q310 197 350 144.5Q390 92 478 92Q518 92 553.5 101.5Q589 111 615 134.5Q641 158 656 197.5Q671 237 671 297V638Q671 660 665.5 674.5Q660 689 648 697.5Q636 706 616.5 709.5Q597 713 569 714V780H861V714Q833 713 815 709.5Q797 706 787 697.5Q777 689 773 674.5Q769 660 769 638V272Q769 200 743.5 146.5Q718 93 675 58.5Q632 24 575 7Q518 -10 456 -10Q294 -10 205.5 61Q117 132 117 273V638Q117 660 113 674.5Q109 689 99 697.5Q89 706 71 709.5Q53 713 25 714V780H402V714Q374 713 356 709.5Q338 706 328 697.5Q318 689 314 674.5Q310 660 310 638Z" glyph-name="Ucircumflex" horiz-adv-x="886" unicode="&#219;" /><glyph d="M500 926Q500 945 507.5 962.5Q515 980 527.5 992.5Q540 1005 556.5 1012.5Q573 1020 592 1020Q631 1020 658.5 992.5Q686 965 686 926Q686 907 678.5 890.5Q671 874 658.5 861.5Q646 849 628.5 841.5Q611 834 592 834Q554 834 527 861Q500 888 500 926ZM272 926Q272 945 279.5 962.5Q287 980 299.5 992.5Q312 1005 328.5 1012.5Q345 1020 364 1020Q383 1020 400.5 1012.5Q418 1005 430.5 992.5Q443 980 450.5 962.5Q458 945 458 926Q458 907 450.5 890.5Q443 874 430.5 861.5Q418 849 400.5 841.5Q383 834 364 834Q326 834 299 861Q272 888 272 926ZM310 288Q310 197 350 144.5Q390 92 478 92Q518 92 553.5 101.5Q589 111 615 134.5Q641 158 656 197.5Q671 237 671 297V638Q671 660 665.5 674.5Q660 689 648 697.5Q636 706 616.5 709.5Q597 713 569 714V780H861V714Q833 713 815 709.5Q797 706 787 697.5Q777 689 773 674.5Q769 660 769 638V272Q769 200 743.5 146.5Q718 93 675 58.5Q632 24 575 7Q518 -10 456 -10Q294 -10 205.5 61Q117 132 117 273V638Q117 660 113 674.5Q109 689 99 697.5Q89 706 71 709.5Q53 713 25 714V780H402V714Q374 713 356 709.5Q338 706 328 697.5Q318 689 314 674.5Q310 660 310 638Z" glyph-name="Udieresis" horiz-adv-x="886" unicode="&#220;" /><glyph d="M437 1030 521 822H436L235 1030ZM310 288Q310 197 350 144.5Q390 92 478 92Q518 92 553.5 101.5Q589 111 615 134.5Q641 158 656 197.5Q671 237 671 297V638Q671 660 665.5 674.5Q660 689 648 697.5Q636 706 616.5 709.5Q597 713 569 714V780H861V714Q833 713 815 709.5Q797 706 787 697.5Q777 689 773 674.5Q769 660 769 638V272Q769 200 743.5 146.5Q718 93 675 58.5Q632 24 575 7Q518 -10 456 -10Q294 -10 205.5 61Q117 132 117 273V638Q117 660 113 674.5Q109 689 99 697.5Q89 706 71 709.5Q53 713 25 714V780H402V714Q374 713 356 709.5Q338 706 328 697.5Q318 689 314 674.5Q310 660 310 638Z" glyph-name="Ugrave" horiz-adv-x="886" unicode="&#217;" /><glyph d="M733 1030 602 822H524L591 1030ZM543 1030 412 822H334L401 1030ZM310 288Q310 197 350 144.5Q390 92 478 92Q518 92 553.5 101.5Q589 111 615 134.5Q641 158 656 197.5Q671 237 671 297V638Q671 660 665.5 674.5Q660 689 648 697.5Q636 706 616.5 709.5Q597 713 569 714V780H861V714Q833 713 815 709.5Q797 706 787 697.5Q777 689 773 674.5Q769 660 769 638V272Q769 200 743.5 146.5Q718 93 675 58.5Q632 24 575 7Q518 -10 456 -10Q294 -10 205.5 61Q117 132 117 273V638Q117 660 113 674.5Q109 689 99 697.5Q89 706 71 709.5Q53 713 25 714V780H402V714Q374 713 356 709.5Q338 706 328 697.5Q318 689 314 674.5Q310 660 310 638Z" glyph-name="Uhungarumlaut" horiz-adv-x="886" unicode="&#368;" /><glyph d="M328 941H630V851H328ZM310 288Q310 197 350 144.5Q390 92 478 92Q518 92 553.5 101.5Q589 111 615 134.5Q641 158 656 197.5Q671 237 671 297V638Q671 660 665.5 674.5Q660 689 648 697.5Q636 706 616.5 709.5Q597 713 569 714V780H861V714Q833 713 815 709.5Q797 706 787 697.5Q777 689 773 674.5Q769 660 769 638V272Q769 200 743.5 146.5Q718 93 675 58.5Q632 24 575 7Q518 -10 456 -10Q294 -10 205.5 61Q117 132 117 273V638Q117 660 113 674.5Q109 689 99 697.5Q89 706 71 709.5Q53 713 25 714V780H402V714Q374 713 356 709.5Q338 706 328 697.5Q318 689 314 674.5Q310 660 310 638Z" glyph-name="Umacron" horiz-adv-x="886" unicode="&#362;" /><glyph d="M310 288Q310 197 350 144.5Q390 92 478 92Q518 92 553.5 101.5Q589 111 615 134.5Q641 158 656 197.5Q671 237 671 297V638Q671 660 665.5 674.5Q660 689 648 697.5Q636 706 616.5 709.5Q597 713 569 714V780H861V714Q833 713 815 709.5Q797 706 787 697.5Q777 689 773 674.5Q769 660 769 638V272Q769 220 755.5 178.5Q742 137 718.5 104.5Q695 72 662.5 49Q630 26 591 12Q533 -16 512.5 -50Q492 -84 492 -119Q492 -146 505 -161.5Q518 -177 547 -177Q568 -177 582.5 -170Q597 -163 614 -152L626 -195Q607 -217 572.5 -233.5Q538 -250 499 -250Q442 -250 407.5 -222Q373 -194 373 -142Q373 -100 391.5 -69Q410 -38 441 -10Q286 -6 201.5 64.5Q117 135 117 273V638Q117 660 113 674.5Q109 689 99 697.5Q89 706 71 709.5Q53 713 25 714V780H402V714Q374 713 356 709.5Q338 706 328 697.5Q318 689 314 674.5Q310 660 310 638Z" glyph-name="Uogonek" horiz-adv-x="886" unicode="&#370;" /><glyph d="M531 926Q531 949 518 964.5Q505 980 479 980Q453 980 440 964.5Q427 949 427 926Q427 903 440 887.5Q453 872 479 872Q505 872 518 887.5Q531 903 531 926ZM358 926Q358 950 367 970.5Q376 991 391.5 1006.5Q407 1022 429.5 1031Q452 1040 479 1040Q506 1040 528.5 1031Q551 1022 567 1006.5Q583 991 592 970.5Q601 950 601 926Q601 902 592 881.5Q583 861 567 845.5Q551 830 528.5 821Q506 812 479 812Q452 812 429.5 821Q407 830 391.5 845.5Q376 861 367 881.5Q358 902 358 926ZM310 288Q310 197 350 144.5Q390 92 478 92Q518 92 553.5 101.5Q589 111 615 134.5Q641 158 656 197.5Q671 237 671 297V638Q671 660 665.5 674.5Q660 689 648 697.5Q636 706 616.5 709.5Q597 713 569 714V780H861V714Q833 713 815 709.5Q797 706 787 697.5Q777 689 773 674.5Q769 660 769 638V272Q769 200 743.5 146.5Q718 93 675 58.5Q632 24 575 7Q518 -10 456 -10Q294 -10 205.5 61Q117 132 117 273V638Q117 660 113 674.5Q109 689 99 697.5Q89 706 71 709.5Q53 713 25 714V780H402V714Q374 713 356 709.5Q338 706 328 697.5Q318 689 314 674.5Q310 660 310 638Z" glyph-name="Uring" horiz-adv-x="886" unicode="&#366;" /><glyph d="M542 841Q520 841 499.5 850Q479 859 460 869.5Q441 880 424 889Q407 898 392 898Q370 898 355.5 884.5Q341 871 326 843L268 853Q297 941 331.5 978Q366 1015 417 1015Q439 1015 459.5 1006Q480 997 499 986.5Q518 976 535 967Q552 958 567 958Q589 958 603.5 971.5Q618 985 633 1013L691 1003Q676 959 660.5 928Q645 897 627 877.5Q609 858 588 849.5Q567 841 542 841ZM310 288Q310 197 350 144.5Q390 92 478 92Q518 92 553.5 101.5Q589 111 615 134.5Q641 158 656 197.5Q671 237 671 297V638Q671 660 665.5 674.5Q660 689 648 697.5Q636 706 616.5 709.5Q597 713 569 714V780H861V714Q833 713 815 709.5Q797 706 787 697.5Q777 689 773 674.5Q769 660 769 638V272Q769 200 743.5 146.5Q718 93 675 58.5Q632 24 575 7Q518 -10 456 -10Q294 -10 205.5 61Q117 132 117 273V638Q117 660 113 674.5Q109 689 99 697.5Q89 706 71 709.5Q53 713 25 714V780H402V714Q374 713 356 709.5Q338 706 328 697.5Q318 689 314 674.5Q310 660 310 638Z" glyph-name="Utilde" horiz-adv-x="886" unicode="&#360;" /><glyph d="M649 621Q654 634 657.5 645Q661 656 661 666Q661 679 657.5 687.5Q654 696 645 701.5Q636 707 619.5 710Q603 713 577 714V780H842V714Q818 710 802 703Q786 696 776 673L476 -5H414L76 673Q65 696 49.5 703Q34 710 10 714V780H387V714Q361 713 344.5 710Q328 707 319 701.5Q310 696 306.5 687.5Q303 679 303 666Q303 656 306.5 644.5Q310 633 315 621L491 248Z" glyph-name="V" horiz-adv-x="852" unicode="V" /><glyph d="M985 612Q991 630 994.5 643Q998 656 998 666Q998 679 994.5 687.5Q991 696 982 701.5Q973 707 957 710Q941 713 915 714V780H1172V714Q1148 710 1131.5 703.5Q1115 697 1106 673L852 -5H771L605 439L434 -5H353L76 673Q66 696 49.5 703Q33 710 10 714V780H381V714Q355 713 339 710Q323 707 314 701.5Q305 696 301.5 687.5Q298 679 298 666Q298 656 301.5 644Q305 632 313 612L447 257L560 556L515 673Q505 697 488.5 703.5Q472 710 449 714V780H808V714Q782 713 766 710Q750 707 741 701.5Q732 696 728.5 687.5Q725 679 725 666Q725 656 728.5 643.5Q732 631 742 603L861 262Z" glyph-name="W" horiz-adv-x="1182" unicode="W" /><glyph d="M875 1030 674 822H589L683 1030ZM985 612Q991 630 994.5 643Q998 656 998 666Q998 679 994.5 687.5Q991 696 982 701.5Q973 707 957 710Q941 713 915 714V780H1172V714Q1148 710 1131.5 703.5Q1115 697 1106 673L852 -5H771L605 439L434 -5H353L76 673Q66 696 49.5 703Q33 710 10 714V780H381V714Q355 713 339 710Q323 707 314 701.5Q305 696 301.5 687.5Q298 679 298 666Q298 656 301.5 644Q305 632 313 612L447 257L560 556L515 673Q505 697 488.5 703.5Q472 710 449 714V780H808V714Q782 713 766 710Q750 707 741 701.5Q732 696 728.5 687.5Q725 679 725 666Q725 656 728.5 643.5Q732 631 742 603L861 262Z" glyph-name="Wacute" horiz-adv-x="1182" unicode="&#7810;" /><glyph d="M834 822H747L623 924L499 822H412L569 1030H677ZM985 612Q991 630 994.5 643Q998 656 998 666Q998 679 994.5 687.5Q991 696 982 701.5Q973 707 957 710Q941 713 915 714V780H1172V714Q1148 710 1131.5 703.5Q1115 697 1106 673L852 -5H771L605 439L434 -5H353L76 673Q66 696 49.5 703Q33 710 10 714V780H381V714Q355 713 339 710Q323 707 314 701.5Q305 696 301.5 687.5Q298 679 298 666Q298 656 301.5 644Q305 632 313 612L447 257L560 556L515 673Q505 697 488.5 703.5Q472 710 449 714V780H808V714Q782 713 766 710Q750 707 741 701.5Q732 696 728.5 687.5Q725 679 725 666Q725 656 728.5 643.5Q732 631 742 603L861 262Z" glyph-name="Wcircumflex" horiz-adv-x="1182" unicode="&#372;" /><glyph d="M644 926Q644 945 651.5 962.5Q659 980 671.5 992.5Q684 1005 700.5 1012.5Q717 1020 736 1020Q775 1020 802.5 992.5Q830 965 830 926Q830 907 822.5 890.5Q815 874 802.5 861.5Q790 849 772.5 841.5Q755 834 736 834Q698 834 671 861Q644 888 644 926ZM416 926Q416 945 423.5 962.5Q431 980 443.5 992.5Q456 1005 472.5 1012.5Q489 1020 508 1020Q547 1020 574.5 992.5Q602 965 602 926Q602 907 594.5 890.5Q587 874 574.5 861.5Q562 849 544.5 841.5Q527 834 508 834Q470 834 443 861Q416 888 416 926ZM985 612Q991 630 994.5 643Q998 656 998 666Q998 679 994.5 687.5Q991 696 982 701.5Q973 707 957 710Q941 713 915 714V780H1172V714Q1148 710 1131.5 703.5Q1115 697 1106 673L852 -5H771L605 439L434 -5H353L76 673Q66 696 49.5 703Q33 710 10 714V780H381V714Q355 713 339 710Q323 707 314 701.5Q305 696 301.5 687.5Q298 679 298 666Q298 656 301.5 644Q305 632 313 612L447 257L560 556L515 673Q505 697 488.5 703.5Q472 710 449 714V780H808V714Q782 713 766 710Q750 707 741 701.5Q732 696 728.5 687.5Q725 679 725 666Q725 656 728.5 643.5Q732 631 742 603L861 262Z" glyph-name="Wdieresis" horiz-adv-x="1182" unicode="&#7812;" /><glyph d="M571 1030 655 822H570L369 1030ZM985 612Q991 630 994.5 643Q998 656 998 666Q998 679 994.5 687.5Q991 696 982 701.5Q973 707 957 710Q941 713 915 714V780H1172V714Q1148 710 1131.5 703.5Q1115 697 1106 673L852 -5H771L605 439L434 -5H353L76 673Q66 696 49.5 703Q33 710 10 714V780H381V714Q355 713 339 710Q323 707 314 701.5Q305 696 301.5 687.5Q298 679 298 666Q298 656 301.5 644Q305 632 313 612L447 257L560 556L515 673Q505 697 488.5 703.5Q472 710 449 714V780H808V714Q782 713 766 710Q750 707 741 701.5Q732 696 728.5 687.5Q725 679 725 666Q725 656 728.5 643.5Q732 631 742 603L861 262Z" glyph-name="Wgrave" horiz-adv-x="1182" unicode="&#7808;" /><glyph d="M525 438 780 107Q807 73 852 66V0H483V66Q522 66 533.5 74Q545 82 545 102Q545 113 539 124Q533 135 520 152L390 318L255 152Q230 121 230 102Q230 82 244 74Q258 66 297 66V0H10V66Q42 68 64.5 79Q87 90 101 107L335 388L114 673Q103 688 87 698.5Q71 709 48 714V780H424V714Q385 714 370.5 706Q356 698 356 678Q356 666 362.5 655.5Q369 645 382 628L472 510L567 628Q579 643 585.5 655Q592 667 592 678Q592 698 577.5 706Q563 714 524 714V780H809V714Q774 711 756.5 700.5Q739 690 725 673Z" glyph-name="X" horiz-adv-x="862" unicode="X" /><glyph d="M609 607Q623 630 628.5 644Q634 658 634 671Q634 694 616 703Q598 712 556 714V780H822V714Q798 710 783.5 702Q769 694 756 673L514 283V142Q514 119 519 105Q524 91 535.5 82.5Q547 74 566 70.5Q585 67 613 66V0H225V66Q253 67 272 70.5Q291 74 302.5 82.5Q314 91 319 105Q324 119 324 142V283L76 673Q62 694 48 702Q34 710 10 714V780H386V714Q363 713 348 711Q333 709 324.5 704Q316 699 312.5 691Q309 683 309 670Q309 644 333 607L473 385Z" glyph-name="Y" horiz-adv-x="832" unicode="Y" /><glyph d="M694 1030 493 822H408L502 1030ZM609 607Q623 630 628.5 644Q634 658 634 671Q634 694 616 703Q598 712 556 714V780H822V714Q798 710 783.5 702Q769 694 756 673L514 283V142Q514 119 519 105Q524 91 535.5 82.5Q547 74 566 70.5Q585 67 613 66V0H225V66Q253 67 272 70.5Q291 74 302.5 82.5Q314 91 319 105Q324 119 324 142V283L76 673Q62 694 48 702Q34 710 10 714V780H386V714Q363 713 348 711Q333 709 324.5 704Q316 699 312.5 691Q309 683 309 670Q309 644 333 607L473 385Z" glyph-name="Yacute" horiz-adv-x="832" unicode="&#221;" /><glyph d="M663 822H576L452 924L328 822H241L398 1030H506ZM609 607Q623 630 628.5 644Q634 658 634 671Q634 694 616 703Q598 712 556 714V780H822V714Q798 710 783.5 702Q769 694 756 673L514 283V142Q514 119 519 105Q524 91 535.5 82.5Q547 74 566 70.5Q585 67 613 66V0H225V66Q253 67 272 70.5Q291 74 302.5 82.5Q314 91 319 105Q324 119 324 142V283L76 673Q62 694 48 702Q34 710 10 714V780H386V714Q363 713 348 711Q333 709 324.5 704Q316 699 312.5 691Q309 683 309 670Q309 644 333 607L473 385Z" glyph-name="Ycircumflex" horiz-adv-x="832" unicode="&#374;" /><glyph d="M473 926Q473 945 480.5 962.5Q488 980 500.5 992.5Q513 1005 529.5 1012.5Q546 1020 565 1020Q604 1020 631.5 992.5Q659 965 659 926Q659 907 651.5 890.5Q644 874 631.5 861.5Q619 849 601.5 841.5Q584 834 565 834Q527 834 500 861Q473 888 473 926ZM245 926Q245 945 252.5 962.5Q260 980 272.5 992.5Q285 1005 301.5 1012.5Q318 1020 337 1020Q356 1020 373.5 1012.5Q391 1005 403.5 992.5Q416 980 423.5 962.5Q431 945 431 926Q431 907 423.5 890.5Q416 874 403.5 861.5Q391 849 373.5 841.5Q356 834 337 834Q299 834 272 861Q245 888 245 926ZM609 607Q623 630 628.5 644Q634 658 634 671Q634 694 616 703Q598 712 556 714V780H822V714Q798 710 783.5 702Q769 694 756 673L514 283V142Q514 119 519 105Q524 91 535.5 82.5Q547 74 566 70.5Q585 67 613 66V0H225V66Q253 67 272 70.5Q291 74 302.5 82.5Q314 91 319 105Q324 119 324 142V283L76 673Q62 694 48 702Q34 710 10 714V780H386V714Q363 713 348 711Q333 709 324.5 704Q316 699 312.5 691Q309 683 309 670Q309 644 333 607L473 385Z" glyph-name="Ydieresis" horiz-adv-x="832" unicode="&#376;" /><glyph d="M455 75Q486 75 507.5 82.5Q529 90 549 110Q569 130 591.5 165.5Q614 201 647 257H731L690 0H30V48L461 705H296Q262 705 240 696Q218 687 202 669Q186 651 172 623.5Q158 596 140 559H63L66 780H699V731L267 75Z" glyph-name="Z" horiz-adv-x="755" unicode="Z" /><glyph d="M632 1030 431 822H346L440 1030ZM455 75Q486 75 507.5 82.5Q529 90 549 110Q569 130 591.5 165.5Q614 201 647 257H731L690 0H30V48L461 705H296Q262 705 240 696Q218 687 202 669Q186 651 172 623.5Q158 596 140 559H63L66 780H699V731L267 75Z" glyph-name="Zacute" horiz-adv-x="755" unicode="&#377;" /><glyph d="M179 1030H266L390 928L514 1030H601L444 822H336ZM455 75Q486 75 507.5 82.5Q529 90 549 110Q569 130 591.5 165.5Q614 201 647 257H731L690 0H30V48L461 705H296Q262 705 240 696Q218 687 202 669Q186 651 172 623.5Q158 596 140 559H63L66 780H699V731L267 75Z" glyph-name="Zcaron" horiz-adv-x="755" unicode="&#381;" /><glyph d="M281 935Q281 979 309.5 1008Q338 1037 389 1037Q441 1037 469.5 1008Q498 979 498 935Q498 892 469.5 863Q441 834 389 834Q338 834 309.5 863Q281 892 281 935ZM455 75Q486 75 507.5 82.5Q529 90 549 110Q569 130 591.5 165.5Q614 201 647 257H731L690 0H30V48L461 705H296Q262 705 240 696Q218 687 202 669Q186 651 172 623.5Q158 596 140 559H63L66 780H699V731L267 75Z" glyph-name="Zdotaccent" horiz-adv-x="755" unicode="&#379;" /><glyph d="M532 157Q532 124 537 106.5Q542 89 565 89Q572 89 585 90.5Q598 92 609 95L619 48Q593 22 552 6Q511 -10 472 -10Q424 -10 397 13.5Q370 37 355 78Q341 63 322.5 47.5Q304 32 282 20Q260 8 234.5 0.5Q209 -7 182 -7Q113 -7 74 30.5Q35 68 35 133Q35 167 45.5 189.5Q56 212 74.5 227.5Q93 243 118 253.5Q143 264 172 273L352 329V379Q352 439 331.5 466Q311 493 274 493Q247 493 233 476Q219 459 219 430Q219 415 221 399.5Q223 384 227 364L106 348Q63 365 63 414Q63 449 80.5 475.5Q98 502 128.5 520Q159 538 201.5 547Q244 556 294 556Q349 556 393 546.5Q437 537 468 512.5Q499 488 515.5 446.5Q532 405 532 341ZM276 98Q314 98 352 122V274L261 240Q235 229 225 213.5Q215 198 215 172Q215 140 231.5 119Q248 98 276 98Z" glyph-name="a" horiz-adv-x="619" unicode="a" /><glyph d="M431 87Q405 43 362 16.5Q319 -10 259 -10Q205 -10 162.5 8Q120 26 90.5 59.5Q61 93 45.5 140.5Q30 188 30 248Q30 319 52.5 376Q75 433 114.5 473Q154 513 206.5 534.5Q259 556 319 556Q370 556 414.5 542.5Q459 529 499 494L548 556H616L611 436V139Q611 113 619.5 99.5Q628 86 652 86H676V23L465 -10H426ZM344 486Q283 486 250 434.5Q217 383 217 299Q217 207 252.5 157Q288 107 348 107Q373 107 392.5 112.5Q412 118 431 133V392Q431 436 410 461Q389 486 344 486Z" glyph-name="a.school" horiz-adv-x="706" unicode="&#57681;" /><glyph d="M212 218H390L302 409ZM421 153H181L171 131Q163 114 163 102Q163 83 178.5 76Q194 69 236 64V0H10V64Q39 74 51 81.5Q63 89 71 106L255 491L209 580H415L646 106Q654 89 666.5 81.5Q679 74 708 64V0H366V64Q408 69 423.5 76Q439 83 439 102Q439 112 431 131Z" glyph-name="a.smcp" horiz-adv-x="718" unicode="&#57857;" /><glyph d="M382 468Q382 445 383.5 432.5Q385 420 401 420Q406 420 415 421.5Q424 423 432 424L439 388Q421 370 389 357.5Q357 345 326 345Q291 345 270 361.5Q249 378 238 406Q219 384 187 366Q155 348 120 348Q75 348 47 374Q19 400 19 446Q19 470 26 486Q33 502 45.5 513Q58 524 75.5 531.5Q93 539 113 545L236 584V626Q236 668 224 683Q212 698 193 698Q179 698 170.5 686.5Q162 675 162 657Q162 644 164 632.5Q166 621 169 607L75 594Q58 599 49 612Q40 625 40 643Q40 669 52.5 688Q65 707 87.5 720Q110 733 140.5 739Q171 745 208 745Q249 745 281 738.5Q313 732 335.5 714.5Q358 697 370 667Q382 637 382 589ZM199 430Q207 430 217.5 431.5Q228 433 236 436V545L194 526Q176 518 169.5 507Q163 496 163 478Q163 458 172.5 444Q182 430 199 430Z" glyph-name="a.superior" horiz-adv-x="436" unicode="&#58209;" /><glyph d="M299 414Q286 384 253 364.5Q220 345 175 345Q106 345 62.5 393Q19 441 19 530Q19 581 34.5 621Q50 661 78 688.5Q106 716 143 730.5Q180 745 224 745Q263 745 298.5 734Q334 723 357 700L391 743H447L445 657V455Q445 437 449.5 427Q454 417 468 417H484V368L329 345H295ZM241 691Q206 691 186.5 654.5Q167 618 167 561Q167 499 186.5 464.5Q206 430 248 430Q265 430 276.5 432.5Q288 435 299 443V616Q299 691 241 691Z" glyph-name="a.superiorschool" horiz-adv-x="505" /><glyph d="M523 800 322 592H237L331 800ZM532 157Q532 124 537 106.5Q542 89 565 89Q572 89 585 90.5Q598 92 609 95L619 48Q593 22 552 6Q511 -10 472 -10Q424 -10 397 13.5Q370 37 355 78Q341 63 322.5 47.5Q304 32 282 20Q260 8 234.5 0.5Q209 -7 182 -7Q113 -7 74 30.5Q35 68 35 133Q35 167 45.5 189.5Q56 212 74.5 227.5Q93 243 118 253.5Q143 264 172 273L352 329V379Q352 439 331.5 466Q311 493 274 493Q247 493 233 476Q219 459 219 430Q219 415 221 399.5Q223 384 227 364L106 348Q63 365 63 414Q63 449 80.5 475.5Q98 502 128.5 520Q159 538 201.5 547Q244 556 294 556Q349 556 393 546.5Q437 537 468 512.5Q499 488 515.5 446.5Q532 405 532 341ZM276 98Q314 98 352 122V274L261 240Q235 229 225 213.5Q215 198 215 172Q215 140 231.5 119Q248 98 276 98Z" glyph-name="aacute" horiz-adv-x="619" unicode="&#225;" /><glyph d="M562 800 361 592H276L370 800ZM431 87Q405 43 362 16.5Q319 -10 259 -10Q205 -10 162.5 8Q120 26 90.5 59.5Q61 93 45.5 140.5Q30 188 30 248Q30 319 52.5 376Q75 433 114.5 473Q154 513 206.5 534.5Q259 556 319 556Q370 556 414.5 542.5Q459 529 499 494L548 556H616L611 436V139Q611 113 619.5 99.5Q628 86 652 86H676V23L465 -10H426ZM344 486Q283 486 250 434.5Q217 383 217 299Q217 207 252.5 157Q288 107 348 107Q373 107 392.5 112.5Q412 118 431 133V392Q431 436 410 461Q389 486 344 486Z" glyph-name="aacute.school" horiz-adv-x="706" unicode="&#57683;" /><glyph d="M553 830 352 622H267L361 830ZM212 218H390L302 409ZM421 153H181L171 131Q163 114 163 102Q163 83 178.5 76Q194 69 236 64V0H10V64Q39 74 51 81.5Q63 89 71 106L255 491L209 580H415L646 106Q654 89 666.5 81.5Q679 74 708 64V0H366V64Q408 69 423.5 76Q439 83 439 102Q439 112 431 131Z" glyph-name="aacute.smcp" horiz-adv-x="718" unicode="&#57889;" /><glyph d="M291 599Q243 599 209 612.5Q175 626 153.5 652Q132 678 122.5 715.5Q113 753 113 800H171Q175 771 186.5 752Q198 733 214 722Q230 711 250 707Q270 703 291 703Q312 703 332 707Q352 711 368 722Q384 733 395.5 752Q407 771 411 800H469Q469 753 459.5 715.5Q450 678 428.5 652Q407 626 373 612.5Q339 599 291 599ZM532 157Q532 124 537 106.5Q542 89 565 89Q572 89 585 90.5Q598 92 609 95L619 48Q593 22 552 6Q511 -10 472 -10Q424 -10 397 13.5Q370 37 355 78Q341 63 322.5 47.5Q304 32 282 20Q260 8 234.5 0.5Q209 -7 182 -7Q113 -7 74 30.5Q35 68 35 133Q35 167 45.5 189.5Q56 212 74.5 227.5Q93 243 118 253.5Q143 264 172 273L352 329V379Q352 439 331.5 466Q311 493 274 493Q247 493 233 476Q219 459 219 430Q219 415 221 399.5Q223 384 227 364L106 348Q63 365 63 414Q63 449 80.5 475.5Q98 502 128.5 520Q159 538 201.5 547Q244 556 294 556Q349 556 393 546.5Q437 537 468 512.5Q499 488 515.5 446.5Q532 405 532 341ZM276 98Q314 98 352 122V274L261 240Q235 229 225 213.5Q215 198 215 172Q215 140 231.5 119Q248 98 276 98Z" glyph-name="abreve" horiz-adv-x="619" unicode="&#259;" /><glyph d="M330 599Q282 599 248 612.5Q214 626 192.5 652Q171 678 161.5 715.5Q152 753 152 800H210Q214 771 225.5 752Q237 733 253 722Q269 711 289 707Q309 703 330 703Q351 703 371 707Q391 711 407 722Q423 733 434.5 752Q446 771 450 800H508Q508 753 498.5 715.5Q489 678 467.5 652Q446 626 412 612.5Q378 599 330 599ZM431 87Q405 43 362 16.5Q319 -10 259 -10Q205 -10 162.5 8Q120 26 90.5 59.5Q61 93 45.5 140.5Q30 188 30 248Q30 319 52.5 376Q75 433 114.5 473Q154 513 206.5 534.5Q259 556 319 556Q370 556 414.5 542.5Q459 529 499 494L548 556H616L611 436V139Q611 113 619.5 99.5Q628 86 652 86H676V23L465 -10H426ZM344 486Q283 486 250 434.5Q217 383 217 299Q217 207 252.5 157Q288 107 348 107Q373 107 392.5 112.5Q412 118 431 133V392Q431 436 410 461Q389 486 344 486Z" glyph-name="abreve.school" horiz-adv-x="706" unicode="&#57690;" /><glyph d="M321 629Q273 629 239 642.5Q205 656 183.5 682Q162 708 152.5 745.5Q143 783 143 830H201Q205 801 216.5 782Q228 763 244 752Q260 741 280 737Q300 733 321 733Q342 733 362 737Q382 741 398 752Q414 763 425.5 782Q437 801 441 830H499Q499 783 489.5 745.5Q480 708 458.5 682Q437 656 403 642.5Q369 629 321 629ZM212 218H390L302 409ZM421 153H181L171 131Q163 114 163 102Q163 83 178.5 76Q194 69 236 64V0H10V64Q39 74 51 81.5Q63 89 71 106L255 491L209 580H415L646 106Q654 89 666.5 81.5Q679 74 708 64V0H366V64Q408 69 423.5 76Q439 83 439 102Q439 112 431 131Z" glyph-name="abreve.smcp" horiz-adv-x="718" unicode="&#57897;" /><glyph d="M502 592H415L291 694L167 592H80L237 800H345ZM532 157Q532 124 537 106.5Q542 89 565 89Q572 89 585 90.5Q598 92 609 95L619 48Q593 22 552 6Q511 -10 472 -10Q424 -10 397 13.5Q370 37 355 78Q341 63 322.5 47.5Q304 32 282 20Q260 8 234.5 0.5Q209 -7 182 -7Q113 -7 74 30.5Q35 68 35 133Q35 167 45.5 189.5Q56 212 74.5 227.5Q93 243 118 253.5Q143 264 172 273L352 329V379Q352 439 331.5 466Q311 493 274 493Q247 493 233 476Q219 459 219 430Q219 415 221 399.5Q223 384 227 364L106 348Q63 365 63 414Q63 449 80.5 475.5Q98 502 128.5 520Q159 538 201.5 547Q244 556 294 556Q349 556 393 546.5Q437 537 468 512.5Q499 488 515.5 446.5Q532 405 532 341ZM276 98Q314 98 352 122V274L261 240Q235 229 225 213.5Q215 198 215 172Q215 140 231.5 119Q248 98 276 98Z" glyph-name="acircumflex" horiz-adv-x="619" unicode="&#226;" /><glyph d="M541 592H454L330 694L206 592H119L276 800H384ZM431 87Q405 43 362 16.5Q319 -10 259 -10Q205 -10 162.5 8Q120 26 90.5 59.5Q61 93 45.5 140.5Q30 188 30 248Q30 319 52.5 376Q75 433 114.5 473Q154 513 206.5 534.5Q259 556 319 556Q370 556 414.5 542.5Q459 529 499 494L548 556H616L611 436V139Q611 113 619.5 99.5Q628 86 652 86H676V23L465 -10H426ZM344 486Q283 486 250 434.5Q217 383 217 299Q217 207 252.5 157Q288 107 348 107Q373 107 392.5 112.5Q412 118 431 133V392Q431 436 410 461Q389 486 344 486Z" glyph-name="acircumflex.school" horiz-adv-x="706" unicode="&#57684;" /><glyph d="M537 622H450L326 724L202 622H115L272 830H380ZM212 218H390L302 409ZM421 153H181L171 131Q163 114 163 102Q163 83 178.5 76Q194 69 236 64V0H10V64Q39 74 51 81.5Q63 89 71 106L255 491L209 580H415L646 106Q654 89 666.5 81.5Q679 74 708 64V0H366V64Q408 69 423.5 76Q439 83 439 102Q439 112 431 131Z" glyph-name="acircumflex.smcp" horiz-adv-x="718" unicode="&#57891;" /><glyph d="M448 800 247 592H162L256 800Z" glyph-name="acute" horiz-adv-x="600" unicode="&#180;" /><glyph d="M448 1030 247 822H162L256 1030Z" glyph-name="acute.cap" horiz-adv-x="600" unicode="&#58402;" /><glyph d="M312 702Q312 721 319.5 738.5Q327 756 339.5 768.5Q352 781 368.5 788.5Q385 796 404 796Q423 796 440.5 788.5Q458 781 470.5 768.5Q483 756 490.5 738.5Q498 721 498 702Q498 683 490.5 666.5Q483 650 470.5 637.5Q458 625 440.5 617.5Q423 610 404 610Q366 610 339 637Q312 664 312 702ZM84 702Q84 721 91.5 738.5Q99 756 111.5 768.5Q124 781 140.5 788.5Q157 796 176 796Q195 796 212.5 788.5Q230 781 242.5 768.5Q255 756 262.5 738.5Q270 721 270 702Q270 683 262.5 666.5Q255 650 242.5 637.5Q230 625 212.5 617.5Q195 610 176 610Q138 610 111 637Q84 664 84 702ZM532 157Q532 124 537 106.5Q542 89 565 89Q572 89 585 90.5Q598 92 609 95L619 48Q593 22 552 6Q511 -10 472 -10Q424 -10 397 13.5Q370 37 355 78Q341 63 322.5 47.5Q304 32 282 20Q260 8 234.5 0.5Q209 -7 182 -7Q113 -7 74 30.5Q35 68 35 133Q35 167 45.5 189.5Q56 212 74.5 227.5Q93 243 118 253.5Q143 264 172 273L352 329V379Q352 439 331.5 466Q311 493 274 493Q247 493 233 476Q219 459 219 430Q219 415 221 399.5Q223 384 227 364L106 348Q63 365 63 414Q63 449 80.5 475.5Q98 502 128.5 520Q159 538 201.5 547Q244 556 294 556Q349 556 393 546.5Q437 537 468 512.5Q499 488 515.5 446.5Q532 405 532 341ZM276 98Q314 98 352 122V274L261 240Q235 229 225 213.5Q215 198 215 172Q215 140 231.5 119Q248 98 276 98Z" glyph-name="adieresis" horiz-adv-x="619" unicode="&#228;" /><glyph d="M351 702Q351 721 358.5 738.5Q366 756 378.5 768.5Q391 781 407.5 788.5Q424 796 443 796Q482 796 509.5 768.5Q537 741 537 702Q537 683 529.5 666.5Q522 650 509.5 637.5Q497 625 479.5 617.5Q462 610 443 610Q405 610 378 637Q351 664 351 702ZM123 702Q123 721 130.5 738.5Q138 756 150.5 768.5Q163 781 179.5 788.5Q196 796 215 796Q234 796 251.5 788.5Q269 781 281.5 768.5Q294 756 301.5 738.5Q309 721 309 702Q309 683 301.5 666.5Q294 650 281.5 637.5Q269 625 251.5 617.5Q234 610 215 610Q177 610 150 637Q123 664 123 702ZM431 87Q405 43 362 16.5Q319 -10 259 -10Q205 -10 162.5 8Q120 26 90.5 59.5Q61 93 45.5 140.5Q30 188 30 248Q30 319 52.5 376Q75 433 114.5 473Q154 513 206.5 534.5Q259 556 319 556Q370 556 414.5 542.5Q459 529 499 494L548 556H616L611 436V139Q611 113 619.5 99.5Q628 86 652 86H676V23L465 -10H426ZM344 486Q283 486 250 434.5Q217 383 217 299Q217 207 252.5 157Q288 107 348 107Q373 107 392.5 112.5Q412 118 431 133V392Q431 436 410 461Q389 486 344 486Z" glyph-name="adieresis.school" horiz-adv-x="706" unicode="&#57685;" /><glyph d="M347 732Q347 751 354.5 768.5Q362 786 374.5 798.5Q387 811 403.5 818.5Q420 826 439 826Q478 826 505.5 798.5Q533 771 533 732Q533 713 525.5 696.5Q518 680 505.5 667.5Q493 655 475.5 647.5Q458 640 439 640Q401 640 374 667Q347 694 347 732ZM119 732Q119 751 126.5 768.5Q134 786 146.5 798.5Q159 811 175.5 818.5Q192 826 211 826Q230 826 247.5 818.5Q265 811 277.5 798.5Q290 786 297.5 768.5Q305 751 305 732Q305 713 297.5 696.5Q290 680 277.5 667.5Q265 655 247.5 647.5Q230 640 211 640Q173 640 146 667Q119 694 119 732ZM212 218H390L302 409ZM421 153H181L171 131Q163 114 163 102Q163 83 178.5 76Q194 69 236 64V0H10V64Q39 74 51 81.5Q63 89 71 106L255 491L209 580H415L646 106Q654 89 666.5 81.5Q679 74 708 64V0H366V64Q408 69 423.5 76Q439 83 439 102Q439 112 431 131Z" glyph-name="adieresis.smcp" horiz-adv-x="718" unicode="&#57892;" /><glyph d="M281 98Q310 98 331.5 109.5Q353 121 374 139Q352 189 352 249L272 239Q215 231 215 172Q215 140 232 119Q249 98 281 98ZM619 487Q573 487 548 448.5Q523 410 517 323L708 346Q706 413 685 450Q664 487 619 487ZM639 556Q696 556 739.5 539Q783 522 812 492Q841 462 856 422Q871 382 871 336V313L520 270Q523 241 534 214Q545 187 566 167Q587 147 617 135Q647 123 688 123Q735 123 769 142Q803 161 829 193L870 171Q859 137 839.5 104.5Q820 72 789.5 46.5Q759 21 717.5 5.5Q676 -10 622 -10Q550 -10 493 15.5Q436 41 400 90Q371 62 344.5 43.5Q318 25 292 13.5Q266 2 240.5 -2.5Q215 -7 188 -7Q115 -7 75 30.5Q35 68 35 133Q35 201 75 237.5Q115 274 181 282L352 303V379Q352 439 331.5 466Q311 493 274 493Q247 493 233 476Q219 459 219 430Q219 415 221 399.5Q223 384 227 364L106 348Q63 365 63 414Q63 449 80.5 475.5Q98 502 128.5 520Q159 538 201.5 547Q244 556 294 556Q357 556 399.5 542Q442 528 468 493Q501 523 544.5 539.5Q588 556 639 556Z" glyph-name="ae" horiz-adv-x="901" unicode="&#230;" /><glyph d="M236 254H416L361 502H359ZM204 189 186 152Q177 135 172 123Q167 111 167 101Q167 82 180.5 75.5Q194 69 236 64V0H10V64Q25 69 34 73.5Q43 78 49.5 82.5Q56 87 61 92.5Q66 98 71 106L264 490Q250 506 227 510Q204 514 172 516V580H914L918 391H844Q835 418 826.5 440Q818 462 806 477.5Q794 493 776 502Q758 511 730 511H556L594 325H667Q696 325 707 344Q718 363 725 401H788V183H725Q718 221 707 240.5Q696 260 667 260H608L636 125Q639 109 643 98Q647 87 654.5 80.5Q662 74 674.5 71.5Q687 69 708 69H726Q753 69 771.5 75Q790 81 806 96Q822 111 838 136.5Q854 162 876 201H953L919 0H354V64Q401 66 422.5 76Q444 86 444 114Q444 125 441 140L430 189Z" glyph-name="ae.smcp" horiz-adv-x="993" unicode="&#57905;" /><glyph d="M166 391Q182 411 196.5 437.5Q211 464 222.5 495.5Q234 527 241 562.5Q248 598 248 634Q248 660 241.5 677Q235 694 216 694Q193 694 179.5 657Q166 620 166 534ZM28 259Q37 265 46.5 272.5Q56 280 70 291V508Q70 642 104 711Q138 780 215 780Q248 780 270 767.5Q292 755 306 733Q320 711 326 682.5Q332 654 332 621Q332 566 316.5 513Q301 460 276.5 413.5Q252 367 222.5 328Q193 289 166 262V154Q166 111 179 95.5Q192 80 227 79Q250 79 266.5 83.5Q283 88 292 93L305 1Q294 -4 270.5 -7.5Q247 -11 227 -11Q156 -11 113 18Q70 47 70 111V189Q53 176 45.5 171Q38 166 28 159Z" glyph-name="afii61289" horiz-adv-x="359" unicode="&#8467;" /><glyph d="M253 800 337 592H252L51 800ZM532 157Q532 124 537 106.5Q542 89 565 89Q572 89 585 90.5Q598 92 609 95L619 48Q593 22 552 6Q511 -10 472 -10Q424 -10 397 13.5Q370 37 355 78Q341 63 322.5 47.5Q304 32 282 20Q260 8 234.5 0.5Q209 -7 182 -7Q113 -7 74 30.5Q35 68 35 133Q35 167 45.5 189.5Q56 212 74.5 227.5Q93 243 118 253.5Q143 264 172 273L352 329V379Q352 439 331.5 466Q311 493 274 493Q247 493 233 476Q219 459 219 430Q219 415 221 399.5Q223 384 227 364L106 348Q63 365 63 414Q63 449 80.5 475.5Q98 502 128.5 520Q159 538 201.5 547Q244 556 294 556Q349 556 393 546.5Q437 537 468 512.5Q499 488 515.5 446.5Q532 405 532 341ZM276 98Q314 98 352 122V274L261 240Q235 229 225 213.5Q215 198 215 172Q215 140 231.5 119Q248 98 276 98Z" glyph-name="agrave" horiz-adv-x="619" unicode="&#224;" /><glyph d="M292 800 376 592H291L90 800ZM431 87Q405 43 362 16.5Q319 -10 259 -10Q205 -10 162.5 8Q120 26 90.5 59.5Q61 93 45.5 140.5Q30 188 30 248Q30 319 52.5 376Q75 433 114.5 473Q154 513 206.5 534.5Q259 556 319 556Q370 556 414.5 542.5Q459 529 499 494L548 556H616L611 436V139Q611 113 619.5 99.5Q628 86 652 86H676V23L465 -10H426ZM344 486Q283 486 250 434.5Q217 383 217 299Q217 207 252.5 157Q288 107 348 107Q373 107 392.5 112.5Q412 118 431 133V392Q431 436 410 461Q389 486 344 486Z" glyph-name="agrave.school" horiz-adv-x="706" unicode="&#57682;" /><glyph d="M283 830 367 622H282L81 830ZM212 218H390L302 409ZM421 153H181L171 131Q163 114 163 102Q163 83 178.5 76Q194 69 236 64V0H10V64Q39 74 51 81.5Q63 89 71 106L255 491L209 580H415L646 106Q654 89 666.5 81.5Q679 74 708 64V0H366V64Q408 69 423.5 76Q439 83 439 102Q439 112 431 131Z" glyph-name="agrave.smcp" horiz-adv-x="718" unicode="&#57890;" /><glyph d="M232 -32Q281 -35 314.5 -45Q348 -55 368 -70.5Q388 -86 396.5 -106Q405 -126 405 -150Q405 -175 395 -194Q385 -213 368 -225.5Q351 -238 329.5 -244Q308 -250 285 -250Q253 -250 230.5 -241.5Q208 -233 195 -223L210 -183Q224 -191 241.5 -196.5Q259 -202 276 -202Q296 -202 307 -195.5Q318 -189 318 -174Q318 -150 287.5 -141.5Q257 -133 212 -129Z" glyph-name="altcedilla" horiz-adv-x="600" unicode="&#58390;" /><glyph d="M140 716H442V626H140ZM532 157Q532 124 537 106.5Q542 89 565 89Q572 89 585 90.5Q598 92 609 95L619 48Q593 22 552 6Q511 -10 472 -10Q424 -10 397 13.5Q370 37 355 78Q341 63 322.5 47.5Q304 32 282 20Q260 8 234.5 0.5Q209 -7 182 -7Q113 -7 74 30.5Q35 68 35 133Q35 167 45.5 189.5Q56 212 74.5 227.5Q93 243 118 253.5Q143 264 172 273L352 329V379Q352 439 331.5 466Q311 493 274 493Q247 493 233 476Q219 459 219 430Q219 415 221 399.5Q223 384 227 364L106 348Q63 365 63 414Q63 449 80.5 475.5Q98 502 128.5 520Q159 538 201.5 547Q244 556 294 556Q349 556 393 546.5Q437 537 468 512.5Q499 488 515.5 446.5Q532 405 532 341ZM276 98Q314 98 352 122V274L261 240Q235 229 225 213.5Q215 198 215 172Q215 140 231.5 119Q248 98 276 98Z" glyph-name="amacron" horiz-adv-x="619" unicode="&#257;" /><glyph d="M179 716H481V626H179ZM431 87Q405 43 362 16.5Q319 -10 259 -10Q205 -10 162.5 8Q120 26 90.5 59.5Q61 93 45.5 140.5Q30 188 30 248Q30 319 52.5 376Q75 433 114.5 473Q154 513 206.5 534.5Q259 556 319 556Q370 556 414.5 542.5Q459 529 499 494L548 556H616L611 436V139Q611 113 619.5 99.5Q628 86 652 86H676V23L465 -10H426ZM344 486Q283 486 250 434.5Q217 383 217 299Q217 207 252.5 157Q288 107 348 107Q373 107 392.5 112.5Q412 118 431 133V392Q431 436 410 461Q389 486 344 486Z" glyph-name="amacron.school" horiz-adv-x="706" unicode="&#57689;" /><glyph d="M170 746H472V656H170ZM212 218H390L302 409ZM421 153H181L171 131Q163 114 163 102Q163 83 178.5 76Q194 69 236 64V0H10V64Q39 74 51 81.5Q63 89 71 106L255 491L209 580H415L646 106Q654 89 666.5 81.5Q679 74 708 64V0H366V64Q408 69 423.5 76Q439 83 439 102Q439 112 431 131Z" glyph-name="amacron.smcp" horiz-adv-x="718" unicode="&#57896;" /><glyph d="M309 633Q309 583 331.5 550Q354 517 386 485Q425 511 443.5 543.5Q462 576 462 623Q462 667 441 694Q420 721 384 721Q350 721 329.5 698Q309 675 309 633ZM383 74Q418 74 452 81.5Q486 89 517 104L256 365Q234 345 223.5 316.5Q213 288 213 242Q213 205 225.5 174.5Q238 144 260.5 121.5Q283 99 314.5 86.5Q346 74 383 74ZM742 317Q738 280 726 246Q714 212 695 181L748 129Q778 100 801.5 85Q825 70 863 66V0H641Q621 10 605 22Q589 34 570 53Q518 23 456 6.5Q394 -10 322 -10Q260 -10 205.5 2Q151 14 110.5 40Q70 66 47 105.5Q24 145 24 201Q24 279 72.5 328Q121 377 213 409Q200 423 187.5 440Q175 457 164.5 478.5Q154 500 147.5 526Q141 552 141 584Q141 632 158.5 670Q176 708 208 735Q240 762 286 776Q332 790 389 790Q498 790 556 744.5Q614 699 614 619Q614 585 600 557.5Q586 530 561 507.5Q536 485 503 468.5Q470 452 433 440L640 235Q657 274 657 317Q657 339 653.5 353.5Q650 368 640.5 376.5Q631 385 613.5 388.5Q596 392 568 393V459H834V393Q806 392 789 388.5Q772 385 762 376.5Q752 368 748 353.5Q744 339 742 317Z" glyph-name="ampersand" horiz-adv-x="873" unicode="&amp;" /><glyph d="M282 470Q282 440 302.5 414.5Q323 389 354 362Q402 392 402 460Q402 489 387 509.5Q372 530 340 530Q311 530 296.5 513Q282 496 282 470ZM335 64Q383 64 431 78L217 264Q206 247 201 226Q196 205 196 183Q196 128 233.5 96Q271 64 335 64ZM664 239Q652 182 619 136L650 109Q677 86 698 75Q719 64 752 61V0H545Q531 6 517.5 13Q504 20 489 31Q446 11 394.5 0.5Q343 -10 282 -10Q229 -10 183 -0.5Q137 9 103 28.5Q69 48 49.5 78Q30 108 30 150Q30 266 176 301Q150 327 137 355.5Q124 384 124 426Q124 504 182 547Q240 590 340 590Q434 590 485 557.5Q536 525 536 465Q536 412 502.5 379.5Q469 347 397 326L567 180Q580 209 580 239Q580 273 567.5 284.5Q555 296 515 296V352H737V296Q705 296 688 284Q671 272 664 239Z" glyph-name="ampersand.smcp" horiz-adv-x="792" unicode="&#58369;" /><glyph d="M70 350 249 830H343L168 350L343 -130H249Z" glyph-name="anglebracketleft" horiz-adv-x="403" unicode="&#12296;" /><glyph d="M70 384 249 864H343L168 384L343 -96H249Z" glyph-name="anglebracketleft.cap" horiz-adv-x="403" unicode="&#58519;" /><glyph d="M70 282 245 680H337L168 282L337 -116H245Z" glyph-name="anglebracketleft.smcp" horiz-adv-x="397" unicode="&#58527;" /><glyph d="M154 -130H60L235 350L60 830H154L333 350Z" glyph-name="anglebracketright" horiz-adv-x="403" unicode="&#12297;" /><glyph d="M154 -96H60L235 384L60 864H154L333 384Z" glyph-name="anglebracketright.cap" horiz-adv-x="403" unicode="&#58520;" /><glyph d="M152 -116H60L229 282L60 680H152L327 282Z" glyph-name="anglebracketright.smcp" horiz-adv-x="397" unicode="&#58512;" /><glyph d="M171 131Q163 114 163 102Q163 83 178.5 76Q194 69 236 64V0H10V64Q39 74 51 81.5Q63 89 71 106L255 491L209 580H415L646 106Q654 89 666.5 81.5Q679 74 708 64V0H366V64Q408 69 423.5 76Q439 83 439 102Q439 112 431 131L302 409Z" glyph-name="anocross.smcp" horiz-adv-x="718" unicode="&#57888;" /><glyph d="M443 -7Q408 -1 388 21Q368 43 355 78Q341 63 322.5 47.5Q304 32 282 20Q260 8 234.5 0.5Q209 -7 182 -7Q113 -7 74 30.5Q35 68 35 133Q35 167 45.5 189.5Q56 212 74.5 227.5Q93 243 118 253.5Q143 264 172 273L352 329V379Q352 439 331.5 466Q311 493 274 493Q247 493 233 476Q219 459 219 430Q219 415 221 399.5Q223 384 227 364L106 348Q63 365 63 414Q63 449 80.5 475.5Q98 502 128.5 520Q159 538 201.5 547Q244 556 294 556Q349 556 393 546.5Q437 537 468 512.5Q499 488 515.5 446.5Q532 405 532 341V157Q532 124 537 106.5Q542 89 565 89Q572 89 585 90.5Q598 92 609 95L619 48Q593 32 568.5 15Q544 -2 525 -21.5Q506 -41 494.5 -64Q483 -87 483 -115Q483 -145 496 -161Q509 -177 538 -177Q559 -177 573.5 -170Q588 -163 605 -152L617 -195Q598 -217 563.5 -233.5Q529 -250 490 -250Q433 -250 398.5 -221.5Q364 -193 364 -138Q364 -100 382.5 -67Q401 -34 443 -7ZM276 98Q314 98 352 122V274L261 240Q235 229 225 213.5Q215 198 215 172Q215 140 231.5 119Q248 98 276 98Z" glyph-name="aogonek" horiz-adv-x="619" unicode="&#261;" /><glyph d="M676 23Q638 6 615.5 -13.5Q593 -33 581.5 -52Q570 -71 567 -88.5Q564 -106 564 -119Q564 -146 577 -161.5Q590 -177 619 -177Q640 -177 654.5 -170Q669 -163 686 -152L698 -195Q679 -217 644.5 -233.5Q610 -250 571 -250Q514 -250 479.5 -221.5Q445 -193 445 -138Q445 -97 467 -61.5Q489 -26 540 2L465 -10H426L431 87Q405 43 362 16.5Q319 -10 259 -10Q205 -10 162.5 8Q120 26 90.5 59.5Q61 93 45.5 140.5Q30 188 30 248Q30 319 52.5 376Q75 433 114.5 473Q154 513 206.5 534.5Q259 556 319 556Q370 556 414.5 542.5Q459 529 499 494L548 556H616L611 436V139Q611 113 619.5 99.5Q628 86 652 86H676ZM344 486Q283 486 250 434.5Q217 383 217 299Q217 207 252.5 157Q288 107 348 107Q373 107 392.5 112.5Q412 118 431 133V392Q431 436 410 461Q389 486 344 486Z" glyph-name="aogonek.school" horiz-adv-x="706" unicode="&#57680;" /><glyph d="M212 218H390L302 409ZM366 0V64Q408 69 423.5 76Q439 83 439 102Q439 112 431 131L421 153H181L171 131Q163 114 163 102Q163 83 178.5 76Q194 69 236 64V0H10V64Q39 74 51 81.5Q63 89 71 106L255 491L209 580H415L646 106Q654 89 666.5 81.5Q679 74 708 64V0Q675 -14 654 -29.5Q633 -45 620 -60.5Q607 -76 602 -91Q597 -106 597 -119Q597 -146 610 -161.5Q623 -177 652 -177Q673 -177 687.5 -170Q702 -163 719 -152L731 -195Q712 -217 677.5 -233.5Q643 -250 604 -250Q547 -250 512.5 -222Q478 -194 478 -143Q478 -99 511 -60.5Q544 -22 597 0Z" glyph-name="aogonek.smcp" horiz-adv-x="718" unicode="&#57903;" /><glyph d="M486 228Q510 228 529.5 236.5Q549 245 563 255.5Q577 266 585.5 275Q594 284 594 285L638 207Q622 187 599 171Q579 157 549.5 146.5Q520 136 480 136Q436 136 403.5 147Q371 158 341.5 170.5Q312 183 282 194Q252 205 214 205Q190 205 170.5 196.5Q151 188 136.5 177.5Q122 167 114 158Q106 149 106 148L62 226Q78 245 101 261Q121 275 150 286Q179 297 220 297Q264 297 296.5 286Q329 275 358.5 262.5Q388 250 418 239Q448 228 486 228ZM486 397Q510 397 529.5 405.5Q549 414 563 424.5Q577 435 585.5 444Q594 453 594 454L638 376Q622 356 599 340Q579 326 549.5 315.5Q520 305 480 305Q436 305 403.5 316Q371 327 341.5 339.5Q312 352 282 363Q252 374 214 374Q190 374 170.5 365.5Q151 357 136.5 346.5Q122 336 114 327Q106 318 106 317L62 395Q78 414 101 430Q121 444 150 455Q179 466 220 466Q264 466 296.5 455Q329 444 358.5 431.5Q388 419 418 408Q448 397 486 397Z" glyph-name="approxequal" horiz-adv-x="700" unicode="&#8776;" /><glyph d="M486 322Q510 322 529.5 330.5Q549 339 563 349.5Q577 360 585.5 369Q594 378 594 379L638 301Q622 281 599 265Q579 251 549.5 240.5Q520 230 480 230Q436 230 403.5 241Q371 252 341.5 264.5Q312 277 282 288Q252 299 214 299Q190 299 170.5 290.5Q151 282 136.5 271.5Q122 261 114 252Q106 243 106 242L62 320Q78 339 101 355Q121 369 150 380Q179 391 220 391Q264 391 296.5 380Q329 369 358.5 356.5Q388 344 418 333Q448 322 486 322ZM486 491Q510 491 529.5 499.5Q549 508 563 518.5Q577 529 585.5 538Q594 547 594 548L638 470Q622 450 599 434Q579 420 549.5 409.5Q520 399 480 399Q436 399 403.5 410Q371 421 341.5 433.5Q312 446 282 457Q252 468 214 468Q190 468 170.5 459.5Q151 451 136.5 440.5Q122 430 114 421Q106 412 106 411L62 489Q78 508 101 524Q121 538 150 549Q179 560 220 560Q264 560 296.5 549Q329 538 358.5 525.5Q388 513 418 502Q448 491 486 491Z" glyph-name="approxequal.cap" horiz-adv-x="700" unicode="&#61990;" /><glyph d="M343 702Q343 725 330 740.5Q317 756 291 756Q265 756 252 740.5Q239 725 239 702Q239 679 252 663.5Q265 648 291 648Q317 648 330 663.5Q343 679 343 702ZM170 702Q170 726 179 746.5Q188 767 203.5 782.5Q219 798 241.5 807Q264 816 291 816Q318 816 340.5 807Q363 798 379 782.5Q395 767 404 746.5Q413 726 413 702Q413 678 404 657.5Q395 637 379 621.5Q363 606 340.5 597Q318 588 291 588Q264 588 241.5 597Q219 606 203.5 621.5Q188 637 179 657.5Q170 678 170 702ZM532 157Q532 124 537 106.5Q542 89 565 89Q572 89 585 90.5Q598 92 609 95L619 48Q593 22 552 6Q511 -10 472 -10Q424 -10 397 13.5Q370 37 355 78Q341 63 322.5 47.5Q304 32 282 20Q260 8 234.5 0.5Q209 -7 182 -7Q113 -7 74 30.5Q35 68 35 133Q35 167 45.5 189.5Q56 212 74.5 227.5Q93 243 118 253.5Q143 264 172 273L352 329V379Q352 439 331.5 466Q311 493 274 493Q247 493 233 476Q219 459 219 430Q219 415 221 399.5Q223 384 227 364L106 348Q63 365 63 414Q63 449 80.5 475.5Q98 502 128.5 520Q159 538 201.5 547Q244 556 294 556Q349 556 393 546.5Q437 537 468 512.5Q499 488 515.5 446.5Q532 405 532 341ZM276 98Q314 98 352 122V274L261 240Q235 229 225 213.5Q215 198 215 172Q215 140 231.5 119Q248 98 276 98Z" glyph-name="aring" horiz-adv-x="619" unicode="&#229;" /><glyph d="M382 702Q382 725 369 740.5Q356 756 330 756Q304 756 291 740.5Q278 725 278 702Q278 679 291 663.5Q304 648 330 648Q356 648 369 663.5Q382 679 382 702ZM209 702Q209 726 218 746.5Q227 767 242.5 782.5Q258 798 280.5 807Q303 816 330 816Q357 816 379.5 807Q402 798 418 782.5Q434 767 443 746.5Q452 726 452 702Q452 678 443 657.5Q434 637 418 621.5Q402 606 379.5 597Q357 588 330 588Q303 588 280.5 597Q258 606 242.5 621.5Q227 637 218 657.5Q209 678 209 702ZM431 87Q405 43 362 16.5Q319 -10 259 -10Q205 -10 162.5 8Q120 26 90.5 59.5Q61 93 45.5 140.5Q30 188 30 248Q30 319 52.5 376Q75 433 114.5 473Q154 513 206.5 534.5Q259 556 319 556Q370 556 414.5 542.5Q459 529 499 494L548 556H616L611 436V139Q611 113 619.5 99.5Q628 86 652 86H676V23L465 -10H426ZM344 486Q283 486 250 434.5Q217 383 217 299Q217 207 252.5 157Q288 107 348 107Q373 107 392.5 112.5Q412 118 431 133V392Q431 436 410 461Q389 486 344 486Z" glyph-name="aring.school" horiz-adv-x="706" unicode="&#57687;" /><glyph d="M373 732Q373 755 360 770.5Q347 786 321 786Q295 786 282 770.5Q269 755 269 732Q269 709 282 693.5Q295 678 321 678Q347 678 360 693.5Q373 709 373 732ZM200 732Q200 756 209 776.5Q218 797 233.5 812.5Q249 828 271.5 837Q294 846 321 846Q348 846 370.5 837Q393 828 409 812.5Q425 797 434 776.5Q443 756 443 732Q443 708 434 687.5Q425 667 409 651.5Q393 636 370.5 627Q348 618 321 618Q294 618 271.5 627Q249 636 233.5 651.5Q218 667 209 687.5Q200 708 200 732ZM212 218H390L302 409ZM421 153H181L171 131Q163 114 163 102Q163 83 178.5 76Q194 69 236 64V0H10V64Q39 74 51 81.5Q63 89 71 106L255 491L209 580H415L646 106Q654 89 666.5 81.5Q679 74 708 64V0H366V64Q408 69 423.5 76Q439 83 439 102Q439 112 431 131Z" glyph-name="aring.smcp" horiz-adv-x="718" unicode="&#57894;" /><glyph d="M141 401H193L409 213V780H451V213L667 401H719L436 -10H424Z" glyph-name="arrowdown" horiz-adv-x="860" unicode="&#8595;" /><glyph d="M41 384V396L452 679V627L264 411H831V369H264L452 153V101Z" glyph-name="arrowleft" horiz-adv-x="860" unicode="&#8592;" /><glyph d="M420 101V153L608 369H41V411H608L420 627V679L831 396V384Z" glyph-name="arrowright" horiz-adv-x="860" unicode="&#8594;" /><glyph d="M424 790H436L719 379H667L451 567V0H409V567L193 379H141Z" glyph-name="arrowup" horiz-adv-x="860" unicode="&#8593;" /><glyph d="M502 400H399L261 696L123 400H20L205 790H317Z" glyph-name="asciicircum" horiz-adv-x="522" unicode="^" /><glyph d="M50 275Q77 372 123 417Q169 462 229 462Q254 462 278 452.5Q302 443 324.5 431Q347 419 367 409.5Q387 400 404 400Q429 400 446 414.5Q463 429 481 460H553Q526 363 480 318Q434 273 374 273Q349 273 325 282.5Q301 292 278.5 304Q256 316 236 325.5Q216 335 199 335Q174 335 157 320.5Q140 306 122 275Z" glyph-name="asciitilde" horiz-adv-x="603" unicode="~" /><glyph d="M63 695 182 671 196 790H272L286 670L402 694L426 622L316 571L375 468L314 423L231 512L151 424L90 468L149 573L40 624Z" glyph-name="asterisk" horiz-adv-x="466" unicode="*" /><glyph d="M786 91Q822 91 856 109Q890 127 915.5 163.5Q941 200 956.5 254.5Q972 309 972 381Q972 451 947 514Q922 577 874.5 624Q827 671 759 699Q691 727 605 727Q504 727 422 691.5Q340 656 282.5 592Q225 528 193.5 439.5Q162 351 162 245Q162 149 196.5 72Q231 -5 291 -59Q351 -113 431.5 -142Q512 -171 604 -171Q653 -171 694.5 -167Q736 -163 774 -154Q812 -145 848.5 -130.5Q885 -116 926 -95L952 -134Q886 -188 796.5 -219Q707 -250 592 -250Q480 -250 383 -215.5Q286 -181 214 -117Q142 -53 101 38.5Q60 130 60 243Q60 361 100.5 461Q141 561 213.5 634Q286 707 386 748.5Q486 790 605 790Q715 790 802 757Q889 724 949.5 667.5Q1010 611 1042 537Q1074 463 1074 381Q1074 285 1044 215.5Q1014 146 964 101.5Q914 57 848.5 36Q783 15 711 15Q653 15 629.5 40.5Q606 66 606 109Q606 143 616 183Q626 223 638 264H634Q623 237 609 208.5Q595 180 571 138Q539 83 496.5 49Q454 15 399 15Q342 15 308.5 56.5Q275 98 275 172Q275 242 299 306Q323 370 366.5 418.5Q410 467 471 495.5Q532 524 606 524Q644 524 677 514.5Q710 505 738 479L796 531H858L826 427Q815 385 804.5 337.5Q794 290 786 246.5Q778 203 773.5 168Q769 133 769 114Q769 100 773 95.5Q777 91 786 91ZM475 123Q504 123 530 155Q556 187 585 242Q599 269 612 298Q625 327 636 355.5Q647 384 655 410Q663 436 666 455Q658 460 645 464Q632 468 612 468Q574 468 541.5 440.5Q509 413 485.5 371.5Q462 330 448.5 281Q435 232 435 188Q435 158 444 140.5Q453 123 475 123Z" glyph-name="at" horiz-adv-x="1131" unicode="@" /><glyph d="M788 192Q824 192 858 210Q892 228 917.5 264.5Q943 301 958.5 355.5Q974 410 974 482Q974 552 949 615Q924 678 876.5 725Q829 772 761 800Q693 828 607 828Q506 828 424 792.5Q342 757 284.5 693Q227 629 195.5 540.5Q164 452 164 346Q164 250 198.5 173Q233 96 293 42Q353 -12 433.5 -41Q514 -70 606 -70Q655 -70 696.5 -66Q738 -62 776 -53Q814 -44 850.5 -29.5Q887 -15 928 6L954 -33Q888 -87 798.5 -118Q709 -149 594 -149Q482 -149 385 -114.5Q288 -80 216 -16Q144 48 103 139.5Q62 231 62 344Q62 462 102.5 562Q143 662 215.5 735Q288 808 388 849.5Q488 891 607 891Q717 891 804 858Q891 825 951.5 768.5Q1012 712 1044 638Q1076 564 1076 482Q1076 386 1046 316.5Q1016 247 966 202.5Q916 158 850.5 137Q785 116 713 116Q655 116 631.5 141.5Q608 167 608 210Q608 244 618 284Q628 324 640 365H636Q625 338 611 309.5Q597 281 573 239Q541 184 498.5 150Q456 116 401 116Q344 116 310.5 157.5Q277 199 277 273Q277 343 301 407Q325 471 368.5 519.5Q412 568 473 596.5Q534 625 608 625Q646 625 679 615.5Q712 606 740 580L798 632H860L828 528Q817 486 806.5 438.5Q796 391 788 347.5Q780 304 775.5 269Q771 234 771 215Q771 201 775 196.5Q779 192 788 192ZM477 224Q506 224 532 256Q558 288 587 343Q601 370 614 399Q627 428 638 456.5Q649 485 657 511Q665 537 668 556Q660 561 647 565Q634 569 614 569Q576 569 543.5 541.5Q511 514 487.5 472.5Q464 431 450.5 382Q437 333 437 289Q437 259 446 241.5Q455 224 477 224Z" glyph-name="at.cap" horiz-adv-x="1131" unicode="&#58643;" /><glyph d="M788 89Q824 89 858 107Q892 125 917.5 161.5Q943 198 958.5 252.5Q974 307 974 379Q974 449 949 512Q924 575 876.5 622Q829 669 761 697Q693 725 607 725Q506 725 424 689.5Q342 654 284.5 590Q227 526 195.5 437.5Q164 349 164 243Q164 147 198.5 70Q233 -7 293 -61Q353 -115 433.5 -144Q514 -173 606 -173Q655 -173 696.5 -169Q738 -165 776 -156Q814 -147 850.5 -132.5Q887 -118 928 -97L954 -136Q888 -190 798.5 -221Q709 -252 594 -252Q482 -252 385 -217.5Q288 -183 216 -119Q144 -55 103 36.5Q62 128 62 241Q62 359 102.5 459Q143 559 215.5 632Q288 705 388 746.5Q488 788 607 788Q717 788 804 755Q891 722 951.5 665.5Q1012 609 1044 535Q1076 461 1076 379Q1076 283 1046 213.5Q1016 144 966 99.5Q916 55 850.5 34Q785 13 713 13Q655 13 631.5 38.5Q608 64 608 107Q608 141 618 181Q628 221 640 262H636Q625 235 611 206.5Q597 178 573 136Q541 81 498.5 47Q456 13 401 13Q344 13 310.5 54.5Q277 96 277 170Q277 240 301 304Q325 368 368.5 416.5Q412 465 473 493.5Q534 522 608 522Q646 522 679 512.5Q712 503 740 477L798 529H860L828 425Q817 383 806.5 335.5Q796 288 788 244.5Q780 201 775.5 166Q771 131 771 112Q771 98 775 93.5Q779 89 788 89ZM477 121Q506 121 532 153Q558 185 587 240Q601 267 614 296Q627 325 638 353.5Q649 382 657 408Q665 434 668 453Q660 458 647 462Q634 466 614 466Q576 466 543.5 438.5Q511 411 487.5 369.5Q464 328 450.5 279Q437 230 437 186Q437 156 446 138.5Q455 121 477 121Z" glyph-name="at.smcp" horiz-adv-x="1131" unicode="&#62987;" /><glyph d="M354 611Q332 611 311.5 620Q291 629 272 639.5Q253 650 236 659Q219 668 204 668Q182 668 167.5 654.5Q153 641 138 613L80 623Q109 711 143.5 748Q178 785 229 785Q251 785 271.5 776Q292 767 311 756.5Q330 746 347 737Q364 728 379 728Q401 728 415.5 741.5Q430 755 445 783L503 773Q488 729 472.5 698Q457 667 439 647.5Q421 628 400 619.5Q379 611 354 611ZM532 157Q532 124 537 106.5Q542 89 565 89Q572 89 585 90.5Q598 92 609 95L619 48Q593 22 552 6Q511 -10 472 -10Q424 -10 397 13.5Q370 37 355 78Q341 63 322.5 47.5Q304 32 282 20Q260 8 234.5 0.5Q209 -7 182 -7Q113 -7 74 30.5Q35 68 35 133Q35 167 45.5 189.5Q56 212 74.5 227.5Q93 243 118 253.5Q143 264 172 273L352 329V379Q352 439 331.5 466Q311 493 274 493Q247 493 233 476Q219 459 219 430Q219 415 221 399.5Q223 384 227 364L106 348Q63 365 63 414Q63 449 80.5 475.5Q98 502 128.5 520Q159 538 201.5 547Q244 556 294 556Q349 556 393 546.5Q437 537 468 512.5Q499 488 515.5 446.5Q532 405 532 341ZM276 98Q314 98 352 122V274L261 240Q235 229 225 213.5Q215 198 215 172Q215 140 231.5 119Q248 98 276 98Z" glyph-name="atilde" horiz-adv-x="619" unicode="&#227;" /><glyph d="M393 611Q371 611 350.5 620Q330 629 311 639.5Q292 650 275 659Q258 668 243 668Q221 668 206.5 654.5Q192 641 177 613L119 623Q148 711 182.5 748Q217 785 268 785Q290 785 310.5 776Q331 767 350 756.5Q369 746 386 737Q403 728 418 728Q440 728 454.5 741.5Q469 755 484 783L542 773Q527 729 511.5 698Q496 667 478 647.5Q460 628 439 619.5Q418 611 393 611ZM431 87Q405 43 362 16.5Q319 -10 259 -10Q205 -10 162.5 8Q120 26 90.5 59.5Q61 93 45.5 140.5Q30 188 30 248Q30 319 52.5 376Q75 433 114.5 473Q154 513 206.5 534.5Q259 556 319 556Q370 556 414.5 542.5Q459 529 499 494L548 556H616L611 436V139Q611 113 619.5 99.5Q628 86 652 86H676V23L465 -10H426ZM344 486Q283 486 250 434.5Q217 383 217 299Q217 207 252.5 157Q288 107 348 107Q373 107 392.5 112.5Q412 118 431 133V392Q431 436 410 461Q389 486 344 486Z" glyph-name="atilde.school" horiz-adv-x="706" unicode="&#57686;" /><glyph d="M394 641Q372 641 351.5 650Q331 659 312 669.5Q293 680 276 689Q259 698 244 698Q222 698 207.5 684.5Q193 671 178 643L120 653Q149 741 183.5 778Q218 815 269 815Q291 815 311.5 806Q332 797 351 786.5Q370 776 387 767Q404 758 419 758Q441 758 455.5 771.5Q470 785 485 813L543 803Q528 759 512.5 728Q497 697 479 677.5Q461 658 440 649.5Q419 641 394 641ZM212 218H390L302 409ZM421 153H181L171 131Q163 114 163 102Q163 83 178.5 76Q194 69 236 64V0H10V64Q39 74 51 81.5Q63 89 71 106L255 491L209 580H415L646 106Q654 89 666.5 81.5Q679 74 708 64V0H366V64Q408 69 423.5 76Q439 83 439 102Q439 112 431 131Z" glyph-name="atilde.smcp" horiz-adv-x="718" unicode="&#57893;" /><glyph d="M346 60Q407 60 440 111.5Q473 163 473 247Q473 339 437.5 389Q402 439 342 439Q317 439 297.5 433.5Q278 428 259 413V163Q259 60 346 60ZM20 734V768L225 810H264L259 723V459Q285 502 328 529Q371 556 431 556Q485 556 527.5 538Q570 520 599.5 486.5Q629 453 644.5 405.5Q660 358 660 298Q660 225 636 168Q612 111 569.5 71.5Q527 32 469.5 11Q412 -10 346 -10Q258 -10 194.5 6.5Q131 23 79 58V683Z" glyph-name="b" horiz-adv-x="690" unicode="b" /><glyph d="M405 66Q497 66 497 164Q497 211 466 236Q435 261 381 261H315V122Q315 89 333.5 77.5Q352 66 394 66ZM439 580Q489 580 529.5 571Q570 562 599 544Q628 526 644 498.5Q660 471 660 435Q660 403 646 379Q632 355 608.5 337.5Q585 320 553.5 310.5Q522 301 487 299Q584 299 640.5 263Q697 227 697 159Q697 77 637 38.5Q577 0 471 0H40V64Q68 65 85 68.5Q102 72 111.5 80.5Q121 89 124 103Q127 117 127 140V440Q127 462 124 476.5Q121 491 111.5 499.5Q102 508 85 511.5Q68 515 40 516V580ZM315 511V323H368Q422 323 446.5 345.5Q471 368 471 419Q471 464 442.5 487.5Q414 511 362 511Z" glyph-name="b.smcp" horiz-adv-x="735" unicode="&#57858;" /><glyph d="M257 399Q292 399 311.5 435.5Q331 472 331 529Q331 591 311.5 625.5Q292 660 250 660Q233 660 221.5 657.5Q210 655 199 647V474Q199 399 257 399ZM16 866V892L174 919H203L199 858V676Q212 706 245 725.5Q278 745 323 745Q392 745 435.5 697Q479 649 479 560Q479 453 416.5 399Q354 345 249 345Q126 345 54 393V824Z" glyph-name="b.superior" horiz-adv-x="498" unicode="&#58210;" /><glyph d="M30 830H125L415 -120H320Z" glyph-name="backslash" horiz-adv-x="420" unicode="\" /><glyph d="M20 860H115L405 -90H310Z" glyph-name="backslash.cap" horiz-adv-x="425" unicode="&#58466;" /><glyph d="M20 719H115L405 -120H310Z" glyph-name="backslash.smcp" horiz-adv-x="425" unicode="&#58472;" /><glyph d="M310 265 180 394 226 440 355 310 484 440 530 394 400 265 530 136 484 90 355 220 226 90 180 136ZM160 464V66H550V464ZM90 530H620V0H90Z" glyph-name="ballotboxwithx" horiz-adv-x="710" unicode="&#9746;" /><glyph d="M190 -120H100V830H190Z" glyph-name="bar" horiz-adv-x="290" unicode="|" /><glyph d="M190 -90H100V860H190Z" glyph-name="bar.cap" horiz-adv-x="290" unicode="&#58467;" /><glyph d="M187 -120H100V719H187Z" glyph-name="bar.smcp" horiz-adv-x="287" unicode="&#58473;" /><glyph d="M88 390Q88 473 119.5 546Q151 619 205 673Q259 727 332 758.5Q405 790 488 790Q571 790 644 758.5Q717 727 771 673Q825 619 856.5 546Q888 473 888 390Q888 307 856.5 234Q825 161 771 107Q717 53 644 21.5Q571 -10 488 -10Q405 -10 332 21.5Q259 53 205 107Q151 161 119.5 234Q88 307 88 390Z" glyph-name="blackcircle" horiz-adv-x="976" unicode="&#9679;" /><glyph d="M628 0H98V530H628Z" glyph-name="blacksmallsquare" horiz-adv-x="726" unicode="&#9642;" /><glyph d="M878 0H98V780H878Z" glyph-name="blacksquare" horiz-adv-x="976" unicode="&#9632;" /><glyph d="M173 350Q229 333 257 294Q285 255 285 207Q285 187 281 166.5Q277 146 272.5 124Q268 102 264 79Q260 56 260 31Q260 -18 286 -38.5Q312 -59 367 -59V-130Q311 -130 272 -118Q233 -106 208.5 -84.5Q184 -63 173 -33.5Q162 -4 162 31Q162 56 165.5 79Q169 102 173.5 124Q178 146 181.5 166.5Q185 187 185 207Q185 231 178.5 251Q172 271 155.5 285.5Q139 300 111 308Q83 316 40 316V384Q83 384 111 392Q139 400 155.5 414.5Q172 429 178.5 449Q185 469 185 493Q185 513 181.5 533.5Q178 554 173.5 575.5Q169 597 165.5 620.5Q162 644 162 669Q162 704 173 733.5Q184 763 208.5 784.5Q233 806 272 818Q311 830 367 830V759Q312 759 286 738.5Q260 718 260 669Q260 644 264 621Q268 598 272.5 576Q277 554 281 533.5Q285 513 285 493Q285 445 257 406Q229 367 173 350Z" glyph-name="braceleft" horiz-adv-x="437" unicode="{" /><glyph d="M173 384Q229 367 257 328Q285 289 285 241Q285 221 281 200.5Q277 180 272.5 158Q268 136 264 113Q260 90 260 65Q260 16 286 -4.5Q312 -25 367 -25V-96Q311 -96 272 -84Q233 -72 208.5 -50.5Q184 -29 173 0.5Q162 30 162 65Q162 90 165.5 113Q169 136 173.5 158Q178 180 181.5 200.5Q185 221 185 241Q185 265 178.5 285Q172 305 155.5 319.5Q139 334 111 342Q83 350 40 350V418Q83 418 111 426Q139 434 155.5 448.5Q172 463 178.5 483Q185 503 185 527Q185 547 181.5 567.5Q178 588 173.5 609.5Q169 631 165.5 654.5Q162 678 162 703Q162 738 173 767.5Q184 797 208.5 818.5Q233 840 272 852Q311 864 367 864V793Q312 793 286 772.5Q260 752 260 703Q260 678 264 655Q268 632 272.5 610Q277 588 281 567.5Q285 547 285 527Q285 479 257 440Q229 401 173 384Z" glyph-name="braceleft.cap" horiz-adv-x="437" unicode="&#58517;" /><glyph d="M40 318Q83 318 110 323.5Q137 329 152.5 339.5Q168 350 173.5 365.5Q179 381 179 401Q179 417 175 433.5Q171 450 166 467.5Q161 485 157 504Q153 523 153 544Q153 608 194 644Q235 680 336 680V610Q287 610 265 591.5Q243 573 243 537Q243 516 247.5 498Q252 480 257 463.5Q262 447 266.5 429.5Q271 412 271 393Q271 351 247.5 321Q224 291 168 282Q224 273 247.5 243Q271 213 271 171Q271 151 266.5 134Q262 117 257 100.5Q252 84 247.5 66Q243 48 243 27Q243 -9 265 -27.5Q287 -46 336 -46V-116Q235 -116 194 -80Q153 -44 153 20Q153 41 157 60Q161 79 166 96.5Q171 114 175 130Q179 146 179 163Q179 183 173.5 198.5Q168 214 152.5 224.5Q137 235 110 240.5Q83 246 40 246Z" glyph-name="braceleft.smcp" horiz-adv-x="406" unicode="&#58525;" /><glyph d="M264 350Q208 367 180 406Q152 445 152 493Q152 513 156 533.5Q160 554 164.5 576Q169 598 173 621Q177 644 177 669Q177 718 151 738.5Q125 759 70 759V830Q126 830 165 818Q204 806 228.5 784.5Q253 763 264 733.5Q275 704 275 669Q275 644 271.5 620.5Q268 597 263.5 575.5Q259 554 255.5 533.5Q252 513 252 493Q252 469 258.5 449Q265 429 281.5 414.5Q298 400 326 392Q354 384 397 384V316Q354 316 326 308Q298 300 281.5 285.5Q265 271 258.5 251Q252 231 252 207Q252 187 255.5 166.5Q259 146 263.5 124Q268 102 271.5 79Q275 56 275 31Q275 -4 264 -33.5Q253 -63 228.5 -84.5Q204 -106 165 -118Q126 -130 70 -130V-59Q125 -59 151 -38.5Q177 -18 177 31Q177 56 173 79Q169 102 164.5 124Q160 146 156 166.5Q152 187 152 207Q152 255 180 294Q208 333 264 350Z" glyph-name="braceright" horiz-adv-x="437" unicode="}" /><glyph d="M264 384Q208 401 180 440Q152 479 152 527Q152 547 156 567.5Q160 588 164.5 610Q169 632 173 655Q177 678 177 703Q177 752 151 772.5Q125 793 70 793V864Q126 864 165 852Q204 840 228.5 818.5Q253 797 264 767.5Q275 738 275 703Q275 678 271.5 654.5Q268 631 263.5 609.5Q259 588 255.5 567.5Q252 547 252 527Q252 503 258.5 483Q265 463 281.5 448.5Q298 434 326 426Q354 418 397 418V350Q354 350 326 342Q298 334 281.5 319.5Q265 305 258.5 285Q252 265 252 241Q252 221 255.5 200.5Q259 180 263.5 158Q268 136 271.5 113Q275 90 275 65Q275 30 264 0.5Q253 -29 228.5 -50.5Q204 -72 165 -84Q126 -96 70 -96V-25Q125 -25 151 -4.5Q177 16 177 65Q177 90 173 113Q169 136 164.5 158Q160 180 156 200.5Q152 221 152 241Q152 289 180 328Q208 367 264 384Z" glyph-name="braceright.cap" horiz-adv-x="437" unicode="&#58518;" /><glyph d="M366 246Q323 246 295.5 240.5Q268 235 252 224.5Q236 214 230 198.5Q224 183 224 163Q224 146 228 130Q232 114 237 96.5Q242 79 246 60Q250 41 250 20Q250 -12 241 -37Q232 -62 211 -79.5Q190 -97 155.5 -106.5Q121 -116 70 -116V-46Q119 -46 141 -27.5Q163 -9 163 27Q163 48 158.5 66Q154 84 149 100.5Q144 117 139.5 134Q135 151 135 171Q135 213 158.5 243Q182 273 238 282Q182 291 158.5 321Q135 351 135 393Q135 412 139.5 429.5Q144 447 149 463.5Q154 480 158.5 498Q163 516 163 537Q163 573 141 591.5Q119 610 70 610V680Q121 680 155.5 670.5Q190 661 211 643.5Q232 626 241 601Q250 576 250 544Q250 523 246 504Q242 485 237 467.5Q232 450 228 433.5Q224 417 224 401Q224 381 230 365.5Q236 350 252 339.5Q268 329 295.5 323.5Q323 318 366 318Z" glyph-name="braceright.smcp" horiz-adv-x="406" unicode="&#58526;" /><glyph d="M195 -50H343V-130H100V830H343V750H195Z" glyph-name="bracketleft" horiz-adv-x="413" unicode="[" /><glyph d="M195 -16H343V-96H100V864H343V784H195Z" glyph-name="bracketleft.cap" horiz-adv-x="413" unicode="&#58515;" /><glyph d="M189 -39H340V-116H100V680H340V603H189Z" glyph-name="bracketleft.smcp" horiz-adv-x="410" unicode="&#58523;" /><glyph d="M218 750H70V830H313V-130H70V-50H218Z" glyph-name="bracketright" horiz-adv-x="413" unicode="]" /><glyph d="M218 784H70V864H313V-96H70V-16H218Z" glyph-name="bracketright.cap" horiz-adv-x="413" unicode="&#58516;" /><glyph d="M221 603H70V680H310V-116H70V-39H221Z" glyph-name="bracketright.smcp" horiz-adv-x="410" unicode="&#58524;" /><glyph d="M300 599Q252 599 218 612.5Q184 626 162.5 652Q141 678 131.5 715.5Q122 753 122 800H180Q184 771 195.5 752Q207 733 223 722Q239 711 259 707Q279 703 300 703Q321 703 341 707Q361 711 377 722Q393 733 404.5 752Q416 771 420 800H478Q478 753 468.5 715.5Q459 678 437.5 652Q416 626 382 612.5Q348 599 300 599Z" glyph-name="breve" horiz-adv-x="600" unicode="&#728;" /><glyph d="M300 829Q252 829 218 842.5Q184 856 162.5 882Q141 908 131.5 945.5Q122 983 122 1030H180Q184 1001 195.5 982Q207 963 223 952Q239 941 259 937Q279 933 300 933Q321 933 341 937Q361 941 377 952Q393 963 404.5 982Q416 1001 420 1030H478Q478 983 468.5 945.5Q459 908 437.5 882Q416 856 382 842.5Q348 829 300 829Z" glyph-name="breve.cap" horiz-adv-x="600" unicode="&#58406;" /><glyph d="M190 -121H100V285H190ZM190 424H100V830H190Z" glyph-name="brokenbar" horiz-adv-x="290" unicode="&#166;" /><glyph d="M190 -91H100V315H190ZM190 454H100V860H190Z" glyph-name="brokenbar.cap" horiz-adv-x="290" unicode="&#58469;" /><glyph d="M187 -121H100V245H187ZM187 354H100V720H187Z" glyph-name="brokenbar.smcp" horiz-adv-x="287" unicode="&#58475;" /><glyph d="M70 347Q70 379 82.5 407.5Q95 436 116 457Q137 478 165 490.5Q193 503 225 503Q257 503 285.5 490.5Q314 478 335 457Q356 436 368.5 407.5Q381 379 381 347Q381 315 368.5 287Q356 259 335 238Q314 217 285.5 204.5Q257 192 225 192Q193 192 165 204.5Q137 217 116 238Q95 259 82.5 287Q70 315 70 347Z" glyph-name="bullet" horiz-adv-x="451" unicode="&#8226;" /><glyph d="M70 397Q70 429 82.5 457.5Q95 486 116 507Q137 528 165 540.5Q193 553 225 553Q257 553 285.5 540.5Q314 528 335 507Q356 486 368.5 457.5Q381 429 381 397Q381 365 368.5 337Q356 309 335 288Q314 267 285.5 254.5Q257 242 225 242Q193 242 165 254.5Q137 267 116 288Q95 309 82.5 337Q70 365 70 397Z" glyph-name="bullet.cap" horiz-adv-x="451" unicode="&#58470;" /><glyph d="M70 295Q70 327 82.5 355.5Q95 384 116 405Q137 426 165 438.5Q193 451 225 451Q257 451 285.5 438.5Q314 426 335 405Q356 384 368.5 355.5Q381 327 381 295Q381 263 368.5 235Q356 207 335 186Q314 165 285.5 152.5Q257 140 225 140Q193 140 165 152.5Q137 165 116 186Q95 207 82.5 235Q70 263 70 295Z" glyph-name="bullet.smcp" horiz-adv-x="451" unicode="&#58476;" /><glyph d="M157 339Q157 282 178.5 232.5Q200 183 236.5 146.5Q273 110 322.5 88.5Q372 67 429 67Q486 67 535.5 88.5Q585 110 622 146.5Q659 183 680.5 232.5Q702 282 702 339Q702 396 680.5 445.5Q659 495 622 532Q585 569 535.5 590.5Q486 612 429 612Q372 612 322.5 590.5Q273 569 236.5 532Q200 495 178.5 445.5Q157 396 157 339ZM330 390Q330 421 342 448.5Q354 476 374 496Q394 516 421.5 528Q449 540 480 540Q511 540 538.5 528Q566 516 586 496Q606 476 618 448.5Q630 421 630 390Q630 359 618 331.5Q606 304 586 284Q566 264 538.5 252Q511 240 480 240Q449 240 421.5 252Q394 264 374 284Q354 304 342 331.5Q330 359 330 390ZM80 390Q80 473 111.5 546Q143 619 197 673Q251 727 324 758.5Q397 790 480 790Q563 790 636 758.5Q709 727 763 673Q817 619 848.5 546Q880 473 880 390Q880 307 848.5 234Q817 161 763 107Q709 53 636 21.5Q563 -10 480 -10Q397 -10 324 21.5Q251 53 197 107Q143 161 111.5 234Q80 307 80 390Z" glyph-name="bullseye" horiz-adv-x="960" unicode="&#9678;" /><glyph d="M195 324Q195 231 236.5 176.5Q278 122 362 122Q411 122 446 142Q481 162 507 194L550 172Q521 85 458.5 37.5Q396 -10 296 -10Q236 -10 186.5 9Q137 28 102.5 62.5Q68 97 49 146.5Q30 196 30 256Q30 324 52.5 379.5Q75 435 115 474Q155 513 209.5 534.5Q264 556 328 556Q373 556 411.5 546.5Q450 537 478.5 518.5Q507 500 523.5 473.5Q540 447 540 413Q540 384 527.5 365Q515 346 495 338H380V380Q380 402 377 422Q374 442 366 456Q358 470 343.5 478.5Q329 487 306 487Q258 487 226.5 445.5Q195 404 195 324Z" glyph-name="c" horiz-adv-x="572" unicode="c" /><glyph d="M386 62Q438 62 470 98.5Q502 135 522 203H607L590 39Q542 14 483.5 2Q425 -10 365 -10Q285 -10 224 12Q163 34 121.5 73Q80 112 59 165Q38 218 38 279Q38 350 62.5 407.5Q87 465 130.5 505.5Q174 546 232.5 568Q291 590 360 590Q425 590 479.5 577.5Q534 565 578 536L584 391H503Q479 458 448 488Q417 518 366 518Q296 518 264 460Q232 402 232 306Q232 254 241 209.5Q250 165 268.5 132Q287 99 316 80.5Q345 62 386 62Z" glyph-name="c.smcp" horiz-adv-x="647" unicode="&#57859;" /><glyph d="M150 588Q150 525 178 486.5Q206 448 262 448Q294 448 316 461Q338 474 357 497L391 479Q345 345 207 345Q166 345 131.5 357.5Q97 370 72 394Q47 418 33 453Q19 488 19 533Q19 581 35 620.5Q51 660 79.5 687.5Q108 715 146.5 730Q185 745 230 745Q261 745 289 738.5Q317 732 338 719Q359 706 371.5 686.5Q384 667 384 642Q384 620 374.5 606Q365 592 350 587H259V616Q259 632 257.5 646Q256 660 251.5 670.5Q247 681 237.5 687.5Q228 694 213 694Q186 694 168 667.5Q150 641 150 588Z" glyph-name="c.superior" horiz-adv-x="403" unicode="&#58211;" /><glyph d="M538 800 337 592H252L346 800ZM195 324Q195 231 236.5 176.5Q278 122 362 122Q411 122 446 142Q481 162 507 194L550 172Q521 85 458.5 37.5Q396 -10 296 -10Q236 -10 186.5 9Q137 28 102.5 62.5Q68 97 49 146.5Q30 196 30 256Q30 324 52.5 379.5Q75 435 115 474Q155 513 209.5 534.5Q264 556 328 556Q373 556 411.5 546.5Q450 537 478.5 518.5Q507 500 523.5 473.5Q540 447 540 413Q540 384 527.5 365Q515 346 495 338H380V380Q380 402 377 422Q374 442 366 456Q358 470 343.5 478.5Q329 487 306 487Q258 487 226.5 445.5Q195 404 195 324Z" glyph-name="cacute" horiz-adv-x="572" unicode="&#263;" /><glyph d="M591 830 390 622H305L399 830ZM386 62Q438 62 470 98.5Q502 135 522 203H607L590 39Q542 14 483.5 2Q425 -10 365 -10Q285 -10 224 12Q163 34 121.5 73Q80 112 59 165Q38 218 38 279Q38 350 62.5 407.5Q87 465 130.5 505.5Q174 546 232.5 568Q291 590 360 590Q425 590 479.5 577.5Q534 565 578 536L584 391H503Q479 458 448 488Q417 518 366 518Q296 518 264 460Q232 402 232 306Q232 254 241 209.5Q250 165 268.5 132Q287 99 316 80.5Q345 62 386 62Z" glyph-name="cacute.smcp" horiz-adv-x="647" unicode="&#57908;" /><glyph d="M89 800H176L300 698L424 800H511L354 592H246Z" glyph-name="caron" horiz-adv-x="600" unicode="&#711;" /><glyph d="M89 1030H176L300 928L424 1030H511L354 822H246Z" glyph-name="caron.cap" horiz-adv-x="600" unicode="&#58413;" /><glyph d="M387 800 295 592H212L220 800Z" glyph-name="caronSlovak" horiz-adv-x="600" unicode="&#58387;" /><glyph d="M95 800H182L306 698L430 800H517L360 592H252ZM195 324Q195 231 236.5 176.5Q278 122 362 122Q411 122 446 142Q481 162 507 194L550 172Q521 85 458.5 37.5Q396 -10 296 -10Q236 -10 186.5 9Q137 28 102.5 62.5Q68 97 49 146.5Q30 196 30 256Q30 324 52.5 379.5Q75 435 115 474Q155 513 209.5 534.5Q264 556 328 556Q373 556 411.5 546.5Q450 537 478.5 518.5Q507 500 523.5 473.5Q540 447 540 413Q540 384 527.5 365Q515 346 495 338H380V380Q380 402 377 422Q374 442 366 456Q358 470 343.5 478.5Q329 487 306 487Q258 487 226.5 445.5Q195 404 195 324Z" glyph-name="ccaron" horiz-adv-x="572" unicode="&#269;" /><glyph d="M148 830H235L359 728L483 830H570L413 622H305ZM386 62Q438 62 470 98.5Q502 135 522 203H607L590 39Q542 14 483.5 2Q425 -10 365 -10Q285 -10 224 12Q163 34 121.5 73Q80 112 59 165Q38 218 38 279Q38 350 62.5 407.5Q87 465 130.5 505.5Q174 546 232.5 568Q291 590 360 590Q425 590 479.5 577.5Q534 565 578 536L584 391H503Q479 458 448 488Q417 518 366 518Q296 518 264 460Q232 402 232 306Q232 254 241 209.5Q250 165 268.5 132Q287 99 316 80.5Q345 62 386 62Z" glyph-name="ccaron.smcp" horiz-adv-x="647" unicode="&#57910;" /><glyph d="M195 324Q195 231 236.5 176.5Q278 122 362 122Q411 122 446 142Q481 162 507 194L550 172Q521 85 458.5 37.5Q396 -10 296 -10H284L276 -45Q336 -50 368.5 -76Q401 -102 401 -150Q401 -175 391 -194Q381 -213 364 -225.5Q347 -238 325.5 -244Q304 -250 281 -250Q249 -250 226.5 -241.5Q204 -233 191 -223L206 -183Q220 -191 237.5 -196.5Q255 -202 272 -202Q292 -202 303 -195.5Q314 -189 314 -174Q314 -150 283.5 -141.5Q253 -133 208 -129L233 -4Q139 14 84.5 82.5Q30 151 30 256Q30 324 52.5 379.5Q75 435 115 474Q155 513 209.5 534.5Q264 556 328 556Q373 556 411.5 546.5Q450 537 478.5 518.5Q507 500 523.5 473.5Q540 447 540 413Q540 384 527.5 365Q515 346 495 338H380V380Q380 402 377 422Q374 442 366 456Q358 470 343.5 478.5Q329 487 306 487Q258 487 226.5 445.5Q195 404 195 324Z" glyph-name="ccedilla" horiz-adv-x="572" unicode="&#231;" /><glyph d="M386 62Q438 62 470 98.5Q502 135 522 203H607L590 39Q542 14 483.5 2Q425 -10 366 -10L358 -45Q418 -50 450.5 -76Q483 -102 483 -150Q483 -175 473 -194Q463 -213 446 -225.5Q429 -238 407.5 -244Q386 -250 363 -250Q331 -250 308.5 -241.5Q286 -233 273 -223L288 -183Q302 -191 319.5 -196.5Q337 -202 354 -202Q374 -202 385 -195.5Q396 -189 396 -174Q396 -150 365.5 -141.5Q335 -133 290 -129L314 -7Q246 0 194.5 24.5Q143 49 108.5 86.5Q74 124 56 173.5Q38 223 38 279Q38 350 62.5 407.5Q87 465 130.5 505.5Q174 546 232.5 568Q291 590 360 590Q425 590 479.5 577.5Q534 565 578 536L584 391H503Q479 458 448 488Q417 518 366 518Q296 518 264 460Q232 402 232 306Q232 254 241 209.5Q250 165 268.5 132Q287 99 316 80.5Q345 62 386 62Z" glyph-name="ccedilla.smcp" horiz-adv-x="647" unicode="&#57912;" /><glyph d="M517 592H430L306 694L182 592H95L252 800H360ZM195 324Q195 231 236.5 176.5Q278 122 362 122Q411 122 446 142Q481 162 507 194L550 172Q521 85 458.5 37.5Q396 -10 296 -10Q236 -10 186.5 9Q137 28 102.5 62.5Q68 97 49 146.5Q30 196 30 256Q30 324 52.5 379.5Q75 435 115 474Q155 513 209.5 534.5Q264 556 328 556Q373 556 411.5 546.5Q450 537 478.5 518.5Q507 500 523.5 473.5Q540 447 540 413Q540 384 527.5 365Q515 346 495 338H380V380Q380 402 377 422Q374 442 366 456Q358 470 343.5 478.5Q329 487 306 487Q258 487 226.5 445.5Q195 404 195 324Z" glyph-name="ccircumflex" horiz-adv-x="572" unicode="&#265;" /><glyph d="M570 622H483L359 724L235 622H148L305 830H413ZM386 62Q438 62 470 98.5Q502 135 522 203H607L590 39Q542 14 483.5 2Q425 -10 365 -10Q285 -10 224 12Q163 34 121.5 73Q80 112 59 165Q38 218 38 279Q38 350 62.5 407.5Q87 465 130.5 505.5Q174 546 232.5 568Q291 590 360 590Q425 590 479.5 577.5Q534 565 578 536L584 391H503Q479 458 448 488Q417 518 366 518Q296 518 264 460Q232 402 232 306Q232 254 241 209.5Q250 165 268.5 132Q287 99 316 80.5Q345 62 386 62Z" glyph-name="ccircumflex.smcp" horiz-adv-x="647" unicode="&#57909;" /><glyph d="M197 701Q197 745 225.5 774Q254 803 305 803Q357 803 385.5 774Q414 745 414 701Q414 658 385.5 629Q357 600 305 600Q254 600 225.5 629Q197 658 197 701ZM195 324Q195 231 236.5 176.5Q278 122 362 122Q411 122 446 142Q481 162 507 194L550 172Q521 85 458.5 37.5Q396 -10 296 -10Q236 -10 186.5 9Q137 28 102.5 62.5Q68 97 49 146.5Q30 196 30 256Q30 324 52.5 379.5Q75 435 115 474Q155 513 209.5 534.5Q264 556 328 556Q373 556 411.5 546.5Q450 537 478.5 518.5Q507 500 523.5 473.5Q540 447 540 413Q540 384 527.5 365Q515 346 495 338H380V380Q380 402 377 422Q374 442 366 456Q358 470 343.5 478.5Q329 487 306 487Q258 487 226.5 445.5Q195 404 195 324Z" glyph-name="cdotaccent" horiz-adv-x="572" unicode="&#267;" /><glyph d="M250 731Q250 775 278.5 804Q307 833 358 833Q410 833 438.5 804Q467 775 467 731Q467 688 438.5 659Q410 630 358 630Q307 630 278.5 659Q250 688 250 731ZM386 62Q438 62 470 98.5Q502 135 522 203H607L590 39Q542 14 483.5 2Q425 -10 365 -10Q285 -10 224 12Q163 34 121.5 73Q80 112 59 165Q38 218 38 279Q38 350 62.5 407.5Q87 465 130.5 505.5Q174 546 232.5 568Q291 590 360 590Q425 590 479.5 577.5Q534 565 578 536L584 391H503Q479 458 448 488Q417 518 366 518Q296 518 264 460Q232 402 232 306Q232 254 241 209.5Q250 165 268.5 132Q287 99 316 80.5Q345 62 386 62Z" glyph-name="cdotaccent.smcp" horiz-adv-x="647" unicode="&#57911;" /><glyph d="M293 12 280 -45Q340 -50 372.5 -76Q405 -102 405 -150Q405 -175 395 -194Q385 -213 368 -225.5Q351 -238 329.5 -244Q308 -250 285 -250Q253 -250 230.5 -241.5Q208 -233 195 -223L210 -183Q224 -191 241.5 -196.5Q259 -202 276 -202Q296 -202 307 -195.5Q318 -189 318 -174Q318 -150 287.5 -141.5Q257 -133 212 -129L240 12Z" glyph-name="cedilla" horiz-adv-x="600" unicode="&#184;" /><glyph d="M204 440Q204 379 220 333.5Q236 288 269 261L341 631Q337 632 330 632Q304 632 281 620Q258 608 241 584Q224 560 214 524Q204 488 204 440ZM238 105Q146 127 93 198.5Q40 270 40 378Q40 450 63.5 509Q87 568 128.5 609.5Q170 651 227 673.5Q284 696 350 696H353L372 790H429L409 691Q480 680 525 642Q570 604 570 544Q570 513 556 493Q542 473 520 465H425V526Q425 585 394 612L320 234Q350 226 383 226Q435 226 471 251Q507 276 536 310L580 289Q551 197 486 146.5Q421 96 317 96Q311 96 305 96Q299 96 293 97L273 -9H216Z" glyph-name="cent" horiz-adv-x="610" unicode="&#162;" /><glyph d="M204 440Q204 379 220 333.5Q236 288 269 261L341 631Q337 632 330 632Q304 632 281 620Q258 608 241 584Q224 560 214 524Q204 488 204 440ZM238 105Q146 127 93 198.5Q40 270 40 378Q40 450 63.5 509Q87 568 128.5 609.5Q170 651 227 673.5Q284 696 350 696H353L372 790H429L409 691Q480 680 525 642Q570 604 570 544Q570 513 556 493Q542 473 520 465H425V526Q425 585 394 612L320 234Q350 226 383 226Q435 226 471 251Q507 276 536 310L580 289Q551 197 486 146.5Q421 96 317 96Q311 96 305 96Q299 96 293 97L273 -9H216Z" glyph-name="cent.LP" horiz-adv-x="610" unicode="&#58659;" /><glyph d="M204 334Q204 273 220 227.5Q236 182 269 155L341 525Q337 526 330 526Q304 526 281 514Q258 502 241 478Q224 454 214 418Q204 382 204 334ZM238 -1Q146 21 93 92.5Q40 164 40 272Q40 344 63.5 403Q87 462 128.5 503.5Q170 545 227 567.5Q284 590 350 590H353L372 684H429L409 585Q480 574 525 536Q570 498 570 438Q570 407 556 387Q542 367 520 359H425V420Q425 479 394 506L320 128Q350 120 383 120Q435 120 471 145Q507 170 536 204L580 183Q551 91 486 40.5Q421 -10 317 -10Q311 -10 305 -9.5Q299 -9 293 -9L273 -115H216Z" glyph-name="cent.OP" horiz-adv-x="600" unicode="&#59807;" /><glyph d="M511 592H424L300 694L176 592H89L246 800H354Z" glyph-name="circumflex" horiz-adv-x="600" unicode="&#710;" /><glyph d="M511 822H424L300 924L176 822H89L246 1030H354Z" glyph-name="circumflex.cap" horiz-adv-x="600" unicode="&#58403;" /><glyph d="M349 0Q368 37 381.5 73Q395 109 404.5 147Q414 185 420.5 227Q427 269 431 320L428 321Q415 290 396 261Q377 232 352 209.5Q327 187 296 173.5Q265 160 228 160Q191 160 159 173.5Q127 187 103 210.5Q79 234 65.5 265.5Q52 297 52 334Q52 373 64.5 406Q77 439 100 463Q123 487 155 500.5Q187 514 226 514Q252 514 272.5 507Q293 500 310 491L312 493Q295 518 284.5 547.5Q274 577 274 610Q274 647 287.5 680Q301 713 324.5 737.5Q348 762 380 776Q412 790 450 790Q488 790 520 776Q552 762 575.5 737.5Q599 713 612.5 680Q626 647 626 610Q626 577 615.5 547.5Q605 518 588 493L590 491Q607 500 627.5 507Q648 514 674 514Q713 514 745 500.5Q777 487 800 463Q823 439 835.5 406Q848 373 848 334Q848 297 834.5 265.5Q821 234 797 210.5Q773 187 741 173.5Q709 160 672 160Q635 160 604 173.5Q573 187 548 209.5Q523 232 504 261Q485 290 472 321L469 320Q473 269 479.5 227Q486 185 495.5 147Q505 109 518.5 73Q532 37 551 0Z" glyph-name="club" horiz-adv-x="900" unicode="&#9827;" /><glyph d="M70 386Q70 408 78.5 428Q87 448 101.5 462.5Q116 477 135 485.5Q154 494 176 494Q198 494 218 485.5Q238 477 252.5 462.5Q267 448 275.5 428Q284 408 284 386Q284 364 275.5 345Q267 326 252.5 311.5Q238 297 218 288.5Q198 280 176 280Q154 280 135 288.5Q116 297 101.5 311.5Q87 326 78.5 345Q70 364 70 386ZM70 96Q70 118 78.5 138Q87 158 101.5 172.5Q116 187 135 195.5Q154 204 176 204Q198 204 218 195.5Q238 187 252.5 172.5Q267 158 275.5 138Q284 118 284 96Q284 74 275.5 55Q267 36 252.5 21.5Q238 7 218 -1.5Q198 -10 176 -10Q154 -10 135 -1.5Q116 7 101.5 21.5Q87 36 78.5 55Q70 74 70 96Z" glyph-name="colon" horiz-adv-x="354" unicode=":" /><glyph d="M68 386Q68 408 76.5 428Q85 448 99.5 462.5Q114 477 133 485.5Q152 494 174 494Q196 494 216 485.5Q236 477 250.5 462.5Q265 448 273.5 428Q282 408 282 386Q282 364 273.5 345Q265 326 250.5 311.5Q236 297 216 288.5Q196 280 174 280Q152 280 133 288.5Q114 297 99.5 311.5Q85 326 76.5 345Q68 364 68 386ZM68 96Q68 118 76.5 138Q85 158 99.5 172.5Q114 187 133 195.5Q152 204 174 204Q196 204 216 195.5Q236 187 250.5 172.5Q265 158 273.5 138Q282 118 282 96Q282 74 273.5 55Q265 36 250.5 21.5Q236 7 216 -1.5Q196 -10 174 -10Q152 -10 133 -1.5Q114 7 99.5 21.5Q85 36 76.5 55Q68 74 68 96Z" glyph-name="colon.T" horiz-adv-x="350" unicode="&#61828;" /><glyph d="M141 8Q70 25 70 105Q70 147 96 175.5Q122 204 169 204Q225 204 256.5 168.5Q288 133 288 66Q288 -39 229 -99Q170 -159 51 -167V-103Q80 -99 105 -90.5Q130 -82 149 -69Q168 -56 179 -37Q190 -18 192 8Z" glyph-name="comma" horiz-adv-x="354" unicode="," /><glyph d="M145 8Q74 25 74 105Q74 147 100 175.5Q126 204 173 204Q229 204 260.5 168.5Q292 133 292 66Q292 -39 233 -99Q174 -159 55 -167V-103Q84 -99 109 -90.5Q134 -82 153 -69Q172 -56 183 -37Q194 -18 196 8Z" glyph-name="comma.T" horiz-adv-x="350" unicode="&#61827;" /><glyph d="M271 -160Q244 -154 230 -139.5Q216 -125 216 -99Q216 -73 235.5 -54.5Q255 -36 292 -36Q334 -36 359 -62Q384 -88 384 -131Q384 -156 376 -177Q368 -198 350 -214Q332 -230 303 -239.5Q274 -249 232 -250V-206Q276 -202 295.5 -191Q315 -180 315 -160Z" glyph-name="commaaccent" horiz-adv-x="600" unicode="&#58388;" /><glyph d="M468 197Q519 197 545 225.5Q571 254 592 317H660L647 185Q613 164 564.5 152Q516 140 457 140Q392 140 342 158.5Q292 177 258 210Q224 243 207 287.5Q190 332 190 384Q190 444 211 492.5Q232 541 268 575Q304 609 353 627.5Q402 646 458 646Q516 646 560.5 631.5Q605 617 635 594L637 481H567Q559 508 549.5 528.5Q540 549 526.5 563.5Q513 578 493.5 585Q474 592 446 592Q412 592 390 576.5Q368 561 355 535.5Q342 510 337 476Q332 442 332 405Q332 360 339 321.5Q346 283 362 255.5Q378 228 404 212.5Q430 197 468 197ZM75 390Q75 313 104 246Q133 179 183.5 128.5Q234 78 301 49Q368 20 445 20Q521 20 588.5 49Q656 78 706.5 128.5Q757 179 786 246Q815 313 815 390Q815 466 786 533.5Q757 601 706.5 651.5Q656 702 588.5 731Q521 760 445 760Q368 760 301 731Q234 702 183.5 651.5Q133 601 104 533.5Q75 466 75 390ZM45 390Q45 473 76.5 546Q108 619 162 673Q216 727 289 758.5Q362 790 445 790Q528 790 601 758.5Q674 727 728 673Q782 619 813.5 546Q845 473 845 390Q845 307 813.5 234Q782 161 728 107Q674 53 601 21.5Q528 -10 445 -10Q362 -10 289 21.5Q216 53 162 107Q108 161 76.5 234Q45 307 45 390Z" glyph-name="copyright" horiz-adv-x="890" unicode="&#169;" /><glyph d="M150 588Q150 525 178 486.5Q206 448 262 448Q294 448 316 461Q338 474 357 497L391 479Q345 345 207 345Q166 345 131.5 357.5Q97 370 72 394Q47 418 33 453Q19 488 19 533Q19 581 35 620.5Q51 660 79.5 687.5Q108 715 146.5 730Q185 745 230 745Q261 745 289 738.5Q317 732 338 719Q359 706 371.5 686.5Q384 667 384 642Q384 620 374.5 606Q365 592 350 587H259V616Q259 632 257.5 646Q256 660 251.5 670.5Q247 681 237.5 687.5Q228 694 213 694Q186 694 168 667.5Q150 641 150 588Z" glyph-name="cordinal" horiz-adv-x="403" unicode="&#57729;" /><glyph d="M298 398Q336 398 357 425Q378 452 393 503H462L449 381Q414 363 370.5 354Q327 345 283 345Q224 345 178.5 361.5Q133 378 102 406.5Q71 435 55.5 474.5Q40 514 40 559Q40 612 58 654.5Q76 697 108.5 727Q141 757 184.5 773.5Q228 790 279 790Q327 790 367.5 780.5Q408 771 440 750L445 642H379Q361 692 341 714.5Q321 737 283 737Q231 737 210.5 693.5Q190 650 190 579Q190 540 195.5 507Q201 474 214 450Q227 426 247.5 412Q268 398 298 398Z" glyph-name="cordinal.smcp" horiz-adv-x="492" unicode="&#58195;" /><glyph d="M86 311Q86 359 99 398.5Q112 438 136 470L70 537L112 579L178 512Q210 536 255 549.5Q300 563 347 563Q394 563 439 549.5Q484 536 516 512L582 579L624 537L558 470Q582 438 595 398.5Q608 359 608 311Q608 263 595 223.5Q582 184 558 152L624 85L582 43L516 110Q484 86 439 72.5Q394 59 347 59Q300 59 255 72.5Q210 86 178 110L112 43L70 85L136 152Q112 184 99 223.5Q86 263 86 311ZM252 311Q252 223 276 171Q300 119 347 119Q394 119 418 171Q442 223 442 311Q442 399 418 451Q394 503 347 503Q300 503 276 451Q252 399 252 311Z" glyph-name="currency" horiz-adv-x="694" unicode="&#164;" /><glyph d="M465 -10H426L431 87Q405 44 362 17Q319 -10 259 -10Q205 -10 162.5 8Q120 26 90.5 59.5Q61 93 45.5 140.5Q30 188 30 248Q30 319 52.5 376Q75 433 114.5 473Q154 513 206.5 534.5Q259 556 319 556Q351 556 379.5 549.5Q408 543 431 528V683L372 734V768L577 810H616L611 723V139Q611 113 619.5 99.5Q628 86 652 86H676V23ZM344 486Q283 486 250 434.5Q217 383 217 299Q217 207 252.5 157Q288 107 348 107Q373 107 392.5 112.5Q412 118 431 133V392Q431 436 410 461Q389 486 344 486Z" glyph-name="d" horiz-adv-x="705" unicode="d" /><glyph d="M40 64Q68 65 85 68.5Q102 72 111.5 80.5Q121 89 124 103Q127 117 127 140V440Q127 462 124 476.5Q121 491 111.5 499.5Q102 508 85 511.5Q68 515 40 516V580H422Q501 580 563.5 561Q626 542 669.5 506Q713 470 735.5 418Q758 366 758 301Q758 225 731.5 168.5Q705 112 660 74.5Q615 37 556 18.5Q497 0 431 0H40ZM315 511V127Q315 91 333.5 80Q352 69 395 69H408Q476 69 518 119Q560 169 560 276Q560 388 514.5 449.5Q469 511 372 511Z" glyph-name="d.smcp" horiz-adv-x="796" unicode="&#57860;" /><glyph d="M329 345H295L299 414Q286 384 253 364.5Q220 345 175 345Q106 345 62.5 393Q19 441 19 530Q19 581 34 621Q49 661 75 688.5Q101 716 137.5 730.5Q174 745 218 745Q244 745 263 740.5Q282 736 299 726V824L261 866V892L420 919H447L445 858V455Q445 437 449.5 427Q454 417 468 417H484V368ZM241 691Q206 691 186.5 654.5Q167 618 167 561Q167 499 186.5 464.5Q206 430 248 430Q265 430 276.5 432.5Q288 435 299 443V616Q299 691 241 691Z" glyph-name="d.superior" horiz-adv-x="505" unicode="&#58212;" /><glyph d="M426 780 436 742 393 494 641 537 679 527V404L641 394L393 437L436 209L382 -250H347L293 209L336 437L88 394L50 404V527L88 537L336 494L293 742L303 780Z" glyph-name="dagger" horiz-adv-x="729" unicode="&#8224;" /><glyph d="M336 437 88 394 50 404V527L88 537L336 494L293 742L303 780H426L436 742L393 494L641 537L679 527V404L641 394L393 437L436 263L393 102L641 145L679 135V12L641 2L393 45L436 -203L426 -241H303L293 -203L336 45L88 2L50 12V135L88 145L336 102L293 263Z" glyph-name="daggerdbl" horiz-adv-x="729" unicode="&#8225;" /><glyph d="M825 800 733 592H650L658 800ZM465 -10H426L431 87Q405 44 362 17Q319 -10 259 -10Q205 -10 162.5 8Q120 26 90.5 59.5Q61 93 45.5 140.5Q30 188 30 248Q30 319 52.5 376Q75 433 114.5 473Q154 513 206.5 534.5Q259 556 319 556Q351 556 379.5 549.5Q408 543 431 528V683L372 734V768L577 810H616L611 723V139Q611 113 619.5 99.5Q628 86 652 86H676V23ZM344 486Q283 486 250 434.5Q217 383 217 299Q217 207 252.5 157Q288 107 348 107Q373 107 392.5 112.5Q412 118 431 133V392Q431 436 410 461Q389 486 344 486Z" glyph-name="dcaron" horiz-adv-x="705" unicode="&#271;" /><glyph d="M176 830H263L387 728L511 830H598L441 622H333ZM40 64Q68 65 85 68.5Q102 72 111.5 80.5Q121 89 124 103Q127 117 127 140V440Q127 462 124 476.5Q121 491 111.5 499.5Q102 508 85 511.5Q68 515 40 516V580H422Q501 580 563.5 561Q626 542 669.5 506Q713 470 735.5 418Q758 366 758 301Q758 225 731.5 168.5Q705 112 660 74.5Q615 37 556 18.5Q497 0 431 0H40ZM315 511V127Q315 91 333.5 80Q352 69 395 69H408Q476 69 518 119Q560 169 560 276Q560 388 514.5 449.5Q469 511 372 511Z" glyph-name="dcaron.smcp" horiz-adv-x="796" unicode="&#57913;" /><glyph d="M344 486Q283 486 250 434.5Q217 383 217 299Q217 207 252.5 157Q288 107 348 107Q373 107 392.5 112.5Q412 118 431 133V392Q431 436 410 461Q389 486 344 486ZM265 662H431V696L372 734V768L577 810H616L611 723V662H676V603H611V139Q611 113 619.5 99.5Q628 86 652 86H676V23L465 -10H426L431 87Q405 44 362 17Q319 -10 259 -10Q205 -10 162.5 8Q120 26 90.5 59.5Q61 93 45.5 140.5Q30 188 30 248Q30 319 52.5 376Q75 433 114.5 473Q154 513 206.5 534.5Q259 556 319 556Q351 556 379.5 549.5Q408 543 431 528V603H265Z" glyph-name="dcroat" horiz-adv-x="705" unicode="&#273;" /><glyph d="M315 511V327H442V263H315V127Q315 91 333.5 80Q352 69 395 69H408Q476 69 518 119Q560 169 560 276Q560 388 514.5 449.5Q469 511 372 511ZM40 327H127V440Q127 462 124 476.5Q121 491 111.5 499.5Q102 508 85 511.5Q68 515 40 516V580H422Q501 580 563.5 561Q626 542 669.5 506Q713 470 735.5 418Q758 366 758 301Q758 225 731.5 168.5Q705 112 660 74.5Q615 37 556 18.5Q497 0 431 0H40V64Q68 65 85 68.5Q102 72 111.5 80.5Q121 89 124 103Q127 117 127 140V263H40Z" glyph-name="dcroat.smcp" horiz-adv-x="796" unicode="&#57916;" /><glyph d="M355 596Q355 621 347.5 642.5Q340 664 326.5 680Q313 696 294 705.5Q275 715 251 715Q202 715 174.5 680.5Q147 646 147 596Q147 547 174.5 513Q202 479 251 479Q299 479 327 513Q355 547 355 596ZM60 596Q60 636 73 671.5Q86 707 110.5 733Q135 759 170 774.5Q205 790 249 790Q293 790 328.5 774.5Q364 759 388.5 733Q413 707 426 671.5Q439 636 439 596Q439 556 426 521Q413 486 388.5 459.5Q364 433 328.5 418Q293 403 249 403Q205 403 170 418Q135 433 110.5 459.5Q86 486 73 521Q60 556 60 596Z" glyph-name="degree" horiz-adv-x="499" unicode="&#176;" /><glyph d="M817 390Q764 348 712.5 300.5Q661 253 614 201.5Q567 150 525.5 96.5Q484 43 451 -10H449Q416 43 374.5 96.5Q333 150 286 201.5Q239 253 187.5 300.5Q136 348 83 390Q136 432 187.5 479.5Q239 527 286 578.5Q333 630 374.5 683.5Q416 737 449 790H451Q484 737 525.5 683.5Q567 630 614 578.5Q661 527 712.5 479.5Q764 432 817 390Z" glyph-name="diamond" horiz-adv-x="900" unicode="&#9830;" /><glyph d="M321 702Q321 721 328.5 738.5Q336 756 348.5 768.5Q361 781 377.5 788.5Q394 796 413 796Q432 796 449.5 788.5Q467 781 479.5 768.5Q492 756 499.5 738.5Q507 721 507 702Q507 683 499.5 666.5Q492 650 479.5 637.5Q467 625 449.5 617.5Q432 610 413 610Q375 610 348 637Q321 664 321 702ZM93 702Q93 721 100.5 738.5Q108 756 120.5 768.5Q133 781 149.5 788.5Q166 796 185 796Q204 796 221.5 788.5Q239 781 251.5 768.5Q264 756 271.5 738.5Q279 721 279 702Q279 683 271.5 666.5Q264 650 251.5 637.5Q239 625 221.5 617.5Q204 610 185 610Q147 610 120 637Q93 664 93 702Z" glyph-name="dieresis" horiz-adv-x="600" unicode="&#168;" /><glyph d="M321 926Q321 945 328.5 962.5Q336 980 348.5 992.5Q361 1005 377.5 1012.5Q394 1020 413 1020Q432 1020 449.5 1012.5Q467 1005 479.5 992.5Q492 980 499.5 962.5Q507 945 507 926Q507 907 499.5 890.5Q492 874 479.5 861.5Q467 849 449.5 841.5Q432 834 413 834Q375 834 348 861Q321 888 321 926ZM93 926Q93 945 100.5 962.5Q108 980 120.5 992.5Q133 1005 149.5 1012.5Q166 1020 185 1020Q204 1020 221.5 1012.5Q239 1005 251.5 992.5Q264 980 271.5 962.5Q279 945 279 926Q279 907 271.5 890.5Q264 874 251.5 861.5Q239 849 221.5 841.5Q204 834 185 834Q147 834 120 861Q93 888 93 926Z" glyph-name="dieresis.cap" horiz-adv-x="600" unicode="&#58409;" /><glyph d="M268 87Q268 121 292 145Q316 169 350 169Q384 169 408 145Q432 121 432 87Q432 53 408 29Q384 5 350 5Q316 5 292 29Q268 53 268 87ZM268 513Q268 547 292 571Q316 595 350 595Q384 595 408 571Q432 547 432 513Q432 479 408 455Q384 431 350 431Q316 431 292 455Q268 479 268 513ZM80 253V347H620V253Z" glyph-name="divide" horiz-adv-x="700" unicode="&#247;" /><glyph d="M268 177Q268 211 292 235Q316 259 350 259Q384 259 408 235Q432 211 432 177Q432 143 408 119Q384 95 350 95Q316 95 292 119Q268 143 268 177ZM268 603Q268 637 292 661Q316 685 350 685Q384 685 408 661Q432 637 432 603Q432 569 408 545Q384 521 350 521Q316 521 292 545Q268 569 268 603ZM80 343V437H620V343Z" glyph-name="divide.cap" horiz-adv-x="700" unicode="&#58772;" /><glyph d="M207 621Q207 570 235 544Q263 518 325 500L363 712Q340 717 315 717Q262 717 234.5 690Q207 663 207 621ZM347 287 308 65Q315 64 322.5 63.5Q330 63 338 63Q393 63 429 89Q465 115 465 168Q465 191 459 208.5Q453 226 439.5 240.5Q426 255 403.5 266Q381 277 348 287ZM235 -4Q178 4 130.5 21.5Q83 39 52 62L40 249H140Q157 184 183.5 142.5Q210 101 251 81L290 303L250 315Q203 328 166 347Q129 366 102.5 393Q76 420 62 457.5Q48 495 48 545Q48 602 69 647.5Q90 693 127.5 724.5Q165 756 217 773Q269 790 330 790Q342 790 354 789.5Q366 789 377 788L398 905H458L436 782Q484 774 522.5 759Q561 744 589 724L591 554H505Q491 598 471 632.5Q451 667 419 689L383 484L414 476Q459 463 499 445.5Q539 428 568.5 400.5Q598 373 615 333Q632 293 632 236Q632 173 606.5 126.5Q581 80 538 50Q495 20 437 5Q379 -10 315 -10Q310 -10 304.5 -9.5Q299 -9 294 -9L274 -125H214Z" glyph-name="dollar" horiz-adv-x="672" unicode="$" /><glyph d="M207 621Q207 570 235 544Q263 518 325 500L363 712Q340 717 315 717Q262 717 234.5 690Q207 663 207 621ZM347 287 308 65Q315 64 322.5 63.5Q330 63 338 63Q393 63 429 89Q465 115 465 168Q465 191 459 208.5Q453 226 439.5 240.5Q426 255 403.5 266Q381 277 348 287ZM235 -4Q178 4 130.5 21.5Q83 39 52 62L40 249H140Q157 184 183.5 142.5Q210 101 251 81L290 303L250 315Q203 328 166 347Q129 366 102.5 393Q76 420 62 457.5Q48 495 48 545Q48 602 69 647.5Q90 693 127.5 724.5Q165 756 217 773Q269 790 330 790Q342 790 354 789.5Q366 789 377 788L398 905H458L436 782Q484 774 522.5 759Q561 744 589 724L591 554H505Q491 598 471 632.5Q451 667 419 689L383 484L414 476Q459 463 499 445.5Q539 428 568.5 400.5Q598 373 615 333Q632 293 632 236Q632 173 606.5 126.5Q581 80 538 50Q495 20 437 5Q379 -10 315 -10Q310 -10 304.5 -9.5Q299 -9 294 -9L274 -125H214Z" glyph-name="dollar.LP" horiz-adv-x="672" unicode="&#58658;" /><glyph d="M199 505Q199 469 219.5 453Q240 437 282 429L295 426L327 588Q320 589 313.5 589.5Q307 590 299 590Q252 590 225.5 568Q199 546 199 505ZM317 238 281 55Q289 54 296.5 54Q304 54 312 54Q367 54 400.5 78Q434 102 434 145Q434 180 410 202.5Q386 225 332 235ZM211 -3Q160 5 118.5 19.5Q77 34 47 53L40 205H139Q147 157 167.5 123Q188 89 225 71L260 248L238 253Q194 261 158.5 275.5Q123 290 97 312.5Q71 335 57 367.5Q43 400 43 445Q43 496 62 535.5Q81 575 116 601Q151 627 200.5 640.5Q250 654 312 654Q319 654 325.5 654Q332 654 339 653L360 758H419L397 648Q439 643 475 631.5Q511 620 540 603V470H451Q441 505 425.5 531Q410 557 382 572L351 415L381 409Q429 399 467.5 384.5Q506 370 533.5 347.5Q561 325 575.5 291.5Q590 258 590 209Q590 155 569 114Q548 73 510 45.5Q472 18 419.5 4Q367 -10 305 -10Q295 -10 286 -9.5Q277 -9 268 -9L248 -115H189Z" glyph-name="dollar.OP" horiz-adv-x="630" unicode="&#59806;" /><glyph d="M191 701Q191 745 219.5 774Q248 803 299 803Q351 803 379.5 774Q408 745 408 701Q408 658 379.5 629Q351 600 299 600Q248 600 219.5 629Q191 658 191 701Z" glyph-name="dotaccent" horiz-adv-x="600" unicode="&#729;" /><glyph d="M191 935Q191 979 219.5 1008Q248 1037 299 1037Q351 1037 379.5 1008Q408 979 408 935Q408 892 379.5 863Q351 834 299 834Q248 834 219.5 863Q191 892 191 935Z" glyph-name="dotaccent.cap" horiz-adv-x="600" unicode="&#58408;" /><glyph d="M207 -154Q207 -135 214.5 -117.5Q222 -100 234.5 -87.5Q247 -75 263.5 -67.5Q280 -60 299 -60Q318 -60 335.5 -67.5Q353 -75 365.5 -87.5Q378 -100 385.5 -117.5Q393 -135 393 -154Q393 -173 385.5 -189.5Q378 -206 365.5 -218.5Q353 -231 335.5 -238.5Q318 -246 299 -246Q261 -246 234 -219Q207 -192 207 -154Z" glyph-name="dotbelow" horiz-adv-x="600" unicode="&#58389;" /><glyph d="M284 118Q284 101 287.5 90.5Q291 80 298.5 74.5Q306 69 318.5 66Q331 63 348 61V0H40V61Q57 63 69.5 66Q82 69 89.5 74.5Q97 80 100.5 90.5Q104 101 104 118V418L45 472V506L250 560H289L284 462Z" glyph-name="dotlessi" horiz-adv-x="378" unicode="&#305;" /><glyph d="M23 472V506L228 560H267L262 462V91Q262 50 257.5 19Q253 -12 244 -36Q235 -60 222.5 -79Q210 -98 195 -116Q159 -158 120 -189.5Q81 -221 40 -243L0 -207L43 -136Q68 -95 75 -50.5Q82 -6 82 53V418Z" glyph-name="dotlessj" horiz-adv-x="330" unicode="&#567;" /><glyph d="M360 -120H270V830H360ZM190 -120H100V830H190Z" glyph-name="doublebar" horiz-adv-x="460" unicode="&#8214;" /><glyph d="M360 -90H270V860H360ZM190 -90H100V860H190Z" glyph-name="doublebar.cap" horiz-adv-x="460" unicode="&#58468;" /><glyph d="M357 -120H270V719H357ZM187 -120H100V719H187Z" glyph-name="doublebar.smcp" horiz-adv-x="457" unicode="&#58474;" /><glyph d="M242 800 309 592H231L100 800ZM432 800 499 592H421L290 800Z" glyph-name="doublegrave" horiz-adv-x="600" unicode="&#58386;" /><glyph d="M242 1030 309 822H231L100 1030ZM432 1030 499 822H421L290 1030Z" glyph-name="doublegrave.cap" horiz-adv-x="600" unicode="&#58412;" /><glyph d="M297 487Q251 487 227.5 450.5Q204 414 198 358H385Q384 416 363 451.5Q342 487 297 487ZM317 556Q374 556 417.5 539Q461 522 490 492Q519 462 534 422Q549 382 549 336V300H196Q196 218 240.5 170.5Q285 123 366 123Q413 123 447 142Q481 161 507 193L548 171Q537 137 517.5 104.5Q498 72 467.5 46.5Q437 21 395.5 5.5Q354 -10 300 -10Q241 -10 191.5 8Q142 26 106 60Q70 94 50 143Q30 192 30 255Q30 323 52.5 378.5Q75 434 114 473.5Q153 513 205.5 534.5Q258 556 317 556Z" glyph-name="e" horiz-adv-x="579" unicode="e" /><glyph d="M633 580 637 391H563Q554 418 545.5 440Q537 462 525 477.5Q513 493 495 502Q477 511 449 511H315V325H386Q415 325 426 344Q437 363 444 401H507V183H444Q437 221 426 240.5Q415 260 386 260H315V125Q315 92 333.5 80.5Q352 69 394 69H445Q472 69 490.5 75Q509 81 525 96Q541 111 557 136.5Q573 162 595 201H672L638 0H40V64Q68 65 85 68.5Q102 72 111.5 80.5Q121 89 124 103Q127 117 127 140V440Q127 462 124 476.5Q121 491 111.5 499.5Q102 508 85 511.5Q68 515 40 516V580Z" glyph-name="e.smcp" horiz-adv-x="712" unicode="&#57861;" /><glyph d="M212 695Q186 695 172 669Q158 643 154 605H270Q270 646 257 670.5Q244 695 212 695ZM231 745Q273 745 304.5 732.5Q336 720 357 699Q378 678 389 649.5Q400 621 400 589V562H152Q152 510 185 480Q218 450 272 450Q301 450 324 462Q347 474 367 497L398 479Q390 454 375.5 430Q361 406 338.5 387Q316 368 286 356.5Q256 345 216 345Q174 345 137.5 357Q101 369 75 393Q49 417 34 452Q19 487 19 533Q19 581 36 620Q53 659 81.5 686.5Q110 714 148.5 729.5Q187 745 231 745Z" glyph-name="e.superior" horiz-adv-x="419" unicode="&#58213;" /><glyph d="M529 800 328 592H243L337 800ZM297 487Q251 487 227.5 450.5Q204 414 198 358H385Q384 416 363 451.5Q342 487 297 487ZM317 556Q374 556 417.5 539Q461 522 490 492Q519 462 534 422Q549 382 549 336V300H196Q196 218 240.5 170.5Q285 123 366 123Q413 123 447 142Q481 161 507 193L548 171Q537 137 517.5 104.5Q498 72 467.5 46.5Q437 21 395.5 5.5Q354 -10 300 -10Q241 -10 191.5 8Q142 26 106 60Q70 94 50 143Q30 192 30 255Q30 323 52.5 378.5Q75 434 114 473.5Q153 513 205.5 534.5Q258 556 317 556Z" glyph-name="eacute" horiz-adv-x="579" unicode="&#233;" /><glyph d="M598 830 397 622H312L406 830ZM633 580 637 391H563Q554 418 545.5 440Q537 462 525 477.5Q513 493 495 502Q477 511 449 511H315V325H386Q415 325 426 344Q437 363 444 401H507V183H444Q437 221 426 240.5Q415 260 386 260H315V125Q315 92 333.5 80.5Q352 69 394 69H445Q472 69 490.5 75Q509 81 525 96Q541 111 557 136.5Q573 162 595 201H672L638 0H40V64Q68 65 85 68.5Q102 72 111.5 80.5Q121 89 124 103Q127 117 127 140V440Q127 462 124 476.5Q121 491 111.5 499.5Q102 508 85 511.5Q68 515 40 516V580Z" glyph-name="eacute.smcp" horiz-adv-x="712" unicode="&#57917;" /><glyph d="M297 599Q249 599 215 612.5Q181 626 159.5 652Q138 678 128.5 715.5Q119 753 119 800H177Q181 771 192.5 752Q204 733 220 722Q236 711 256 707Q276 703 297 703Q318 703 338 707Q358 711 374 722Q390 733 401.5 752Q413 771 417 800H475Q475 753 465.5 715.5Q456 678 434.5 652Q413 626 379 612.5Q345 599 297 599ZM297 487Q251 487 227.5 450.5Q204 414 198 358H385Q384 416 363 451.5Q342 487 297 487ZM317 556Q374 556 417.5 539Q461 522 490 492Q519 462 534 422Q549 382 549 336V300H196Q196 218 240.5 170.5Q285 123 366 123Q413 123 447 142Q481 161 507 193L548 171Q537 137 517.5 104.5Q498 72 467.5 46.5Q437 21 395.5 5.5Q354 -10 300 -10Q241 -10 191.5 8Q142 26 106 60Q70 94 50 143Q30 192 30 255Q30 323 52.5 378.5Q75 434 114 473.5Q153 513 205.5 534.5Q258 556 317 556Z" glyph-name="ebreve" horiz-adv-x="579" unicode="&#277;" /><glyph d="M366 629Q318 629 284 642.5Q250 656 228.5 682Q207 708 197.5 745.5Q188 783 188 830H246Q250 801 261.5 782Q273 763 289 752Q305 741 325 737Q345 733 366 733Q387 733 407 737Q427 741 443 752Q459 763 470.5 782Q482 801 486 830H544Q544 783 534.5 745.5Q525 708 503.5 682Q482 656 448 642.5Q414 629 366 629ZM633 580 637 391H563Q554 418 545.5 440Q537 462 525 477.5Q513 493 495 502Q477 511 449 511H315V325H386Q415 325 426 344Q437 363 444 401H507V183H444Q437 221 426 240.5Q415 260 386 260H315V125Q315 92 333.5 80.5Q352 69 394 69H445Q472 69 490.5 75Q509 81 525 96Q541 111 557 136.5Q573 162 595 201H672L638 0H40V64Q68 65 85 68.5Q102 72 111.5 80.5Q121 89 124 103Q127 117 127 140V440Q127 462 124 476.5Q121 491 111.5 499.5Q102 508 85 511.5Q68 515 40 516V580Z" glyph-name="ebreve.smcp" horiz-adv-x="712" unicode="&#57923;" /><glyph d="M86 800H173L297 698L421 800H508L351 592H243ZM297 487Q251 487 227.5 450.5Q204 414 198 358H385Q384 416 363 451.5Q342 487 297 487ZM317 556Q374 556 417.5 539Q461 522 490 492Q519 462 534 422Q549 382 549 336V300H196Q196 218 240.5 170.5Q285 123 366 123Q413 123 447 142Q481 161 507 193L548 171Q537 137 517.5 104.5Q498 72 467.5 46.5Q437 21 395.5 5.5Q354 -10 300 -10Q241 -10 191.5 8Q142 26 106 60Q70 94 50 143Q30 192 30 255Q30 323 52.5 378.5Q75 434 114 473.5Q153 513 205.5 534.5Q258 556 317 556Z" glyph-name="ecaron" horiz-adv-x="579" unicode="&#283;" /><glyph d="M155 830H242L366 728L490 830H577L420 622H312ZM633 580 637 391H563Q554 418 545.5 440Q537 462 525 477.5Q513 493 495 502Q477 511 449 511H315V325H386Q415 325 426 344Q437 363 444 401H507V183H444Q437 221 426 240.5Q415 260 386 260H315V125Q315 92 333.5 80.5Q352 69 394 69H445Q472 69 490.5 75Q509 81 525 96Q541 111 557 136.5Q573 162 595 201H672L638 0H40V64Q68 65 85 68.5Q102 72 111.5 80.5Q121 89 124 103Q127 117 127 140V440Q127 462 124 476.5Q121 491 111.5 499.5Q102 508 85 511.5Q68 515 40 516V580Z" glyph-name="ecaron.smcp" horiz-adv-x="712" unicode="&#57921;" /><glyph d="M508 592H421L297 694L173 592H86L243 800H351ZM297 487Q251 487 227.5 450.5Q204 414 198 358H385Q384 416 363 451.5Q342 487 297 487ZM317 556Q374 556 417.5 539Q461 522 490 492Q519 462 534 422Q549 382 549 336V300H196Q196 218 240.5 170.5Q285 123 366 123Q413 123 447 142Q481 161 507 193L548 171Q537 137 517.5 104.5Q498 72 467.5 46.5Q437 21 395.5 5.5Q354 -10 300 -10Q241 -10 191.5 8Q142 26 106 60Q70 94 50 143Q30 192 30 255Q30 323 52.5 378.5Q75 434 114 473.5Q153 513 205.5 534.5Q258 556 317 556Z" glyph-name="ecircumflex" horiz-adv-x="579" unicode="&#234;" /><glyph d="M577 622H490L366 724L242 622H155L312 830H420ZM633 580 637 391H563Q554 418 545.5 440Q537 462 525 477.5Q513 493 495 502Q477 511 449 511H315V325H386Q415 325 426 344Q437 363 444 401H507V183H444Q437 221 426 240.5Q415 260 386 260H315V125Q315 92 333.5 80.5Q352 69 394 69H445Q472 69 490.5 75Q509 81 525 96Q541 111 557 136.5Q573 162 595 201H672L638 0H40V64Q68 65 85 68.5Q102 72 111.5 80.5Q121 89 124 103Q127 117 127 140V440Q127 462 124 476.5Q121 491 111.5 499.5Q102 508 85 511.5Q68 515 40 516V580Z" glyph-name="ecircumflex.smcp" horiz-adv-x="712" unicode="&#57919;" /><glyph d="M318 702Q318 721 325.5 738.5Q333 756 345.5 768.5Q358 781 374.5 788.5Q391 796 410 796Q429 796 446.5 788.5Q464 781 476.5 768.5Q489 756 496.5 738.5Q504 721 504 702Q504 683 496.5 666.5Q489 650 476.5 637.5Q464 625 446.5 617.5Q429 610 410 610Q372 610 345 637Q318 664 318 702ZM90 702Q90 721 97.5 738.5Q105 756 117.5 768.5Q130 781 146.5 788.5Q163 796 182 796Q201 796 218.5 788.5Q236 781 248.5 768.5Q261 756 268.5 738.5Q276 721 276 702Q276 683 268.5 666.5Q261 650 248.5 637.5Q236 625 218.5 617.5Q201 610 182 610Q144 610 117 637Q90 664 90 702ZM297 487Q251 487 227.5 450.5Q204 414 198 358H385Q384 416 363 451.5Q342 487 297 487ZM317 556Q374 556 417.5 539Q461 522 490 492Q519 462 534 422Q549 382 549 336V300H196Q196 218 240.5 170.5Q285 123 366 123Q413 123 447 142Q481 161 507 193L548 171Q537 137 517.5 104.5Q498 72 467.5 46.5Q437 21 395.5 5.5Q354 -10 300 -10Q241 -10 191.5 8Q142 26 106 60Q70 94 50 143Q30 192 30 255Q30 323 52.5 378.5Q75 434 114 473.5Q153 513 205.5 534.5Q258 556 317 556Z" glyph-name="edieresis" horiz-adv-x="579" unicode="&#235;" /><glyph d="M387 732Q387 751 394.5 768.5Q402 786 414.5 798.5Q427 811 443.5 818.5Q460 826 479 826Q518 826 545.5 798.5Q573 771 573 732Q573 713 565.5 696.5Q558 680 545.5 667.5Q533 655 515.5 647.5Q498 640 479 640Q441 640 414 667Q387 694 387 732ZM159 732Q159 751 166.5 768.5Q174 786 186.5 798.5Q199 811 215.5 818.5Q232 826 251 826Q270 826 287.5 818.5Q305 811 317.5 798.5Q330 786 337.5 768.5Q345 751 345 732Q345 713 337.5 696.5Q330 680 317.5 667.5Q305 655 287.5 647.5Q270 640 251 640Q213 640 186 667Q159 694 159 732ZM633 580 637 391H563Q554 418 545.5 440Q537 462 525 477.5Q513 493 495 502Q477 511 449 511H315V325H386Q415 325 426 344Q437 363 444 401H507V183H444Q437 221 426 240.5Q415 260 386 260H315V125Q315 92 333.5 80.5Q352 69 394 69H445Q472 69 490.5 75Q509 81 525 96Q541 111 557 136.5Q573 162 595 201H672L638 0H40V64Q68 65 85 68.5Q102 72 111.5 80.5Q121 89 124 103Q127 117 127 140V440Q127 462 124 476.5Q121 491 111.5 499.5Q102 508 85 511.5Q68 515 40 516V580Z" glyph-name="edieresis.smcp" horiz-adv-x="712" unicode="&#57904;" /><glyph d="M188 701Q188 745 216.5 774Q245 803 296 803Q348 803 376.5 774Q405 745 405 701Q405 658 376.5 629Q348 600 296 600Q245 600 216.5 629Q188 658 188 701ZM297 487Q251 487 227.5 450.5Q204 414 198 358H385Q384 416 363 451.5Q342 487 297 487ZM317 556Q374 556 417.5 539Q461 522 490 492Q519 462 534 422Q549 382 549 336V300H196Q196 218 240.5 170.5Q285 123 366 123Q413 123 447 142Q481 161 507 193L548 171Q537 137 517.5 104.5Q498 72 467.5 46.5Q437 21 395.5 5.5Q354 -10 300 -10Q241 -10 191.5 8Q142 26 106 60Q70 94 50 143Q30 192 30 255Q30 323 52.5 378.5Q75 434 114 473.5Q153 513 205.5 534.5Q258 556 317 556Z" glyph-name="edotaccent" horiz-adv-x="579" unicode="&#279;" /><glyph d="M257 731Q257 775 285.5 804Q314 833 365 833Q417 833 445.5 804Q474 775 474 731Q474 688 445.5 659Q417 630 365 630Q314 630 285.5 659Q257 688 257 731ZM633 580 637 391H563Q554 418 545.5 440Q537 462 525 477.5Q513 493 495 502Q477 511 449 511H315V325H386Q415 325 426 344Q437 363 444 401H507V183H444Q437 221 426 240.5Q415 260 386 260H315V125Q315 92 333.5 80.5Q352 69 394 69H445Q472 69 490.5 75Q509 81 525 96Q541 111 557 136.5Q573 162 595 201H672L638 0H40V64Q68 65 85 68.5Q102 72 111.5 80.5Q121 89 124 103Q127 117 127 140V440Q127 462 124 476.5Q121 491 111.5 499.5Q102 508 85 511.5Q68 515 40 516V580Z" glyph-name="edotaccent.smcp" horiz-adv-x="712" unicode="&#57926;" /><glyph d="M259 800 343 592H258L57 800ZM297 487Q251 487 227.5 450.5Q204 414 198 358H385Q384 416 363 451.5Q342 487 297 487ZM317 556Q374 556 417.5 539Q461 522 490 492Q519 462 534 422Q549 382 549 336V300H196Q196 218 240.5 170.5Q285 123 366 123Q413 123 447 142Q481 161 507 193L548 171Q537 137 517.5 104.5Q498 72 467.5 46.5Q437 21 395.5 5.5Q354 -10 300 -10Q241 -10 191.5 8Q142 26 106 60Q70 94 50 143Q30 192 30 255Q30 323 52.5 378.5Q75 434 114 473.5Q153 513 205.5 534.5Q258 556 317 556Z" glyph-name="egrave" horiz-adv-x="579" unicode="&#232;" /><glyph d="M328 830 412 622H327L126 830ZM633 580 637 391H563Q554 418 545.5 440Q537 462 525 477.5Q513 493 495 502Q477 511 449 511H315V325H386Q415 325 426 344Q437 363 444 401H507V183H444Q437 221 426 240.5Q415 260 386 260H315V125Q315 92 333.5 80.5Q352 69 394 69H445Q472 69 490.5 75Q509 81 525 96Q541 111 557 136.5Q573 162 595 201H672L638 0H40V64Q68 65 85 68.5Q102 72 111.5 80.5Q121 89 124 103Q127 117 127 140V440Q127 462 124 476.5Q121 491 111.5 499.5Q102 508 85 511.5Q68 515 40 516V580Z" glyph-name="egrave.smcp" horiz-adv-x="712" unicode="&#57918;" /><glyph d="M411 473Q437 494 454.5 528.5Q472 563 472 601Q472 655 441 685.5Q410 716 350 716Q294 716 264.5 688.5Q235 661 235 619Q235 580 257 555Q279 530 323 511ZM256 332Q228 309 215 273Q202 237 202 203Q202 134 244.5 99Q287 64 353 64Q415 64 450 90.5Q485 117 485 167Q485 208 459 233.5Q433 259 377 282ZM614 609Q614 576 602 549.5Q590 523 569.5 503.5Q549 484 521 470.5Q493 457 462 450L478 444Q563 412 605 360Q647 308 647 228Q647 173 626 129Q605 85 566.5 54Q528 23 473.5 6.5Q419 -10 352 -10Q283 -10 228 3Q173 16 134 41Q95 66 74 102Q53 138 53 184Q53 220 65 248Q77 276 98.5 297Q120 318 149 332.5Q178 347 213 355L207 358Q149 387 115 435.5Q81 484 81 557Q81 611 100 654Q119 697 154 727.5Q189 758 238.5 774Q288 790 350 790Q473 790 543.5 742Q614 694 614 609Z" glyph-name="eight" horiz-adv-x="700" unicode="8" /><glyph d="M398 473Q424 494 441.5 528.5Q459 563 459 601Q459 655 428 685.5Q397 716 337 716Q281 716 251.5 688.5Q222 661 222 619Q222 580 244 555Q266 530 310 511ZM243 332Q215 309 202 273Q189 237 189 203Q189 134 231.5 99Q274 64 340 64Q402 64 437 90.5Q472 117 472 167Q472 208 446 233.5Q420 259 364 282ZM601 609Q601 576 589 549.5Q577 523 556.5 503.5Q536 484 508 470.5Q480 457 449 450L465 444Q550 412 592 360Q634 308 634 228Q634 173 613 129Q592 85 553.5 54Q515 23 460.5 6.5Q406 -10 339 -10Q270 -10 215 3Q160 16 121 41Q82 66 61 102Q40 138 40 184Q40 220 52 248Q64 276 85.5 297Q107 318 136 332.5Q165 347 200 355L194 358Q136 387 102 435.5Q68 484 68 557Q68 611 87 654Q106 697 141 727.5Q176 758 225.5 774Q275 790 337 790Q460 790 530.5 742Q601 694 601 609Z" glyph-name="eight.LP" horiz-adv-x="674" unicode="&#58685;" /><glyph d="M411 473Q437 494 454.5 528.5Q472 563 472 601Q472 655 441 685.5Q410 716 350 716Q294 716 264.5 688.5Q235 661 235 619Q235 580 257 555Q279 530 323 511ZM256 332Q228 309 215 273Q202 237 202 203Q202 134 244.5 99Q287 64 353 64Q415 64 450 90.5Q485 117 485 167Q485 208 459 233.5Q433 259 377 282ZM614 609Q614 576 602 549.5Q590 523 569.5 503.5Q549 484 521 470.5Q493 457 462 450L478 444Q563 412 605 360Q647 308 647 228Q647 173 626 129Q605 85 566.5 54Q528 23 473.5 6.5Q419 -10 352 -10Q283 -10 228 3Q173 16 134 41Q95 66 74 102Q53 138 53 184Q53 220 65 248Q77 276 98.5 297Q120 318 149 332.5Q178 347 213 355L207 358Q149 387 115 435.5Q81 484 81 557Q81 611 100 654Q119 697 154 727.5Q189 758 238.5 774Q288 790 350 790Q473 790 543.5 742Q614 694 614 609Z" glyph-name="eight.LT" horiz-adv-x="700" unicode="&#58696;" /><glyph d="M220 627Q220 588 240.5 564Q261 540 301 517L381 470Q408 498 422.5 536Q437 574 437 612Q437 661 408 694Q379 727 323 727Q273 727 246.5 699Q220 671 220 627ZM260 341Q231 314 210.5 275.5Q190 237 190 185Q190 126 227.5 89.5Q265 53 324 53Q385 53 417.5 85.5Q450 118 450 165Q450 205 428.5 231Q407 257 368 280ZM577 604Q577 573 563.5 547Q550 521 529 500Q508 479 482 464Q456 449 431 441L465 422Q493 406 519 386Q545 366 565 340.5Q585 315 597 283.5Q609 252 609 213Q609 160 587 118.5Q565 77 526.5 48.5Q488 20 436 5Q384 -10 324 -10Q259 -10 206.5 3.5Q154 17 117 42.5Q80 68 60 105Q40 142 40 188Q40 221 53.5 248.5Q67 276 90 298.5Q113 321 144.5 338.5Q176 356 212 369L189 383Q165 397 143.5 416Q122 435 105.5 459.5Q89 484 79.5 514Q70 544 70 580Q70 629 88.5 668Q107 707 140 734Q173 761 218.5 775.5Q264 790 319 790Q379 790 427 776.5Q475 763 508.5 739Q542 715 559.5 680.5Q577 646 577 604Z" glyph-name="eight.OP" horiz-adv-x="649" unicode="&#58707;" /><glyph d="M246 627Q246 588 266.5 564Q287 540 327 517L407 470Q434 498 448.5 536Q463 574 463 612Q463 661 434 694Q405 727 349 727Q299 727 272.5 699Q246 671 246 627ZM286 341Q257 314 236.5 275.5Q216 237 216 185Q216 126 253.5 89.5Q291 53 350 53Q411 53 443.5 85.5Q476 118 476 165Q476 205 454.5 231Q433 257 394 280ZM603 604Q603 573 589.5 547Q576 521 555 500Q534 479 508 464Q482 449 457 441L491 422Q519 406 545 386Q571 366 591 340.5Q611 315 623 283.5Q635 252 635 213Q635 160 613 118.5Q591 77 552.5 48.5Q514 20 462 5Q410 -10 350 -10Q285 -10 232.5 3.5Q180 17 143 42.5Q106 68 86 105Q66 142 66 188Q66 221 79.5 248.5Q93 276 116 298.5Q139 321 170.5 338.5Q202 356 238 369L215 383Q191 397 169.5 416Q148 435 131.5 459.5Q115 484 105.5 514Q96 544 96 580Q96 629 114.5 668Q133 707 166 734Q199 761 244.5 775.5Q290 790 345 790Q405 790 453 776.5Q501 763 534.5 739Q568 715 585.5 680.5Q603 646 603 604Z" glyph-name="eight.OT" horiz-adv-x="700" unicode="&#58718;" /><glyph d="M279 59Q290 71 299 90Q308 109 308 132Q308 162 290.5 179.5Q273 197 235 197Q202 197 184.5 182Q167 167 167 142Q167 101 218 82ZM163 -43Q155 -54 150.5 -71Q146 -88 146 -108Q146 -150 170.5 -171.5Q195 -193 236 -193Q273 -193 294 -180Q315 -167 315 -141Q315 -119 300.5 -104Q286 -89 246 -74ZM418 140Q418 98 391 75Q364 52 317 44L331 41Q386 24 412.5 -8.5Q439 -41 439 -92Q439 -130 423.5 -158.5Q408 -187 381 -206.5Q354 -226 317 -236Q280 -246 236 -246Q140 -246 85 -216.5Q30 -187 30 -129Q30 -87 59.5 -61.5Q89 -36 134 -28L122 -24Q87 -10 67.5 19.5Q48 49 48 93Q48 132 61.5 161Q75 190 100 210Q125 230 159 240Q193 250 235 250Q320 250 369 221Q418 192 418 140Z" glyph-name="eight.inf" horiz-adv-x="469" unicode="&#58745;" /><glyph d="M716 96Q716 118 724.5 138Q733 158 747.5 172.5Q762 187 781 195.5Q800 204 822 204Q844 204 864 195.5Q884 187 898.5 172.5Q913 158 921.5 138Q930 118 930 96Q930 74 921.5 55Q913 36 898.5 21.5Q884 7 864 -1.5Q844 -10 822 -10Q800 -10 781 -1.5Q762 7 747.5 21.5Q733 36 724.5 55Q716 74 716 96ZM394 96Q394 118 402.5 138Q411 158 425.5 172.5Q440 187 459 195.5Q478 204 500 204Q522 204 542 195.5Q562 187 576.5 172.5Q591 158 599.5 138Q608 118 608 96Q608 74 599.5 55Q591 36 576.5 21.5Q562 7 542 -1.5Q522 -10 500 -10Q478 -10 459 -1.5Q440 7 425.5 21.5Q411 36 402.5 55Q394 74 394 96ZM70 96Q70 118 78.5 138Q87 158 101.5 172.5Q116 187 135 195.5Q154 204 176 204Q198 204 218 195.5Q238 187 252.5 172.5Q267 158 275.5 138Q284 118 284 96Q284 74 275.5 55Q267 36 252.5 21.5Q238 7 218 -1.5Q198 -10 176 -10Q154 -10 135 -1.5Q116 7 101.5 21.5Q87 36 78.5 55Q70 74 70 96Z" glyph-name="ellipsis" horiz-adv-x="1000" unicode="&#8230;" /><glyph d="M146 716H448V626H146ZM297 487Q251 487 227.5 450.5Q204 414 198 358H385Q384 416 363 451.5Q342 487 297 487ZM317 556Q374 556 417.5 539Q461 522 490 492Q519 462 534 422Q549 382 549 336V300H196Q196 218 240.5 170.5Q285 123 366 123Q413 123 447 142Q481 161 507 193L548 171Q537 137 517.5 104.5Q498 72 467.5 46.5Q437 21 395.5 5.5Q354 -10 300 -10Q241 -10 191.5 8Q142 26 106 60Q70 94 50 143Q30 192 30 255Q30 323 52.5 378.5Q75 434 114 473.5Q153 513 205.5 534.5Q258 556 317 556Z" glyph-name="emacron" horiz-adv-x="579" unicode="&#275;" /><glyph d="M215 746H517V656H215ZM633 580 637 391H563Q554 418 545.5 440Q537 462 525 477.5Q513 493 495 502Q477 511 449 511H315V325H386Q415 325 426 344Q437 363 444 401H507V183H444Q437 221 426 240.5Q415 260 386 260H315V125Q315 92 333.5 80.5Q352 69 394 69H445Q472 69 490.5 75Q509 81 525 96Q541 111 557 136.5Q573 162 595 201H672L638 0H40V64Q68 65 85 68.5Q102 72 111.5 80.5Q121 89 124 103Q127 117 127 140V440Q127 462 124 476.5Q121 491 111.5 499.5Q102 508 85 511.5Q68 515 40 516V580Z" glyph-name="emacron.smcp" horiz-adv-x="712" unicode="&#57922;" /><glyph d="M950 277H50V373H950Z" glyph-name="emdash" horiz-adv-x="1000" unicode="&#8212;" /><glyph d="M950 337H50V433H950Z" glyph-name="emdash.cap" horiz-adv-x="1000" unicode="&#58502;" /><glyph d="M950 247H50V343H950Z" glyph-name="emdash.smcp" horiz-adv-x="1000" unicode="&#60324;" /><glyph glyph-name="emspace" horiz-adv-x="1000" unicode="&#8195;" /><glyph d="M50 277V373H450V277Z" glyph-name="endash" horiz-adv-x="500" unicode="&#8211;" /><glyph d="M50 337V433H450V337Z" glyph-name="endash.cap" horiz-adv-x="500" unicode="&#58500;" /><glyph d="M50 247V343H450V247Z" glyph-name="endash.smcp" horiz-adv-x="500" unicode="&#60323;" /><glyph d="M464 370Q464 407 449 424Q434 441 396 441Q365 441 335.5 432.5Q306 424 284 413V118Q284 101 287.5 90.5Q291 80 298.5 74.5Q306 69 318.5 66Q331 63 348 61V0H40V61Q57 63 69.5 66Q82 69 89.5 74.5Q97 80 100.5 90.5Q104 101 104 118V418L45 472V506L250 560H289L284 458Q300 476 321 493.5Q342 511 366.5 525Q391 539 419 547.5Q447 556 479 556Q554 556 599 516.5Q644 477 644 392V-48Q644 -145 588 -197.5Q532 -250 411 -250Q362 -250 326.5 -241Q291 -232 267.5 -216Q244 -200 233 -180Q222 -160 222 -137Q222 -105 237 -86.5Q252 -68 275 -60H363V-101Q363 -118 365.5 -134.5Q368 -151 374 -164Q380 -177 390.5 -185Q401 -193 417 -193Q446 -193 455 -159Q464 -125 464 -66Z" glyph-name="eng" horiz-adv-x="683" unicode="&#331;" /><glyph d="M217 369V140Q217 117 220 103Q223 89 232.5 80.5Q242 72 259 68.5Q276 65 304 64V0H40V64Q68 65 85 68.5Q102 72 111.5 80.5Q121 89 124 103Q127 117 127 140V460Q107 485 89.5 500.5Q72 516 40 516V580H263L567 273V440Q567 462 564 476.5Q561 491 551.5 499.5Q542 508 525 511.5Q508 515 480 516V580H744V516Q716 515 699 511.5Q682 508 672.5 499.5Q663 491 660 476.5Q657 462 657 440V-46Q657 -140 606.5 -195Q556 -250 461 -250Q369 -250 320 -219.5Q271 -189 271 -126Q271 -97 285 -76Q299 -55 318 -42H411V-83Q411 -130 424 -159.5Q437 -189 478 -189Q520 -189 543.5 -159Q567 -129 567 -62V22Z" glyph-name="eng.smcp" horiz-adv-x="774" unicode="&#58155;" /><glyph glyph-name="enspace" horiz-adv-x="500" unicode="&#8194;" /><glyph d="M297 487Q251 487 227.5 450.5Q204 414 198 358H385Q384 416 363 451.5Q342 487 297 487ZM447 29Q418 7 399.5 -10Q381 -27 370 -42.5Q359 -58 354.5 -74.5Q350 -91 350 -112Q350 -139 364.5 -158.5Q379 -178 408 -178Q429 -178 443.5 -171Q458 -164 475 -153L487 -196Q468 -218 433.5 -234.5Q399 -251 360 -251Q303 -251 268.5 -222.5Q234 -194 234 -139Q234 -103 251.5 -70Q269 -37 309 -11H300Q241 -11 191.5 7Q142 25 106 59.5Q70 94 50 143Q30 192 30 255Q30 323 52.5 378.5Q75 434 114 473.5Q153 513 205.5 534.5Q258 556 317 556Q374 556 417.5 539Q461 522 490 492Q519 462 534 422Q549 382 549 336V300H196Q196 218 240.5 170.5Q285 123 366 123Q414 123 449 142Q484 161 510 193L552 171Q538 130 513 95Q488 60 447 29Z" glyph-name="eogonek" horiz-adv-x="579" unicode="&#281;" /><glyph d="M40 0V64Q68 65 85 68.5Q102 72 111.5 80.5Q121 89 124 103Q127 117 127 140V440Q127 462 124 476.5Q121 491 111.5 499.5Q102 508 85 511.5Q68 515 40 516V580H633L637 391H563Q554 418 545.5 440Q537 462 525 477.5Q513 493 495 502Q477 511 449 511H315V325H386Q415 325 426 344Q437 363 444 401H507V183H444Q437 221 426 240.5Q415 260 386 260H315V125Q315 92 333.5 80.5Q352 69 394 69H445Q472 69 490.5 75Q509 81 525 96Q541 111 557 136.5Q573 162 595 201H672L638 0Q605 -14 584 -29.5Q563 -45 550 -60.5Q537 -76 532 -91Q527 -106 527 -119Q527 -146 540 -161.5Q553 -177 582 -177Q603 -177 617.5 -170Q632 -163 649 -152L661 -195Q642 -217 607.5 -233.5Q573 -250 534 -250Q477 -250 442.5 -222Q408 -194 408 -143Q408 -99 441 -60.5Q474 -22 527 0Z" glyph-name="eogonek.smcp" horiz-adv-x="712" unicode="&#57929;" /><glyph d="M80 158V252H620V158ZM80 348V442H620V348Z" glyph-name="equal" horiz-adv-x="700" unicode="=" /><glyph d="M80 248V342H620V248ZM80 438V532H620V438Z" glyph-name="equal.cap" horiz-adv-x="700" unicode="&#58773;" /><glyph d="M50 10V78H388V10ZM50 -108V-39H388V-108Z" glyph-name="equal.inf" horiz-adv-x="438" unicode="&#58749;" /><glyph d="M80 343V436H620V343ZM80 567V660H620V567ZM80 120V213H620V120Z" glyph-name="equivalence" horiz-adv-x="700" unicode="&#8801;" /><glyph d="M80 437V530H620V437ZM80 661V754H620V661ZM80 214V307H620V214Z" glyph-name="equivalence.cap" horiz-adv-x="700" unicode="&#62000;" /><glyph d="M398 711Q330 711 284 688.5Q238 666 209.5 627.5Q181 589 168 537Q155 485 152 426H643Q640 485 627 537Q614 589 585.5 627.5Q557 666 511.5 688.5Q466 711 398 711ZM152 349Q155 290 168 238.5Q181 187 209.5 148.5Q238 110 284 87.5Q330 65 398 65Q521 65 591.5 113.5Q662 162 681 263H773Q762 191 731 139.5Q700 88 651.5 54Q603 20 539 4Q475 -12 398 -12Q312 -12 240 16Q168 44 116.5 96.5Q65 149 36.5 222.5Q8 296 8 388Q8 479 36.5 553Q65 627 116.5 679Q168 731 240 759Q312 787 398 787Q484 787 556 759Q628 731 679.5 679Q731 627 759.5 553Q788 479 788 388V349Z" glyph-name="estimated" horiz-adv-x="795" unicode="&#8494;" /><glyph d="M223 302Q223 188 250.5 124Q278 60 337 60Q363 60 380.5 73.5Q398 87 408 111Q418 135 422 169Q426 203 426 244Q426 358 398.5 422Q371 486 312 486Q286 486 268.5 472.5Q251 459 241 435Q231 411 227 377Q223 343 223 302ZM161 638 281 688Q249 715 216 735.5Q183 756 155 767V782L262 810Q338 782 401 738L509 783L533 736L447 700Q522 632 567.5 537.5Q613 443 613 326Q613 243 591 180Q569 117 529.5 75Q490 33 435 11.5Q380 -10 314 -10Q249 -10 196.5 11Q144 32 107 68.5Q70 105 50 155Q30 205 30 263Q30 330 52.5 384.5Q75 439 115 477Q155 515 208.5 535.5Q262 556 324 556Q344 556 365 552Q386 548 404 539Q392 566 371 594Q350 622 324 648L185 590Z" glyph-name="eth" horiz-adv-x="643" unicode="&#240;" /><glyph d="M315 511V327H442V263H315V127Q315 91 333.5 80Q352 69 395 69H408Q476 69 518 119Q560 169 560 276Q560 388 514.5 449.5Q469 511 372 511ZM40 327H127V440Q127 462 124 476.5Q121 491 111.5 499.5Q102 508 85 511.5Q68 515 40 516V580H422Q501 580 563.5 561Q626 542 669.5 506Q713 470 735.5 418Q758 366 758 301Q758 225 731.5 168.5Q705 112 660 74.5Q615 37 556 18.5Q497 0 431 0H40V64Q68 65 85 68.5Q102 72 111.5 80.5Q121 89 124 103Q127 117 127 140V263H40Z" glyph-name="eth.smcp" horiz-adv-x="796" unicode="&#58156;" /><glyph d="M285 734 262 576Q256 532 249 485.5Q242 439 236.5 395.5Q231 352 227 315.5Q223 279 222 255H132Q131 279 127 315.5Q123 352 117.5 395.5Q112 439 105 485.5Q98 532 92 576L69 734V780H285ZM70 96Q70 118 78.5 138Q87 158 101.5 172.5Q116 187 135 195.5Q154 204 176 204Q198 204 218 195.5Q238 187 252.5 172.5Q267 158 275.5 138Q284 118 284 96Q284 74 275.5 55Q267 36 252.5 21.5Q238 7 218 -1.5Q198 -10 176 -10Q154 -10 135 -1.5Q116 7 101.5 21.5Q87 36 78.5 55Q70 74 70 96Z" glyph-name="exclam" horiz-adv-x="354" unicode="!" /><glyph d="M76 87Q76 129 105 157.5Q134 186 176 186Q197 186 216 178.5Q235 171 248.5 157.5Q262 144 270 126Q278 108 278 87Q278 67 270 49.5Q262 32 248.5 18.5Q235 5 216 -2.5Q197 -10 176 -10Q155 -10 137 -2.5Q119 5 105.5 18.5Q92 32 84 49.5Q76 67 76 87ZM285 524 266 458Q259 430 252 397.5Q245 365 239.5 333.5Q234 302 229.5 273.5Q225 245 222 225H132Q129 245 124.5 273.5Q120 302 114.5 333.5Q109 365 102 397.5Q95 430 88 458L69 524V580H285Z" glyph-name="exclam.smcp" horiz-adv-x="366" unicode="&#58434;" /><glyph d="M285 -234H69V-188L92 -30Q98 13 105 60Q112 107 117.5 150.5Q123 194 127 230.5Q131 267 132 291H222Q223 267 227 230.5Q231 194 236.5 150.5Q242 107 249 60Q256 13 262 -30L285 -188ZM70 450Q70 472 78.5 491Q87 510 101.5 524.5Q116 539 135 547.5Q154 556 176 556Q198 556 218 547.5Q238 539 252.5 524.5Q267 510 275.5 491Q284 472 284 450Q284 427 275.5 407.5Q267 388 252.5 373.5Q238 359 218 350.5Q198 342 176 342Q154 342 135 350.5Q116 359 101.5 373.5Q87 388 78.5 407.5Q70 427 70 450Z" glyph-name="exclamdown" horiz-adv-x="354" unicode="&#161;" /><glyph d="M285 0H69V46L92 204Q98 247 105 294Q112 341 117.5 384.5Q123 428 127 464.5Q131 501 132 525H222Q223 501 227 464.5Q231 428 236.5 384.5Q242 341 249 294Q256 247 262 204L285 46ZM70 684Q70 706 78.5 725Q87 744 101.5 758.5Q116 773 135 781.5Q154 790 176 790Q198 790 218 781.5Q238 773 252.5 758.5Q267 744 275.5 725Q284 706 284 684Q284 661 275.5 641.5Q267 622 252.5 607.5Q238 593 218 584.5Q198 576 176 576Q154 576 135 584.5Q116 593 101.5 607.5Q87 622 78.5 641.5Q70 661 70 684Z" glyph-name="exclamdown.cap" horiz-adv-x="354" unicode="&#58433;" /><glyph d="M76 493Q76 513 84 530.5Q92 548 105.5 561.5Q119 575 137 582.5Q155 590 176 590Q197 590 216 582.5Q235 575 248.5 561.5Q262 548 270 530.5Q278 513 278 493Q278 472 270 454Q262 436 248.5 422.5Q235 409 216 401.5Q197 394 176 394Q134 394 105 422.5Q76 451 76 493ZM285 0H69V56L88 122Q95 150 102 182.5Q109 215 114.5 246.5Q120 278 124.5 306.5Q129 335 132 355H222Q225 335 229.5 306.5Q234 278 239.5 246.5Q245 215 252 182.5Q259 150 266 122L285 56Z" glyph-name="exclamdown.smcp" horiz-adv-x="366" unicode="&#58435;" /><glyph d="M289 118Q289 101 293.5 91Q298 81 308 75.5Q318 70 334 67Q350 64 373 61V0H45V61Q62 63 74.5 66Q87 69 94.5 74.5Q102 80 105.5 90.5Q109 101 109 118V475H32V526L109 565V573Q109 629 128 673Q147 717 182.5 747.5Q218 778 267 794Q316 810 376 810Q463 810 501.5 780.5Q540 751 540 705Q540 682 531.5 662Q523 642 502 630H386V686Q386 717 377 732.5Q368 748 344 748Q309 748 299 720Q289 692 289 635V546H408V475H289Z" glyph-name="f" horiz-adv-x="430" unicode="f" /><glyph d="M315 140Q315 117 320 102.5Q325 88 337.5 79.5Q350 71 373 67.5Q396 64 432 64V0H40V64Q68 65 85 68.5Q102 72 111.5 80.5Q121 89 124 103Q127 117 127 140V440Q127 462 124 476.5Q121 491 111.5 499.5Q102 508 85 511.5Q68 515 40 516V580H633L637 391H563Q554 418 545.5 440Q537 462 525 477.5Q513 493 495 502Q477 511 449 511H315V319H386Q415 319 426 338Q437 357 444 395H507V177H444Q437 215 426 234.5Q415 254 386 254H315Z" glyph-name="f.smcp" horiz-adv-x="667" unicode="&#57862;" /><glyph d="M215 440Q215 415 227.5 409.5Q240 404 270 401V352H29V401Q41 402 49 404Q57 406 61.5 410Q66 414 68 421Q70 428 70 441V684H15V722L70 750V755Q70 834 124 876.5Q178 919 266 919Q332 919 360 897Q388 875 388 841Q388 824 382 809.5Q376 795 358 785H267V830Q267 850 263 862Q259 874 243 874Q223 874 219 855.5Q215 837 215 802V738H295V684H215Z" glyph-name="f.superior" horiz-adv-x="307" unicode="&#58214;" /><glyph d="M745 60Q806 60 839 111.5Q872 163 872 247Q872 339 836.5 389Q801 439 741 439Q716 439 696.5 433.5Q677 428 658 413V163Q658 60 745 60ZM478 683Q457 713 429.5 728Q402 743 374 743Q332 743 310.5 717.5Q289 692 289 635V546H408V475H289V118Q289 101 292.5 90.5Q296 80 303.5 74.5Q311 69 323.5 66Q336 63 353 61V0H45V61Q62 63 74.5 66Q87 69 94.5 74.5Q102 80 105.5 90.5Q109 101 109 118V475H32V526L109 565V573Q109 629 127.5 673Q146 717 180 747.5Q214 778 261.5 794Q309 810 366 810Q458 810 515 773L624 810H663L658 723V459Q684 502 727 529Q770 556 830 556Q884 556 926.5 538Q969 520 998.5 486.5Q1028 453 1043.5 405.5Q1059 358 1059 298Q1059 225 1035 168Q1011 111 968.5 71.5Q926 32 868.5 11Q811 -10 745 -10Q657 -10 593.5 6.5Q530 23 478 58Z" glyph-name="f_b" horiz-adv-x="1089" unicode="&#58241;" /><glyph d="M478 573Q478 602 482 625H386V676Q386 711 375 724.5Q364 738 340 738Q308 738 298.5 710Q289 682 289 625V546H478ZM1114 60Q1175 60 1208 111.5Q1241 163 1241 247Q1241 339 1205.5 389Q1170 439 1110 439Q1085 439 1065.5 433.5Q1046 428 1027 413V163Q1027 60 1114 60ZM355 800Q422 800 466 777Q510 754 521 717Q554 762 609 786Q664 810 735 810Q827 810 884 773L993 810H1032L1027 723V459Q1053 502 1096 529Q1139 556 1199 556Q1253 556 1295.5 538Q1338 520 1367.5 486.5Q1397 453 1412.5 405.5Q1428 358 1428 298Q1428 225 1404 168Q1380 111 1337.5 71.5Q1295 32 1237.5 11Q1180 -10 1114 -10Q1026 -10 962.5 6.5Q899 23 847 58V683Q826 713 798.5 728Q771 743 743 743Q701 743 679.5 717.5Q658 692 658 635V546H777V475H658V118Q658 101 661.5 90.5Q665 80 672.5 74.5Q680 69 692.5 66Q705 63 722 61V0H414V61Q431 63 443.5 66Q456 69 463.5 74.5Q471 80 474.5 90.5Q478 101 478 118V475H289V118Q289 101 292.5 90.5Q296 80 303.5 74.5Q311 69 323.5 66Q336 63 353 61V0H45V61Q62 63 74.5 66Q87 69 94.5 74.5Q102 80 105.5 90.5Q109 101 109 118V475H32V526L109 565V569Q109 687 168.5 743.5Q228 800 355 800Z" glyph-name="f_f_b" horiz-adv-x="1458" unicode="&#58242;" /><glyph d="M478 573Q478 602 482 625H386V676Q386 711 375 724.5Q364 738 340 738Q308 738 298.5 710Q289 682 289 625V546H478ZM847 683Q826 713 798.5 728Q771 743 743 743Q701 743 679.5 717.5Q658 692 658 635V546H777V475H658V118Q658 101 661.5 90.5Q665 80 672.5 74.5Q680 69 692.5 66Q705 63 722 61V0H414V61Q431 63 443.5 66Q456 69 463.5 74.5Q471 80 474.5 90.5Q478 101 478 118V475H289V118Q289 101 292.5 90.5Q296 80 303.5 74.5Q311 69 323.5 66Q336 63 353 61V0H45V61Q62 63 74.5 66Q87 69 94.5 74.5Q102 80 105.5 90.5Q109 101 109 118V475H32V526L109 565V569Q109 687 168.5 743.5Q228 800 355 800Q422 800 466 777Q510 754 521 717Q554 762 609 786Q664 810 735 810Q827 810 884 773L993 810H1032L1027 723V458Q1043 476 1064 493.5Q1085 511 1109.5 525Q1134 539 1162 547.5Q1190 556 1222 556Q1297 556 1342 516.5Q1387 477 1387 392V118Q1387 101 1390.5 90.5Q1394 80 1401.5 74.5Q1409 69 1421.5 66Q1434 63 1451 61V0H1143V61Q1160 63 1172.5 66Q1185 69 1192.5 74.5Q1200 80 1203.5 90.5Q1207 101 1207 118V370Q1207 407 1192 424Q1177 441 1139 441Q1108 441 1078.5 432.5Q1049 424 1027 413V118Q1027 101 1030.5 90.5Q1034 80 1041.5 74.5Q1049 69 1061.5 66Q1074 63 1091 61V0H783V61Q800 63 812.5 66Q825 69 832.5 74.5Q840 80 843.5 90.5Q847 101 847 118Z" glyph-name="f_f_h" horiz-adv-x="1476" unicode="&#58243;" /><glyph d="M478 573Q478 587 479 599.5Q480 612 483 625H386V676Q386 711 375 724.5Q364 738 340 738Q308 738 298.5 710Q289 682 289 625V546H478ZM765 -207 808 -136Q833 -95 840 -50.5Q847 -6 847 53V475H658V118Q658 101 661.5 90.5Q665 80 672.5 74.5Q680 69 692.5 66Q705 63 722 61V0H414V61Q431 63 443.5 66Q456 69 463.5 74.5Q471 80 474.5 90.5Q478 101 478 118V475H289V118Q289 101 292.5 90.5Q296 80 303.5 74.5Q311 69 323.5 66Q336 63 353 61V0H45V61Q62 63 74.5 66Q87 69 94.5 74.5Q102 80 105.5 90.5Q109 101 109 118V475H32V526L109 565V569Q109 687 168.5 743.5Q228 800 355 800Q424 800 469 775.5Q514 751 522 712Q559 760 622.5 785Q686 810 772 810Q882 810 930 779Q978 748 978 695Q978 672 968.5 652Q959 632 934 620H804V667Q804 705 790.5 726.5Q777 748 742 748Q696 748 677 708Q658 668 658 589V546H1032L1027 448V91Q1027 50 1022.5 19Q1018 -12 1009 -36Q1000 -60 987.5 -79Q975 -98 960 -116Q924 -158 885 -189.5Q846 -221 805 -243Z" glyph-name="f_f_j" horiz-adv-x="1095" unicode="&#57898;" /><glyph d="M478 573Q478 602 482 625H386V676Q386 711 375 724.5Q364 738 340 738Q308 738 298.5 710Q289 682 289 625V546H478ZM1185 410Q1202 423 1208 432.5Q1214 442 1214 450Q1214 468 1201.5 474Q1189 480 1149 485V546H1420V485Q1389 476 1368.5 464Q1348 452 1320 432L1204 347L1449 50V0H1257L1031 295ZM847 683Q826 713 798.5 728Q771 743 743 743Q701 743 679.5 717.5Q658 692 658 635V546H777V475H658V118Q658 101 661.5 90.5Q665 80 672.5 74.5Q680 69 692.5 66Q705 63 722 61V0H414V61Q431 63 443.5 66Q456 69 463.5 74.5Q471 80 474.5 90.5Q478 101 478 118V475H289V118Q289 101 292.5 90.5Q296 80 303.5 74.5Q311 69 323.5 66Q336 63 353 61V0H45V61Q62 63 74.5 66Q87 69 94.5 74.5Q102 80 105.5 90.5Q109 101 109 118V475H32V526L109 565V569Q109 687 168.5 743.5Q228 800 355 800Q422 800 466 777Q510 754 521 717Q554 762 609 786Q664 810 735 810Q827 810 884 773L993 810H1032L1027 723V118Q1027 101 1030.5 90.5Q1034 80 1041.5 74.5Q1049 69 1061.5 66Q1074 63 1091 61V0H783V61Q800 63 812.5 66Q825 69 832.5 74.5Q840 80 843.5 90.5Q847 101 847 118Z" glyph-name="f_f_k" horiz-adv-x="1459" unicode="&#58245;" /><glyph d="M478 683Q457 713 429.5 728Q402 743 374 743Q332 743 310.5 717.5Q289 692 289 635V546H408V475H289V118Q289 101 292.5 90.5Q296 80 303.5 74.5Q311 69 323.5 66Q336 63 353 61V0H45V61Q62 63 74.5 66Q87 69 94.5 74.5Q102 80 105.5 90.5Q109 101 109 118V475H32V526L109 565V573Q109 629 127.5 673Q146 717 180 747.5Q214 778 261.5 794Q309 810 366 810Q458 810 515 773L624 810H663L658 723V458Q674 476 695 493.5Q716 511 740.5 525Q765 539 793 547.5Q821 556 853 556Q928 556 973 516.5Q1018 477 1018 392V118Q1018 101 1021.5 90.5Q1025 80 1032.5 74.5Q1040 69 1052.5 66Q1065 63 1082 61V0H774V61Q791 63 803.5 66Q816 69 823.5 74.5Q831 80 834.5 90.5Q838 101 838 118V370Q838 407 823 424Q808 441 770 441Q739 441 709.5 432.5Q680 424 658 413V118Q658 101 661.5 90.5Q665 80 672.5 74.5Q680 69 692.5 66Q705 63 722 61V0H414V61Q431 63 443.5 66Q456 69 463.5 74.5Q471 80 474.5 90.5Q478 101 478 118Z" glyph-name="f_h" horiz-adv-x="1107" unicode="&#58246;" /><glyph d="M658 448V91Q658 50 653.5 19Q649 -12 640 -36Q631 -60 618.5 -79Q606 -98 591 -116Q555 -158 516 -189.5Q477 -221 436 -243L396 -207L439 -136Q464 -95 471 -50.5Q478 -6 478 53V475H289V118Q289 101 292.5 90.5Q296 80 303.5 74.5Q311 69 323.5 66Q336 63 353 61V0H45V61Q62 63 74.5 66Q87 69 94.5 74.5Q102 80 105.5 90.5Q109 101 109 118V475H32V526L109 565V573Q109 629 129.5 673Q150 717 188.5 747.5Q227 778 281 794Q335 810 403 810Q513 810 561 779Q609 748 609 695Q609 672 599.5 652Q590 632 565 620H435V667Q435 705 421.5 726.5Q408 748 373 748Q327 748 308 708Q289 668 289 589V546H663Z" glyph-name="f_j" horiz-adv-x="726" unicode="&#58247;" /><glyph d="M478 683Q457 713 429.5 728Q402 743 374 743Q332 743 310.5 717.5Q289 692 289 635V546H408V475H289V118Q289 101 292.5 90.5Q296 80 303.5 74.5Q311 69 323.5 66Q336 63 353 61V0H45V61Q62 63 74.5 66Q87 69 94.5 74.5Q102 80 105.5 90.5Q109 101 109 118V475H32V526L109 565V573Q109 629 127.5 673Q146 717 180 747.5Q214 778 261.5 794Q309 810 366 810Q458 810 515 773L624 810H663L658 723V118Q658 101 661.5 90.5Q665 80 672.5 74.5Q680 69 692.5 66Q705 63 722 61V0H414V61Q431 63 443.5 66Q456 69 463.5 74.5Q471 80 474.5 90.5Q478 101 478 118ZM816 410Q833 423 839 432.5Q845 442 845 450Q845 468 832.5 474Q820 480 780 485V546H1051V485Q1020 476 999.5 464Q979 452 951 432L835 347L1080 50V0H888L662 295Z" glyph-name="f_k" horiz-adv-x="1090" unicode="&#58248;" /><glyph d="M478 573Q478 602 482 625H386V676Q386 711 375 724.5Q364 738 340 738Q308 738 298.5 710Q289 682 289 625V546H478ZM289 118Q289 101 292.5 90.5Q296 80 303.5 74.5Q311 69 323.5 66Q336 63 353 61V0H45V61Q62 63 74.5 66Q87 69 94.5 74.5Q102 80 105.5 90.5Q109 101 109 118V475H32V526L109 565V569Q109 687 168.5 743.5Q228 800 355 800Q423 800 467 776.5Q511 753 521 715Q556 762 613.5 786Q671 810 745 810Q832 810 870.5 780.5Q909 751 909 705Q909 682 900.5 662Q892 642 871 630H755V686Q755 717 746 732.5Q737 748 713 748Q678 748 668 720Q658 692 658 635V546H777V475H658V118Q658 101 662.5 91Q667 81 677 75.5Q687 70 703 67Q719 64 742 61V0H414V61Q431 63 443.5 66Q456 69 463.5 74.5Q471 80 474.5 90.5Q478 101 478 118V475H289Z" glyph-name="ff" horiz-adv-x="799" unicode="&#64256;" /><glyph d="M478 573Q478 587 479 599.5Q480 612 483 625H386V676Q386 711 375 724.5Q364 738 340 738Q308 738 298.5 710Q289 682 289 625V546H478ZM355 800Q424 800 469 775.5Q514 751 522 712Q559 760 622.5 785Q686 810 772 810Q882 810 930 779Q978 748 978 695Q978 672 968.5 652Q959 632 934 620H804V667Q804 705 790.5 726.5Q777 748 742 748Q696 748 677 708Q658 668 658 589V546H1032L1027 448V118Q1027 101 1030.5 90.5Q1034 80 1041.5 74.5Q1049 69 1061.5 66Q1074 63 1091 61V0H783V61Q800 63 812.5 66Q825 69 832.5 74.5Q840 80 843.5 90.5Q847 101 847 118V475H658V118Q658 101 661.5 90.5Q665 80 672.5 74.5Q680 69 692.5 66Q705 63 722 61V0H414V61Q431 63 443.5 66Q456 69 463.5 74.5Q471 80 474.5 90.5Q478 101 478 118V475H289V118Q289 101 292.5 90.5Q296 80 303.5 74.5Q311 69 323.5 66Q336 63 353 61V0H45V61Q62 63 74.5 66Q87 69 94.5 74.5Q102 80 105.5 90.5Q109 101 109 118V475H32V526L109 565V569Q109 687 168.5 743.5Q228 800 355 800Z" glyph-name="ffi" horiz-adv-x="1121" unicode="&#64259;" /><glyph d="M478 573Q478 602 482 625H386V676Q386 711 375 724.5Q364 738 340 738Q308 738 298.5 710Q289 682 289 625V546H478ZM355 800Q422 800 466 777Q510 754 521 717Q554 762 609 786Q664 810 735 810Q827 810 884 773L993 810H1032L1027 723V118Q1027 101 1030.5 90.5Q1034 80 1041.5 74.5Q1049 69 1061.5 66Q1074 63 1091 61V0H783V61Q800 63 812.5 66Q825 69 832.5 74.5Q840 80 843.5 90.5Q847 101 847 118V683Q826 713 798.5 728Q771 743 743 743Q701 743 679.5 717.5Q658 692 658 635V546H777V475H658V118Q658 101 661.5 90.5Q665 80 672.5 74.5Q680 69 692.5 66Q705 63 722 61V0H414V61Q431 63 443.5 66Q456 69 463.5 74.5Q471 80 474.5 90.5Q478 101 478 118V475H289V118Q289 101 292.5 90.5Q296 80 303.5 74.5Q311 69 323.5 66Q336 63 353 61V0H45V61Q62 63 74.5 66Q87 69 94.5 74.5Q102 80 105.5 90.5Q109 101 109 118V475H32V526L109 565V569Q109 687 168.5 743.5Q228 800 355 800Z" glyph-name="ffl" horiz-adv-x="1121" unicode="&#64260;" /><glyph d="M658 448V118Q658 101 661.5 90.5Q665 80 672.5 74.5Q680 69 692.5 66Q705 63 722 61V0H414V61Q431 63 443.5 66Q456 69 463.5 74.5Q471 80 474.5 90.5Q478 101 478 118V475H289V118Q289 101 292.5 90.5Q296 80 303.5 74.5Q311 69 323.5 66Q336 63 353 61V0H45V61Q62 63 74.5 66Q87 69 94.5 74.5Q102 80 105.5 90.5Q109 101 109 118V475H32V526L109 565V573Q109 629 129.5 673Q150 717 188.5 747.5Q227 778 281 794Q335 810 403 810Q513 810 561 779Q609 748 609 695Q609 672 599.5 652Q590 632 565 620H435V667Q435 705 421.5 726.5Q408 748 373 748Q327 748 308 708Q289 668 289 589V546H663Z" glyph-name="fi" horiz-adv-x="752" unicode="&#64257;" /><glyph d="M650 277H50V373H650Z" glyph-name="figuredash" horiz-adv-x="700" unicode="&#8210;" /><glyph d="M650 337H50V433H650Z" glyph-name="figuredash.cap" horiz-adv-x="700" unicode="&#58503;" /><glyph d="M650 247H50V343H650Z" glyph-name="figuredash.smcp" horiz-adv-x="700" unicode="&#60325;" /><glyph glyph-name="figurespace" horiz-adv-x="700" unicode="&#8199;" /><glyph d="M326 -10Q261 -10 211.5 3Q162 16 128.5 38Q95 60 78 90Q61 120 61 154Q61 183 77 205.5Q93 228 112 237H227V205Q227 58 344 58Q399 58 425.5 90Q452 122 452 171Q452 214 432.5 247.5Q413 281 371.5 304.5Q330 328 265 340.5Q200 353 110 353L181 780H419Q443 780 460 781.5Q477 783 490 788.5Q503 794 513 803.5Q523 813 533 828H583L544 609H217L201 518Q292 518 367.5 501.5Q443 485 497 451.5Q551 418 580.5 365.5Q610 313 610 241Q610 181 588.5 134Q567 87 529.5 55Q492 23 439.5 6.5Q387 -10 326 -10Z" glyph-name="five" horiz-adv-x="700" unicode="5" /><glyph d="M288 -10Q223 -10 173.5 3Q124 16 90.5 38Q57 60 40 90Q23 120 23 154Q23 183 39 205.5Q55 228 74 237H189V205Q189 58 306 58Q361 58 387.5 90Q414 122 414 171Q414 214 394.5 247.5Q375 281 333.5 304.5Q292 328 227 340.5Q162 353 72 353L143 780H381Q405 780 422 781.5Q439 783 452 788.5Q465 794 475 803.5Q485 813 495 828H545L506 609H179L163 518Q254 518 329.5 501.5Q405 485 459 451.5Q513 418 542.5 365.5Q572 313 572 241Q572 181 550.5 134Q529 87 491.5 55Q454 23 401.5 6.5Q349 -10 288 -10Z" glyph-name="five.LP" horiz-adv-x="617" unicode="&#58682;" /><glyph d="M326 -10Q261 -10 211.5 3Q162 16 128.5 38Q95 60 78 90Q61 120 61 154Q61 183 77 205.5Q93 228 112 237H227V205Q227 58 344 58Q399 58 425.5 90Q452 122 452 171Q452 214 432.5 247.5Q413 281 371.5 304.5Q330 328 265 340.5Q200 353 110 353L181 780H419Q443 780 460 781.5Q477 783 490 788.5Q503 794 513 803.5Q523 813 533 828H583L544 609H217L201 518Q292 518 367.5 501.5Q443 485 497 451.5Q551 418 580.5 365.5Q610 313 610 241Q610 181 588.5 134Q567 87 529.5 55Q492 23 439.5 6.5Q387 -10 326 -10Z" glyph-name="five.LT" horiz-adv-x="700" unicode="&#58693;" /><glyph d="M175 -209Q139 -209 108 -202.5Q77 -196 54 -183Q31 -170 18 -150.5Q5 -131 5 -105Q5 -73 25 -51.5Q45 -30 83 -22Q124 -73 160.5 -103.5Q197 -134 247 -134Q301 -134 330.5 -106.5Q360 -79 360 -22Q360 56 285 112Q210 168 58 209L179 580H386Q410 580 427 581Q444 582 457 586.5Q470 591 480 600Q490 609 500 624H550L483 422H190L168 356Q256 333 320 306Q384 279 425.5 244Q467 209 487 164Q507 119 507 61Q507 4 480.5 -45.5Q454 -95 409 -131.5Q364 -168 303.5 -188.5Q243 -209 175 -209Z" glyph-name="five.OP" horiz-adv-x="570" unicode="&#58688;" /></font>
</defs>
</svg>
