<?xml version="1.0" standalone="no"?><!DOCTYPE svg PUBLIC "-//W3C//DTD SVG 1.1//EN" "http://www.w3.org/Graphics/SVG/1.1/DTD/svg11.dtd" ><svg version="1.1" xmlns="http://www.w3.org/2000/svg"><defs><font horiz-adv-x="0" id="font"><font-face ascent="750" bbox="-214 -307 1482 1047" cap-height="780" descent="-250" font-family="Copernicus" font-stretch="normal" font-style="normal" font-weight="775" units-per-em="1000" x-height="534" /><missing-glyph d="M800 115V665L525 390ZM160 665V115L435 390ZM480 435 759 714H201ZM201 66H759L480 345ZM90 780H870V0H90Z" horiz-adv-x="960" /><glyph d="M256 314H473L394 567ZM497 233H214L176 167Q167 150 162 137Q157 124 157 113Q157 93 173.5 85.5Q190 78 232 76L223 0H-35L-26 76Q-3 80 14.5 87Q32 94 44 117L346 678L314 780H549L756 117Q764 94 778 87Q792 80 817 76L808 0H432L441 76Q468 77 484.5 81Q501 85 510 91Q519 97 522 106Q525 115 525 127Q525 138 522.5 149Q520 160 517 169Z" glyph-name="A" horiz-adv-x="842" unicode="A" /><glyph d="M507 689 286 329H546L509 689ZM186 167Q175 151 171 137.5Q167 124 167 113Q167 93 183.5 85.5Q200 78 242 76L233 0H-35L-26 76Q-3 80 13.5 87.5Q30 95 44 117L376 648Q373 676 356 688Q339 700 290 704L299 780H1192L1169 562H1081Q1072 596 1061 621Q1050 646 1034.5 662.5Q1019 679 996 687.5Q973 696 939 696H729L753 444H870Q907 444 927.5 461.5Q948 479 963 529H1045L1014 274H932Q929 324 913.5 342Q898 360 861 360H762L783 159Q787 115 801.5 99.5Q816 84 858 84H866Q895 84 918 92Q941 100 964 118Q987 136 1012 165Q1037 194 1070 236H1165L1102 0H462L471 76Q519 78 543.5 86Q568 94 568 121Q568 127 567 134Q566 141 565 146L555 245H236Z" glyph-name="AE" horiz-adv-x="1204" unicode="&#198;" /><glyph d="M732 1030 478 822H377L508 1030ZM256 314H473L394 567ZM497 233H214L176 167Q167 150 162 137Q157 124 157 113Q157 93 173.5 85.5Q190 78 232 76L223 0H-35L-26 76Q-3 80 14.5 87Q32 94 44 117L346 678L314 780H549L756 117Q764 94 778 87Q792 80 817 76L808 0H432L441 76Q468 77 484.5 81Q501 85 510 91Q519 97 522 106Q525 115 525 127Q525 138 522.5 149Q520 160 517 169Z" glyph-name="Aacute" horiz-adv-x="842" unicode="&#193;" /><glyph d="M442 828Q361 828 323.5 868Q286 908 286 980Q286 1004 289 1030H352Q352 986 377.5 967Q403 948 454 948Q505 948 536.5 966.5Q568 985 582 1030H645Q633 935 586 881.5Q539 828 442 828ZM256 314H473L394 567ZM497 233H214L176 167Q167 150 162 137Q157 124 157 113Q157 93 173.5 85.5Q190 78 232 76L223 0H-35L-26 76Q-3 80 14.5 87Q32 94 44 117L346 678L314 780H549L756 117Q764 94 778 87Q792 80 817 76L808 0H432L441 76Q468 77 484.5 81Q501 85 510 91Q519 97 522 106Q525 115 525 127Q525 138 522.5 149Q520 160 517 169Z" glyph-name="Abreve" horiz-adv-x="842" unicode="&#258;" /><glyph d="M669 822H568L466 914L329 822H229L415 1030H535ZM256 314H473L394 567ZM497 233H214L176 167Q167 150 162 137Q157 124 157 113Q157 93 173.5 85.5Q190 78 232 76L223 0H-35L-26 76Q-3 80 14.5 87Q32 94 44 117L346 678L314 780H549L756 117Q764 94 778 87Q792 80 817 76L808 0H432L441 76Q468 77 484.5 81Q501 85 510 91Q519 97 522 106Q525 115 525 127Q525 138 522.5 149Q520 160 517 169Z" glyph-name="Acircumflex" horiz-adv-x="842" unicode="&#194;" /><glyph d="M572 828Q528 828 504.5 854.5Q481 881 481 920Q481 965 510.5 997Q540 1029 591 1029Q636 1029 659 1002.5Q682 976 682 937Q682 915 674.5 895Q667 875 653 860Q639 845 618.5 836.5Q598 828 572 828ZM333 828Q288 828 265 854.5Q242 881 242 920Q242 965 271 997Q300 1029 352 1029Q396 1029 419.5 1002.5Q443 976 443 937Q443 915 435.5 895Q428 875 413.5 860Q399 845 378.5 836.5Q358 828 333 828ZM256 314H473L394 567ZM497 233H214L176 167Q167 150 162 137Q157 124 157 113Q157 93 173.5 85.5Q190 78 232 76L223 0H-35L-26 76Q-3 80 14.5 87Q32 94 44 117L346 678L314 780H549L756 117Q764 94 778 87Q792 80 817 76L808 0H432L441 76Q468 77 484.5 81Q501 85 510 91Q519 97 522 106Q525 115 525 127Q525 138 522.5 149Q520 160 517 169Z" glyph-name="Adieresis" horiz-adv-x="842" unicode="&#196;" /><glyph d="M450 1030 512 822H421L219 1030ZM256 314H473L394 567ZM497 233H214L176 167Q167 150 162 137Q157 124 157 113Q157 93 173.5 85.5Q190 78 232 76L223 0H-35L-26 76Q-3 80 14.5 87Q32 94 44 117L346 678L314 780H549L756 117Q764 94 778 87Q792 80 817 76L808 0H432L441 76Q468 77 484.5 81Q501 85 510 91Q519 97 522 106Q525 115 525 127Q525 138 522.5 149Q520 160 517 169Z" glyph-name="Agrave" horiz-adv-x="842" unicode="&#192;" /><glyph d="M311 944H610L597 842H298ZM256 314H473L394 567ZM497 233H214L176 167Q167 150 162 137Q157 124 157 113Q157 93 173.5 85.5Q190 78 232 76L223 0H-35L-26 76Q-3 80 14.5 87Q32 94 44 117L346 678L314 780H549L756 117Q764 94 778 87Q792 80 817 76L808 0H432L441 76Q468 77 484.5 81Q501 85 510 91Q519 97 522 106Q525 115 525 127Q525 138 522.5 149Q520 160 517 169Z" glyph-name="Amacron" horiz-adv-x="842" unicode="&#256;" /><glyph d="M176 167Q167 150 162 137Q157 124 157 113Q157 93 173.5 85.5Q190 78 232 76L223 0H-35L-26 76Q-3 80 14.5 87Q32 94 44 117L346 678L314 780H549L756 117Q764 94 778 87Q792 80 817 76L808 0H432L441 76Q468 77 484.5 81Q501 85 510 91Q519 97 522 106Q525 115 525 127Q525 138 522.5 149Q520 160 517 169L394 567Z" glyph-name="Anocross" horiz-adv-x="842" unicode="&#59185;" /><glyph d="M256 314H473L394 567ZM497 233H214L176 167Q167 150 162 137Q157 124 157 113Q157 93 173.5 85.5Q190 78 232 76L223 0H-35L-26 76Q-3 80 14.5 87Q32 94 44 117L346 678L314 780H549L756 117Q764 94 778 87Q792 80 817 76L808 0Q765 -18 740.5 -37.5Q716 -57 703.5 -74.5Q691 -92 688 -106.5Q685 -121 685 -130Q685 -149 695.5 -157Q706 -165 724 -165Q765 -165 799 -141L807 -189Q779 -213 742 -231.5Q705 -250 657 -250Q601 -250 575.5 -224.5Q550 -199 550 -155Q550 -113 578 -72.5Q606 -32 666 0H432L441 76Q468 77 484.5 81Q501 85 510 91Q519 97 522 106Q525 115 525 127Q525 138 522.5 149Q520 160 517 169Z" glyph-name="Aogonek" horiz-adv-x="842" unicode="&#260;" /><glyph d="M586 936Q586 910 576.5 887Q567 864 550 847.5Q533 831 509.5 821.5Q486 812 458 812Q404 812 372 841.5Q340 871 340 916Q340 942 349.5 965Q359 988 376 1004.5Q393 1021 416.5 1030.5Q440 1040 468 1040Q522 1040 554 1010.5Q586 981 586 936ZM511 931Q511 948 501 960.5Q491 973 468 973Q446 973 430.5 959Q415 945 415 921Q415 904 425 891.5Q435 879 458 879Q480 879 495.5 893Q511 907 511 931ZM256 314H473L394 567ZM497 233H214L176 167Q167 150 162 137Q157 124 157 113Q157 93 173.5 85.5Q190 78 232 76L223 0H-35L-26 76Q-3 80 14.5 87Q32 94 44 117L346 678L314 780H549L756 117Q764 94 778 87Q792 80 817 76L808 0H432L441 76Q468 77 484.5 81Q501 85 510 91Q519 97 522 106Q525 115 525 127Q525 138 522.5 149Q520 160 517 169Z" glyph-name="Aring" horiz-adv-x="842" unicode="&#197;" /><glyph d="M701 1012Q678 962 658 928.5Q638 895 617 875Q596 855 573.5 847Q551 839 525 839Q504 839 484 847.5Q464 856 446 866.5Q428 877 411.5 886Q395 895 381 895Q360 895 343.5 881Q327 867 310 841L250 857Q272 907 292 940.5Q312 974 333 994Q354 1014 376.5 1022Q399 1030 425 1030Q446 1030 466 1021.5Q486 1013 504 1002.5Q522 992 538.5 983.5Q555 975 569 975Q590 975 606.5 988.5Q623 1002 641 1028ZM256 314H473L394 567ZM497 233H214L176 167Q167 150 162 137Q157 124 157 113Q157 93 173.5 85.5Q190 78 232 76L223 0H-35L-26 76Q-3 80 14.5 87Q32 94 44 117L346 678L314 780H549L756 117Q764 94 778 87Q792 80 817 76L808 0H432L441 76Q468 77 484.5 81Q501 85 510 91Q519 97 522 106Q525 115 525 127Q525 138 522.5 149Q520 160 517 169Z" glyph-name="Atilde" horiz-adv-x="842" unicode="&#195;" /><glyph d="M541 780Q593 780 636 770Q679 760 710.5 738.5Q742 717 759.5 684Q777 651 777 606Q777 561 760 525Q743 489 712.5 464Q682 439 640 425Q598 411 548 408Q600 406 643 394.5Q686 383 717.5 361Q749 339 766.5 306Q784 273 784 229Q784 119 698.5 59.5Q613 0 461 0H0L9 76Q37 77 54 80.5Q71 84 81 92.5Q91 101 95 115Q99 129 102 150L158 603Q160 623 161.5 636Q163 649 163 658Q163 683 147.5 692.5Q132 702 85 704L94 780ZM389 696 358 442H408Q487 442 522.5 483.5Q558 525 558 593Q558 650 527 673Q496 696 435 696ZM348 359 324 167Q322 156 321 144.5Q320 133 320 125Q320 98 342.5 88Q365 78 403 78H424Q487 78 522.5 122Q558 166 558 238Q558 268 551.5 290.5Q545 313 529 328.5Q513 344 486.5 351.5Q460 359 421 359Z" glyph-name="B" horiz-adv-x="821" unicode="B" /><glyph d="M433 82Q476 82 509 95Q542 108 569 133Q596 158 618 194.5Q640 231 661 278H771L721 64Q662 30 584.5 10Q507 -10 414 -10Q320 -10 250.5 14.5Q181 39 135 82.5Q89 126 66.5 185Q44 244 44 314Q44 434 81 523.5Q118 613 182 672Q246 731 331.5 760.5Q417 790 514 790Q558 790 599 783.5Q640 777 675.5 765.5Q711 754 739 738Q767 722 784 703L763 521H662Q655 561 645 595Q635 629 617.5 654Q600 679 573.5 693Q547 707 507 707Q444 707 399.5 670Q355 633 327 574.5Q299 516 286 443.5Q273 371 273 300Q273 251 281 211Q289 171 307.5 142.5Q326 114 356.5 98Q387 82 433 82Z" glyph-name="C" horiz-adv-x="814" unicode="C" /><glyph d="M790 1030 536 822H435L566 1030ZM433 82Q476 82 509 95Q542 108 569 133Q596 158 618 194.5Q640 231 661 278H771L721 64Q662 30 584.5 10Q507 -10 414 -10Q320 -10 250.5 14.5Q181 39 135 82.5Q89 126 66.5 185Q44 244 44 314Q44 434 81 523.5Q118 613 182 672Q246 731 331.5 760.5Q417 790 514 790Q558 790 599 783.5Q640 777 675.5 765.5Q711 754 739 738Q767 722 784 703L763 521H662Q655 561 645 595Q635 629 617.5 654Q600 679 573.5 693Q547 707 507 707Q444 707 399.5 670Q355 633 327 574.5Q299 516 286 443.5Q273 371 273 300Q273 251 281 211Q289 171 307.5 142.5Q326 114 356.5 98Q387 82 433 82Z" glyph-name="Cacute" horiz-adv-x="814" unicode="&#262;" /><glyph d="M318 1030H419L524 938L658 1030H758L572 822H452ZM433 82Q476 82 509 95Q542 108 569 133Q596 158 618 194.5Q640 231 661 278H771L721 64Q662 30 584.5 10Q507 -10 414 -10Q320 -10 250.5 14.5Q181 39 135 82.5Q89 126 66.5 185Q44 244 44 314Q44 434 81 523.5Q118 613 182 672Q246 731 331.5 760.5Q417 790 514 790Q558 790 599 783.5Q640 777 675.5 765.5Q711 754 739 738Q767 722 784 703L763 521H662Q655 561 645 595Q635 629 617.5 654Q600 679 573.5 693Q547 707 507 707Q444 707 399.5 670Q355 633 327 574.5Q299 516 286 443.5Q273 371 273 300Q273 251 281 211Q289 171 307.5 142.5Q326 114 356.5 98Q387 82 433 82Z" glyph-name="Ccaron" horiz-adv-x="814" unicode="&#268;" /><glyph d="M433 82Q476 82 509 95Q542 108 569 133Q596 158 618 194.5Q640 231 661 278H771L721 64Q664 31 588.5 11.5Q513 -8 423 -10L403 -46Q464 -54 491 -79Q518 -104 518 -152Q518 -176 508.5 -194.5Q499 -213 482.5 -225.5Q466 -238 443.5 -244Q421 -250 396 -250Q369 -250 344.5 -243Q320 -236 306 -227L317 -181Q332 -189 351 -195.5Q370 -202 389 -202Q403 -202 411 -197.5Q419 -193 419 -182Q419 -163 390.5 -152.5Q362 -142 302 -139L372 -8Q289 -3 227.5 23.5Q166 50 125 92.5Q84 135 64 191.5Q44 248 44 314Q44 434 81 523.5Q118 613 182 672Q246 731 331.5 760.5Q417 790 514 790Q558 790 599 783.5Q640 777 675.5 765.5Q711 754 739 738Q767 722 784 703L763 521H662Q655 561 645 595Q635 629 617.5 654Q600 679 573.5 693Q547 707 507 707Q444 707 399.5 670Q355 633 327 574.5Q299 516 286 443.5Q273 371 273 300Q273 251 281 211Q289 171 307.5 142.5Q326 114 356.5 98Q387 82 433 82Z" glyph-name="Ccedilla" horiz-adv-x="814" unicode="&#199;" /><glyph d="M720 822H619L517 914L380 822H280L466 1030H586ZM433 82Q476 82 509 95Q542 108 569 133Q596 158 618 194.5Q640 231 661 278H771L721 64Q662 30 584.5 10Q507 -10 414 -10Q320 -10 250.5 14.5Q181 39 135 82.5Q89 126 66.5 185Q44 244 44 314Q44 434 81 523.5Q118 613 182 672Q246 731 331.5 760.5Q417 790 514 790Q558 790 599 783.5Q640 777 675.5 765.5Q711 754 739 738Q767 722 784 703L763 521H662Q655 561 645 595Q635 629 617.5 654Q600 679 573.5 693Q547 707 507 707Q444 707 399.5 670Q355 633 327 574.5Q299 516 286 443.5Q273 371 273 300Q273 251 281 211Q289 171 307.5 142.5Q326 114 356.5 98Q387 82 433 82Z" glyph-name="Ccircumflex" horiz-adv-x="814" unicode="&#264;" /><glyph d="M433 82Q476 82 509 95Q542 108 569 133Q596 158 618 194.5Q640 231 661 278H771L721 64Q662 30 584.5 10Q507 -10 414 -10Q320 -10 250.5 14.5Q181 39 135 82.5Q89 126 66.5 185Q44 244 44 314Q44 434 81 523.5Q118 613 182 672Q246 731 331.5 760.5Q417 790 514 790Q558 790 599 783.5Q640 777 675.5 765.5Q711 754 739 738Q767 722 784 703L763 521H662Q655 561 645 595Q635 629 617.5 654Q600 679 573.5 693Q547 707 507 707Q444 707 399.5 670Q355 633 327 574.5Q299 516 286 443.5Q273 371 273 300Q273 251 281 211Q289 171 307.5 142.5Q326 114 356.5 98Q387 82 433 82ZM505 829Q459 829 435 856Q411 883 411 924Q411 971 440.5 1003.5Q470 1036 524 1036Q569 1036 593.5 1009Q618 982 618 941Q618 895 588 862Q558 829 505 829Z" glyph-name="Cdotaccent" horiz-adv-x="814" unicode="&#266;" /><glyph d="M430 84Q486 84 529 112Q572 140 601.5 188Q631 236 646.5 301Q662 366 662 440Q662 567 599 631.5Q536 696 429 696H389L326 184Q324 173 323 160Q322 147 322 140Q322 107 344 95.5Q366 84 404 84ZM0 0 9 76Q37 77 54 80.5Q71 84 81 92.5Q91 101 95 115Q99 129 102 150L158 603Q160 623 161.5 636Q163 649 163 658Q163 683 147.5 692.5Q132 702 85 704L94 780H452Q546 780 626.5 760.5Q707 741 766.5 700Q826 659 860 595Q894 531 894 441Q894 342 863 260.5Q832 179 773 121Q714 63 628.5 31.5Q543 0 433 0Z" glyph-name="D" horiz-adv-x="914" unicode="D" /><glyph d="M430 84Q486 84 529 112Q572 140 601.5 188Q631 236 646.5 301Q662 366 662 440Q662 567 599 631.5Q536 696 429 696H389L326 184Q324 173 323 160Q322 147 322 140Q322 107 344 95.5Q366 84 404 84ZM0 0 9 76Q37 77 54 80.5Q71 84 81 92.5Q91 101 95 115Q99 129 102 150L158 603Q160 623 161.5 636Q163 649 163 658Q163 683 147.5 692.5Q132 702 85 704L94 780H452Q546 780 626.5 760.5Q707 741 766.5 700Q826 659 860 595Q894 531 894 441Q894 342 863 260.5Q832 179 773 121Q714 63 628.5 31.5Q543 0 433 0ZM294 1030H395L500 938L634 1030H734L548 822H428Z" glyph-name="Dcaron" horiz-adv-x="914" unicode="&#270;" /><glyph d="M430 84Q486 84 529 112Q572 140 601.5 188Q631 236 646.5 301Q662 366 662 440Q662 567 599 631.5Q536 696 429 696H389L357 437H512L504 366H348L326 184Q324 173 323 160Q322 147 322 140Q322 107 344 95.5Q366 84 404 84ZM55 437H137L158 603Q160 623 161.5 636Q163 649 163 658Q163 683 147.5 692.5Q132 702 85 704L94 780H452Q546 780 626.5 760.5Q707 741 766.5 700Q826 659 860 595Q894 531 894 441Q894 342 863 260.5Q832 179 773 121Q714 63 628.5 31.5Q543 0 433 0H0L9 76Q37 77 54 80.5Q71 84 81 92.5Q91 101 95 115Q99 129 102 150L128 366H47Z" glyph-name="Dcroat" horiz-adv-x="914" unicode="&#272;" /><glyph d="M385 467 162 87H513ZM27 37 471 780H515L777 37L773 0H23Z" glyph-name="Delta" horiz-adv-x="860" unicode="&#8710;" /><glyph d="M0 0 9 76Q37 77 54 80.5Q71 84 81 92.5Q91 101 95 115Q99 129 102 150L158 603Q160 623 161.5 636Q163 649 163 658Q163 683 147.5 692.5Q132 702 85 704L94 780H755L732 562H644Q635 596 624 621Q613 646 597.5 662.5Q582 679 559 687.5Q536 696 502 696H389L358 444H433Q470 444 490.5 461.5Q511 479 526 529H608L577 274H495Q492 324 476.5 342Q461 360 424 360H348L326 184Q324 167 323 155.5Q322 144 322 136Q322 106 345.5 95Q369 84 404 84H429Q458 84 481 92Q504 100 527 118Q550 136 575 165Q600 194 633 236H728L665 0Z" glyph-name="E" horiz-adv-x="767" unicode="E" /><glyph d="M0 0 9 76Q37 77 54 80.5Q71 84 81 92.5Q91 101 95 115Q99 129 102 150L158 603Q160 623 161.5 636Q163 649 163 658Q163 683 147.5 692.5Q132 702 85 704L94 780H755L732 562H644Q635 596 624 621Q613 646 597.5 662.5Q582 679 559 687.5Q536 696 502 696H389L358 444H433Q470 444 490.5 461.5Q511 479 526 529H608L577 274H495Q492 324 476.5 342Q461 360 424 360H348L326 184Q324 167 323 155.5Q322 144 322 136Q322 106 345.5 95Q369 84 404 84H429Q458 84 481 92Q504 100 527 118Q550 136 575 165Q600 194 633 236H728L665 0ZM717 1030 463 822H362L493 1030Z" glyph-name="Eacute" horiz-adv-x="767" unicode="&#201;" /><glyph d="M0 0 9 76Q37 77 54 80.5Q71 84 81 92.5Q91 101 95 115Q99 129 102 150L158 603Q160 623 161.5 636Q163 649 163 658Q163 683 147.5 692.5Q132 702 85 704L94 780H755L732 562H644Q635 596 624 621Q613 646 597.5 662.5Q582 679 559 687.5Q536 696 502 696H389L358 444H433Q470 444 490.5 461.5Q511 479 526 529H608L577 274H495Q492 324 476.5 342Q461 360 424 360H348L326 184Q324 167 323 155.5Q322 144 322 136Q322 106 345.5 95Q369 84 404 84H429Q458 84 481 92Q504 100 527 118Q550 136 575 165Q600 194 633 236H728L665 0ZM453 828Q372 828 334.5 868Q297 908 297 980Q297 1004 300 1030H363Q363 986 388.5 967Q414 948 465 948Q516 948 547.5 966.5Q579 985 593 1030H656Q644 935 597 881.5Q550 828 453 828Z" glyph-name="Ebreve" horiz-adv-x="767" unicode="&#276;" /><glyph d="M0 0 9 76Q37 77 54 80.5Q71 84 81 92.5Q91 101 95 115Q99 129 102 150L158 603Q160 623 161.5 636Q163 649 163 658Q163 683 147.5 692.5Q132 702 85 704L94 780H755L732 562H644Q635 596 624 621Q613 646 597.5 662.5Q582 679 559 687.5Q536 696 502 696H389L358 444H433Q470 444 490.5 461.5Q511 479 526 529H608L577 274H495Q492 324 476.5 342Q461 360 424 360H348L326 184Q324 167 323 155.5Q322 144 322 136Q322 106 345.5 95Q369 84 404 84H429Q458 84 481 92Q504 100 527 118Q550 136 575 165Q600 194 633 236H728L665 0ZM265 1030H366L471 938L605 1030H705L519 822H399Z" glyph-name="Ecaron" horiz-adv-x="767" unicode="&#282;" /><glyph d="M671 822H570L468 914L331 822H231L417 1030H537ZM0 0 9 76Q37 77 54 80.5Q71 84 81 92.5Q91 101 95 115Q99 129 102 150L158 603Q160 623 161.5 636Q163 649 163 658Q163 683 147.5 692.5Q132 702 85 704L94 780H755L732 562H644Q635 596 624 621Q613 646 597.5 662.5Q582 679 559 687.5Q536 696 502 696H389L358 444H433Q470 444 490.5 461.5Q511 479 526 529H608L577 274H495Q492 324 476.5 342Q461 360 424 360H348L326 184Q324 167 323 155.5Q322 144 322 136Q322 106 345.5 95Q369 84 404 84H429Q458 84 481 92Q504 100 527 118Q550 136 575 165Q600 194 633 236H728L665 0Z" glyph-name="Ecircumflex" horiz-adv-x="767" unicode="&#202;" /><glyph d="M0 0 9 76Q37 77 54 80.5Q71 84 81 92.5Q91 101 95 115Q99 129 102 150L158 603Q160 623 161.5 636Q163 649 163 658Q163 683 147.5 692.5Q132 702 85 704L94 780H755L732 562H644Q635 596 624 621Q613 646 597.5 662.5Q582 679 559 687.5Q536 696 502 696H389L358 444H433Q470 444 490.5 461.5Q511 479 526 529H608L577 274H495Q492 324 476.5 342Q461 360 424 360H348L326 184Q324 167 323 155.5Q322 144 322 136Q322 106 345.5 95Q369 84 404 84H429Q458 84 481 92Q504 100 527 118Q550 136 575 165Q600 194 633 236H728L665 0ZM574 828Q530 828 506.5 854.5Q483 881 483 920Q483 965 512.5 997Q542 1029 593 1029Q638 1029 661 1002.5Q684 976 684 937Q684 915 676.5 895Q669 875 655 860Q641 845 620.5 836.5Q600 828 574 828ZM335 828Q290 828 267 854.5Q244 881 244 920Q244 965 273 997Q302 1029 354 1029Q398 1029 421.5 1002.5Q445 976 445 937Q445 915 437.5 895Q430 875 415.5 860Q401 845 380.5 836.5Q360 828 335 828Z" glyph-name="Edieresis" horiz-adv-x="767" unicode="&#203;" /><glyph d="M0 0 9 76Q37 77 54 80.5Q71 84 81 92.5Q91 101 95 115Q99 129 102 150L158 603Q160 623 161.5 636Q163 649 163 658Q163 683 147.5 692.5Q132 702 85 704L94 780H755L732 562H644Q635 596 624 621Q613 646 597.5 662.5Q582 679 559 687.5Q536 696 502 696H389L358 444H433Q470 444 490.5 461.5Q511 479 526 529H608L577 274H495Q492 324 476.5 342Q461 360 424 360H348L326 184Q324 167 323 155.5Q322 144 322 136Q322 106 345.5 95Q369 84 404 84H429Q458 84 481 92Q504 100 527 118Q550 136 575 165Q600 194 633 236H728L665 0ZM453 829Q407 829 383 856Q359 883 359 924Q359 971 388.5 1003.5Q418 1036 472 1036Q517 1036 541.5 1009Q566 982 566 941Q566 895 536 862Q506 829 453 829Z" glyph-name="Edotaccent" horiz-adv-x="767" unicode="&#278;" /><glyph d="M0 0 9 76Q37 77 54 80.5Q71 84 81 92.5Q91 101 95 115Q99 129 102 150L158 603Q160 623 161.5 636Q163 649 163 658Q163 683 147.5 692.5Q132 702 85 704L94 780H755L732 562H644Q635 596 624 621Q613 646 597.5 662.5Q582 679 559 687.5Q536 696 502 696H389L358 444H433Q470 444 490.5 461.5Q511 479 526 529H608L577 274H495Q492 324 476.5 342Q461 360 424 360H348L326 184Q324 167 323 155.5Q322 144 322 136Q322 106 345.5 95Q369 84 404 84H429Q458 84 481 92Q504 100 527 118Q550 136 575 165Q600 194 633 236H728L665 0ZM448 1030 510 822H419L217 1030Z" glyph-name="Egrave" horiz-adv-x="767" unicode="&#200;" /><glyph d="M0 0 9 76Q37 77 54 80.5Q71 84 81 92.5Q91 101 95 115Q99 129 102 150L158 603Q160 623 161.5 636Q163 649 163 658Q163 683 147.5 692.5Q132 702 85 704L94 780H755L732 562H644Q635 596 624 621Q613 646 597.5 662.5Q582 679 559 687.5Q536 696 502 696H389L358 444H433Q470 444 490.5 461.5Q511 479 526 529H608L577 274H495Q492 324 476.5 342Q461 360 424 360H348L326 184Q324 167 323 155.5Q322 144 322 136Q322 106 345.5 95Q369 84 404 84H429Q458 84 481 92Q504 100 527 118Q550 136 575 165Q600 194 633 236H728L665 0ZM304 944H603L590 842H291Z" glyph-name="Emacron" horiz-adv-x="767" unicode="&#274;" /><glyph d="M650 36 259 556 212 177Q210 157 208.5 144Q207 131 207 122Q207 97 222.5 87.5Q238 78 285 76L276 0H0L9 76Q37 77 54 80.5Q71 84 81 92.5Q91 101 95 115Q99 129 102 150L163 646Q147 669 131.5 684.5Q116 700 85 704L94 780H376L691 354L721 603Q723 623 724.5 636Q726 649 726 658Q726 683 710.5 692.5Q695 702 648 704L657 780H933L924 704Q896 703 879 699Q862 695 852 687Q842 679 838 665Q834 651 831 630L746 -55Q740 -107 720 -144Q700 -181 669.5 -204.5Q639 -228 598 -239Q557 -250 508 -250Q416 -250 362 -214.5Q308 -179 308 -113Q308 -72 326 -47.5Q344 -23 370 -10H501Q495 -36 491.5 -56Q488 -76 488 -99Q488 -171 545 -171Q581 -171 604.5 -143Q628 -115 636 -62Z" glyph-name="Eng" horiz-adv-x="905" unicode="&#330;" /><glyph d="M755 780 732 562H644Q635 596 624 621Q613 646 597.5 662.5Q582 679 559 687.5Q536 696 502 696H389L358 444H433Q470 444 490.5 461.5Q511 479 526 529H608L577 274H495Q492 324 476.5 342Q461 360 424 360H348L326 184Q324 167 323 155.5Q322 144 322 136Q322 106 345.5 95Q369 84 404 84H429Q458 84 481 92Q504 100 527 118Q550 136 575 165Q600 194 633 236H728L665 0Q622 -18 597.5 -37.5Q573 -57 560.5 -74.5Q548 -92 545 -106.5Q542 -121 542 -130Q542 -149 552.5 -157Q563 -165 581 -165Q622 -165 656 -141L664 -189Q636 -213 599 -231.5Q562 -250 514 -250Q458 -250 432.5 -224.5Q407 -199 407 -155Q407 -113 435 -72.5Q463 -32 523 0H0L9 76Q37 77 54 80.5Q71 84 81 92.5Q91 101 95 115Q99 129 102 150L158 603Q160 623 161.5 636Q163 649 163 658Q163 683 147.5 692.5Q132 702 85 704L94 780Z" glyph-name="Eogonek" horiz-adv-x="767" unicode="&#280;" /><glyph d="M302 177Q300 157 298.5 144Q297 131 297 122Q297 97 312.5 87.5Q328 78 375 76L366 0H-23L-14 76Q14 77 31 80.5Q48 84 58 92.5Q68 101 72 115Q76 129 79 150L121 493Q138 633 258.5 711.5Q379 790 602 790Q713 790 787 766.5Q861 743 900 703L893 645L772 484L824 458Q866 437 899 416Q932 395 954.5 369Q977 343 989 309Q1001 275 1001 227Q1001 170 979 126Q957 82 916.5 51.5Q876 21 818.5 5.5Q761 -10 690 -10Q640 -10 598.5 -2.5Q557 5 523.5 16.5Q490 28 465 42.5Q440 57 422 71L431 259H528Q552 71 686 71Q721 71 744 80.5Q767 90 780.5 104.5Q794 119 799.5 136.5Q805 154 805 171Q805 207 781 233.5Q757 260 703 283L611 321Q562 341 533 359Q504 377 490 399L496 456L654 670Q627 673 593 673Q528 673 482.5 658Q437 643 407 616.5Q377 590 360.5 553.5Q344 517 339 475Z" glyph-name="Eszett" horiz-adv-x="1035" unicode="&#7838;" /><glyph d="M430 84Q486 84 529 112Q572 140 601.5 188Q631 236 646.5 301Q662 366 662 440Q662 567 599 631.5Q536 696 429 696H389L357 437H500L492 366H348L326 184Q324 173 323 160Q322 147 322 140Q322 107 344 95.5Q366 84 404 84ZM43 437H137L158 603Q160 623 161.5 636Q163 649 163 658Q163 683 147.5 692.5Q132 702 85 704L94 780H452Q546 780 626.5 760.5Q707 741 766.5 700Q826 659 860 595Q894 531 894 441Q894 342 863 260.5Q832 179 773 121Q714 63 628.5 31.5Q543 0 433 0H0L9 76Q37 77 54 80.5Q71 84 81 92.5Q91 101 95 115Q99 129 102 150L128 366H35Z" glyph-name="Eth" horiz-adv-x="906" unicode="&#208;" /><glyph d="M50 494H138Q161 569 200 625Q239 681 289 717.5Q339 754 397 772Q455 790 517 790Q602 790 658 767Q714 744 752 703L731 521H631Q626 607 597.5 656Q569 705 513 705Q484 705 460 688Q436 671 416.5 641.5Q397 612 382.5 574Q368 536 358 494H579L544 428H345Q339 393 336 357H514L476 290H333V282Q333 239 338.5 201.5Q344 164 357 136Q370 108 391 91.5Q412 75 442 75Q493 75 536.5 124Q580 173 613 279H722L686 71Q636 33 575 11.5Q514 -10 423 -10Q346 -10 287.5 11.5Q229 33 190 72.5Q151 112 131 167.5Q111 223 111 290H25L34 357H113Q115 376 117.5 393.5Q120 411 123 428H42Z" glyph-name="Euro" horiz-adv-x="782" unicode="&#8364;" /><glyph d="M50 494H138Q161 569 200 625Q239 681 289 717.5Q339 754 397 772Q455 790 517 790Q602 790 658 767Q714 744 752 703L731 521H631Q626 607 597.5 656Q569 705 513 705Q484 705 460 688Q436 671 416.5 641.5Q397 612 382.5 574Q368 536 358 494H579L544 428H345Q339 393 336 357H514L476 290H333V282Q333 239 338.5 201.5Q344 164 357 136Q370 108 391 91.5Q412 75 442 75Q493 75 536.5 124Q580 173 613 279H722L686 71Q636 33 575 11.5Q514 -10 423 -10Q346 -10 287.5 11.5Q229 33 190 72.5Q151 112 131 167.5Q111 223 111 290H25L34 357H113Q115 376 117.5 393.5Q120 411 123 428H42Z" glyph-name="Euro.LP" horiz-adv-x="782" unicode="&#58657;" /><glyph d="M42 414H113Q132 478 168 524.5Q204 571 251 601Q298 631 353.5 645.5Q409 660 466 660Q537 660 596.5 640.5Q656 621 693 588L673 434H578Q575 511 547.5 543.5Q520 576 473 576Q422 576 385.5 532.5Q349 489 331 414H540L511 355H320Q318 339 317 323Q316 307 316 290H482L453 231H317Q322 155 344 114.5Q366 74 417 74Q443 74 463 83.5Q483 93 499 112.5Q515 132 528 162.5Q541 193 555 235H661L624 44Q572 16 515.5 3Q459 -10 400 -10Q259 -10 184.5 53Q110 116 97 231H20L27 290H95Q96 307 97 323Q98 339 100 355H35Z" glyph-name="Euro.OP" horiz-adv-x="713" unicode="&#59805;" /><glyph d="M743 780 720 562H632Q623 596 612 621Q601 646 585.5 662.5Q570 679 547 687.5Q524 696 490 696H389L357 437H421Q458 437 478.5 454.5Q499 472 514 522H595L564 267H483Q480 317 464 335Q448 353 411 353H347L325 176Q323 164 322 152Q321 140 321 129Q321 112 327.5 102.5Q334 93 348 88Q362 83 384.5 80.5Q407 78 439 76L430 0H0L9 76Q37 77 54 80.5Q71 84 81 92.5Q91 101 95 115Q99 129 102 150L158 603Q160 623 161.5 636Q163 649 163 658Q163 683 147.5 692.5Q132 702 85 704L94 780Z" glyph-name="F" horiz-adv-x="733" unicode="F" /><glyph d="M528 195Q531 220 532.5 234Q534 248 534 257Q534 280 518.5 289Q503 298 456 300L465 377H854L845 300Q817 299 799.5 295.5Q782 292 772.5 283.5Q763 275 758.5 261.5Q754 248 751 227L731 70Q668 34 589.5 12Q511 -10 414 -10Q320 -10 250.5 14.5Q181 39 135 82.5Q89 126 66.5 185Q44 244 44 314Q44 434 81 523.5Q118 613 182 672Q246 731 331.5 760.5Q417 790 514 790Q558 790 599 783.5Q640 777 675.5 765.5Q711 754 739 738Q767 722 784 703L763 521H662Q655 561 645 595Q635 629 617.5 654Q600 679 573.5 693Q547 707 507 707Q444 707 399.5 670Q355 633 327 574.5Q299 516 286 443.5Q273 371 273 300Q273 251 281 211Q289 171 307.5 142.5Q326 114 356.5 98Q387 82 433 82Q456 82 475.5 84.5Q495 87 516 94Z" glyph-name="G" horiz-adv-x="871" unicode="G" /><glyph d="M528 195Q531 220 532.5 234Q534 248 534 257Q534 280 518.5 289Q503 298 456 300L465 377H854L845 300Q817 299 799.5 295.5Q782 292 772.5 283.5Q763 275 758.5 261.5Q754 248 751 227L731 70Q668 34 589.5 12Q511 -10 414 -10Q320 -10 250.5 14.5Q181 39 135 82.5Q89 126 66.5 185Q44 244 44 314Q44 434 81 523.5Q118 613 182 672Q246 731 331.5 760.5Q417 790 514 790Q558 790 599 783.5Q640 777 675.5 765.5Q711 754 739 738Q767 722 784 703L763 521H662Q655 561 645 595Q635 629 617.5 654Q600 679 573.5 693Q547 707 507 707Q444 707 399.5 670Q355 633 327 574.5Q299 516 286 443.5Q273 371 273 300Q273 251 281 211Q289 171 307.5 142.5Q326 114 356.5 98Q387 82 433 82Q456 82 475.5 84.5Q495 87 516 94ZM497 828Q416 828 378.5 868Q341 908 341 980Q341 1004 344 1030H407Q407 986 432.5 967Q458 948 509 948Q560 948 591.5 966.5Q623 985 637 1030H700Q688 935 641 881.5Q594 828 497 828Z" glyph-name="Gbreve" horiz-adv-x="871" unicode="&#286;" /><glyph d="M715 822H614L512 914L375 822H275L461 1030H581ZM528 195Q531 220 532.5 234Q534 248 534 257Q534 280 518.5 289Q503 298 456 300L465 377H854L845 300Q817 299 799.5 295.5Q782 292 772.5 283.5Q763 275 758.5 261.5Q754 248 751 227L731 70Q668 34 589.5 12Q511 -10 414 -10Q320 -10 250.5 14.5Q181 39 135 82.5Q89 126 66.5 185Q44 244 44 314Q44 434 81 523.5Q118 613 182 672Q246 731 331.5 760.5Q417 790 514 790Q558 790 599 783.5Q640 777 675.5 765.5Q711 754 739 738Q767 722 784 703L763 521H662Q655 561 645 595Q635 629 617.5 654Q600 679 573.5 693Q547 707 507 707Q444 707 399.5 670Q355 633 327 574.5Q299 516 286 443.5Q273 371 273 300Q273 251 281 211Q289 171 307.5 142.5Q326 114 356.5 98Q387 82 433 82Q456 82 475.5 84.5Q495 87 516 94Z" glyph-name="Gcircumflex" horiz-adv-x="871" unicode="&#284;" /><glyph d="M528 195Q531 220 532.5 234Q534 248 534 257Q534 280 518.5 289Q503 298 456 300L465 377H854L845 300Q817 299 799.5 295.5Q782 292 772.5 283.5Q763 275 758.5 261.5Q754 248 751 227L731 70Q668 34 589.5 12Q511 -10 414 -10Q320 -10 250.5 14.5Q181 39 135 82.5Q89 126 66.5 185Q44 244 44 314Q44 434 81 523.5Q118 613 182 672Q246 731 331.5 760.5Q417 790 514 790Q558 790 599 783.5Q640 777 675.5 765.5Q711 754 739 738Q767 722 784 703L763 521H662Q655 561 645 595Q635 629 617.5 654Q600 679 573.5 693Q547 707 507 707Q444 707 399.5 670Q355 633 327 574.5Q299 516 286 443.5Q273 371 273 300Q273 251 281 211Q289 171 307.5 142.5Q326 114 356.5 98Q387 82 433 82Q456 82 475.5 84.5Q495 87 516 94ZM355 -156Q328 -154 313 -138Q298 -122 298 -97Q298 -68 318.5 -49Q339 -30 377 -30Q421 -30 447 -56.5Q473 -83 473 -127Q473 -179 433.5 -214.5Q394 -250 305 -250L317 -203Q362 -199 379 -188Q396 -177 396 -156Z" glyph-name="Gcommaaccent" horiz-adv-x="871" unicode="&#290;" /><glyph d="M528 195Q531 220 532.5 234Q534 248 534 257Q534 280 518.5 289Q503 298 456 300L465 377H854L845 300Q817 299 799.5 295.5Q782 292 772.5 283.5Q763 275 758.5 261.5Q754 248 751 227L731 70Q668 34 589.5 12Q511 -10 414 -10Q320 -10 250.5 14.5Q181 39 135 82.5Q89 126 66.5 185Q44 244 44 314Q44 434 81 523.5Q118 613 182 672Q246 731 331.5 760.5Q417 790 514 790Q558 790 599 783.5Q640 777 675.5 765.5Q711 754 739 738Q767 722 784 703L763 521H662Q655 561 645 595Q635 629 617.5 654Q600 679 573.5 693Q547 707 507 707Q444 707 399.5 670Q355 633 327 574.5Q299 516 286 443.5Q273 371 273 300Q273 251 281 211Q289 171 307.5 142.5Q326 114 356.5 98Q387 82 433 82Q456 82 475.5 84.5Q495 87 516 94ZM506 829Q460 829 436 856Q412 883 412 924Q412 971 441.5 1003.5Q471 1036 525 1036Q570 1036 594.5 1009Q619 982 619 941Q619 895 589 862Q559 829 506 829Z" glyph-name="Gdotaccent" horiz-adv-x="871" unicode="&#288;" /><glyph d="M993 780 984 704Q956 703 939 699Q922 695 912 687Q902 679 898 665Q894 651 891 630L835 177Q833 157 831.5 144Q830 131 830 122Q830 97 845.5 87.5Q861 78 908 76L899 0H510L519 76Q547 77 564 80.5Q581 84 591 92.5Q601 101 605 115Q609 129 612 150L638 360H347L325 177Q323 157 321.5 144Q320 131 320 122Q320 97 335.5 87.5Q351 78 398 76L389 0H0L9 76Q37 77 54 80.5Q71 84 81 92.5Q91 101 95 115Q99 129 102 150L158 603Q160 623 161.5 636Q163 649 163 658Q163 683 147.5 692.5Q132 702 85 704L94 780H483L474 704Q446 703 429 699Q412 695 402 687Q392 679 388 665Q384 651 381 630L358 444H648L668 603Q670 623 671.5 636Q673 649 673 658Q673 683 657.5 692.5Q642 702 595 704L604 780Z" glyph-name="H" horiz-adv-x="968" unicode="H" /><glyph d="M648 444 658 524H368L358 444ZM993 780 984 704Q956 703 939 699Q922 695 912 687Q902 679 898 665Q894 651 891 630L887 602H967L958 524H878L835 177Q833 157 831.5 144Q830 131 830 122Q830 97 845.5 87.5Q861 78 908 76L899 0H510L519 76Q547 77 564 80.5Q581 84 591 92.5Q601 101 605 115Q609 129 612 150L638 360H347L325 177Q323 157 321.5 144Q320 131 320 122Q320 97 335.5 87.5Q351 78 398 76L389 0H0L9 76Q37 77 54 80.5Q71 84 81 92.5Q91 101 95 115Q99 129 102 150L148 524H69L78 602H158V603Q160 623 161.5 636Q163 649 163 658Q163 683 147.5 692.5Q132 702 85 704L94 780H483L474 704Q446 703 429 699Q412 695 402 687Q392 679 388 665Q384 651 381 630L377 602H668V603Q670 623 671.5 636Q673 649 673 658Q673 683 657.5 692.5Q642 702 595 704L604 780Z" glyph-name="Hbar" horiz-adv-x="968" unicode="&#294;" /><glyph d="M771 822H670L568 914L431 822H331L517 1030H637ZM993 780 984 704Q956 703 939 699Q922 695 912 687Q902 679 898 665Q894 651 891 630L835 177Q833 157 831.5 144Q830 131 830 122Q830 97 845.5 87.5Q861 78 908 76L899 0H510L519 76Q547 77 564 80.5Q581 84 591 92.5Q601 101 605 115Q609 129 612 150L638 360H347L325 177Q323 157 321.5 144Q320 131 320 122Q320 97 335.5 87.5Q351 78 398 76L389 0H0L9 76Q37 77 54 80.5Q71 84 81 92.5Q91 101 95 115Q99 129 102 150L158 603Q160 623 161.5 636Q163 649 163 658Q163 683 147.5 692.5Q132 702 85 704L94 780H483L474 704Q446 703 429 699Q412 695 402 687Q392 679 388 665Q384 651 381 630L358 444H648L668 603Q670 623 671.5 636Q673 649 673 658Q673 683 657.5 692.5Q642 702 595 704L604 780Z" glyph-name="Hcircumflex" horiz-adv-x="968" unicode="&#292;" /><glyph d="M483 780 474 704Q446 703 429 699Q412 695 402 687Q392 679 388 665Q384 651 381 630L325 177Q323 157 321.5 144Q320 131 320 122Q320 97 335.5 87.5Q351 78 398 76L389 0H0L9 76Q37 77 54 80.5Q71 84 81 92.5Q91 101 95 115Q99 129 102 150L158 603Q160 623 161.5 636Q163 649 163 658Q163 683 147.5 692.5Q132 702 85 704L94 780Z" glyph-name="I" horiz-adv-x="458" unicode="I" /><glyph d="M834 603Q836 623 837.5 636Q839 649 839 658Q839 683 823.5 692.5Q808 702 761 704L770 780H1159L1150 704Q1122 703 1105 699Q1088 695 1078 687Q1068 679 1064 665Q1060 651 1057 630L1008 238Q994 120 909 55Q824 -10 669 -10Q543 -10 479.5 31.5Q416 73 416 151Q416 196 438 221.5Q460 247 488 262H635Q630 237 626 212Q622 187 622 163Q622 119 637 94.5Q652 70 684 70Q733 70 755 111.5Q777 153 785 221ZM483 780 474 704Q446 703 429 699Q412 695 402 687Q392 679 388 665Q384 651 381 630L325 177Q323 157 321.5 144Q320 131 320 122Q320 97 335.5 87.5Q351 78 398 76L389 0H0L9 76Q37 77 54 80.5Q71 84 81 92.5Q91 101 95 115Q99 129 102 150L158 603Q160 623 161.5 636Q163 649 163 658Q163 683 147.5 692.5Q132 702 85 704L94 780Z" glyph-name="IJ" horiz-adv-x="1120" unicode="&#306;" /><glyph d="M483 780 474 704Q446 703 429 699Q412 695 402 687Q392 679 388 665Q384 651 381 630L325 177Q323 157 321.5 144Q320 131 320 122Q320 97 335.5 87.5Q351 78 398 76L389 0H0L9 76Q37 77 54 80.5Q71 84 81 92.5Q91 101 95 115Q99 129 102 150L158 603Q160 623 161.5 636Q163 649 163 658Q163 683 147.5 692.5Q132 702 85 704L94 780ZM1020 790Q1050 790 1067 771Q1084 752 1084 723Q1084 702 1075.5 684Q1067 666 1054 651.5Q1041 637 1025 627.5Q1009 618 994 614L975 417H1056L1048 338H968L948 124Q939 29 910.5 -37.5Q882 -104 833.5 -146Q785 -188 716.5 -207Q648 -226 560 -226Q520 -226 484 -219Q448 -212 420.5 -197.5Q393 -183 377 -160.5Q361 -138 361 -107Q361 -19 468 -1Q480 -28 493 -54.5Q506 -81 522 -102Q538 -123 557.5 -136.5Q577 -150 602 -150Q628 -150 647 -137Q666 -124 679.5 -98Q693 -72 702 -33Q711 6 718 59L744 264Q746 282 748.5 300.5Q751 319 755 338H613L622 417H773Q785 463 800 507.5Q815 552 833 592Q803 595 781.5 600Q760 605 740.5 610.5Q721 616 699 620Q677 624 645 624Q616 624 599.5 616Q583 608 575 596L659 550L654 528Q645 492 623 479Q601 466 576 466Q538 466 514.5 492Q491 518 491 575Q491 619 504.5 658Q518 697 543.5 726.5Q569 756 606 773Q643 790 689 790Q727 790 751.5 775.5Q776 761 795.5 741.5Q815 722 833.5 703.5Q852 685 878 677Q910 728 946 759Q982 790 1020 790Z" glyph-name="IJ.alt" horiz-adv-x="1088" unicode="&#59530;" /><glyph d="M579 1030 325 822H224L355 1030ZM483 780 474 704Q446 703 429 699Q412 695 402 687Q392 679 388 665Q384 651 381 630L325 177Q323 157 321.5 144Q320 131 320 122Q320 97 335.5 87.5Q351 78 398 76L389 0H0L9 76Q37 77 54 80.5Q71 84 81 92.5Q91 101 95 115Q99 129 102 150L158 603Q160 623 161.5 636Q163 649 163 658Q163 683 147.5 692.5Q132 702 85 704L94 780Z" glyph-name="Iacute" horiz-adv-x="458" unicode="&#205;" /><glyph d="M295 828Q214 828 176.5 868Q139 908 139 980Q139 1004 142 1030H205Q205 986 230.5 967Q256 948 307 948Q358 948 389.5 966.5Q421 985 435 1030H498Q486 935 439 881.5Q392 828 295 828ZM483 780 474 704Q446 703 429 699Q412 695 402 687Q392 679 388 665Q384 651 381 630L325 177Q323 157 321.5 144Q320 131 320 122Q320 97 335.5 87.5Q351 78 398 76L389 0H0L9 76Q37 77 54 80.5Q71 84 81 92.5Q91 101 95 115Q99 129 102 150L158 603Q160 623 161.5 636Q163 649 163 658Q163 683 147.5 692.5Q132 702 85 704L94 780Z" glyph-name="Ibreve" horiz-adv-x="458" unicode="&#300;" /><glyph d="M516 822H415L313 914L176 822H76L262 1030H382ZM483 780 474 704Q446 703 429 699Q412 695 402 687Q392 679 388 665Q384 651 381 630L325 177Q323 157 321.5 144Q320 131 320 122Q320 97 335.5 87.5Q351 78 398 76L389 0H0L9 76Q37 77 54 80.5Q71 84 81 92.5Q91 101 95 115Q99 129 102 150L158 603Q160 623 161.5 636Q163 649 163 658Q163 683 147.5 692.5Q132 702 85 704L94 780Z" glyph-name="Icircumflex" horiz-adv-x="458" unicode="&#206;" /><glyph d="M427 828Q383 828 359.5 854.5Q336 881 336 920Q336 965 365.5 997Q395 1029 446 1029Q491 1029 514 1002.5Q537 976 537 937Q537 915 529.5 895Q522 875 508 860Q494 845 473.5 836.5Q453 828 427 828ZM188 828Q143 828 120 854.5Q97 881 97 920Q97 965 126 997Q155 1029 207 1029Q251 1029 274.5 1002.5Q298 976 298 937Q298 915 290.5 895Q283 875 268.5 860Q254 845 233.5 836.5Q213 828 188 828ZM483 780 474 704Q446 703 429 699Q412 695 402 687Q392 679 388 665Q384 651 381 630L325 177Q323 157 321.5 144Q320 131 320 122Q320 97 335.5 87.5Q351 78 398 76L389 0H0L9 76Q37 77 54 80.5Q71 84 81 92.5Q91 101 95 115Q99 129 102 150L158 603Q160 623 161.5 636Q163 649 163 658Q163 683 147.5 692.5Q132 702 85 704L94 780Z" glyph-name="Idieresis" horiz-adv-x="458" unicode="&#207;" /><glyph d="M298 829Q252 829 228 856Q204 883 204 924Q204 971 233.5 1003.5Q263 1036 317 1036Q362 1036 386.5 1009Q411 982 411 941Q411 895 381 862Q351 829 298 829ZM483 780 474 704Q446 703 429 699Q412 695 402 687Q392 679 388 665Q384 651 381 630L325 177Q323 157 321.5 144Q320 131 320 122Q320 97 335.5 87.5Q351 78 398 76L389 0H0L9 76Q37 77 54 80.5Q71 84 81 92.5Q91 101 95 115Q99 129 102 150L158 603Q160 623 161.5 636Q163 649 163 658Q163 683 147.5 692.5Q132 702 85 704L94 780Z" glyph-name="Idotaccent" horiz-adv-x="458" unicode="&#304;" /><glyph d="M297 1030 359 822H268L66 1030ZM483 780 474 704Q446 703 429 699Q412 695 402 687Q392 679 388 665Q384 651 381 630L325 177Q323 157 321.5 144Q320 131 320 122Q320 97 335.5 87.5Q351 78 398 76L389 0H0L9 76Q37 77 54 80.5Q71 84 81 92.5Q91 101 95 115Q99 129 102 150L158 603Q160 623 161.5 636Q163 649 163 658Q163 683 147.5 692.5Q132 702 85 704L94 780Z" glyph-name="Igrave" horiz-adv-x="458" unicode="&#204;" /><glyph d="M166 944H465L452 842H153ZM483 780 474 704Q446 703 429 699Q412 695 402 687Q392 679 388 665Q384 651 381 630L325 177Q323 157 321.5 144Q320 131 320 122Q320 97 335.5 87.5Q351 78 398 76L389 0H0L9 76Q37 77 54 80.5Q71 84 81 92.5Q91 101 95 115Q99 129 102 150L158 603Q160 623 161.5 636Q163 649 163 658Q163 683 147.5 692.5Q132 702 85 704L94 780Z" glyph-name="Imacron" horiz-adv-x="458" unicode="&#298;" /><glyph d="M483 780 474 704Q446 703 429 699Q412 695 402 687Q392 679 388 665Q384 651 381 630L325 177Q323 157 321.5 144Q320 131 320 122Q320 97 335.5 87.5Q351 78 398 76L389 0Q346 -18 321.5 -37.5Q297 -57 284.5 -74.5Q272 -92 269 -106.5Q266 -121 266 -130Q266 -149 276.5 -157Q287 -165 305 -165Q346 -165 380 -141L388 -189Q360 -213 323 -231.5Q286 -250 238 -250Q182 -250 156.5 -224.5Q131 -199 131 -155Q131 -113 159 -72.5Q187 -32 247 0H0L9 76Q37 77 54 80.5Q71 84 81 92.5Q91 101 95 115Q99 129 102 150L158 603Q160 623 161.5 636Q163 649 163 658Q163 683 147.5 692.5Q132 702 85 704L94 780Z" glyph-name="Iogonek" horiz-adv-x="458" unicode="&#302;" /><glyph d="M547 1012Q524 962 504 928.5Q484 895 463 875Q442 855 419.5 847Q397 839 371 839Q350 839 330 847.5Q310 856 292 866.5Q274 877 257.5 886Q241 895 227 895Q206 895 189.5 881Q173 867 156 841L96 857Q118 907 138 940.5Q158 974 179 994Q200 1014 222.5 1022Q245 1030 271 1030Q292 1030 312 1021.5Q332 1013 350 1002.5Q368 992 384.5 983.5Q401 975 415 975Q436 975 452.5 988.5Q469 1002 487 1028ZM483 780 474 704Q446 703 429 699Q412 695 402 687Q392 679 388 665Q384 651 381 630L325 177Q323 157 321.5 144Q320 131 320 122Q320 97 335.5 87.5Q351 78 398 76L389 0H0L9 76Q37 77 54 80.5Q71 84 81 92.5Q91 101 95 115Q99 129 102 150L158 603Q160 623 161.5 636Q163 649 163 658Q163 683 147.5 692.5Q132 702 85 704L94 780Z" glyph-name="Itilde" horiz-adv-x="458" unicode="&#296;" /><glyph d="M408 603Q410 623 411.5 636Q413 649 413 658Q413 683 397.5 692.5Q382 702 335 704L344 780H733L724 704Q696 703 679 699Q662 695 652 687Q642 679 638 665Q634 651 631 630L582 238Q568 120 483 55Q398 -10 243 -10Q117 -10 53.5 31.5Q-10 73 -10 151Q-10 196 12 221.5Q34 247 62 262H209Q204 237 200 212Q196 187 196 163Q196 119 211 94.5Q226 70 258 70Q307 70 329 111.5Q351 153 359 221Z" glyph-name="J" horiz-adv-x="694" unicode="J" /><glyph d="M603 790Q633 790 650 771Q667 752 667 723Q667 702 658.5 684Q650 666 637 651.5Q624 637 608 627.5Q592 618 577 614L558 417H639L631 338H551L531 124Q522 29 493.5 -37.5Q465 -104 416.5 -146Q368 -188 299.5 -207Q231 -226 143 -226Q103 -226 67 -219Q31 -212 3.5 -197.5Q-24 -183 -40 -160.5Q-56 -138 -56 -107Q-56 -19 51 -1Q63 -28 76 -54.5Q89 -81 105 -102Q121 -123 140.5 -136.5Q160 -150 185 -150Q211 -150 230 -137Q249 -124 262.5 -98Q276 -72 285 -33Q294 6 301 59L327 264Q329 282 331.5 300.5Q334 319 338 338H196L205 417H356Q368 463 383 507.5Q398 552 416 592Q386 595 364.5 600Q343 605 323.5 610.5Q304 616 282 620Q260 624 228 624Q199 624 182.5 616Q166 608 158 596L242 550L237 528Q228 492 206 479Q184 466 159 466Q121 466 97.5 492Q74 518 74 575Q74 619 87.5 658Q101 697 126.5 726.5Q152 756 189 773Q226 790 272 790Q310 790 334.5 775.5Q359 761 378.5 741.5Q398 722 416.5 703.5Q435 685 461 677Q493 728 529 759Q565 790 603 790Z" glyph-name="J.hist" horiz-adv-x="671" /><glyph d="M766 822H665L563 914L426 822H326L512 1030H632ZM408 603Q410 623 411.5 636Q413 649 413 658Q413 683 397.5 692.5Q382 702 335 704L344 780H733L724 704Q696 703 679 699Q662 695 652 687Q642 679 638 665Q634 651 631 630L582 238Q568 120 483 55Q398 -10 243 -10Q117 -10 53.5 31.5Q-10 73 -10 151Q-10 196 12 221.5Q34 247 62 262H209Q204 237 200 212Q196 187 196 163Q196 119 211 94.5Q226 70 258 70Q307 70 329 111.5Q351 153 359 221Z" glyph-name="Jcircumflex" horiz-adv-x="694" unicode="&#308;" /><glyph d="M637 822H536L434 914L297 822H197L383 1030H503ZM603 790Q633 790 650 771Q667 752 667 723Q667 702 658.5 684Q650 666 637 651.5Q624 637 608 627.5Q592 618 577 614L558 417H639L631 338H551L531 124Q522 29 493.5 -37.5Q465 -104 416.5 -146Q368 -188 299.5 -207Q231 -226 143 -226Q103 -226 67 -219Q31 -212 3.5 -197.5Q-24 -183 -40 -160.5Q-56 -138 -56 -107Q-56 -19 51 -1Q63 -28 76 -54.5Q89 -81 105 -102Q121 -123 140.5 -136.5Q160 -150 185 -150Q211 -150 230 -137Q249 -124 262.5 -98Q276 -72 285 -33Q294 6 301 59L327 264Q329 282 331.5 300.5Q334 319 338 338H196L205 417H356Q368 463 383 507.5Q398 552 416 592Q386 595 364.5 600Q343 605 323.5 610.5Q304 616 282 620Q260 624 228 624Q199 624 182.5 616Q166 608 158 596L242 550L237 528Q228 492 206 479Q184 466 159 466Q121 466 97.5 492Q74 518 74 575Q74 619 87.5 658Q101 697 126.5 726.5Q152 756 189 773Q226 790 272 790Q310 790 334.5 775.5Q359 761 378.5 741.5Q398 722 416.5 703.5Q435 685 461 677Q493 728 529 759Q565 790 603 790Z" glyph-name="Jcircumflex.hist" horiz-adv-x="671" /><glyph d="M483 780 474 704Q446 703 429 699Q412 695 402 687Q392 679 388 665Q384 651 381 630L325 177Q323 157 321.5 144Q320 131 320 122Q320 97 335.5 87.5Q351 78 398 76L389 0H0L9 76Q37 77 54 80.5Q71 84 81 92.5Q91 101 95 115Q99 129 102 150L158 603Q160 623 161.5 636Q163 649 163 658Q163 683 147.5 692.5Q132 702 85 704L94 780ZM733 185Q745 163 757 143.5Q769 124 783 109.5Q797 95 814.5 86Q832 77 856 76L847 0H599Q565 31 537.5 75.5Q510 120 477 182L360 401L628 620Q644 633 654 644Q664 655 664 670Q664 684 652.5 693Q641 702 601 704L610 780H926L917 704Q869 701 836 674L577 459Z" glyph-name="K" horiz-adv-x="896" unicode="K" /><glyph d="M483 780 474 704Q446 703 429 699Q412 695 402 687Q392 679 388 665Q384 651 381 630L325 177Q323 157 321.5 144Q320 131 320 122Q320 97 335.5 87.5Q351 78 398 76L389 0H0L9 76Q37 77 54 80.5Q71 84 81 92.5Q91 101 95 115Q99 129 102 150L158 603Q160 623 161.5 636Q163 649 163 658Q163 683 147.5 692.5Q132 702 85 704L94 780ZM733 185Q745 163 757 143.5Q769 124 783 109.5Q797 95 814.5 86Q832 77 856 76L847 0H599Q565 31 537.5 75.5Q510 120 477 182L360 401L628 620Q644 633 654 644Q664 655 664 670Q664 684 652.5 693Q641 702 601 704L610 780H926L917 704Q869 701 836 674L577 459ZM397 -156Q370 -154 355 -138Q340 -122 340 -97Q340 -68 360.5 -49Q381 -30 419 -30Q463 -30 489 -56.5Q515 -83 515 -127Q515 -179 475.5 -214.5Q436 -250 347 -250L359 -203Q404 -199 421 -188Q438 -177 438 -156Z" glyph-name="Kcommaaccent" horiz-adv-x="896" unicode="&#310;" /><glyph d="M324 170Q323 163 322 153.5Q321 144 321 136Q321 104 343.5 94Q366 84 404 84H424Q454 84 475.5 90.5Q497 97 519 117.5Q541 138 568.5 175Q596 212 639 274H738L664 0H0L9 76Q37 77 54 80.5Q71 84 81 92.5Q91 101 95 115Q99 129 102 150L158 603Q160 623 161.5 636Q163 649 163 658Q163 683 147.5 692.5Q132 702 85 704L94 780H483L474 704Q446 703 429 699Q412 695 402 687Q392 679 388 665Q384 651 381 630Z" glyph-name="L" horiz-adv-x="748" unicode="L" /><glyph d="M324 170Q323 163 322 153.5Q321 144 321 136Q321 104 343.5 94Q366 84 404 84H424Q454 84 475.5 90.5Q497 97 519 117.5Q541 138 568.5 175Q596 212 639 274H738L664 0H0L9 76Q37 77 54 80.5Q71 84 81 92.5Q91 101 95 115Q99 129 102 150L158 603Q160 623 161.5 636Q163 649 163 658Q163 683 147.5 692.5Q132 702 85 704L94 780H483L474 704Q446 703 429 699Q412 695 402 687Q392 679 388 665Q384 651 381 630ZM578 1030 324 822H223L354 1030Z" glyph-name="Lacute" horiz-adv-x="748" unicode="&#313;" /><glyph d="M324 170Q323 163 322 153.5Q321 144 321 136Q321 104 343.5 94Q366 84 404 84H424Q454 84 475.5 90.5Q497 97 519 117.5Q541 138 568.5 175Q596 212 639 274H738L664 0H0L9 76Q37 77 54 80.5Q71 84 81 92.5Q91 101 95 115Q99 129 102 150L158 603Q160 623 161.5 636Q163 649 163 658Q163 683 147.5 692.5Q132 702 85 704L94 780H483L474 704Q446 703 429 699Q412 695 402 687Q392 679 388 665Q384 651 381 630ZM743 780 605 572H512L561 780Z" glyph-name="Lcaron" horiz-adv-x="748" unicode="&#317;" /><glyph d="M324 170Q323 163 322 153.5Q321 144 321 136Q321 104 343.5 94Q366 84 404 84H424Q454 84 475.5 90.5Q497 97 519 117.5Q541 138 568.5 175Q596 212 639 274H738L664 0H0L9 76Q37 77 54 80.5Q71 84 81 92.5Q91 101 95 115Q99 129 102 150L158 603Q160 623 161.5 636Q163 649 163 658Q163 683 147.5 692.5Q132 702 85 704L94 780H483L474 704Q446 703 429 699Q412 695 402 687Q392 679 388 665Q384 651 381 630ZM314 -156Q287 -154 272 -138Q257 -122 257 -97Q257 -68 277.5 -49Q298 -30 336 -30Q380 -30 406 -56.5Q432 -83 432 -127Q432 -179 392.5 -214.5Q353 -250 264 -250L276 -203Q321 -199 338 -188Q355 -177 355 -156Z" glyph-name="Lcommaaccent" horiz-adv-x="748" unicode="&#315;" /><glyph d="M523 434Q523 455 531 473.5Q539 492 552 506Q565 520 582.5 528Q600 536 620 536Q641 536 659 528Q677 520 690.5 506Q704 492 712 473.5Q720 455 720 434Q720 414 712 396Q704 378 690.5 364.5Q677 351 659 343Q641 335 620 335Q600 335 582.5 343Q565 351 552 364.5Q539 378 531 396Q523 414 523 434ZM324 170Q323 163 322 153.5Q321 144 321 136Q321 104 343.5 94Q366 84 404 84H424Q454 84 475.5 90.5Q497 97 519 117.5Q541 138 568.5 175Q596 212 639 274H738L664 0H0L9 76Q37 77 54 80.5Q71 84 81 92.5Q91 101 95 115Q99 129 102 150L158 603Q160 623 161.5 636Q163 649 163 658Q163 683 147.5 692.5Q132 702 85 704L94 780H483L474 704Q446 703 429 699Q412 695 402 687Q392 679 388 665Q384 651 381 630Z" glyph-name="Ldot" horiz-adv-x="748" unicode="&#319;" /><glyph d="M365 459 533 520 523 436 354 374 329 170Q328 163 327 153.5Q326 144 326 136Q326 104 348.5 94Q371 84 409 84H429Q459 84 480.5 90.5Q502 97 524 117.5Q546 138 573.5 175Q601 212 644 274H743L669 0H5L14 76Q42 77 59 80.5Q76 84 86 92.5Q96 101 100 115Q104 129 107 150L124 293L47 266L58 352L135 379L163 603Q165 623 166.5 636Q168 649 168 658Q168 683 152.5 692.5Q137 702 90 704L99 780H488L479 704Q451 703 434 699Q417 695 407 687Q397 679 393 665Q389 651 386 630Z" glyph-name="Lslash" horiz-adv-x="753" unicode="&#321;" /><glyph d="M782 708Q794 732 798.5 746.5Q803 761 807 780H1140L1131 704Q1075 702 1053 684.5Q1031 667 1026 623L1038 143Q1038 123 1043 110.5Q1048 98 1058 90.5Q1068 83 1084.5 80Q1101 77 1125 76L1116 0H702L711 76Q738 77 759 81Q780 85 794.5 95Q809 105 816.5 123.5Q824 142 823 174L815 555L538 0H440L299 552L204 182Q199 162 197 150Q195 138 195 130Q195 98 217.5 88.5Q240 79 295 76L286 0H-26L-17 76Q7 77 24 80.5Q41 84 53 91.5Q65 99 73 111Q81 123 86 143L214 623Q214 645 211.5 660Q209 675 200 684.5Q191 694 174 698.5Q157 703 129 704L138 780H467Q467 761 469 746Q471 731 476 710L583 302Z" glyph-name="M" horiz-adv-x="1164" unicode="M" /><glyph d="M721 603Q723 623 724.5 636Q726 649 726 658Q726 683 710.5 692.5Q695 702 648 704L657 780H933L924 704Q896 703 879 699Q862 695 852 687Q842 679 838 665Q834 651 831 630L754 0H678L259 556L212 177Q210 157 208.5 144Q207 131 207 122Q207 97 222.5 87.5Q238 78 285 76L276 0H0L9 76Q37 77 54 80.5Q71 84 81 92.5Q91 101 95 115Q99 129 102 150L163 646Q147 669 131.5 684.5Q116 700 85 704L94 780H376L691 354Z" glyph-name="N" horiz-adv-x="905" unicode="N" /><glyph d="M721 599Q723 623 725 637Q727 651 727 660Q727 684 711 693Q695 702 648 704L657 780H939L930 704Q902 703 884.5 699Q867 695 857.5 687Q848 679 843.5 665Q839 651 837 630L776 130L827 30L822 0H605L264 554L218 177Q216 157 214 144Q212 131 212 122Q212 97 228 87.5Q244 78 291 76L282 0H0L9 76Q37 77 54.5 80.5Q72 84 81.5 92.5Q91 101 95.5 115Q100 129 102 150L163 639Q154 652 146 663.5Q138 675 129.5 683.5Q121 692 110.5 697.5Q100 703 86 704L95 780H384L680 283Z" glyph-name="N.hist" horiz-adv-x="914" /><glyph d="M721 603Q723 623 724.5 636Q726 649 726 658Q726 683 710.5 692.5Q695 702 648 704L657 780H933L924 704Q896 703 879 699Q862 695 852 687Q842 679 838 665Q834 651 831 630L754 0H678L259 556L212 177Q210 157 208.5 144Q207 131 207 122Q207 97 222.5 87.5Q238 78 285 76L276 0H0L9 76Q37 77 54 80.5Q71 84 81 92.5Q91 101 95 115Q99 129 102 150L163 646Q147 669 131.5 684.5Q116 700 85 704L94 780H376L691 354ZM787 1030 533 822H432L563 1030Z" glyph-name="Nacute" horiz-adv-x="905" unicode="&#323;" /><glyph d="M721 599Q723 623 725 637Q727 651 727 660Q727 684 711 693Q695 702 648 704L657 780H939L930 704Q902 703 884.5 699Q867 695 857.5 687Q848 679 843.5 665Q839 651 837 630L776 130L827 30L822 0H605L264 554L218 177Q216 157 214 144Q212 131 212 122Q212 97 228 87.5Q244 78 291 76L282 0H0L9 76Q37 77 54.5 80.5Q72 84 81.5 92.5Q91 101 95.5 115Q100 129 102 150L163 639Q154 652 146 663.5Q138 675 129.5 683.5Q121 692 110.5 697.5Q100 703 86 704L95 780H384L680 283ZM800 1030 546 822H445L576 1030Z" glyph-name="Nacute.hist" horiz-adv-x="914" /><glyph d="M721 603Q723 623 724.5 636Q726 649 726 658Q726 683 710.5 692.5Q695 702 648 704L657 780H933L924 704Q896 703 879 699Q862 695 852 687Q842 679 838 665Q834 651 831 630L754 0H678L259 556L212 177Q210 157 208.5 144Q207 131 207 122Q207 97 222.5 87.5Q238 78 285 76L276 0H0L9 76Q37 77 54 80.5Q71 84 81 92.5Q91 101 95 115Q99 129 102 150L163 646Q147 669 131.5 684.5Q116 700 85 704L94 780H376L691 354ZM315 1030H416L521 938L655 1030H755L569 822H449Z" glyph-name="Ncaron" horiz-adv-x="905" unicode="&#327;" /><glyph d="M721 599Q723 623 725 637Q727 651 727 660Q727 684 711 693Q695 702 648 704L657 780H939L930 704Q902 703 884.5 699Q867 695 857.5 687Q848 679 843.5 665Q839 651 837 630L776 130L827 30L822 0H605L264 554L218 177Q216 157 214 144Q212 131 212 122Q212 97 228 87.5Q244 78 291 76L282 0H0L9 76Q37 77 54.5 80.5Q72 84 81.5 92.5Q91 101 95.5 115Q100 129 102 150L163 639Q154 652 146 663.5Q138 675 129.5 683.5Q121 692 110.5 697.5Q100 703 86 704L95 780H384L680 283ZM327 1030H428L533 938L667 1030H767L581 822H461Z" glyph-name="Ncaron.hist" horiz-adv-x="914" /><glyph d="M721 603Q723 623 724.5 636Q726 649 726 658Q726 683 710.5 692.5Q695 702 648 704L657 780H933L924 704Q896 703 879 699Q862 695 852 687Q842 679 838 665Q834 651 831 630L754 0H678L259 556L212 177Q210 157 208.5 144Q207 131 207 122Q207 97 222.5 87.5Q238 78 285 76L276 0H0L9 76Q37 77 54 80.5Q71 84 81 92.5Q91 101 95 115Q99 129 102 150L163 646Q147 669 131.5 684.5Q116 700 85 704L94 780H376L691 354ZM392 -156Q365 -154 350 -138Q335 -122 335 -97Q335 -68 355.5 -49Q376 -30 414 -30Q458 -30 484 -56.5Q510 -83 510 -127Q510 -179 470.5 -214.5Q431 -250 342 -250L354 -203Q399 -199 416 -188Q433 -177 433 -156Z" glyph-name="Ncommaaccent" horiz-adv-x="905" unicode="&#325;" /><glyph d="M721 599Q723 623 725 637Q727 651 727 660Q727 684 711 693Q695 702 648 704L657 780H939L930 704Q902 703 884.5 699Q867 695 857.5 687Q848 679 843.5 665Q839 651 837 630L776 130L827 30L822 0H605L264 554L218 177Q216 157 214 144Q212 131 212 122Q212 97 228 87.5Q244 78 291 76L282 0H0L9 76Q37 77 54.5 80.5Q72 84 81.5 92.5Q91 101 95.5 115Q100 129 102 150L163 639Q154 652 146 663.5Q138 675 129.5 683.5Q121 692 110.5 697.5Q100 703 86 704L95 780H384L680 283ZM384 -156Q357 -154 342 -138Q327 -122 327 -97Q327 -68 347.5 -49Q368 -30 406 -30Q450 -30 476 -56.5Q502 -83 502 -127Q502 -179 462.5 -214.5Q423 -250 334 -250L346 -203Q391 -199 408 -188Q425 -177 425 -156Z" glyph-name="Ncommaaccent.hist" horiz-adv-x="914" /><glyph d="M721 603Q723 623 724.5 636Q726 649 726 658Q726 683 710.5 692.5Q695 702 648 704L657 780H933L924 704Q896 703 879 699Q862 695 852 687Q842 679 838 665Q834 651 831 630L754 0H678L259 556L212 177Q210 157 208.5 144Q207 131 207 122Q207 97 222.5 87.5Q238 78 285 76L276 0H0L9 76Q37 77 54 80.5Q71 84 81 92.5Q91 101 95 115Q99 129 102 150L163 646Q147 669 131.5 684.5Q116 700 85 704L94 780H376L691 354ZM762 1012Q739 962 719 928.5Q699 895 678 875Q657 855 634.5 847Q612 839 586 839Q565 839 545 847.5Q525 856 507 866.5Q489 877 472.5 886Q456 895 442 895Q421 895 404.5 881Q388 867 371 841L311 857Q333 907 353 940.5Q373 974 394 994Q415 1014 437.5 1022Q460 1030 486 1030Q507 1030 527 1021.5Q547 1013 565 1002.5Q583 992 599.5 983.5Q616 975 630 975Q651 975 667.5 988.5Q684 1002 702 1028Z" glyph-name="Ntilde" horiz-adv-x="905" unicode="&#209;" /><glyph d="M721 599Q723 623 725 637Q727 651 727 660Q727 684 711 693Q695 702 648 704L657 780H939L930 704Q902 703 884.5 699Q867 695 857.5 687Q848 679 843.5 665Q839 651 837 630L776 130L827 30L822 0H605L264 554L218 177Q216 157 214 144Q212 131 212 122Q212 97 228 87.5Q244 78 291 76L282 0H0L9 76Q37 77 54.5 80.5Q72 84 81.5 92.5Q91 101 95.5 115Q100 129 102 150L163 639Q154 652 146 663.5Q138 675 129.5 683.5Q121 692 110.5 697.5Q100 703 86 704L95 780H384L680 283ZM775 1012Q752 962 732 928.5Q712 895 691 875Q670 855 647.5 847Q625 839 599 839Q578 839 558 847.5Q538 856 520 866.5Q502 877 485.5 886Q469 895 455 895Q434 895 417.5 881Q401 867 384 841L324 857Q346 907 366 940.5Q386 974 407 994Q428 1014 450.5 1022Q473 1030 499 1030Q520 1030 540 1021.5Q560 1013 578 1002.5Q596 992 612.5 983.5Q629 975 643 975Q664 975 680.5 988.5Q697 1002 715 1028Z" glyph-name="Ntilde.hist" horiz-adv-x="914" /><glyph d="M406 -10Q316 -10 248 14.5Q180 39 135 83.5Q90 128 67 190.5Q44 253 44 330Q44 439 79 524.5Q114 610 173.5 669Q233 728 310 759Q387 790 471 790Q561 790 629 765.5Q697 741 742 696.5Q787 652 810 589.5Q833 527 833 450Q833 341 798 255.5Q763 170 703.5 111Q644 52 567 21Q490 -10 406 -10ZM409 78Q457 78 493 115.5Q529 153 553 212Q577 271 589 343.5Q601 416 601 485Q601 524 596 563Q591 602 576.5 632.5Q562 663 536 682.5Q510 702 468 702Q420 702 384 664.5Q348 627 324 568Q300 509 288 436.5Q276 364 276 295Q276 256 281 217Q286 178 300.5 147.5Q315 117 341 97.5Q367 78 409 78Z" glyph-name="O" horiz-adv-x="853" unicode="O" /><glyph d="M409 78Q457 78 493 115.5Q529 153 553 212Q577 271 589 343.5Q601 416 601 485Q601 524 596 563Q591 602 576.5 632.5Q562 663 536 682.5Q510 702 468 702Q420 702 384 664.5Q348 627 324 568Q300 509 288 436.5Q276 364 276 295Q276 256 281 217Q286 178 300.5 147.5Q315 117 341 97.5Q367 78 409 78ZM406 -10Q316 -10 248 14.5Q180 39 135 83.5Q90 128 67 190.5Q44 253 44 330Q44 439 79 524.5Q114 610 173.5 669Q233 728 310 759Q387 790 471 790Q500 790 526 787.5Q552 785 576 780H1213L1190 562H1102Q1093 596 1082 621Q1071 646 1055.5 662.5Q1040 679 1017 687.5Q994 696 960 696H743Q788 651 810.5 589Q833 527 833 450V444H891Q928 444 948.5 461.5Q969 479 984 529H1066L1035 274H953Q950 324 934.5 342Q919 360 882 360H826Q812 269 771.5 200.5Q731 132 673 84H887Q916 84 939 92Q962 100 985 118Q1008 136 1033 165Q1058 194 1091 236H1186L1123 0H498Q475 -5 452 -7.5Q429 -10 406 -10Z" glyph-name="OE" horiz-adv-x="1225" unicode="&#338;" /><glyph d="M406 -10Q316 -10 248 14.5Q180 39 135 83.5Q90 128 67 190.5Q44 253 44 330Q44 439 79 524.5Q114 610 173.5 669Q233 728 310 759Q387 790 471 790Q561 790 629 765.5Q697 741 742 696.5Q787 652 810 589.5Q833 527 833 450Q833 341 798 255.5Q763 170 703.5 111Q644 52 567 21Q490 -10 406 -10ZM409 78Q457 78 493 115.5Q529 153 553 212Q577 271 589 343.5Q601 416 601 485Q601 524 596 563Q591 602 576.5 632.5Q562 663 536 682.5Q510 702 468 702Q420 702 384 664.5Q348 627 324 568Q300 509 288 436.5Q276 364 276 295Q276 256 281 217Q286 178 300.5 147.5Q315 117 341 97.5Q367 78 409 78ZM777 1030 523 822H422L553 1030Z" glyph-name="Oacute" horiz-adv-x="853" unicode="&#211;" /><glyph d="M406 -10Q316 -10 248 14.5Q180 39 135 83.5Q90 128 67 190.5Q44 253 44 330Q44 439 79 524.5Q114 610 173.5 669Q233 728 310 759Q387 790 471 790Q561 790 629 765.5Q697 741 742 696.5Q787 652 810 589.5Q833 527 833 450Q833 341 798 255.5Q763 170 703.5 111Q644 52 567 21Q490 -10 406 -10ZM409 78Q457 78 493 115.5Q529 153 553 212Q577 271 589 343.5Q601 416 601 485Q601 524 596 563Q591 602 576.5 632.5Q562 663 536 682.5Q510 702 468 702Q420 702 384 664.5Q348 627 324 568Q300 509 288 436.5Q276 364 276 295Q276 256 281 217Q286 178 300.5 147.5Q315 117 341 97.5Q367 78 409 78ZM507 828Q426 828 388.5 868Q351 908 351 980Q351 1004 354 1030H417Q417 986 442.5 967Q468 948 519 948Q570 948 601.5 966.5Q633 985 647 1030H710Q698 935 651 881.5Q604 828 507 828Z" glyph-name="Obreve" horiz-adv-x="853" unicode="&#334;" /><glyph d="M721 822H620L518 914L381 822H281L467 1030H587ZM406 -10Q316 -10 248 14.5Q180 39 135 83.5Q90 128 67 190.5Q44 253 44 330Q44 439 79 524.5Q114 610 173.5 669Q233 728 310 759Q387 790 471 790Q561 790 629 765.5Q697 741 742 696.5Q787 652 810 589.5Q833 527 833 450Q833 341 798 255.5Q763 170 703.5 111Q644 52 567 21Q490 -10 406 -10ZM409 78Q457 78 493 115.5Q529 153 553 212Q577 271 589 343.5Q601 416 601 485Q601 524 596 563Q591 602 576.5 632.5Q562 663 536 682.5Q510 702 468 702Q420 702 384 664.5Q348 627 324 568Q300 509 288 436.5Q276 364 276 295Q276 256 281 217Q286 178 300.5 147.5Q315 117 341 97.5Q367 78 409 78Z" glyph-name="Ocircumflex" horiz-adv-x="853" unicode="&#212;" /><glyph d="M406 -10Q316 -10 248 14.5Q180 39 135 83.5Q90 128 67 190.5Q44 253 44 330Q44 439 79 524.5Q114 610 173.5 669Q233 728 310 759Q387 790 471 790Q561 790 629 765.5Q697 741 742 696.5Q787 652 810 589.5Q833 527 833 450Q833 341 798 255.5Q763 170 703.5 111Q644 52 567 21Q490 -10 406 -10ZM409 78Q457 78 493 115.5Q529 153 553 212Q577 271 589 343.5Q601 416 601 485Q601 524 596 563Q591 602 576.5 632.5Q562 663 536 682.5Q510 702 468 702Q420 702 384 664.5Q348 627 324 568Q300 509 288 436.5Q276 364 276 295Q276 256 281 217Q286 178 300.5 147.5Q315 117 341 97.5Q367 78 409 78ZM627 828Q583 828 559.5 854.5Q536 881 536 920Q536 965 565.5 997Q595 1029 646 1029Q691 1029 714 1002.5Q737 976 737 937Q737 915 729.5 895Q722 875 708 860Q694 845 673.5 836.5Q653 828 627 828ZM388 828Q343 828 320 854.5Q297 881 297 920Q297 965 326 997Q355 1029 407 1029Q451 1029 474.5 1002.5Q498 976 498 937Q498 915 490.5 895Q483 875 468.5 860Q454 845 433.5 836.5Q413 828 388 828Z" glyph-name="Odieresis" horiz-adv-x="853" unicode="&#214;" /><glyph d="M406 -10Q316 -10 248 14.5Q180 39 135 83.5Q90 128 67 190.5Q44 253 44 330Q44 439 79 524.5Q114 610 173.5 669Q233 728 310 759Q387 790 471 790Q561 790 629 765.5Q697 741 742 696.5Q787 652 810 589.5Q833 527 833 450Q833 341 798 255.5Q763 170 703.5 111Q644 52 567 21Q490 -10 406 -10ZM409 78Q457 78 493 115.5Q529 153 553 212Q577 271 589 343.5Q601 416 601 485Q601 524 596 563Q591 602 576.5 632.5Q562 663 536 682.5Q510 702 468 702Q420 702 384 664.5Q348 627 324 568Q300 509 288 436.5Q276 364 276 295Q276 256 281 217Q286 178 300.5 147.5Q315 117 341 97.5Q367 78 409 78ZM495 1030 557 822H466L264 1030Z" glyph-name="Ograve" horiz-adv-x="853" unicode="&#210;" /><glyph d="M810 1030 650 822H562L655 1030ZM611 1030 450 822H363L456 1030ZM406 -10Q316 -10 248 14.5Q180 39 135 83.5Q90 128 67 190.5Q44 253 44 330Q44 439 79 524.5Q114 610 173.5 669Q233 728 310 759Q387 790 471 790Q561 790 629 765.5Q697 741 742 696.5Q787 652 810 589.5Q833 527 833 450Q833 341 798 255.5Q763 170 703.5 111Q644 52 567 21Q490 -10 406 -10ZM409 78Q457 78 493 115.5Q529 153 553 212Q577 271 589 343.5Q601 416 601 485Q601 524 596 563Q591 602 576.5 632.5Q562 663 536 682.5Q510 702 468 702Q420 702 384 664.5Q348 627 324 568Q300 509 288 436.5Q276 364 276 295Q276 256 281 217Q286 178 300.5 147.5Q315 117 341 97.5Q367 78 409 78Z" glyph-name="Ohungarumlaut" horiz-adv-x="853" unicode="&#336;" /><glyph d="M406 -10Q316 -10 248 14.5Q180 39 135 83.5Q90 128 67 190.5Q44 253 44 330Q44 439 79 524.5Q114 610 173.5 669Q233 728 310 759Q387 790 471 790Q561 790 629 765.5Q697 741 742 696.5Q787 652 810 589.5Q833 527 833 450Q833 341 798 255.5Q763 170 703.5 111Q644 52 567 21Q490 -10 406 -10ZM409 78Q457 78 493 115.5Q529 153 553 212Q577 271 589 343.5Q601 416 601 485Q601 524 596 563Q591 602 576.5 632.5Q562 663 536 682.5Q510 702 468 702Q420 702 384 664.5Q348 627 324 568Q300 509 288 436.5Q276 364 276 295Q276 256 281 217Q286 178 300.5 147.5Q315 117 341 97.5Q367 78 409 78ZM368 944H667L654 842H355Z" glyph-name="Omacron" horiz-adv-x="853" unicode="&#332;" /><glyph d="M276 289 589 598Q577 642 548.5 672Q520 702 468 702Q420 702 384 664.5Q348 627 324 568Q300 509 288 436.5Q276 364 276 295ZM409 78Q457 78 493 115.5Q529 153 553 212Q577 271 589 343.5Q601 416 601 485V491L287 183Q299 138 327.5 108Q356 78 409 78ZM406 -10Q328 -10 267 8Q206 26 161 60L90 -10L34 51L104 120Q74 162 59 214.5Q44 267 44 330Q44 439 79 524.5Q114 610 173.5 669Q233 728 310 759Q387 790 471 790Q548 790 608.5 772Q669 754 714 721L784 790L843 728L773 659Q803 617 818 564.5Q833 512 833 450Q833 341 798 255.5Q763 170 703.5 111Q644 52 567 21Q490 -10 406 -10Z" glyph-name="Oslash" horiz-adv-x="853" unicode="&#216;" /><glyph d="M406 -10Q316 -10 248 14.5Q180 39 135 83.5Q90 128 67 190.5Q44 253 44 330Q44 439 79 524.5Q114 610 173.5 669Q233 728 310 759Q387 790 471 790Q561 790 629 765.5Q697 741 742 696.5Q787 652 810 589.5Q833 527 833 450Q833 341 798 255.5Q763 170 703.5 111Q644 52 567 21Q490 -10 406 -10ZM409 78Q457 78 493 115.5Q529 153 553 212Q577 271 589 343.5Q601 416 601 485Q601 524 596 563Q591 602 576.5 632.5Q562 663 536 682.5Q510 702 468 702Q420 702 384 664.5Q348 627 324 568Q300 509 288 436.5Q276 364 276 295Q276 256 281 217Q286 178 300.5 147.5Q315 117 341 97.5Q367 78 409 78ZM756 1012Q733 962 713 928.5Q693 895 672 875Q651 855 628.5 847Q606 839 580 839Q559 839 539 847.5Q519 856 501 866.5Q483 877 466.5 886Q450 895 436 895Q415 895 398.5 881Q382 867 365 841L305 857Q327 907 347 940.5Q367 974 388 994Q409 1014 431.5 1022Q454 1030 480 1030Q501 1030 521 1021.5Q541 1013 559 1002.5Q577 992 593.5 983.5Q610 975 624 975Q645 975 661.5 988.5Q678 1002 696 1028Z" glyph-name="Otilde" horiz-adv-x="853" unicode="&#213;" /><glyph d="M349 371H402Q488 371 528.5 422.5Q569 474 569 565Q569 624 537.5 660Q506 696 433 696H390ZM325 176Q323 164 322 152Q321 140 321 129Q321 112 327.5 102.5Q334 93 348 88Q362 83 384.5 80.5Q407 78 439 76L430 0H0L9 76Q37 77 54 80.5Q71 84 81 92.5Q91 101 95 115Q99 129 102 150L158 603Q160 623 161.5 636Q163 649 163 658Q163 683 147.5 692.5Q132 702 85 704L94 780H496Q560 780 614 767Q668 754 706.5 727Q745 700 766.5 658.5Q788 617 788 560Q788 494 765.5 444.5Q743 395 701 361Q659 327 599.5 310Q540 293 467 293H339Z" glyph-name="P" horiz-adv-x="785" unicode="P" /><glyph d="M474 780Q546 780 604.5 767Q663 754 703.5 726.5Q744 699 766 656Q788 613 788 554Q788 496 770 448.5Q752 401 717.5 366.5Q683 332 633.5 313Q584 294 520 294Q478 294 443 301.5Q408 309 389 319L395 371H428Q469 371 496.5 384.5Q524 398 540.5 423Q557 448 564 482Q571 516 571 557Q571 624 533 660Q495 696 423 696H390L325 176Q323 164 322 152Q321 140 321 129Q321 112 327.5 102.5Q334 93 348 88Q362 83 384.5 80.5Q407 78 439 76L430 0H0L9 76Q37 77 54 80.5Q71 84 81 92.5Q91 101 95 115Q99 129 102 150L158 603Q160 623 161.5 636Q163 649 163 658Q163 683 147.5 692.5Q132 702 85 704L94 780Z" glyph-name="P.hist" horiz-adv-x="785" /><glyph d="M409 78Q457 78 493 115.5Q529 153 553 212Q577 271 589 343.5Q601 416 601 485Q601 524 596 563Q591 602 576.5 632.5Q562 663 536 682.5Q510 702 468 702Q420 702 384 664.5Q348 627 324 568Q300 509 288 436.5Q276 364 276 295Q276 256 281 217Q286 178 300.5 147.5Q315 117 341 97.5Q367 78 409 78ZM833 450Q833 355 804 277Q775 199 726.5 141Q678 83 614.5 47Q551 11 481 0L570 -43Q619 -67 659 -79.5Q699 -92 746 -92H767V-151Q739 -176 695 -194.5Q651 -213 583 -213Q518 -213 465.5 -186.5Q413 -160 371 -103L296 3Q170 30 107 115.5Q44 201 44 330Q44 439 79 524.5Q114 610 173.5 669Q233 728 310 759Q387 790 471 790Q561 790 629 765.5Q697 741 742 696.5Q787 652 810 589.5Q833 527 833 450Z" glyph-name="Q" horiz-adv-x="853" unicode="Q" /><glyph d="M409 78Q457 78 493 115.5Q529 153 553 212Q577 271 589 343.5Q601 416 601 485Q601 524 596 563Q591 602 576.5 632.5Q562 663 536 682.5Q510 702 468 702Q420 702 384 664.5Q348 627 324 568Q300 509 288 436.5Q276 364 276 295Q276 256 281 217Q286 178 300.5 147.5Q315 117 341 97.5Q367 78 409 78ZM406 -10Q379 -36 351 -51Q391 -51 419 -57.5Q447 -64 473 -72.5Q499 -81 528 -87.5Q557 -94 600 -94Q632 -94 662 -87.5Q692 -81 716 -61L747 -91Q727 -123 702.5 -152.5Q678 -182 647 -205Q616 -228 578.5 -242Q541 -256 495 -256Q455 -256 417.5 -243Q380 -230 345.5 -215Q311 -200 279.5 -187Q248 -174 221 -174Q201 -174 183.5 -177.5Q166 -181 148 -188L120 -127Q140 -118 166.5 -103Q193 -88 219.5 -71Q246 -54 270 -36Q294 -18 310 -1Q244 11 194 39Q144 67 110.5 110Q77 153 60.5 208.5Q44 264 44 330Q44 439 79 524.5Q114 610 173.5 669Q233 728 310 759Q387 790 471 790Q561 790 629 765.5Q697 741 742 696.5Q787 652 810 589.5Q833 527 833 450Q833 341 798 255.5Q763 170 703.5 111Q644 52 567 21Q490 -10 406 -10Z" glyph-name="Q.hist" horiz-adv-x="853" /><glyph d="M323 177Q321 157 319.5 144Q318 131 318 122Q318 97 333.5 87.5Q349 78 396 76L387 0H0L9 76Q37 77 54 80.5Q71 84 81 92.5Q91 101 95 115Q99 129 102 150L158 603Q160 623 161.5 636Q163 649 163 658Q163 683 147.5 692.5Q132 702 85 704L94 780H530Q666 780 737.5 730.5Q809 681 809 585Q809 533 791 494Q773 455 742.5 428Q712 401 670 386.5Q628 372 580 368L702 187Q735 137 767 108Q799 79 847 76L838 0H598Q558 29 522.5 76.5Q487 124 456 178L369 330H342ZM387 696 351 406H392Q474 406 525 451Q576 496 576 586Q576 646 542.5 671Q509 696 446 696Z" glyph-name="R" horiz-adv-x="887" unicode="R" /><glyph d="M757 1030 503 822H402L533 1030ZM323 177Q321 157 319.5 144Q318 131 318 122Q318 97 333.5 87.5Q349 78 396 76L387 0H0L9 76Q37 77 54 80.5Q71 84 81 92.5Q91 101 95 115Q99 129 102 150L158 603Q160 623 161.5 636Q163 649 163 658Q163 683 147.5 692.5Q132 702 85 704L94 780H530Q666 780 737.5 730.5Q809 681 809 585Q809 533 791 494Q773 455 742.5 428Q712 401 670 386.5Q628 372 580 368L702 187Q735 137 767 108Q799 79 847 76L838 0H598Q558 29 522.5 76.5Q487 124 456 178L369 330H342ZM387 696 351 406H392Q474 406 525 451Q576 496 576 586Q576 646 542.5 671Q509 696 446 696Z" glyph-name="Racute" horiz-adv-x="887" unicode="&#340;" /><glyph d="M323 177Q321 157 319.5 144Q318 131 318 122Q318 97 333.5 87.5Q349 78 396 76L387 0H0L9 76Q37 77 54 80.5Q71 84 81 92.5Q91 101 95 115Q99 129 102 150L158 603Q160 623 161.5 636Q163 649 163 658Q163 683 147.5 692.5Q132 702 85 704L94 780H530Q666 780 737.5 730.5Q809 681 809 585Q809 533 791 494Q773 455 742.5 428Q712 401 670 386.5Q628 372 580 368L702 187Q735 137 767 108Q799 79 847 76L838 0H598Q558 29 522.5 76.5Q487 124 456 178L369 330H342ZM387 696 351 406H392Q474 406 525 451Q576 496 576 586Q576 646 542.5 671Q509 696 446 696ZM271 1030H372L477 938L611 1030H711L525 822H405Z" glyph-name="Rcaron" horiz-adv-x="887" unicode="&#344;" /><glyph d="M323 177Q321 157 319.5 144Q318 131 318 122Q318 97 333.5 87.5Q349 78 396 76L387 0H0L9 76Q37 77 54 80.5Q71 84 81 92.5Q91 101 95 115Q99 129 102 150L158 603Q160 623 161.5 636Q163 649 163 658Q163 683 147.5 692.5Q132 702 85 704L94 780H530Q666 780 737.5 730.5Q809 681 809 585Q809 533 791 494Q773 455 742.5 428Q712 401 670 386.5Q628 372 580 368L702 187Q735 137 767 108Q799 79 847 76L838 0H598Q558 29 522.5 76.5Q487 124 456 178L369 330H342ZM387 696 351 406H392Q474 406 525 451Q576 496 576 586Q576 646 542.5 671Q509 696 446 696ZM387 -156Q360 -154 345 -138Q330 -122 330 -97Q330 -68 350.5 -49Q371 -30 409 -30Q453 -30 479 -56.5Q505 -83 505 -127Q505 -179 465.5 -214.5Q426 -250 337 -250L349 -203Q394 -199 411 -188Q428 -177 428 -156Z" glyph-name="Rcommaaccent" horiz-adv-x="887" unicode="&#342;" /><glyph d="M320 -10Q275 -10 233 -3Q191 4 155.5 15Q120 26 91.5 41Q63 56 45 71L54 259H161Q171 172 212.5 121.5Q254 71 335 71Q385 71 415 95.5Q445 120 445 165Q445 187 437 204.5Q429 222 411 237Q393 252 364.5 266Q336 280 295 297Q250 315 211.5 336Q173 357 145 384.5Q117 412 101 449Q85 486 85 537Q85 601 108 648.5Q131 696 171 727.5Q211 759 264.5 774.5Q318 790 379 790Q470 790 535.5 768Q601 746 640 714L624 540H522Q518 574 509 605Q500 636 482 659.5Q464 683 435 697Q406 711 363 711Q315 711 290.5 688Q266 665 266 627Q266 607 272.5 592.5Q279 578 294.5 565.5Q310 553 335.5 540Q361 527 400 511Q450 490 493 466.5Q536 443 568 413Q600 383 618.5 344Q637 305 637 253Q637 189 613.5 140Q590 91 548 57.5Q506 24 447.5 7Q389 -10 320 -10Z" glyph-name="S" horiz-adv-x="694" unicode="S" /><glyph d="M683 1030 429 822H328L459 1030ZM320 -10Q275 -10 233 -3Q191 4 155.5 15Q120 26 91.5 41Q63 56 45 71L54 259H161Q171 172 212.5 121.5Q254 71 335 71Q385 71 415 95.5Q445 120 445 165Q445 187 437 204.5Q429 222 411 237Q393 252 364.5 266Q336 280 295 297Q250 315 211.5 336Q173 357 145 384.5Q117 412 101 449Q85 486 85 537Q85 601 108 648.5Q131 696 171 727.5Q211 759 264.5 774.5Q318 790 379 790Q470 790 535.5 768Q601 746 640 714L624 540H522Q518 574 509 605Q500 636 482 659.5Q464 683 435 697Q406 711 363 711Q315 711 290.5 688Q266 665 266 627Q266 607 272.5 592.5Q279 578 294.5 565.5Q310 553 335.5 540Q361 527 400 511Q450 490 493 466.5Q536 443 568 413Q600 383 618.5 344Q637 305 637 253Q637 189 613.5 140Q590 91 548 57.5Q506 24 447.5 7Q389 -10 320 -10Z" glyph-name="Sacute" horiz-adv-x="694" unicode="&#346;" /><glyph d="M204 1030H305L410 938L544 1030H644L458 822H338ZM320 -10Q275 -10 233 -3Q191 4 155.5 15Q120 26 91.5 41Q63 56 45 71L54 259H161Q171 172 212.5 121.5Q254 71 335 71Q385 71 415 95.5Q445 120 445 165Q445 187 437 204.5Q429 222 411 237Q393 252 364.5 266Q336 280 295 297Q250 315 211.5 336Q173 357 145 384.5Q117 412 101 449Q85 486 85 537Q85 601 108 648.5Q131 696 171 727.5Q211 759 264.5 774.5Q318 790 379 790Q470 790 535.5 768Q601 746 640 714L624 540H522Q518 574 509 605Q500 636 482 659.5Q464 683 435 697Q406 711 363 711Q315 711 290.5 688Q266 665 266 627Q266 607 272.5 592.5Q279 578 294.5 565.5Q310 553 335.5 540Q361 527 400 511Q450 490 493 466.5Q536 443 568 413Q600 383 618.5 344Q637 305 637 253Q637 189 613.5 140Q590 91 548 57.5Q506 24 447.5 7Q389 -10 320 -10Z" glyph-name="Scaron" horiz-adv-x="694" unicode="&#352;" /><glyph d="M312 -10 292 -46Q353 -54 380 -79Q407 -104 407 -152Q407 -176 397.5 -194.5Q388 -213 371.5 -225.5Q355 -238 332.5 -244Q310 -250 285 -250Q258 -250 233.5 -243Q209 -236 195 -227L206 -181Q221 -189 240 -195.5Q259 -202 278 -202Q292 -202 300 -197.5Q308 -193 308 -182Q308 -163 279.5 -152.5Q251 -142 191 -139L262 -7Q190 1 133 23Q76 45 45 71L54 259H161Q171 172 212.5 121.5Q254 71 335 71Q385 71 415 95.5Q445 120 445 165Q445 187 437 204.5Q429 222 411 237Q393 252 364.5 266Q336 280 295 297Q250 315 211.5 336Q173 357 145 384.5Q117 412 101 449Q85 486 85 537Q85 601 108 648.5Q131 696 171 727.5Q211 759 264.5 774.5Q318 790 379 790Q470 790 535.5 768Q601 746 640 714L624 540H522Q518 574 509 605Q500 636 482 659.5Q464 683 435 697Q406 711 363 711Q315 711 290.5 688Q266 665 266 627Q266 607 272.5 592.5Q279 578 294.5 565.5Q310 553 335.5 540Q361 527 400 511Q450 490 493 466.5Q536 443 568 413Q600 383 618.5 344Q637 305 637 253Q637 189 613.5 140Q590 91 548 57.5Q506 24 447.5 7Q389 -10 320 -10Z" glyph-name="Scedilla" horiz-adv-x="694" unicode="&#350;" /><glyph d="M617 822H516L414 914L277 822H177L363 1030H483ZM320 -10Q275 -10 233 -3Q191 4 155.5 15Q120 26 91.5 41Q63 56 45 71L54 259H161Q171 172 212.5 121.5Q254 71 335 71Q385 71 415 95.5Q445 120 445 165Q445 187 437 204.5Q429 222 411 237Q393 252 364.5 266Q336 280 295 297Q250 315 211.5 336Q173 357 145 384.5Q117 412 101 449Q85 486 85 537Q85 601 108 648.5Q131 696 171 727.5Q211 759 264.5 774.5Q318 790 379 790Q470 790 535.5 768Q601 746 640 714L624 540H522Q518 574 509 605Q500 636 482 659.5Q464 683 435 697Q406 711 363 711Q315 711 290.5 688Q266 665 266 627Q266 607 272.5 592.5Q279 578 294.5 565.5Q310 553 335.5 540Q361 527 400 511Q450 490 493 466.5Q536 443 568 413Q600 383 618.5 344Q637 305 637 253Q637 189 613.5 140Q590 91 548 57.5Q506 24 447.5 7Q389 -10 320 -10Z" glyph-name="Scircumflex" horiz-adv-x="694" unicode="&#348;" /><glyph d="M320 -10Q275 -10 233 -3Q191 4 155.5 15Q120 26 91.5 41Q63 56 45 71L54 259H161Q171 172 212.5 121.5Q254 71 335 71Q385 71 415 95.5Q445 120 445 165Q445 187 437 204.5Q429 222 411 237Q393 252 364.5 266Q336 280 295 297Q250 315 211.5 336Q173 357 145 384.5Q117 412 101 449Q85 486 85 537Q85 601 108 648.5Q131 696 171 727.5Q211 759 264.5 774.5Q318 790 379 790Q470 790 535.5 768Q601 746 640 714L624 540H522Q518 574 509 605Q500 636 482 659.5Q464 683 435 697Q406 711 363 711Q315 711 290.5 688Q266 665 266 627Q266 607 272.5 592.5Q279 578 294.5 565.5Q310 553 335.5 540Q361 527 400 511Q450 490 493 466.5Q536 443 568 413Q600 383 618.5 344Q637 305 637 253Q637 189 613.5 140Q590 91 548 57.5Q506 24 447.5 7Q389 -10 320 -10ZM271 -156Q244 -154 229 -138Q214 -122 214 -97Q214 -68 234.5 -49Q255 -30 293 -30Q337 -30 363 -56.5Q389 -83 389 -127Q389 -179 349.5 -214.5Q310 -250 221 -250L233 -203Q278 -199 295 -188Q312 -177 312 -156Z" glyph-name="Scommaaccent" horiz-adv-x="694" unicode="&#536;" /><glyph d="M333 702Q299 702 273.5 689.5Q248 677 226.5 652.5Q205 628 185 592.5Q165 557 142 512H42L90 780H850L833 512H737Q725 556 713.5 591Q702 626 685.5 651Q669 676 646 689Q623 702 590 702H571L506 177Q504 157 502.5 144Q501 131 501 122Q501 97 516.5 87.5Q532 78 579 76L570 0H181L190 76Q218 77 235 80.5Q252 84 262 92.5Q272 101 276 115Q280 129 283 150L351 702Z" glyph-name="T" horiz-adv-x="821" unicode="T" /><glyph d="M333 702Q299 702 273.5 689.5Q248 677 226.5 652.5Q205 628 185 592.5Q165 557 142 512H42L90 780H850L833 512H737Q725 556 713.5 591Q702 626 685.5 651Q669 676 646 689Q623 702 590 702H571L536 421H674L666 350H527L506 177Q504 157 502.5 144Q501 131 501 122Q501 97 516.5 87.5Q532 78 579 76L570 0H181L190 76Q218 77 235 80.5Q252 84 262 92.5Q272 101 276 115Q280 129 283 150L307 350H170L178 421H316L351 702Z" glyph-name="Tbar" horiz-adv-x="821" unicode="&#358;" /><glyph d="M333 702Q299 702 273.5 689.5Q248 677 226.5 652.5Q205 628 185 592.5Q165 557 142 512H42L90 780H850L833 512H737Q725 556 713.5 591Q702 626 685.5 651Q669 676 646 689Q623 702 590 702H571L506 177Q504 157 502.5 144Q501 131 501 122Q501 97 516.5 87.5Q532 78 579 76L570 0H181L190 76Q218 77 235 80.5Q252 84 262 92.5Q272 101 276 115Q280 129 283 150L351 702ZM280 1030H381L486 938L620 1030H720L534 822H414Z" glyph-name="Tcaron" horiz-adv-x="821" unicode="&#356;" /><glyph d="M333 702Q299 702 273.5 689.5Q248 677 226.5 652.5Q205 628 185 592.5Q165 557 142 512H42L90 780H850L833 512H737Q725 556 713.5 591Q702 626 685.5 651Q669 676 646 689Q623 702 590 702H571L506 177Q504 157 502.5 144Q501 131 501 122Q501 97 516.5 87.5Q532 78 579 76L570 0H181L190 76Q218 77 235 80.5Q252 84 262 92.5Q272 101 276 115Q280 129 283 150L351 702ZM337 -156Q310 -154 295 -138Q280 -122 280 -97Q280 -68 300.5 -49Q321 -30 359 -30Q403 -30 429 -56.5Q455 -83 455 -127Q455 -179 415.5 -214.5Q376 -250 287 -250L299 -203Q344 -199 361 -188Q378 -177 378 -156Z" glyph-name="Tcommaaccent" horiz-adv-x="821" unicode="&#354;" /><glyph d="M324 167Q322 153 321 143.5Q320 134 320 129Q320 112 326.5 102.5Q333 93 347.5 88Q362 83 384.5 80.5Q407 78 439 76L430 0H0L9 76Q37 77 54 80.5Q71 84 81 92.5Q91 101 95 115Q99 129 102 150L158 603Q160 623 161.5 636Q163 649 163 658Q163 683 147.5 692.5Q132 702 85 704L94 780H483L474 704Q446 703 429 699Q412 695 402.5 687Q393 679 388.5 665Q384 651 381 630L380 624H467Q531 624 584.5 611Q638 598 677 572Q716 546 737.5 506.5Q759 467 759 413Q759 350 737.5 303.5Q716 257 677 226.5Q638 196 584.5 181.5Q531 167 467 167ZM333 244H376Q462 244 501 281.5Q540 319 540 409Q540 438 532.5 462Q525 486 508.5 503.5Q492 521 465.5 530.5Q439 540 400 540H370Z" glyph-name="Thorn" horiz-adv-x="765" unicode="&#222;" /><glyph d="M491 167Q449 167 419 174.5Q389 182 370 192L376 244H399Q471 244 505.5 283.5Q540 323 540 413Q540 476 505 508Q470 540 395 540H370L325 176Q323 164 322 152Q321 140 321 129Q321 112 327.5 102.5Q334 93 348 88Q362 83 384.5 80.5Q407 78 439 76L430 0H0L9 76Q37 77 54 80.5Q71 84 81 92.5Q91 101 95 115Q99 129 102 150L158 603Q160 623 161.5 636Q163 649 163 658Q163 683 147.5 692.5Q132 702 85 704L94 780H483L474 704Q446 703 429 699Q412 695 402.5 687Q393 679 388.5 665Q384 651 381 630L380 624H450Q518 624 575 612Q632 600 673 574.5Q714 549 736.5 508.5Q759 468 759 410Q759 289 687 228Q615 167 491 167Z" glyph-name="Thorn.hist" horiz-adv-x="765" /><glyph d="M135 603Q137 623 138.5 636Q140 649 140 658Q140 683 124.5 692.5Q109 702 62 704L71 780H460L451 704Q423 703 406 699Q389 695 379 687Q369 679 365 665Q361 651 358 630L320 318Q318 300 316.5 285.5Q315 271 315 250Q315 185 348 145.5Q381 106 453 106Q493 106 526.5 115.5Q560 125 585 147Q610 169 626 206Q642 243 649 297L688 603Q690 623 691.5 636Q693 649 693 658Q693 683 677.5 692.5Q662 702 615 704L624 780H900L891 704Q863 703 846 699Q829 695 819 687Q809 679 805 665Q801 651 798 630L753 271Q744 197 714 144Q684 91 638.5 56.5Q593 22 534.5 6Q476 -10 410 -10Q254 -10 173.5 53.5Q93 117 93 235Q93 253 94.5 270.5Q96 288 100 319Z" glyph-name="U" horiz-adv-x="854" unicode="U" /><glyph d="M135 603Q137 623 138.5 636Q140 649 140 658Q140 683 124.5 692.5Q109 702 62 704L71 780H460L451 704Q423 703 406 699Q389 695 379 687Q369 679 365 665Q361 651 358 630L320 318Q318 300 316.5 285.5Q315 271 315 250Q315 185 348 145.5Q381 106 453 106Q493 106 526.5 115.5Q560 125 585 147Q610 169 626 206Q642 243 649 297L688 603Q690 623 691.5 636Q693 649 693 658Q693 683 677.5 692.5Q662 702 615 704L624 780H900L891 704Q863 703 846 699Q829 695 819 687Q809 679 805 665Q801 651 798 630L753 271Q744 197 714 144Q684 91 638.5 56.5Q593 22 534.5 6Q476 -10 410 -10Q254 -10 173.5 53.5Q93 117 93 235Q93 253 94.5 270.5Q96 288 100 319ZM796 1030 542 822H441L572 1030Z" glyph-name="Uacute" horiz-adv-x="854" unicode="&#218;" /><glyph d="M135 603Q137 623 138.5 636Q140 649 140 658Q140 683 124.5 692.5Q109 702 62 704L71 780H460L451 704Q423 703 406 699Q389 695 379 687Q369 679 365 665Q361 651 358 630L320 318Q318 300 316.5 285.5Q315 271 315 250Q315 185 348 145.5Q381 106 453 106Q493 106 526.5 115.5Q560 125 585 147Q610 169 626 206Q642 243 649 297L688 603Q690 623 691.5 636Q693 649 693 658Q693 683 677.5 692.5Q662 702 615 704L624 780H900L891 704Q863 703 846 699Q829 695 819 687Q809 679 805 665Q801 651 798 630L753 271Q744 197 714 144Q684 91 638.5 56.5Q593 22 534.5 6Q476 -10 410 -10Q254 -10 173.5 53.5Q93 117 93 235Q93 253 94.5 270.5Q96 288 100 319ZM529 828Q448 828 410.5 868Q373 908 373 980Q373 1004 376 1030H439Q439 986 464.5 967Q490 948 541 948Q592 948 623.5 966.5Q655 985 669 1030H732Q720 935 673 881.5Q626 828 529 828Z" glyph-name="Ubreve" horiz-adv-x="854" unicode="&#364;" /><glyph d="M736 822H635L533 914L396 822H296L482 1030H602ZM135 603Q137 623 138.5 636Q140 649 140 658Q140 683 124.5 692.5Q109 702 62 704L71 780H460L451 704Q423 703 406 699Q389 695 379 687Q369 679 365 665Q361 651 358 630L320 318Q318 300 316.5 285.5Q315 271 315 250Q315 185 348 145.5Q381 106 453 106Q493 106 526.5 115.5Q560 125 585 147Q610 169 626 206Q642 243 649 297L688 603Q690 623 691.5 636Q693 649 693 658Q693 683 677.5 692.5Q662 702 615 704L624 780H900L891 704Q863 703 846 699Q829 695 819 687Q809 679 805 665Q801 651 798 630L753 271Q744 197 714 144Q684 91 638.5 56.5Q593 22 534.5 6Q476 -10 410 -10Q254 -10 173.5 53.5Q93 117 93 235Q93 253 94.5 270.5Q96 288 100 319Z" glyph-name="Ucircumflex" horiz-adv-x="854" unicode="&#219;" /><glyph d="M135 603Q137 623 138.5 636Q140 649 140 658Q140 683 124.5 692.5Q109 702 62 704L71 780H460L451 704Q423 703 406 699Q389 695 379 687Q369 679 365 665Q361 651 358 630L320 318Q318 300 316.5 285.5Q315 271 315 250Q315 185 348 145.5Q381 106 453 106Q493 106 526.5 115.5Q560 125 585 147Q610 169 626 206Q642 243 649 297L688 603Q690 623 691.5 636Q693 649 693 658Q693 683 677.5 692.5Q662 702 615 704L624 780H900L891 704Q863 703 846 699Q829 695 819 687Q809 679 805 665Q801 651 798 630L753 271Q744 197 714 144Q684 91 638.5 56.5Q593 22 534.5 6Q476 -10 410 -10Q254 -10 173.5 53.5Q93 117 93 235Q93 253 94.5 270.5Q96 288 100 319ZM650 828Q606 828 582.5 854.5Q559 881 559 920Q559 965 588.5 997Q618 1029 669 1029Q714 1029 737 1002.5Q760 976 760 937Q760 915 752.5 895Q745 875 731 860Q717 845 696.5 836.5Q676 828 650 828ZM411 828Q366 828 343 854.5Q320 881 320 920Q320 965 349 997Q378 1029 430 1029Q474 1029 497.5 1002.5Q521 976 521 937Q521 915 513.5 895Q506 875 491.5 860Q477 845 456.5 836.5Q436 828 411 828Z" glyph-name="Udieresis" horiz-adv-x="854" unicode="&#220;" /><glyph d="M135 603Q137 623 138.5 636Q140 649 140 658Q140 683 124.5 692.5Q109 702 62 704L71 780H460L451 704Q423 703 406 699Q389 695 379 687Q369 679 365 665Q361 651 358 630L320 318Q318 300 316.5 285.5Q315 271 315 250Q315 185 348 145.5Q381 106 453 106Q493 106 526.5 115.5Q560 125 585 147Q610 169 626 206Q642 243 649 297L688 603Q690 623 691.5 636Q693 649 693 658Q693 683 677.5 692.5Q662 702 615 704L624 780H900L891 704Q863 703 846 699Q829 695 819 687Q809 679 805 665Q801 651 798 630L753 271Q744 197 714 144Q684 91 638.5 56.5Q593 22 534.5 6Q476 -10 410 -10Q254 -10 173.5 53.5Q93 117 93 235Q93 253 94.5 270.5Q96 288 100 319ZM516 1030 578 822H487L285 1030Z" glyph-name="Ugrave" horiz-adv-x="854" unicode="&#217;" /><glyph d="M822 1030 662 822H574L667 1030ZM623 1030 462 822H375L468 1030ZM135 603Q137 623 138.5 636Q140 649 140 658Q140 683 124.5 692.5Q109 702 62 704L71 780H460L451 704Q423 703 406 699Q389 695 379 687Q369 679 365 665Q361 651 358 630L320 318Q318 300 316.5 285.5Q315 271 315 250Q315 185 348 145.5Q381 106 453 106Q493 106 526.5 115.5Q560 125 585 147Q610 169 626 206Q642 243 649 297L688 603Q690 623 691.5 636Q693 649 693 658Q693 683 677.5 692.5Q662 702 615 704L624 780H900L891 704Q863 703 846 699Q829 695 819 687Q809 679 805 665Q801 651 798 630L753 271Q744 197 714 144Q684 91 638.5 56.5Q593 22 534.5 6Q476 -10 410 -10Q254 -10 173.5 53.5Q93 117 93 235Q93 253 94.5 270.5Q96 288 100 319Z" glyph-name="Uhungarumlaut" horiz-adv-x="854" unicode="&#368;" /><glyph d="M135 603Q137 623 138.5 636Q140 649 140 658Q140 683 124.5 692.5Q109 702 62 704L71 780H460L451 704Q423 703 406 699Q389 695 379 687Q369 679 365 665Q361 651 358 630L320 318Q318 300 316.5 285.5Q315 271 315 250Q315 185 348 145.5Q381 106 453 106Q493 106 526.5 115.5Q560 125 585 147Q610 169 626 206Q642 243 649 297L688 603Q690 623 691.5 636Q693 649 693 658Q693 683 677.5 692.5Q662 702 615 704L624 780H900L891 704Q863 703 846 699Q829 695 819 687Q809 679 805 665Q801 651 798 630L753 271Q744 197 714 144Q684 91 638.5 56.5Q593 22 534.5 6Q476 -10 410 -10Q254 -10 173.5 53.5Q93 117 93 235Q93 253 94.5 270.5Q96 288 100 319ZM389 944H688L675 842H376Z" glyph-name="Umacron" horiz-adv-x="854" unicode="&#362;" /><glyph d="M135 603Q137 623 138.5 636Q140 649 140 658Q140 683 124.5 692.5Q109 702 62 704L71 780H460L451 704Q423 703 406 699Q389 695 379 687Q369 679 365 665Q361 651 358 630L320 318Q318 300 316.5 285.5Q315 271 315 250Q315 185 348 145.5Q381 106 453 106Q493 106 526.5 115.5Q560 125 585 147Q610 169 626 206Q642 243 649 297L688 603Q690 623 691.5 636Q693 649 693 658Q693 683 677.5 692.5Q662 702 615 704L624 780H900L891 704Q863 703 846 699Q829 695 819 687Q809 679 805 665Q801 651 798 630L753 271Q739 160 680 95.5Q621 31 534 6Q476 -25 454 -60Q432 -95 432 -130Q432 -149 442.5 -157Q453 -165 471 -165Q512 -165 546 -141L554 -189Q526 -213 489 -231.5Q452 -250 404 -250Q348 -250 322.5 -224.5Q297 -199 297 -155Q297 -120 323.5 -82Q350 -44 396 -10Q247 -7 170 56Q93 119 93 235Q93 253 94.5 270.5Q96 288 100 319Z" glyph-name="Uogonek" horiz-adv-x="854" unicode="&#370;" /><glyph d="M652 936Q652 910 642.5 887Q633 864 616 847.5Q599 831 575.5 821.5Q552 812 524 812Q470 812 438 841.5Q406 871 406 916Q406 942 415.5 965Q425 988 442 1004.5Q459 1021 482.5 1030.5Q506 1040 534 1040Q588 1040 620 1010.5Q652 981 652 936ZM577 931Q577 948 567 960.5Q557 973 534 973Q512 973 496.5 959Q481 945 481 921Q481 904 491 891.5Q501 879 524 879Q546 879 561.5 893Q577 907 577 931ZM135 603Q137 623 138.5 636Q140 649 140 658Q140 683 124.5 692.5Q109 702 62 704L71 780H460L451 704Q423 703 406 699Q389 695 379 687Q369 679 365 665Q361 651 358 630L320 318Q318 300 316.5 285.5Q315 271 315 250Q315 185 348 145.5Q381 106 453 106Q493 106 526.5 115.5Q560 125 585 147Q610 169 626 206Q642 243 649 297L688 603Q690 623 691.5 636Q693 649 693 658Q693 683 677.5 692.5Q662 702 615 704L624 780H900L891 704Q863 703 846 699Q829 695 819 687Q809 679 805 665Q801 651 798 630L753 271Q744 197 714 144Q684 91 638.5 56.5Q593 22 534.5 6Q476 -10 410 -10Q254 -10 173.5 53.5Q93 117 93 235Q93 253 94.5 270.5Q96 288 100 319Z" glyph-name="Uring" horiz-adv-x="854" unicode="&#366;" /><glyph d="M135 603Q137 623 138.5 636Q140 649 140 658Q140 683 124.5 692.5Q109 702 62 704L71 780H460L451 704Q423 703 406 699Q389 695 379 687Q369 679 365 665Q361 651 358 630L320 318Q318 300 316.5 285.5Q315 271 315 250Q315 185 348 145.5Q381 106 453 106Q493 106 526.5 115.5Q560 125 585 147Q610 169 626 206Q642 243 649 297L688 603Q690 623 691.5 636Q693 649 693 658Q693 683 677.5 692.5Q662 702 615 704L624 780H900L891 704Q863 703 846 699Q829 695 819 687Q809 679 805 665Q801 651 798 630L753 271Q744 197 714 144Q684 91 638.5 56.5Q593 22 534.5 6Q476 -10 410 -10Q254 -10 173.5 53.5Q93 117 93 235Q93 253 94.5 270.5Q96 288 100 319ZM768 1012Q745 962 725 928.5Q705 895 684 875Q663 855 640.5 847Q618 839 592 839Q571 839 551 847.5Q531 856 513 866.5Q495 877 478.5 886Q462 895 448 895Q427 895 410.5 881Q394 867 377 841L317 857Q339 907 359 940.5Q379 974 400 994Q421 1014 443.5 1022Q466 1030 492 1030Q513 1030 533 1021.5Q553 1013 571 1002.5Q589 992 605.5 983.5Q622 975 636 975Q657 975 673.5 988.5Q690 1002 708 1028Z" glyph-name="Utilde" horiz-adv-x="854" unicode="&#360;" /><glyph d="M659 617Q676 645 676 667Q676 686 660 694Q644 702 604 704L613 780H885L876 704Q851 700 835.5 692.5Q820 685 806 663L397 -3H330L113 663Q106 685 91.5 693.5Q77 702 53 704L62 780H443L434 704Q383 702 366.5 689.5Q350 677 350 652Q350 641 353 628.5Q356 616 362 596L462 285Z" glyph-name="V" horiz-adv-x="829" unicode="V" /><glyph d="M879 780 870 704Q819 702 803 690Q787 678 787 648Q787 640 789.5 624.5Q792 609 798 583L858 313L1007 611Q1015 631 1020 643.5Q1025 656 1025 670Q1025 687 1010 694.5Q995 702 953 704L962 780H1227L1218 704Q1194 700 1176.5 691.5Q1159 683 1148 663L805 -3H717L621 404L389 -3H298L113 663Q106 686 91.5 693Q77 700 53 704L62 780H444L435 704Q387 702 369.5 690.5Q352 679 352 652Q352 641 355 626Q358 611 366 582L449 280L592 526L560 663Q555 686 539.5 693Q524 700 500 704L509 780Z" glyph-name="W" horiz-adv-x="1171" unicode="W" /><glyph d="M979 1030 725 822H624L755 1030ZM879 780 870 704Q819 702 803 690Q787 678 787 648Q787 640 789.5 624.5Q792 609 798 583L858 313L1007 611Q1015 631 1020 643.5Q1025 656 1025 670Q1025 687 1010 694.5Q995 702 953 704L962 780H1227L1218 704Q1194 700 1176.5 691.5Q1159 683 1148 663L805 -3H717L621 404L389 -3H298L113 663Q106 686 91.5 693Q77 700 53 704L62 780H444L435 704Q387 702 369.5 690.5Q352 679 352 652Q352 641 355 626Q358 611 366 582L449 280L592 526L560 663Q555 686 539.5 693Q524 700 500 704L509 780Z" glyph-name="Wacute" horiz-adv-x="1171" unicode="&#7810;" /><glyph d="M913 822H812L710 914L573 822H473L659 1030H779ZM879 780 870 704Q819 702 803 690Q787 678 787 648Q787 640 789.5 624.5Q792 609 798 583L858 313L1007 611Q1015 631 1020 643.5Q1025 656 1025 670Q1025 687 1010 694.5Q995 702 953 704L962 780H1227L1218 704Q1194 700 1176.5 691.5Q1159 683 1148 663L805 -3H717L621 404L389 -3H298L113 663Q106 686 91.5 693Q77 700 53 704L62 780H444L435 704Q387 702 369.5 690.5Q352 679 352 652Q352 641 355 626Q358 611 366 582L449 280L592 526L560 663Q555 686 539.5 693Q524 700 500 704L509 780Z" glyph-name="Wcircumflex" horiz-adv-x="1171" unicode="&#372;" /><glyph d="M819 828Q775 828 751.5 854.5Q728 881 728 920Q728 965 757.5 997Q787 1029 838 1029Q883 1029 906 1002.5Q929 976 929 937Q929 915 921.5 895Q914 875 900 860Q886 845 865.5 836.5Q845 828 819 828ZM580 828Q535 828 512 854.5Q489 881 489 920Q489 965 518 997Q547 1029 599 1029Q643 1029 666.5 1002.5Q690 976 690 937Q690 915 682.5 895Q675 875 660.5 860Q646 845 625.5 836.5Q605 828 580 828ZM879 780 870 704Q819 702 803 690Q787 678 787 648Q787 640 789.5 624.5Q792 609 798 583L858 313L1007 611Q1015 631 1020 643.5Q1025 656 1025 670Q1025 687 1010 694.5Q995 702 953 704L962 780H1227L1218 704Q1194 700 1176.5 691.5Q1159 683 1148 663L805 -3H717L621 404L389 -3H298L113 663Q106 686 91.5 693Q77 700 53 704L62 780H444L435 704Q387 702 369.5 690.5Q352 679 352 652Q352 641 355 626Q358 611 366 582L449 280L592 526L560 663Q555 686 539.5 693Q524 700 500 704L509 780Z" glyph-name="Wdieresis" horiz-adv-x="1171" unicode="&#7812;" /><glyph d="M677 1030 739 822H648L446 1030ZM879 780 870 704Q819 702 803 690Q787 678 787 648Q787 640 789.5 624.5Q792 609 798 583L858 313L1007 611Q1015 631 1020 643.5Q1025 656 1025 670Q1025 687 1010 694.5Q995 702 953 704L962 780H1227L1218 704Q1194 700 1176.5 691.5Q1159 683 1148 663L805 -3H717L621 404L389 -3H298L113 663Q106 686 91.5 693Q77 700 53 704L62 780H444L435 704Q387 702 369.5 690.5Q352 679 352 652Q352 641 355 626Q358 611 366 582L449 280L592 526L560 663Q555 686 539.5 693Q524 700 500 704L509 780Z" glyph-name="Wgrave" horiz-adv-x="1171" unicode="&#7808;" /><glyph d="M384 315 239 159Q225 144 217.5 132.5Q210 121 210 107Q210 91 221 83.5Q232 76 265 76L256 0H-35L-26 76Q6 78 30 89Q54 100 65 111L331 393L152 669Q148 673 134 685Q120 697 102 704L111 780H492L483 704Q420 704 420 666Q420 656 424.5 645.5Q429 635 440 618L498 526L579 616Q595 634 603.5 644.5Q612 655 612 670Q612 685 600.5 694.5Q589 704 557 704L566 780H851L843 704Q808 699 789 689.5Q770 680 759 669L550 444L756 111Q765 98 780 90Q795 82 815 76L806 0H433L442 76Q473 76 485 84.5Q497 93 497 112Q497 121 493.5 131.5Q490 142 479 159Z" glyph-name="X" horiz-adv-x="840" unicode="X" /><glyph d="M289 270 113 663Q103 685 90 692.5Q77 700 53 704L62 780H460L451 704Q401 702 383.5 690Q366 678 366 648Q366 640 370 625Q374 610 381 593L466 384L620 611Q641 642 641 667Q641 687 625.5 694.5Q610 702 568 704L577 780H854L845 704Q821 700 806 692.5Q791 685 775 663L499 269L487 177Q484 157 483 144Q482 131 482 122Q482 97 497.5 87.5Q513 78 560 76L551 0H172L181 76Q209 77 226 80.5Q243 84 253 92.5Q263 101 267 115Q271 129 274 150Z" glyph-name="Y" horiz-adv-x="798" unicode="Y" /><glyph d="M791 1030 537 822H436L567 1030ZM289 270 113 663Q103 685 90 692.5Q77 700 53 704L62 780H460L451 704Q401 702 383.5 690Q366 678 366 648Q366 640 370 625Q374 610 381 593L466 384L620 611Q641 642 641 667Q641 687 625.5 694.5Q610 702 568 704L577 780H854L845 704Q821 700 806 692.5Q791 685 775 663L499 269L487 177Q484 157 483 144Q482 131 482 122Q482 97 497.5 87.5Q513 78 560 76L551 0H172L181 76Q209 77 226 80.5Q243 84 253 92.5Q263 101 267 115Q271 129 274 150Z" glyph-name="Yacute" horiz-adv-x="798" unicode="&#221;" /><glyph d="M728 822H627L525 914L388 822H288L474 1030H594ZM289 270 113 663Q103 685 90 692.5Q77 700 53 704L62 780H460L451 704Q401 702 383.5 690Q366 678 366 648Q366 640 370 625Q374 610 381 593L466 384L620 611Q641 642 641 667Q641 687 625.5 694.5Q610 702 568 704L577 780H854L845 704Q821 700 806 692.5Q791 685 775 663L499 269L487 177Q484 157 483 144Q482 131 482 122Q482 97 497.5 87.5Q513 78 560 76L551 0H172L181 76Q209 77 226 80.5Q243 84 253 92.5Q263 101 267 115Q271 129 274 150Z" glyph-name="Ycircumflex" horiz-adv-x="798" unicode="&#374;" /><glyph d="M635 828Q591 828 567.5 854.5Q544 881 544 920Q544 965 573.5 997Q603 1029 654 1029Q699 1029 722 1002.5Q745 976 745 937Q745 915 737.5 895Q730 875 716 860Q702 845 681.5 836.5Q661 828 635 828ZM396 828Q351 828 328 854.5Q305 881 305 920Q305 965 334 997Q363 1029 415 1029Q459 1029 482.5 1002.5Q506 976 506 937Q506 915 498.5 895Q491 875 476.5 860Q462 845 441.5 836.5Q421 828 396 828ZM289 270 113 663Q103 685 90 692.5Q77 700 53 704L62 780H460L451 704Q401 702 383.5 690Q366 678 366 648Q366 640 370 625Q374 610 381 593L466 384L620 611Q641 642 641 667Q641 687 625.5 694.5Q610 702 568 704L577 780H854L845 704Q821 700 806 692.5Q791 685 775 663L499 269L487 177Q484 157 483 144Q482 131 482 122Q482 97 497.5 87.5Q513 78 560 76L551 0H172L181 76Q209 77 226 80.5Q243 84 253 92.5Q263 101 267 115Q271 129 274 150Z" glyph-name="Ydieresis" horiz-adv-x="798" unicode="&#376;" /><glyph d="M426 84Q456 84 480.5 95Q505 106 529 128Q553 150 578 182.5Q603 215 634 258H732L666 0H0L6 57L480 696H363Q332 696 310 686Q288 676 269.5 657Q251 638 233.5 609Q216 580 195 543H100L131 780H768L761 722L280 84Z" glyph-name="Z" horiz-adv-x="764" unicode="Z" /><glyph d="M733 1030 479 822H378L509 1030ZM426 84Q456 84 480.5 95Q505 106 529 128Q553 150 578 182.5Q603 215 634 258H732L666 0H0L6 57L480 696H363Q332 696 310 686Q288 676 269.5 657Q251 638 233.5 609Q216 580 195 543H100L131 780H768L761 722L280 84Z" glyph-name="Zacute" horiz-adv-x="764" unicode="&#377;" /><glyph d="M426 84Q456 84 480.5 95Q505 106 529 128Q553 150 578 182.5Q603 215 634 258H732L666 0H0L6 57L480 696H363Q332 696 310 686Q288 676 269.5 657Q251 638 233.5 609Q216 580 195 543H100L131 780H768L761 722L280 84ZM264 1030H365L470 938L604 1030H704L518 822H398Z" glyph-name="Zcaron" horiz-adv-x="764" unicode="&#381;" /><glyph d="M426 84Q456 84 480.5 95Q505 106 529 128Q553 150 578 182.5Q603 215 634 258H732L666 0H0L6 57L480 696H363Q332 696 310 686Q288 676 269.5 657Q251 638 233.5 609Q216 580 195 543H100L131 780H768L761 722L280 84ZM458 829Q412 829 388 856Q364 883 364 924Q364 971 393.5 1003.5Q423 1036 477 1036Q522 1036 546.5 1009Q571 982 571 941Q571 895 541 862Q511 829 458 829Z" glyph-name="Zdotaccent" horiz-adv-x="764" unicode="&#379;" /><glyph d="M396 100Q396 140 408 181.5Q420 223 434 268H426Q415 238 400 206Q385 174 362 133Q327 69 281 29.5Q235 -10 168 -10Q104 -10 66 37Q28 84 28 170Q28 248 54 319Q80 390 128 444.5Q176 499 244.5 531Q313 563 399 563Q493 563 551 514L617 570H691L653 454Q641 406 630 355.5Q619 305 611 259Q603 213 598 175.5Q593 138 593 117Q593 94 610 94Q623 94 636.5 102Q650 110 670 126L706 88Q680 62 656.5 43.5Q633 25 609 13Q585 1 559.5 -4.5Q534 -10 504 -10Q447 -10 421.5 19.5Q396 49 396 100ZM260 124Q292 124 320.5 161.5Q349 199 379 261Q393 289 406.5 320.5Q420 352 431.5 382.5Q443 413 451.5 440.5Q460 468 464 488Q456 494 443 498Q430 502 412 502Q384 502 359.5 487.5Q335 473 313.5 448Q292 423 275 391Q258 359 246 323.5Q234 288 227.5 252.5Q221 217 221 185Q221 156 229.5 140Q238 124 260 124Z" glyph-name="a" horiz-adv-x="723" unicode="a" /><glyph d="M204 217H386L325 399ZM410 144H156L152 138Q142 123 142 107Q142 91 155 84.5Q168 78 206 75L199 0H-29L-20 75Q12 80 24.5 92Q37 104 49 123L289 485L253 586H478L636 123Q642 105 652.5 92.5Q663 80 694 75L685 0H332L341 75Q383 76 399.5 85.5Q416 95 416 112Q416 118 415 125Q414 132 412 139Z" glyph-name="a.smcp" horiz-adv-x="733" unicode="&#57857;" /><glyph d="M299 423Q299 450 308 478.5Q317 507 327 539H320Q312 518 302.5 496Q293 474 273 441Q247 396 215.5 370.5Q184 345 138 345Q93 345 64 377.5Q35 410 35 470Q35 525 53.5 575Q72 625 106.5 662.5Q141 700 190.5 722Q240 744 301 744Q330 744 359.5 737.5Q389 731 415 710L459 749H524L499 669Q490 635 482.5 600Q475 565 469 533.5Q463 502 460 477Q457 452 457 437Q457 419 468 419Q478 419 485.5 423.5Q493 428 508 441L535 413Q516 395 499 382Q482 369 464.5 360.5Q447 352 428 348.5Q409 345 387 345Q346 345 322.5 365.5Q299 386 299 423ZM209 446Q232 446 250.5 469.5Q269 493 289 536Q308 576 324 620Q340 664 346 693Q333 698 313 698Q289 698 266 676.5Q243 655 226 622.5Q209 590 198.5 552Q188 514 188 481Q188 446 209 446Z" glyph-name="a.superior" horiz-adv-x="511" unicode="&#58209;" /><glyph d="M299 423Q299 450 306 478.5Q313 507 323 539H320Q312 518 300.5 496Q289 474 270 441Q250 399 217 372Q184 345 138 345Q93 345 66 377.5Q39 410 39 470Q39 525 57 575Q75 625 109 662.5Q143 700 191.5 722Q240 744 301 744Q330 744 357.5 737.5Q385 731 411 710L455 749H510L485 669Q476 635 468.5 600Q461 565 455 533.5Q449 502 446 477Q443 452 443 437Q443 419 454 419Q464 419 471.5 423.5Q479 428 494 441L521 413Q502 395 485 382Q468 369 450.5 360.5Q433 352 413.5 348.5Q394 345 372 345Q332 345 315.5 365.5Q299 386 299 423ZM206 440Q229 440 249 466.5Q269 493 289 536Q308 576 324 620Q340 664 346 693Q341 694 331.5 696Q322 698 308 698Q281 698 257 676.5Q233 655 215.5 622.5Q198 590 188 552Q178 514 178 481Q178 462 185 451Q192 440 206 440Z" glyph-name="a.superiorschool" horiz-adv-x="511" /><glyph d="M707 800 453 592H352L483 800ZM396 100Q396 140 408 181.5Q420 223 434 268H426Q415 238 400 206Q385 174 362 133Q327 69 281 29.5Q235 -10 168 -10Q104 -10 66 37Q28 84 28 170Q28 248 54 319Q80 390 128 444.5Q176 499 244.5 531Q313 563 399 563Q493 563 551 514L617 570H691L653 454Q641 406 630 355.5Q619 305 611 259Q603 213 598 175.5Q593 138 593 117Q593 94 610 94Q623 94 636.5 102Q650 110 670 126L706 88Q680 62 656.5 43.5Q633 25 609 13Q585 1 559.5 -4.5Q534 -10 504 -10Q447 -10 421.5 19.5Q396 49 396 100ZM260 124Q292 124 320.5 161.5Q349 199 379 261Q393 289 406.5 320.5Q420 352 431.5 382.5Q443 413 451.5 440.5Q460 468 464 488Q456 494 443 498Q430 502 412 502Q384 502 359.5 487.5Q335 473 313.5 448Q292 423 275 391Q258 359 246 323.5Q234 288 227.5 252.5Q221 217 221 185Q221 156 229.5 140Q238 124 260 124Z" glyph-name="aacute" horiz-adv-x="723" unicode="&#225;" /><glyph d="M207 217H389L328 399ZM673 833 419 625H318L449 833ZM413 144H159L155 138Q145 123 145 107Q145 91 158 84.5Q171 78 209 75L202 0H-26L-17 75Q15 80 27.5 92Q40 104 52 123L292 485L256 586H481L639 123Q645 105 655.5 92.5Q666 80 697 75L688 0H335L344 75Q386 76 402.5 85.5Q419 95 419 112Q419 118 418 125Q417 132 415 139Z" glyph-name="aacute.smcp" horiz-adv-x="733" unicode="&#57889;" /><glyph d="M425 598Q344 598 306.5 638Q269 678 269 750Q269 774 272 800H335Q335 756 360.5 737Q386 718 437 718Q488 718 519.5 736.5Q551 755 565 800H628Q616 705 569 651.5Q522 598 425 598ZM396 100Q396 140 408 181.5Q420 223 434 268H426Q415 238 400 206Q385 174 362 133Q327 69 281 29.5Q235 -10 168 -10Q104 -10 66 37Q28 84 28 170Q28 248 54 319Q80 390 128 444.5Q176 499 244.5 531Q313 563 399 563Q493 563 551 514L617 570H691L653 454Q641 406 630 355.5Q619 305 611 259Q603 213 598 175.5Q593 138 593 117Q593 94 610 94Q623 94 636.5 102Q650 110 670 126L706 88Q680 62 656.5 43.5Q633 25 609 13Q585 1 559.5 -4.5Q534 -10 504 -10Q447 -10 421.5 19.5Q396 49 396 100ZM260 124Q292 124 320.5 161.5Q349 199 379 261Q393 289 406.5 320.5Q420 352 431.5 382.5Q443 413 451.5 440.5Q460 468 464 488Q456 494 443 498Q430 502 412 502Q384 502 359.5 487.5Q335 473 313.5 448Q292 423 275 391Q258 359 246 323.5Q234 288 227.5 252.5Q221 217 221 185Q221 156 229.5 140Q238 124 260 124Z" glyph-name="abreve" horiz-adv-x="723" unicode="&#259;" /><glyph d="M207 217H389L328 399ZM387 631Q306 631 268.5 671Q231 711 231 783Q231 807 234 833H297Q297 789 322.5 770Q348 751 399 751Q450 751 481.5 769.5Q513 788 527 833H590Q578 738 531 684.5Q484 631 387 631ZM413 144H159L155 138Q145 123 145 107Q145 91 158 84.5Q171 78 209 75L202 0H-26L-17 75Q15 80 27.5 92Q40 104 52 123L292 485L256 586H481L639 123Q645 105 655.5 92.5Q666 80 697 75L688 0H335L344 75Q386 76 402.5 85.5Q419 95 419 112Q419 118 418 125Q417 132 415 139Z" glyph-name="abreve.smcp" horiz-adv-x="733" unicode="&#57897;" /><glyph d="M633 592H532L430 684L293 592H193L379 800H499ZM396 100Q396 140 408 181.5Q420 223 434 268H426Q415 238 400 206Q385 174 362 133Q327 69 281 29.5Q235 -10 168 -10Q104 -10 66 37Q28 84 28 170Q28 248 54 319Q80 390 128 444.5Q176 499 244.5 531Q313 563 399 563Q493 563 551 514L617 570H691L653 454Q641 406 630 355.5Q619 305 611 259Q603 213 598 175.5Q593 138 593 117Q593 94 610 94Q623 94 636.5 102Q650 110 670 126L706 88Q680 62 656.5 43.5Q633 25 609 13Q585 1 559.5 -4.5Q534 -10 504 -10Q447 -10 421.5 19.5Q396 49 396 100ZM260 124Q292 124 320.5 161.5Q349 199 379 261Q393 289 406.5 320.5Q420 352 431.5 382.5Q443 413 451.5 440.5Q460 468 464 488Q456 494 443 498Q430 502 412 502Q384 502 359.5 487.5Q335 473 313.5 448Q292 423 275 391Q258 359 246 323.5Q234 288 227.5 252.5Q221 217 221 185Q221 156 229.5 140Q238 124 260 124Z" glyph-name="acircumflex" horiz-adv-x="723" unicode="&#226;" /><glyph d="M207 217H389L328 399ZM609 625H508L406 717L269 625H169L355 833H475ZM413 144H159L155 138Q145 123 145 107Q145 91 158 84.5Q171 78 209 75L202 0H-26L-17 75Q15 80 27.5 92Q40 104 52 123L292 485L256 586H481L639 123Q645 105 655.5 92.5Q666 80 697 75L688 0H335L344 75Q386 76 402.5 85.5Q419 95 419 112Q419 118 418 125Q417 132 415 139Z" glyph-name="acircumflex.smcp" horiz-adv-x="733" unicode="&#57891;" /><glyph d="M477 800 223 592H122L253 800Z" glyph-name="acute" horiz-adv-x="600" unicode="&#180;" /><glyph d="M477 1030 223 822H122L253 1030Z" glyph-name="acute.cap" horiz-adv-x="600" unicode="&#58402;" /><glyph d="M550 601Q506 601 482.5 627.5Q459 654 459 693Q459 738 488.5 770Q518 802 569 802Q614 802 637 775.5Q660 749 660 710Q660 688 652.5 668Q645 648 631 633Q617 618 596.5 609.5Q576 601 550 601ZM311 601Q266 601 243 627.5Q220 654 220 693Q220 738 249 770Q278 802 330 802Q374 802 397.5 775.5Q421 749 421 710Q421 688 413.5 668Q406 648 391.5 633Q377 618 356.5 609.5Q336 601 311 601ZM396 100Q396 140 408 181.5Q420 223 434 268H426Q415 238 400 206Q385 174 362 133Q327 69 281 29.5Q235 -10 168 -10Q104 -10 66 37Q28 84 28 170Q28 248 54 319Q80 390 128 444.5Q176 499 244.5 531Q313 563 399 563Q493 563 551 514L617 570H691L653 454Q641 406 630 355.5Q619 305 611 259Q603 213 598 175.5Q593 138 593 117Q593 94 610 94Q623 94 636.5 102Q650 110 670 126L706 88Q680 62 656.5 43.5Q633 25 609 13Q585 1 559.5 -4.5Q534 -10 504 -10Q447 -10 421.5 19.5Q396 49 396 100ZM260 124Q292 124 320.5 161.5Q349 199 379 261Q393 289 406.5 320.5Q420 352 431.5 382.5Q443 413 451.5 440.5Q460 468 464 488Q456 494 443 498Q430 502 412 502Q384 502 359.5 487.5Q335 473 313.5 448Q292 423 275 391Q258 359 246 323.5Q234 288 227.5 252.5Q221 217 221 185Q221 156 229.5 140Q238 124 260 124Z" glyph-name="adieresis" horiz-adv-x="723" unicode="&#228;" /><glyph d="M207 217H389L328 399ZM508 634Q464 634 440.5 660.5Q417 687 417 726Q417 771 446.5 803Q476 835 527 835Q572 835 595 808.5Q618 782 618 743Q618 721 610.5 701Q603 681 589 666Q575 651 554.5 642.5Q534 634 508 634ZM269 634Q224 634 201 660.5Q178 687 178 726Q178 771 207 803Q236 835 288 835Q332 835 355.5 808.5Q379 782 379 743Q379 721 371.5 701Q364 681 349.5 666Q335 651 314.5 642.5Q294 634 269 634ZM413 144H159L155 138Q145 123 145 107Q145 91 158 84.5Q171 78 209 75L202 0H-26L-17 75Q15 80 27.5 92Q40 104 52 123L292 485L256 586H481L639 123Q645 105 655.5 92.5Q666 80 697 75L688 0H335L344 75Q386 76 402.5 85.5Q419 95 419 112Q419 118 418 125Q417 132 415 139Z" glyph-name="adieresis.smcp" horiz-adv-x="733" unicode="&#57892;" /><glyph d="M700 496Q679 496 658 478.5Q637 461 619.5 432.5Q602 404 589.5 366Q577 328 573 288Q654 302 693.5 346Q733 390 733 455Q733 472 726.5 484Q720 496 700 496ZM261 124Q286 124 314.5 144.5Q343 165 374 223Q378 294 409 360Q440 426 494 475Q481 486 461.5 494Q442 502 415 502Q375 502 340 472Q305 442 278.5 395Q252 348 236.5 291.5Q221 235 221 181Q221 154 231 139Q241 124 261 124ZM886 163Q841 79 770 34.5Q699 -10 599 -10Q509 -10 454 28Q399 66 381 134Q362 105 339 78.5Q316 52 289.5 32.5Q263 13 232.5 1.5Q202 -10 169 -10Q105 -10 66.5 36.5Q28 83 28 171Q28 249 54 320Q80 391 128.5 445Q177 499 245 531Q313 563 397 563Q492 563 548 516Q586 538 629 550.5Q672 563 720 563Q808 563 853.5 527Q899 491 899 425Q899 374 873 339.5Q847 305 802.5 283Q758 261 698 248.5Q638 236 571 229V214Q571 190 575.5 169Q580 148 591 132.5Q602 117 620 107.5Q638 98 664 98Q714 98 758 123Q802 148 840 196Z" glyph-name="ae" horiz-adv-x="921" unicode="&#230;" /><glyph d="M392 517 232 269H416L394 517ZM149 107Q149 91 162 84.5Q175 78 213 75L206 0H-26L-17 75Q15 80 27.5 92Q40 104 52 123L273 482Q261 500 237 505Q213 510 181 512L190 587H987L967 377H880Q874 403 869 427Q864 451 855 469Q846 487 829.5 498Q813 509 784 509H602L617 330H690Q719 330 731.5 349.5Q744 369 756 407H828L801 179H729Q726 218 718.5 237.5Q711 257 681 257H624L636 139Q638 121 640.5 109Q643 97 649.5 90Q656 83 669.5 80.5Q683 78 706 78H724Q751 78 770.5 84.5Q790 91 808 107.5Q826 124 845.5 151Q865 178 892 219H982L921 0H323L331 75Q379 77 404 87.5Q429 98 429 127Q429 132 428.5 141Q428 150 427 158L423 196H192L159 138Q155 131 152 123Q149 115 149 107Z" glyph-name="ae.smcp" horiz-adv-x="1037" unicode="&#57905;" /><glyph d="M199 396Q210 412 222.5 434Q235 456 246 486Q257 516 264 553.5Q271 591 271 638Q271 667 261.5 678.5Q252 690 238 690Q220 690 209.5 660Q199 630 199 549ZM240 -14Q152 -14 107.5 23.5Q63 61 63 131V164L17 134V232Q27 239 38.5 247Q50 255 63 266V524Q61 582 72.5 629Q84 676 106 709Q128 742 159.5 760Q191 778 231 778Q302 778 334.5 736Q367 694 367 619Q367 559 351.5 506.5Q336 454 312 409.5Q288 365 258 327.5Q228 290 199 260V149Q199 110 212 96Q225 82 259 81Q285 81 305 87.5Q325 94 334 102L358 12Q351 7 337 2.5Q323 -2 306.5 -6Q290 -10 272.5 -12Q255 -14 240 -14Z" glyph-name="afii61289" horiz-adv-x="401" unicode="&#8467;" /><glyph d="M411 800 473 592H382L180 800ZM396 100Q396 140 408 181.5Q420 223 434 268H426Q415 238 400 206Q385 174 362 133Q327 69 281 29.5Q235 -10 168 -10Q104 -10 66 37Q28 84 28 170Q28 248 54 319Q80 390 128 444.5Q176 499 244.5 531Q313 563 399 563Q493 563 551 514L617 570H691L653 454Q641 406 630 355.5Q619 305 611 259Q603 213 598 175.5Q593 138 593 117Q593 94 610 94Q623 94 636.5 102Q650 110 670 126L706 88Q680 62 656.5 43.5Q633 25 609 13Q585 1 559.5 -4.5Q534 -10 504 -10Q447 -10 421.5 19.5Q396 49 396 100ZM260 124Q292 124 320.5 161.5Q349 199 379 261Q393 289 406.5 320.5Q420 352 431.5 382.5Q443 413 451.5 440.5Q460 468 464 488Q456 494 443 498Q430 502 412 502Q384 502 359.5 487.5Q335 473 313.5 448Q292 423 275 391Q258 359 246 323.5Q234 288 227.5 252.5Q221 217 221 185Q221 156 229.5 140Q238 124 260 124Z" glyph-name="agrave" horiz-adv-x="723" unicode="&#224;" /><glyph d="M207 217H389L328 399ZM377 833 439 625H348L146 833ZM413 144H159L155 138Q145 123 145 107Q145 91 158 84.5Q171 78 209 75L202 0H-26L-17 75Q15 80 27.5 92Q40 104 52 123L292 485L256 586H481L639 123Q645 105 655.5 92.5Q666 80 697 75L688 0H335L344 75Q386 76 402.5 85.5Q419 95 419 112Q419 118 418 125Q417 132 415 139Z" glyph-name="agrave.smcp" horiz-adv-x="733" unicode="&#57890;" /><glyph d="M245 -32Q290 -36 321 -46Q352 -56 371.5 -72Q391 -88 399.5 -108Q408 -128 408 -152Q408 -176 398.5 -194.5Q389 -213 372.5 -225.5Q356 -238 333.5 -244Q311 -250 286 -250Q259 -250 234.5 -243Q210 -236 196 -227L207 -181Q222 -189 241 -195.5Q260 -202 279 -202Q293 -202 301 -197.5Q309 -193 309 -182Q309 -163 280.5 -152.5Q252 -142 192 -139Z" glyph-name="altcedilla" horiz-adv-x="600" unicode="&#58390;" /><glyph d="M278 720H577L564 618H265ZM396 100Q396 140 408 181.5Q420 223 434 268H426Q415 238 400 206Q385 174 362 133Q327 69 281 29.5Q235 -10 168 -10Q104 -10 66 37Q28 84 28 170Q28 248 54 319Q80 390 128 444.5Q176 499 244.5 531Q313 563 399 563Q493 563 551 514L617 570H691L653 454Q641 406 630 355.5Q619 305 611 259Q603 213 598 175.5Q593 138 593 117Q593 94 610 94Q623 94 636.5 102Q650 110 670 126L706 88Q680 62 656.5 43.5Q633 25 609 13Q585 1 559.5 -4.5Q534 -10 504 -10Q447 -10 421.5 19.5Q396 49 396 100ZM260 124Q292 124 320.5 161.5Q349 199 379 261Q393 289 406.5 320.5Q420 352 431.5 382.5Q443 413 451.5 440.5Q460 468 464 488Q456 494 443 498Q430 502 412 502Q384 502 359.5 487.5Q335 473 313.5 448Q292 423 275 391Q258 359 246 323.5Q234 288 227.5 252.5Q221 217 221 185Q221 156 229.5 140Q238 124 260 124Z" glyph-name="amacron" horiz-adv-x="723" unicode="&#257;" /><glyph d="M207 217H389L328 399ZM246 753H545L532 651H233ZM413 144H159L155 138Q145 123 145 107Q145 91 158 84.5Q171 78 209 75L202 0H-26L-17 75Q15 80 27.5 92Q40 104 52 123L292 485L256 586H481L639 123Q645 105 655.5 92.5Q666 80 697 75L688 0H335L344 75Q386 76 402.5 85.5Q419 95 419 112Q419 118 418 125Q417 132 415 139Z" glyph-name="amacron.smcp" horiz-adv-x="733" unicode="&#57896;" /><glyph d="M831 294Q799 294 774 300Q749 306 726 321Q745 285 745 234Q745 185 724 141Q703 97 659.5 63.5Q616 30 550.5 10Q485 -10 395 -10Q306 -10 239 8Q172 26 127 58.5Q82 91 59 137Q36 183 36 239Q36 281 51.5 316Q67 351 95 375.5Q123 400 162 414Q201 428 248 429Q210 444 182.5 480.5Q155 517 155 573Q155 627 177 667.5Q199 708 237 735.5Q275 763 326 776.5Q377 790 435 790Q479 790 517 783.5Q555 777 583.5 763Q612 749 628 726.5Q644 704 644 671Q644 636 622 611Q600 586 574 578H466Q475 609 475 637Q475 676 459 701Q443 726 408 726Q363 726 343 694Q323 662 323 616Q323 571 347 541Q371 511 413 510L402 461Q333 441 298.5 389.5Q264 338 264 264Q264 216 280 181Q296 146 323 123Q350 100 386 88.5Q422 77 461 77Q499 77 535 85Q571 93 599 111Q627 129 644 159Q661 189 661 233Q661 303 620.5 339.5Q580 376 520 376Q495 376 477.5 368.5Q460 361 460 341Q460 317 492.5 309Q525 301 588 301V272Q588 237 569 218.5Q550 200 515 200Q453 200 425.5 240.5Q398 281 398 346Q398 383 409.5 415.5Q421 448 443.5 472.5Q466 497 499.5 511Q533 525 577 525Q619 525 656 511Q693 497 726.5 480.5Q760 464 790 450.5Q820 437 846 437Q871 437 888.5 444.5Q906 452 906 472Q906 496 873.5 504Q841 512 778 512V541Q778 576 797 594.5Q816 613 851 613Q913 613 940.5 572.5Q968 532 968 467Q968 429 958.5 397Q949 365 931.5 342Q914 319 888.5 306.5Q863 294 831 294Z" glyph-name="ampersand" horiz-adv-x="978" unicode="&amp;" /><glyph d="M689 339Q715 339 722.5 347.5Q730 356 730 367Q730 391 699 397.5Q668 404 620 404V445Q620 470 632.5 487Q645 504 676 504Q701 504 721.5 492.5Q742 481 756.5 461.5Q771 442 779 414.5Q787 387 787 356Q787 294 757 253.5Q727 213 674 213Q646 213 624 219.5Q602 226 583 237Q595 223 600.5 207.5Q606 192 606 169Q606 134 589 102Q572 70 537.5 45Q503 20 450.5 5Q398 -10 327 -10Q178 -10 102.5 39Q27 88 27 180Q27 214 41 242.5Q55 271 79.5 292Q104 313 137.5 325Q171 337 210 338Q167 348 144 375.5Q121 403 121 441Q121 481 141 510.5Q161 540 194.5 559Q228 578 272 587.5Q316 597 363 597Q399 597 430.5 592Q462 587 485.5 576.5Q509 566 522 549.5Q535 533 535 509Q535 483 516 464Q497 445 476 440H378Q388 459 388 482Q388 502 376 519Q364 536 338 536Q306 536 292 514.5Q278 493 278 464Q278 425 297 404.5Q316 384 348 383L336 340Q285 332 262 298.5Q239 265 239 220Q239 187 249 159.5Q259 132 278.5 112Q298 92 328 81Q358 70 398 70Q422 70 447.5 77Q473 84 494 99Q515 114 528.5 136.5Q542 159 542 190Q542 228 520 254Q498 280 447 280Q420 280 409.5 271.5Q399 263 399 251Q399 232 426.5 226Q454 220 502 220V180Q502 155 489 141.5Q476 128 444 128Q419 128 400.5 140.5Q382 153 369.5 172.5Q357 192 351 215Q345 238 345 259Q345 325 382.5 365.5Q420 406 494 406Q527 406 553.5 395.5Q580 385 603 372.5Q626 360 646.5 349.5Q667 339 689 339Z" glyph-name="ampersand.smcp" horiz-adv-x="824" unicode="&#58369;" /><glyph d="M60 355 295 831H399L165 351L282 -121H181Z" glyph-name="anglebracketleft" horiz-adv-x="373" unicode="&#12296;" /><glyph d="M70 391 305 867H409L175 387L292 -85H191Z" glyph-name="anglebracketleft.cap" horiz-adv-x="373" unicode="&#58519;" /><glyph d="M58 284 275 682H378L161 275L281 -114H184Z" glyph-name="anglebracketleft.smcp" horiz-adv-x="383" unicode="&#58527;" /><glyph d="M319 355 84 -121H-20L214 359L97 831H198Z" glyph-name="anglebracketright" horiz-adv-x="373" unicode="&#12297;" /><glyph d="M326 391 91 -85H-13L221 395L104 867H205Z" glyph-name="anglebracketright.cap" horiz-adv-x="373" unicode="&#58520;" /><glyph d="M316 284 99 -114H-4L213 294L93 682H190Z" glyph-name="anglebracketright.smcp" horiz-adv-x="383" unicode="&#58512;" /><glyph d="M155 138Q145 123 145 107Q145 91 158 84.5Q171 78 209 75L202 0H-26L-17 75Q15 80 27.5 92Q40 104 52 123L292 485L256 586H481L639 123Q645 105 655.5 92.5Q666 80 697 75L688 0H335L344 75Q386 76 402.5 85.5Q419 95 419 112Q419 118 418 125Q417 132 415 139L328 399Z" glyph-name="anocross.smcp" horiz-adv-x="733" unicode="&#57888;" /><glyph d="M260 124Q292 124 320.5 161.5Q349 199 379 261Q393 289 406.5 320.5Q420 352 431.5 382.5Q443 413 451.5 440.5Q460 468 464 488Q456 494 443 498Q430 502 412 502Q384 502 359.5 487.5Q335 473 313.5 448Q292 423 275 391Q258 359 246 323.5Q234 288 227.5 252.5Q221 217 221 185Q221 156 229.5 140Q238 124 260 124ZM396 100Q396 140 408 181.5Q420 223 434 268H426Q415 238 400 206Q385 174 362 133Q327 69 281 29.5Q235 -10 168 -10Q104 -10 66 37Q28 84 28 170Q28 248 54 319Q80 390 128 444.5Q176 499 244.5 531Q313 563 399 563Q493 563 551 514L617 570H691L653 454Q641 406 630 355.5Q619 305 611 259Q603 213 598 175.5Q593 138 593 117Q593 94 610 94Q623 94 636.5 102Q650 110 670 126L706 88Q668 61 632 33Q596 5 568 -22.5Q540 -50 523 -77Q506 -104 506 -130Q506 -149 516.5 -157Q527 -165 545 -165Q586 -165 620 -141L628 -189Q600 -213 563 -231.5Q526 -250 478 -250Q422 -250 396.5 -224.5Q371 -199 371 -155Q371 -113 402.5 -72.5Q434 -32 485 -1Q442 7 419 34.5Q396 62 396 100Z" glyph-name="aogonek" horiz-adv-x="723" unicode="&#261;" /><glyph d="M207 217H389L328 399ZM413 144H159L155 138Q145 123 145 107Q145 91 158 84.5Q171 78 209 75L202 0H-26L-17 75Q15 80 27.5 92Q40 104 52 123L292 485L256 586H481L639 123Q645 105 655.5 92.5Q666 80 697 75L688 0Q645 -18 620.5 -37.5Q596 -57 583.5 -74.5Q571 -92 568 -106.5Q565 -121 565 -130Q565 -149 575.5 -157Q586 -165 604 -165Q645 -165 679 -141L687 -189Q659 -213 622 -231.5Q585 -250 537 -250Q481 -250 455.5 -224.5Q430 -199 430 -155Q430 -113 458 -72.5Q486 -32 546 0H335L344 75Q386 76 402.5 85.5Q419 95 419 112Q419 118 418 125Q417 132 415 139Z" glyph-name="aogonek.smcp" horiz-adv-x="733" unicode="&#57903;" /><glyph d="M54 230Q73 251 99 268Q121 282 152 294Q183 306 224 306Q268 306 299.5 295.5Q331 285 359 272Q387 259 415.5 248.5Q444 238 482 238Q503 238 523 247Q543 256 559 267.5Q575 279 584.5 288.5Q594 298 595 299L633 208Q614 187 588 170Q566 156 534.5 144.5Q503 133 463 133Q419 133 387.5 143.5Q356 154 328 167Q300 180 271.5 190.5Q243 201 205 201Q184 201 164 192Q144 183 128 171.5Q112 160 102.5 150.5Q93 141 92 140ZM75 404Q94 424 120 441Q142 455 173 467Q204 479 245 479Q289 479 320.5 468.5Q352 458 380 445Q408 432 436 421.5Q464 411 502 411Q523 411 543.5 420Q564 429 579.5 440.5Q595 452 605 461.5Q615 471 615 472L654 381Q635 360 609 343Q587 329 555.5 317.5Q524 306 484 306Q440 306 408.5 316.5Q377 327 349 340Q321 353 292 363.5Q263 374 225 374Q204 374 184 365Q164 356 148.5 344.5Q133 333 123 323.5Q113 314 112 313Z" glyph-name="approxequal" horiz-adv-x="700" unicode="&#8776;" /><glyph d="M52 316Q71 337 97 354Q119 368 150 380Q181 392 222 392Q266 392 297.5 381.5Q329 371 357 358Q385 345 413.5 334.5Q442 324 480 324Q501 324 521 333Q541 342 557 353.5Q573 365 582.5 374.5Q592 384 593 385L631 294Q612 273 586 256Q564 242 532.5 230.5Q501 219 461 219Q417 219 385.5 229.5Q354 240 326 253Q298 266 269.5 276.5Q241 287 203 287Q182 287 162 278Q142 269 126 257.5Q110 246 100.5 236.5Q91 227 90 226ZM73 490Q92 510 118 527Q140 541 171 553Q202 565 243 565Q287 565 318.5 554.5Q350 544 378 531Q406 518 434 507.5Q462 497 500 497Q521 497 541.5 506Q562 515 577.5 526.5Q593 538 603 547.5Q613 557 613 558L652 467Q633 446 607 429Q585 415 553.5 403.5Q522 392 482 392Q438 392 406.5 402.5Q375 413 347 426Q319 439 290 449.5Q261 460 223 460Q202 460 182 451Q162 442 146.5 430.5Q131 419 121 409.5Q111 400 110 399Z" glyph-name="approxequal.cap" horiz-adv-x="700" unicode="&#61990;" /><glyph d="M551 715Q551 689 541.5 666Q532 643 515 626.5Q498 610 474.5 600.5Q451 591 423 591Q369 591 337 620.5Q305 650 305 695Q305 721 314.5 744Q324 767 341 783.5Q358 800 381.5 809.5Q405 819 433 819Q487 819 519 789.5Q551 760 551 715ZM476 710Q476 727 466 739.5Q456 752 433 752Q411 752 395.5 738Q380 724 380 700Q380 683 390 670.5Q400 658 423 658Q445 658 460.5 672Q476 686 476 710ZM396 100Q396 140 408 181.5Q420 223 434 268H426Q415 238 400 206Q385 174 362 133Q327 69 281 29.5Q235 -10 168 -10Q104 -10 66 37Q28 84 28 170Q28 248 54 319Q80 390 128 444.5Q176 499 244.5 531Q313 563 399 563Q493 563 551 514L617 570H691L653 454Q641 406 630 355.5Q619 305 611 259Q603 213 598 175.5Q593 138 593 117Q593 94 610 94Q623 94 636.5 102Q650 110 670 126L706 88Q680 62 656.5 43.5Q633 25 609 13Q585 1 559.5 -4.5Q534 -10 504 -10Q447 -10 421.5 19.5Q396 49 396 100ZM260 124Q292 124 320.5 161.5Q349 199 379 261Q393 289 406.5 320.5Q420 352 431.5 382.5Q443 413 451.5 440.5Q460 468 464 488Q456 494 443 498Q430 502 412 502Q384 502 359.5 487.5Q335 473 313.5 448Q292 423 275 391Q258 359 246 323.5Q234 288 227.5 252.5Q221 217 221 185Q221 156 229.5 140Q238 124 260 124Z" glyph-name="aring" horiz-adv-x="723" unicode="&#229;" /><glyph d="M443 743Q443 760 433 772.5Q423 785 400 785Q378 785 362.5 771Q347 757 347 733Q347 716 357 703.5Q367 691 390 691Q412 691 427.5 705Q443 719 443 743ZM207 217H389L328 399ZM518 748Q518 722 508.5 699Q499 676 482 659.5Q465 643 441.5 633.5Q418 624 390 624Q336 624 304 653.5Q272 683 272 728Q272 754 281.5 777Q291 800 308 816.5Q325 833 348.5 842.5Q372 852 400 852Q454 852 486 822.5Q518 793 518 748ZM413 144H159L155 138Q145 123 145 107Q145 91 158 84.5Q171 78 209 75L202 0H-26L-17 75Q15 80 27.5 92Q40 104 52 123L292 485L256 586H481L639 123Q645 105 655.5 92.5Q666 80 697 75L688 0H335L344 75Q386 76 402.5 85.5Q419 95 419 112Q419 118 418 125Q417 132 415 139Z" glyph-name="aring.smcp" horiz-adv-x="733" unicode="&#57894;" /><glyph d="M141 401H193L409 240V780H451V240L667 401H719L436 -10H424Z" glyph-name="arrowdown" horiz-adv-x="860" unicode="&#8595;" /><glyph d="M41 384V396L452 679V627L284 411H831V369H284L452 153V101Z" glyph-name="arrowleft" horiz-adv-x="860" unicode="&#8592;" /><glyph d="M420 101V153L588 369H41V411H588L420 627V679L831 396V384Z" glyph-name="arrowright" horiz-adv-x="860" unicode="&#8594;" /><glyph d="M424 790H436L719 379H667L451 540V0H409V540L193 379H141Z" glyph-name="arrowup" horiz-adv-x="860" unicode="&#8593;" /><glyph d="M141 400H24L256 790H381L519 400H408L310 683Z" glyph-name="asciicircum" horiz-adv-x="520" unicode="^" /><glyph d="M65 275Q94 387 144 436Q194 485 259 485Q282 485 304.5 475.5Q327 466 347.5 454Q368 442 387 432.5Q406 423 421 423Q446 423 464.5 438Q483 453 501 483H583Q554 372 503.5 322.5Q453 273 389 273Q366 273 343.5 282.5Q321 292 300 304Q279 316 260 325.5Q241 335 226 335Q201 335 183 320.5Q165 306 146 275Z" glyph-name="asciitilde" horiz-adv-x="625" unicode="~" /><glyph d="M162 431 106 497 180 584 90 656 132 731 241 689 280 793 364 775 355 662 468 658 477 568 365 540 397 432 318 396 256 492Z" glyph-name="asterisk" horiz-adv-x="490" unicode="*" /><glyph d="M806 91Q836 91 865 107.5Q894 124 917 159Q940 194 954.5 247Q969 300 969 374Q969 440 943.5 500.5Q918 561 871 608Q824 655 757 683Q690 711 607 711Q505 711 423.5 677.5Q342 644 285 582.5Q228 521 198 434Q168 347 168 240Q168 142 203.5 65.5Q239 -11 299 -64Q359 -117 439.5 -144.5Q520 -172 610 -172Q660 -172 701 -168.5Q742 -165 779.5 -157Q817 -149 853 -136Q889 -123 930 -104L959 -143Q892 -200 803.5 -230.5Q715 -261 598 -261Q486 -261 388 -226.5Q290 -192 217 -127.5Q144 -63 102 29Q60 121 60 236Q60 355 100.5 455Q141 555 213.5 627Q286 699 386.5 739Q487 779 607 779Q718 779 806 745Q894 711 955 654.5Q1016 598 1048 525Q1080 452 1080 374Q1080 271 1049 200.5Q1018 130 967 86Q916 42 851.5 22.5Q787 3 721 3Q649 3 622.5 32Q596 61 596 109Q596 138 604.5 175Q613 212 626 253H622Q612 226 597.5 194.5Q583 163 560 124Q546 100 529 78.5Q512 57 491 40Q470 23 445 13Q420 3 390 3Q333 3 296 45Q259 87 259 165Q259 241 282.5 305.5Q306 370 349.5 417Q393 464 454.5 490Q516 516 593 516Q635 516 675.5 505Q716 494 742 470L799 520H870L838 415Q827 373 816.5 327.5Q806 282 798.5 240.5Q791 199 786.5 166Q782 133 782 115Q782 91 806 91ZM481 132Q510 132 535.5 168Q561 204 585 258Q596 283 607 308.5Q618 334 627.5 358.5Q637 383 644.5 405Q652 427 656 445Q649 449 637.5 452Q626 455 609 455Q578 455 548.5 429.5Q519 404 495.5 364.5Q472 325 458 276Q444 227 444 179Q444 132 481 132Z" glyph-name="at" horiz-adv-x="1136" unicode="@" /><glyph d="M821 199Q851 199 880 215.5Q909 232 932 267Q955 302 969.5 355Q984 408 984 482Q984 548 958.5 608.5Q933 669 886 716Q839 763 772 791Q705 819 622 819Q520 819 438.5 785.5Q357 752 300 690.5Q243 629 213 542Q183 455 183 348Q183 250 218.5 173.5Q254 97 314 44Q374 -9 454.5 -36.5Q535 -64 625 -64Q675 -64 716 -60.5Q757 -57 794.5 -49Q832 -41 868 -28Q904 -15 945 4L974 -35Q907 -92 818.5 -122.5Q730 -153 613 -153Q501 -153 403 -118.5Q305 -84 232 -19.5Q159 45 117 137Q75 229 75 344Q75 463 115.5 563Q156 663 228.5 735Q301 807 401.5 847Q502 887 622 887Q733 887 821 853Q909 819 970 762.5Q1031 706 1063 633Q1095 560 1095 482Q1095 379 1064 308.5Q1033 238 982 194Q931 150 866.5 130.5Q802 111 736 111Q664 111 637.5 140Q611 169 611 217Q611 246 619.5 283Q628 320 641 361H637Q627 334 612.5 302.5Q598 271 575 232Q561 208 544 186.5Q527 165 506 148Q485 131 460 121Q435 111 405 111Q348 111 311 153Q274 195 274 273Q274 349 297.5 413.5Q321 478 364.5 525Q408 572 469.5 598Q531 624 608 624Q650 624 690.5 613Q731 602 757 578L814 628H885L853 523Q842 481 831.5 435.5Q821 390 813.5 348.5Q806 307 801.5 274Q797 241 797 223Q797 199 821 199ZM496 240Q525 240 550.5 276Q576 312 600 366Q611 391 622 416.5Q633 442 642.5 466.5Q652 491 659.5 513Q667 535 671 553Q664 557 652.5 560Q641 563 624 563Q593 563 563.5 537.5Q534 512 510.5 472.5Q487 433 473 384Q459 335 459 287Q459 240 496 240Z" glyph-name="at.cap" horiz-adv-x="1136" unicode="&#58643;" /><glyph d="M799 94Q829 94 858 110.5Q887 127 910 162Q933 197 947.5 250Q962 303 962 377Q962 443 936.5 503.5Q911 564 864 611Q817 658 750 686Q683 714 600 714Q498 714 416.5 680.5Q335 647 278 585.5Q221 524 191 437Q161 350 161 243Q161 145 196.5 68.5Q232 -8 292 -61Q352 -114 432.5 -141.5Q513 -169 603 -169Q653 -169 694 -165.5Q735 -162 772.5 -154Q810 -146 846 -133Q882 -120 923 -101L952 -140Q885 -197 796.5 -227.5Q708 -258 591 -258Q479 -258 381 -223.5Q283 -189 210 -124.5Q137 -60 95 32Q53 124 53 239Q53 358 93.5 458Q134 558 206.5 630Q279 702 379.5 742Q480 782 600 782Q711 782 799 748Q887 714 948 657.5Q1009 601 1041 528Q1073 455 1073 377Q1073 274 1042 203.5Q1011 133 960 89Q909 45 844.5 25.5Q780 6 714 6Q642 6 615.5 35Q589 64 589 112Q589 141 597.5 178Q606 215 619 256H615Q605 229 590.5 197.5Q576 166 553 127Q539 103 522 81.5Q505 60 484 43Q463 26 438 16Q413 6 383 6Q326 6 289 48Q252 90 252 168Q252 244 275.5 308.5Q299 373 342.5 420Q386 467 447.5 493Q509 519 586 519Q628 519 668.5 508Q709 497 735 473L792 523H863L831 418Q820 376 809.5 330.5Q799 285 791.5 243.5Q784 202 779.5 169Q775 136 775 118Q775 94 799 94ZM474 135Q503 135 528.5 171Q554 207 578 261Q589 286 600 311.5Q611 337 620.5 361.5Q630 386 637.5 408Q645 430 649 448Q642 452 630.5 455Q619 458 602 458Q571 458 541.5 432.5Q512 407 488.5 367.5Q465 328 451 279Q437 230 437 182Q437 135 474 135Z" glyph-name="at.smcp" horiz-adv-x="1136" unicode="&#62987;" /><glyph d="M664 784Q641 734 621 700.5Q601 667 580 647Q559 627 536.5 619Q514 611 488 611Q467 611 447 619.5Q427 628 409 638.5Q391 649 374.5 658Q358 667 344 667Q323 667 306.5 653Q290 639 273 613L213 629Q235 679 255 712.5Q275 746 296 766Q317 786 339.5 794Q362 802 388 802Q409 802 429 793.5Q449 785 467 774.5Q485 764 501.5 755.5Q518 747 532 747Q553 747 569.5 760.5Q586 774 604 800ZM396 100Q396 140 408 181.5Q420 223 434 268H426Q415 238 400 206Q385 174 362 133Q327 69 281 29.5Q235 -10 168 -10Q104 -10 66 37Q28 84 28 170Q28 248 54 319Q80 390 128 444.5Q176 499 244.5 531Q313 563 399 563Q493 563 551 514L617 570H691L653 454Q641 406 630 355.5Q619 305 611 259Q603 213 598 175.5Q593 138 593 117Q593 94 610 94Q623 94 636.5 102Q650 110 670 126L706 88Q680 62 656.5 43.5Q633 25 609 13Q585 1 559.5 -4.5Q534 -10 504 -10Q447 -10 421.5 19.5Q396 49 396 100ZM260 124Q292 124 320.5 161.5Q349 199 379 261Q393 289 406.5 320.5Q420 352 431.5 382.5Q443 413 451.5 440.5Q460 468 464 488Q456 494 443 498Q430 502 412 502Q384 502 359.5 487.5Q335 473 313.5 448Q292 423 275 391Q258 359 246 323.5Q234 288 227.5 252.5Q221 217 221 185Q221 156 229.5 140Q238 124 260 124Z" glyph-name="atilde" horiz-adv-x="723" unicode="&#227;" /><glyph d="M207 217H389L328 399ZM630 817Q607 767 587 733.5Q567 700 546 680Q525 660 502.5 652Q480 644 454 644Q433 644 413 652.5Q393 661 375 671.5Q357 682 340.5 691Q324 700 310 700Q289 700 272.5 686Q256 672 239 646L179 662Q201 712 221 745.5Q241 779 262 799Q283 819 305.5 827Q328 835 354 835Q375 835 395 826.5Q415 818 433 807.5Q451 797 467.5 788.5Q484 780 498 780Q519 780 535.5 793.5Q552 807 570 833ZM413 144H159L155 138Q145 123 145 107Q145 91 158 84.5Q171 78 209 75L202 0H-26L-17 75Q15 80 27.5 92Q40 104 52 123L292 485L256 586H481L639 123Q645 105 655.5 92.5Q666 80 697 75L688 0H335L344 75Q386 76 402.5 85.5Q419 95 419 112Q419 118 418 125Q417 132 415 139Z" glyph-name="atilde.smcp" horiz-adv-x="733" unicode="&#57893;" /><glyph d="M88 726 96 769 318 810H366Q347 685 331.5 603Q316 521 302 466Q288 411 275 373.5Q262 336 247 299H255Q293 376 327.5 427Q362 478 396 508Q430 538 463 550.5Q496 563 531 563Q565 563 592.5 550Q620 537 638.5 513.5Q657 490 667 458.5Q677 427 677 390Q677 309 648 236.5Q619 164 568.5 109.5Q518 55 449.5 22.5Q381 -10 302 -10Q208 -10 145 18Q82 46 45 96Q60 173 76.5 257Q93 341 108 419Q123 497 134.5 564Q146 631 151 675ZM434 437Q417 437 395.5 419Q374 401 351.5 372Q329 343 308 307Q287 271 270.5 234.5Q254 198 244 165Q234 132 234 109Q234 84 246 68Q258 52 284 52Q319 52 352.5 82.5Q386 113 411.5 160Q437 207 452.5 263.5Q468 320 468 373Q468 405 461 421Q454 437 434 437Z" glyph-name="b" horiz-adv-x="706" unicode="b" /><glyph d="M494 587Q598 587 648 550Q698 513 698 449Q698 406 680.5 378Q663 350 634.5 333.5Q606 317 570.5 309.5Q535 302 500 301Q596 295 650.5 261.5Q705 228 705 157Q705 116 686.5 86.5Q668 57 635.5 38Q603 19 557.5 9.5Q512 0 458 0H-6L3 75Q33 76 50.5 80Q68 84 77.5 93Q87 102 90.5 117Q94 132 97 156L132 438Q133 444 133.5 451Q134 458 134 468Q134 480 131 488.5Q128 497 119.5 502Q111 507 96 509Q81 511 57 512L66 587ZM345 509 322 327H380Q428 327 456 352Q484 377 484 426Q484 472 458.5 490.5Q433 509 386 509ZM303 171Q301 159 299.5 142.5Q298 126 298 118Q298 93 313 83.5Q328 74 352 74H384Q428 74 453 98.5Q478 123 478 174Q478 219 456 239Q434 259 389 259H315Z" glyph-name="b.smcp" horiz-adv-x="755" unicode="&#57858;" /><glyph d="M283 919Q268 824 257 764.5Q246 705 236 666Q226 627 216.5 601Q207 575 195 549H198Q228 608 254 646Q280 684 303.5 705.5Q327 727 349.5 735.5Q372 744 396 744Q444 744 472.5 710Q501 676 501 622Q501 566 480.5 516Q460 466 424.5 428Q389 390 340.5 367.5Q292 345 236 345Q167 345 123.5 364.5Q80 384 51 419Q61 473 73 531.5Q85 590 95.5 644.5Q106 699 114 746Q122 793 126 825L82 859L88 891L247 919ZM326 654Q308 654 284.5 627.5Q261 601 239.5 565Q218 529 203.5 490.5Q189 452 189 428Q189 410 197 399.5Q205 389 222 389Q245 389 267.5 409.5Q290 430 308 462.5Q326 495 337 534Q348 573 348 611Q348 654 326 654Z" glyph-name="b.superior" horiz-adv-x="501" unicode="&#58210;" /><glyph d="M103 830H198L368 -120H273Z" glyph-name="backslash" horiz-adv-x="431" unicode="\" /><glyph d="M95 860H190L360 -90H265Z" glyph-name="backslash.cap" horiz-adv-x="431" unicode="&#58466;" /><glyph d="M88 739H183L320 -120H225Z" glyph-name="backslash.smcp" horiz-adv-x="431" unicode="&#58472;" /><glyph d="M310 265 180 394 226 440 355 310 484 440 530 394 400 265 530 136 484 90 355 220 226 90 180 136ZM160 464V66H550V464ZM90 530H620V0H90Z" glyph-name="ballotboxwithx" horiz-adv-x="710" unicode="&#9746;" /><glyph d="M147 -120H51L167 830H263Z" glyph-name="bar" horiz-adv-x="295" unicode="|" /><glyph d="M140 -90H45L161 860H256Z" glyph-name="bar.cap" horiz-adv-x="295" unicode="&#58467;" /><glyph d="M141 -120H45L149 739H244Z" glyph-name="bar.smcp" horiz-adv-x="295" unicode="&#58473;" /><glyph d="M88 390Q88 473 119.5 546Q151 619 205 673Q259 727 332 758.5Q405 790 488 790Q571 790 644 758.5Q717 727 771 673Q825 619 856.5 546Q888 473 888 390Q888 307 856.5 234Q825 161 771 107Q717 53 644 21.5Q571 -10 488 -10Q405 -10 332 21.5Q259 53 205 107Q151 161 119.5 234Q88 307 88 390Z" glyph-name="blackcircle" horiz-adv-x="976" unicode="&#9679;" /><glyph d="M628 0H98V530H628Z" glyph-name="blacksmallsquare" horiz-adv-x="726" unicode="&#9642;" /><glyph d="M878 0H98V780H878Z" glyph-name="blacksquare" horiz-adv-x="976" unicode="&#9632;" /><glyph d="M185 350Q234 335 258 301.5Q282 268 282 225Q282 202 274.5 177.5Q267 153 257.5 126.5Q248 100 240.5 72Q233 44 233 13Q233 -22 255 -36Q277 -50 319 -50L311 -130Q210 -130 165.5 -93.5Q121 -57 121 5Q121 38 128.5 67.5Q136 97 145 124.5Q154 152 161.5 177.5Q169 203 169 227Q169 246 162.5 262.5Q156 279 140.5 290Q125 301 99.5 307.5Q74 314 36 314L46 386Q94 386 125 396Q156 406 174 424.5Q192 443 198.5 468Q205 493 205 523Q205 546 202 572Q199 598 199 626Q199 671 209 708.5Q219 746 245 773Q271 800 315.5 815Q360 830 428 830L419 750Q360 750 335 724Q310 698 310 630Q310 600 313.5 572.5Q317 545 317 519Q317 462 284.5 415.5Q252 369 185 350Z" glyph-name="braceleft" horiz-adv-x="410" unicode="{" /><glyph d="M184 386Q233 371 257 337.5Q281 304 281 261Q281 238 273.5 213.5Q266 189 256.5 163Q247 137 239.5 109Q232 81 232 50Q232 14 254 0Q276 -14 318 -14L310 -94Q209 -94 164.5 -57.5Q120 -21 120 41Q120 74 127.5 103.5Q135 133 144 160.5Q153 188 160.5 213.5Q168 239 168 263Q168 282 161.5 298.5Q155 315 139.5 326Q124 337 98.5 343.5Q73 350 35 350L45 422Q93 422 124 432Q155 442 173 460.5Q191 479 197.5 504.5Q204 530 204 560Q204 583 201 608.5Q198 634 198 662Q198 707 208 744.5Q218 782 244 809Q270 836 314.5 851Q359 866 427 866L418 786Q389 786 368 780Q347 774 334 760.5Q321 747 315 723.5Q309 700 309 666Q309 636 312.5 608.5Q316 581 316 555Q316 498 283.5 451.5Q251 405 184 386Z" glyph-name="braceleft.cap" horiz-adv-x="410" unicode="&#58517;" /><glyph d="M48 325Q93 325 122 330.5Q151 336 167.5 347Q184 358 190 375Q196 392 196 416Q196 441 190 465.5Q184 490 184 519Q184 595 231.5 638.5Q279 682 384 682L374 604Q323 604 302.5 580Q282 556 282 516Q282 487 288.5 463.5Q295 440 295 411Q295 361 269 327.5Q243 294 180 284Q229 276 249.5 253.5Q270 231 270 197Q270 170 262.5 149Q255 128 246.5 108.5Q238 89 230.5 68Q223 47 223 21Q223 -5 240 -20Q257 -35 298 -35L288 -114Q199 -114 160.5 -83.5Q122 -53 122 1Q122 30 129.5 53.5Q137 77 145.5 98Q154 119 161.5 139Q169 159 169 180Q169 196 163 208.5Q157 221 142 228.5Q127 236 102 240Q77 244 39 244Z" glyph-name="braceleft.smcp" horiz-adv-x="402" unicode="&#58525;" /><glyph d="M230 350Q180 365 156 398.5Q132 432 132 475Q132 498 139.5 522.5Q147 547 156.5 573.5Q166 600 173.5 628Q181 656 181 687Q181 722 159.5 736Q138 750 95 750L103 830Q204 830 248.5 793Q293 756 293 695Q293 662 285.5 632.5Q278 603 269 575.5Q260 548 252.5 522.5Q245 497 245 473Q245 453 251.5 437Q258 421 273.5 410Q289 399 314.5 392.5Q340 386 378 386L368 314Q320 314 289 304Q258 294 240 275.5Q222 257 215.5 232Q209 207 209 177Q209 154 212 128Q215 102 215 74Q215 29 205 -8.5Q195 -46 169 -73Q143 -100 98.5 -115Q54 -130 -14 -130L-5 -50Q53 -50 78.5 -24Q104 2 104 70Q104 100 100.5 127.5Q97 155 97 181Q97 238 129.5 284.5Q162 331 230 350Z" glyph-name="braceright" horiz-adv-x="410" unicode="}" /><glyph d="M236 386Q187 401 163 435Q139 469 139 511Q139 534 146.5 558.5Q154 583 163 609.5Q172 636 179.5 664Q187 692 187 723Q187 758 165.5 772Q144 786 101 786L110 866Q211 866 255 829.5Q299 793 299 732Q299 699 291.5 669Q284 639 275 611.5Q266 584 258.5 559Q251 534 251 510Q251 490 257.5 474Q264 458 279.5 446.5Q295 435 320.5 428.5Q346 422 384 422L375 350Q326 350 295 340Q264 330 246 312Q228 294 221.5 268.5Q215 243 215 213Q215 190 218 164Q221 138 221 110Q221 65 211 27.5Q201 -10 175 -37Q149 -64 105 -79Q61 -94 -7 -94L1 -14Q59 -14 84.5 12Q110 38 110 106Q110 136 107 163.5Q104 191 104 217Q104 274 136.5 320.5Q169 367 236 386Z" glyph-name="braceright.cap" horiz-adv-x="410" unicode="&#58518;" /><glyph d="M345 244Q300 244 271 238.5Q242 233 225.5 221.5Q209 210 203 193Q197 176 197 153Q197 127 203 103Q209 79 209 50Q209 -27 161.5 -70.5Q114 -114 9 -114L19 -35Q70 -35 90.5 -11.5Q111 12 111 53Q111 82 104.5 105Q98 128 98 157Q98 207 124 240.5Q150 274 213 284Q164 292 143.5 315Q123 338 123 371Q123 398 130.5 419Q138 440 146.5 459.5Q155 479 162.5 500Q170 521 170 547Q170 574 153 589Q136 604 95 604L105 682Q194 682 232.5 652Q271 622 271 567Q271 538 263.5 514.5Q256 491 247.5 470Q239 449 231.5 429Q224 409 224 388Q224 372 230 360Q236 348 251 340.5Q266 333 291 329Q316 325 354 325Z" glyph-name="braceright.smcp" horiz-adv-x="402" unicode="&#58526;" /><glyph d="M146 -37H266L256 -130H32L149 830H373L363 737H243Z" glyph-name="bracketleft" horiz-adv-x="375" unicode="[" /><glyph d="M158 -1H278L268 -94H44L161 866H385L375 774H255Z" glyph-name="bracketleft.cap" horiz-adv-x="375" unicode="&#58515;" /><glyph d="M126 -26H288L276 -114H17L115 682H375L365 594H203Z" glyph-name="bracketleft.smcp" horiz-adv-x="384" unicode="&#58523;" /><glyph d="M241 737H121L131 830H355L238 -130H14L24 -37H144Z" glyph-name="bracketright" horiz-adv-x="375" unicode="]" /><glyph d="M243 774H123L133 866H357L240 -94H16L26 -1H146Z" glyph-name="bracketright.cap" horiz-adv-x="375" unicode="&#58516;" /><glyph d="M243 594H82L93 682H353L255 -114H-5L5 -26H166Z" glyph-name="bracketright.smcp" horiz-adv-x="384" unicode="&#58524;" /><glyph d="M276 598Q195 598 157.5 638Q120 678 120 750Q120 774 123 800H186Q186 756 211.5 737Q237 718 288 718Q339 718 370.5 736.5Q402 755 416 800H479Q467 705 420 651.5Q373 598 276 598Z" glyph-name="breve" horiz-adv-x="600" unicode="&#728;" /><glyph d="M276 828Q195 828 157.5 868Q120 908 120 980Q120 1004 123 1030H186Q186 986 211.5 967Q237 948 288 948Q339 948 370.5 966.5Q402 985 416 1030H479Q467 935 420 881.5Q373 828 276 828Z" glyph-name="breve.cap" horiz-adv-x="600" unicode="&#58406;" /><glyph d="M213 424H117L167 830H263ZM147 -120H51L101 286H197Z" glyph-name="brokenbar" horiz-adv-x="295" unicode="&#166;" /><glyph d="M206 454H111L161 860H256ZM140 -90H45L95 316H190Z" glyph-name="brokenbar.cap" horiz-adv-x="295" unicode="&#58469;" /><glyph d="M199 370H103L149 740H244ZM141 -120H45L91 249H186Z" glyph-name="brokenbar.smcp" horiz-adv-x="295" unicode="&#58475;" /><glyph d="M60 362Q60 397 73 428Q86 459 108.5 482.5Q131 506 161.5 519.5Q192 533 226 533Q260 533 290.5 519.5Q321 506 344 482.5Q367 459 380 428Q393 397 393 362Q393 327 380 296Q367 265 344 242Q321 219 290.5 205.5Q260 192 226 192Q192 192 161.5 205.5Q131 219 108.5 242Q86 265 73 296Q60 327 60 362Z" glyph-name="bullet" horiz-adv-x="463" unicode="&#8226;" /><glyph d="M75 398Q75 433 88 464Q101 495 123.5 518.5Q146 542 176.5 555.5Q207 569 241 569Q275 569 305.5 555.5Q336 542 359 518.5Q382 495 395 464Q408 433 408 398Q408 363 395 332Q382 301 359 278Q336 255 305.5 241.5Q275 228 241 228Q207 228 176.5 241.5Q146 255 123.5 278Q101 301 88 332Q75 363 75 398Z" glyph-name="bullet.cap" horiz-adv-x="463" unicode="&#58470;" /><glyph d="M60 298Q60 334 73 365Q86 396 108.5 419Q131 442 161.5 455.5Q192 469 226 469Q260 469 290.5 455.5Q321 442 344 419Q367 396 380 365Q393 334 393 298Q393 263 380 232Q367 201 344 178Q321 155 290.5 141.5Q260 128 226 128Q192 128 161.5 141.5Q131 155 108.5 178Q86 201 73 232Q60 263 60 298Z" glyph-name="bullet.smcp" horiz-adv-x="463" unicode="&#58476;" /><glyph d="M157 339Q157 282 178.5 232.5Q200 183 236.5 146.5Q273 110 322.5 88.5Q372 67 429 67Q486 67 535.5 88.5Q585 110 622 146.5Q659 183 680.5 232.5Q702 282 702 339Q702 396 680.5 445.5Q659 495 622 532Q585 569 535.5 590.5Q486 612 429 612Q372 612 322.5 590.5Q273 569 236.5 532Q200 495 178.5 445.5Q157 396 157 339ZM330 390Q330 421 342 448.5Q354 476 374 496Q394 516 421.5 528Q449 540 480 540Q511 540 538.5 528Q566 516 586 496Q606 476 618 448.5Q630 421 630 390Q630 359 618 331.5Q606 304 586 284Q566 264 538.5 252Q511 240 480 240Q449 240 421.5 252Q394 264 374 284Q354 304 342 331.5Q330 359 330 390ZM80 390Q80 473 111.5 546Q143 619 197 673Q251 727 324 758.5Q397 790 480 790Q563 790 636 758.5Q709 727 763 673Q817 619 848.5 546Q880 473 880 390Q880 307 848.5 234Q817 161 763 107Q709 53 636 21.5Q563 -10 480 -10Q397 -10 324 21.5Q251 53 197 107Q143 161 111.5 234Q80 307 80 390Z" glyph-name="bullseye" horiz-adv-x="960" unicode="&#9678;" /><glyph d="M347 496Q317 496 294 467.5Q271 439 256 397.5Q241 356 233 309Q225 262 225 225Q225 197 229 173.5Q233 150 242.5 133Q252 116 267.5 106.5Q283 97 306 97Q344 97 379.5 118Q415 139 444 176L491 142Q449 68 387 29Q325 -10 240 -10Q142 -10 85 46.5Q28 103 28 206Q28 279 54.5 343.5Q81 408 127 457Q173 506 235.5 534.5Q298 563 370 563Q436 563 480 537Q524 511 524 457Q524 428 510 408Q496 388 472 378H384Q384 442 377 469Q370 496 347 496Z" glyph-name="c" horiz-adv-x="532" unicode="c" /><glyph d="M340 -10Q260 -10 201.5 9.5Q143 29 105 63.5Q67 98 48.5 146.5Q30 195 30 252Q30 342 62 407.5Q94 473 146.5 515Q199 557 265.5 577Q332 597 401 597Q472 597 526 582Q580 567 622 532L607 379H511Q508 448 484 483.5Q460 519 406 519Q368 519 338.5 496Q309 473 289 434.5Q269 396 258.5 346.5Q248 297 248 244Q248 163 274.5 116.5Q301 70 359 70Q412 70 445 105.5Q478 141 505 211H606L570 39Q545 25 515.5 16Q486 7 455.5 1Q425 -5 395 -7.5Q365 -10 340 -10Z" glyph-name="c.smcp" horiz-adv-x="662" unicode="&#57859;" /><glyph d="M266 697Q245 697 229.5 677Q214 657 203.5 628.5Q193 600 188 567.5Q183 535 183 510Q183 472 194 447Q205 422 237 422Q260 422 286.5 435.5Q313 449 335 475L370 450Q309 345 192 345Q124 345 81.5 385.5Q39 426 39 501Q39 549 58 593Q77 637 110 670.5Q143 704 187.5 724Q232 744 284 744Q328 744 359.5 728Q391 712 391 672Q391 651 381 636Q371 621 354 615H289Q290 661 285 679Q280 697 266 697Z" glyph-name="c.superior" horiz-adv-x="376" unicode="&#58211;" /><glyph d="M347 496Q317 496 294 467.5Q271 439 256 397.5Q241 356 233 309Q225 262 225 225Q225 197 229 173.5Q233 150 242.5 133Q252 116 267.5 106.5Q283 97 306 97Q344 97 379.5 118Q415 139 444 176L491 142Q449 68 387 29Q325 -10 240 -10Q142 -10 85 46.5Q28 103 28 206Q28 279 54.5 343.5Q81 408 127 457Q173 506 235.5 534.5Q298 563 370 563Q436 563 480 537Q524 511 524 457Q524 428 510 408Q496 388 472 378H384Q384 442 377 469Q370 496 347 496ZM647 800 393 592H292L423 800Z" glyph-name="cacute" horiz-adv-x="532" unicode="&#263;" /><glyph d="M340 -10Q260 -10 201.5 9.5Q143 29 105 63.5Q67 98 48.5 146.5Q30 195 30 252Q30 342 62 407.5Q94 473 146.5 515Q199 557 265.5 577Q332 597 401 597Q472 597 526 582Q580 567 622 532L607 379H511Q508 448 484 483.5Q460 519 406 519Q368 519 338.5 496Q309 473 289 434.5Q269 396 258.5 346.5Q248 297 248 244Q248 163 274.5 116.5Q301 70 359 70Q412 70 445 105.5Q478 141 505 211H606L570 39Q545 25 515.5 16Q486 7 455.5 1Q425 -5 395 -7.5Q365 -10 340 -10ZM696 833 442 625H341L472 833Z" glyph-name="cacute.smcp" horiz-adv-x="662" unicode="&#57908;" /><glyph d="M80 800H181L286 708L420 800H520L334 592H214Z" glyph-name="caron" horiz-adv-x="600" unicode="&#711;" /><glyph d="M80 1030H181L286 938L420 1030H520L334 822H214Z" glyph-name="caron.cap" horiz-adv-x="600" unicode="&#58413;" /><glyph d="M415 800 277 592H184L233 800Z" glyph-name="caronSlovak" horiz-adv-x="600" unicode="&#58387;" /><glyph d="M347 496Q317 496 294 467.5Q271 439 256 397.5Q241 356 233 309Q225 262 225 225Q225 197 229 173.5Q233 150 242.5 133Q252 116 267.5 106.5Q283 97 306 97Q344 97 379.5 118Q415 139 444 176L491 142Q449 68 387 29Q325 -10 240 -10Q142 -10 85 46.5Q28 103 28 206Q28 279 54.5 343.5Q81 408 127 457Q173 506 235.5 534.5Q298 563 370 563Q436 563 480 537Q524 511 524 457Q524 428 510 408Q496 388 472 378H384Q384 442 377 469Q370 496 347 496ZM171 800H272L377 708L511 800H611L425 592H305Z" glyph-name="ccaron" horiz-adv-x="532" unicode="&#269;" /><glyph d="M340 -10Q260 -10 201.5 9.5Q143 29 105 63.5Q67 98 48.5 146.5Q30 195 30 252Q30 342 62 407.5Q94 473 146.5 515Q199 557 265.5 577Q332 597 401 597Q472 597 526 582Q580 567 622 532L607 379H511Q508 448 484 483.5Q460 519 406 519Q368 519 338.5 496Q309 473 289 434.5Q269 396 258.5 346.5Q248 297 248 244Q248 163 274.5 116.5Q301 70 359 70Q412 70 445 105.5Q478 141 505 211H606L570 39Q545 25 515.5 16Q486 7 455.5 1Q425 -5 395 -7.5Q365 -10 340 -10ZM217 833H318L423 741L557 833H657L471 625H351Z" glyph-name="ccaron.smcp" horiz-adv-x="662" unicode="&#57910;" /><glyph d="M347 496Q317 496 294 467.5Q271 439 256 397.5Q241 356 233 309Q225 262 225 225Q225 197 229 173.5Q233 150 242.5 133Q252 116 267.5 106.5Q283 97 306 97Q344 97 379.5 118Q415 139 444 176L491 142Q449 68 387.5 29.5Q326 -9 241 -10L221 -46Q282 -54 309 -79Q336 -104 336 -152Q336 -176 326.5 -194.5Q317 -213 300.5 -225.5Q284 -238 261.5 -244Q239 -250 214 -250Q187 -250 162.5 -243Q138 -236 124 -227L135 -181Q150 -189 169 -195.5Q188 -202 207 -202Q221 -202 229 -197.5Q237 -193 237 -182Q237 -163 208.5 -152.5Q180 -142 120 -139L192 -6Q115 7 71.5 61Q28 115 28 206Q28 279 54.5 343.5Q81 408 127 457Q173 506 235.5 534.5Q298 563 370 563Q436 563 480 537Q524 511 524 457Q524 428 510 408Q496 388 472 378H384Q384 442 377 469Q370 496 347 496Z" glyph-name="ccedilla" horiz-adv-x="532" unicode="&#231;" /><glyph d="M570 39Q546 25 517 16Q488 7 458 1.5Q428 -4 398 -7Q368 -10 343 -10L323 -46Q384 -54 411 -79Q438 -104 438 -152Q438 -176 428.5 -194.5Q419 -213 402.5 -225.5Q386 -238 363.5 -244Q341 -250 316 -250Q289 -250 264.5 -243Q240 -236 226 -227L237 -181Q252 -189 271 -195.5Q290 -202 309 -202Q323 -202 331 -197.5Q339 -193 339 -182Q339 -163 310.5 -152.5Q282 -142 222 -139L293 -8Q225 -2 175.5 19Q126 40 93.5 74Q61 108 45.5 153.5Q30 199 30 252Q30 342 62 407.5Q94 473 146.5 515Q199 557 265.5 577Q332 597 401 597Q472 597 526 582Q580 567 622 532L607 379H511Q508 448 484 483.5Q460 519 406 519Q368 519 338.5 496Q309 473 289 434.5Q269 396 258.5 346.5Q248 297 248 244Q248 163 274.5 116.5Q301 70 359 70Q412 70 445 105.5Q478 141 505 211H606Z" glyph-name="ccedilla.smcp" horiz-adv-x="662" unicode="&#57912;" /><glyph d="M347 496Q317 496 294 467.5Q271 439 256 397.5Q241 356 233 309Q225 262 225 225Q225 197 229 173.5Q233 150 242.5 133Q252 116 267.5 106.5Q283 97 306 97Q344 97 379.5 118Q415 139 444 176L491 142Q449 68 387 29Q325 -10 240 -10Q142 -10 85 46.5Q28 103 28 206Q28 279 54.5 343.5Q81 408 127 457Q173 506 235.5 534.5Q298 563 370 563Q436 563 480 537Q524 511 524 457Q524 428 510 408Q496 388 472 378H384Q384 442 377 469Q370 496 347 496ZM576 592H475L373 684L236 592H136L322 800H442Z" glyph-name="ccircumflex" horiz-adv-x="532" unicode="&#265;" /><glyph d="M340 -10Q260 -10 201.5 9.5Q143 29 105 63.5Q67 98 48.5 146.5Q30 195 30 252Q30 342 62 407.5Q94 473 146.5 515Q199 557 265.5 577Q332 597 401 597Q472 597 526 582Q580 567 622 532L607 379H511Q508 448 484 483.5Q460 519 406 519Q368 519 338.5 496Q309 473 289 434.5Q269 396 258.5 346.5Q248 297 248 244Q248 163 274.5 116.5Q301 70 359 70Q412 70 445 105.5Q478 141 505 211H606L570 39Q545 25 515.5 16Q486 7 455.5 1Q425 -5 395 -7.5Q365 -10 340 -10ZM613 625H512L410 717L273 625H173L359 833H479Z" glyph-name="ccircumflex.smcp" horiz-adv-x="662" unicode="&#57909;" /><glyph d="M369 604Q323 604 299 631Q275 658 275 699Q275 746 304.5 778.5Q334 811 388 811Q433 811 457.5 784Q482 757 482 716Q482 670 452 637Q422 604 369 604ZM347 496Q317 496 294 467.5Q271 439 256 397.5Q241 356 233 309Q225 262 225 225Q225 197 229 173.5Q233 150 242.5 133Q252 116 267.5 106.5Q283 97 306 97Q344 97 379.5 118Q415 139 444 176L491 142Q449 68 387 29Q325 -10 240 -10Q142 -10 85 46.5Q28 103 28 206Q28 279 54.5 343.5Q81 408 127 457Q173 506 235.5 534.5Q298 563 370 563Q436 563 480 537Q524 511 524 457Q524 428 510 408Q496 388 472 378H384Q384 442 377 469Q370 496 347 496Z" glyph-name="cdotaccent" horiz-adv-x="532" unicode="&#267;" /><glyph d="M416 637Q370 637 346 664Q322 691 322 732Q322 779 351.5 811.5Q381 844 435 844Q480 844 504.5 817Q529 790 529 749Q529 703 499 670Q469 637 416 637ZM340 -10Q260 -10 201.5 9.5Q143 29 105 63.5Q67 98 48.5 146.5Q30 195 30 252Q30 342 62 407.5Q94 473 146.5 515Q199 557 265.5 577Q332 597 401 597Q472 597 526 582Q580 567 622 532L607 379H511Q508 448 484 483.5Q460 519 406 519Q368 519 338.5 496Q309 473 289 434.5Q269 396 258.5 346.5Q248 297 248 244Q248 163 274.5 116.5Q301 70 359 70Q412 70 445 105.5Q478 141 505 211H606L570 39Q545 25 515.5 16Q486 7 455.5 1Q425 -5 395 -7.5Q365 -10 340 -10Z" glyph-name="cdotaccent.smcp" horiz-adv-x="662" unicode="&#57911;" /><glyph d="M327 14 293 -46Q354 -54 381 -79Q408 -104 408 -152Q408 -176 398.5 -194.5Q389 -213 372.5 -225.5Q356 -238 333.5 -244Q311 -250 286 -250Q259 -250 234.5 -243Q210 -236 196 -227L207 -181Q222 -189 241 -195.5Q260 -202 279 -202Q293 -202 301 -197.5Q309 -193 309 -182Q309 -163 280.5 -152.5Q252 -142 192 -139L275 14Z" glyph-name="cedilla" horiz-adv-x="600" unicode="&#184;" /><glyph d="M240 367Q240 278 274 236L388 633Q347 629 318.5 603.5Q290 578 272.5 540Q255 502 247.5 456Q240 410 240 367ZM233 96Q142 107 88.5 168Q35 229 35 329Q35 401 58 466.5Q81 532 127.5 582.5Q174 633 244 664.5Q314 696 407 700L434 793H496L469 699Q534 693 571.5 666Q609 639 609 590Q609 559 594 540Q579 521 551 510H477Q477 552 470.5 579.5Q464 607 446 621L327 204Q340 201 355 201Q405 201 443 224.5Q481 248 513 284L566 249Q523 176 453 138Q383 100 295 95L264 -14H202Z" glyph-name="cent" horiz-adv-x="621" unicode="&#162;" /><glyph d="M240 367Q240 278 274 236L388 633Q347 629 318.5 603.5Q290 578 272.5 540Q255 502 247.5 456Q240 410 240 367ZM233 96Q142 107 88.5 168Q35 229 35 329Q35 401 58 466.5Q81 532 127.5 582.5Q174 633 244 664.5Q314 696 407 700L434 793H496L469 699Q534 693 571.5 666Q609 639 609 590Q609 559 594 540Q579 521 551 510H477Q477 552 470.5 579.5Q464 607 446 621L327 204Q340 201 355 201Q405 201 443 224.5Q481 248 513 284L566 249Q523 176 453 138Q383 100 295 95L264 -14H202Z" glyph-name="cent.LP" horiz-adv-x="621" unicode="&#58659;" /><glyph d="M240 263Q240 174 274 132L388 529Q347 525 318.5 499.5Q290 474 272.5 436Q255 398 247.5 352Q240 306 240 263ZM233 -8Q142 3 88.5 64Q35 125 35 225Q35 297 58 362.5Q81 428 127.5 478.5Q174 529 244 560.5Q314 592 407 596L434 689H496L469 595Q534 589 571.5 562Q609 535 609 486Q609 455 594 436Q579 417 551 406H477Q477 448 470.5 475.5Q464 503 446 517L327 100Q340 97 355 97Q405 97 443 120.5Q481 144 513 180L566 145Q523 72 453 34Q383 -4 295 -9L264 -118H202Z" glyph-name="cent.OP" horiz-adv-x="621" unicode="&#59807;" /><glyph d="M520 592H419L317 684L180 592H80L266 800H386Z" glyph-name="circumflex" horiz-adv-x="600" unicode="&#710;" /><glyph d="M520 822H419L317 914L180 822H80L266 1030H386Z" glyph-name="circumflex.cap" horiz-adv-x="600" unicode="&#58403;" /><glyph d="M349 0Q368 37 381.5 73Q395 109 404.5 147Q414 185 420.5 227Q427 269 431 320L428 321Q415 290 396 261Q377 232 352 209.5Q327 187 296 173.5Q265 160 228 160Q191 160 159 173.5Q127 187 103 210.5Q79 234 65.5 265.5Q52 297 52 334Q52 373 64.5 406Q77 439 100 463Q123 487 155 500.5Q187 514 226 514Q252 514 272.5 507Q293 500 310 491L312 493Q295 518 284.5 547.5Q274 577 274 610Q274 647 287.5 680Q301 713 324.5 737.5Q348 762 380 776Q412 790 450 790Q488 790 520 776Q552 762 575.5 737.5Q599 713 612.5 680Q626 647 626 610Q626 577 615.5 547.5Q605 518 588 493L590 491Q607 500 627.5 507Q648 514 674 514Q713 514 745 500.5Q777 487 800 463Q823 439 835.5 406Q848 373 848 334Q848 297 834.5 265.5Q821 234 797 210.5Q773 187 741 173.5Q709 160 672 160Q635 160 604 173.5Q573 187 548 209.5Q523 232 504 261Q485 290 472 321L469 320Q473 269 479.5 227Q486 185 495.5 147Q505 109 518.5 73Q532 37 551 0Z" glyph-name="club" horiz-adv-x="900" unicode="&#9827;" /><glyph d="M74 390Q74 417 83.5 439Q93 461 109 477Q125 493 147 502Q169 511 194 511Q219 511 241 502Q263 493 279 477Q295 461 304.5 439Q314 417 314 390Q314 363 304.5 341Q295 319 279 303.5Q263 288 241 279Q219 270 194 270Q169 270 147 279Q125 288 109 303.5Q93 319 83.5 341Q74 363 74 390ZM41 110Q41 137 50.5 159Q60 181 76 197Q92 213 114 222Q136 231 161 231Q186 231 208 222Q230 213 246 197Q262 181 271.5 159Q281 137 281 110Q281 83 271.5 61Q262 39 246 23.5Q230 8 208 -1Q186 -10 161 -10Q136 -10 114 -1Q92 8 76 23.5Q60 39 50.5 61Q41 83 41 110Z" glyph-name="colon" horiz-adv-x="370" unicode=":" /><glyph d="M36 389Q36 414 45.5 436.5Q55 459 70.5 475.5Q86 492 107 501.5Q128 511 152 511Q176 511 197.5 501.5Q219 492 235 475.5Q251 459 260.5 436.5Q270 414 270 389Q270 365 260.5 343Q251 321 235 305Q219 289 197.5 279.5Q176 270 152 270Q128 270 107 279.5Q86 289 70.5 305Q55 321 45.5 343Q36 365 36 389ZM4 109Q4 134 13 156.5Q22 179 38 195.5Q54 212 75 221.5Q96 231 119 231Q144 231 165.5 221.5Q187 212 203 195.5Q219 179 228.5 156.5Q238 134 238 109Q238 85 228.5 63Q219 41 203 25Q187 9 165.5 -0.5Q144 -10 119 -10Q96 -10 75 -0.5Q54 9 38 25Q22 41 13 63Q4 85 4 109Z" glyph-name="colon.T" horiz-adv-x="315" unicode="&#61828;" /><glyph d="M127 15Q89 24 65 49.5Q41 75 41 120Q41 168 70 199.5Q99 231 153 231Q211 231 244 190.5Q277 150 277 84Q277 24 257 -21.5Q237 -67 201 -99Q165 -131 114 -149Q63 -167 0 -171L6 -102Q34 -98 63 -89.5Q92 -81 115.5 -67.5Q139 -54 154.5 -34Q170 -14 172 15Z" glyph-name="comma" horiz-adv-x="370" unicode="," /><glyph d="M100 20Q62 29 38 54.5Q14 80 14 125Q14 149 21.5 169.5Q29 190 43 205.5Q57 221 77 230Q97 239 122 239Q183 239 216.5 200Q250 161 250 84Q250 24 230 -21Q210 -66 174 -97.5Q138 -129 87 -146.5Q36 -164 -27 -168L-21 -96Q8 -92 37 -84Q66 -76 89 -62.5Q112 -49 127.5 -29Q143 -9 145 20Z" glyph-name="comma.T" horiz-adv-x="327" unicode="&#61827;" /><glyph d="M269 -156Q242 -154 227 -138Q212 -122 212 -97Q212 -68 232.5 -49Q253 -30 291 -30Q335 -30 361 -56.5Q387 -83 387 -127Q387 -179 347.5 -214.5Q308 -250 219 -250L231 -203Q276 -199 293 -188Q310 -177 310 -156Z" glyph-name="commaaccent" horiz-adv-x="600" unicode="&#58388;" /><glyph d="M458 203Q500 203 526 231.5Q552 260 574 325H657L628 181Q592 161 546 150.5Q500 140 442 140Q381 140 336 157Q291 174 261.5 204Q232 234 217.5 274.5Q203 315 203 362Q203 438 227 492Q251 546 291.5 580.5Q332 615 383.5 630.5Q435 646 491 646Q548 646 599.5 633.5Q651 621 683 593L665 473H589Q586 532 562.5 559Q539 586 496 586Q442 586 405 528.5Q368 471 368 360Q368 287 389.5 245Q411 203 458 203ZM84 390Q84 313 113 246Q142 179 192.5 128.5Q243 78 310 49Q377 20 454 20Q530 20 597.5 49Q665 78 715.5 128.5Q766 179 795 246Q824 313 824 390Q824 466 795 533.5Q766 601 715.5 651.5Q665 702 597.5 731Q530 760 454 760Q377 760 310 731Q243 702 192.5 651.5Q142 601 113 533.5Q84 466 84 390ZM54 390Q54 473 85.5 546Q117 619 171 673Q225 727 298 758.5Q371 790 454 790Q537 790 610 758.5Q683 727 737 673Q791 619 822.5 546Q854 473 854 390Q854 307 822.5 234Q791 161 737 107Q683 53 610 21.5Q537 -10 454 -10Q371 -10 298 21.5Q225 53 171 107Q117 161 85.5 234Q54 307 54 390Z" glyph-name="copyright" horiz-adv-x="890" unicode="&#169;" /><glyph d="M266 697Q245 697 229.5 677Q214 657 203.5 628.5Q193 600 188 567.5Q183 535 183 510Q183 472 194 447Q205 422 237 422Q260 422 286.5 435.5Q313 449 335 475L370 450Q309 345 192 345Q124 345 81.5 385.5Q39 426 39 501Q39 549 58 593Q77 637 110 670.5Q143 704 187.5 724Q232 744 284 744Q328 744 359.5 728Q391 712 391 672Q391 651 381 636Q371 621 354 615H289Q290 661 285 679Q280 697 266 697Z" glyph-name="cordinal" horiz-adv-x="387" unicode="&#57729;" /><glyph d="M283 344Q226 344 183 360Q140 376 111.5 402.5Q83 429 68.5 464Q54 499 54 537Q54 606 78.5 654.5Q103 703 143 733Q183 763 233.5 777Q284 791 335 791Q387 791 434 780Q481 769 510 743L492 630H414Q412 682 392 707Q372 732 338 732Q284 732 255.5 679.5Q227 627 227 537Q227 508 231 483.5Q235 459 244 441Q253 423 267.5 413Q282 403 303 403Q341 403 361 431.5Q381 460 399 505H486L458 379Q419 361 372 352.5Q325 344 283 344Z" glyph-name="cordinal.smcp" horiz-adv-x="523" unicode="&#58195;" /><glyph d="M329 117Q353 117 373 136Q393 155 408 188.5Q423 222 431 268.5Q439 315 439 370Q439 430 423.5 468.5Q408 507 378 507Q354 507 333.5 488Q313 469 298.5 435.5Q284 402 276 355.5Q268 309 268 254Q268 194 283.5 155.5Q299 117 329 117ZM316 52Q269 52 229 67.5Q189 83 158 110L77 36L39 79L120 152Q102 179 92 211Q82 243 82 278Q82 336 101 386Q120 436 155 474L95 544L145 588L205 517Q243 543 290 557.5Q337 572 391 572Q438 572 478 556.5Q518 541 549 514L630 588L668 545L586 472Q625 416 625 346Q625 287 605.5 237.5Q586 188 551 150L612 80L562 36L502 107Q464 81 417 66.5Q370 52 316 52Z" glyph-name="currency" horiz-adv-x="712" unicode="&#164;" /><glyph d="M457 726 464 769 688 810H736Q730 779 718 720.5Q706 662 691.5 591.5Q677 521 661.5 444.5Q646 368 633.5 301.5Q621 235 613 185Q605 135 605 117Q605 94 622 94Q635 94 648.5 102Q662 110 682 126L718 88Q692 62 668.5 43.5Q645 25 621 13Q597 1 571.5 -4.5Q546 -10 516 -10Q459 -10 433.5 19.5Q408 49 408 100Q408 140 420.5 181.5Q433 223 446 268H438Q427 238 412 206Q397 174 374 133Q339 69 292.5 29.5Q246 -10 179 -10Q113 -10 70.5 36.5Q28 83 28 170Q28 250 54.5 321.5Q81 393 129.5 446.5Q178 500 247 531.5Q316 563 400 563Q453 563 494 548Q497 557 500.5 572.5Q504 588 508 606Q512 624 515 642.5Q518 661 519 675ZM264 124Q299 124 330.5 161.5Q362 199 392 261Q405 289 418.5 320.5Q432 352 443.5 382.5Q455 413 463.5 440.5Q472 468 476 488Q466 494 452 498Q438 502 417 502Q375 502 339.5 471.5Q304 441 278 394.5Q252 348 237.5 292.5Q223 237 223 187Q223 157 233.5 140.5Q244 124 264 124Z" glyph-name="d" horiz-adv-x="737" unicode="d" /><glyph d="M3 75Q33 76 50.5 80Q68 84 77.5 93Q87 102 90.5 117Q94 132 97 156L132 438Q133 444 133.5 451Q134 458 134 468Q134 480 131 488.5Q128 497 119.5 502Q111 507 96 509Q81 511 57 512L66 587H405Q577 587 668.5 519Q760 451 760 328Q760 245 731.5 183Q703 121 652.5 80.5Q602 40 532 20Q462 0 379 0H-6ZM307 164Q305 152 304 142Q303 132 303 121Q303 95 318.5 86.5Q334 78 360 78H380Q408 78 437 92Q466 106 489.5 136.5Q513 167 527.5 214.5Q542 262 542 329Q542 509 379 509H349Z" glyph-name="d.smcp" horiz-adv-x="795" unicode="&#57860;" /><glyph d="M355 740Q357 745 360 755Q363 765 366 777Q369 789 371.5 802Q374 815 375 825L331 859L337 891L515 919H549Q545 897 536.5 856.5Q528 816 517.5 767Q507 718 496.5 665Q486 612 477 565.5Q468 519 462.5 484.5Q457 450 457 437Q457 419 468 419Q478 419 485.5 423.5Q493 428 508 441L535 413Q516 395 499 382Q482 369 464.5 360.5Q447 352 428 348.5Q409 345 387 345Q346 345 322.5 365.5Q299 386 299 423Q299 450 308 478.5Q317 507 327 539H320Q312 518 302.5 496Q293 474 273 441Q247 396 215.5 370.5Q184 345 138 345Q93 345 64 377.5Q35 410 35 470Q35 525 54 575Q73 625 107.5 662.5Q142 700 191.5 722Q241 744 302 744Q315 744 327 743Q339 742 355 740ZM209 446Q232 446 250.5 469.5Q269 493 289 536Q308 576 324 620Q340 664 346 693Q333 698 313 698Q289 698 266 676.5Q243 655 226 622.5Q209 590 198.5 552Q188 514 188 481Q188 446 209 446Z" glyph-name="d.superior" horiz-adv-x="511" unicode="&#58212;" /><glyph d="M493 780 499 738 424 492 675 537 715 527 699 391 657 381 416 425 432 196 318 -250H283L279 196L352 425L100 381L60 391L76 527L119 537L359 492L346 738L360 780Z" glyph-name="dagger" horiz-adv-x="744" unicode="&#8224;" /><glyph d="M358 425 107 381 66 391 83 527 125 537 366 492 352 738 367 780H499L505 738L430 492L681 537L721 527L705 391L663 381L422 425L450 261L383 113L634 158L674 148L658 12L616 2L375 46L390 -199L374 -241H242L237 -199L311 46L60 2L20 12L36 148L78 158L319 113L290 261Z" glyph-name="daggerdbl" horiz-adv-x="752" unicode="&#8225;" /><glyph d="M457 726 464 769 688 810H736Q730 779 718 720.5Q706 662 691.5 591.5Q677 521 661.5 444.5Q646 368 633.5 301.5Q621 235 613 185Q605 135 605 117Q605 94 622 94Q635 94 648.5 102Q662 110 682 126L718 88Q692 62 668.5 43.5Q645 25 621 13Q597 1 571.5 -4.5Q546 -10 516 -10Q459 -10 433.5 19.5Q408 49 408 100Q408 140 420.5 181.5Q433 223 446 268H438Q427 238 412 206Q397 174 374 133Q339 69 292.5 29.5Q246 -10 179 -10Q113 -10 70.5 36.5Q28 83 28 170Q28 250 54.5 321.5Q81 393 129.5 446.5Q178 500 247 531.5Q316 563 400 563Q453 563 494 548Q497 557 500.5 572.5Q504 588 508 606Q512 624 515 642.5Q518 661 519 675ZM264 124Q299 124 330.5 161.5Q362 199 392 261Q405 289 418.5 320.5Q432 352 443.5 382.5Q455 413 463.5 440.5Q472 468 476 488Q466 494 452 498Q438 502 417 502Q375 502 339.5 471.5Q304 441 278 394.5Q252 348 237.5 292.5Q223 237 223 187Q223 157 233.5 140.5Q244 124 264 124ZM984 800 846 592H753L802 800Z" glyph-name="dcaron" horiz-adv-x="737" unicode="&#271;" /><glyph d="M3 75Q33 76 50.5 80Q68 84 77.5 93Q87 102 90.5 117Q94 132 97 156L132 438Q133 444 133.5 451Q134 458 134 468Q134 480 131 488.5Q128 497 119.5 502Q111 507 96 509Q81 511 57 512L66 587H405Q577 587 668.5 519Q760 451 760 328Q760 245 731.5 183Q703 121 652.5 80.5Q602 40 532 20Q462 0 379 0H-6ZM307 164Q305 152 304 142Q303 132 303 121Q303 95 318.5 86.5Q334 78 360 78H380Q408 78 437 92Q466 106 489.5 136.5Q513 167 527.5 214.5Q542 262 542 329Q542 509 379 509H349ZM228 833H329L434 741L568 833H668L482 625H362Z" glyph-name="dcaron.smcp" horiz-adv-x="795" unicode="&#57913;" /><glyph d="M264 124Q299 124 330.5 161.5Q362 199 392 261Q405 289 418.5 320.5Q432 352 443.5 382.5Q455 413 463.5 440.5Q472 468 476 488Q466 494 452 498Q438 502 417 502Q375 502 339.5 471.5Q304 441 278 394.5Q252 348 237.5 292.5Q223 237 223 187Q223 157 233.5 140.5Q244 124 264 124ZM457 726 464 769 688 810H736L705 658H776L766 593H691Q676 522 661 445.5Q646 369 633.5 302Q621 235 613 185Q605 135 605 117Q605 94 622 94Q635 94 648.5 102Q662 110 682 126L718 88Q692 62 668.5 43.5Q645 25 621 13Q597 1 571.5 -4.5Q546 -10 516 -10Q459 -10 433.5 19.5Q408 49 408 100Q408 140 420.5 181.5Q433 223 446 268H438Q427 238 412 206Q397 174 374 133Q339 69 292.5 29.5Q246 -10 179 -10Q113 -10 70.5 36.5Q28 83 28 170Q28 250 54.5 321.5Q81 393 129.5 446.5Q178 500 247 531.5Q316 563 400 563Q453 563 494 548Q499 565 505 593H348L359 658H517L519 675Z" glyph-name="dcroat" horiz-adv-x="737" unicode="&#273;" /><glyph d="M327 333H462L453 262H319L307 164Q305 152 304 142Q303 132 303 121Q303 95 318.5 86.5Q334 78 360 78H380Q408 78 437 92Q466 106 489.5 136.5Q513 167 527.5 214.5Q542 262 542 329Q542 509 379 509H349ZM40 333H119L132 438Q133 444 133.5 451Q134 458 134 468Q134 480 131 488.5Q128 497 119.5 502Q111 507 96 509Q81 511 57 512L66 587H405Q577 587 668.5 519Q760 451 760 328Q760 245 731.5 183Q703 121 652.5 80.5Q602 40 532 20Q462 0 379 0H-6L3 75Q33 76 50.5 80Q68 84 77.5 93Q87 102 90.5 117Q94 132 97 156L110 262H31Z" glyph-name="dcroat.smcp" horiz-adv-x="795" unicode="&#57916;" /><glyph d="M264 397Q224 397 191 411Q158 425 134.5 448.5Q111 472 98 503.5Q85 535 85 571Q85 618 100.5 658Q116 698 144.5 727.5Q173 757 212 773.5Q251 790 298 790Q338 790 371 776Q404 762 427.5 738.5Q451 715 464 683.5Q477 652 477 616Q477 569 461.5 529Q446 489 417.5 459.5Q389 430 350 413.5Q311 397 264 397ZM271 480Q319 480 348.5 515.5Q378 551 378 608Q378 648 356.5 677.5Q335 707 291 707Q243 707 213.5 671.5Q184 636 184 579Q184 539 205.5 509.5Q227 480 271 480Z" glyph-name="degree" horiz-adv-x="503" unicode="&#176;" /><glyph d="M817 390Q764 348 712.5 300.5Q661 253 614 201.5Q567 150 525.5 96.5Q484 43 451 -10H449Q416 43 374.5 96.5Q333 150 286 201.5Q239 253 187.5 300.5Q136 348 83 390Q136 432 187.5 479.5Q239 527 286 578.5Q333 630 374.5 683.5Q416 737 449 790H451Q484 737 525.5 683.5Q567 630 614 578.5Q661 527 712.5 479.5Q764 432 817 390Z" glyph-name="diamond" horiz-adv-x="900" unicode="&#9830;" /><glyph d="M410 601Q366 601 342.5 627.5Q319 654 319 693Q319 738 348.5 770Q378 802 429 802Q474 802 497 775.5Q520 749 520 710Q520 688 512.5 668Q505 648 491 633Q477 618 456.5 609.5Q436 601 410 601ZM171 601Q126 601 103 627.5Q80 654 80 693Q80 738 109 770Q138 802 190 802Q234 802 257.5 775.5Q281 749 281 710Q281 688 273.5 668Q266 648 251.5 633Q237 618 216.5 609.5Q196 601 171 601Z" glyph-name="dieresis" horiz-adv-x="600" unicode="&#168;" /><glyph d="M410 828Q366 828 342.5 854.5Q319 881 319 920Q319 965 348.5 997Q378 1029 429 1029Q474 1029 497 1002.5Q520 976 520 937Q520 915 512.5 895Q505 875 491 860Q477 845 456.5 836.5Q436 828 410 828ZM171 828Q126 828 103 854.5Q80 881 80 920Q80 965 109 997Q138 1029 190 1029Q234 1029 257.5 1002.5Q281 976 281 937Q281 915 273.5 895Q266 875 251.5 860Q237 845 216.5 836.5Q196 828 171 828Z" glyph-name="dieresis.cap" horiz-adv-x="600" unicode="&#58409;" /><glyph d="M232 94Q232 132 257.5 158Q283 184 320 184Q338 184 354 177Q370 170 382 158Q394 146 401 129.5Q408 113 408 94Q408 76 401 59.5Q394 43 382 30.5Q370 18 354 11Q338 4 320 4Q283 4 257.5 30.5Q232 57 232 94ZM286 515Q286 552 311.5 578.5Q337 605 374 605Q392 605 408 598Q424 591 436 578.5Q448 566 455 549.5Q462 533 462 515Q462 496 455 479.5Q448 463 436 451Q424 439 408 432Q392 425 374 425Q337 425 311.5 451Q286 477 286 515ZM71 251 83 358H623L611 251Z" glyph-name="divide" horiz-adv-x="700" unicode="&#247;" /><glyph d="M231 179Q231 217 256.5 243Q282 269 319 269Q337 269 353 262Q369 255 381 243Q393 231 400 214.5Q407 198 407 179Q407 161 400 144.5Q393 128 381 115.5Q369 103 353 96Q337 89 319 89Q282 89 256.5 115.5Q231 142 231 179ZM285 600Q285 637 310.5 663.5Q336 690 373 690Q391 690 407 683Q423 676 435 663.5Q447 651 454 634.5Q461 618 461 600Q461 581 454 564.5Q447 548 435 536Q423 524 407 517Q391 510 373 510Q336 510 310.5 536Q285 562 285 600ZM70 336 82 443H622L610 336Z" glyph-name="divide.cap" horiz-adv-x="700" unicode="&#58772;" /><glyph d="M250 622Q250 587 269 565Q288 543 338 519L377 709Q372 710 365.5 710.5Q359 711 353 711Q305 711 277.5 688.5Q250 666 250 622ZM441 165Q441 205 420.5 229.5Q400 254 353 277L310 71H325Q375 71 408 94Q441 117 441 165ZM231 -4Q165 5 114.5 26Q64 47 35 71L44 259H151Q158 196 181.5 151Q205 106 249 86L294 302L288 305Q243 323 204 342.5Q165 362 136.5 388.5Q108 415 91.5 450.5Q75 486 75 537Q75 601 98 648.5Q121 696 161 727.5Q201 759 254.5 774.5Q308 790 369 790Q375 790 381.5 790Q388 790 394 789L418 905H482L457 783Q514 775 557.5 756Q601 737 630 714L614 540H512Q507 588 491 628Q475 668 438 690L397 494Q445 474 487 453Q529 432 560 404Q591 376 609 339.5Q627 303 627 253Q627 189 603.5 140Q580 91 538 57.5Q496 24 437.5 7Q379 -10 310 -10H293L270 -125H206Z" glyph-name="dollar" horiz-adv-x="694" unicode="$" /><glyph d="M250 622Q250 587 269 565Q288 543 338 519L377 709Q372 710 365.5 710.5Q359 711 353 711Q305 711 277.5 688.5Q250 666 250 622ZM441 165Q441 205 420.5 229.5Q400 254 353 277L310 71H325Q375 71 408 94Q441 117 441 165ZM231 -4Q165 5 114.5 26Q64 47 35 71L44 259H151Q158 196 181.5 151Q205 106 249 86L294 302L288 305Q243 323 204 342.5Q165 362 136.5 388.5Q108 415 91.5 450.5Q75 486 75 537Q75 601 98 648.5Q121 696 161 727.5Q201 759 254.5 774.5Q308 790 369 790Q375 790 381.5 790Q388 790 394 789L418 905H482L457 783Q514 775 557.5 756Q601 737 630 714L614 540H512Q507 588 491 628Q475 668 438 690L397 494Q445 474 487 453Q529 432 560 404Q591 376 609 339.5Q627 303 627 253Q627 189 603.5 140Q580 91 538 57.5Q496 24 437.5 7Q379 -10 310 -10H293L270 -125H206Z" glyph-name="dollar.LP" horiz-adv-x="694" unicode="&#58658;" /><glyph d="M243 520Q243 491 260 473Q277 455 315 439L359 593Q354 593 348.5 593.5Q343 594 338 594Q290 594 266.5 573Q243 552 243 520ZM398 136Q398 168 377.5 187Q357 206 315 222L268 58H288Q337 58 367.5 77Q398 96 398 136ZM189 -3Q135 5 90.5 22.5Q46 40 18 62L32 217H133Q138 165 153.5 126.5Q169 88 210 71L259 241Q208 257 171.5 276Q135 295 112.5 319Q90 343 79.5 373.5Q69 404 69 444Q69 496 88.5 536.5Q108 577 144 605Q180 633 231.5 647.5Q283 662 346 662Q354 662 362.5 662Q371 662 379 661L410 769H472L439 655Q487 648 522.5 634.5Q558 621 587 603L569 464H481Q476 500 461 529.5Q446 559 417 576L372 419L384 416Q479 387 528.5 339.5Q578 292 578 212Q578 156 556.5 114Q535 72 495.5 44.5Q456 17 400 3.5Q344 -10 276 -10Q269 -10 262.5 -10Q256 -10 249 -9L218 -118H156Z" glyph-name="dollar.OP" horiz-adv-x="617" unicode="&#59806;" /><glyph d="M290 604Q244 604 220 631Q196 658 196 699Q196 746 225.5 778.5Q255 811 309 811Q354 811 378.5 784Q403 757 403 716Q403 670 373 637Q343 604 290 604Z" glyph-name="dotaccent" horiz-adv-x="600" unicode="&#729;" /><glyph d="M290 829Q244 829 220 856Q196 883 196 924Q196 971 225.5 1003.5Q255 1036 309 1036Q354 1036 378.5 1009Q403 982 403 941Q403 895 373 862Q343 829 290 829Z" glyph-name="dotaccent.cap" horiz-adv-x="600" unicode="&#58408;" /><glyph d="M294 -259Q251 -259 225.5 -232.5Q200 -206 200 -167Q200 -123 227 -93.5Q254 -64 305 -64Q348 -64 373.5 -90.5Q399 -117 399 -156Q399 -200 372 -229.5Q345 -259 294 -259Z" glyph-name="dotbelow" horiz-adv-x="600" unicode="&#58389;" /><glyph d="M324 462Q324 443 319.5 413.5Q315 384 307.5 349.5Q300 315 292 278.5Q284 242 276.5 210Q269 178 264.5 153Q260 128 260 117Q260 94 277 94Q290 94 303 102Q316 110 337 126L373 88Q347 62 323 43.5Q299 25 275 13Q251 1 225.5 -4.5Q200 -10 171 -10Q112 -10 85.5 19.5Q59 49 59 100Q59 117 64 144Q69 171 76 203.5Q83 236 91.5 270Q100 304 107 335.5Q114 367 119 392Q124 417 124 431Q124 457 106 457Q94 457 83 449.5Q72 442 50 423L14 464Q39 488 63 506Q87 524 112 537Q137 550 164 556.5Q191 563 223 563Q277 563 300.5 536.5Q324 510 324 462Z" glyph-name="dotlessi" horiz-adv-x="398" unicode="&#305;" /><glyph d="M11 464Q62 512 109 537.5Q156 563 219 563Q271 563 296.5 536.5Q322 510 322 462Q322 442 317 403.5Q312 365 304 326L245 35Q229 -43 203 -97.5Q177 -152 140 -185.5Q103 -219 55.5 -234.5Q8 -250 -51 -250Q-123 -250 -168.5 -225Q-214 -200 -214 -144Q-214 -118 -202 -97.5Q-190 -77 -164 -67H-78Q-74 -124 -63 -157.5Q-52 -191 -23 -191Q3 -191 13 -168Q23 -145 31 -98L106 321Q113 359 117.5 386.5Q122 414 122 431Q122 457 103 457Q91 457 80 449.5Q69 442 47 423Z" glyph-name="dotlessj" horiz-adv-x="366" unicode="&#567;" /><glyph d="M331 -120H236L352 830H447ZM146 -120H51L167 830H262Z" glyph-name="doublebar" horiz-adv-x="480" unicode="&#8214;" /><glyph d="M325 -90H230L346 860H441ZM140 -90H45L161 860H256Z" glyph-name="doublebar.cap" horiz-adv-x="480" unicode="&#58468;" /><glyph d="M326 -120H231L336 739H431ZM141 -120H45L150 739H246Z" glyph-name="doublebar.smcp" horiz-adv-x="480" unicode="&#58474;" /><glyph d="M260 800 301 592H218L99 800ZM453 800 501 592H416L305 800Z" glyph-name="doublegrave" horiz-adv-x="600" unicode="&#58386;" /><glyph d="M260 1030 301 822H218L99 1030ZM453 1030 501 822H416L305 1030Z" glyph-name="doublegrave.cap" horiz-adv-x="600" unicode="&#58412;" /><glyph d="M356 496Q335 496 314 478.5Q293 461 275.5 432.5Q258 404 245.5 366Q233 328 229 288Q310 302 349.5 346Q389 390 389 455Q389 472 382.5 484Q376 496 356 496ZM542 163Q497 79 426 34.5Q355 -10 255 -10Q200 -10 158 6Q116 22 87 50.5Q58 79 43 119.5Q28 160 28 209Q28 276 53.5 340Q79 404 125 453.5Q171 503 235 533Q299 563 376 563Q464 563 509.5 527Q555 491 555 425Q555 374 529 339.5Q503 305 458.5 283Q414 261 354 248.5Q294 236 227 229V214Q227 190 231.5 169Q236 148 247 132.5Q258 117 276 107.5Q294 98 320 98Q370 98 414 123Q458 148 496 196Z" glyph-name="e" horiz-adv-x="577" unicode="e" /><glyph d="M681 587 661 377H574Q568 403 563 427Q558 451 549 469Q540 487 523.5 498Q507 509 478 509H349L327 330H384Q413 330 425.5 349.5Q438 369 450 407H522L495 179H423Q420 218 412.5 237.5Q405 257 375 257H318L307 164Q304 140 304 121Q304 95 322 86.5Q340 78 379 78H418Q445 78 464.5 84.5Q484 91 502 107.5Q520 124 539.5 151Q559 178 586 219H676L615 0H-6L3 75Q33 76 50.5 80Q68 84 77.5 93Q87 102 90.5 117Q94 132 97 156L132 438Q133 444 133.5 451Q134 458 134 468Q134 480 131 488.5Q128 497 119.5 502Q111 507 96 509Q81 511 57 512L66 587Z" glyph-name="e.smcp" horiz-adv-x="731" unicode="&#57861;" /><glyph d="M272 697Q258 697 244.5 685.5Q231 674 219 654Q207 634 199 608Q191 582 188 554Q242 564 267.5 592Q293 620 293 668Q293 679 289.5 688Q286 697 272 697ZM405 467Q373 407 322.5 376Q272 345 200 345Q122 345 80.5 387.5Q39 430 39 502Q39 545 57 588.5Q75 632 107.5 666.5Q140 701 184.5 722.5Q229 744 283 744Q414 744 414 644Q414 609 398 586Q382 563 352 548Q322 533 280 524.5Q238 516 186 510V503Q186 471 198 447.5Q210 424 245 424Q279 424 312.5 440.5Q346 457 372 490Z" glyph-name="e.superior" horiz-adv-x="409" unicode="&#58213;" /><glyph d="M356 496Q335 496 314 478.5Q293 461 275.5 432.5Q258 404 245.5 366Q233 328 229 288Q310 302 349.5 346Q389 390 389 455Q389 472 382.5 484Q376 496 356 496ZM542 163Q497 79 426 34.5Q355 -10 255 -10Q200 -10 158 6Q116 22 87 50.5Q58 79 43 119.5Q28 160 28 209Q28 276 53.5 340Q79 404 125 453.5Q171 503 235 533Q299 563 376 563Q464 563 509.5 527Q555 491 555 425Q555 374 529 339.5Q503 305 458.5 283Q414 261 354 248.5Q294 236 227 229V214Q227 190 231.5 169Q236 148 247 132.5Q258 117 276 107.5Q294 98 320 98Q370 98 414 123Q458 148 496 196ZM671 800 417 592H316L447 800Z" glyph-name="eacute" horiz-adv-x="577" unicode="&#233;" /><glyph d="M681 587 661 377H574Q568 403 563 427Q558 451 549 469Q540 487 523.5 498Q507 509 478 509H349L327 330H384Q413 330 425.5 349.5Q438 369 450 407H522L495 179H423Q420 218 412.5 237.5Q405 257 375 257H318L307 164Q304 140 304 121Q304 95 322 86.5Q340 78 379 78H418Q445 78 464.5 84.5Q484 91 502 107.5Q520 124 539.5 151Q559 178 586 219H676L615 0H-6L3 75Q33 76 50.5 80Q68 84 77.5 93Q87 102 90.5 117Q94 132 97 156L132 438Q133 444 133.5 451Q134 458 134 468Q134 480 131 488.5Q128 497 119.5 502Q111 507 96 509Q81 511 57 512L66 587ZM700 833 446 625H345L476 833Z" glyph-name="eacute.smcp" horiz-adv-x="731" unicode="&#57917;" /><glyph d="M385 598Q304 598 266.5 638Q229 678 229 750Q229 774 232 800H295Q295 756 320.5 737Q346 718 397 718Q448 718 479.5 736.5Q511 755 525 800H588Q576 705 529 651.5Q482 598 385 598ZM356 496Q335 496 314 478.5Q293 461 275.5 432.5Q258 404 245.5 366Q233 328 229 288Q310 302 349.5 346Q389 390 389 455Q389 472 382.5 484Q376 496 356 496ZM542 163Q497 79 426 34.5Q355 -10 255 -10Q200 -10 158 6Q116 22 87 50.5Q58 79 43 119.5Q28 160 28 209Q28 276 53.5 340Q79 404 125 453.5Q171 503 235 533Q299 563 376 563Q464 563 509.5 527Q555 491 555 425Q555 374 529 339.5Q503 305 458.5 283Q414 261 354 248.5Q294 236 227 229V214Q227 190 231.5 169Q236 148 247 132.5Q258 117 276 107.5Q294 98 320 98Q370 98 414 123Q458 148 496 196Z" glyph-name="ebreve" horiz-adv-x="577" unicode="&#277;" /><glyph d="M404 631Q323 631 285.5 671Q248 711 248 783Q248 807 251 833H314Q314 789 339.5 770Q365 751 416 751Q467 751 498.5 769.5Q530 788 544 833H607Q595 738 548 684.5Q501 631 404 631ZM681 587 661 377H574Q568 403 563 427Q558 451 549 469Q540 487 523.5 498Q507 509 478 509H349L327 330H384Q413 330 425.5 349.5Q438 369 450 407H522L495 179H423Q420 218 412.5 237.5Q405 257 375 257H318L307 164Q304 140 304 121Q304 95 322 86.5Q340 78 379 78H418Q445 78 464.5 84.5Q484 91 502 107.5Q520 124 539.5 151Q559 178 586 219H676L615 0H-6L3 75Q33 76 50.5 80Q68 84 77.5 93Q87 102 90.5 117Q94 132 97 156L132 438Q133 444 133.5 451Q134 458 134 468Q134 480 131 488.5Q128 497 119.5 502Q111 507 96 509Q81 511 57 512L66 587Z" glyph-name="ebreve.smcp" horiz-adv-x="731" unicode="&#57923;" /><glyph d="M356 496Q335 496 314 478.5Q293 461 275.5 432.5Q258 404 245.5 366Q233 328 229 288Q310 302 349.5 346Q389 390 389 455Q389 472 382.5 484Q376 496 356 496ZM542 163Q497 79 426 34.5Q355 -10 255 -10Q200 -10 158 6Q116 22 87 50.5Q58 79 43 119.5Q28 160 28 209Q28 276 53.5 340Q79 404 125 453.5Q171 503 235 533Q299 563 376 563Q464 563 509.5 527Q555 491 555 425Q555 374 529 339.5Q503 305 458.5 283Q414 261 354 248.5Q294 236 227 229V214Q227 190 231.5 169Q236 148 247 132.5Q258 117 276 107.5Q294 98 320 98Q370 98 414 123Q458 148 496 196ZM179 800H280L385 708L519 800H619L433 592H313Z" glyph-name="ecaron" horiz-adv-x="577" unicode="&#283;" /><glyph d="M681 587 661 377H574Q568 403 563 427Q558 451 549 469Q540 487 523.5 498Q507 509 478 509H349L327 330H384Q413 330 425.5 349.5Q438 369 450 407H522L495 179H423Q420 218 412.5 237.5Q405 257 375 257H318L307 164Q304 140 304 121Q304 95 322 86.5Q340 78 379 78H418Q445 78 464.5 84.5Q484 91 502 107.5Q520 124 539.5 151Q559 178 586 219H676L615 0H-6L3 75Q33 76 50.5 80Q68 84 77.5 93Q87 102 90.5 117Q94 132 97 156L132 438Q133 444 133.5 451Q134 458 134 468Q134 480 131 488.5Q128 497 119.5 502Q111 507 96 509Q81 511 57 512L66 587ZM200 833H301L406 741L540 833H640L454 625H334Z" glyph-name="ecaron.smcp" horiz-adv-x="731" unicode="&#57921;" /><glyph d="M356 496Q335 496 314 478.5Q293 461 275.5 432.5Q258 404 245.5 366Q233 328 229 288Q310 302 349.5 346Q389 390 389 455Q389 472 382.5 484Q376 496 356 496ZM542 163Q497 79 426 34.5Q355 -10 255 -10Q200 -10 158 6Q116 22 87 50.5Q58 79 43 119.5Q28 160 28 209Q28 276 53.5 340Q79 404 125 453.5Q171 503 235 533Q299 563 376 563Q464 563 509.5 527Q555 491 555 425Q555 374 529 339.5Q503 305 458.5 283Q414 261 354 248.5Q294 236 227 229V214Q227 190 231.5 169Q236 148 247 132.5Q258 117 276 107.5Q294 98 320 98Q370 98 414 123Q458 148 496 196ZM594 592H493L391 684L254 592H154L340 800H460Z" glyph-name="ecircumflex" horiz-adv-x="577" unicode="&#234;" /><glyph d="M681 587 661 377H574Q568 403 563 427Q558 451 549 469Q540 487 523.5 498Q507 509 478 509H349L327 330H384Q413 330 425.5 349.5Q438 369 450 407H522L495 179H423Q420 218 412.5 237.5Q405 257 375 257H318L307 164Q304 140 304 121Q304 95 322 86.5Q340 78 379 78H418Q445 78 464.5 84.5Q484 91 502 107.5Q520 124 539.5 151Q559 178 586 219H676L615 0H-6L3 75Q33 76 50.5 80Q68 84 77.5 93Q87 102 90.5 117Q94 132 97 156L132 438Q133 444 133.5 451Q134 458 134 468Q134 480 131 488.5Q128 497 119.5 502Q111 507 96 509Q81 511 57 512L66 587ZM616 625H515L413 717L276 625H176L362 833H482Z" glyph-name="ecircumflex.smcp" horiz-adv-x="731" unicode="&#57919;" /><glyph d="M356 496Q335 496 314 478.5Q293 461 275.5 432.5Q258 404 245.5 366Q233 328 229 288Q310 302 349.5 346Q389 390 389 455Q389 472 382.5 484Q376 496 356 496ZM542 163Q497 79 426 34.5Q355 -10 255 -10Q200 -10 158 6Q116 22 87 50.5Q58 79 43 119.5Q28 160 28 209Q28 276 53.5 340Q79 404 125 453.5Q171 503 235 533Q299 563 376 563Q464 563 509.5 527Q555 491 555 425Q555 374 529 339.5Q503 305 458.5 283Q414 261 354 248.5Q294 236 227 229V214Q227 190 231.5 169Q236 148 247 132.5Q258 117 276 107.5Q294 98 320 98Q370 98 414 123Q458 148 496 196ZM498 601Q454 601 430.5 627.5Q407 654 407 693Q407 738 436.5 770Q466 802 517 802Q562 802 585 775.5Q608 749 608 710Q608 688 600.5 668Q593 648 579 633Q565 618 544.5 609.5Q524 601 498 601ZM259 601Q214 601 191 627.5Q168 654 168 693Q168 738 197 770Q226 802 278 802Q322 802 345.5 775.5Q369 749 369 710Q369 688 361.5 668Q354 648 339.5 633Q325 618 304.5 609.5Q284 601 259 601Z" glyph-name="edieresis" horiz-adv-x="577" unicode="&#235;" /><glyph d="M681 587 661 377H574Q568 403 563 427Q558 451 549 469Q540 487 523.5 498Q507 509 478 509H349L327 330H384Q413 330 425.5 349.5Q438 369 450 407H522L495 179H423Q420 218 412.5 237.5Q405 257 375 257H318L307 164Q304 140 304 121Q304 95 322 86.5Q340 78 379 78H418Q445 78 464.5 84.5Q484 91 502 107.5Q520 124 539.5 151Q559 178 586 219H676L615 0H-6L3 75Q33 76 50.5 80Q68 84 77.5 93Q87 102 90.5 117Q94 132 97 156L132 438Q133 444 133.5 451Q134 458 134 468Q134 480 131 488.5Q128 497 119.5 502Q111 507 96 509Q81 511 57 512L66 587ZM523 634Q479 634 455.5 660.5Q432 687 432 726Q432 771 461.5 803Q491 835 542 835Q587 835 610 808.5Q633 782 633 743Q633 721 625.5 701Q618 681 604 666Q590 651 569.5 642.5Q549 634 523 634ZM284 634Q239 634 216 660.5Q193 687 193 726Q193 771 222 803Q251 835 303 835Q347 835 370.5 808.5Q394 782 394 743Q394 721 386.5 701Q379 681 364.5 666Q350 651 329.5 642.5Q309 634 284 634Z" glyph-name="edieresis.smcp" horiz-adv-x="731" unicode="&#57904;" /><glyph d="M377 604Q331 604 307 631Q283 658 283 699Q283 746 312.5 778.5Q342 811 396 811Q441 811 465.5 784Q490 757 490 716Q490 670 460 637Q430 604 377 604ZM356 496Q335 496 314 478.5Q293 461 275.5 432.5Q258 404 245.5 366Q233 328 229 288Q310 302 349.5 346Q389 390 389 455Q389 472 382.5 484Q376 496 356 496ZM542 163Q497 79 426 34.5Q355 -10 255 -10Q200 -10 158 6Q116 22 87 50.5Q58 79 43 119.5Q28 160 28 209Q28 276 53.5 340Q79 404 125 453.5Q171 503 235 533Q299 563 376 563Q464 563 509.5 527Q555 491 555 425Q555 374 529 339.5Q503 305 458.5 283Q414 261 354 248.5Q294 236 227 229V214Q227 190 231.5 169Q236 148 247 132.5Q258 117 276 107.5Q294 98 320 98Q370 98 414 123Q458 148 496 196Z" glyph-name="edotaccent" horiz-adv-x="577" unicode="&#279;" /><glyph d="M409 637Q363 637 339 664Q315 691 315 732Q315 779 344.5 811.5Q374 844 428 844Q473 844 497.5 817Q522 790 522 749Q522 703 492 670Q462 637 409 637ZM681 587 661 377H574Q568 403 563 427Q558 451 549 469Q540 487 523.5 498Q507 509 478 509H349L327 330H384Q413 330 425.5 349.5Q438 369 450 407H522L495 179H423Q420 218 412.5 237.5Q405 257 375 257H318L307 164Q304 140 304 121Q304 95 322 86.5Q340 78 379 78H418Q445 78 464.5 84.5Q484 91 502 107.5Q520 124 539.5 151Q559 178 586 219H676L615 0H-6L3 75Q33 76 50.5 80Q68 84 77.5 93Q87 102 90.5 117Q94 132 97 156L132 438Q133 444 133.5 451Q134 458 134 468Q134 480 131 488.5Q128 497 119.5 502Q111 507 96 509Q81 511 57 512L66 587Z" glyph-name="edotaccent.smcp" horiz-adv-x="731" unicode="&#57926;" /><glyph d="M372 800 434 592H343L141 800ZM356 496Q335 496 314 478.5Q293 461 275.5 432.5Q258 404 245.5 366Q233 328 229 288Q310 302 349.5 346Q389 390 389 455Q389 472 382.5 484Q376 496 356 496ZM542 163Q497 79 426 34.5Q355 -10 255 -10Q200 -10 158 6Q116 22 87 50.5Q58 79 43 119.5Q28 160 28 209Q28 276 53.5 340Q79 404 125 453.5Q171 503 235 533Q299 563 376 563Q464 563 509.5 527Q555 491 555 425Q555 374 529 339.5Q503 305 458.5 283Q414 261 354 248.5Q294 236 227 229V214Q227 190 231.5 169Q236 148 247 132.5Q258 117 276 107.5Q294 98 320 98Q370 98 414 123Q458 148 496 196Z" glyph-name="egrave" horiz-adv-x="577" unicode="&#232;" /><glyph d="M401 833 463 625H372L170 833ZM681 587 661 377H574Q568 403 563 427Q558 451 549 469Q540 487 523.5 498Q507 509 478 509H349L327 330H384Q413 330 425.5 349.5Q438 369 450 407H522L495 179H423Q420 218 412.5 237.5Q405 257 375 257H318L307 164Q304 140 304 121Q304 95 322 86.5Q340 78 379 78H418Q445 78 464.5 84.5Q484 91 502 107.5Q520 124 539.5 151Q559 178 586 219H676L615 0H-6L3 75Q33 76 50.5 80Q68 84 77.5 93Q87 102 90.5 117Q94 132 97 156L132 438Q133 444 133.5 451Q134 458 134 468Q134 480 131 488.5Q128 497 119.5 502Q111 507 96 509Q81 511 57 512L66 587Z" glyph-name="egrave.smcp" horiz-adv-x="731" unicode="&#57918;" /><glyph d="M434 473Q457 490 476.5 521.5Q496 553 496 597Q496 644 465.5 676.5Q435 709 375 709Q327 709 299.5 682.5Q272 656 272 613Q272 581 290 559Q308 537 342 520ZM238 325Q215 306 200 280.5Q185 255 185 214Q185 183 196 157Q207 131 227.5 112Q248 93 276 82.5Q304 72 339 72Q391 72 421.5 95.5Q452 119 452 159Q452 193 430.5 215.5Q409 238 359 264ZM652 609Q652 573 638.5 545.5Q625 518 602 498Q579 478 548.5 466Q518 454 483 449L493 444Q559 411 601.5 361.5Q644 312 644 241Q644 180 620.5 133Q597 86 555 54.5Q513 23 454 6.5Q395 -10 325 -10Q256 -10 200.5 4.5Q145 19 105 45Q65 71 43.5 107.5Q22 144 22 189Q22 227 37.5 255.5Q53 284 78.5 304Q104 324 135.5 335Q167 346 200 350L187 358Q145 384 116.5 429.5Q88 475 88 535Q88 597 109.5 644.5Q131 692 170.5 724.5Q210 757 265.5 773.5Q321 790 389 790Q452 790 500.5 776Q549 762 583 738Q617 714 634.5 681Q652 648 652 609Z" glyph-name="eight" horiz-adv-x="700" unicode="8" /><glyph d="M427 473Q450 490 469.5 521.5Q489 553 489 597Q489 644 458.5 676.5Q428 709 368 709Q320 709 292.5 682.5Q265 656 265 613Q265 581 283 559Q301 537 335 520ZM231 325Q208 306 193 280.5Q178 255 178 214Q178 183 189 157Q200 131 220.5 112Q241 93 269 82.5Q297 72 332 72Q384 72 414.5 95.5Q445 119 445 159Q445 193 423.5 215.5Q402 238 352 264ZM645 609Q645 573 631.5 545.5Q618 518 595 498Q572 478 541.5 466Q511 454 476 449L486 444Q552 411 594.5 361.5Q637 312 637 241Q637 180 613.5 133Q590 86 548 54.5Q506 23 447 6.5Q388 -10 318 -10Q249 -10 193.5 4.5Q138 19 98 45Q58 71 36.5 107.5Q15 144 15 189Q15 227 30.5 255.5Q46 284 71.5 304Q97 324 128.5 335Q160 346 193 350L180 358Q138 384 109.5 429.5Q81 475 81 535Q81 597 102.5 644.5Q124 692 163.5 724.5Q203 757 258.5 773.5Q314 790 382 790Q445 790 493.5 776Q542 762 576 738Q610 714 627.5 681Q645 648 645 609Z" glyph-name="eight.LP" horiz-adv-x="697" unicode="&#58685;" /><glyph d="M434 473Q457 490 476.5 521.5Q496 553 496 597Q496 644 465.5 676.5Q435 709 375 709Q327 709 299.5 682.5Q272 656 272 613Q272 581 290 559Q308 537 342 520ZM238 325Q215 306 200 280.5Q185 255 185 214Q185 183 196 157Q207 131 227.5 112Q248 93 276 82.5Q304 72 339 72Q391 72 421.5 95.5Q452 119 452 159Q452 193 430.5 215.5Q409 238 359 264ZM652 609Q652 573 638.5 545.5Q625 518 602 498Q579 478 548.5 466Q518 454 483 449L493 444Q559 411 601.5 361.5Q644 312 644 241Q644 180 620.5 133Q597 86 555 54.5Q513 23 454 6.5Q395 -10 325 -10Q256 -10 200.5 4.5Q145 19 105 45Q65 71 43.5 107.5Q22 144 22 189Q22 227 37.5 255.5Q53 284 78.5 304Q104 324 135.5 335Q167 346 200 350L187 358Q145 384 116.5 429.5Q88 475 88 535Q88 597 109.5 644.5Q131 692 170.5 724.5Q210 757 265.5 773.5Q321 790 389 790Q452 790 500.5 776Q549 762 583 738Q617 714 634.5 681Q652 648 652 609Z" glyph-name="eight.LT" horiz-adv-x="700" unicode="&#58696;" /><glyph d="M275 639Q275 604 292 582Q309 560 335 540L415 480Q469 534 469 608Q469 656 443.5 688.5Q418 721 362 721Q320 721 297.5 697.5Q275 674 275 639ZM263 339Q232 317 212 280Q192 243 192 195Q192 133 226.5 96Q261 59 321 59Q366 59 397.5 84Q429 109 429 156Q429 209 375 251ZM28 193Q28 232 42 263Q56 294 81.5 316.5Q107 339 142.5 353Q178 367 220 373L196 392Q181 404 164.5 419.5Q148 435 134.5 456Q121 477 112 504Q103 531 103 566Q103 620 122 661.5Q141 703 175.5 731.5Q210 760 258 775Q306 790 365 790Q423 790 471 776Q519 762 552.5 737.5Q586 713 604.5 678.5Q623 644 623 602Q623 567 609 540.5Q595 514 572.5 495Q550 476 520.5 464Q491 452 460 446L477 434Q499 417 522.5 397.5Q546 378 565.5 353.5Q585 329 597.5 299Q610 269 610 233Q610 171 588 125.5Q566 80 527 50Q488 20 434.5 5Q381 -10 318 -10Q255 -10 202 4.5Q149 19 110 46Q71 73 49.5 110.5Q28 148 28 193Z" glyph-name="eight.OP" horiz-adv-x="651" unicode="&#58707;" /><glyph d="M304 639Q304 604 321 582Q338 560 364 540L444 480Q498 534 498 608Q498 656 472.5 688.5Q447 721 391 721Q349 721 326.5 697.5Q304 674 304 639ZM292 339Q261 317 241 280Q221 243 221 195Q221 133 255.5 96Q290 59 350 59Q395 59 426.5 84Q458 109 458 156Q458 209 404 251ZM57 193Q57 232 71 263Q85 294 110.5 316.5Q136 339 171.5 353Q207 367 249 373L225 392Q210 404 193.5 419.5Q177 435 163.5 456Q150 477 141 504Q132 531 132 566Q132 620 151 661.5Q170 703 204.5 731.5Q239 760 287 775Q335 790 394 790Q452 790 500 776Q548 762 581.5 737.5Q615 713 633.5 678.5Q652 644 652 602Q652 567 638 540.5Q624 514 601.5 495Q579 476 549.5 464Q520 452 489 446L506 434Q528 417 551.5 397.5Q575 378 594.5 353.5Q614 329 626.5 299Q639 269 639 233Q639 171 617 125.5Q595 80 556 50Q517 20 463.5 5Q410 -10 347 -10Q284 -10 231 4.5Q178 19 139 46Q100 73 78.5 110.5Q57 148 57 193Z" glyph-name="eight.OT" horiz-adv-x="700" unicode="&#58718;" /><glyph d="M282 54Q311 72 311 121Q311 151 289.5 171Q268 191 232 191Q206 191 191 179.5Q176 168 176 145Q176 113 217 90ZM138 -50Q125 -60 116 -78Q107 -96 107 -118Q107 -149 131 -170Q155 -191 195 -191Q228 -191 247 -181Q266 -171 266 -148Q266 -132 253 -119.5Q240 -107 218 -95ZM425 132Q424 110 414.5 92Q405 74 389 61.5Q373 49 352.5 42Q332 35 310 35L329 26Q368 7 390.5 -24Q413 -55 413 -93Q413 -134 397 -163Q381 -192 352.5 -210.5Q324 -229 285.5 -237.5Q247 -246 201 -246Q154 -246 114 -238Q74 -230 45.5 -214.5Q17 -199 1 -177Q-15 -155 -15 -127Q-15 -100 -4.5 -82Q6 -64 23.5 -53Q41 -42 63.5 -37.5Q86 -33 109 -33L94 -24Q73 -11 53.5 18.5Q34 48 34 87Q34 127 49 157.5Q64 188 91.5 208.5Q119 229 157 239.5Q195 250 242 250Q291 250 325.5 241Q360 232 382 216Q404 200 414.5 178.5Q425 157 425 132Z" glyph-name="eight.inf" horiz-adv-x="500" unicode="&#58745;" /><glyph d="M705 110Q705 137 714.5 159Q724 181 740 197Q756 213 778 222Q800 231 825 231Q850 231 872 222Q894 213 910 197Q926 181 935.5 159Q945 137 945 110Q945 83 935.5 61Q926 39 910 23.5Q894 8 872 -1Q850 -10 825 -10Q800 -10 778 -1Q756 8 740 23.5Q724 39 714.5 61Q705 83 705 110ZM380 110Q380 137 389.5 159Q399 181 415 197Q431 213 453 222Q475 231 500 231Q525 231 547 222Q569 213 585 197Q601 181 610.5 159Q620 137 620 110Q620 83 610.5 61Q601 39 585 23.5Q569 8 547 -1Q525 -10 500 -10Q475 -10 453 -1Q431 8 415 23.5Q399 39 389.5 61Q380 83 380 110ZM55 110Q55 137 64.5 159Q74 181 90 197Q106 213 128 222Q150 231 175 231Q200 231 222 222Q244 213 260 197Q276 181 285.5 159Q295 137 295 110Q295 83 285.5 61Q276 39 260 23.5Q244 8 222 -1Q200 -10 175 -10Q150 -10 128 -1Q106 8 90 23.5Q74 39 64.5 61Q55 83 55 110Z" glyph-name="ellipsis" horiz-adv-x="1000" unicode="&#8230;" /><glyph d="M242 720H541L528 618H229ZM356 496Q335 496 314 478.5Q293 461 275.5 432.5Q258 404 245.5 366Q233 328 229 288Q310 302 349.5 346Q389 390 389 455Q389 472 382.5 484Q376 496 356 496ZM542 163Q497 79 426 34.5Q355 -10 255 -10Q200 -10 158 6Q116 22 87 50.5Q58 79 43 119.5Q28 160 28 209Q28 276 53.5 340Q79 404 125 453.5Q171 503 235 533Q299 563 376 563Q464 563 509.5 527Q555 491 555 425Q555 374 529 339.5Q503 305 458.5 283Q414 261 354 248.5Q294 236 227 229V214Q227 190 231.5 169Q236 148 247 132.5Q258 117 276 107.5Q294 98 320 98Q370 98 414 123Q458 148 496 196Z" glyph-name="emacron" horiz-adv-x="577" unicode="&#275;" /><glyph d="M262 753H561L548 651H249ZM681 587 661 377H574Q568 403 563 427Q558 451 549 469Q540 487 523.5 498Q507 509 478 509H349L327 330H384Q413 330 425.5 349.5Q438 369 450 407H522L495 179H423Q420 218 412.5 237.5Q405 257 375 257H318L307 164Q304 140 304 121Q304 95 322 86.5Q340 78 379 78H418Q445 78 464.5 84.5Q484 91 502 107.5Q520 124 539.5 151Q559 178 586 219H676L615 0H-6L3 75Q33 76 50.5 80Q68 84 77.5 93Q87 102 90.5 117Q94 132 97 156L132 438Q133 444 133.5 451Q134 458 134 468Q134 480 131 488.5Q128 497 119.5 502Q111 507 96 509Q81 511 57 512L66 587Z" glyph-name="emacron.smcp" horiz-adv-x="731" unicode="&#57922;" /><glyph d="M37 268 49 373H955L943 268Z" glyph-name="emdash" horiz-adv-x="1000" unicode="&#8212;" /><glyph d="M45 330 57 435H963L952 330Z" glyph-name="emdash.cap" horiz-adv-x="1000" unicode="&#58502;" /><glyph d="M24 248 36 353H942L930 248Z" glyph-name="emdash.smcp" horiz-adv-x="1000" unicode="&#60324;" /><glyph glyph-name="emspace" horiz-adv-x="1000" unicode="&#8195;" /><glyph d="M37 268 49 373H455L443 268Z" glyph-name="endash" horiz-adv-x="500" unicode="&#8211;" /><glyph d="M45 330 57 435H463L452 330Z" glyph-name="endash.cap" horiz-adv-x="500" unicode="&#58500;" /><glyph d="M24 248 36 353H442L430 248Z" glyph-name="endash.smcp" horiz-adv-x="500" unicode="&#60323;" /><glyph d="M476 355Q482 383 482 404Q482 412 479.5 419Q477 426 467 426Q450 426 423.5 389Q397 352 366.5 292Q336 232 304 155.5Q272 79 245 0H51L119 393Q121 403 122 414.5Q123 426 123 431Q123 457 104 457Q92 457 81 449.5Q70 442 48 423L12 464Q37 488 61 506Q85 524 110 537Q135 550 162 556.5Q189 563 221 563Q276 563 299.5 537.5Q323 512 323 462Q323 445 319 423Q315 401 310 380L253 172H261Q307 285 345.5 360.5Q384 436 420.5 481Q457 526 494 544.5Q531 563 573 563Q630 563 657 531.5Q684 500 684 446Q684 430 681 408.5Q678 387 673 364L605 35Q589 -43 562.5 -97.5Q536 -152 499 -185.5Q462 -219 414 -234.5Q366 -250 307 -250Q235 -250 189.5 -225Q144 -200 144 -144Q144 -118 156 -97.5Q168 -77 194 -67H280Q284 -124 295 -157.5Q306 -191 335 -191Q361 -191 371 -168Q381 -145 389 -98Z" glyph-name="eng" horiz-adv-x="695" unicode="&#331;" /><glyph d="M221 390 193 149Q192 143 191.5 136Q191 129 191 119Q191 107 194 98.5Q197 90 205.5 85Q214 80 229 78Q244 76 268 75L259 0H-6L3 75Q33 76 50.5 80Q68 84 77.5 93Q87 102 90.5 117Q94 132 97 156L134 455Q127 463 120 473Q113 483 104 491.5Q95 500 83.5 506Q72 512 57 512L66 587H318L559 284L576 438Q577 444 577.5 451Q578 458 578 468Q578 480 575 488.5Q572 497 563.5 502Q555 507 540 509Q525 511 501 512L510 587H775L766 512Q736 510 718.5 506.5Q701 503 691.5 494Q682 485 678.5 470Q675 455 672 431L610 -66Q598 -164 539 -207Q480 -250 386 -250Q299 -250 249.5 -216.5Q200 -183 200 -121Q200 -83 217 -59.5Q234 -36 258 -24H382Q376 -48 373 -66.5Q370 -85 370 -108Q370 -176 423 -176Q458 -176 480 -149.5Q502 -123 509 -73L524 30Z" glyph-name="eng.smcp" horiz-adv-x="770" unicode="&#58155;" /><glyph glyph-name="enspace" horiz-adv-x="500" unicode="&#8194;" /><glyph d="M356 496Q335 496 314 478.5Q293 461 275.5 432.5Q258 404 245.5 366Q233 328 229 288Q310 302 349.5 346Q389 390 389 455Q389 472 382.5 484Q376 496 356 496ZM542 163Q513 108 477 77.5Q441 47 406 26Q375 8 355.5 -9.5Q336 -27 325 -45Q314 -63 310 -81Q306 -99 306 -118Q306 -139 317.5 -152Q329 -165 347 -165Q369 -165 385.5 -159.5Q402 -154 420 -141L428 -189Q400 -213 363 -231.5Q326 -250 278 -250Q222 -250 196.5 -225Q171 -200 171 -158Q171 -119 194.5 -80.5Q218 -42 260 -10Q205 -10 162 6Q119 22 89 50.5Q59 79 43.5 119.5Q28 160 28 209Q28 276 53.5 340Q79 404 125 453.5Q171 503 235 533Q299 563 376 563Q464 563 509.5 527Q555 491 555 425Q555 374 529 339.5Q503 305 458.5 283Q414 261 354 248.5Q294 236 227 229V214Q227 190 231.5 169Q236 148 247 132.5Q258 117 276 107.5Q294 98 320 98Q370 98 414 123Q458 148 496 196Z" glyph-name="eogonek" horiz-adv-x="577" unicode="&#281;" /><glyph d="M681 587 661 377H574Q568 403 563 427Q558 451 549 469Q540 487 523.5 498Q507 509 478 509H349L327 330H384Q413 330 425.5 349.5Q438 369 450 407H522L495 179H423Q420 218 412.5 237.5Q405 257 375 257H318L307 164Q304 140 304 121Q304 95 322 86.5Q340 78 379 78H418Q445 78 464.5 84.5Q484 91 502 107.5Q520 124 539.5 151Q559 178 586 219H676L615 0Q572 -18 547.5 -37.5Q523 -57 510.5 -74.5Q498 -92 495 -106.5Q492 -121 492 -130Q492 -149 502.5 -157Q513 -165 531 -165Q572 -165 606 -141L614 -189Q586 -213 549 -231.5Q512 -250 464 -250Q408 -250 382.5 -224.5Q357 -199 357 -155Q357 -113 385 -72.5Q413 -32 473 0H-6L3 75Q33 76 50.5 80Q68 84 77.5 93Q87 102 90.5 117Q94 132 97 156L132 438Q133 444 133.5 451Q134 458 134 468Q134 480 131 488.5Q128 497 119.5 502Q111 507 96 509Q81 511 57 512L66 587Z" glyph-name="eogonek.smcp" horiz-adv-x="731" unicode="&#57929;" /><glyph d="M66 147 78 254H618L606 147ZM90 349 103 457H643L630 349Z" glyph-name="equal" horiz-adv-x="700" unicode="=" /><glyph d="M87 438 100 545H640L627 438ZM63 235 75 342H615L603 235Z" glyph-name="equal.cap" horiz-adv-x="700" unicode="&#58773;" /><glyph d="M9 10 18 87H356L347 10ZM-7 -117 3 -39H341L331 -117Z" glyph-name="equal.inf" horiz-adv-x="438" unicode="&#58749;" /><glyph d="M80 335 92 443H632L620 335ZM106 553 120 660H660L646 553ZM53 120 66 227H606L593 120Z" glyph-name="equivalence" horiz-adv-x="700" unicode="&#8801;" /><glyph d="M78 421 90 529H630L618 421ZM104 639 118 746H658L644 639ZM51 206 64 313H604L591 206Z" glyph-name="equivalence.cap" horiz-adv-x="700" unicode="&#62000;" /><glyph d="M404 719Q329 719 285 692.5Q241 666 217 623Q193 580 184.5 526.5Q176 473 173 418H633Q630 473 621.5 526.5Q613 580 589 623Q565 666 521.5 692.5Q478 719 404 719ZM778 260Q767 188 736 136.5Q705 85 656.5 51.5Q608 18 544 2Q480 -14 403 -14Q317 -14 245 14Q173 42 121.5 94Q70 146 41.5 219.5Q13 293 13 385Q13 476 41.5 550Q70 624 121.5 676Q173 728 245 756Q317 784 403 784Q489 784 561 756Q633 728 684.5 676Q736 624 764.5 550Q793 476 793 385V352H173Q176 297 185 243Q194 189 220.5 146.5Q247 104 296.5 77.5Q346 51 432 51Q552 51 620 107.5Q688 164 707 260Z" glyph-name="estimated" horiz-adv-x="806" unicode="&#8494;" /><glyph d="M277 51Q299 51 317.5 68Q336 85 350.5 113Q365 141 376.5 176.5Q388 212 395.5 249.5Q403 287 407 323.5Q411 360 411 389Q411 443 401 472.5Q391 502 361 502Q340 502 322 485Q304 468 289 440.5Q274 413 262.5 377Q251 341 243.5 304Q236 267 232 231.5Q228 196 228 168Q228 111 238 81Q248 51 277 51ZM233 650 341 691Q318 717 293.5 738Q269 759 245 776V792L342 815Q372 798 400.5 778.5Q429 759 455 735L548 771L572 717L499 689Q552 626 583 548Q614 470 614 379Q614 299 591 228.5Q568 158 525 105Q482 52 422 21Q362 -10 289 -10Q227 -10 178.5 7.5Q130 25 96.5 57Q63 89 45.5 134Q28 179 28 233Q28 306 52 367Q76 428 119 471.5Q162 515 221.5 539Q281 563 352 563Q371 563 389 558Q407 553 418 545Q411 572 401 596Q391 620 378 642L257 595Z" glyph-name="eth" horiz-adv-x="642" unicode="&#240;" /><glyph d="M328 336H462L453 263H319L307 164Q305 152 304 142Q303 132 303 121Q303 95 318.5 86.5Q334 78 360 78H380Q408 78 437 92Q466 106 489.5 136.5Q513 167 527.5 214.5Q542 262 542 329Q542 509 379 509H349ZM40 336H119L132 438Q133 444 133.5 451Q134 458 134 468Q134 480 131 488.5Q128 497 119.5 502Q111 507 96 509Q81 511 57 512L66 587H405Q577 587 668.5 519Q760 451 760 328Q760 245 731.5 183Q703 121 652.5 80.5Q602 40 532 20Q462 0 379 0H-6L3 75Q33 76 50.5 80Q68 84 77.5 93Q87 102 90.5 117Q94 132 97 156L110 263H31Z" glyph-name="eth.smcp" horiz-adv-x="812" unicode="&#58156;" /><glyph d="M41 110Q41 137 50.5 159Q60 181 76 197Q92 213 114 222Q136 231 161 231Q186 231 208 222Q230 213 246 197Q262 181 271.5 159Q281 137 281 110Q281 83 271.5 61Q262 39 246 23.5Q230 8 208 -1Q186 -10 161 -10Q136 -10 114 -1Q92 8 76 23.5Q60 39 50.5 61Q41 83 41 110ZM358 734 325 624Q312 581 298.5 535Q285 489 271.5 443Q258 397 246.5 353.5Q235 310 227 273H129Q129 297 129 340Q129 383 128 432.5Q127 482 126 532.5Q125 583 124 623L120 734L124 780H362Z" glyph-name="exclam" horiz-adv-x="370" unicode="!" /><glyph d="M54 96Q54 118 62.5 138Q71 158 85.5 173Q100 188 119.5 196.5Q139 205 161 205Q184 205 204.5 196.5Q225 188 240 173Q255 158 263.5 138Q272 118 272 96Q272 74 263.5 55Q255 36 240 21.5Q225 7 204.5 -1.5Q184 -10 161 -10Q139 -10 119.5 -1.5Q100 7 85.5 21.5Q71 36 62.5 55Q54 74 54 96ZM356 523 292 389 230 238H137L128 388L113 523L121 587H364Z" glyph-name="exclam.smcp" horiz-adv-x="370" unicode="&#58434;" /><glyph d="M320 441Q320 414 310.5 392Q301 370 285 354Q269 338 247 329Q225 320 200 320Q175 320 153 329Q131 338 115 354Q99 370 89.5 392Q80 414 80 441Q80 468 89.5 490Q99 512 115 527.5Q131 543 153 552Q175 561 200 561Q225 561 247 552Q269 543 285 527.5Q301 512 310.5 490Q320 468 320 441ZM3 -183 36 -73Q49 -30 62.5 16Q76 62 89.5 107.5Q103 153 114.5 196.5Q126 240 134 278H232Q232 254 232 211Q232 168 233 118.5Q234 69 234.5 18.5Q235 -32 237 -72L241 -183L237 -229H-1Z" glyph-name="exclamdown" horiz-adv-x="370" unicode="&#161;" /><glyph d="M354 670Q354 643 344.5 621Q335 599 319 583Q303 567 281 558Q259 549 234 549Q209 549 187 558Q165 567 149 583Q133 599 123.5 621Q114 643 114 670Q114 697 123.5 719Q133 741 149 756.5Q165 772 187 781Q209 790 234 790Q259 790 281 781Q303 772 319 756.5Q335 741 344.5 719Q354 697 354 670ZM37 46 70 156Q83 199 96.5 245Q110 291 123.5 336.5Q137 382 148.5 425.5Q160 469 168 507H266Q266 483 266 440Q266 397 267 347.5Q268 298 268.5 247.5Q269 197 271 157L275 46L271 0H33Z" glyph-name="exclamdown.cap" horiz-adv-x="370" unicode="&#58433;" /><glyph d="M331 491Q331 468 322.5 448.5Q314 429 299.5 414Q285 399 265.5 390.5Q246 382 224 382Q201 382 180.5 390.5Q160 399 145 414Q130 429 121.5 448.5Q113 468 113 491Q113 513 121.5 532Q130 551 145 565.5Q160 580 180.5 588.5Q201 597 224 597Q246 597 265.5 588.5Q285 580 299.5 565.5Q314 551 322.5 532Q331 513 331 491ZM29 64 93 198 155 349H248L257 199L272 64L264 0H21Z" glyph-name="exclamdown.smcp" horiz-adv-x="370" unicode="&#58435;" /><glyph d="M265 146Q245 37 220.5 -38.5Q196 -114 160 -161Q124 -208 74 -229Q24 -250 -47 -250Q-83 -250 -113.5 -244Q-144 -238 -165.5 -225Q-187 -212 -199.5 -192Q-212 -172 -212 -144Q-212 -118 -199.5 -97.5Q-187 -77 -162 -67H-76Q-73 -95 -69 -117.5Q-65 -140 -58.5 -156.5Q-52 -173 -42.5 -182Q-33 -191 -19 -191Q6 -191 17 -168.5Q28 -146 35 -98L120 478H42L54 553H133L136 569Q148 627 170.5 672Q193 717 229 747.5Q265 778 316.5 794Q368 810 437 810Q472 810 503 803.5Q534 797 557 783.5Q580 770 593 749.5Q606 729 606 701Q606 676 592 656.5Q578 637 555 628H455Q454 656 452.5 679Q451 702 446 718Q441 734 432.5 742.5Q424 751 409 751Q386 751 375.5 735Q365 719 358 684L335 553H473L461 478H325Z" glyph-name="f" horiz-adv-x="445" unicode="f" /><glyph d="M683 587 663 378H575Q569 404 564 428Q559 452 550 470Q541 488 524.5 498.5Q508 509 480 509H348L327 328H386Q415 328 427 347.5Q439 367 451 405H523L496 177H423Q420 216 413.5 235.5Q407 255 377 255H318L304 141Q303 136 303 133.5Q303 131 303 127Q303 95 329.5 85Q356 75 413 75L404 0H-6L3 75Q33 76 50.5 80Q68 84 77.5 93Q87 102 90.5 117Q94 132 97 156L132 438Q133 444 133.5 451Q134 458 134 468Q134 480 131 488.5Q128 497 119.5 502Q111 507 96 509Q81 511 57 512L66 587Z" glyph-name="f.smcp" horiz-adv-x="689" unicode="&#57862;" /><glyph d="M-31 309Q-27 289 -24.5 272.5Q-22 256 -18.5 244Q-15 232 -9 225.5Q-3 219 8 219Q26 219 31 234Q36 249 41 281L100 684H47L55 737H111L113 750Q122 791 138 822.5Q154 854 179 875.5Q204 897 241 908Q278 919 329 919Q355 919 378 914.5Q401 910 418 900.5Q435 891 445 876.5Q455 862 455 843Q455 825 444.5 811.5Q434 798 415 790H343Q341 810 340 826Q339 842 336 853.5Q333 865 327 871Q321 877 310 877Q294 877 287 867.5Q280 858 277 838L258 737H358L350 684H251L210 455Q196 378 178.5 325Q161 272 135.5 239Q110 206 74 191.5Q38 177 -13 177Q-66 177 -98 195Q-130 213 -130 252Q-130 269 -121.5 285Q-113 301 -94 309Z" glyph-name="f.superior" horiz-adv-x="315" unicode="&#58214;" /><glyph d="M510 688Q499 714 476 731Q453 748 421 748Q369 748 357 681L335 553H441L429 478H325L265 146Q245 37 220.5 -38.5Q196 -114 160 -161Q124 -208 74 -229Q24 -250 -47 -250Q-83 -250 -113.5 -244Q-144 -238 -165.5 -225Q-187 -212 -199.5 -192Q-212 -172 -212 -144Q-212 -118 -199.5 -97.5Q-187 -77 -162 -67H-76Q-73 -95 -69 -117.5Q-65 -140 -58.5 -156.5Q-52 -173 -42.5 -182Q-33 -191 -19 -191Q6 -191 17 -168.5Q28 -146 35 -98L120 478H42L54 553H133L136 569Q146 624 168.5 669Q191 714 227 745Q263 776 314 793Q365 810 433 810Q489 810 531.5 797.5Q574 785 594 772L677 810H724Q705 685 689.5 603Q674 521 660 466Q646 411 633 373.5Q620 336 605 299H613Q651 376 685.5 427Q720 478 754 508Q788 538 821 550.5Q854 563 889 563Q923 563 950.5 550Q978 537 996.5 513.5Q1015 490 1025 458.5Q1035 427 1035 390Q1035 309 1006 236.5Q977 164 926.5 109.5Q876 55 807.5 22.5Q739 -10 660 -10Q566 -10 503 18Q440 46 403 96Q418 173 434.5 259Q451 345 466 425.5Q481 506 493 575Q505 644 510 688ZM792 437Q775 437 753.5 419Q732 401 709.5 372Q687 343 666 307Q645 271 628.5 234.5Q612 198 602 165Q592 132 592 109Q592 84 604 68Q616 52 642 52Q677 52 710.5 82.5Q744 113 769.5 160Q795 207 810.5 263.5Q826 320 826 373Q826 405 819 421Q812 437 792 437Z" glyph-name="f_b" horiz-adv-x="1064" unicode="&#58241;" /><glyph d="M489 569Q495 600 504 627.5Q513 655 527 679Q513 708 489 721.5Q465 735 439 735Q402 735 382 718.5Q362 702 354 660L335 553H486ZM1145 437Q1128 437 1106.5 419Q1085 401 1062.5 372Q1040 343 1019 307Q998 271 981.5 234.5Q965 198 955 165Q945 132 945 109Q945 84 957 68Q969 52 995 52Q1030 52 1063.5 82.5Q1097 113 1122.5 160Q1148 207 1163.5 263.5Q1179 320 1179 373Q1179 405 1172 421Q1165 437 1145 437ZM265 146Q251 67 234 6.5Q217 -54 196 -100Q213 -129 243 -146.5Q273 -164 307 -164Q347 -164 366 -138Q385 -112 392 -67L473 478H325ZM608 95Q579 -63 504.5 -147.5Q430 -232 297 -232Q249 -232 204.5 -222Q160 -212 130 -193Q66 -250 -47 -250Q-83 -250 -113.5 -244Q-144 -238 -165.5 -225Q-187 -212 -199.5 -192Q-212 -172 -212 -144Q-212 -118 -199.5 -97.5Q-187 -77 -162 -67H-76Q-73 -95 -69 -117.5Q-65 -140 -58.5 -156.5Q-52 -173 -42.5 -182Q-33 -191 -19 -191Q6 -191 17 -168.5Q28 -146 35 -98L120 478H42L54 553H133L135 565Q146 624 172.5 667.5Q199 711 238 740Q277 769 327.5 783Q378 797 436 797Q482 797 524.5 787Q567 777 599 760Q634 784 680 797Q726 810 786 810Q842 810 884.5 797.5Q927 785 947 772L1030 810H1077Q1058 685 1042.5 603Q1027 521 1013 466Q999 411 986 373.5Q973 336 958 299H966Q1004 376 1038.5 427Q1073 478 1107 508Q1141 538 1174 550.5Q1207 563 1242 563Q1276 563 1303.5 550Q1331 537 1349.5 513.5Q1368 490 1378 458.5Q1388 427 1388 390Q1388 309 1359 236.5Q1330 164 1279.5 109.5Q1229 55 1160.5 22.5Q1092 -10 1013 -10Q919 -10 856 18Q793 46 756 96Q771 173 787.5 259Q804 345 819 425.5Q834 506 846 575Q858 644 863 688Q852 714 829 731Q806 748 774 748Q722 748 710 681L688 553H794L782 478H678Z" glyph-name="f_f_b" horiz-adv-x="1417" unicode="&#58242;" /><glyph d="M489 569Q495 600 504 627.5Q513 655 527 679Q513 708 489 721.5Q465 735 439 735Q402 735 382 718.5Q362 702 354 660L335 553H486ZM265 146Q251 67 234 6.5Q217 -54 196 -100Q213 -129 243 -146.5Q273 -164 307 -164Q347 -164 366 -138Q385 -112 392 -67L473 478H325ZM608 95Q579 -63 504.5 -147.5Q430 -232 297 -232Q249 -232 204.5 -222Q160 -212 130 -193Q66 -250 -47 -250Q-83 -250 -113.5 -244Q-144 -238 -165.5 -225Q-187 -212 -199.5 -192Q-212 -172 -212 -144Q-212 -118 -199.5 -97.5Q-187 -77 -162 -67H-76Q-73 -95 -69 -117.5Q-65 -140 -58.5 -156.5Q-52 -173 -42.5 -182Q-33 -191 -19 -191Q6 -191 17 -168.5Q28 -146 35 -98L120 478H42L54 553H133L135 565Q146 624 172.5 667.5Q199 711 238 740Q277 769 327.5 783Q378 797 436 797Q482 797 524.5 787Q567 777 599 760Q634 784 680 797Q726 810 786 810Q842 810 884.5 797.5Q927 785 947 772L1030 810H1077Q1054 670 1034.5 572.5Q1015 475 997 403Q979 331 962 277.5Q945 224 928 172H936Q982 285 1021 360.5Q1060 436 1096.5 481Q1133 526 1169.5 544.5Q1206 563 1248 563Q1306 563 1334.5 531.5Q1363 500 1363 446Q1363 415 1352 368Q1341 321 1328 273Q1315 225 1304 182Q1293 139 1293 117Q1293 94 1310 94Q1324 94 1337 102Q1350 110 1370 126L1406 88Q1380 62 1356.5 43.5Q1333 25 1309 13Q1285 1 1259.5 -4.5Q1234 -10 1204 -10Q1145 -10 1118 19.5Q1091 49 1091 100Q1091 132 1101.5 174.5Q1112 217 1124 260Q1136 303 1146.5 341.5Q1157 380 1157 404Q1157 412 1154.5 419Q1152 426 1142 426Q1125 426 1098.5 389Q1072 352 1041.5 292Q1011 232 979 155.5Q947 79 920 0H725Q738 61 752 127Q766 193 780 258.5Q794 324 807 387.5Q820 451 831 507Q842 563 850.5 609.5Q859 656 863 688Q852 714 829 731Q806 748 774 748Q722 748 710 681L688 553H794L782 478H678Z" glyph-name="f_f_h" horiz-adv-x="1424" unicode="&#58243;" /><glyph d="M489 569Q501 630 528 678Q514 707 489.5 721Q465 735 439 735Q402 735 382 718.5Q362 702 354 660L335 553H486ZM678 478 608 95Q593 15 566 -49H624Q628 -106 639 -139.5Q650 -173 679 -173Q705 -173 715 -150Q725 -127 733 -80L810 338Q817 376 821.5 405.5Q826 435 826 452Q826 465 821 471.5Q816 478 801 478ZM265 146Q251 67 234 6.5Q217 -54 196 -100Q213 -129 243 -146.5Q273 -164 307 -164Q347 -164 366 -138Q385 -112 392 -67L473 478H325ZM651 -232Q625 -232 601 -226Q577 -220 557.5 -209Q538 -198 525 -181Q512 -164 509 -141Q470 -186 418 -209Q366 -232 297 -232Q249 -232 204.5 -222Q160 -212 130 -193Q66 -250 -47 -250Q-83 -250 -113.5 -244Q-144 -238 -165.5 -225Q-187 -212 -199.5 -192Q-212 -172 -212 -144Q-212 -118 -199.5 -97.5Q-187 -77 -162 -67H-76Q-73 -95 -69 -117.5Q-65 -140 -58.5 -156.5Q-52 -173 -42.5 -182Q-33 -191 -19 -191Q6 -191 17 -168.5Q28 -146 35 -98L120 478H42L54 553H133L135 565Q146 624 172.5 667.5Q199 711 238 740Q277 769 327.5 783Q378 797 436 797Q484 797 527.5 787Q571 777 603 757Q641 783 692 796.5Q743 810 807 810Q846 810 879 804Q912 798 936 785Q960 772 973.5 751Q987 730 987 701Q987 675 972.5 653.5Q958 632 930 621H820Q820 682 812.5 717.5Q805 753 772 753Q745 753 730 732.5Q715 712 709 674L688 553H919Q970 553 995.5 531.5Q1021 510 1021 462Q1021 442 1016 403.5Q1011 365 1003 326L947 53Q931 -25 905 -79.5Q879 -134 842 -167.5Q805 -201 757.5 -216.5Q710 -232 651 -232Z" glyph-name="f_f_j" horiz-adv-x="1065" unicode="&#57898;" /></font>
</defs>
</svg>
