<?xml version="1.0" standalone="no"?>
<!DOCTYPE svg PUBLIC "-//W3C//DTD SVG 1.1//EN" "http://www.w3.org/Graphics/SVG/1.1/DTD/svg11.dtd" >
<svg xmlns="http://www.w3.org/2000/svg">
<metadata></metadata>
<defs>
<font id="neutraface_2_textlight" horiz-adv-x="1333" >
<font-face units-per-em="2048" ascent="1597" descent="-451" />
<missing-glyph horiz-adv-x="499" />
<glyph unicode="&#xfb01;" horiz-adv-x="952" d="M74 768v68h133v430q0 122 55 180.5t141 58.5q70 0 112 -25t75 -73l-60 -45q-19 26 -31 39t-36 23t-57 10q-57 0 -88 -38t-31 -132v-428h493v-836h-80v768h-413v-768h-80v768h-133zM672 1196q0 29 20 48.5t47 19.5t47.5 -19.5t20.5 -48.5q0 -30 -20.5 -49t-47.5 -19 t-47 19t-20 49z" />
<glyph unicode="&#xfb02;" horiz-adv-x="964" d="M74 768v68h133v430q0 122 55 180.5t141 58.5q70 0 112 -25t75 -73l-60 -45q-19 26 -31 39t-36 23t-57 10q-57 0 -88 -38t-31 -132v-428h223v-68h-223v-768h-80v768h-133zM700 0v1479h80v-1479h-80z" />
<glyph unicode="&#xfb03;" horiz-adv-x="1445" d="M74 768v68h133v389q0 122 55 180.5t141 58.5q70 0 112 -25t75 -73l-60 -45q-19 26 -31 39t-36 23t-57 10q-57 0 -88 -38t-31 -132v-387h413v430q0 122 55.5 180.5t141.5 58.5q70 0 111.5 -25t74.5 -73l-59 -45q-28 38 -52.5 55t-72.5 17q-57 0 -88 -38t-31 -132v-428h494 v-836h-80v768h-414v-768h-80v768h-413v-768h-80v768h-133zM1165 1196q0 29 20.5 48.5t47.5 19.5t47 -19.5t20 -48.5q0 -30 -20 -49t-47 -19t-47.5 19t-20.5 49z" />
<glyph unicode="&#xfb04;" horiz-adv-x="1458" d="M74 768v68h133v389q0 122 55 180.5t141 58.5q70 0 112 -25t75 -73l-60 -45q-19 26 -31 39t-36 23t-57 10q-57 0 -88 -38t-31 -132v-387h413v430q0 122 55.5 180.5t141.5 58.5q70 0 111.5 -25t74.5 -73l-59 -45q-28 38 -52.5 55t-72.5 17q-57 0 -88 -38t-31 -132v-428h224 v-68h-224v-768h-80v768h-413v-768h-80v768h-133zM1194 0v1479h80v-1479h-80z" />
<glyph horiz-adv-x="2048" />
<glyph horiz-adv-x="2048" />
<glyph unicode="&#xd;" horiz-adv-x="2048" />
<glyph unicode=" "  horiz-adv-x="499" />
<glyph unicode="&#x09;" horiz-adv-x="499" />
<glyph unicode="&#xa0;" horiz-adv-x="499" />
<glyph unicode="!" horiz-adv-x="458" d="M152 63q0 33 23.5 56.5t53.5 23.5q31 0 54.5 -23.5t23.5 -56.5q0 -32 -23.5 -54.5t-54.5 -22.5q-30 0 -53.5 22.5t-23.5 54.5zM184 1393h90l-14 -1045h-61z" />
<glyph unicode="&#x22;" horiz-adv-x="460" d="M86 1393h84l-10 -396h-64zM291 1393h84l-10 -396h-64z" />
<glyph unicode="#" horiz-adv-x="882" d="M57 621v69h164l64 254h-164v70h180l59 235h74l-59 -235h227l60 235h73l-59 -235h149v-70h-166l-63 -254h164v-69h-182l-56 -228h-76l58 228h-228l-55 -228h-74l58 228h-148zM295 690h227l64 254h-228z" />
<glyph unicode="$" horiz-adv-x="827" d="M41 203l68 33q37 -73 106 -122t160 -59v449l-25 8q-129 43 -192.5 104.5t-63.5 167.5q0 104 80 171t201 75v219h69v-221q95 -10 165.5 -60t103.5 -118l-64 -35q-71 127 -205 143v-399l39 -12q149 -51 214 -117t65 -176q0 -117 -86 -190.5t-232 -79.5v-230h-69v232 q-116 11 -205.5 72.5t-128.5 144.5zM174 784q0 -79 44.5 -120.5t150.5 -77.5l6 -2v377q-91 -6 -146 -51.5t-55 -125.5zM444 53q110 6 174 59.5t64 141.5t-48 133.5t-169 85.5l-21 6v-426z" />
<glyph unicode="%" horiz-adv-x="1480" d="M61 739q0 123 87.5 207t205.5 84q117 0 204 -84t87 -207q0 -124 -87 -207t-204 -83q-119 0 -206 82.5t-87 207.5zM137 739q0 -98 63 -160.5t154 -62.5t153 62.5t62 160.5t-62 160t-153 62t-154 -62t-63 -160zM385 0l631 1014h82l-631 -1014h-82zM838 274q0 124 86 207.5 t204 83.5t204.5 -83.5t86.5 -207.5q0 -125 -86.5 -207.5t-204.5 -82.5t-204 82.5t-86 207.5zM913 274q0 -98 62 -160.5t153 -62.5t153 62.5t62 160.5q0 97 -62 159.5t-153 62.5t-153 -62.5t-62 -159.5z" />
<glyph unicode="&#x26;" horiz-adv-x="1300" d="M94 350q0 37 5 70t17 63.5t23.5 56t33.5 51.5t38 44.5t46.5 42t48.5 37.5t54 36.5t54 33.5t57 34l-45 55q-111 135 -111 269q0 115 74 190.5t193 75.5q115 0 189.5 -77t74.5 -189q0 -100 -68.5 -181.5t-189.5 -156.5l352 -424q68 164 68 379h77q0 -254 -90 -445l262 -315 h-104l-201 242q-80 -125 -199 -191.5t-264 -66.5q-177 0 -286 99t-109 267zM180 350q0 -134 84.5 -212.5t224.5 -78.5q131 0 237 63t175 181l-383 461q-67 -38 -105 -62t-89 -65t-78 -78.5t-46.5 -92t-19.5 -116.5zM397 1143q0 -108 88 -213l56 -68q106 65 164.5 130.5 t58.5 150.5t-51 137.5t-131 52.5q-84 0 -134.5 -51t-50.5 -139z" />
<glyph unicode="'" horiz-adv-x="256" d="M86 1393h84l-10 -396h-64z" />
<glyph unicode="(" horiz-adv-x="534" d="M84 596q0 516 338 874l53 -47q-307 -350 -307 -827t307 -827l-53 -48q-338 358 -338 875z" />
<glyph unicode=")" horiz-adv-x="534" d="M59 -231q306 349 306 827t-306 827l54 47q338 -362 338 -874q0 -513 -338 -875z" />
<glyph unicode="*" horiz-adv-x="776" d="M113 977l243 113l-243 112l37 66l217 -140l-17 265h76l-16 -265l217 140l37 -66l-244 -112l242 -113l-35 -66l-217 140l16 -269h-76l17 269l-217 -140z" />
<glyph unicode="+" horiz-adv-x="727" d="M80 465v74h244v270h77v-270h246v-74h-246v-270h-77v270h-244z" />
<glyph unicode="," horiz-adv-x="368" d="M82 -227l80 219q-26 6 -43 27t-17 49q0 33 25.5 57.5t56.5 24.5q33 0 57.5 -24.5t24.5 -57.5q0 -23 -8 -39l-125 -256h-51z" />
<glyph unicode="-" horiz-adv-x="569" d="M104 426v74h359v-74h-359z" />
<glyph unicode="." horiz-adv-x="368" d="M102 68q0 34 25 58t57 24q33 0 57.5 -23.5t24.5 -58.5q0 -33 -24.5 -57.5t-57.5 -24.5q-31 0 -56.5 24.5t-25.5 57.5z" />
<glyph unicode="/" horiz-adv-x="880" d="M59 -262l637 1741h84l-637 -1741h-84z" />
<glyph unicode="0" horiz-adv-x="1239" d="M90 508q0 148 72 268.5t192.5 187t263.5 66.5q144 0 265 -66.5t193.5 -187t72.5 -268.5q0 -146 -72 -267t-194 -189t-265 -68q-142 0 -263 68t-193 189t-72 267zM174 508q0 -192 128 -321.5t316 -129.5t317.5 130t129.5 321q0 193 -129 320.5t-318 127.5t-316.5 -127 t-127.5 -321z" />
<glyph unicode="1" horiz-adv-x="536" d="M47 942v72h322v-1014h-82v942h-240z" />
<glyph unicode="2" horiz-adv-x="954" d="M68 0v14l419 357q120 102 180 186t60 174q0 111 -64.5 168t-170.5 57q-215 0 -291 -231l-72 20q35 132 132.5 208.5t230.5 76.5q141 0 229 -79t88 -220q0 -104 -67 -200.5t-199 -206.5l-230 -193q-50 -42 -92 -63q1 0 18 1.5t41.5 3t41.5 1.5h520v-74h-774z" />
<glyph unicode="3" horiz-adv-x="980" d="M51 45l70 35q52 -104 142 -160.5t212 -56.5q92 0 166.5 35t121 108.5t46.5 175.5q0 148 -90.5 223.5t-253.5 75.5q-78 0 -162 -35l-12 17l368 426q17 20 56 59h-5q-6 -1 -15 -2t-19 -2t-22.5 -1.5t-22.5 -0.5h-477v72h700v-8l-346 -398q-18 -21 -41 -38.5t-31 -20.5 q200 12 328.5 -89t128.5 -278q0 -92 -34 -168t-92 -124.5t-133 -74.5t-159 -26q-143 0 -257 67.5t-167 188.5z" />
<glyph unicode="4" horiz-adv-x="1036" d="M39 63v15l756 960h16v-899h158v-76h-158v-256h-82v256h-690zM166 133q55 6 94 6h469v617l6 98q-32 -51 -59 -86l-440 -559q-12 -16 -29.5 -35t-28.5 -30z" />
<glyph unicode="5" horiz-adv-x="972" d="M78 -10l63 41q104 -168 324 -168q152 0 245 87.5t93 235.5q0 151 -82.5 234.5t-243.5 83.5q-172 0 -301 -113l-14 4v619h659v-72h-585v-434q104 70 247 70q182 0 293 -108.5t111 -283.5q0 -176 -121 -286.5t-301 -110.5q-133 0 -233.5 54.5t-153.5 146.5z" />
<glyph unicode="6" horiz-adv-x="1017" d="M92 389q0 72 30 142.5t87 158.5l371 559h90l-295 -446q-41 -59 -78 -96q101 90 223 90q175 0 290.5 -115.5t115.5 -292.5q0 -171 -117.5 -288t-298.5 -117t-299.5 113.5t-118.5 291.5zM174 389q0 -148 91 -240t243 -92q147 0 241.5 93t94.5 239q0 154 -89.5 244 t-244.5 90q-149 0 -242.5 -97t-93.5 -237z" />
<glyph unicode="7" horiz-adv-x="888" d="M72 942v72h757v-15l-573 -1192h-84l547 1135h-647z" />
<glyph unicode="8" horiz-adv-x="1046" d="M86 358q0 128 80.5 218.5t212.5 123.5q-89 32 -141 100.5t-52 164.5q0 130 97.5 215.5t238.5 85.5q143 0 241.5 -85.5t98.5 -215.5q0 -96 -52.5 -164.5t-141.5 -100.5q132 -33 212.5 -123.5t80.5 -218.5q0 -166 -120.5 -270t-318.5 -104q-195 0 -315.5 104.5 t-120.5 269.5zM170 358q0 -136 96 -217.5t256 -81.5t257.5 82t97.5 217q0 136 -98 220t-257 84q-158 0 -255 -83.5t-97 -220.5zM266 965q0 -104 69 -167t187 -63q117 0 187.5 63.5t70.5 166.5q0 100 -72 164.5t-186 64.5q-115 0 -185.5 -64t-70.5 -165z" />
<glyph unicode="9" horiz-adv-x="1034" d="M92 618q0 171 122 291.5t304 120.5q183 0 303.5 -117t120.5 -295q0 -76 -30 -146t-89 -161l-327 -504h-90l266 406q13 22 61 76q-42 -38 -104.5 -60t-120.5 -22q-180 0 -298 116.5t-118 294.5zM174 618q0 -155 93 -247t249 -92q152 0 248 98t96 241q0 148 -95 243 t-247 95q-151 0 -247.5 -94t-96.5 -244z" />
<glyph unicode=":" horiz-adv-x="389" d="M113 68q0 34 25 59t57 25q33 0 57 -24.5t24 -59.5q0 -34 -24 -58t-57 -24q-31 0 -56.5 24.5t-25.5 57.5zM113 520q0 34 25 59t57 25q33 0 57 -24.5t24 -59.5q0 -34 -24 -58t-57 -24q-31 0 -56.5 24.5t-25.5 57.5z" />
<glyph unicode=";" horiz-adv-x="389" d="M92 -227l80 219q-26 6 -42.5 27t-16.5 49q0 33 25.5 57.5t56.5 24.5q33 0 57 -24t24 -58q0 -23 -8 -39l-125 -256h-51zM113 520q0 34 25 59t57 25q33 0 57 -24.5t24 -59.5q0 -34 -24 -58t-57 -24q-31 0 -56.5 24.5t-25.5 57.5z" />
<glyph unicode="&#x3c;" horiz-adv-x="727" d="M86 489v21l528 270v-80l-401 -200l401 -203v-82z" />
<glyph unicode="=" horiz-adv-x="727" d="M92 348v74h543v-74h-543zM92 580v73h543v-73h-543z" />
<glyph unicode="&#x3e;" horiz-adv-x="727" d="M113 215v80l401 201l-401 202v82l528 -274v-21z" />
<glyph unicode="?" horiz-adv-x="919" d="M49 1161q47 120 147.5 184t233.5 64q168 0 274.5 -101.5t106.5 -279.5q0 -160 -108 -266.5t-269 -112.5v-309h-78v379h56q139 0 227 89t88 220q0 146 -81.5 225.5t-215.5 79.5q-113 0 -186.5 -48.5t-124.5 -158.5zM315 63q0 33 24 56.5t54 23.5q31 0 54.5 -23.5 t23.5 -56.5q0 -32 -23.5 -54.5t-54.5 -22.5q-30 0 -54 23t-24 54z" />
<glyph unicode="@" horiz-adv-x="1777" d="M111 379q0 167 62 316.5t166.5 255.5t248.5 167.5t303 61.5q163 0 307.5 -59.5t247 -160.5t162 -240t59.5 -294q0 -221 -81.5 -329.5t-207.5 -108.5q-94 0 -151 54t-64 153q-90 -211 -303 -211q-153 0 -255.5 109.5t-102.5 273.5q0 167 103 279t255 112 q102 0 178.5 -54.5t118.5 -146.5l-4 182h80v-481q0 -100 33.5 -151.5t111.5 -51.5q94 0 152.5 91.5t58.5 279.5q0 136 -49 259.5t-137 218t-221 150.5t-291 56q-152 0 -283.5 -58.5t-222.5 -157.5t-143 -233t-52 -282q0 -203 87.5 -369.5t248.5 -264t365 -97.5q194 0 342 92 l37 -62q-160 -100 -379 -100q-160 0 -303.5 59.5t-248.5 163.5t-166.5 254.5t-61.5 323.5zM584 367q0 -131 79.5 -222.5t202.5 -91.5q122 0 205.5 92t83.5 222q0 133 -83.5 227t-205.5 94q-123 0 -202.5 -93.5t-79.5 -227.5z" />
<glyph unicode="A" d="M90 0l563 1409h25l565 -1409h-86l-149 373h-686l-148 -373h-84zM352 446h627l-272 684q-7 17 -14.5 39.5t-12.5 40t-9.5 32t-4.5 15.5q0 -1 -4.5 -15.5t-10 -31l-13 -39t-13.5 -38.5z" />
<glyph unicode="B" horiz-adv-x="1228" d="M211 0v1393h428q191 0 289 -96.5t98 -249.5q0 -235 -197 -304q134 -28 203.5 -118.5t69.5 -237.5q0 -177 -104 -282t-318 -105h-469zM295 74h375q348 0 348 313t-354 313h-369v-626zM295 774h373q143 0 208.5 73.5t65.5 199.5q0 124 -75 198t-236 74h-336v-545z" />
<glyph unicode="C" horiz-adv-x="1497" d="M117 696q0 156 56 290t152.5 226t227 144.5t276.5 52.5q182 0 323.5 -68t229.5 -196l-63 -47q-78 112 -203 173.5t-287 61.5q-177 0 -320 -82.5t-224.5 -228.5t-81.5 -326t81.5 -326t224.5 -228.5t320 -82.5q161 0 291.5 64.5t214.5 183.5l64 -45q-92 -134 -240.5 -206 t-329.5 -72q-196 0 -358 88.5t-258 252.5t-96 371z" />
<glyph unicode="D" horiz-adv-x="1386" d="M211 0v1393h297q358 0 560 -187t202 -510t-201 -509.5t-561 -186.5h-297zM295 76h203q169 0 300.5 45.5t215 128t126 195.5t42.5 251t-42.5 251t-126 196t-215 128.5t-300.5 45.5h-203v-1241z" />
<glyph unicode="E" horiz-adv-x="1173" d="M211 0v1393h813v-74h-729v-582h653v-73h-653v-590h758v-74h-842z" />
<glyph unicode="F" horiz-adv-x="1138" d="M211 0v1393h811v-74h-727v-612h659v-76h-659v-631h-84z" />
<glyph unicode="G" horiz-adv-x="1525" d="M117 696q0 156 56.5 290t153.5 226t229 144.5t280 52.5q146 0 269.5 -43.5t205.5 -130.5l-56 -57q-149 155 -419 155q-134 0 -251.5 -48.5t-201 -132.5t-132 -202.5t-48.5 -253.5t48.5 -253.5t132 -202.5t200.5 -132.5t250 -48.5q300 0 475 164v324h-449v74h531v-431 q-202 -206 -557 -206q-198 0 -361 88.5t-259.5 252.5t-96.5 371z" />
<glyph unicode="H" horiz-adv-x="1400" d="M211 0v1393h84v-676h811v676h84v-1393h-84v641h-811v-641h-84z" />
<glyph unicode="I" horiz-adv-x="522" d="M219 0v1393h84v-1393h-84z" />
<glyph unicode="J" horiz-adv-x="974" d="M86 168l68 45q90 -154 258 -154q121 0 192.5 73.5t71.5 215.5v1045h84v-1049q0 -173 -96 -266.5t-250 -93.5q-220 0 -328 184z" />
<glyph unicode="K" horiz-adv-x="1202" d="M211 0v1393h84v-703q0 -34 -8 -158q45 75 84 132l608 729h94l-520 -629l582 -764h-105l-530 705l-205 -246v-459h-84z" />
<glyph unicode="L" horiz-adv-x="1048" d="M211 0v1393h84v-1319h670v-74h-754z" />
<glyph unicode="M" horiz-adv-x="1720" d="M211 0v1409h20l629 -827l629 827h20v-1409h-79v1106l4 121q-39 -68 -76 -115l-490 -643h-22l-484 643q-16 20 -34.5 49t-29.5 47l-11 19q4 -72 4 -121v-1106h-80z" />
<glyph unicode="N" horiz-adv-x="1472" d="M211 0v1409h25l890 -1155l64 -92q-6 63 -6 104v1127h78v-1409h-25l-891 1155l-63 92q6 -64 6 -105v-1126h-78z" />
<glyph unicode="O" horiz-adv-x="1658" d="M117 696q0 156 56 290t152.5 226t227 144.5t276.5 52.5t277 -52.5t227 -144.5t152.5 -226t56.5 -290t-56.5 -290t-152.5 -226t-227 -144t-277 -52q-196 0 -358 88.5t-258 252.5t-96 371zM203 696q0 -180 81.5 -326t224.5 -228.5t320 -82.5q132 0 248.5 48.5t199.5 132.5 t131 202.5t48 253.5t-48 253.5t-131 202.5t-199.5 132.5t-248.5 48.5q-177 0 -320 -82.5t-224.5 -228.5t-81.5 -326z" />
<glyph unicode="P" horiz-adv-x="1173" d="M211 0v1393h369q231 0 359 -107.5t128 -308.5q0 -196 -128.5 -305t-358.5 -109h-285v-563h-84zM295 637h276q410 0 410 340q0 342 -410 342h-276v-682z" />
<glyph unicode="Q" horiz-adv-x="1658" d="M117 696q0 156 56 290t152.5 226t227 144.5t276.5 52.5t277 -52.5t227 -144.5t152.5 -226t56.5 -290q0 -158 -56 -291t-157 -229l217 -227l-59 -53l-219 229q-190 -141 -439 -141q-196 0 -358 88.5t-258 252.5t-96 371zM203 696q0 -180 81.5 -326t224.5 -228.5t320 -82.5 q221 0 383 125l-229 240l59 53l230 -241q88 88 136 206t48 254q0 135 -48 253.5t-131 202.5t-199.5 132.5t-248.5 48.5q-177 0 -320 -82.5t-224.5 -228.5t-81.5 -326z" />
<glyph unicode="R" horiz-adv-x="1224" d="M211 0v1393h373q224 0 353.5 -105.5t129.5 -304.5q0 -150 -79 -249t-222 -138l350 -596h-100l-338 580q-39 -5 -94 -5h-289v-575h-84zM295 649h280q200 0 303 85t103 249q0 166 -103 251t-303 85h-280v-670z" />
<glyph unicode="S" horiz-adv-x="1079" d="M76 262l71 35q27 -51 59 -90t78 -75t111.5 -55.5t145.5 -19.5q141 0 236 77.5t95 205.5q0 118 -66.5 194t-217.5 146l-129 59q-153 71 -222 151.5t-69 207.5q0 141 98.5 226t243.5 85q228 0 356 -201l-65 -43q-49 79 -117 124.5t-174 45.5q-122 0 -191 -64t-69 -171 q0 -101 54.5 -163t187.5 -124l129 -59q173 -78 253 -175t80 -239q0 -161 -114.5 -258.5t-296.5 -97.5q-331 0 -467 278z" />
<glyph unicode="T" horiz-adv-x="1103" d="M68 1319v74h968v-74h-442v-1319h-84v1319h-442z" />
<glyph unicode="U" d="M197 463v930h84v-924q0 -197 104.5 -304.5t280.5 -107.5q175 0 281 108t106 304v924h84v-930q0 -227 -132 -353t-339 -126q-208 0 -338.5 125.5t-130.5 353.5z" />
<glyph unicode="V" d="M90 1393h90l451 -1137q8 -20 17.5 -52t15.5 -54l6 -21q21 82 39 127l450 1137h84l-563 -1409h-25z" />
<glyph unicode="W" horiz-adv-x="1961" d="M92 1393h90l340 -1121q4 -16 9.5 -39t9.5 -41t4 -20q0 6 8.5 41t17.5 59l400 1137h24l400 -1137q5 -16 10.5 -38.5t9.5 -41.5t4 -20q0 23 25 100l340 1121h86l-436 -1409h-23l-405 1155q-13 40 -23 100q0 -1 -3 -13t-6 -25t-7.5 -31t-8.5 -31l-407 -1155h-23z" />
<glyph unicode="X" horiz-adv-x="1275" d="M104 0l488 754l-412 639h96l340 -527l23 -51q17 35 27 51l340 527h90l-412 -637l490 -756h-97l-415 645q-16 23 -25 49q-1 -1 -5 -10t-10 -21t-10 -18l-417 -645h-91z" />
<glyph unicode="Y" horiz-adv-x="1224" d="M84 1393h94l404 -729q21 -41 32 -84q0 4 12.5 33t24.5 51l402 729h88l-486 -883v-510h-86v512z" />
<glyph unicode="Z" horiz-adv-x="1187" d="M92 0v20l846 1299h-737v74h862v-21l-844 -1298h866v-74h-993z" />
<glyph unicode="[" horiz-adv-x="593" d="M170 -262v1741h344v-72h-262v-1597h262v-72h-344z" />
<glyph unicode="\" horiz-adv-x="880" d="M100 1479h84l637 -1741h-84z" />
<glyph unicode="]" horiz-adv-x="593" d="M80 -190h262v1597h-262v72h346v-1741h-346v72z" />
<glyph unicode="^" horiz-adv-x="833" d="M154 965l254 444h18l254 -444h-70l-192 309l-195 -309h-69z" />
<glyph unicode="_" horiz-adv-x="499" d="M-4 -193h508v-69h-508v69z" />
<glyph unicode="`" horiz-adv-x="1024" d="M303 1417h94l154 -399h-68z" />
<glyph unicode="a" horiz-adv-x="948" d="M104 240q0 118 88.5 180.5t217.5 62.5h295v41q0 260 -224 260q-178 0 -272 -143l-57 41q53 82 138.5 127t192.5 45q135 0 218 -82.5t83 -239.5v-532h-79l4 129q-96 -145 -289 -145q-146 0 -231 66.5t-85 189.5zM184 242q0 -187 244 -187q110 0 193.5 59t83.5 152v152 h-285q-104 0 -170 -43t-66 -133z" />
<glyph unicode="b" horiz-adv-x="1128" d="M174 0v1479h80v-842q48 98 139.5 157.5t214.5 59.5q179 0 296.5 -124.5t117.5 -309.5q0 -186 -117.5 -311t-296.5 -125q-119 0 -216 63t-142 162l4 -209h-80zM248 420q0 -158 97 -261.5t253 -103.5q153 0 246.5 103.5t93.5 261.5t-93.5 260t-246.5 102 q-156 0 -253 -102.5t-97 -259.5z" />
<glyph unicode="c" horiz-adv-x="950" d="M106 418q0 181 122.5 308.5t301.5 127.5q203 0 318 -141l-57 -47q-92 116 -261 116q-152 0 -246 -103.5t-94 -260.5q0 -156 94.5 -259.5t245.5 -103.5q180 0 277 125l57 -47q-121 -149 -334 -149q-179 0 -301.5 126.5t-122.5 307.5z" />
<glyph unicode="d" horiz-adv-x="1128" d="M106 420q0 185 117.5 309.5t296.5 124.5q123 0 214.5 -59.5t139.5 -157.5v842h80v-1479h-80l5 209q-45 -99 -142.5 -162t-216.5 -63q-179 0 -296.5 125t-117.5 311zM190 420q0 -158 93.5 -261.5t246.5 -103.5q156 0 253.5 104t97.5 261t-97.5 259.5t-253.5 102.5 q-153 0 -246.5 -102t-93.5 -260z" />
<glyph unicode="e" horiz-adv-x="1036" d="M106 418q0 181 121.5 308.5t298.5 127.5q187 0 300 -130q110 -126 110 -313v-10h-748q5 -155 100.5 -250.5t254.5 -95.5q188 0 293 131l53 -47q-125 -155 -346 -155q-194 0 -315.5 125t-121.5 309zM190 467h664q-10 137 -94.5 227t-233.5 90q-140 0 -230.5 -88.5 t-105.5 -228.5z" />
<glyph unicode="f" horiz-adv-x="583" d="M74 768v68h133v430q0 122 54.5 180.5t139.5 58.5q124 0 185 -102l-62 -41q-25 37 -50.5 54.5t-70.5 17.5q-116 0 -116 -170v-428h223v-68h-223v-768h-80v768h-133z" />
<glyph unicode="g" horiz-adv-x="1128" d="M106 420q0 185 117.5 309.5t296.5 124.5q123 0 216.5 -61t142.5 -162l-5 205h80v-875q0 -209 -106.5 -313.5t-298.5 -104.5q-145 0 -250 66.5t-164 177.5l66 41q120 -213 346 -213q161 0 244 85t83 269v234q-46 -96 -141 -157.5t-213 -61.5q-179 0 -296.5 125t-117.5 311 zM190 420q0 -158 93.5 -261.5t246.5 -103.5q156 0 253.5 104t97.5 261t-97.5 259.5t-253.5 102.5q-153 0 -246.5 -102t-93.5 -260z" />
<glyph unicode="h" horiz-adv-x="1042" d="M172 0v1479h80v-822q42 91 125.5 144t191.5 53q141 0 226.5 -89t85.5 -243v-522h-80v508q0 131 -61 201.5t-181 70.5q-137 0 -222 -84.5t-85 -228.5v-467h-80z" />
<glyph unicode="i" horiz-adv-x="425" d="M145 1196q0 29 20.5 48.5t47.5 19.5t47.5 -19.5t20.5 -48.5q0 -30 -20.5 -49t-47.5 -19t-47.5 19t-20.5 49zM174 0v836h80v-836h-80z" />
<glyph unicode="j" horiz-adv-x="425" d="M-102 -381l49 51q51 -55 116 -55q111 0 111 158v1063h80v-1065q0 -110 -52.5 -168t-133.5 -58q-107 0 -170 74zM145 1196q0 29 20.5 48.5t47.5 19.5t47.5 -19.5t20.5 -48.5q0 -30 -20.5 -49t-47.5 -19t-47.5 19t-20.5 49z" />
<glyph unicode="k" horiz-adv-x="919" d="M172 0v1479h80v-1041q0 -30 -6 -90l463 488h94l-336 -355l395 -481h-98l-352 428l-160 -168v-260h-80z" />
<glyph unicode="l" horiz-adv-x="448" d="M184 0v1479h80v-1479h-80z" />
<glyph unicode="m" horiz-adv-x="1519" d="M172 0v836h80l-2 -170q39 89 110 138.5t164 49.5q103 0 170 -52t90 -138q45 92 122.5 141t170.5 49q128 0 203.5 -79.5t75.5 -215.5v-559h-80v545q0 235 -207 235q-116 0 -190 -81t-74 -220v-479h-80v545q0 235 -209 235q-116 0 -190 -81t-74 -220v-479h-80z" />
<glyph unicode="n" horiz-adv-x="1042" d="M172 0v836h80l-2 -187q42 96 126 150.5t193 54.5q141 0 226.5 -89t85.5 -243v-522h-80v508q0 131 -61 201.5t-181 70.5q-137 0 -222 -84.5t-85 -228.5v-467h-80z" />
<glyph unicode="o" horiz-adv-x="1081" d="M106 420q0 180 127 307t310 127q182 0 307 -126.5t125 -307.5t-125 -308.5t-307 -127.5t-309.5 127.5t-127.5 308.5zM188 420q0 -157 100 -261t255 -104t252.5 104t97.5 261t-97.5 259.5t-252.5 102.5q-156 0 -255.5 -103t-99.5 -259z" />
<glyph unicode="p" horiz-adv-x="1128" d="M174 -434v1270h80l-4 -205q48 101 141.5 162t216.5 61q179 0 296.5 -124.5t117.5 -309.5q0 -186 -117.5 -311t-296.5 -125q-118 0 -213 61.5t-141 157.5v-637h-80zM248 420q0 -158 97 -261.5t253 -103.5q153 0 246.5 103.5t93.5 261.5t-93.5 260t-246.5 102 q-156 0 -253 -102.5t-97 -259.5z" />
<glyph unicode="q" horiz-adv-x="1128" d="M106 420q0 185 117.5 309.5t296.5 124.5q123 0 216.5 -61t142.5 -162l-5 205h80v-1270h-80v637q-46 -96 -141 -157.5t-213 -61.5q-179 0 -296.5 125t-117.5 311zM190 420q0 -158 93.5 -261.5t246.5 -103.5q156 0 253.5 104t97.5 261t-97.5 259.5t-253.5 102.5 q-153 0 -246.5 -102t-93.5 -260z" />
<glyph unicode="r" horiz-adv-x="696" d="M172 0v836h80l-2 -168q35 89 99 136.5t145 47.5q94 0 151 -43l-39 -66q-49 35 -123 35q-96 0 -163.5 -79.5t-67.5 -223.5v-475h-80z" />
<glyph unicode="s" horiz-adv-x="829" d="M96 193l70 30q77 -168 266 -168q95 0 152 44t57 116q0 79 -50 115t-181 76q-62 18 -101.5 34.5t-79 43.5t-58.5 67t-19 94q0 91 71.5 150t177.5 59q180 0 267 -158l-62 -37q-71 125 -205 125q-79 0 -126.5 -37.5t-47.5 -97.5q0 -70 43.5 -104t171.5 -72 q66 -19 109.5 -37.5t85.5 -48t63 -72t21 -98.5q0 -103 -76.5 -168t-212.5 -65q-125 0 -211.5 59t-124.5 150z" />
<glyph unicode="t" horiz-adv-x="641" d="M74 768v68h131v292h80v-292h241v-68h-241v-545q0 -168 112 -168q35 0 61.5 10t39 20.5t32.5 31.5l52 -49q-35 -40 -77.5 -62t-107.5 -22q-86 0 -139 58t-53 179v547h-131z" />
<glyph unicode="u" horiz-adv-x="1042" d="M164 309v527h80v-514q0 -129 60 -198t179 -69q137 0 222.5 85.5t85.5 228.5v467h79v-836h-79l2 184q-42 -95 -125.5 -148.5t-192.5 -53.5q-141 0 -226 87.5t-85 239.5z" />
<glyph unicode="v" horiz-adv-x="917" d="M66 836h86l276 -627q8 -18 17 -45t15 -44l5 -18q17 66 35 107l270 627h82l-377 -852h-24z" />
<glyph unicode="w" horiz-adv-x="1392" d="M66 836h86l221 -603q23 -63 30 -100q0 6 10.5 39t22.5 61l250 611h19l253 -608q8 -19 17 -45t13 -42l5 -16q13 60 29 103l221 600h82l-324 -852h-20l-254 622q-24 61 -31 94q0 -1 -4.5 -17.5t-11 -38.5t-12.5 -38l-258 -622h-21z" />
<glyph unicode="x" horiz-adv-x="921" d="M78 0l336 446l-289 390h96l201 -273q9 -12 19 -28.5t16 -27.5l6 -11q17 40 37 67l205 273h88l-287 -383l338 -453h-96l-248 338q-34 43 -41 65q-1 -1 -7 -12t-16 -27t-18 -26l-252 -338h-88z" />
<glyph unicode="y" horiz-adv-x="919" d="M66 836h86l292 -619q21 -49 33 -96q0 3 4 17.5t11.5 37.5t15.5 41l264 619h82l-547 -1270h-82l211 495z" />
<glyph unicode="z" horiz-adv-x="831" d="M74 0v20l561 746h-504v70h627v-23l-561 -743h561v-70h-684z" />
<glyph unicode="{" horiz-adv-x="706" d="M51 584v71h117q61 0 91 32t30 114v383q0 88 20.5 148.5t57.5 91t77.5 43t92.5 12.5h90v-72h-88q-82 0 -125 -49t-43 -174v-389q0 -145 -107 -174q107 -25 107 -177v-411q0 -125 43 -174t125 -49h88v-72h-90q-52 0 -92.5 12.5t-77.5 43t-57.5 91t-20.5 148.5v405 q0 82 -30 114t-91 32h-117z" />
<glyph unicode="|" horiz-adv-x="446" d="M184 -262v1741h78v-1741h-78z" />
<glyph unicode="}" horiz-adv-x="704" d="M80 -190h88q82 0 124 48.5t42 174.5v411q0 149 108 174q-108 25 -108 179v387q0 126 -42 174.5t-124 48.5h-88v72h90q40 0 73 -7t66.5 -27t56 -51.5t36.5 -85t14 -124.5v-381q0 -82 31 -115t92 -33h114v-71h-114q-61 0 -92 -32t-31 -112v-407q0 -71 -14 -124.5t-36.5 -85 t-56 -51.5t-66.5 -27t-73 -7h-90v72z" />
<glyph unicode="~" horiz-adv-x="790" d="M121 483q4 94 44.5 146.5t108.5 52.5q41 0 71.5 -18t74.5 -60q42 -40 58.5 -50.5t41.5 -10.5q35 0 54.5 32t25.5 101l70 -6q-5 -95 -43.5 -146t-108.5 -51q-40 0 -70 18.5t-75 61.5q-40 38 -57.5 48.5t-43.5 10.5q-70 0 -82 -135z" />
<glyph unicode="&#xa1;" horiz-adv-x="458" d="M152 1329q0 32 23 55t54 23q30 0 54 -23t24 -55q0 -33 -24 -56.5t-54 -23.5q-31 0 -54 23.5t-23 56.5zM184 0l15 1044h61l14 -1044h-90z" />
<glyph unicode="&#xa2;" horiz-adv-x="950" d="M106 418q0 168 107.5 291.5t269.5 140.5v221h70v-217q188 -9 295 -141l-57 -47q-85 108 -238 116v-727q165 8 254 125l57 -47q-113 -140 -311 -149v-222h-70v224q-163 19 -270 142t-107 290zM190 418q0 -142 80.5 -243t212.5 -118v721q-132 -15 -212.5 -115.5 t-80.5 -244.5z" />
<glyph unicode="&#xa3;" horiz-adv-x="1081" d="M66 152q0 73 51 119t135 46q76 0 164 -57q-11 106 -86 287h-193v67h166q-78 194 -78 316q0 143 102.5 239.5t258.5 96.5q132 0 223 -62t135 -157l-65 -33q-49 91 -115.5 134.5t-177.5 43.5q-128 0 -202.5 -70.5t-74.5 -193.5q0 -74 19 -145.5t55 -168.5h342v-67h-315 q75 -203 77 -342q99 -81 142 -105q74 -43 143 -43q65 0 111 24t86 69l51 -52q-46 -53 -104 -83.5t-144 -30.5q-83 0 -152 37.5t-147 103.5q-27 -63 -86.5 -102t-134.5 -39q-84 0 -135 47.5t-51 120.5zM137 152q0 -47 31.5 -76t83.5 -29q60 0 106 36t56 91q-98 80 -162 80 q-53 0 -84 -27.5t-31 -74.5z" />
<glyph unicode="&#xa5;" horiz-adv-x="1062" d="M119 1014h94l268 -498q9 -15 17.5 -34.5t14 -33t9.5 -24.5t4 -12q12 47 45 104l287 498h86l-237 -406h208v-67h-249l-101 -172h350v-68h-352v-301h-84v301h-352v68h348l-96 172h-252v67h215z" />
<glyph unicode="&#xa7;" horiz-adv-x="985" d="M70 637q0 72 40 129t115 92q-30 62 -30 133q0 121 86 198t219 77q116 0 193.5 -56t117.5 -149l-70 -31q-36 78 -92 121t-149 43q-101 0 -162.5 -53t-61.5 -148q0 -81 41 -132t138 -91l196 -80q142 -57 203 -126.5t61 -164.5q0 -67 -42.5 -119t-114.5 -81q45 -61 45 -142 q0 -119 -83 -193.5t-231 -74.5q-126 0 -221.5 60t-144.5 161l70 33q41 -85 116 -133.5t180 -48.5q106 0 169 54t63 142q0 76 -49.5 123.5t-159.5 91.5l-178 70q-140 55 -202 123t-62 172zM152 641q0 -82 44.5 -129.5t161.5 -93.5l179 -70q114 -44 178 -100q121 44 121 147 q0 75 -44 122t-167 97l-197 80q-111 46 -170 115q-106 -50 -106 -168z" />
<glyph unicode="&#xa8;" horiz-adv-x="1024" d="M291 1194q0 28 19.5 47t45.5 19q27 0 46.5 -19.5t19.5 -46.5t-19.5 -46.5t-46.5 -19.5q-26 0 -45.5 19t-19.5 47zM602 1194q0 27 19.5 46.5t46.5 19.5q26 0 45.5 -19t19.5 -47t-19.5 -47t-45.5 -19q-27 0 -46.5 19.5t-19.5 46.5z" />
<glyph unicode="&#xa9;" horiz-adv-x="1228" d="M90 506q0 148 71 269t191 188t262 67t262.5 -67t191.5 -188t71 -269q0 -146 -71 -266.5t-191.5 -188t-262.5 -67.5t-262 67.5t-191 188t-71 266.5zM158 506q0 -197 131 -328t325 -131t325.5 131t131.5 328q0 198 -131.5 329.5t-325.5 131.5t-325 -131t-131 -330zM324 506 q0 130 85.5 219.5t208.5 89.5q74 0 127 -25t99 -77l-56 -51q-63 81 -167 81q-93 0 -154 -67.5t-61 -169.5q0 -100 60 -168t152 -68q105 0 179 88l55 -51q-94 -108 -234 -108q-123 0 -208.5 89t-85.5 218z" />
<glyph unicode="&#xaa;" horiz-adv-x="798" d="M88 512q0 104 80 158.5t199 54.5h237v10q0 129 -48 178.5t-142 49.5q-138 0 -228 -119l-51 39q41 67 114.5 107t164.5 40q124 0 196 -69t72 -218v-436h-78v96q-36 -52 -99.5 -82t-144.5 -30q-122 0 -197 57t-75 164zM168 512q0 -154 205 -154q96 0 163.5 47.5t67.5 137.5 v116h-227q-209 0 -209 -147z" />
<glyph unicode="&#xab;" horiz-adv-x="710" d="M84 397v17l190 315h93l-195 -323l195 -324h-93zM344 397v17l191 315h92l-195 -323l195 -324h-92z" />
<glyph unicode="&#xad;" horiz-adv-x="569" d="M104 426v74h359v-74h-359z" />
<glyph unicode="&#xae;" horiz-adv-x="1062" d="M86 989q0 123 60 224t161 157.5t221 56.5q122 0 225 -56.5t163.5 -157.5t60.5 -224q0 -122 -60.5 -222.5t-163.5 -157t-225 -56.5q-120 0 -221 56.5t-161 157t-60 222.5zM158 989q0 -167 104 -272t266 -105q165 0 272 105.5t107 271.5q0 168 -107 273.5t-272 105.5 q-162 0 -266 -105.5t-104 -273.5zM375 741v504h164q89 0 136.5 -41.5t47.5 -113.5q0 -57 -28.5 -96t-82.5 -54l125 -199h-78l-118 191h-99v-191h-67zM442 987h93q58 0 88 28t30 75q0 46 -30 73t-88 27h-93v-203z" />
<glyph unicode="&#xaf;" horiz-adv-x="1024" d="M293 1126v70h438v-70h-438z" />
<glyph unicode="&#xb0;" horiz-adv-x="659" d="M113 815q0 91 63 153t154 62q90 0 153.5 -62.5t63.5 -152.5q0 -89 -63.5 -151t-153.5 -62q-91 0 -154 62t-63 151zM182 815q0 -65 41.5 -108t106.5 -43t105 42.5t40 108.5q0 67 -40 110.5t-105 43.5t-106.5 -43.5t-41.5 -110.5z" />
<glyph unicode="&#xb4;" horiz-adv-x="1024" d="M473 1018l154 399h94l-180 -399h-68z" />
<glyph unicode="&#xb6;" horiz-adv-x="1097" d="M123 1036q0 151 99.5 254t260.5 103h404v-1393h-82v1319h-176v-1319h-84v680h-62q-161 0 -260.5 102.5t-99.5 253.5z" />
<glyph unicode="&#xb7;" horiz-adv-x="368" d="M102 485q0 34 25 58t57 24q33 0 57.5 -23.5t24.5 -58.5q0 -33 -24.5 -57.5t-57.5 -24.5q-31 0 -56.5 24.5t-25.5 57.5z" />
<glyph unicode="&#xb8;" horiz-adv-x="1024" d="M330 -348l61 37q20 -42 49 -65t80 -23q45 0 76 28t31 78q0 48 -32 80.5t-95 32.5h-31v180h74v-121q67 -8 115.5 -55.5t48.5 -118.5q0 -80 -54.5 -126t-130.5 -46q-69 0 -118.5 33.5t-73.5 85.5z" />
<glyph unicode="&#xba;" horiz-adv-x="905" d="M88 662q0 156 106.5 262t258.5 106t258 -106t106 -262q0 -157 -106 -263t-258 -106t-258.5 106t-106.5 263zM168 662q0 -131 80 -216.5t205 -85.5t204.5 85.5t79.5 216.5t-79.5 216t-204.5 85t-205 -85t-80 -216z" />
<glyph unicode="&#xbb;" horiz-adv-x="710" d="M84 82l195 324l-195 323h92l191 -315v-17l-191 -315h-92zM344 82l195 324l-195 323h92l191 -315v-17l-191 -315h-92z" />
<glyph unicode="&#xbf;" horiz-adv-x="919" d="M109 365q0 160 107.5 266t268.5 112v310h78v-379h-55q-139 0 -227 -89t-88 -220q0 -146 81 -226t215 -80q113 0 187 48.5t125 158.5l69 -35q-46 -119 -147 -183t-234 -64q-168 0 -274 101.5t-106 279.5zM449 1329q0 32 23 55t54 23q30 0 54 -23t24 -55q0 -33 -24 -56.5 t-54 -23.5q-31 0 -54 23.5t-23 56.5z" />
<glyph unicode="&#xc0;" d="M90 0l563 1409h25l565 -1409h-86l-149 373h-686l-148 -373h-84zM352 446h627l-272 684q-7 17 -14.5 39.5t-12.5 40t-9.5 32t-4.5 15.5q0 -1 -4.5 -15.5t-10 -31l-13 -39t-13.5 -38.5zM449 1946h94l153 -400h-67z" />
<glyph unicode="&#xc1;" d="M90 0l563 1409h25l565 -1409h-86l-149 373h-686l-148 -373h-84zM352 446h627l-272 684q-7 17 -14.5 39.5t-12.5 40t-9.5 32t-4.5 15.5q0 -1 -4.5 -15.5t-10 -31l-13 -39t-13.5 -38.5zM633 1546l153 400h95l-181 -400h-67z" />
<glyph unicode="&#xc2;" d="M90 0l563 1409h25l565 -1409h-86l-149 373h-686l-148 -373h-84zM352 446h627l-272 684q-7 17 -14.5 39.5t-12.5 40t-9.5 32t-4.5 15.5q0 -1 -4.5 -15.5t-10 -31l-13 -39t-13.5 -38.5zM426 1561l231 372h19l231 -372h-71l-168 243l-170 -243h-72z" />
<glyph unicode="&#xc3;" d="M90 0l563 1409h25l565 -1409h-86l-149 373h-686l-148 -373h-84zM352 446h627l-272 684q-7 17 -14.5 39.5t-12.5 40t-9.5 32t-4.5 15.5q0 -1 -4.5 -15.5t-10 -31l-13 -39t-13.5 -38.5zM362 1577q4 93 49 146t119 53q46 0 79.5 -18t80.5 -60q47 -41 65 -51.5t46 -10.5 q43 0 65.5 32t28.5 101l70 -6q-5 -95 -47 -145.5t-119 -50.5q-45 0 -78.5 18.5t-81.5 61.5q-45 39 -63.5 49t-47.5 10q-84 0 -96 -135z" />
<glyph unicode="&#xc4;" d="M90 0l563 1409h25l565 -1409h-86l-149 373h-686l-148 -373h-84zM352 446h627l-272 684q-7 17 -14.5 39.5t-12.5 40t-9.5 32t-4.5 15.5q0 -1 -4.5 -15.5t-10 -31l-13 -39t-13.5 -38.5zM444 1640q0 27 19.5 46.5t46.5 19.5q26 0 45.5 -19t19.5 -47q0 -27 -19 -46t-46 -19 t-46.5 19t-19.5 46zM756 1640q0 28 19 47t46 19t46.5 -19.5t19.5 -46.5t-19.5 -46t-46.5 -19t-46 19t-19 46z" />
<glyph unicode="&#xc5;" d="M90 0l563 1409h25l565 -1409h-86l-149 373h-686l-148 -373h-84zM352 446h627l-272 684q-7 17 -14.5 39.5t-12.5 40t-9.5 32t-4.5 15.5q0 -1 -4.5 -15.5t-10 -31l-13 -39t-13.5 -38.5zM473 1716q0 78 56.5 133.5t136.5 55.5q79 0 135.5 -55.5t56.5 -133.5t-56 -133 t-136 -55t-136.5 55t-56.5 133zM547 1716q0 -57 33 -91t86 -34t85.5 34t32.5 91t-32.5 91t-85.5 34t-86 -34t-33 -91z" />
<glyph unicode="&#xc6;" horiz-adv-x="1916" d="M66 0l917 1393h784v-74h-729v-582h654v-73h-654v-590h758v-74h-842v332h-579l-217 -332h-92zM424 406h530v679q0 18 1 41t3 43t3.5 37t2.5 27.5t1 11.5q-32 -64 -82 -141z" />
<glyph unicode="&#xc7;" horiz-adv-x="1497" d="M117 696q0 156 56 290t152.5 226t227 144.5t276.5 52.5q182 0 323.5 -68t229.5 -196l-63 -47q-78 112 -203 173.5t-287 61.5q-177 0 -320 -82.5t-224.5 -228.5t-81.5 -326t81.5 -326t224.5 -228.5t320 -82.5q161 0 291.5 64.5t214.5 183.5l64 -45q-92 -134 -240.5 -206 t-329.5 -72h-16v-105q67 -8 115.5 -55.5t48.5 -118.5q0 -81 -54 -126.5t-130 -45.5q-69 0 -119 34t-74 85l62 37q20 -42 49 -65t80 -23q45 0 75.5 28t30.5 78q0 48 -32 80.5t-95 32.5h-31v168q-131 15 -245 73.5t-197.5 149t-131.5 216t-48 269.5z" />
<glyph unicode="&#xc8;" horiz-adv-x="1173" d="M211 0v1393h813v-74h-729v-582h653v-73h-653v-590h758v-74h-842zM420 1946h94l154 -400h-68z" />
<glyph unicode="&#xc9;" horiz-adv-x="1173" d="M211 0v1393h813v-74h-729v-582h653v-73h-653v-590h758v-74h-842zM604 1546l154 400h94l-180 -400h-68z" />
<glyph unicode="&#xca;" horiz-adv-x="1173" d="M211 0v1393h813v-74h-729v-582h653v-73h-653v-590h758v-74h-842zM397 1561l232 372h18l232 -372h-72l-168 243l-170 -243h-72z" />
<glyph unicode="&#xcb;" horiz-adv-x="1173" d="M211 0v1393h813v-74h-729v-582h653v-73h-653v-590h758v-74h-842zM416 1640q0 28 19 47t46 19t46.5 -19.5t19.5 -46.5t-19.5 -46t-46.5 -19t-46 19t-19 46zM727 1640q0 27 19.5 46.5t46.5 19.5t46 -19t19 -47q0 -27 -19 -46t-46 -19t-46.5 19t-19.5 46z" />
<glyph unicode="&#xcc;" horiz-adv-x="522" d="M43 1946h94l154 -400h-68zM219 0v1393h84v-1393h-84z" />
<glyph unicode="&#xcd;" horiz-adv-x="522" d="M219 0v1393h84v-1393h-84zM227 1546l154 400h94l-180 -400h-68z" />
<glyph unicode="&#xce;" horiz-adv-x="522" d="M20 1561l232 372h18l232 -372h-72l-168 243l-170 -243h-72zM219 0v1393h84v-1393h-84z" />
<glyph unicode="&#xcf;" horiz-adv-x="522" d="M39 1640q0 28 19.5 47t45.5 19q27 0 46.5 -19.5t19.5 -46.5t-19.5 -46t-46.5 -19t-46 19t-19 46zM219 0v1393h84v-1393h-84zM350 1640q0 27 19.5 46.5t46.5 19.5q26 0 45.5 -19t19.5 -47q0 -27 -19 -46t-46 -19t-46.5 19t-19.5 46z" />
<glyph unicode="&#xd0;" horiz-adv-x="1386" d="M31 664v73h180v656h321q171 0 310 -51t233 -143t144.5 -220.5t50.5 -282.5t-50.5 -282.5t-144 -220t-232.5 -142.5t-311 -51h-321v664h-180zM295 76h227q162 0 288.5 45.5t207 128t122.5 195.5t42 251t-42 251t-122.5 196t-207 128.5t-288.5 45.5h-227v-580h405v-73h-405 v-588z" />
<glyph unicode="&#xd1;" horiz-adv-x="1472" d="M211 0v1409h25l890 -1155l64 -92q-6 63 -6 104v1127h78v-1409h-25l-891 1155l-63 92q6 -64 6 -105v-1126h-78zM444 1577q4 93 49 146t119 53q46 0 79.5 -18t80.5 -60q47 -41 65 -51.5t46 -10.5q43 0 65.5 32t28.5 101l70 -6q-5 -95 -47 -145.5t-119 -50.5 q-45 0 -78.5 18.5t-81.5 61.5q-45 39 -63.5 49t-47.5 10q-84 0 -96 -135z" />
<glyph unicode="&#xd2;" horiz-adv-x="1658" d="M117 696q0 156 56 290t152.5 226t227 144.5t276.5 52.5t277 -52.5t227 -144.5t152.5 -226t56.5 -290t-56.5 -290t-152.5 -226t-227 -144t-277 -52q-196 0 -358 88.5t-258 252.5t-96 371zM203 696q0 -180 81.5 -326t224.5 -228.5t320 -82.5q132 0 248.5 48.5t199.5 132.5 t131 202.5t48 253.5t-48 253.5t-131 202.5t-199.5 132.5t-248.5 48.5q-177 0 -320 -82.5t-224.5 -228.5t-81.5 -326zM612 1946h95l153 -400h-67z" />
<glyph unicode="&#xd3;" horiz-adv-x="1658" d="M117 696q0 156 56 290t152.5 226t227 144.5t276.5 52.5t277 -52.5t227 -144.5t152.5 -226t56.5 -290t-56.5 -290t-152.5 -226t-227 -144t-277 -52q-196 0 -358 88.5t-258 252.5t-96 371zM203 696q0 -180 81.5 -326t224.5 -228.5t320 -82.5q132 0 248.5 48.5t199.5 132.5 t131 202.5t48 253.5t-48 253.5t-131 202.5t-199.5 132.5t-248.5 48.5q-177 0 -320 -82.5t-224.5 -228.5t-81.5 -326zM797 1546l153 400h94l-180 -400h-67z" />
<glyph unicode="&#xd4;" horiz-adv-x="1658" d="M117 696q0 156 56 290t152.5 226t227 144.5t276.5 52.5t277 -52.5t227 -144.5t152.5 -226t56.5 -290t-56.5 -290t-152.5 -226t-227 -144t-277 -52q-196 0 -358 88.5t-258 252.5t-96 371zM203 696q0 -180 81.5 -326t224.5 -228.5t320 -82.5q132 0 248.5 48.5t199.5 132.5 t131 202.5t48 253.5t-48 253.5t-131 202.5t-199.5 132.5t-248.5 48.5q-177 0 -320 -82.5t-224.5 -228.5t-81.5 -326zM590 1561l231 372h19l231 -372h-72l-168 243l-169 -243h-72z" />
<glyph unicode="&#xd5;" horiz-adv-x="1658" d="M117 696q0 156 56 290t152.5 226t227 144.5t276.5 52.5t277 -52.5t227 -144.5t152.5 -226t56.5 -290t-56.5 -290t-152.5 -226t-227 -144t-277 -52q-196 0 -358 88.5t-258 252.5t-96 371zM203 696q0 -180 81.5 -326t224.5 -228.5t320 -82.5q132 0 248.5 48.5t199.5 132.5 t131 202.5t48 253.5t-48 253.5t-131 202.5t-199.5 132.5t-248.5 48.5q-177 0 -320 -82.5t-224.5 -228.5t-81.5 -326zM528 1577q4 93 49 146t119 53q46 0 79.5 -18t80.5 -60q47 -41 65 -51.5t46 -10.5q43 0 65.5 32t28.5 101l69 -6q-5 -95 -46.5 -145.5t-118.5 -50.5 q-45 0 -78.5 18.5t-81.5 61.5q-45 39 -63.5 49t-47.5 10q-84 0 -96 -135z" />
<glyph unicode="&#xd6;" horiz-adv-x="1658" d="M117 696q0 156 56 290t152.5 226t227 144.5t276.5 52.5t277 -52.5t227 -144.5t152.5 -226t56.5 -290t-56.5 -290t-152.5 -226t-227 -144t-277 -52q-196 0 -358 88.5t-258 252.5t-96 371zM203 696q0 -180 81.5 -326t224.5 -228.5t320 -82.5q132 0 248.5 48.5t199.5 132.5 t131 202.5t48 253.5t-48 253.5t-131 202.5t-199.5 132.5t-248.5 48.5q-177 0 -320 -82.5t-224.5 -228.5t-81.5 -326zM608 1640q0 27 19.5 46.5t46.5 19.5q26 0 45.5 -19t19.5 -47q0 -27 -19 -46t-46 -19t-46.5 19t-19.5 46zM920 1640q0 28 19 47t46 19t46.5 -19.5 t19.5 -46.5t-19.5 -46t-46.5 -19t-46 19t-19 46z" />
<glyph unicode="&#xd7;" horiz-adv-x="720" d="M92 285l215 215l-215 215l53 53l215 -215l215 215l54 -53l-215 -215l215 -215l-54 -54l-215 215l-215 -215z" />
<glyph unicode="&#xd8;" horiz-adv-x="1658" d="M117 696q0 151 56.5 284.5t152 227t226.5 147.5t277 54q278 0 478 -178l178 180l51 -49l-178 -180q184 -200 184 -486q0 -151 -56.5 -284.5t-152.5 -226.5t-227 -147t-277 -54q-137 0 -259.5 46.5t-217.5 131.5l-180 -182l-51 49l180 182q-184 200 -184 485zM203 696 q0 -251 153 -428l895 908q-175 157 -422 157q-177 0 -320 -82.5t-224.5 -228.5t-81.5 -326zM406 217q179 -158 423 -158q132 0 248.5 48.5t199.5 132.5t131 202.5t48 253.5q0 251 -153 428z" />
<glyph unicode="&#xd9;" d="M197 463v930h84v-924q0 -197 104.5 -304.5t280.5 -107.5q175 0 281 108t106 304v924h84v-930q0 -227 -132 -353t-339 -126q-208 0 -338.5 125.5t-130.5 353.5zM449 1946h94l153 -400h-67z" />
<glyph unicode="&#xda;" d="M197 463v930h84v-924q0 -197 104.5 -304.5t280.5 -107.5q175 0 281 108t106 304v924h84v-930q0 -227 -132 -353t-339 -126q-208 0 -338.5 125.5t-130.5 353.5zM633 1546l153 400h95l-181 -400h-67z" />
<glyph unicode="&#xdb;" d="M197 463v930h84v-924q0 -197 104.5 -304.5t280.5 -107.5q175 0 281 108t106 304v924h84v-930q0 -227 -132 -353t-339 -126q-208 0 -338.5 125.5t-130.5 353.5zM426 1561l231 372h19l231 -372h-71l-168 243l-170 -243h-72z" />
<glyph unicode="&#xdc;" d="M197 463v930h84v-924q0 -197 104.5 -304.5t280.5 -107.5q175 0 281 108t106 304v924h84v-930q0 -227 -132 -353t-339 -126q-208 0 -338.5 125.5t-130.5 353.5zM444 1640q0 27 19.5 46.5t46.5 19.5q26 0 45.5 -19t19.5 -47q0 -27 -19 -46t-46 -19t-46.5 19t-19.5 46z M756 1640q0 28 19 47t46 19t46.5 -19.5t19.5 -46.5t-19.5 -46t-46.5 -19t-46 19t-19 46z" />
<glyph unicode="&#xdd;" horiz-adv-x="1224" d="M84 1393h94l404 -729q21 -41 32 -84q0 4 12.5 33t24.5 51l402 729h88l-486 -883v-510h-86v512zM580 1546l153 400h94l-180 -400h-67z" />
<glyph unicode="&#xde;" horiz-adv-x="1179" d="M211 0v1393h84v-275h285q231 0 359 -107.5t128 -308.5q0 -196 -128 -304.5t-359 -108.5h-285v-289h-84zM295 362h276q410 0 410 340q0 342 -410 342h-276v-682z" />
<glyph unicode="&#xdf;" horiz-adv-x="1064" d="M172 0v1147q0 93 27.5 164t75 112t104 61.5t119.5 20.5q60 0 115.5 -21t101 -61t73 -107t27.5 -151q0 -114 -53.5 -201t-161.5 -128q162 -25 260 -135t98 -275q0 -191 -111.5 -312.5t-307.5 -121.5q-79 0 -142 26l23 68q58 -23 119 -23q162 0 248.5 100t86.5 263 q0 166 -105.5 264.5t-297.5 95.5v74q126 12 197 94.5t71 208.5q0 134 -69.5 202.5t-171.5 68.5q-49 0 -91.5 -15t-78 -48t-56 -91.5t-20.5 -138.5v-1141h-80z" />
<glyph unicode="&#xe0;" horiz-adv-x="948" d="M104 240q0 118 88.5 180.5t217.5 62.5h295v41q0 260 -224 260q-178 0 -272 -143l-57 41q53 82 138.5 127t192.5 45q135 0 218 -82.5t83 -239.5v-532h-79l4 129q-96 -145 -289 -145q-146 0 -231 66.5t-85 189.5zM184 242q0 -187 244 -187q110 0 193.5 59t83.5 152v152 h-285q-104 0 -170 -43t-66 -133zM246 1417h94l154 -399h-68z" />
<glyph unicode="&#xe1;" horiz-adv-x="948" d="M104 240q0 118 88.5 180.5t217.5 62.5h295v41q0 260 -224 260q-178 0 -272 -143l-57 41q53 82 138.5 127t192.5 45q135 0 218 -82.5t83 -239.5v-532h-79l4 129q-96 -145 -289 -145q-146 0 -231 66.5t-85 189.5zM184 242q0 -187 244 -187q110 0 193.5 59t83.5 152v152 h-285q-104 0 -170 -43t-66 -133zM430 1018l154 399h94l-180 -399h-68z" />
<glyph unicode="&#xe2;" horiz-adv-x="948" d="M104 240q0 118 88.5 180.5t217.5 62.5h295v41q0 260 -224 260q-178 0 -272 -143l-57 41q53 82 138.5 127t192.5 45q135 0 218 -82.5t83 -239.5v-532h-79l4 129q-96 -145 -289 -145q-146 0 -231 66.5t-85 189.5zM184 242q0 -187 244 -187q110 0 193.5 59t83.5 152v152 h-285q-104 0 -170 -43t-66 -133zM223 1032l232 373h18l232 -373h-72l-168 244l-170 -244h-72z" />
<glyph unicode="&#xe3;" horiz-adv-x="948" d="M104 240q0 118 88.5 180.5t217.5 62.5h295v41q0 260 -224 260q-178 0 -272 -143l-57 41q53 82 138.5 127t192.5 45q135 0 218 -82.5t83 -239.5v-532h-79l4 129q-96 -145 -289 -145q-146 0 -231 66.5t-85 189.5zM184 242q0 -187 244 -187q110 0 193.5 59t83.5 152v152 h-285q-104 0 -170 -43t-66 -133zM188 1049q4 93 45 145.5t109 52.5q41 0 71 -18t74 -60q41 -40 58.5 -50.5t42.5 -10.5q35 0 54.5 32t25.5 101l69 -6q-5 -95 -43 -146t-108 -51q-41 0 -71 18.5t-75 61.5q-41 39 -57.5 49.5t-42.5 10.5q-70 0 -82 -136z" />
<glyph unicode="&#xe4;" horiz-adv-x="948" d="M104 240q0 118 88.5 180.5t217.5 62.5h295v41q0 260 -224 260q-178 0 -272 -143l-57 41q53 82 138.5 127t192.5 45q135 0 218 -82.5t83 -239.5v-532h-79l4 129q-96 -145 -289 -145q-146 0 -231 66.5t-85 189.5zM184 242q0 -187 244 -187q110 0 193.5 59t83.5 152v152 h-285q-104 0 -170 -43t-66 -133zM242 1194q0 28 19 47t46 19t46.5 -19.5t19.5 -46.5t-19.5 -46.5t-46.5 -19.5t-46 19t-19 47zM553 1194q0 28 19.5 47t45.5 19q27 0 46.5 -19.5t19.5 -46.5t-19.5 -46.5t-46.5 -19.5q-26 0 -45.5 19t-19.5 47z" />
<glyph unicode="&#xe5;" horiz-adv-x="948" d="M104 240q0 118 88.5 180.5t217.5 62.5h295v41q0 260 -224 260q-178 0 -272 -143l-57 41q53 82 138.5 127t192.5 45q135 0 218 -82.5t83 -239.5v-532h-79l4 129q-96 -145 -289 -145q-146 0 -231 66.5t-85 189.5zM184 242q0 -187 244 -187q110 0 193.5 59t83.5 152v152 h-285q-104 0 -170 -43t-66 -133zM270 1188q0 78 56.5 133t136.5 55t136 -55t56 -133t-56.5 -133.5t-135.5 -55.5q-80 0 -136.5 55.5t-56.5 133.5zM344 1188q0 -57 33 -91t86 -34t86 34t33 91t-33 91t-86 34t-86 -34t-33 -91z" />
<glyph unicode="&#xe6;" horiz-adv-x="1630" d="M104 236q0 78 45.5 134t113 80.5t147.5 24.5h295v49q0 260 -224 260q-178 0 -272 -143l-57 41q53 82 138.5 127t192.5 45q112 0 186.5 -59t92.5 -174q51 106 145.5 169.5t212.5 63.5q124 0 219 -60t144 -160.5t47 -223.5h-748q5 -152 100.5 -253.5t254.5 -101.5 q188 0 293 131l53 -47q-125 -155 -346 -155q-130 0 -227 62.5t-148 168.5q-16 -75 -72 -129t-126 -78t-144 -24q-141 0 -228.5 65.5t-87.5 186.5zM184 238q0 -94 60.5 -138.5t183.5 -44.5q110 0 193.5 59t83.5 152v144h-285q-104 0 -170 -42t-66 -130zM786 475h662 q-10 132 -94.5 220.5t-233.5 88.5q-136 0 -227.5 -88.5t-106.5 -220.5z" />
<glyph unicode="&#xe7;" horiz-adv-x="950" d="M106 418q0 181 122.5 308.5t301.5 127.5q203 0 318 -141l-57 -47q-92 116 -261 116q-152 0 -246 -103.5t-94 -260.5q0 -156 94.5 -259.5t245.5 -103.5q180 0 277 125l57 -47q-121 -149 -334 -149h-4v-105q67 -8 115.5 -55.5t48.5 -118.5q0 -81 -54 -126.5t-130 -45.5 q-69 0 -119 34t-74 85l62 37q20 -42 49 -65t80 -23q45 0 75.5 28t30.5 78q0 48 -32 80.5t-95 32.5h-30v170q-151 29 -249 149t-98 279z" />
<glyph unicode="&#xe8;" horiz-adv-x="1036" d="M106 418q0 181 121.5 308.5t298.5 127.5q187 0 300 -129.5t110 -323.5h-748q5 -155 100.5 -250.5t254.5 -95.5q188 0 293 131l53 -47q-125 -155 -346 -155q-194 0 -315.5 125t-121.5 309zM190 467h664q-10 137 -94.5 227t-233.5 90q-140 0 -230.5 -88.5t-105.5 -228.5z M305 1417h94l154 -399h-68z" />
<glyph unicode="&#xe9;" horiz-adv-x="1036" d="M106 418q0 181 121.5 308.5t298.5 127.5q187 0 300 -129.5t110 -323.5h-748q5 -155 100.5 -250.5t254.5 -95.5q188 0 293 131l53 -47q-125 -155 -346 -155q-194 0 -315.5 125t-121.5 309zM190 467h664q-10 137 -94.5 227t-233.5 90q-140 0 -230.5 -88.5t-105.5 -228.5z M489 1018l154 399h94l-180 -399h-68z" />
<glyph unicode="&#xea;" horiz-adv-x="1036" d="M106 418q0 181 121.5 308.5t298.5 127.5q187 0 300 -129.5t110 -323.5h-748q5 -155 100.5 -250.5t254.5 -95.5q188 0 293 131l53 -47q-125 -155 -346 -155q-194 0 -315.5 125t-121.5 309zM190 467h664q-10 137 -94.5 227t-233.5 90q-140 0 -230.5 -88.5t-105.5 -228.5z M283 1032l231 373h18l232 -373h-72l-168 244l-170 -244h-71z" />
<glyph unicode="&#xeb;" horiz-adv-x="1036" d="M106 418q0 181 121.5 308.5t298.5 127.5q187 0 300 -129.5t110 -323.5h-748q5 -155 100.5 -250.5t254.5 -95.5q188 0 293 131l53 -47q-125 -155 -346 -155q-194 0 -315.5 125t-121.5 309zM190 467h664q-10 137 -94.5 227t-233.5 90q-140 0 -230.5 -88.5t-105.5 -228.5z M301 1194q0 27 19.5 46.5t46.5 19.5t46 -19t19 -47t-19 -47t-46 -19t-46.5 19.5t-19.5 46.5zM612 1194q0 27 19.5 46.5t46.5 19.5q26 0 45.5 -19t19.5 -47t-19.5 -47t-45.5 -19q-27 0 -46.5 19.5t-19.5 46.5z" />
<glyph unicode="&#xec;" horiz-adv-x="425" d="M-4 1417h94l154 -399h-68zM174 0v836h80v-836h-80z" />
<glyph unicode="&#xed;" horiz-adv-x="425" d="M174 0v836h80v-836h-80zM180 1018l154 399h94l-180 -399h-68z" />
<glyph unicode="&#xee;" horiz-adv-x="425" d="M-27 1032l232 373h18l232 -373h-72l-168 244l-170 -244h-72zM174 0v836h80v-836h-80z" />
<glyph unicode="&#xef;" horiz-adv-x="425" d="M12 1194q0 27 19.5 46.5t46.5 19.5q26 0 45.5 -19t19.5 -47t-19.5 -47t-45.5 -19q-27 0 -46.5 19.5t-19.5 46.5zM174 0v836h80v-836h-80zM283 1194q0 28 19.5 47t45.5 19q27 0 46.5 -19.5t19.5 -46.5t-19.5 -46.5t-46.5 -19.5q-26 0 -45.5 19t-19.5 47z" />
<glyph unicode="&#xf0;" horiz-adv-x="1081" d="M106 420q0 180 127 307t310 127q204 0 321 -172q-65 271 -286 543l-150 -146l-47 47l151 150q-91 104 -186 186l49 49q99 -79 191 -182l149 148l49 -50l-153 -151q151 -183 247.5 -399t96.5 -445q0 -119 -56.5 -222t-156.5 -164.5t-219 -61.5q-182 0 -309.5 127.5 t-127.5 308.5zM188 420q0 -157 100 -261t255 -104t252.5 107t97.5 270q0 151 -97.5 250.5t-252.5 99.5q-156 0 -255.5 -103t-99.5 -259z" />
<glyph unicode="&#xf1;" horiz-adv-x="1042" d="M172 0v836h80l-2 -187q42 96 126 150.5t193 54.5q141 0 226.5 -89t85.5 -243v-522h-80v508q0 131 -61 201.5t-181 70.5q-137 0 -222 -84.5t-85 -228.5v-467h-80zM248 1049q4 94 44.5 146t108.5 52q41 0 71.5 -18t74.5 -60q42 -40 58.5 -50.5t41.5 -10.5q35 0 54.5 32 t25.5 101l70 -6q-5 -95 -43.5 -146t-108.5 -51q-40 0 -70 18.5t-75 61.5q-41 39 -58 49.5t-43 10.5q-70 0 -82 -136z" />
<glyph unicode="&#xf2;" horiz-adv-x="1081" d="M106 420q0 180 127 307t310 127q182 0 307 -126.5t125 -307.5t-125 -308.5t-307 -127.5t-309.5 127.5t-127.5 308.5zM188 420q0 -157 100 -261t255 -104t252.5 104t97.5 261t-97.5 259.5t-252.5 102.5q-156 0 -255.5 -103t-99.5 -259zM324 1417h94l153 -399h-67z" />
<glyph unicode="&#xf3;" horiz-adv-x="1081" d="M106 420q0 180 127 307t310 127q182 0 307 -126.5t125 -307.5t-125 -308.5t-307 -127.5t-309.5 127.5t-127.5 308.5zM188 420q0 -157 100 -261t255 -104t252.5 104t97.5 261t-97.5 259.5t-252.5 102.5q-156 0 -255.5 -103t-99.5 -259zM508 1018l154 399h94l-181 -399h-67 z" />
<glyph unicode="&#xf4;" horiz-adv-x="1081" d="M106 420q0 180 127 307t310 127q182 0 307 -126.5t125 -307.5t-125 -308.5t-307 -127.5t-309.5 127.5t-127.5 308.5zM188 420q0 -157 100 -261t255 -104t252.5 104t97.5 261t-97.5 259.5t-252.5 102.5q-156 0 -255.5 -103t-99.5 -259zM301 1032l231 373h19l231 -373h-71 l-168 244l-170 -244h-72z" />
<glyph unicode="&#xf5;" horiz-adv-x="1081" d="M106 420q0 180 127 307t310 127q182 0 307 -126.5t125 -307.5t-125 -308.5t-307 -127.5t-309.5 127.5t-127.5 308.5zM188 420q0 -157 100 -261t255 -104t252.5 104t97.5 261t-97.5 259.5t-252.5 102.5q-156 0 -255.5 -103t-99.5 -259zM266 1049q4 93 45 145.5t109 52.5 q41 0 71 -18t74 -60q41 -40 58.5 -50.5t42.5 -10.5q35 0 54 32t25 101l70 -6q-5 -95 -43 -146t-108 -51q-41 0 -71 18.5t-75 61.5q-41 39 -57.5 49.5t-42.5 10.5q-70 0 -82 -136z" />
<glyph unicode="&#xf6;" horiz-adv-x="1081" d="M106 420q0 180 127 307t310 127q182 0 307 -126.5t125 -307.5t-125 -308.5t-307 -127.5t-309.5 127.5t-127.5 308.5zM188 420q0 -157 100 -261t255 -104t252.5 104t97.5 261t-97.5 259.5t-252.5 102.5q-156 0 -255.5 -103t-99.5 -259zM319 1194q0 27 19.5 46.5t46.5 19.5 t46.5 -19.5t19.5 -46.5t-19.5 -46.5t-46.5 -19.5t-46.5 19.5t-19.5 46.5zM631 1194q0 28 19.5 47t45.5 19q27 0 46.5 -19.5t19.5 -46.5t-19.5 -46.5t-46.5 -19.5q-26 0 -45.5 19t-19.5 47z" />
<glyph unicode="&#xf7;" horiz-adv-x="727" d="M80 465v74h567v-74h-567zM285 240q0 33 23.5 55t53.5 22q32 0 55 -22t23 -55q0 -32 -23.5 -55t-54.5 -23q-30 0 -53.5 23t-23.5 55zM285 764q0 33 23.5 55.5t53.5 22.5q31 0 54.5 -22.5t23.5 -55.5q0 -32 -23.5 -55t-54.5 -23q-30 0 -53.5 23t-23.5 55z" />
<glyph unicode="&#xf8;" horiz-adv-x="1081" d="M86 23l121 116q-101 126 -101 281q0 180 127 307t310 127q166 0 288 -109l117 115l45 -49l-116 -113q98 -122 98 -278q0 -181 -125 -308.5t-307 -127.5q-165 0 -289 108l-121 -117zM188 420q0 -129 72 -230l518 504q-94 88 -235 88q-156 0 -255.5 -103t-99.5 -259z M305 141q99 -86 238 -86q155 0 252.5 104t97.5 261q0 133 -70 225z" />
<glyph unicode="&#xf9;" horiz-adv-x="1042" d="M164 309v527h80v-514q0 -129 60 -198t179 -69q137 0 222.5 85.5t85.5 228.5v467h79v-836h-79l2 184q-42 -95 -125.5 -148.5t-192.5 -53.5q-141 0 -226 87.5t-85 239.5zM299 1417h94l154 -399h-68z" />
<glyph unicode="&#xfa;" horiz-adv-x="1042" d="M164 309v527h80v-514q0 -129 60 -198t179 -69q137 0 222.5 85.5t85.5 228.5v467h79v-836h-79l2 184q-42 -95 -125.5 -148.5t-192.5 -53.5q-141 0 -226 87.5t-85 239.5zM483 1018l154 399h94l-180 -399h-68z" />
<glyph unicode="&#xfb;" horiz-adv-x="1042" d="M164 309v527h80v-514q0 -129 60 -198t179 -69q137 0 222.5 85.5t85.5 228.5v467h79v-836h-79l2 184q-42 -95 -125.5 -148.5t-192.5 -53.5q-141 0 -226 87.5t-85 239.5zM276 1032l232 373h18l232 -373h-72l-168 244l-170 -244h-72z" />
<glyph unicode="&#xfc;" horiz-adv-x="1042" d="M164 309v527h80v-514q0 -129 60 -198t179 -69q137 0 222.5 85.5t85.5 228.5v467h79v-836h-79l2 184q-42 -95 -125.5 -148.5t-192.5 -53.5q-141 0 -226 87.5t-85 239.5zM295 1194q0 28 19.5 47t45.5 19q27 0 46.5 -19.5t19.5 -46.5t-19.5 -46.5t-46.5 -19.5 q-26 0 -45.5 19t-19.5 47zM606 1194q0 27 19.5 46.5t46.5 19.5q26 0 45.5 -19t19.5 -47t-19.5 -47t-45.5 -19q-27 0 -46.5 19.5t-19.5 46.5z" />
<glyph unicode="&#xfd;" horiz-adv-x="919" d="M66 836h86l292 -619q8 -18 16 -42.5t12 -40.5l5 -15q13 57 31 98l264 619h82l-547 -1270h-82l211 495zM438 1018l154 399h94l-180 -399h-68z" />
<glyph unicode="&#xfe;" horiz-adv-x="1128" d="M174 -434v1913h80v-842q48 98 139.5 157.5t214.5 59.5q179 0 296.5 -124.5t117.5 -309.5q0 -186 -117.5 -311t-296.5 -125q-118 0 -213 61.5t-141 157.5v-637h-80zM248 420q0 -158 97 -261.5t253 -103.5q153 0 246.5 103.5t93.5 261.5t-93.5 260t-246.5 102 q-156 0 -253 -102.5t-97 -259.5z" />
<glyph unicode="&#xff;" horiz-adv-x="919" d="M66 836h86l292 -619q8 -18 16 -42.5t12 -40.5l5 -15q13 57 31 98l264 619h82l-547 -1270h-82l211 495zM250 1194q0 28 19 47t46 19t46.5 -19.5t19.5 -46.5t-19.5 -46.5t-46.5 -19.5t-46 19t-19 47zM561 1194q0 27 19.5 46.5t46.5 19.5t46 -19t19 -47t-19 -47t-46 -19 t-46.5 19.5t-19.5 46.5z" />
<glyph unicode="&#x152;" horiz-adv-x="2013" d="M117 696q0 315 195.5 506t539.5 191h1012v-74h-729v-582h653v-73h-653v-590h757v-74h-1040q-343 0 -539 191t-196 505zM203 696q0 -138 41.5 -251t122.5 -195.5t207 -128t288 -45.5h189v1241h-189q-162 0 -288 -45.5t-207 -128.5t-122.5 -196t-41.5 -251z" />
<glyph unicode="&#x153;" horiz-adv-x="1816" d="M106 420q0 180 127 307t310 127q138 0 241.5 -76.5t145.5 -202.5q42 125 143 202t234 77q187 0 299.5 -129t109.5 -324h-747q5 -155 100 -250.5t254 -95.5q188 0 293 131l53 -47q-125 -155 -346 -155q-148 0 -250 75t-143 201q-44 -124 -147 -200t-240 -76 q-182 0 -309.5 127.5t-127.5 308.5zM188 420q0 -157 100 -261t255 -104t252.5 104t97.5 261t-97.5 259.5t-252.5 102.5q-156 0 -255.5 -103t-99.5 -259zM971 467h663q-10 138 -94 227.5t-233 89.5q-140 0 -230.5 -88.5t-105.5 -228.5z" />
<glyph unicode="&#x178;" horiz-adv-x="1224" d="M84 1393h94l404 -729q21 -41 32 -84q0 4 12.5 33t24.5 51l402 729h88l-486 -883v-510h-86v512zM391 1640q0 27 19.5 46.5t46.5 19.5t46 -19t19 -47q0 -27 -19 -46t-46 -19t-46.5 19t-19.5 46zM702 1640q0 27 19.5 46.5t46.5 19.5t46.5 -19.5t19.5 -46.5t-19.5 -46 t-46.5 -19t-46.5 19t-19.5 46z" />
<glyph unicode="&#x2c6;" horiz-adv-x="1024" d="M270 1032l232 373h18l232 -373h-72l-168 244l-170 -244h-72z" />
<glyph unicode="&#x2dc;" horiz-adv-x="1024" d="M238 1049q4 94 44.5 146t108.5 52q41 0 71.5 -18t74.5 -60q42 -40 58.5 -50.5t41.5 -10.5q35 0 54.5 32t25.5 101l69 -6q-5 -95 -43 -146t-108 -51q-41 0 -71 18.5t-75 61.5q-41 39 -57.5 49.5t-42.5 10.5q-70 0 -82 -136z" />
<glyph unicode="&#x2000;" horiz-adv-x="973" />
<glyph unicode="&#x2001;" horiz-adv-x="1946" />
<glyph unicode="&#x2002;" horiz-adv-x="973" />
<glyph unicode="&#x2003;" horiz-adv-x="1946" />
<glyph unicode="&#x2004;" horiz-adv-x="648" />
<glyph unicode="&#x2005;" horiz-adv-x="486" />
<glyph unicode="&#x2006;" horiz-adv-x="324" />
<glyph unicode="&#x2007;" horiz-adv-x="324" />
<glyph unicode="&#x2008;" horiz-adv-x="243" />
<glyph unicode="&#x2009;" horiz-adv-x="389" />
<glyph unicode="&#x200a;" horiz-adv-x="108" />
<glyph unicode="&#x2010;" horiz-adv-x="569" d="M104 426v74h359v-74h-359z" />
<glyph unicode="&#x2011;" horiz-adv-x="569" d="M104 426v74h359v-74h-359z" />
<glyph unicode="&#x2012;" horiz-adv-x="569" d="M104 426v74h359v-74h-359z" />
<glyph unicode="&#x2013;" horiz-adv-x="796" d="M78 330v69h639v-69h-639z" />
<glyph unicode="&#x2014;" horiz-adv-x="1243" d="M78 330v69h1087v-69h-1087z" />
<glyph unicode="&#x2018;" horiz-adv-x="364" d="M102 1114q0 13 11 39l108 240h51l-65 -205q22 -5 38.5 -26t16.5 -48q0 -33 -24.5 -57.5t-55.5 -24.5t-55.5 24.5t-24.5 57.5z" />
<glyph unicode="&#x2019;" horiz-adv-x="364" d="M92 1047l66 204q-22 5 -39 26t-17 48q0 33 24.5 57.5t55.5 24.5t55.5 -24.5t24.5 -57.5q0 -16 -10 -39l-109 -239h-51z" />
<glyph unicode="&#x201a;" horiz-adv-x="364" d="M92 -211l66 205q-22 5 -39 26t-17 48q0 33 24.5 57.5t55.5 24.5t55.5 -24.5t24.5 -57.5q0 -16 -10 -39l-109 -240h-51z" />
<glyph unicode="&#x201c;" horiz-adv-x="632" d="M102 1114q0 13 11 39l108 240h51l-65 -205q22 -5 38.5 -26t16.5 -48q0 -33 -24.5 -57.5t-55.5 -24.5t-55.5 24.5t-24.5 57.5zM371 1114q0 16 10 39l108 240h52l-66 -205q22 -5 38.5 -26t16.5 -48q0 -33 -24 -57.5t-55 -24.5t-55.5 24.5t-24.5 57.5z" />
<glyph unicode="&#x201d;" horiz-adv-x="632" d="M92 1047l66 204q-22 5 -39 26t-17 48q0 33 24.5 57.5t55.5 24.5t55.5 -24.5t24.5 -57.5q0 -16 -10 -39l-109 -239h-51zM360 1047l66 204q-22 5 -38.5 26t-16.5 48q0 33 24.5 57.5t55.5 24.5t55 -24.5t24 -57.5q0 -16 -10 -39l-108 -239h-52z" />
<glyph unicode="&#x201e;" horiz-adv-x="632" d="M92 -211l66 205q-22 5 -39 26t-17 48q0 33 24.5 57.5t55.5 24.5t55.5 -24.5t24.5 -57.5q0 -16 -10 -39l-109 -240h-51zM360 -211l66 205q-22 5 -38.5 26t-16.5 48q0 33 24.5 57.5t55.5 24.5t55 -24.5t24 -57.5q0 -16 -10 -39l-108 -240h-52z" />
<glyph unicode="&#x2022;" horiz-adv-x="571" d="M104 522q0 76 54.5 128t128.5 52q73 0 126.5 -52.5t53.5 -127.5q0 -74 -53.5 -127t-126.5 -53q-74 0 -128.5 53t-54.5 127z" />
<glyph unicode="&#x2026;" horiz-adv-x="1142" d="M102 68q0 34 25 58t57 24q33 0 57.5 -23.5t24.5 -58.5q0 -33 -24.5 -57.5t-57.5 -24.5q-31 0 -56.5 24.5t-25.5 57.5zM489 68q0 34 25 58t57 24q33 0 57.5 -23.5t24.5 -58.5q0 -33 -24.5 -57.5t-57.5 -24.5q-31 0 -56.5 24.5t-25.5 57.5zM877 68q0 34 24.5 58t56.5 24 q33 0 57.5 -23.5t24.5 -58.5q0 -33 -24.5 -57.5t-57.5 -24.5q-31 0 -56 24.5t-25 57.5z" />
<glyph unicode="&#x202f;" horiz-adv-x="389" />
<glyph unicode="&#x2039;" horiz-adv-x="450" d="M84 397v17l190 315h93l-195 -323l195 -324h-93z" />
<glyph unicode="&#x203a;" horiz-adv-x="450" d="M84 82l195 324l-195 323h92l191 -315v-17l-191 -315h-92z" />
<glyph unicode="&#x205f;" horiz-adv-x="486" />
<glyph unicode="&#x20ac;" horiz-adv-x="1294" d="M96 352v68h164q-6 43 -6 86q0 42 6 82h-164v67h178q46 168 183.5 271.5t312.5 103.5q259 0 399 -196l-61 -48q-60 84 -140 127t-198 43q-149 0 -258.5 -81.5t-151.5 -219.5h531v-67h-545q-6 -41 -6 -82q0 -45 6 -86h545v-68h-529q43 -134 153 -214.5t255 -80.5 q124 0 205.5 43.5t140.5 132.5l66 -43q-130 -206 -412 -206q-175 0 -312 101.5t-184 266.5h-178z" />
<glyph unicode="&#x2122;" horiz-adv-x="1499" d="M111 1325v68h458v-68h-190v-534h-76v534h-192zM715 791v612h16l291 -342l291 342h16v-612h-76v444l-221 -266h-20l-221 266v-444h-76z" />
<glyph unicode="&#x25fc;" horiz-adv-x="839" d="M0 0v840h840v-840h-840z" />
</font>
</defs>
</svg>
